<?xml version="1.0" encoding="utf-8"?>
<!-- Generator: Adobe Illustrator 17.0.0, SVG Export Plug-In . SVG Version: 6.00 Build 0)  -->
<!DOCTYPE svg PUBLIC "-//W3C//DTD SVG 1.1//EN" "http://www.w3.org/Graphics/SVG/1.1/DTD/svg11.dtd">
<svg version="1.1" id="Capa_1" xmlns="http://www.w3.org/2000/svg" xmlns:xlink="http://www.w3.org/1999/xlink" x="0px" y="0px"
	 width="999.985px" height="286.241px" viewBox="0 0 999.985 286.241" enable-background="new 0 0 999.985 286.241"
	 xml:space="preserve">
<g>
	<g id="XMLID_8_">
		<path fill="#FFFFFF" d="M736.071,56.288c0-11.77-9.542-21.312-21.312-21.312c-11.77,0-21.312,9.542-21.312,21.312
			c0,0.362,0.036,0.715,0.054,1.073c-0.018,0.396-0.054,0.786-0.054,1.186c0,8.854,4.472,17.477,11,22.087v3.448
			c0,0,8.43,0,10.312,0c1.433,0,11.19,0,11.19,0v-4.057c6.074-4.734,10.121-13,10.121-21.478c0-0.401-0.036-0.791-0.054-1.186
			C736.035,57.003,736.071,56.65,736.071,56.288z"/>
		
			<line fill="none" stroke="#222220" stroke-width="1.1316" stroke-miterlimit="10" x1="701.304" y1="92.724" x2="727.428" y2="92.724"/>
		
			<line fill="none" stroke="#222220" stroke-width="1.1316" stroke-miterlimit="10" x1="701.304" y1="85.85" x2="727.428" y2="85.85"/>
		
			<line fill="none" stroke="#222220" stroke-width="1.1316" stroke-miterlimit="10" x1="707.982" y1="92.724" x2="707.982" y2="85.85"/>
		
			<polyline fill="none" stroke="#222220" stroke-width="1.6973" stroke-linecap="square" stroke-linejoin="bevel" stroke-miterlimit="10" points="
			707.982,84.082 704.25,62.082 707.982,65.029 711.322,62.082 714.366,65.225 718,62.082 720.946,65.225 725.464,62.082 
			720.161,84.082 		"/>
		
			<line fill="none" stroke="#222220" stroke-width="1.1316" stroke-miterlimit="10" x1="707.982" y1="99.796" x2="720.357" y2="99.796"/>
	</g>
	<g>
		<path fill="#FFFFFF" d="M184.569,83.946h37.928l45.867,125.957h-40.222l-5.293-17.994h-40.045l-5.645,17.994h-38.987
			L184.569,83.946z M215.087,164.918l-11.29-38.81h-0.352l-12.172,38.81H215.087z"/>
		<path fill="#FFFFFF" d="M386.913,197.026c-8.644,11.113-22.052,15.876-35.811,15.876c-37.223,0-60.156-28.932-60.156-64.743
			c0-47.984,33.695-67.212,62.097-67.212c32.107,0,52.393,17.464,58.038,47.102h-37.222c-1.412-9.174-9.174-15.701-18.347-15.701
			c-26.638,0-25.756,28.049-25.756,36.693c0,11.82,4.763,32.46,28.402,32.46c8.997,0,18.17-4.587,20.111-13.937h-17.113v-26.991
			h51.512v69.33h-24.521L386.913,197.026z"/>
		<path fill="#FFFFFF" d="M509.7,80.947c38.28,0,63.86,27.52,63.86,65.977s-25.579,65.977-63.86,65.977
			c-38.281,0-63.861-27.52-63.861-65.977S471.418,80.947,509.7,80.947z M509.7,181.501c9.878,0,25.05-6.527,25.05-34.577
			s-15.171-34.577-25.05-34.577c-9.88,0-25.051,6.527-25.051,34.577S499.82,181.501,509.7,181.501z"/>
		<path fill="#FFFFFF" d="M607.612,83.946h73.915c22.052,0,41.104,12.172,41.104,35.988c0,13.055-5.998,26.815-18.876,31.578
			c10.584,4.057,17.112,15.701,18.523,31.401c0.529,6.175,0.705,21.171,4.233,26.991h-38.81c-1.94-6.35-2.646-12.877-3.176-19.406
			c-1.058-11.995-2.117-24.521-17.464-24.521h-20.64v43.927h-38.81V83.946z M646.422,138.987h20.288
			c7.232,0,17.112-1.236,17.112-12.526c0-7.938-4.411-12.525-19.229-12.525h-18.17V138.987z"/>
		<path fill="#FFFFFF" d="M790.906,83.946h37.928l45.867,125.957h-40.222l-5.293-17.994h-40.045l-5.645,17.994h-38.987
			L790.906,83.946z M821.424,164.918l-11.29-38.81h-0.352l-12.172,38.81H821.424z"/>
	</g>
	<g>
		<g>
			<g>
				<rect x="603.918" y="85.784" fill="#000033" width="4.322" height="124.119"/>
			</g>
		</g>
		<g>
			<g>
				<path fill="#000033" d="M267.657,210.65l-46.4-125.967l4.056-1.494l46.4,125.967L267.657,210.65z M219.524,167.076h-26.76
					v-4.322h20.874l-11.292-36.007l1.709-0.536v-2.272h1.939L219.524,167.076z"/>
			</g>
		</g>
		<g>
			<g>
				<path fill="#000033" d="M414.84,209.903h-4.322V142.73h-47.193V165.4h17.608l-0.54,2.6c-2.244,10.818-12.781,15.66-22.228,15.66
					c-22.535,0-30.565-17.885-30.565-34.623l-0.001-0.801c-0.019-6.573-0.062-21.963,8.987-31.038
					c4.645-4.658,11.015-7.019,18.933-7.019c10.307,0,18.922,7.375,20.484,17.536l-4.271,0.656
					c-1.236-8.037-8.054-13.87-16.213-13.87c-6.728,0-12.069,1.934-15.873,5.749c-7.782,7.804-7.742,21.939-7.725,27.974
					l0.001,0.814c0,7.109,1.893,30.301,26.243,30.301c6.855,0,14.388-2.997,17.19-9.616h-16.351v-31.313h55.837V209.903z"/>
			</g>
		</g>
		<g>
			<g>
				<path fill="#000033" d="M509.706,183.659c-13.156,0-27.214-9.652-27.214-36.739c0-27.089,14.058-36.742,27.214-36.742
					s27.214,9.653,27.214,36.742C536.92,174.008,522.862,183.659,509.706,183.659z M509.706,114.5
					c-5.37,0-22.892,2.338-22.892,32.42c0,30.08,17.522,32.417,22.892,32.417c5.37,0,22.892-2.337,22.892-32.417
					C532.598,116.839,515.076,114.5,509.706,114.5z"/>
			</g>
		</g>
		<g>
			<g>
				<path fill="#000033" d="M724.675,211.024c-3.157-5.208-3.798-15.952-4.264-23.794c-0.096-1.6-0.179-3.016-0.276-4.136
					c-1.359-15.132-7.609-25.913-17.144-29.57l-5.358-2.054l5.382-1.99c12.891-4.766,17.465-18.899,17.465-29.553
					c0-24.969-20.98-33.829-38.945-33.829v-4.322c21.536,0,43.267,11.797,43.267,38.151c0,10.838-4.303,24.903-16.08,31.644
					c8.758,5.452,14.404,16.512,15.719,31.145c0.099,1.16,0.187,2.614,0.284,4.257c0.39,6.553,1.044,17.518,3.646,21.81
					L724.675,211.024z"/>
			</g>
		</g>
		<g>
			<g>
				<path fill="#000033" d="M873.998,212.064h-38.99v-4.322h38.99V212.064z M746.538,210.65l-4.056-1.494l46.4-125.967l4.056,1.494
					L746.538,210.65z"/>
			</g>
		</g>
		<g>
			<g>
				<rect x="226.489" y="207.742" fill="#000033" width="43.196" height="4.322"/>
			</g>
		</g>
	</g>
	<g>
		<g>
			<g>
				<path fill="#000033" d="M110.685,125.648c-0.431,0-0.859-0.141-1.213-0.415L88.36,108.896H75.242
					c-1.094,0-1.983-0.887-1.983-1.983V60.235c0-1.094,0.888-1.983,1.983-1.983h65.035c1.094,0,1.983,0.888,1.983,1.983v46.678
					c0,1.095-0.888,1.983-1.983,1.983h-27.61v14.769c0,0.757-0.431,1.447-1.11,1.78
					C111.281,125.581,110.983,125.648,110.685,125.648z M77.225,104.931h11.813c0.439,0,0.866,0.147,1.213,0.415l18.452,14.28
					v-12.712c0-1.094,0.888-1.983,1.983-1.983h27.609V62.218h-61.07V104.931z"/>
			</g>
		</g>
		<g>
			<g>
				<circle fill="#FFFFFF" cx="124.833" cy="80.709" r="5.074"/>
			</g>
			<g>
				<circle fill="#FFFFFF" cx="107.76" cy="80.709" r="5.074"/>
			</g>
			<g>
				<circle fill="#FFFFFF" cx="90.687" cy="80.709" r="5.074"/>
			</g>
		</g>
	</g>
	<g>
		<g>
			<g>
				<path fill="#000033" d="M150.012,211.203c-1.032,0-1.869-0.836-1.869-1.868v-18.614c0-1.032,0.837-1.869,1.869-1.869h29.05
					v-35.238c-0.282-2.032-4.105-25.398-30.469-25.398c-26.463,0-30.2,23.974-30.47,26.024v55.096c0,1.032-0.837,1.868-1.869,1.868
					c-1.032,0-1.869-0.836-1.869-1.868v-55.213c0-0.074,0.004-0.148,0.014-0.222c0.035-0.294,3.86-29.422,34.194-29.422
					c30.329,0,34.157,28.499,34.193,28.787c0.008,0.075,0.014,0.15,0.014,0.226v37.229c0,1.032-0.837,1.869-1.869,1.869h-29.05
					v16.745C151.881,210.368,151.044,211.203,150.012,211.203z"/>
			</g>
		</g>
		<g>
			<g>
				<path fill="#000033" d="M168.626,176.184h-4.732c-1.032,0-1.869-0.837-1.869-1.869s0.837-1.869,1.869-1.869h2.864v-7.913
					c0-1.032,0.837-1.869,1.869-1.869s1.869,0.837,1.869,1.869v9.781C170.495,175.348,169.658,176.184,168.626,176.184z"/>
			</g>
		</g>
	</g>
	<g>
		<g>
			<g>
				<path fill="#000033" d="M500.877,40.702h9.514v9.514c0,6.771-2.828,12.599-9.428,12.599v-4.286c3.857,0,4.971-4.371,4.971-8.313
					h-5.057V40.702z M516.562,40.702h9.514v9.514c0,6.771-2.828,12.599-9.428,12.599v-4.286c3.857,0,4.972-4.371,4.972-8.313h-5.057
					V40.702z"/>
			</g>
		</g>
		<g>
			<g>
				<path fill="#000033" d="M589.509,114.713h-9.514v-9.514c0-6.771,2.828-12.599,9.428-12.599v4.286
					c-3.857,0-4.971,4.371-4.971,8.313h5.057V114.713z M573.824,114.713h-9.514v-9.514c0-6.771,2.828-12.599,9.428-12.599v4.286
					c-3.857,0-4.972,4.371-4.972,8.313h5.057V114.713z"/>
			</g>
		</g>
		<g>
			<g>
				<path fill="#000033" d="M544.368,59.974h-27.721c-0.798,0-1.445-0.647-1.445-1.445s0.647-1.445,1.445-1.445h27.721
					c0.798,0,1.445,0.647,1.445,1.445S545.166,59.974,544.368,59.974z"/>
			</g>
		</g>
		<g>
			<g>
				<path fill="#000033" d="M583.924,69.438h-67.277c-0.798,0-1.445-0.647-1.445-1.445s0.647-1.445,1.445-1.445h67.277
					c0.798,0,1.445,0.647,1.445,1.445S584.722,69.438,583.924,69.438z"/>
			</g>
		</g>
		<g>
			<g>
				<path fill="#000033" d="M583.924,78.902h-67.277c-0.798,0-1.445-0.647-1.445-1.445s0.647-1.445,1.445-1.445h67.277
					c0.798,0,1.445,0.647,1.445,1.445S584.722,78.902,583.924,78.902z"/>
			</g>
		</g>
		<g>
			<g>
				<path fill="#000033" d="M583.924,88.366h-67.277c-0.798,0-1.445-0.647-1.445-1.445s0.647-1.445,1.445-1.445h67.277
					c0.798,0,1.445,0.647,1.445,1.445S584.722,88.366,583.924,88.366z"/>
			</g>
		</g>
		<g>
			<g>
				<path fill="#000033" d="M559.202,97.831h-42.555c-0.798,0-1.445-0.647-1.445-1.445s0.647-1.445,1.445-1.445h42.555
					c0.798,0,1.445,0.647,1.445,1.445S559.999,97.831,559.202,97.831z"/>
			</g>
		</g>
	</g>
	<g id="XMLID_3_">
		<g>
			<path fill="#FFFFFF" d="M794.991,280.219c0,1.414-1.146,2.56-2.56,2.56h-124.2c-1.414,0-2.56-1.146-2.56-2.56v-49.743
				c0-1.414,1.146-2.56,2.56-2.56h79.872l13.711-8.294v8.294h30.616c1.414,0,2.56,1.146,2.56,2.56V280.219z"/>
		</g>
		<g>
			<path fill="#000033" d="M714.759,245.859h-37.577c-0.936,0-1.695-0.76-1.695-1.695s0.759-1.695,1.695-1.695h37.577
				c0.936,0,1.695,0.76,1.695,1.695S715.695,245.859,714.759,245.859z"/>
		</g>
		<g>
			<path fill="#000033" d="M746.919,245.859h-25.558c-0.936,0-1.695-0.76-1.695-1.695s0.759-1.695,1.695-1.695h25.558
				c0.936,0,1.695,0.76,1.695,1.695S747.855,245.859,746.919,245.859z"/>
		</g>
		<g>
			<path fill="#000033" d="M693.6,257.878h-16.418c-0.936,0-1.695-0.76-1.695-1.695s0.759-1.695,1.695-1.695H693.6
				c0.936,0,1.695,0.76,1.695,1.695S694.536,257.878,693.6,257.878z"/>
		</g>
		<g>
			<path fill="#000033" d="M756.229,257.878h-55.35c-0.936,0-1.695-0.76-1.695-1.695s0.759-1.695,1.695-1.695h55.35
				c0.936,0,1.695,0.76,1.695,1.695S757.165,257.878,756.229,257.878z"/>
		</g>
		<g>
			<path fill="#000033" d="M781.281,257.878H763c-0.936,0-1.695-0.76-1.695-1.695s0.759-1.695,1.695-1.695h18.281
				c0.936,0,1.695,0.76,1.695,1.695S782.217,257.878,781.281,257.878z"/>
		</g>
		<g>
			<path fill="#000033" d="M714.759,269.387h-37.577c-0.936,0-1.695-0.76-1.695-1.695s0.759-1.695,1.695-1.695h37.577
				c0.936,0,1.695,0.76,1.695,1.695S715.695,269.387,714.759,269.387z"/>
		</g>
		<g>
			<path fill="#000033" d="M774.848,269.387h-53.487c-0.936,0-1.695-0.76-1.695-1.695s0.759-1.695,1.695-1.695h53.487
				c0.936,0,1.695,0.76,1.695,1.695S775.784,269.387,774.848,269.387z"/>
		</g>
	</g>
	<g>
		<g>
			<path fill="#FFFFFF" d="M377.83,7.767c0-1.422-1.153-2.574-2.574-2.574H250.349c-1.422,0-2.574,1.153-2.574,2.574v50.027
				c0,1.422,1.153,2.574,2.574,2.574h80.327l13.789,8.341v-8.341h30.791c1.422,0,2.574-1.153,2.574-2.574V7.767z"/>
		</g>
		<g>
			<g>
				<path fill="#000033" d="M297.142,45.73h-37.791c-0.941,0-1.704-0.763-1.704-1.704c0-0.941,0.763-1.704,1.704-1.704h37.791
					c0.941,0,1.704,0.763,1.704,1.704C298.846,44.967,298.083,45.73,297.142,45.73z"/>
			</g>
		</g>
		<g>
			<g>
				<path fill="#000033" d="M329.484,45.73h-25.704c-0.941,0-1.704-0.763-1.704-1.704c0-0.941,0.763-1.704,1.704-1.704h25.704
					c0.941,0,1.704,0.763,1.704,1.704C331.189,44.967,330.426,45.73,329.484,45.73z"/>
			</g>
		</g>
		<g>
			<g>
				<path fill="#000033" d="M275.863,33.643h-16.512c-0.941,0-1.704-0.763-1.704-1.704c0-0.941,0.763-1.704,1.704-1.704h16.512
					c0.941,0,1.704,0.763,1.704,1.704C277.567,32.88,276.804,33.643,275.863,33.643z"/>
			</g>
		</g>
		<g>
			<g>
				<path fill="#000033" d="M338.847,33.643h-55.664c-0.941,0-1.704-0.763-1.704-1.704c0-0.941,0.763-1.704,1.704-1.704h55.664
					c0.941,0,1.704,0.763,1.704,1.704C340.551,32.88,339.788,33.643,338.847,33.643z"/>
			</g>
		</g>
		<g>
			<g>
				<path fill="#000033" d="M364.041,33.643h-18.384c-0.941,0-1.704-0.763-1.704-1.704c0-0.941,0.763-1.704,1.704-1.704h18.384
					c0.941,0,1.704,0.763,1.704,1.704C365.745,32.88,364.982,33.643,364.041,33.643z"/>
			</g>
		</g>
		<g>
			<g>
				<path fill="#000033" d="M297.142,22.068h-37.791c-0.941,0-1.704-0.763-1.704-1.704c0-0.941,0.763-1.704,1.704-1.704h37.791
					c0.941,0,1.704,0.763,1.704,1.704C298.846,21.305,298.083,22.068,297.142,22.068z"/>
			</g>
		</g>
		<g>
			<g>
				<path fill="#000033" d="M357.573,22.068h-53.792c-0.941,0-1.704-0.763-1.704-1.704c0-0.941,0.763-1.704,1.704-1.704h53.792
					c0.941,0,1.704,0.763,1.704,1.704C359.277,21.305,358.514,22.068,357.573,22.068z"/>
			</g>
		</g>
	</g>
	<g id="XMLID_2_">
		<g>
			<g>
				<rect x="985.196" y="200.183" fill="#FFFFFF" width="11.265" height="19.442"/>
			</g>
			<g>
				<path fill="#000033" d="M983.871,219.625v-19.442c0-1.13,0.593-2.047,1.325-2.047h11.265c0.732,0,1.325,0.916,1.325,2.047
					v19.442c0,1.13-0.593,2.047-1.325,2.047h-11.265C984.464,221.672,983.871,220.755,983.871,219.625z M995.136,202.229h-8.614
					v15.349h8.614V202.229z"/>
			</g>
		</g>
		<g>
			<g>
				<path fill="#000033" d="M922.245,219.625v-19.442c0-1.13,0.593-2.047,1.325-2.047h61.626c0.732,0,1.325,0.916,1.325,2.047
					v19.442c0,1.13-0.593,2.047-1.325,2.047H923.57C922.838,221.672,922.245,220.755,922.245,219.625z M983.871,202.229h-58.976
					v15.349h58.976V202.229z"/>
			</g>
		</g>
		<g>
			<g>
				<polygon fill="#000033" points="909.654,209.904 923.57,200.183 923.57,219.625 				"/>
			</g>
			<g>
				<path fill="#000033" d="M923.024,221.49l-13.916-9.721c-0.474-0.331-0.779-1.061-0.779-1.865s0.305-1.533,0.779-1.865
					l13.916-9.721c0.41-0.287,0.886-0.232,1.265,0.145c0.378,0.377,0.607,1.025,0.607,1.72v19.442c0,0.695-0.229,1.343-0.607,1.72
					c-0.218,0.217-0.467,0.327-0.719,0.327C923.384,221.672,923.198,221.611,923.024,221.49z M912.87,209.904l9.375,6.549v-13.098
					L912.87,209.904z"/>
			</g>
		</g>
		<g>
			<g>
				<path fill="#000033" d="M895.783,211.95h7.245c0.732,0,1.325-0.916,1.325-2.047c0-1.13-0.593-2.047-1.325-2.047h-7.245
					c-0.732,0-1.325,0.916-1.325,2.047C894.458,211.034,895.051,211.95,895.783,211.95z"/>
			</g>
		</g>
		<g>
			<g>
				<path fill="#000033" d="M882.486,211.95h7.952c0.732,0,1.325-0.916,1.325-2.047c0-1.13-0.593-2.047-1.325-2.047h-7.952
					c-0.732,0-1.325,0.916-1.325,2.047C881.16,211.034,881.754,211.95,882.486,211.95z"/>
			</g>
		</g>
		<g>
			<g>
				<path fill="#000033" d="M850.736,211.95h21.81c0.732,0,1.325-0.916,1.325-2.047c0-1.13-0.593-2.047-1.325-2.047h-21.81
					c-0.732,0-1.325,0.916-1.325,2.047C849.411,211.034,850.004,211.95,850.736,211.95z"/>
			</g>
		</g>
		<g>
			<g>
				<path fill="#000033" d="M923.57,211.95h61.626c0.732,0,1.325-0.916,1.325-2.047c0-1.13-0.593-2.047-1.325-2.047H923.57
					c-0.732,0-1.325,0.916-1.325,2.047C922.245,211.034,922.838,211.95,923.57,211.95z"/>
			</g>
		</g>
	</g>
	<g>
		<g>
			<g>
				<path fill="#000033" d="M425.947,87.117c-1.14,0-2.064-0.924-2.064-2.064V59.636c0-0.909,0.594-1.71,1.462-1.974l17.194-5.234
					c0.628-0.188,1.305-0.073,1.831,0.315c0.524,0.389,0.835,1.005,0.835,1.659v21.679c0,1.14-0.924,2.064-2.064,2.064
					c-1.14,0-2.064-0.924-2.064-2.064V57.188l-13.066,3.977v23.888C428.011,86.192,427.086,87.117,425.947,87.117z"/>
			</g>
		</g>
		<g>
			<g>
				<path fill="#000033" d="M420.595,91.472c-4.364,0-7.915-3.551-7.915-7.915c0-4.364,3.551-7.915,7.915-7.915
					s7.915,3.551,7.915,7.915C428.51,87.922,424.959,91.472,420.595,91.472z M420.595,79.771c-2.088,0-3.787,1.699-3.787,3.787
					c0,2.088,1.699,3.787,3.787,3.787c2.088,0,3.787-1.699,3.787-3.787C424.382,81.47,422.683,79.771,420.595,79.771z"/>
			</g>
		</g>
		<g>
			<g>
				<path fill="#000033" d="M437.789,84.745c-4.364,0-7.915-3.551-7.915-7.915c0-4.364,3.551-7.915,7.915-7.915
					c4.364,0,7.915,3.551,7.915,7.915C445.704,81.194,442.153,84.745,437.789,84.745z M437.789,73.043
					c-2.088,0-3.787,1.699-3.787,3.787c0,2.088,1.699,3.787,3.787,3.787c2.088,0,3.787-1.699,3.787-3.787
					C441.576,74.742,439.877,73.043,437.789,73.043z"/>
			</g>
		</g>
	</g>
	<g id="XMLID_5_">
		<g>
			<circle fill="#FFFFFF" cx="320.695" cy="217.165" r="6.196"/>
			<path fill="#000033" d="M320.695,225.058c-4.353,0-7.893-3.541-7.893-7.893c0-4.352,3.54-7.893,7.893-7.893
				c4.353,0,7.893,3.541,7.893,7.893C328.588,221.517,325.047,225.058,320.695,225.058z M320.695,212.666
				c-2.481,0-4.499,2.017-4.499,4.499c0,2.482,2.019,4.499,4.499,4.499c2.481,0,4.499-2.017,4.499-4.499
				C325.194,214.683,323.176,212.666,320.695,212.666z"/>
		</g>
		<g>
			<g>
				<path fill="#000033" d="M327.12,245.093h-13.218c-0.937,0-1.697-0.76-1.697-1.697v-5.765l-4.077,4.077
					c-0.663,0.663-1.737,0.663-2.399,0l-9.347-9.347c-0.319-0.319-0.497-0.751-0.497-1.201c0-0.45,0.178-0.882,0.497-1.201
					l4.075-4.075h-5.763c-0.937,0-1.697-0.76-1.697-1.697v-13.219c0-0.937,0.76-1.697,1.697-1.697h5.68
					c0.007-0.021,0.016-0.04,0.023-0.061l-4.015-4.014c-0.663-0.663-0.663-1.739,0-2.402l9.347-9.347
					c0.635-0.633,1.764-0.633,2.399,0l3.769,3.769c0.102-0.044,0.205-0.089,0.308-0.133v-5.324c0-0.937,0.76-1.697,1.697-1.697
					h13.218c0.937,0,1.697,0.76,1.697,1.697v5.172c0.14,0.057,0.28,0.114,0.419,0.173l3.658-3.657c0.663-0.663,1.737-0.663,2.399,0
					l9.347,9.347c0.663,0.663,0.663,1.739,0,2.402l-3.751,3.75c0.044,0.108,0.088,0.215,0.13,0.325h5.31
					c0.937,0,1.697,0.76,1.697,1.697v13.219c0,0.937-0.76,1.697-1.697,1.697h-5.651c-0.012,0.027-0.023,0.053-0.035,0.078
					l3.998,3.997c0.319,0.319,0.497,0.751,0.497,1.201c0,0.449-0.178,0.882-0.497,1.201l-9.347,9.347
					c-0.663,0.663-1.737,0.663-2.399,0l-4.077-4.077v5.765C328.817,244.333,328.057,245.093,327.12,245.093z M315.598,241.7h9.825
					v-5.487c0-0.73,0.466-1.378,1.159-1.61c0.599-0.198,1.183-0.433,1.752-0.692c0.642-0.293,1.402-0.16,1.906,0.342l3.855,3.856
					l6.947-6.947l-3.647-3.645c-0.521-0.521-0.647-1.319-0.31-1.975c0.322-0.629,0.612-1.277,0.861-1.946
					c0.248-0.665,0.881-1.104,1.59-1.104h5.096v-9.826h-4.81c-0.735,0-1.388-0.475-1.614-1.173
					c-0.244-0.755-0.537-1.494-0.871-2.199c-0.307-0.648-0.174-1.418,0.333-1.927l3.371-3.37l-6.947-6.947l-3.293,3.292
					c-0.516,0.515-1.3,0.644-1.952,0.321c-0.725-0.359-1.489-0.673-2.27-0.937c-0.69-0.232-1.155-0.88-1.155-1.608v-4.66h-9.825
					v4.784c0,0.715-0.45,1.355-1.124,1.598c-0.724,0.26-1.448,0.574-2.154,0.937c-0.656,0.338-1.453,0.211-1.975-0.308l-3.418-3.419
					l-6.947,6.947l3.624,3.623c0.501,0.502,0.638,1.26,0.344,1.906c-0.29,0.637-0.548,1.292-0.766,1.967
					c-0.227,0.699-0.879,1.173-1.614,1.173h-5.179v9.826h5.465c0.708,0,1.342,0.439,1.589,1.102
					c0.221,0.591,0.472,1.165,0.748,1.724c0.323,0.652,0.194,1.439-0.321,1.954l-3.89,3.889l6.947,6.947l3.968-3.97
					c0.507-0.509,1.278-0.642,1.928-0.331c0.536,0.253,1.088,0.481,1.651,0.684c0.674,0.243,1.123,0.882,1.123,1.598V241.7z"/>
			</g>
		</g>
	</g>
	<g id="XMLID_7_">
		<g>
			<g>
				<path fill="#000033" d="M62.701,222.405c-0.923,0-1.672-0.747-1.672-1.671v-52.148H12.41v16.144
					c0,0.923-0.749,1.672-1.672,1.672s-1.672-0.749-1.672-1.672v-17.816c0-0.923,0.749-1.672,1.672-1.672h51.964
					c0.923,0,1.672,0.749,1.672,1.672v53.821C64.374,221.658,63.625,222.405,62.701,222.405z"/>
			</g>
		</g>
		<g>
			<g>
				<path fill="#000033" d="M62.701,269.915H10.737c-0.923,0-1.672-0.747-1.672-1.671v-31.921c0-0.924,0.749-1.671,1.672-1.671
					s1.672,0.747,1.672,1.671v30.25h48.619V247.83c0-0.924,0.749-1.671,1.672-1.671s1.672,0.747,1.672,1.671v20.413
					C64.374,269.168,63.625,269.915,62.701,269.915z"/>
			</g>
		</g>
		<g>
			<rect x="28.368" y="171.738" fill="#000033" width="16.703" height="3.341"/>
		</g>
		<g>
			<rect x="34.678" y="257.851" fill="#000033" width="4.083" height="4.083"/>
		</g>
		<g>
			<rect x="16.49" y="180.646" fill="#FFFFFF" width="40.458" height="73.493"/>
		</g>
		<g>
			<g>
				<path fill="#000033" d="M10.737,231.313c-0.229,0-0.46-0.046-0.677-0.144c-0.605-0.268-0.995-0.867-0.995-1.528v-7.236H3.87
					c-0.923,0-1.672-0.747-1.672-1.671v-30.808c0-0.923,0.749-1.672,1.672-1.672h46.768c0.923,0,1.672,0.749,1.672,1.672v30.808
					c0,0.924-0.749,1.671-1.672,1.671h-29.42l-9.358,8.475C11.546,231.165,11.145,231.313,10.737,231.313z M5.543,219.062h5.195
					c0.923,0,1.672,0.747,1.672,1.671v5.139l7.041-6.377c0.308-0.279,0.708-0.433,1.123-0.433h28.392v-27.464H5.543V219.062z"/>
			</g>
		</g>
		<g>
			<g>
				<path fill="#000033" d="M41.73,203.104H13.15c-0.923,0-1.672-0.747-1.672-1.671c0-0.924,0.749-1.671,1.672-1.671h28.58
					c0.923,0,1.672,0.747,1.672,1.671C43.402,202.357,42.653,203.104,41.73,203.104z"/>
			</g>
		</g>
		<g>
			<g>
				<path fill="#000033" d="M41.73,211.454H13.15c-0.923,0-1.672-0.747-1.672-1.671s0.749-1.671,1.672-1.671h28.58
					c0.923,0,1.672,0.747,1.672,1.671S42.653,211.454,41.73,211.454z"/>
			</g>
		</g>
		<g>
			<polygon fill="#000033" points="38.761,224.816 38.761,244.118 65.486,244.118 74.765,254.139 74.765,244.118 82.189,244.118 
				82.189,224.816 			"/>
			<path fill="#000033" d="M74.765,255.812c-0.457,0-0.904-0.188-1.227-0.536l-8.782-9.486H38.761c-0.923,0-1.672-0.747-1.672-1.671
				v-19.301c0-0.924,0.749-1.671,1.672-1.671h43.428c0.923,0,1.672,0.747,1.672,1.671v19.301c0,0.924-0.749,1.671-1.672,1.671
				h-5.751v8.351c0,0.688-0.422,1.306-1.063,1.557C75.177,255.774,74.97,255.812,74.765,255.812z M40.433,242.447h25.053
				c0.465,0,0.911,0.194,1.227,0.536l6.38,6.89v-5.755c0-0.924,0.749-1.671,1.672-1.671h5.751v-15.958H40.433V242.447z"/>
		</g>
		<g>
			<g>
				<path fill="#FFFFFF" d="M75.136,236.139H45.071c-0.923,0-1.672-0.747-1.672-1.671c0-0.924,0.749-1.671,1.672-1.671h30.066
					c0.923,0,1.672,0.747,1.672,1.671C76.809,235.392,76.06,236.139,75.136,236.139z"/>
			</g>
		</g>
	</g>
	<g id="XMLID_6_">
		<g>
			<g>
				<path fill="#000033" d="M513.677,194.357h-90.101c-1.388,0-2.512-1.125-2.512-2.511v-19.733c0-1.388,1.125-2.512,2.512-2.512
					h12.1c1.388,0,2.512,1.125,2.512,2.512s-1.125,2.512-2.512,2.512h-9.587v14.708h85.076v-15.452h-4.748
					c-1.388,0-2.512-1.125-2.512-2.512s1.125-2.512,2.512-2.512h7.261c1.388,0,2.512,1.125,2.512,2.512v20.477
					C516.189,193.232,515.064,194.357,513.677,194.357z"/>
			</g>
		</g>
		<g>
			<g>
				<path fill="#000033" d="M493.386,173.881H450.01c-1.388,0-2.512-1.125-2.512-2.512s1.125-2.512,2.512-2.512h43.376
					c1.388,0,2.512,1.125,2.512,2.512S494.773,173.881,493.386,173.881z"/>
			</g>
		</g>
		<g>
			<rect x="435.676" y="163.736" fill="#000033" width="8.749" height="17.871"/>
			<path fill="#000033" d="M444.425,184.119h-8.749c-1.388,0-2.512-1.125-2.512-2.512v-17.871c0-1.388,1.125-2.512,2.512-2.512
				h8.749c1.388,0,2.512,1.125,2.512,2.512v17.871C446.937,182.995,445.812,184.119,444.425,184.119z M438.188,179.095h3.725
				v-12.847h-3.725V179.095z"/>
		</g>
		<g>
			<rect x="492.454" y="163.736" fill="#000033" width="8.749" height="17.871"/>
			<path fill="#000033" d="M501.203,184.119h-8.749c-1.388,0-2.512-1.125-2.512-2.512v-17.871c0-1.388,1.125-2.512,2.512-2.512
				h8.749c1.388,0,2.512,1.125,2.512,2.512v17.871C503.716,182.995,502.591,184.119,501.203,184.119z M494.966,179.095h3.725
				v-12.847h-3.725V179.095z"/>
		</g>
		<g>
			<polyline fill="#000033" points="423.575,191.956 423.575,243.412 513.677,243.412 513.677,191.956 			"/>
			<path fill="#000033" d="M513.677,245.923h-90.101c-1.388,0-2.512-1.125-2.512-2.511v-51.455c0-1.388,1.125-2.512,2.512-2.512
				s2.512,1.125,2.512,2.512V240.9h85.076v-48.944c0-1.388,1.125-2.512,2.512-2.512c1.388,0,2.512,1.125,2.512,2.512v51.455
				C516.189,244.798,515.064,245.923,513.677,245.923z"/>
		</g>
		<g>
			<rect x="437.165" y="202.643" fill="#FFFFFF" width="4.84" height="2.979"/>
		</g>
		<g>
			<rect x="448.893" y="202.643" fill="#FFFFFF" width="4.84" height="2.979"/>
		</g>
		<g>
			<rect x="460.621" y="202.643" fill="#FFFFFF" width="4.84" height="2.979"/>
		</g>
		<g>
			<rect x="472.349" y="202.643" fill="#FFFFFF" width="4.84" height="2.979"/>
		</g>
		<g>
			<rect x="484.077" y="202.643" fill="#FFFFFF" width="4.84" height="2.979"/>
		</g>
		<g>
			<rect x="495.805" y="202.643" fill="#FFFFFF" width="4.84" height="2.979"/>
		</g>
		<g>
			<rect x="437.165" y="214.929" fill="#FFFFFF" width="4.84" height="2.979"/>
		</g>
		<g>
			<rect x="448.893" y="214.929" fill="#FFFFFF" width="4.84" height="2.979"/>
		</g>
		<g>
			<rect x="460.621" y="214.929" fill="#FFFFFF" width="4.84" height="2.979"/>
		</g>
		<g>
			<g>
				<path fill="#FFFFFF" d="M480.046,221.696h-10.555v-10.554h10.555V221.696z M471.5,219.687h6.537v-6.536H471.5V219.687z"/>
			</g>
		</g>
		<g>
			<rect x="484.077" y="214.929" fill="#FFFFFF" width="4.84" height="2.979"/>
		</g>
		<g>
			<rect x="495.805" y="214.929" fill="#FFFFFF" width="4.84" height="2.979"/>
		</g>
		<g>
			<g>
				<path fill="#FFFFFF" d="M445.218,233.982h-11.267v-10.554h11.267V233.982z M435.96,231.973h7.249v-6.536h-7.249V231.973z"/>
			</g>
		</g>
		<g>
			<rect x="448.893" y="227.216" fill="#FFFFFF" width="4.84" height="2.979"/>
		</g>
		<g>
			<rect x="460.621" y="227.216" fill="#FFFFFF" width="4.84" height="2.979"/>
		</g>
		<g>
			<rect x="472.349" y="227.216" fill="#FFFFFF" width="4.84" height="2.979"/>
		</g>
		<g>
			<rect x="484.077" y="227.216" fill="#FFFFFF" width="4.84" height="2.979"/>
		</g>
		<g>
			<rect x="495.805" y="227.216" fill="#FFFFFF" width="4.84" height="2.979"/>
		</g>
	</g>
	<g>
		<g>
			<g>
				<g>
					<line fill="#000033" x1="589.509" y1="245.228" x2="589.509" y2="253.473"/>
					<path fill="#000033" d="M589.508,254.744c-0.702,0-1.271-0.568-1.271-1.27v-8.245c0-0.703,0.57-1.27,1.271-1.27
						c0.702,0,1.271,0.568,1.271,1.27v8.245C590.78,254.176,590.21,254.744,589.508,254.744z"/>
				</g>
				<g>
					<line fill="#000033" x1="589.509" y1="278.64" x2="589.509" y2="270.395"/>
					<path fill="#000033" d="M589.508,279.909c-0.702,0-1.271-0.568-1.271-1.27v-8.245c0-0.703,0.57-1.27,1.271-1.27
						c0.702,0,1.271,0.568,1.271,1.27v8.245C590.78,279.342,590.21,279.909,589.508,279.909z"/>
				</g>
			</g>
			<g>
				<g>
					<line fill="#000033" x1="606.215" y1="261.934" x2="597.969" y2="261.934"/>
					<path fill="#000033" d="M606.215,263.204h-8.245c-0.702,0-1.271-0.568-1.271-1.27c0-0.703,0.57-1.27,1.271-1.27h8.245
						c0.702,0,1.271,0.568,1.271,1.27C607.486,262.636,606.916,263.204,606.215,263.204z"/>
				</g>
				<g>
					<line fill="#000033" x1="572.803" y1="261.934" x2="581.048" y2="261.934"/>
					<path fill="#000033" d="M581.048,263.204h-8.245c-0.702,0-1.271-0.568-1.271-1.27c0-0.703,0.57-1.27,1.271-1.27h8.245
						c0.702,0,1.271,0.568,1.271,1.27C582.319,262.636,581.75,263.204,581.048,263.204z"/>
				</g>
			</g>
		</g>
		<g>
			<g>
				<g>
					<line fill="#000033" x1="577.696" y1="250.121" x2="583.526" y2="255.951"/>
					<path fill="#000033" d="M583.526,257.221c-0.325,0-0.65-0.122-0.899-0.371l-5.831-5.829c-0.496-0.496-0.496-1.302,0-1.798
						c0.496-0.494,1.3-0.498,1.798,0l5.831,5.829c0.496,0.496,0.496,1.302,0,1.798C584.178,257.097,583.852,257.221,583.526,257.221
						z"/>
				</g>
				<g>
					<line fill="#000033" x1="601.322" y1="273.747" x2="595.491" y2="267.917"/>
					<path fill="#000033" d="M601.322,275.018c-0.325,0-0.651-0.122-0.899-0.371l-5.831-5.831c-0.496-0.496-0.496-1.302,0-1.798
						c0.496-0.498,1.302-0.498,1.798,0l5.831,5.831c0.496,0.496,0.496,1.302,0,1.798
						C601.973,274.895,601.647,275.018,601.322,275.018z"/>
				</g>
			</g>
			<g>
				<g>
					<line fill="#000033" x1="601.322" y1="250.121" x2="595.491" y2="255.951"/>
					<path fill="#000033" d="M595.491,257.221c-0.325,0-0.651-0.122-0.899-0.371c-0.496-0.496-0.496-1.302,0-1.798l5.831-5.829
						c0.498-0.498,1.302-0.498,1.798,0c0.496,0.496,0.496,1.302,0,1.798l-5.831,5.829
						C596.141,257.099,595.816,257.221,595.491,257.221z"/>
				</g>
				<g>
					<line fill="#000033" x1="577.696" y1="273.747" x2="583.526" y2="267.917"/>
					<path fill="#000033" d="M577.696,275.018c-0.325,0-0.651-0.122-0.899-0.371c-0.496-0.496-0.496-1.302,0-1.798l5.831-5.831
						c0.496-0.498,1.302-0.498,1.798,0c0.496,0.496,0.496,1.302,0,1.798l-5.831,5.831
						C578.347,274.895,578.021,275.018,577.696,275.018z"/>
				</g>
			</g>
		</g>
	</g>
	<g>
		<g>
			<g>
				<path fill="#000033" d="M911.286,172.483c-4.823,0-8.747-3.924-8.747-8.747s3.924-8.747,8.747-8.747s8.747,3.924,8.747,8.747
					S916.109,172.483,911.286,172.483z M911.286,158.84c-2.7,0-4.896,2.196-4.896,4.896c0,2.7,2.196,4.896,4.896,4.896
					s4.896-2.196,4.896-4.896C916.182,161.035,913.986,158.84,911.286,158.84z"/>
			</g>
		</g>
		<g>
			<g>
				<path fill="#000033" d="M934.871,172.483c-4.823,0-8.748-3.924-8.748-8.747s3.925-8.747,8.748-8.747s8.747,3.924,8.747,8.747
					S939.694,172.483,934.871,172.483z M934.871,158.84c-2.7,0-4.897,2.196-4.897,4.896c0,2.7,2.197,4.896,4.897,4.896
					c2.7,0,4.896-2.196,4.896-4.896C939.767,161.035,937.571,158.84,934.871,158.84z"/>
			</g>
		</g>
		<g>
			<g>
				<path fill="#000033" d="M958.455,172.483c-4.823,0-8.747-3.924-8.747-8.747s3.924-8.747,8.747-8.747s8.747,3.924,8.747,8.747
					S963.278,172.483,958.455,172.483z M958.455,158.84c-2.7,0-4.896,2.196-4.896,4.896c0,2.7,2.196,4.896,4.896,4.896
					s4.896-2.196,4.896-4.896C963.351,161.035,961.155,158.84,958.455,158.84z"/>
			</g>
		</g>
	</g>
	<g>
		<g>
			<g>
				<g>
					<g>
						<path fill="#000033" d="M623.362,184.921h-71.969c-1.831,0-3.314-1.484-3.314-3.314c0-1.831,1.484-3.314,3.314-3.314h71.969
							c1.831,0,3.314,1.484,3.314,3.314C626.677,183.438,625.193,184.921,623.362,184.921z"/>
					</g>
				</g>
				<g>
					<g>
						<polygon fill="#000033" points="610.158,192.845 621.403,181.607 610.158,170.369 619.701,170.369 630.938,181.607 
							619.701,192.845 						"/>
					</g>
				</g>
			</g>
		</g>
	</g>
	<g>
		<g>
			<g>
				<path fill="#000033" d="M296.121,128.801c-0.684,0-1.366-0.261-1.889-0.782l-22.754-22.754c-1.042-1.044-1.042-2.734,0-3.777
					c1.045-1.043,2.733-1.043,3.777,0l22.754,22.754c1.043,1.044,1.043,2.734,0,3.777
					C297.488,128.541,296.805,128.801,296.121,128.801z"/>
			</g>
		</g>
		<g>
			<g>
				<path fill="#000033" d="M273.368,128.801c-0.684,0-1.366-0.261-1.889-0.782c-1.042-1.044-1.042-2.734,0-3.777l22.754-22.754
					c1.045-1.043,2.733-1.043,3.777,0c1.043,1.044,1.043,2.734,0,3.777l-22.754,22.754
					C274.734,128.541,274.051,128.801,273.368,128.801z"/>
			</g>
		</g>
	</g>
	<g id="XMLID_4_">
		<g>
			<g>
				<path fill="#000033" d="M918.694,89.24h-9.809c-0.51,0-0.994-0.218-1.332-0.6c-0.338-0.381-0.495-0.89-0.433-1.395
					c0.046-0.374,4.603-37.587,4.603-54.019c0-13.376-12.523-23.272-16.109-25.83c-3.587,2.559-16.108,12.454-16.108,25.83
					c0,16.434,4.555,53.646,4.602,54.019c0.062,0.505-0.095,1.014-0.433,1.395c-0.338,0.382-0.822,0.6-1.332,0.6h-9.809
					c-0.589,0-1.138-0.291-1.47-0.779c-0.213-0.312-5.213-7.749-5.213-15.135c0-6.687,3.835-17.417,11.058-21.338
					c-0.562-7.04-0.96-13.78-0.96-18.763c0-17.514,17.954-29.008,18.718-29.489c0.578-0.365,1.315-0.365,1.893,0
					c0.764,0.481,18.719,11.975,18.719,29.489c0,4.982-0.398,11.723-0.96,18.763c7.223,3.921,11.057,14.651,11.057,21.338
					c0,7.386-4.999,14.823-5.213,15.135C919.833,88.949,919.283,89.24,918.694,89.24z M910.89,85.684h6.823
					c1.185-1.966,4.108-7.326,4.108-12.358c0-5.274-2.929-13.589-7.836-17.327C912.907,68.409,911.462,80.893,910.89,85.684z
					 M873.514,85.684h6.825c-0.572-4.79-2.016-17.275-3.094-29.684c-4.908,3.737-7.837,12.052-7.837,17.326
					C869.408,78.377,872.329,83.723,873.514,85.684z"/>
			</g>
		</g>
		<g>
			<g>
				<path fill="#000033" d="M910.98,70.496h-30.73c-0.981,0-1.778-0.797-1.778-1.778c0-0.981,0.797-1.778,1.778-1.778h30.73
					c0.981,0,1.778,0.797,1.778,1.778C912.758,69.699,911.961,70.496,910.98,70.496z"/>
			</g>
		</g>
		<g>
			<g>
				<path fill="#000033" d="M909.245,79.431h-27.26c-0.981,0-1.778-0.797-1.778-1.778c0-0.981,0.797-1.778,1.778-1.778h27.26
					c0.981,0,1.778,0.797,1.778,1.778C911.023,78.634,910.226,79.431,909.245,79.431z"/>
			</g>
		</g>
		<g>
			<g>
				<path fill="#FFFFFF" d="M895.615,106.503c0,0-6.924-7.47-6.924-13.817c0-7.532,6.924-7.532,6.924-7.532s6.924,0,6.924,7.532
					C902.539,99.033,895.615,106.503,895.615,106.503z"/>
			</g>
			<g>
				<path fill="#000033" d="M895.614,108.281L895.614,108.281c-0.495,0-0.968-0.207-1.304-0.57
					c-0.302-0.326-7.397-8.061-7.397-15.026c0-7.364,5.692-9.31,8.701-9.31s8.702,1.946,8.702,9.31c0,6.964-7.096,14.7-7.398,15.026
					C896.582,108.074,896.109,108.281,895.614,108.281z M895.603,86.932c-0.838,0.012-5.133,0.346-5.133,5.754
					c0,3.978,3.26,8.675,5.145,11.056c1.886-2.382,5.146-7.078,5.146-11.056C900.76,87.278,896.464,86.944,895.603,86.932z"/>
			</g>
		</g>
		<g>
			<g>
				<circle fill="#FFFFFF" cx="895.615" cy="32.504" r="8.511"/>
			</g>
			<g>
				<path fill="#000033" d="M895.614,42.792c-5.673,0-10.288-4.615-10.288-10.289c0-5.673,4.615-10.288,10.288-10.288
					c5.674,0,10.289,4.615,10.289,10.288C905.903,38.177,901.288,42.792,895.614,42.792z M895.614,25.771
					c-3.712,0-6.732,3.02-6.732,6.732c0,3.713,3.02,6.733,6.732,6.733c3.713,0,6.733-3.02,6.733-6.733
					C902.347,28.791,899.327,25.771,895.614,25.771z"/>
			</g>
		</g>
		<g>
			<g>
				<path fill="#000033" d="M809.355,108.532h45.034c0,0,1.481-5.333-6.222-5.037c0.593-3.555-3.555-10.889-11.555-7.666
					c0-4.481-17.184-9.095-19.851,5.952C812.911,99.643,807.578,103.495,809.355,108.532z"/>
			</g>
		</g>
		<g>
			<g>
				<path fill="#000033" d="M873.055,132.53h42.368c0,0-0.593-9.185-10.962-7.703c0.296-5.333-6.222-10.073-12.74-10.073
					c-9.185,0-12.276,9.185-11.471,12.444C876.61,124.531,871.87,129.271,873.055,132.53z"/>
			</g>
		</g>
	</g>
	<g>
		<path fill="#FFFFFF" d="M211.906,65.596h-15.538l11.31-17.022h23.877L211.906,65.596z"/>
	</g>
</g>
</svg>
