<?xml version="1.0" encoding="utf-8"?>
<!-- Generator: Adobe Illustrator 17.0.0, SVG Export Plug-In . SVG Version: 6.00 Build 0)  -->
<!DOCTYPE svg PUBLIC "-//W3C//DTD SVG 1.1//EN" "http://www.w3.org/Graphics/SVG/1.1/DTD/svg11.dtd" [
	<!ENTITY ns_extend "http://ns.adobe.com/Extensibility/1.0/">
	<!ENTITY ns_ai "http://ns.adobe.com/AdobeIllustrator/10.0/">
	<!ENTITY ns_graphs "http://ns.adobe.com/Graphs/1.0/">
	<!ENTITY ns_vars "http://ns.adobe.com/Variables/1.0/">
	<!ENTITY ns_imrep "http://ns.adobe.com/ImageReplacement/1.0/">
	<!ENTITY ns_sfw "http://ns.adobe.com/SaveForWeb/1.0/">
	<!ENTITY ns_custom "http://ns.adobe.com/GenericCustomNamespace/1.0/">
	<!ENTITY ns_adobe_xpath "http://ns.adobe.com/XPath/1.0/">
]>
<svg version="1.1" id="Capa_1" xmlns:x="&ns_extend;" xmlns:i="&ns_ai;" xmlns:graph="&ns_graphs;"
	 xmlns="http://www.w3.org/2000/svg" xmlns:xlink="http://www.w3.org/1999/xlink" x="0px" y="0px" width="1224px"
	 height="673.067px" viewBox="0 0 1224 673.067" enable-background="new 0 0 1224 673.067" xml:space="preserve">
<metadata><?xpacket begin="﻿" id="W5M0MpCehiHzreSzNTczkc9d"?>
<x:xmpmeta xmlns:x="adobe:ns:meta/" x:xmptk="Adobe XMP Core 5.5-c014 79.151739, 2013/04/03-12:12:15        ">
   <rdf:RDF xmlns:rdf="http://www.w3.org/1999/02/22-rdf-syntax-ns#">
      <rdf:Description rdf:about=""
            xmlns:xmp="http://ns.adobe.com/xap/1.0/"
            xmlns:xmpGImg="http://ns.adobe.com/xap/1.0/g/img/"
            xmlns:dc="http://purl.org/dc/elements/1.1/"
            xmlns:xmpTPg="http://ns.adobe.com/xap/1.0/t/pg/"
            xmlns:stDim="http://ns.adobe.com/xap/1.0/sType/Dimensions#"
            xmlns:xmpG="http://ns.adobe.com/xap/1.0/g/"
            xmlns:xmpMM="http://ns.adobe.com/xap/1.0/mm/"
            xmlns:stRef="http://ns.adobe.com/xap/1.0/sType/ResourceRef#"
            xmlns:stEvt="http://ns.adobe.com/xap/1.0/sType/ResourceEvent#">
         <xmp:CreatorTool>Adobe Illustrator CC (Windows)</xmp:CreatorTool>
         <xmp:CreateDate>2017-08-11T22:44:59-05:00</xmp:CreateDate>
         <xmp:ModifyDate>2017-08-11T22:44:59-05:00</xmp:ModifyDate>
         <xmp:MetadataDate>2017-08-11T22:44:59-05:00</xmp:MetadataDate>
         <xmp:Thumbnails>
            <rdf:Alt>
               <rdf:li rdf:parseType="Resource">
                  <xmpGImg:width>256</xmpGImg:width>
                  <xmpGImg:height>140</xmpGImg:height>
                  <xmpGImg:format>JPEG</xmpGImg:format>
                  <xmpGImg:image>/9j/4AAQSkZJRgABAgEBLAEsAAD/7QAsUGhvdG9zaG9wIDMuMAA4QklNA+0AAAAAABABLAAAAAEA&#xA;AQEsAAAAAQAB/+4ADkFkb2JlAGTAAAAAAf/bAIQABgQEBAUEBgUFBgkGBQYJCwgGBggLDAoKCwoK&#xA;DBAMDAwMDAwQDA4PEA8ODBMTFBQTExwbGxscHx8fHx8fHx8fHwEHBwcNDA0YEBAYGhURFRofHx8f&#xA;Hx8fHx8fHx8fHx8fHx8fHx8fHx8fHx8fHx8fHx8fHx8fHx8fHx8fHx8fHx8f/8AAEQgAjAEAAwER&#xA;AAIRAQMRAf/EAaIAAAAHAQEBAQEAAAAAAAAAAAQFAwIGAQAHCAkKCwEAAgIDAQEBAQEAAAAAAAAA&#xA;AQACAwQFBgcICQoLEAACAQMDAgQCBgcDBAIGAnMBAgMRBAAFIRIxQVEGE2EicYEUMpGhBxWxQiPB&#xA;UtHhMxZi8CRygvElQzRTkqKyY3PCNUQnk6OzNhdUZHTD0uIIJoMJChgZhJRFRqS0VtNVKBry4/PE&#xA;1OT0ZXWFlaW1xdXl9WZ2hpamtsbW5vY3R1dnd4eXp7fH1+f3OEhYaHiImKi4yNjo+Ck5SVlpeYmZ&#xA;qbnJ2en5KjpKWmp6ipqqusra6voRAAICAQIDBQUEBQYECAMDbQEAAhEDBCESMUEFURNhIgZxgZEy&#xA;obHwFMHR4SNCFVJicvEzJDRDghaSUyWiY7LCB3PSNeJEgxdUkwgJChgZJjZFGidkdFU38qOzwygp&#xA;0+PzhJSktMTU5PRldYWVpbXF1eX1RlZmdoaWprbG1ub2R1dnd4eXp7fH1+f3OEhYaHiImKi4yNjo&#xA;+DlJWWl5iZmpucnZ6fkqOkpaanqKmqq6ytrq+v/aAAwDAQACEQMRAD8A9U4q7FXYq7FXYq7FXYq8&#xA;rtdNk4WsQ068Tzyt6sl1qhjlEfETAyyNcf3bQNDVQgPgKVzIJ8/S1183qmY7Y7FXYq7FXYq7FXYq&#xA;7FXYq7FXYq7FXYq7FXYq7FXYq7FVO5ube1t5Li5lSGCIFpJZCFVVHUknYYgKg9J8waLrCyNpl5Fd&#xA;CKnqCM1K8hVag779skYkc0A2mGRS7FXYq7FXYq7FXYqk2o+c/KmnTGC91W2hnU0eIyAup/ylWpH0&#xA;5IQJ6IMghP8AlY/kb/q82/3n+mHwpdyOIO/5WP5G/wCrzb/ef6Y+FLuXiDv+Vj+Rv+rzb/ef6Y+F&#xA;LuXiDv8AlY/kb/q82/3n+mPhS7l4gm2l67o2qoX029hu1X7fourla/zAGo+nImJHNIKOwJdiqGvt&#xA;U0zT0El/dw2kbbK88iRA/IuRhAJ5LbdlqOn38XrWN1DdxA0MkEiyLX5qSMSCFtEYFdirsVdirsVd&#xA;irsVY9qfn3y3YTtaidr28TZrWyRrh1/1inwL/smGWRxSLEyCXH8wrt2HoeX7sxno0stvGf8AgfUc&#xA;5Z+XKONuP8xglPr2iX8AP7cQiuQB7iJy33LgOnK8aeaN5q8v6yWTT7xJZkFXt2rHMvzicK/4ZVKB&#xA;HNkCCmuRS7FUl83aPdatoxt7X02njmhuEgm/upfQkWT0pNj8L8aZOEqKCEJo9hrNz5mk13ULJNNR&#xA;bL6lHbLKs0khMgkLuyALRePFR13OGRFUEDmyXK2TsVdirsVdirsVY55qmvbu8sPL1lM9s2pepJe3&#xA;UZpJHaQcfU4H9lpGdUB7b5OG27E9ybaVoulaTbLbadax20SilEFC3uzfaY+5ORMieaQEbgS7FXYq&#xA;o3V5Z2kXq3c8dvFWnqSuqLU9qsQMIFq8sulTzJrE2t8ja2qNJBYG0IhlkjVirSyzR0kbmVqF5UAz&#xA;Nx46G7STZVX1XzZoiiHS7mW+gvSIF+uM07WjsdplZqsUC1qrGlaYywxKiRC8xeYbYG6stbvJL9fi&#xA;C3MvqwSMP2WhPwKrdPhpTCcUa5LZULGwkvHbVtaiWbVrsl5PUAcQqT8EMYNeKqvhkoxAFBCpeCfS&#xA;LaTUNGIs7i2P1mWKIBI7gRgkxzKtA4KkgV6HcYygJc0g09JsdW0+905NQgnja1dBIZeSlVFOR5EG&#xA;g49815BBpttiN/5/vr52i8s26PACVbVbsMITTY+jGOLyf6xIX55fDB3sDPuUn1HWrjTTZXl+8jv/&#xA;AHtxABbOfi5UUx0ZR22PTrlwwxCOIpUujhDyj1DUI37Ot7cAj/h8nwDuY2ire9822BBs9WN3GP8A&#xA;j21FFlB/56xhJB+OQlhiWQkU80z8xNOZvq+uR/oa8CswMrBreQKKkxTCgJp+ywB+eY88JHLdkJhI&#xA;dS1vUvNJbi8lh5eJpFCpMc92v88jCjJG3ZBuR1y/HhA3PNiZWvtbS2tYVhtolhiXoiAKPwy5iq4q&#xA;7FWo1WO6ju0ULcxAiOYAc1B6gN1oe+AgHmqeL54tLNYRqqtGkjiNrxQPSTl0abeqAnbkBTxpmLPB&#xA;1DYJ96bad5l8v6lO8Gn6jb3U0al3jikV2Cg0LUB6VPXKTEjmyBDtO8y+X9SneDT9Rt7qaNS7xxSK&#xA;7BQaFqA9KnExI5qCFfTdX0rU4nl067iu4424O8Lq4DdaHicBiRzUFF4EuxV2KuxV2KuxVjBmhl/M&#xA;a39N1fjo9wDxIND9ah8MtIIjv3tcckZHY2m3mDXbTRNNe+uUklUMkcUEK85JJJG4oiDbck5CMbNM&#xA;yaSz/FOtf9SvqH/B2v8A1Ww8A70X5N/4p1r/AKljUP8Ag7X/AKrY8A71vyd/inWv+pY1D/g7X/qt&#xA;jwDvW/JhfMeYNVvtU1S3JeGd7S1sp+Li3SH4GHEck5s4JYiuZmOIAaybKZRRRRRiOJFjjXZUUAAf&#xA;IDLELsVdirsVcQCKHcHqMVYxbabbapqN09sDb6JyWO5giJSK8miYnkyiilEO3+UcFBWTKqqoVQAo&#xA;FABsABhVvFXYq7FVC9srW9tntrqMSwyCjI36x4H3GKpXp1xdadfLpN9I00UoJ067f7TqoqYpD/Oo&#xA;6HuMVTvFXYq7FXYqtljjljaORQ8bgq6MKgg7EHFVTyBdafo99daFPHFE4T6xp93xVXkty1Gid6VY&#xA;xOdqn7J9sxs2Mk2E+JGI9Rpl9ovl2zd5LSO1t3k2d4kRC3fcqBXKTCZ72P5nF/OCWeW7vyjDf6zF&#xA;pQW2lW5H12vwxtJ6a7xitOP3b1wyhM1afHxjqN2SKysoZSGU7gjcHKm4EEWG8UuxV2KuxVJPMl1I&#xA;ix26EhXqz07gbAZlaeI5uo7VzEARHVjvl7/lP099Knp/0kw5PU/SjsnkWX61ounazp0mn6hH6ttL&#xA;QkAlWDKaqysNwQcw4yINh25FpePKEIAA1XVKDYf6ZJkuPyC07/CMX/V11T/pMkx4/ILTv8Ixf9XX&#xA;VP8ApMkx4/ILTE7fTbbTp763t7s3ifW53aZjycO7kujtU1ZW2YnvmbjNxDUea3yr5U03zUdQ1PXF&#xA;a6tYrqS00+0EkkcSJDQNL+7ZSzO1ev8AtU5spBoMoxtP/wDlU/kD/q1f8l7j/qplXjS72XAHf8qn&#xA;8gf9Wr/kvcf9VMfGl3rwB3/Kp/IH/Vq/5L3H/VTHxpd68AYp538oQeXpLBvLJNnHqjtYXVqZHkWr&#xA;qWWdA7MQ0aq1TXw963YchOxYSjSPtLSC0tYrWBeEMKhEX2GZDFbNqOnwP6c11DFINyjyKp+4nFVP&#xA;9MaR/wAt1v8A8jU/rirv0xpH/Ldb/wDI1P64qiILi3uE9SCVJUrTkjBhXwqMVVMVS/XdPa906RIj&#xA;xuoiJrRx1WaP4kI+Z2xV0OrxPoQ1Yj4Pq5ndOlCq1Ze/cUxVFQaf52ngjmTRoAkqq6g3oBowqKj0&#xA;sp8eLLhKp+ifPP8A1Zrf/pNH/VLHx4rwl36J88/9Wa3/AOk0f9UsfHivCVCzu5JnnguIGtb60f0r&#xA;q1chijEBhRhsyspqCOuWggiwxQWuj0ZtNv12e2ukjY/8V3B9Jx/wwP0YWjVQ4sZHkn2SebSzSm0o&#xA;32pizVhOJx9dJrQycB9mvamBuy8XDG+VbMr8uXUi3JtyaxuCQPBh3zH1ERVud2XmInwdCyPMN3zs&#xA;VdirsVS/WNNa8hUxkCaOvEHoQeoy7Dk4TvycHXaU5Y7fUGJXuma7Y6hZ6zZWbzz2BdZrZes1vKAJ&#xA;EU/zDiGX3GZGSUZCrcLQwy4p0YmiyXTfN3lzUIuUF/Eki7S28zCKaMjYq8b8WUg7dMwzAh3QIRn6&#xA;Z0j/AJbrf/kan9cHCU2r293aXIJt5o5guzGNg1PnQnEhVJ9W0pHZHvIFdSQymVAQR1BFcaK28ntd&#xA;UmOqajY6XatqeoXWpX8sUETKqCIXDfvHkPwqm+x75nCQERbT1eieRNGvdG8rWVhfBRep6j3AQ8hy&#xA;llaSnLuQGpmHklcrbYigjNH8y6HrMl1Hpl2ly9m/p3KqGHFjUD7QFQeJoRtglEjmoNplkUpbf+ZN&#xA;DsNTtNMvLtIb++IFrAQxL1PEbgECp2FTuckIki0WxjzyxfzRocR+xHb3kqj/ACyYkr9Ck/fmRp+r&#xA;CaX3kjR2k8iGjpGzKfcKSMyWDIvKvlXy6nl3T3fT7eeee3imuLiaJJJJJJEDOzOwJJJOYE5mzu2g&#xA;Ck1/w15c/wCrVZ/9I8X/ADTkeI96aDv8NeXP+rVZ/wDSPF/zTjxHvWgwW9sotG8131gsawWuo8b3&#xA;T1RQqEhFjnRQKCqsgangczMMri1yFFE5axdirH/LOk3WuBtChjYadbXk41O6IIQQrcMwgQ/tPJ0/&#xA;yVyvJk4R5piLexgACg2A6DMBudirsVee6uqjzjqxAAJitCT4ngwzNwfS1S5pP5qBOiyAdfWtv+oi&#xA;PLmrJ9JZSNM1Aiot5PpUj9eDxI97z40mU/wlKtHsbeS/1VLCCQ3MdwF1Cob+94ClK+2JyRHVsnps&#xA;xABHJmGi6TJas089BKw4qg3oO9ffMXNlEtg7PQaI4/VLmm2Y7s3Yq7FXYq7FXYqgdR0jS7pXmnsL&#xA;e5uFQ8GliSRqgbCrAnCCUEJF5N0exvvLNhd6to9qmoyoTcK1pFGa8iASnEUqoByc5EHYoiNlbUfK&#xA;jW93Hqvlr0dP1KJeEtvx4WtzFWvpzKg2IJqrgVHviJ9CtdyVp5QtLPQVk1OztX1SW5mnndUWQfv5&#xA;XkCB2VWbipHUZfincq6Ov7RBGOwaNsK0LUJvLGp33mGG3W4so5rqyvbVSI2SL6zzR4q7bE04/wCY&#xA;syQ4g36eXoifIPbUbkitQryAPE7EV8cwHLS7R/LWh6NJdSaZaJbPeP6lyyljyYVI+0TQDkaAbZKU&#xA;ieaAKTLIpS2/8t6Hf6naaneWiTX9iQbWclgUoeQ2BANDuKjY5ISIFIpi3nb/AJS3R/8AmDu/+Jw5&#xA;kafqwmlV617dTppGnW/1m/vI5CAzBI44hRWlkah2BcdBvl8pCIssQLei6RaSWWk2VnIQ0ltBFC7L&#xA;XiWjQKSK022zXk2W4IvArsVS3XvL+na5ZfVbxWBRucFxGeMsUg6PG3Y/5nJRmYmwgi2JTeUPOdqS&#xA;trdWWowr9l7j1LeYjwPprIhPvtmSNQOrDgKC0+8e6gZpIWt7iKR4bi3YglJY2KutRsdxsRl4NsEV&#xA;5N0LWNQ066lOtXNhaLfXgtbeyESmouH5PK8iSFqtX4RQUzFyyAlyZxGzJPLWoao11qGj6q6z32mG&#xA;Ii8ReAngnDGJyg2VqoysBttlUgOYZgqOqXOraprz6Hpt2dPtrSGO41K9jVWmJmLCKGLmGVaiNmZq&#xA;HthAAFlBUkbWPL+r2FvcX8uqaRqUhtle5CG4guCjOh5xqgdH4Ebrsab47SHmvJAfmNpdjaWreYIJ&#xA;nt9XEkESKJG4XILhfRaIni3wsaFRUdcngmbroiYY/wCZ1dtHdUcxu09sFcAEqTcx0NDttmWeTWzT&#xA;/D3mv/qa7j/pEs/+qeYPFHubaPehLLyPrVjcXdza+ZbiOa/kE1231a1PNwONaMhA28MJyA9F4UX/&#xA;AIe81/8AU13H/SJZ/wDVPBxR7lo962Ww88aen1i11SPWuG72N3BHbs48I5oeIVvDkpGNxPSl3TjR&#xA;NZtNY09L225KCWjlhkHGSKVDxeORezK22QlGikG0dgSl1/rltayGIKZZR9oA0A9icuhgMt3A1HaE&#xA;MZrmUJ/ihf8AlmP/AAf/ADbln5bzcb+Vx/N+39iUeafzAm0fRZr63sfWlQqqqzniORpyagrQY/lv&#xA;Ntwdo+JLhqvi3oHn6fVdBi1B7D0Z5Vb92HJUlSQCtVrQ0rj+W81zdpCE+GvtXeWPOGo3Gg2c2p2x&#xA;+vun78/3dSGIB4U2qKYTpvNjk7UEZEVfxTT/ABQP+Wb/AIf/AJtwflvNr/lf+j9v7Et1HVJr1hyH&#xA;CNfsxjffxJ75djxCLgarVyzHfYdzC/Nfl6NrG+vbZ5Yy4WW8tUIMc4iIYkqRs3Feq5YQ3aPVmJED&#xA;9L162uYbm2iuYGDwzoskTjoVcclP0g5qyHolTFXYq7FWCedv+Ut0f/mDu/8AicOZWn6tc0pvo7u3&#xA;mXVtPuTaahaRSBZOIdHjNGaORG6qSo+WXyiJCiwBp6No93LeaRY3coAluLeKWQLsOToGNK12qc18&#xA;hRbwi8CuxV2KpH5y1W/0zRfrFgyJcvPbwJJIvNV9eVYy3Gq1oG8csxxBNFjI0GH2Fm1rCyyTNcTy&#xA;yPNcTvQF5JGLM1BsNz0GZwFNTJvy8/44Ev8AzHX3/UVJmFn+pthyZKEQOXCgOwAZqbkLWgJ9qnKm&#xA;TQijEjSBAJHADuAKkLWgJ9qnFW2RH4llDcTyWorQ9KjFXm+t20E3n3UppY1kkt7e09B2AJQuJOXE&#xA;npWgzNwfS1T5oLzGQNLqen1i1/6iY8tlyYvVs1re0ro6hkYMp6EGoxVwdCzKGBZaclB3FelcVbxV&#xA;hljqi6Z5s8x26RcoZJba44A8QJJIAJG6H7XEVzJji44hwdVrPBPK7ZFYa5bXUgiKmKU/ZBNQfYHI&#xA;TwGO6NP2hDIa5Fi7li7Fq8iSWr1rmcHnZEk7rcKHEAggioOxBxVa9ViYoN1U8V9wNhio5oHy9dX1&#xA;3o1rcX6endyKTKpUpvyIHwnpUYG3PGMZkR5JhhanYq4gEEEVB2IOKrvJusDSJx5cv34WzMToty32&#xA;WRjyNsT2dD9ivVenTMPPj6h6TRaoZI0fqDOcxnOdirsVeY+YdetNU89W0Fn+8gsbW4ia5G6PKXjL&#xA;qh78KAE+O3bMzBEgNMpAmle4i9aCSImgkVkr4chTL0Mo8h3/ANc8qafyoJ7WMWdyvcS237pq/PjX&#xA;6c1+QVItsTsnc9xDbxGWZuEa0q2/fbtkQCdgytC/p3Sf+Wgfc39Mn4Uu5HEEcCCAR0O4ytLD/wAx&#xA;brlHpOlof313eJOw8IbT96x/4PgPpy/Tje2EylmZjWnv5ef8cCX/AJjr7/qKkzBz/U2w5Mmypk7F&#xA;VskiRxtJIwSNAWdmNAABUknFXl+nXTald6hrbAhdTnL24Ox+rxKIoajtyVeX05sMcaFNJNofzUqN&#xA;osivGZUM1sGiVSxYG4jqoUda+GSPJCdHStZHkaC3ltLl7Rb71pNKDE3X6M9ZmW3O9WIQrVOVafDm&#xA;HY4vxzbK2RXl3T51vNak0Oym0fS57VI7SC4jaBTegPWZIX+JF4lAfhFSMEjyvdQEs8v6Ssd7oQsN&#xA;GvLDWLWQnXNQnRkSRBGwnDzMSs/qyUKca067ZKR52dlAek5Qzee3f/Ka6/8AKz/5M5nYPpdH2t9U&#xA;UShYOpWvIEFada5cXVRJB2ZHqGgR3Epmhf0nbdlIqpPj7Zh485Aou+1PZomeKJooP/DNz/v5Pxyz&#xA;8yO5xf5Jn3h3+Gbn/fyfjj+ZHcv8kz7woXmgahBbySx8ZiikhFryNB4U3yUdREtc+zMkRexY55dv&#xA;Ly90W0ur1eF1KpMi8Sn7RA+E+Iy5w88BGZA5JjhanYq7FVG8srW9t2t7qMSwv1VvEdCD1BHYjFlC&#xA;ZibHNCPrPm3QYIks72PUbaSaK3ih1FWaRDM4jWk8ZVmALftAmmY88MebutJr5TkIkbsj/S/5h8fT&#xA;/wAPWplp/vR9eHpVr/J6fP8AHMbhj3u0ssbGp+ZfMlhG+oXiWdhMDzs7BWRnAJBDzMWeh7haZlQw&#xA;xG7qdV2iYkxiN0DPbQW3mPTILeNYoY7O4VI1FABzjy4sezpGXETzTjA7NQ0rVh5Z1ia5mr+g9SKm&#xA;9YAn6vcAcRNQfsOKK/hscpzY+IWObKJp6Ky215a0qstvMtQymqsp3BBH4HMMEgtqVw+V7KOYSM7y&#xA;IpqI2pQ/OmXHOSGHAjNY1nTdHsXvdQmWGBOlftM3ZUXqzHsBlMYkmgyJp57FNe6pqc+uX8ZhlnUR&#xA;Wdo3WC2U1Ct/lufif7u2Z+OHCKaibRmTQoeSfOMOlC6sNXUW9hLf3X1PUP8AdSs078o5j+weW6sd&#xA;vuzGzYiTYZxk9IililjWSJ1kjYVV1IKkexGYrYtuLm3toWnuZUghQVeWRgiqPdmoBiArz/zF5kbz&#xA;Mp0zSyy6ETS+1DdDcKP90wVoeBOzt36DMrFhrctcpW5EVEVEAVVACqNgAOgGZLBCrAdT8xaVpUQ5&#xA;enOl/e9wkFseS8v9eQKoyvLKopiN3p2YDc7FXYq7FWD6Vp763rOt6zauosZ547e2kNSJBaxiN5FI&#xA;6rz5AH2zKjkEBRddrNJLMQQapkWn6BHbyiaZ/Vdd1UCig+PvkcmckUGOm7NEDxSNlNsx3ZtNy4nj&#xA;TlT4a9K++KoLRP01+jYv016H6Rq3q/VuXpU5HjTlv9mlcMqvZARczOsMjIOTqpKr1qQNhtgS840G&#xA;/vtQ0i2vb5OF3OC0yheAryP7PaozaAbPKaoAZDSPwtDsVdiqCt21rVr2e00OGIpaMEu7+5LegklK&#xA;+mip8UjgHfcU75VkyiLsdL2ecg4pbBEX3kLzZdRoraxZ1jljmSlq4+OJw67+q21Vyk6gHo7LFoIY&#xA;5cQ5pp+jfzM/6vOn/wDSK/8AzXlNw7nNopZY+RPNllaR28WrWbLENle1kNSTWhIlHc+GXfmfJwcn&#xA;Z0Jkkk2UlvbTXLTzdZQ6rDCrC0uDDPbuWjkBeOvwsAykdwcuhkElwaXwb3u02ybktMqspVgCpFCD&#xA;uCDiqWWVjqlrr2n6ZoOqS6RDffWGeMKs8CmNOdVgk+Ba9+NMpygVZDKNstPl7z4dj5tVR3KadAD/&#xA;AMM7D8MxuKPd9rOj3sL0K1N9bwarqU0t/qHxhZ7lzJwCuV/dqfhTp2GZsYgcmpO8krsVY5pcevvF&#xA;eLbQ2cto15dik7yBj+/fkCFR1xpw8uthjlwkFP8AyL5F0a78r2N/HJd6ffTiQzT2VzNCWIlZRsDx&#xA;2Ap9nMPJkIlTnxAIQvn3yZpemwaVd2kUl7qU2oxxGS+uJZuatFK5VuZdQOSA141yeGZJphmkIR4j&#xA;0WLL5kCgfo222FNrpgPoHo5lU4H8o4/NUu7Pzd/cOlpp7VPKTk9w4BVSCq8YlJ375GJvcMs2tGPY&#xA;g27QrLzBoiT/AFTULZ57pudzdTWjvLIRsvJvXGyjoAABkZ4hLm447Vr+H7f2J/far5k0q1sNSvtW&#xA;spNPmubeK6H1RoQkcrhXYym4cLx8SMxTAWRTtseTiiJd7em+ZtU80aheDy9dQWml2HGNrq4geZ55&#xA;X+KqIJIeMfHoSanwwGIiN2wG+SZfo7zp/wBXuz/7h7/9lWRuPcmioXPljXdSBg1jXWl099pbSygF&#xA;p6g7q8nqTScT3CkYRMDkEUWQWlpbWltFa2sSw28KhIokFFVR0AGQJtkq4FSbUdfMEzQ26B2Q0d2r&#xA;SvcACmZOPBYsuq1XaXBLhgLpB/4lvv8AfcX3N/zVln5aPm4v8q5O6P2/rd/iW+/33F9zf81Y/lo+&#xA;a/yrk7o/b+tQvdf1GW3dV4p8J2QGp26bkn7slHBENeTtHJMVsB5Mf8u3l5e6LaXV6vC6lUmReJT9&#xA;ogfCfEZa4ueAjMgckxwtTsVU7m6trWFp7mVIYU+1I5CqPpOKYxMjQTn8tli/wZp8ybtdepcSt3Mk&#xA;srM1fftmuyn1F67HGogMmytm7FXYqwrzr9U/xHpXL1PrX1a64U4+nw5xVr+1XMrT9WuaBzJYIlPL&#xA;2tajbK9jPFaKz0aeZGkIXepjQFQTXxNMqnmEdmQja7/lXerpe299B5kmju7bn6MhtbdgokXi9FoB&#xA;uPGuUHPexDLgR3+G/O//AFN8n/SBaf0yHFHuTR70ttvy11SytFhtNfeqVKJLbRNHUksa8Sr7k/zZ&#xA;aNR5MeBLIZ763v5NK1aFbfUol5qUJMM0fT1IWNCRXqDuMyITEhYYkUjMkhryd5K0HVNPur3Uklun&#xA;kvbwLE00ixRhbhx8CIyDelSTXMXLlkDQTHFE71um/wDyqnyD/wBWr/kvcf8AVTKvGl3tnAEPffl/&#xA;+V+lxLdX9rDaRBqLJPdTIpahNBzl3NO2EZJnkgxixfW9Q8naZS78qTXn1m3Hqn0FmudPbgfsz+q1&#xA;FH+Uh2y6JnyLTPBjO9cmRal5jNymnyX2mXWnXFyRCWlRTCZWQuFV1Yk/YahKjDg2JFuD2nhMgJjp&#xA;zdmS6RE299NDG0NElgf7cMqh0P0HK54xJycGrni2HLuQWla5b291rUmlRRteyTc7xGEnH1hGAoWr&#xA;AU+WQOAFzf5QyxokRqX470i8u+atc/SlgU1C5vLqZZDrVncqfShPEn4RRfT4yfCoXqMJwxLdPWZI&#xA;iRNV/D5s3/xLff77i+5v+asj+Wj5uN/KuTuj9v62x5lvq7xxU+Tf81Y/lor/ACrk7o/b+tOtO1CK&#xA;9hLqOLqaOh3pmNkxmJdtpdSM0bHNidzFJFcSRyfbViDXv75nxNh5rLAxkQealkmt2KoO3sb3X9Yk&#xA;0u3uHtLCyVH1O5i2lZpATHDEx+zUDkzeFMpy5OEO17P0YmOOXJka/lx5JCgPpcczDrJKzyOfmzsT&#xA;mJ4su93YgByDv+VceRv+rNb/AHH+uPiy714Q7/lXHkb/AKs1v9x/rj4su9eEJZf+TfK2n+YfLjWe&#xA;mQQmS7lElFrUJaTSLWtejqDhEyQd0EC1PyfrQ8taBYaN5gs7nTXt6xG+lQNaFnkYr++jZwteX7dM&#xA;M48RsKDQ3Z2CCKjcHocpZuxV2KsQ85Ppo1jTUeNjqJhnMMgrxEQaPmDv1J402zJ0/Vrmk13I0VrN&#xA;Kv2o0Zl+YBOZTBl/k22+r+VNJjLF3NrFJI7Ekl5VEjmp/wApjmvyG5Fujyb1bzRaWF4LGK1utRvu&#xA;Ale1soxI0cZJAaQsyItSNqtU4BC91JQf+Mbr/qWtY/5FW/8A1XyXB5hFpto2tWWr2rT2vNTG5ing&#xA;lUxyxSL9pJEbdWFchKNJBSD8xrOJrDT9QHw3VnfQLFIOvC4kEMifJlev0DLcB9TGfJKczWtPfy8/&#xA;44Ev/Mdff9RUmYOf6m2HJk2VMmM+fBFDYafqcoHpaZqFtNMWpQRSP9Xk6/5M1csx86YyReo6ro2o&#xA;2F1pySNOLqN7ZvRiklUCV2tjUopWivUNvt16YACDaSWC6lrs975S8qk2N081vdQeoVRWMr29vPHM&#xA;I1DFiVZCSCBl+MATLjaiBnjMRzKa2l3b3lrFdW7iSCZQ8bjuD88y3mJRMTR5quKEs0ldLF9qZs2Y&#xA;zmcfXQa0EnAfZqOlMDdl4uGN8q2TPC0uxV2Kp75YjflPL/uugX2J6/hmLqTyDuOyYm5Homt3ptnd&#xA;EGZKuNg42P4ZjwyGPJ2WbS48n1DdC/4d07/L/wCC/syz8xJxv5Mxebv8O6d/l/8ABf2Y/mJL/JmL&#xA;zSrydBHBqnmWJK8Uv0AruafVYsjlldFzMOMQHCOQZRlTakVzqGvXOo31tpX1WNdPCBxcpI7TSSJ6&#xA;nFSjxiNeJA50bfttkwBW6N1KLXtT1V7OPSRDameyS+lku0eXiJTxWJUR4akFTyPLbbbfHhA5otCS&#xA;alJfX/lie4jENymoXdvcxg1USw2tzE3EnqrMtV9jhqgVvkn+uT6ZBo95LqnH9HrE/wBZD0oUIoV3&#xA;8egyEbvZJQfkuK8h8paRHe1+sraxBw32h8IoGr3C0ByU/qKx5J1kEuxVgnnb/lLdH/5g7v8A4nDm&#xA;Vp+rXNL9Q/3guf8AjE//ABE5ksGc+Wv+Uc0r/mDt/wDk0ua6XMtw5JXoRYeaPNrIvKQTWgUHvSzj&#xA;IFfmclLkEDmWN+VPOkiT2tvPPLqWsapcJFeWbyEPbOCfW4w0pFHEK1FN6dcuniHDbhwz5DlMSPT3&#xA;plaa/b6b59123nglEF3NYQC7QKYkneABFk35DnUAGnXKjG4hzL3TL8w/+OBF/wAx1j/1FR44PqWf&#xA;JIszmplHk6Gyi0QC0kMqNPcPKSQaStM5kXYD7LVGYOb6i2x5J3lTJK/NOnHUvLmp2K/bntpVj/1+&#xA;JKH6GpkoGiEEbISPzXaQ+U7HW7gPKbqGD0oIhyllnmUARIvdixph4PVS3skmg+WPM7XdnPqCW1jp&#xA;9rf3OowWas0s6fWRJ+6ZgFjoplJ2rk5SHRiAUk8pXFu+jQwpKjTR+oZIwwLLWVqVHUZmx5PN66J8&#xA;UlNIL6yuGZLe4jmZPtLG6sR8wCck40oSHMIfyvaaXfanqK6ZKZJJJw16/wBpFYIPs+I/jkJzERbl&#xA;xwZMhjE7bfYzRfLlgB8TSMfGoH6hmIdRJ2Y7Lxeay60fRrS3kubmQw28Kl5ZXcKqqOpJOIzyKf5M&#xA;xeaH0iHyvq0JuNNulvYUbi5jkrRvBgKEYZZpjmmPZuHz+afRRRwxiOJQiL0UZQSTzc6EBEUBQXYG&#xA;TsVdirG/K3/Ha80f9tBP+oWHJz5BiOrJMgyYT51g1GbXNPt9Fs5k1OXjLLqiNJHD6cLkrHMYyFdQ&#xA;27B+2y1J2thVbsZLPN+mPZaJpOk6ZZ3NzqHEWdrf27SRyRKqrzLSxkEeoF/aPDu3TcwNkkoITuDy&#xA;paXGhw2Grj6xOJWvJZo2eMrdSO0jPE6lXXizkLv0yHHvYZUknkPyxpF95e0nV9RWW/vnjEwa7mln&#xA;RZKn4ljkZkB260yeSZBIDGI2ZzlLN2KuxVgnnb/lLdH/AOYO7/4nDmVp+rXNL9Q/3guf+MT/APET&#xA;mSwZz5a/5RzSv+YO3/5NLmulzLcOSW+Xv+Ur81/8xFp/1Bx5KX0hA5lZqF/qEGv3Flo8EN9qlxGk&#xA;ztMqwxWkFOA9WVA0knqOpKp1+jEDbfkp5pJrWhanY2l5qWp3MNxeapqWlNItvG0caehNHGAvNnY7&#xA;ZKMgdh3FBCefmH/xwIv+Y6x/6io8GD6kz5JFmc1J7+Xn/HAl/wCY6+/6ipMwc/1NsOTJsqZOxV53&#xA;bRXNv5fgWCA3K+Vdbl9WBRyka2QyAFF7skNyrAe2Xnn7ww6Msg85eU5rb6zHq9p6VKktMiMKdmVi&#xA;GU+xGVcEu5lxB595R06yTSoL1bdEurhGLz8QHZGclanrQrTNkBs81rcpOQi9kys9F0mylaW0s4YJ&#xA;HBVnjRVJUmpG3bC48ss5CiSU18rxaZpN0ywQR20M9Q/pqEHI03NPlTKc0CY7OZotVw5LmeYpmQII&#xA;qNwehzAeiSvzNorazo8tikohlZo5YnZeac4ZFkUOu3JSVowyUZUbQRaF8u6Lqlpf6jqmqS27X2oi&#xA;BHitEZYkS3Vgpq/xMzczUn2GGUgRQUBPsgl2KuxV52/mrzQmh2/mo3lv9Ru7hYl0f0d0jkkMQAm5&#xA;cjKvVgRTrmRHHEy4XHy5DGNhu012TQNeur+9DyaTqnBry4UFzbzxLwEjKu/pugAJA2oMty4rGzg6&#xA;DWcXpmd2ZweYdBuIllg1K1kjboyzRkfrzE4T3O1tU/TOkf8ALdb/API1P64OEptEC6tjB9YEqG3p&#xA;X1uQ4UHfl0wUqH/TOkf8t1v/AMjU/rh4StoTyhHpcflnTk0qR5tOWEC2llFHZandhRd/owzu90Dk&#xA;m+RS7FXYqwTzt/yluj/8wd3/AMThzK0/Vrml+of7wXP/ABif/iJzJYM58tf8o5pX/MHb/wDJpc10&#xA;uZbhyS3y9/ylnmsd/XszT2+pxj+GSl9IQOZUb+/Xy95mutRv0YaRqcECNfKpZYJrfmOMvEEqrq+z&#xA;dK4gcQoc1JooPzP5l0HWLWy07Sr+G+vZr+zKQW7CRuMc6yOx41oqqpJJwwiRuUEgph+Yf/HAi/5j&#xA;rH/qKjxwfUmfJIszmpPfy8/44Ev/ADHX3/UVJmDn+pthyZNlTJ2KsQbU4fL/AJr1f61DctBqiW11&#xA;aC3t5pw0qIYZVHpKwDUjQ75bXEAxuixjzTf6dr2tWDWmlT202lTevqU13CkFIZUr8Ss3qMx4ggcc&#xA;vwxIcPW5AIEdSi9G13TdYgeawkLpE3BwVKkGlRsexzJdBlwyxmpJhi1OxVcruv2WI+RpgpIkRyb9&#xA;aX+dvvONBPHLvbE86mqyMCOhBOPCEjJIdSyLQtRluUeKY8pI6EP3Knx+WYefGI7h3vZ2qOQGMuYT&#xA;XMd2TsVY5qHkby/JM9/bWSJqHP11YFghk7sI6+mGP83Gtcux5SDvycXV4TPGRHmlMkbxsUkUqw6q&#xA;woczgbeYlExNHYoJtI0lmLNZQMx3JMSEn8MWYzT7z82v0No//LDb/wDIpP6Y0vjT/nH5pfa6Rqkm&#xA;n2ukajNH+hrB2aK0g5f6QTIzo1wTTZOWyDau5yAxgG3PzdokwEY7FMP0No//ACw2/wDyKT+mTpwP&#xA;Gn/OPzZH+XH/ACg2jf8AMOP1nNfl+ovWR5Mkytk7FXYqwTzt/wApbo//ADB3f/E4cytP1a5pfqH+&#xA;8Fz/AMYn/wCInMlgzny1/wAo5pX/ADB2/wDyaXNdLmW4clDUvK9reaiNSgu7nTr/AICKW4s3RTIi&#xA;klVkWRJEbjXY8a4idClIUj5YviKf4j1Tf3s/+ybDxjuC0jNC8vabots0NorM8rGS4uZTzmldurO+&#xA;1enywSkSoFJX+Yf/ABwIv+Y6x/6io8ng+pE+SRZnNSe/l5/xwJf+Y6+/6ipMwc/1NsOTJsqZOxV2&#xA;KvPL1Vbzn5gVgCpFoCDuCDBmdg+l0fav1RasNNsNPiaKygS3jZuTKgpVjtXL3WTySkbJtE4sHYq7&#xA;FXYq2ASaDc4qyPy/p8sCvPMpRpAAinYgDrX55hZ8gOwd92bppQBlLYlN8x3aOxV2KuxV2KuxV2Ku&#xA;xVDab+jvqEH6N9L6jwH1f0OPpcO3DjtTCb6qETgV2KuxVB3P6I+vQ/WfQ+venJ9X9Th6np1X1OFd&#xA;+NeNae2SF9EbLpP0V6b+r6Hp0PPlw48ab1r2x9S7K1t9X+rRfVuH1bgvoenThwp8PGm1KdMiUqmK&#xA;uxV2Koe+/R/or9e9L0fUj4+tx4+rzHpU5bcudOPvhF9FLv8Acf8A8U/8Lh9SNnWP6P8ARb6j6Xo+&#xA;pJz9Hjx9XmfVrx25c68vfAb6pCIwK7FXYqhoP0d9duvQ9L65+7+ucOPqfZ/d+pTf7P2a4d1ROBXY&#xA;q7FXYq7FXYq7FX//2Q==</xmpGImg:image>
               </rdf:li>
            </rdf:Alt>
         </xmp:Thumbnails>
         <dc:format>image/svg+xml</dc:format>
         <xmpTPg:MaxPageSize rdf:parseType="Resource">
            <stDim:w>43.180000</stDim:w>
            <stDim:h>23.744297</stDim:h>
            <stDim:unit>Centimeters</stDim:unit>
         </xmpTPg:MaxPageSize>
         <xmpTPg:NPages>1</xmpTPg:NPages>
         <xmpTPg:HasVisibleTransparency>False</xmpTPg:HasVisibleTransparency>
         <xmpTPg:HasVisibleOverprint>False</xmpTPg:HasVisibleOverprint>
         <xmpTPg:PlateNames>
            <rdf:Seq>
               <rdf:li>Cyan</rdf:li>
               <rdf:li>Magenta</rdf:li>
               <rdf:li>Yellow</rdf:li>
               <rdf:li>Black</rdf:li>
            </rdf:Seq>
         </xmpTPg:PlateNames>
         <xmpTPg:SwatchGroups>
            <rdf:Seq>
               <rdf:li rdf:parseType="Resource">
                  <xmpG:groupName>Grupo de muestras por defecto</xmpG:groupName>
                  <xmpG:groupType>0</xmpG:groupType>
                  <xmpG:Colorants>
                     <rdf:Seq>
                        <rdf:li rdf:parseType="Resource">
                           <xmpG:swatchName>R=103 G=110 B=138 1</xmpG:swatchName>
                           <xmpG:mode>RGB</xmpG:mode>
                           <xmpG:type>PROCESS</xmpG:type>
                           <xmpG:red>103</xmpG:red>
                           <xmpG:green>110</xmpG:green>
                           <xmpG:blue>138</xmpG:blue>
                        </rdf:li>
                        <rdf:li rdf:parseType="Resource">
                           <xmpG:swatchName>R=197 G=202 B=232 1</xmpG:swatchName>
                           <xmpG:mode>RGB</xmpG:mode>
                           <xmpG:type>PROCESS</xmpG:type>
                           <xmpG:red>197</xmpG:red>
                           <xmpG:green>202</xmpG:green>
                           <xmpG:blue>232</xmpG:blue>
                        </rdf:li>
                        <rdf:li rdf:parseType="Resource">
                           <xmpG:swatchName>R=178 G=235 B=242 1</xmpG:swatchName>
                           <xmpG:mode>RGB</xmpG:mode>
                           <xmpG:type>PROCESS</xmpG:type>
                           <xmpG:red>178</xmpG:red>
                           <xmpG:green>235</xmpG:green>
                           <xmpG:blue>242</xmpG:blue>
                        </rdf:li>
                     </rdf:Seq>
                  </xmpG:Colorants>
               </rdf:li>
            </rdf:Seq>
         </xmpTPg:SwatchGroups>
         <xmpMM:DerivedFrom rdf:parseType="Resource">
            <stRef:instanceID>xmp.iid:2743e603-6e76-8f48-9182-3df093e9950b</stRef:instanceID>
            <stRef:documentID>xmp.did:2743e603-6e76-8f48-9182-3df093e9950b</stRef:documentID>
            <stRef:originalDocumentID>xmp.did:2743e603-6e76-8f48-9182-3df093e9950b</stRef:originalDocumentID>
            <stRef:renditionClass>proof:pdf</stRef:renditionClass>
         </xmpMM:DerivedFrom>
         <xmpMM:DocumentID>xmp.did:0ace3b50-4fdf-f342-bb88-a265e3907a8c</xmpMM:DocumentID>
         <xmpMM:InstanceID>xmp.iid:0ace3b50-4fdf-f342-bb88-a265e3907a8c</xmpMM:InstanceID>
         <xmpMM:OriginalDocumentID>xmp.did:2743e603-6e76-8f48-9182-3df093e9950b</xmpMM:OriginalDocumentID>
         <xmpMM:History>
            <rdf:Seq>
               <rdf:li rdf:parseType="Resource">
                  <stEvt:action>saved</stEvt:action>
                  <stEvt:instanceID>xmp.iid:2743e603-6e76-8f48-9182-3df093e9950b</stEvt:instanceID>
                  <stEvt:when>2017-08-11T22:42:27-05:00</stEvt:when>
                  <stEvt:softwareAgent>Adobe Illustrator CC (Windows)</stEvt:softwareAgent>
                  <stEvt:changed>/</stEvt:changed>
               </rdf:li>
               <rdf:li rdf:parseType="Resource">
                  <stEvt:action>saved</stEvt:action>
                  <stEvt:instanceID>xmp.iid:0ace3b50-4fdf-f342-bb88-a265e3907a8c</stEvt:instanceID>
                  <stEvt:when>2017-08-11T22:44:59-05:00</stEvt:when>
                  <stEvt:softwareAgent>Adobe Illustrator CC (Windows)</stEvt:softwareAgent>
                  <stEvt:changed>/</stEvt:changed>
               </rdf:li>
            </rdf:Seq>
         </xmpMM:History>
         <xmpMM:RenditionClass>proof:pdf</xmpMM:RenditionClass>
      </rdf:Description>
   </rdf:RDF>
</x:xmpmeta>
                                                                                                    
                                                                                                    
                                                                                                    
                                                                                                    
                                                                                                    
                                                                                                    
                                                                                                    
                                                                                                    
                                                                                                    
                                                                                                    
                                                                                                    
                                                                                                    
                                                                                                    
                                                                                                    
                                                                                                    
                                                                                                    
                                                                                                    
                                                                                                    
                                                                                                    
                                                                                                    
                           
<?xpacket end="w"?>
	</metadata>
<g>
	<g>
		<g>
			<g>
				<g>
					<g>
						<path fill="#B2EBF2" d="M1177.734,299.577H46.266l0,0h0c-19.977,0-36.172,16.195-36.172,36.172
							c0,19.977,16.195,36.172,36.172,36.172h0l0,0h1131.468c19.977,0,36.172-16.195,36.172-36.172
							C1213.906,315.772,1197.711,299.577,1177.734,299.577z"/>
					</g>
				</g>
			</g>
			<g>
				<g>
					<g>
						<path fill="#B2EBF2" d="M1177.734,373.565H46.266c-20.852,0-37.816-16.964-37.816-37.816
							c0-20.852,16.964-37.815,37.816-37.815h1131.467c20.852,0,37.816,16.964,37.816,37.815
							C1215.55,356.601,1198.585,373.565,1177.734,373.565z M46.266,301.222c-19.039,0-34.528,15.489-34.528,34.527
							c0,19.039,15.489,34.528,34.528,34.528h1131.467c19.039,0,34.528-15.489,34.528-34.528c0-19.039-15.49-34.527-34.528-34.527
							H46.266z"/>
					</g>
				</g>
			</g>
		</g>
		<g>
			<g>
				<g>
					<g>
						<path fill="#B2EBF2" d="M1162.981,583.672H144.341c-19.023,0-34.444,15.421-34.444,34.444
							c0,19.023,15.421,34.444,34.444,34.444h1018.64c19.023,0,34.444-15.421,34.444-34.444
							C1197.425,599.093,1182.004,583.672,1162.981,583.672z"/>
					</g>
				</g>
			</g>
			<g>
				<g>
					<g>
						<path fill="#B2EBF2" d="M1162.981,654.203H144.341c-19.899,0-36.087-16.188-36.087-36.087
							c0-19.899,16.189-36.087,36.087-36.087h1018.639c19.899,0,36.088,16.188,36.088,36.087
							C1199.068,638.015,1182.88,654.203,1162.981,654.203z M144.341,585.316c-18.085,0-32.799,14.713-32.799,32.799
							s14.714,32.799,32.799,32.799h1018.639c18.086,0,32.799-14.714,32.799-32.799s-14.713-32.799-32.799-32.799H144.341z"/>
					</g>
				</g>
			</g>
		</g>
		<g>
			<g>
				<g>
					<g>
						<path fill="#B2EBF2" d="M1047.068,548.505c0-19.422,15.745-35.167,35.167-35.167h-875.37
							c-19.422,0-35.167,15.745-35.167,35.167c0,19.422,15.745,35.167,35.167,35.167h875.37
							C1062.813,583.672,1047.068,567.927,1047.068,548.505z"/>
					</g>
				</g>
			</g>
			<g>
				<g>
					<g>
						<path fill="#B2EBF2" d="M1082.235,585.316h-875.37c-20.298,0-36.811-16.514-36.811-36.811s16.513-36.811,36.811-36.811h875.37
							c0.908,0,1.644,0.736,1.644,1.644c0,0.908-0.736,1.644-1.644,1.644c-18.484,0-33.523,15.039-33.523,33.523
							s15.039,33.523,33.523,33.523c0.908,0,1.644,0.736,1.644,1.644C1083.879,584.58,1083.142,585.316,1082.235,585.316z
							 M206.864,514.982c-18.485,0-33.523,15.039-33.523,33.523s15.038,33.523,33.523,33.523h860.167
							c-12.732-5.798-21.607-18.645-21.607-33.523s8.875-27.725,21.607-33.523H206.864z"/>
					</g>
				</g>
			</g>
		</g>
		<g>
			<g>
				<g>
					<g>
						<path fill="#B2EBF2" d="M1053.859,160.977H99.948c-19.319,0-34.98,15.661-34.98,34.98s15.661,34.98,34.98,34.98h953.912
							c19.319,0,34.98-15.661,34.98-34.98S1073.179,160.977,1053.859,160.977z"/>
					</g>
				</g>
			</g>
			<g>
				<g>
					<g>
						<path fill="#B2EBF2" d="M1053.86,232.582H99.947c-20.194,0-36.624-16.43-36.624-36.625c0-20.194,16.43-36.624,36.624-36.624
							h953.913c20.194,0,36.624,16.43,36.624,36.624C1090.484,216.153,1074.054,232.582,1053.86,232.582z M99.947,162.622
							c-18.382,0-33.336,14.955-33.336,33.336c0,18.382,14.954,33.337,33.336,33.337h953.913c18.381,0,33.336-14.955,33.336-33.337
							c0-18.381-14.954-33.336-33.336-33.336H99.947z"/>
					</g>
				</g>
			</g>
		</g>
		<g>
			<g>
				<g>
					<g>
						<path fill="#B2EBF2" d="M1162.71,444.588H46.266c-18.985,0-34.375,15.39-34.375,34.375c0,18.985,15.39,34.375,34.375,34.375
							H1162.71c18.985,0,34.375-15.39,34.375-34.375C1197.084,459.979,1181.694,444.588,1162.71,444.588z"/>
					</g>
				</g>
			</g>
			<g>
				<g>
					<g>
						<path fill="#B2EBF2" d="M1162.71,514.982H46.266c-19.861,0-36.019-16.158-36.019-36.019c0-19.861,16.158-36.019,36.019-36.019
							H1162.71c19.861,0,36.019,16.158,36.019,36.019C1198.729,498.824,1182.57,514.982,1162.71,514.982z M46.266,446.232
							c-18.048,0-32.731,14.682-32.731,32.731c0,18.049,14.683,32.731,32.731,32.731H1162.71c18.047,0,32.731-14.682,32.731-32.731
							c0-18.049-14.683-32.731-32.731-32.731H46.266z"/>
					</g>
				</g>
			</g>
		</g>
		<g>
			<g>
				<g>
					<g>
						<path fill="#B2EBF2" d="M967.147,265.258c0-18.954,15.365-34.32,34.32-34.32H228.931c18.954,0,34.32,15.365,34.32,34.32
							c0,18.954-15.365,34.32-34.32,34.32h772.536C982.513,299.577,967.147,284.212,967.147,265.258z"/>
					</g>
				</g>
			</g>
			<g>
				<g>
					<g>
						<path fill="#B2EBF2" d="M1001.468,301.222H228.931c-0.908,0-1.644-0.736-1.644-1.644c0-0.908,0.736-1.644,1.644-1.644
							c18.018,0,32.676-14.658,32.676-32.676c0-18.017-14.658-32.675-32.676-32.675c-0.908,0-1.644-0.736-1.644-1.644
							c0-0.908,0.736-1.644,1.644-1.644h772.536c0.908,0,1.644,0.736,1.644,1.644c0,0.908-0.736,1.644-1.644,1.644
							c-18.018,0-32.676,14.658-32.676,32.675c0,18.018,14.659,32.676,32.676,32.676c0.908,0,1.644,0.736,1.644,1.644
							C1003.112,300.486,1002.375,301.222,1001.468,301.222z M243.95,297.934h742.499c-12.352-5.7-20.946-18.204-20.946-32.676
							c0-14.472,8.593-26.975,20.945-32.675H243.95c12.351,5.7,20.945,18.203,20.945,32.675
							C264.895,279.73,256.302,292.234,243.95,297.934z"/>
					</g>
				</g>
			</g>
		</g>
		<g>
			<g>
				<g>
					<g>
						<path fill="#B2EBF2" d="M1027.533,444.589v-0.024c-0.319,0.009-0.637,0.023-0.958,0.024H1027.533z M1026.445,371.921
							c0.365,0,0.726,0.017,1.088,0.027v-0.027H1026.445z M168.121,408.255c0,20.067-16.267,36.334-36.334,36.334v0h894.528
							c-20.008-0.07-36.206-16.308-36.206-36.332c0-20.067,16.268-36.335,36.335-36.335H131.787
							C151.854,371.921,168.121,388.188,168.121,408.255z"/>
					</g>
				</g>
			</g>
			<g>
				<g>
					<g>
						<path fill="#B2EBF2" d="M1027.533,446.232h-0.958c-0.044,0-0.087-0.002-0.13-0.005c-0.043,0.003-0.086,0.005-0.13,0.005
							H131.787c-0.908,0-1.644-0.736-1.644-1.644s0.736-1.644,1.644-1.644c19.128,0,34.69-15.562,34.69-34.69
							c0-19.127-15.562-34.69-34.69-34.69c-0.908,0-1.644-0.736-1.644-1.644s0.736-1.644,1.644-1.644h895.745
							c0.908,0,1.644,0.736,1.644,1.644c0,0.444-0.18,0.884-0.499,1.193c-0.32,0.31-0.719,0.505-1.194,0.477l-0.301-0.01
							c-0.245-0.009-0.49-0.017-0.737-0.017c-19.128,0-34.691,15.562-34.691,34.692c0,19.061,15.507,34.621,34.567,34.687
							c0.042,0,0.083,0.002,0.124,0.005c0.245-0.018,0.503-0.012,0.752-0.019l0.291-0.009c0.438-0.035,0.871,0.155,1.191,0.465
							c0.317,0.31,0.497,0.735,0.497,1.178C1029.177,445.472,1028.44,446.232,1027.533,446.232z M147.242,442.944h863.761
							c-13.263-5.935-22.536-19.265-22.536-34.687c0-15.442,9.262-28.761,22.525-34.692H147.242
							c13.261,5.931,22.523,19.248,22.523,34.69C169.765,423.696,160.503,437.014,147.242,442.944z"/>
					</g>
				</g>
			</g>
		</g>
	</g>
	<g>
		<g>
			<g>
				<path fill="#676E8A" d="M290.34,47.359c-9.367,0-16.988-7.621-16.988-16.988s7.621-16.988,16.988-16.988
					c9.367,0,16.988,7.621,16.988,16.988S299.707,47.359,290.34,47.359z M290.34,18.864c-6.345,0-11.508,5.163-11.508,11.508
					s5.163,11.508,11.508,11.508c6.345,0,11.508-5.163,11.508-11.508S296.685,18.864,290.34,18.864z"/>
			</g>
		</g>
		<g>
			<g>
				<circle fill="#676E8A" cx="120.929" cy="304.846" r="11.031"/>
			</g>
		</g>
		<g>
			<g>
				<circle fill="#676E8A" cx="88.946" cy="409.268" r="6.508"/>
			</g>
		</g>
		<g>
			<g>
				<path fill="#676E8A" d="M101.697,625.24c-9.55,0-17.32-7.769-17.32-17.32c0-9.55,7.77-17.32,17.32-17.32
					s17.32,7.769,17.32,17.32C119.017,617.47,111.248,625.24,101.697,625.24z M101.697,596.08c-6.529,0-11.84,5.311-11.84,11.84
					c0,6.529,5.311,11.84,11.84,11.84c6.528,0,11.84-5.311,11.84-11.84C113.537,601.391,108.226,596.08,101.697,596.08z"/>
			</g>
		</g>
		<g>
			<g>
				<path fill="#676E8A" d="M1033.127,78.137c-9.367,0-16.988-7.621-16.988-16.988s7.621-16.988,16.988-16.988
					s16.988,7.621,16.988,16.988S1042.494,78.137,1033.127,78.137z M1033.127,49.641c-6.346,0-11.508,5.163-11.508,11.508
					s5.162,11.508,11.508,11.508s11.508-5.163,11.508-11.508S1039.473,49.641,1033.127,49.641z"/>
			</g>
		</g>
		<g>
			<g>
				<path fill="#676E8A" d="M1078.008,464.872c-8.362,0-15.166-6.804-15.166-15.167s6.804-15.167,15.166-15.167
					c8.363,0,15.167,6.804,15.167,15.167S1086.371,464.872,1078.008,464.872z M1078.008,440.017c-5.341,0-9.686,4.345-9.686,9.687
					s4.345,9.687,9.686,9.687c5.342,0,9.687-4.345,9.687-9.687S1083.35,440.017,1078.008,440.017z"/>
			</g>
		</g>
		<g>
			<g>
				<path fill="#676E8A" d="M1144.645,563.377c-7.873,0-14.279-6.406-14.279-14.279s6.406-14.279,14.279-14.279
					c7.874,0,14.28,6.406,14.28,14.279S1152.52,563.377,1144.645,563.377z M1144.645,540.299c-4.852,0-8.799,3.947-8.799,8.799
					s3.947,8.799,8.799,8.799c4.853,0,8.8-3.947,8.8-8.799S1149.498,540.299,1144.645,540.299z"/>
			</g>
		</g>
		<g>
			<g>
				<circle fill="#676E8A" cx="958.167" cy="614.774" r="8.981"/>
			</g>
		</g>
		<g>
			<g>
				<g>
					<path fill="#676E8A" d="M162.813,464.181c-2.119,0-3.836-1.718-3.836-3.836v-16.851c0-2.118,1.717-3.836,3.836-3.836
						s3.836,1.718,3.836,3.836v16.851C166.649,462.463,164.932,464.181,162.813,464.181z M162.813,426.266
						c-2.119,0-3.836-1.718-3.836-3.836v-16.851c0-2.118,1.717-3.836,3.836-3.836s3.836,1.718,3.836,3.836v16.851
						C166.649,424.548,164.932,426.266,162.813,426.266z M162.813,388.35c-2.119,0-3.836-1.718-3.836-3.836v-16.851
						c0-2.118,1.717-3.836,3.836-3.836s3.836,1.718,3.836,3.836v16.851C166.649,386.632,164.932,388.35,162.813,388.35z
						 M162.813,350.435c-2.119,0-3.836-1.718-3.836-3.836v-16.851c0-2.119,1.717-3.836,3.836-3.836s3.836,1.717,3.836,3.836v16.851
						C166.649,348.717,164.932,350.435,162.813,350.435z M162.813,312.519c-2.119,0-3.836-1.717-3.836-3.836v-16.851
						c0-2.119,1.717-3.836,3.836-3.836s3.836,1.717,3.836,3.836v16.851C166.649,310.802,164.932,312.519,162.813,312.519z
						 M162.813,274.604c-2.119,0-3.836-1.717-3.836-3.836v-16.851c0-2.119,1.717-3.836,3.836-3.836s3.836,1.717,3.836,3.836v16.851
						C166.649,272.886,164.932,274.604,162.813,274.604z"/>
				</g>
			</g>
		</g>
		<g>
			<g>
				<g>
					<path fill="#676E8A" d="M1009.091,546.766h-16.762c-2.118,0-3.836-1.718-3.836-3.836c0-2.118,1.718-3.836,3.836-3.836h16.762
						c2.118,0,3.836,1.718,3.836,3.836C1012.927,545.048,1011.209,546.766,1009.091,546.766z M971.376,546.766h-16.762
						c-2.118,0-3.836-1.718-3.836-3.836c0-2.118,1.718-3.836,3.836-3.836h16.762c2.118,0,3.836,1.718,3.836,3.836
						C975.212,545.048,973.494,546.766,971.376,546.766z"/>
				</g>
			</g>
			<g>
				<g>
					<path fill="#676E8A" d="M1038.813,546.766h-8.768c-2.118,0-3.836-1.718-3.836-3.836c0-2.118,1.718-3.836,3.836-3.836h4.932
						v-4.932c0-2.118,1.718-3.836,3.836-3.836c2.118,0,3.836,1.718,3.836,3.836v8.768
						C1042.649,545.048,1040.931,546.766,1038.813,546.766z"/>
				</g>
			</g>
			<g>
				<g>
					<path fill="#676E8A" d="M1038.813,516.934c-2.118,0-3.836-1.718-3.836-3.836v-16.851c0-2.118,1.718-3.836,3.836-3.836
						c2.118,0,3.836,1.718,3.836,3.836v16.851C1042.649,515.217,1040.931,516.934,1038.813,516.934z M1038.813,479.019
						c-2.118,0-3.836-1.718-3.836-3.836v-16.851c0-2.118,1.718-3.836,3.836-3.836c2.118,0,3.836,1.718,3.836,3.836v16.851
						C1042.649,477.301,1040.931,479.019,1038.813,479.019z M1038.813,441.103c-2.118,0-3.836-1.718-3.836-3.836v-16.851
						c0-2.118,1.718-3.836,3.836-3.836c2.118,0,3.836,1.718,3.836,3.836v16.851C1042.649,439.386,1040.931,441.103,1038.813,441.103
						z M1038.813,403.188c-2.118,0-3.836-1.718-3.836-3.836v-16.851c0-2.118,1.718-3.836,3.836-3.836
						c2.118,0,3.836,1.718,3.836,3.836v16.851C1042.649,401.47,1040.931,403.188,1038.813,403.188z M1038.813,365.272
						c-2.118,0-3.836-1.718-3.836-3.836v-16.851c0-2.118,1.718-3.836,3.836-3.836c2.118,0,3.836,1.718,3.836,3.836v16.851
						C1042.649,363.555,1040.931,365.272,1038.813,365.272z M1038.813,327.357c-2.118,0-3.836-1.717-3.836-3.836v-16.851
						c0-2.119,1.718-3.836,3.836-3.836c2.118,0,3.836,1.717,3.836,3.836v16.851C1042.649,325.64,1040.931,327.357,1038.813,327.357z
						 M1038.813,289.441c-2.118,0-3.836-1.717-3.836-3.836v-16.851c0-2.119,1.718-3.836,3.836-3.836
						c2.118,0,3.836,1.717,3.836,3.836v16.851C1042.649,287.724,1040.931,289.441,1038.813,289.441z M1038.813,251.526
						c-2.118,0-3.836-1.717-3.836-3.836v-16.851c0-2.119,1.718-3.836,3.836-3.836c2.118,0,3.836,1.717,3.836,3.836v16.851
						C1042.649,249.808,1040.931,251.526,1038.813,251.526z M1038.813,213.61c-2.118,0-3.836-1.717-3.836-3.836v-16.851
						c0-2.119,1.718-3.836,3.836-3.836c2.118,0,3.836,1.717,3.836,3.836v16.851C1042.649,211.893,1040.931,213.61,1038.813,213.61z
						 M1038.813,175.695c-2.118,0-3.836-1.717-3.836-3.836v-16.851c0-2.119,1.718-3.836,3.836-3.836
						c2.118,0,3.836,1.717,3.836,3.836v16.851C1042.649,173.977,1040.931,175.695,1038.813,175.695z"/>
				</g>
			</g>
			<g>
				<g>
					<path fill="#676E8A" d="M1038.813,137.779c-2.118,0-3.836-1.717-3.836-3.836v-4.932h-4.932c-2.118,0-3.836-1.717-3.836-3.836
						c0-2.119,1.718-3.836,3.836-3.836h8.768c2.118,0,3.836,1.717,3.836,3.836v8.768
						C1042.649,136.062,1040.931,137.779,1038.813,137.779z"/>
				</g>
			</g>
			<g>
				<g>
					<path fill="#676E8A" d="M1009.091,129.011h-16.762c-2.118,0-3.836-1.717-3.836-3.836c0-2.119,1.718-3.836,3.836-3.836h16.762
						c2.118,0,3.836,1.717,3.836,3.836C1012.927,127.294,1011.209,129.011,1009.091,129.011z M971.376,129.011h-16.762
						c-2.118,0-3.836-1.717-3.836-3.836c0-2.119,1.718-3.836,3.836-3.836h16.762c2.118,0,3.836,1.717,3.836,3.836
						C975.212,127.294,973.494,129.011,971.376,129.011z"/>
				</g>
			</g>
		</g>
	</g>
	<g>
		<g>
			<path fill="#FFFFFF" d="M907.162,361.241c0,25.009,20.274,45.283,45.283,45.283h66.058c0,0-2.275,20.988,3.405,20.988
				c9.498,0,26.322-20.988,26.322-20.988h61.011c25.009,0,45.283-20.274,45.283-45.283v-63.203
				c0-25.009-20.274-45.283-45.283-45.283H952.445c-25.009,0-45.283,20.274-45.283,45.283V361.241z"/>
			<path fill="#676E8A" d="M1021.908,430.252c-1.434,0-2.728-0.596-3.742-1.725c-3.263-3.637-3.078-13.55-2.661-19.262h-63.06
				c-26.48,0-48.023-21.543-48.023-48.023v-63.203c0-26.48,21.543-48.023,48.023-48.023h156.796
				c26.48,0,48.024,21.543,48.024,48.023v63.203c0,26.48-21.543,48.023-48.024,48.023h-59.711
				C1045.661,413.935,1031.46,430.252,1021.908,430.252z M952.445,255.494c-23.459,0-42.544,19.085-42.544,42.544v63.203
				c0,23.459,19.085,42.543,42.544,42.543h66.058c0.778,0,1.519,0.331,2.039,0.91c0.519,0.579,0.768,1.352,0.685,2.125
				c-0.861,7.971-0.417,16.33,0.922,17.947c6.039-0.317,17.839-12.34,23.944-19.955c0.519-0.649,1.306-1.026,2.137-1.026h61.012
				c23.459,0,42.544-19.085,42.544-42.543v-63.203c0-23.458-19.085-42.544-42.544-42.544H952.445z"/>
		</g>
		<g>
			<g>
				<path fill="#676E8A" d="M1030.896,348.085c-9.22,0-16.72-7.501-16.72-16.72s7.501-16.72,16.72-16.72s16.72,7.501,16.72,16.72
					S1040.115,348.085,1030.896,348.085z M1030.896,320.125c-6.198,0-11.24,5.042-11.24,11.24s5.042,11.24,11.24,11.24
					s11.24-5.042,11.24-11.24S1037.094,320.125,1030.896,320.125z"/>
			</g>
			<g>
				<path fill="#676E8A" d="M1078.597,348.085c-9.22,0-16.72-7.501-16.72-16.72s7.501-16.72,16.72-16.72s16.72,7.501,16.72,16.72
					S1087.816,348.085,1078.597,348.085z M1078.597,320.125c-6.198,0-11.24,5.042-11.24,11.24s5.042,11.24,11.24,11.24
					s11.24-5.042,11.24-11.24S1084.795,320.125,1078.597,320.125z"/>
			</g>
			<g>
				<path fill="#676E8A" d="M983.673,348.085c-9.22,0-16.72-7.501-16.72-16.72s7.501-16.72,16.72-16.72
					c9.22,0,16.72,7.501,16.72,16.72S992.892,348.085,983.673,348.085z M983.673,320.125c-6.198,0-11.24,5.042-11.24,11.24
					s5.042,11.24,11.24,11.24c6.198,0,11.24-5.042,11.24-11.24S989.871,320.125,983.673,320.125z"/>
			</g>
		</g>
	</g>
	<g>
		<g>
			<path fill="#FFFFFF" d="M133.221,574.158c0,24.037,19.486,43.523,43.523,43.523h63.491c0,0-2.187,20.172,3.273,20.172
				c9.129,0,25.299-20.172,25.299-20.172h58.64c24.037,0,43.523-19.486,43.523-43.523v-60.746c0-24.037-19.486-43.523-43.523-43.523
				H176.745c-24.037,0-43.523,19.486-43.523,43.523V574.158z"/>
			<path fill="#676E8A" d="M243.508,640.594c-1.41,0-2.681-0.585-3.675-1.693c-3.14-3.5-2.989-12.957-2.593-18.48h-60.495
				c-25.51,0-46.263-20.753-46.263-46.263v-60.746c0-25.51,20.754-46.264,46.263-46.264h150.703
				c25.51,0,46.263,20.754,46.263,46.264v60.746c0,25.51-20.754,46.263-46.263,46.263h-57.34
				C266.337,624.968,252.708,640.594,243.508,640.594z M176.745,472.628c-22.488,0-40.783,18.296-40.783,40.784v60.746
				c0,22.488,18.295,40.783,40.783,40.783h63.491c0.778,0,1.519,0.331,2.039,0.91c0.52,0.579,0.768,1.352,0.685,2.125
				c-0.813,7.532-0.411,15.476,0.832,17.129c5.784-0.374,17.041-11.856,22.878-19.137c0.52-0.649,1.306-1.026,2.138-1.026h58.64
				c22.488,0,40.783-18.295,40.783-40.783v-60.746c0-22.488-18.295-40.784-40.783-40.784H176.745z"/>
		</g>
		<g>
			<path fill="none" stroke="#676E8A" stroke-width="5" stroke-linecap="round" stroke-linejoin="round" stroke-miterlimit="10" d="
				M213.518,568.645c4.8-3.187,8.283-6.287,10.445-9.298c2.164-3.011,3.689-6.904,4.578-11.683
				c-2.785,0.705-4.889,1.057-6.311,1.057c-3.911,0-7.052-1.337-9.423-4.01c-2.37-2.675-3.556-6.215-3.556-10.623
				c0-4.35,1.2-7.816,3.6-10.402c2.4-2.587,5.586-3.879,9.556-3.879c5.333,0,9.423,2.178,12.267,6.534
				c2.489,3.884,3.734,8.593,3.734,14.127c0,12.892-6.874,24.164-20.624,33.818L213.518,568.645z M256.009,568.645
				c4.8-3.187,8.283-6.287,10.445-9.298c2.164-3.011,3.66-6.904,4.489-11.683c-2.726,0.705-4.8,1.057-6.223,1.057
				c-3.911,0-7.052-1.352-9.423-4.054c-2.37-2.705-3.556-6.23-3.556-10.579c0-4.35,1.2-7.816,3.6-10.402
				c2.4-2.587,5.586-3.879,9.556-3.879c5.334,0,9.423,2.178,12.268,6.534c2.489,3.884,3.733,8.593,3.733,14.127
				c0,12.892-6.874,24.164-20.624,33.818L256.009,568.645z"/>
		</g>
	</g>
	<g>
		<g>
			<path fill="#FFFFFF" d="M353.693,194.787c0,25.228-20.451,45.679-45.679,45.679h-66.635c0,0,2.295,21.171-3.435,21.171
				c-9.581,0-26.552-21.171-26.552-21.171h-61.544c-25.228,0-45.679-20.451-45.679-45.679v-63.755
				c0-25.228,20.451-45.679,45.679-45.679h158.166c25.228,0,45.679,20.451,45.679,45.679V194.787z"/>
			<path fill="#676E8A" d="M237.944,264.377c-9.63,0-23.962-16.475-27.853-21.171h-60.244c-26.698,0-48.419-21.721-48.419-48.419
				v-63.754c0-26.698,21.721-48.419,48.419-48.419h158.166c26.698,0,48.419,21.721,48.419,48.419v63.754
				c0,26.698-21.721,48.419-48.419,48.419h-63.637c0.423,5.754,0.615,15.77-2.676,19.439
				C240.684,263.779,239.385,264.377,237.944,264.377z M149.848,88.094c-23.677,0-42.939,19.262-42.939,42.939v63.754
				c0,23.677,19.262,42.939,42.939,42.939h61.544c0.831,0,1.618,0.378,2.137,1.026c6.169,7.69,18.095,19.834,24.184,20.139
				c1.363-1.61,1.816-10.062,0.941-18.13c-0.084-0.774,0.165-1.547,0.684-2.126c0.52-0.579,1.261-0.91,2.039-0.91h66.636
				c23.677,0,42.939-19.262,42.939-42.939v-63.754c0-23.677-19.262-42.939-42.939-42.939H149.848z"/>
		</g>
		<g>
			<path fill="#676E8A" d="M296.614,175.96H161.249c-7.325,0-13.285-5.959-13.285-13.284c0-7.325,5.959-13.285,13.285-13.285
				h135.366c7.325,0,13.285,5.959,13.285,13.285C309.899,170,303.939,175.96,296.614,175.96z M161.249,154.871
				c-4.304,0-7.805,3.501-7.805,7.805c0,4.303,3.501,7.804,7.805,7.804h135.366c4.304,0,7.805-3.501,7.805-7.804
				c0-4.304-3.501-7.805-7.805-7.805H161.249z"/>
		</g>
	</g>
	<g>
		<g>
			<g>
				<path fill="#C5CAE8" d="M304.175,292.588c0,0-23.107-3.288-23.107-20.55c0-22.65,0-118.367,0-118.367s0.731-10.96,8.037-18.267
					s16.714-9.407,25.573-7.307c0-12.421,11.325-31.053,30.322-31.053c18.997,0,26.39,10.241,31.053,23.746
					c3.288-20.74,19.728-22.65,24.842-22.65s19.728,1.911,24.842,18.997c5.115-24.112,21.554-28.496,35.802-28.496
					s37.264,11.409,37.264,37.994c13.883,0,25.573,13.152,25.573,27.765s0,82.565,0,82.565l-35.802-0.731
					c0,0,0.829-47.81,0.829-39.591c0,8.22-0.829-26.899-20.557-26.899s-107.219,0-127.677,0c-19.791,0-22.839,23.381-22.839,23.381
					l-4.019,32.149c0,0-21.189,0.365-23.746,18.632s17.383,23.337,17.383,23.337L304.175,292.588z"/>
			</g>
		</g>
		<g>
			<g>
				<path fill="#FFFFFF" d="M304.175,292.588l3.775-25.344c0,0-19.94-5.07-17.383-23.337s23.746-18.632,23.746-18.632l4.019-32.149
					c0,0,3.048-23.381,22.839-23.381c20.458,0,107.95,0,127.677,0s20.557,35.119,20.557,26.899c0-8.22,0,39.591,0,39.591v83.295
					c0,0-17.269,56.626-84.125,56.626C317.236,376.157,304.175,292.588,304.175,292.588z"/>
			</g>
		</g>
		<g>
			<g>
				<path fill="#FFFFFF" d="M378.246,411.379h49.32v-37.544c0,0-9.499,2.322-22.285,2.322c-12.787,0-27.034-2.957-27.034-2.957
					V411.379z"/>
			</g>
		</g>
		<g>
			<g>
				<path fill="#FFFFFF" d="M491.386,658.039c0,0,0-200.558,0-209.737c0-13.883-1.981-40.211-46.737-40.211
					c-29.554,0-72.855,0-87.976,0c-19.785,0-42.613,9.662-42.613,47.423c0,30.816,0,202.525,0,202.525H491.386z"/>
			</g>
		</g>
		<g>
			<g>
				<circle fill="#676E8A" cx="358.335" cy="239.706" r="8.585"/>
			</g>
		</g>
		<g>
			<g>
				<circle fill="#676E8A" cx="447.268" cy="239.706" r="8.585"/>
			</g>
		</g>
		<g>
			<g>
				<g>
					<path fill="#676E8A" d="M281.068,183.125c-1.513,0-2.74-1.227-2.74-2.74v-27.811c0-0.061,0.002-0.121,0.006-0.182
						c0.033-0.49,0.89-12.079,8.834-20.022c6.783-6.783,15.745-9.833,24.979-8.618c1.717-13.696,13.902-30.544,32.854-30.544
						c17.435,0,25.681,8.231,30.521,17.984c6.42-15.975,21.94-16.888,25.374-16.888c3.041,0,16.727,0.745,24.307,13.604
						c5.683-15.527,17.639-23.103,36.338-23.103c5.022,0,10.679,1.293,15.93,3.64c1.381,0.618,2,2.238,1.383,3.62
						c-0.616,1.381-2.236,2.004-3.62,1.383c-4.562-2.039-9.425-3.163-13.693-3.163c-18.788,0-29.312,8.365-33.122,26.324
						c-0.26,1.225-1.318,2.118-2.569,2.17c-1.254,0.045-2.378-0.753-2.737-1.952c-4.733-15.814-18.202-17.043-22.217-17.043
						c-4.436,0-19.145,1.467-22.137,20.34c-0.197,1.242-1.214,2.19-2.466,2.3c-1.246,0.117-2.419-0.646-2.83-1.835
						c-4.539-13.145-11.116-21.901-28.463-21.901c-16.837,0-27.583,16.769-27.583,28.313c0,0.838-0.383,1.63-1.041,2.149
						c-0.658,0.52-1.517,0.71-2.331,0.517c-8.562-2.031-16.73,0.305-23.004,6.578c-6.203,6.203-7.154,15.503-7.235,16.436v27.704
						C283.808,181.899,282.581,183.125,281.068,183.125z"/>
				</g>
			</g>
			<g>
				<g>
					<path fill="#676E8A" d="M304.178,294.232c-0.128,0-0.258-0.009-0.389-0.028c-8.806-1.253-25.461-7.728-25.461-23.263v-71.376
						c0-1.513,1.227-2.74,2.74-2.74c1.513,0,2.74,1.227,2.74,2.74v71.376c0,11.467,12.479,15.877,18.084,17.278l3.002-20.153
						c-7.88-2.849-19.112-10.838-17.041-25.635c2.073-14.807,15.488-19.927,24.022-20.839l3.738-29.902
						c1.163-8.926,7.999-25.781,25.557-25.781h127.678c7.838,0,17.954,4.716,22.48,26.709c0.817,0.891,0.817,2.325,0.817,2.93
						c0,0.441,0,1.014-0.101,1.587c-0.178,7.103-0.549,27.836-0.68,35.319l30.275,0.618v-79.768
						c0-13.331-10.67-25.025-22.833-25.025c-1.513,0-2.74-1.227-2.74-2.74c0-14.206-6.989-22.682-12.851-27.291
						c-1.19-0.935-1.396-2.658-0.461-3.847c0.936-1.19,2.659-1.396,3.847-0.461c6.451,5.071,14.074,14.147,14.875,29.008
						c13.94,1.555,25.642,15.073,25.642,30.356v82.564c0,0.736-0.297,1.442-0.823,1.957c-0.527,0.515-1.26,0.794-1.973,0.782
						l-35.802-0.73c-1.51-0.031-2.71-1.277-2.684-2.787c0.005-0.298,0.513-29.511,0.73-38.151c-0.042-0.215-0.091-0.486-0.148-0.809
						c-2.841-16.187-8.917-24.743-17.571-24.743H341.17c-17.114,0-20.008,20.142-20.122,20.999l-4.016,32.131
						c-0.169,1.353-1.308,2.376-2.671,2.4c-0.765,0.017-18.884,0.584-21.08,16.272c-2.192,15.656,14.628,20.119,15.345,20.302
						c1.362,0.346,2.242,1.668,2.035,3.059l-3.774,25.343C306.683,293.254,305.514,294.232,304.178,294.232z"/>
				</g>
			</g>
			<g>
				<g>
					<path fill="#676E8A" d="M489.356,199.531c-0.001,0-0.001,0-0.002,0c-1.239-0.001-2.366-0.931-2.686-2.128
						c-0.068-0.255-0.1-0.518-0.093-0.781c0.016-0.606,0.032-1.204,0.087-1.76c-0.001-0.032-0.002-0.058-0.002-0.079l0.01-0.001
						c0.177-1.654,0.727-2.922,2.721-2.922c1.828,0,2.754,1.241,2.754,3.689c0,0.474-0.003,0.816-0.011,1.04
						C492.051,198.917,490.282,199.531,489.356,199.531z M489.357,194.051c-0.724,0-1.352,0.28-1.822,0.697l1.813-0.072l0.011-0.626
						C489.358,194.051,489.357,194.051,489.357,194.051z"/>
				</g>
			</g>
			<g>
				<g>
					<path fill="#676E8A" d="M405.28,377.801c-46.677,0-72.439-23.372-85.832-42.979c-14.453-21.16-17.843-42.03-17.981-42.907
						c-0.043-0.274-0.043-0.553-0.003-0.827l3.429-23.021c-7.88-2.849-19.112-10.838-17.041-25.635
						c2.073-14.807,15.487-19.927,24.022-20.839l3.738-29.902c1.163-8.926,7.999-25.781,25.557-25.781h127.678
						c7.841,0,17.962,4.721,22.487,26.743c0.501,0.497,0.811,1.185,0.811,1.946v123.836c0,0.271-0.04,0.54-0.119,0.8
						c-0.184,0.602-4.642,14.901-17.571,29.341C462.519,361.908,440.828,377.801,405.28,377.801z M306.951,291.458
						c0.536,2.934,4.372,21.832,17.14,40.444c18.399,26.821,45.715,40.42,81.19,40.42c26.823,0,48.671-9.161,64.936-27.227
						c11.091-12.32,15.676-24.826,16.448-27.097V197.283c-0.116-0.405-0.186-0.806-0.246-1.146
						c-2.842-16.189-8.918-24.747-17.571-24.747H341.17c-17.114,0-20.008,20.142-20.122,20.999l-4.016,32.131
						c-0.169,1.353-1.307,2.376-2.671,2.4c-0.765,0.017-18.884,0.584-21.08,16.272c-2.181,15.574,14.634,20.117,15.35,20.303
						c1.357,0.352,2.235,1.671,2.029,3.057L306.951,291.458z"/>
				</g>
			</g>
			<g>
				<g>
					<path fill="#676E8A" d="M427.566,409.735h-49.32c-1.513,0-2.74-1.227-2.74-2.74v-34.891c0-0.824,0.371-1.604,1.01-2.125
						s1.479-0.724,2.286-0.559c0.14,0.029,14.133,2.901,26.478,2.901c12.314,0,21.543-2.222,21.635-2.244
						c0.816-0.199,1.68-0.013,2.342,0.506c0.662,0.52,1.048,1.314,1.048,2.156v34.256
						C430.306,408.508,429.079,409.735,427.566,409.735z M380.986,404.255h43.84v-28.162c-3.945,0.71-11.008,1.708-19.545,1.708
						c-9.334,0-19.273-1.509-24.294-2.393V404.255z"/>
				</g>
			</g>
			<g>
				<g>
					<path fill="#676E8A" d="M314.06,659.683c-1.513,0-2.74-1.227-2.74-2.74v-48.665c0-1.513,1.227-2.74,2.74-2.74
						c1.513,0,2.74,1.227,2.74,2.74v48.665C316.8,658.456,315.573,659.683,314.06,659.683z"/>
				</g>
			</g>
			<g>
				<g>
					<path fill="#676E8A" d="M491.386,650.915c-1.513,0-2.74-1.227-2.74-2.74V447.206c0-11.213,0-37.471-43.998-37.471h-87.976
						c-14.891,0-39.873,5.805-39.873,44.683v136.986c0,1.513-1.227,2.74-2.74,2.74c-1.513,0-2.74-1.227-2.74-2.74V454.418
						c0-45.275,31.717-50.163,45.353-50.163h87.976c49.477,0,49.477,32.329,49.477,42.951v200.969
						C494.126,649.688,492.9,650.915,491.386,650.915z"/>
				</g>
			</g>
		</g>
		<g>
			<g>
				<path fill="#FFFFFF" d="M314.091,463.155c0,0-16.438-1.398-16.438,14.678c0,16.076,0,46.132,0,57.316
					c0,8.737,4.318,13.28,11.184,13.28c9.087,0,18.173,0,18.173,0s24.464-2.948,24.464-28.308s-31.43-28.308-37.383-28.308V463.155z
					"/>
			</g>
			<g>
				<path fill="#676E8A" d="M327.01,551.17h-18.173c-8.719,0-13.924-5.989-13.924-16.021v-57.316
					c0-12.865,9.403-17.449,18.202-17.449c0.761,0,1.208,0.041,1.208,0.041c1.411,0.128,2.508,1.313,2.508,2.73v26.015
					c12.533,0.835,37.383,7.359,37.383,30.952c0,27.471-26.607,30.996-26.876,31.029C327.229,551.164,327.12,551.17,327.01,551.17z
					 M311.351,465.939c-4.728,0.405-10.958,2.688-10.958,11.894v57.316c0,4.809,1.465,10.541,8.444,10.541h17.989
					c2.104-0.303,21.908-3.744,21.908-25.568c0-24.873-34.297-25.569-34.643-25.569c-1.513,0-2.74-1.227-2.74-2.74V465.939z"/>
			</g>
		</g>
	</g>
	<g>
		<g>
			<g>
				<path fill="#C5CAE8" d="M686.755,309.408c0-56.849,0-99.497,0-105.518c0-20.153,35.268-127.397,146.151-127.397
					c78.413,0,150.388,59.02,150.388,136.753c0,15.108,0,97.364,0,128.676c0,24.736-9.194,71.664-69.109,71.664
					c-43.131,0-227.43-3.318-227.43-3.318V309.408z"/>
			</g>
		</g>
		<g>
			<g>
				<path fill="#676E8A" d="M914.185,415.23c-42.662,0-225.637-3.285-227.48-3.318c-1.494-0.028-2.691-1.246-2.691-2.74V202.794
					c0-10.969,9.406-43.623,32.067-72.932c20.177-26.097,56.824-57.205,116.824-57.205c23.286,0,46.871,5.22,68.205,15.097
					c1.373,0.636,1.971,2.264,1.336,3.637c-0.636,1.373-2.265,1.972-3.637,1.335c-20.618-9.544-43.407-14.589-65.904-14.589
					c-57.776,0-93.062,29.951-112.489,55.077c-21.851,28.262-30.922,59.263-30.922,69.58V406.48
					c22.933,0.409,184.921,3.27,224.691,3.27c59.902,0,66.368-48.2,66.368-68.923V212.15c0-36.096-15.931-70.001-44.861-95.47
					c-1.136-1-1.246-2.731-0.245-3.867c1-1.137,2.73-1.245,3.867-0.246c30.127,26.524,46.719,61.89,46.719,99.583v128.676
					c0,10.318-1.629,30.093-12.54,46.617C961.32,405.882,941.366,415.23,914.185,415.23z"/>
			</g>
		</g>
		<g>
			<g>
				<path fill="#FFFFFF" d="M869.636,187.978h-69.223c0,21.234-13.935,57.062-59.506,57.062v60.018c0,0,19.029,94.594,94.118,94.594
					c64.921,0,94.118-61.047,94.118-94.594c0-9.516-0.664-22.191-0.664-22.191s18.58-0.664,18.58-17.916s-18.58-17.916-18.58-17.916
					s0-18.579,0-37.159s-14.598-21.897-14.598-21.897H800.412"/>
			</g>
		</g>
		<g>
			<g>
				<path fill="#FFFFFF" d="M928.222,658.039c0-311.35,0-311.35,0-179.528c0-9.786-17.474-44.035-47.53-44.035
					c-30.056,0-74.091,0-89.469,0c-15.377,0-43.336,18.872-43.336,51.724s0,171.839,0,171.839H928.222z"/>
			</g>
		</g>
		<g>
			<g>
				<path fill="#FFFFFF" d="M805.057,393.97v40.506h60.257v-39.768c0,0-13.846,4.943-30.129,4.943
					C818.904,399.651,805.057,393.97,805.057,393.97z"/>
			</g>
		</g>
		<g>
			<g>
				<path fill="#FFFFFF" d="M939.791,494.28c0,0,16.438-1.398,16.438,14.678s0,46.132,0,57.316c0,8.737-4.318,13.281-11.184,13.281
					c-9.087,0-18.173,0-18.173,0s-24.464-2.949-24.464-28.308s31.43-28.308,37.383-28.308V494.28z"/>
			</g>
		</g>
		<g>
			<g>
				<path fill="#FFFFFF" d="M940.587,464.21c0-1.287-21.579-48.558-21.579-48.558s-21.579,47.271-21.579,48.558v144.89
					c0,1.287,1.043,2.33,2.33,2.33h38.497c1.287,0,2.33-1.043,2.33-2.33V464.21z"/>
			</g>
		</g>
		<g>
			<g>
				<path fill="#676E8A" d="M903.926,279.956c-1.513,0-2.74-1.227-2.74-2.74c0-13.49-10.082-24.466-22.474-24.466
					c-12.393,0-22.475,10.975-22.475,24.466c0,1.513-1.227,2.74-2.74,2.74c-1.513,0-2.74-1.227-2.74-2.74
					c0-16.512,12.541-29.945,27.955-29.945s27.954,13.433,27.954,29.945C906.666,278.729,905.44,279.956,903.926,279.956z"/>
			</g>
		</g>
		<g>
			<g>
				<path fill="#676E8A" d="M816.662,279.956c-1.513,0-2.74-1.227-2.74-2.74c0-13.49-10.082-24.466-22.475-24.466
					c-12.392,0-22.474,10.975-22.474,24.466c0,1.513-1.227,2.74-2.74,2.74s-2.74-1.227-2.74-2.74
					c0-16.512,12.54-29.945,27.954-29.945c15.414,0,27.955,13.433,27.955,29.945C819.402,278.729,818.176,279.956,816.662,279.956z"
					/>
			</g>
		</g>
		<g>
			<g>
				<path fill="#676E8A" d="M835.025,401.296c-31.718,0-58.542-16.817-77.569-48.63c-14.221-23.78-19.038-47.179-19.236-48.163
					c-0.035-0.178-0.054-0.359-0.054-0.54v-60.018c0-1.513,1.227-2.74,2.74-2.74c44.901,0,56.766-35.533,56.766-54.322
					c0-1.513,1.227-2.74,2.74-2.74H913.88c0.204,0,0.408,0.023,0.607,0.068c0.168,0.038,16.731,4.04,16.731,24.569v34.677
					c7.593,1.168,18.579,6.397,18.579,20.398c0,13.926-10.87,19.173-18.457,20.379c0.193,4.238,0.542,12.842,0.542,19.729
					c0,19.538-9.148,43.71-23.306,61.578C895.652,381.851,872.402,401.296,835.025,401.296z M743.646,303.675
					c0.564,2.605,5.587,24.619,18.588,46.304c18.234,30.415,42.724,45.837,72.79,45.837c63.785,0,91.377-60.825,91.377-91.854
					c0-9.333-0.653-21.922-0.66-22.048c-0.037-0.734,0.219-1.452,0.716-1.994c0.496-0.542,1.189-0.862,1.923-0.888
					c0.643-0.026,15.937-0.823,15.937-15.177s-15.294-15.151-15.944-15.178c-1.468-0.06-2.635-1.268-2.635-2.738v-37.159
					c0-14.916-10.456-18.638-12.216-19.157H803.085c-0.62,12.597-5.45,25.667-13.187,35.453
					c-7.519,9.511-21.585,20.785-46.251,21.566V303.675z"/>
			</g>
		</g>
		<g>
			<g>
				<path fill="#676E8A" d="M928.222,659.683c-1.513,0-2.74-1.227-2.74-2.74V477.416c0-8.549-16.824-41.296-44.79-41.296h-89.469
					c-13.779,0-40.597,17.29-40.597,48.985v166.358c0,1.513-1.227,2.74-2.74,2.74s-2.74-1.227-2.74-2.74V485.105
					c0-15.205,5.936-29.456,16.714-40.129c8.795-8.708,20.321-14.336,29.363-14.336h89.469c31.889,0,50.27,35.499,50.27,46.775
					v179.527C930.962,658.456,929.736,659.683,928.222,659.683z"/>
			</g>
		</g>
		<g>
			<g>
				<path fill="#676E8A" d="M865.314,436.12h-60.257c-1.513,0-2.74-1.227-2.74-2.74v-40.506c0-0.913,0.456-1.765,1.214-2.274
					c0.758-0.508,1.721-0.607,2.564-0.261c0.134,0.055,13.578,5.477,29.091,5.477c15.626,0,29.073-4.736,29.206-4.784
					c0.838-0.3,1.77-0.172,2.5,0.34c0.728,0.514,1.161,1.35,1.161,2.24v39.768C868.054,434.893,866.828,436.12,865.314,436.12z
					 M807.797,430.64h54.777v-33.303c-5.279,1.507-15.667,3.958-27.388,3.958c-11.691,0-22.058-2.79-27.389-4.531V430.64z"/>
			</g>
		</g>
		<g>
			<g>
				<g>
					<path fill="#FFFFFF" d="M938.017,455.964h-42.403c-1.418,0-2.567,0.969-2.567,2.163v10.046v124.458v10.046
						c0,1.195,1.149,2.163,2.567,2.163h42.403c1.417,0,2.567-0.969,2.567-2.163v-10.046V468.174v-10.046
						C940.584,456.933,939.435,455.964,938.017,455.964z"/>
				</g>
				<g>
					<path fill="#676E8A" d="M938.017,607.581h-42.402c-2.926,0-5.307-2.199-5.307-4.903v-144.55c0-2.704,2.38-4.903,5.307-4.903
						h42.402c2.926,0,5.307,2.199,5.307,4.903v144.55C943.323,605.381,940.943,607.581,938.017,607.581z M895.788,602.089
						l42.055,0.012V458.716l-42.055-0.012V602.089z"/>
				</g>
			</g>
			<g>
				<g>
					<g>
						<line fill="#FFFFFF" x1="893.048" y1="493.075" x2="940.584" y2="493.075"/>
					</g>
				</g>
				<g>
					<g>
						<g>
							<path fill="#676E8A" d="M894.144,495.815h-1.096c-1.513,0-2.74-1.227-2.74-2.74c0-1.513,1.227-2.74,2.74-2.74h1.096
								c1.513,0,2.74,1.227,2.74,2.74C896.884,494.589,895.657,495.815,894.144,495.815z"/>
						</g>
					</g>
					<g>
						<g>
							<path fill="#676E8A" d="M929.941,495.815h-2.386c-1.513,0-2.74-1.227-2.74-2.74c0-1.513,1.227-2.74,2.74-2.74h2.386
								c1.513,0,2.74,1.227,2.74,2.74C932.681,494.589,931.455,495.815,929.941,495.815z M918.01,495.815h-2.387
								c-1.513,0-2.74-1.227-2.74-2.74c0-1.513,1.227-2.74,2.74-2.74h2.387c1.513,0,2.74,1.227,2.74,2.74
								C920.749,494.589,919.523,495.815,918.01,495.815z M906.077,495.815h-2.387c-1.513,0-2.74-1.227-2.74-2.74
								c0-1.513,1.227-2.74,2.74-2.74h2.387c1.513,0,2.74,1.227,2.74,2.74C908.817,494.589,907.59,495.815,906.077,495.815z"/>
						</g>
					</g>
					<g>
						<g>
							<path fill="#676E8A" d="M940.583,495.815h-1.096c-1.513,0-2.74-1.227-2.74-2.74c0-1.513,1.227-2.74,2.74-2.74h1.096
								c1.513,0,2.74,1.227,2.74,2.74C943.323,494.589,942.097,495.815,940.583,495.815z"/>
						</g>
					</g>
				</g>
			</g>
		</g>
		<g>
			<g>
				<g>
					<path fill="#FFFFFF" d="M907.735,458.584l-41.754,6.225c-1.396,0.208-2.327,1.331-2.08,2.507l2.076,9.892l25.722,122.555
						l2.076,9.892c0.247,1.176,1.579,1.961,2.975,1.753l41.755-6.225c1.396-0.208,2.327-1.331,2.08-2.507l-2.076-9.892
						L912.786,470.23l-2.076-9.892C910.463,459.161,909.131,458.376,907.735,458.584z"/>
				</g>
				<g>
					<path fill="#676E8A" d="M896.299,614.183c-2.534,0-4.724-1.667-5.206-3.964l-29.874-142.34
						c-0.263-1.252,0.001-2.53,0.745-3.598c0.811-1.166,2.128-1.961,3.614-2.181l41.753-6.225c2.85-0.428,5.525,1.349,6.06,3.902
						l29.873,142.338c0.263,1.252-0.001,2.53-0.745,3.598c-0.81,1.166-2.128,1.961-3.612,2.181l-41.754,6.226
						C896.866,614.163,896.581,614.183,896.299,614.183z M866.732,467.468l29.641,141.228l41.379-6.17l-29.641-141.227
						L866.732,467.468z"/>
				</g>
			</g>
			<g>
				<g>
					<g>
						<line fill="#FFFFFF" x1="871.123" y1="501.729" x2="917.932" y2="494.75"/>
					</g>
				</g>
				<g>
					<g>
						<g>
							<path fill="#676E8A" d="M871.12,504.469c-1.335,0-2.505-0.976-2.707-2.336c-0.223-1.496,0.809-2.891,2.307-3.114l1.084-0.162
								c1.491-0.225,2.891,0.809,3.114,2.306c0.223,1.496-0.809,2.891-2.307,3.114l-1.084,0.162
								C871.39,504.459,871.253,504.469,871.12,504.469z"/>
						</g>
					</g>
					<g>
						<g>
							<path fill="#676E8A" d="M881.602,502.906c-1.335,0-2.505-0.976-2.707-2.336c-0.223-1.496,0.809-2.891,2.306-3.113l2.349-0.35
								c1.503-0.225,2.891,0.809,3.113,2.307c0.223,1.496-0.809,2.891-2.306,3.113l-2.349,0.35
								C881.872,502.896,881.736,502.906,881.602,502.906z M893.35,501.155c-1.335,0-2.505-0.976-2.707-2.336
								c-0.223-1.496,0.809-2.891,2.307-3.114l2.349-0.35c1.503-0.224,2.891,0.809,3.114,2.306c0.223,1.496-0.809,2.891-2.307,3.114
								l-2.349,0.35C893.619,501.145,893.483,501.155,893.35,501.155z M905.097,499.404c-1.335,0-2.503-0.976-2.707-2.335
								c-0.224-1.496,0.808-2.891,2.305-3.115l2.349-0.351c1.493-0.222,2.891,0.809,3.115,2.305s-0.808,2.891-2.305,3.115
								l-2.349,0.351C905.368,499.394,905.232,499.404,905.097,499.404z"/>
						</g>
					</g>
					<g>
						<g>
							<path fill="#676E8A" d="M916.845,497.652c-1.335,0-2.505-0.976-2.707-2.336c-0.223-1.496,0.809-2.891,2.307-3.113
								l1.084-0.162c1.488-0.228,2.891,0.81,3.114,2.306c0.223,1.496-0.809,2.891-2.307,3.114l-1.084,0.162
								C917.116,497.642,916.979,497.652,916.845,497.652z"/>
						</g>
					</g>
				</g>
			</g>
		</g>
		<g>
			<g>
				<path fill="#FFFFFF" d="M939.791,493.184c0,0,16.438-1.398,16.438,14.678s0,46.132,0,57.316c0,8.737-4.318,13.281-11.184,13.281
					c-9.087,0-18.173,0-18.173,0s-24.464-2.949-24.464-28.308s31.43-28.308,37.383-28.308V493.184z"/>
			</g>
			<g>
				<path fill="#676E8A" d="M945.045,581.199h-18.174c-0.109,0-0.219-0.006-0.328-0.019c-0.269-0.033-26.876-3.557-26.876-31.029
					c0-23.592,24.85-30.117,37.384-30.951v-26.015c0-1.417,1.096-2.602,2.508-2.73c0,0,0.446-0.041,1.207-0.041
					c8.8,0,18.203,4.584,18.203,17.449v57.316C958.969,575.209,953.764,581.199,945.045,581.199z M927.056,575.719h17.99
					c6.978,0,8.444-5.732,8.444-10.54v-57.316c0-9.207-6.23-11.49-10.958-11.894v25.875c0,1.513-1.227,2.74-2.74,2.74
					c-0.347,0-34.644,0.696-34.644,25.567C905.148,571.976,924.951,575.416,927.056,575.719z"/>
			</g>
		</g>
	</g>
	<g>
		<g>
			<g>
				<path fill="#C5CAE8" d="M624.479,96.763c76.149,0,146.046,57.316,146.046,132.805s0,426.279,0,426.279h-53.122
					c0,0,0-159.271,0-169.057c0-9.786-17.474-44.035-47.53-44.035c-30.056,0-74.091,0-89.469,0s-43.336,18.872-43.336,51.724
					s0,161.368,0,161.368h-54.52c0,0,0-415.794,0-435.366S516.797,96.763,624.479,96.763z"/>
			</g>
		</g>
		<g>
			<g>
				<path fill="#FFFFFF" d="M717.403,658.039c0,0,0-161.463,0-171.249c0-9.786-17.474-44.035-47.53-44.035
					c-30.056,0-74.091,0-89.469,0s-43.336,18.872-43.336,51.724s0,163.56,0,163.56H717.403z"/>
			</g>
		</g>
		<g>
			<g>
				<path fill="#FFFFFF" d="M537.068,221.88c0,13.979,0,39.143,0,39.143s-18.173,2.796-18.173,17.474
					c0,14.678,18.173,16.076,18.173,16.076v30.056c0,0,11.262,82.479,87.411,82.479s92.924-72.693,92.924-84.576
					c0-11.883,0-27.959,0-27.959s16.775,1.398,16.775-16.076c0-13.28-11.147-17.474-16.775-17.474
					c-26.561,0-57.014-21.668-57.014-58.015c0,0-99.38,0-105.148,0S537.068,207.9,537.068,221.88z"/>
			</g>
		</g>
		<g>
			<g>
				<path fill="#FFFFFF" d="M598.184,403.349v39.406h56.311V402.76c0,0-14.801,4.347-30.017,4.347
					C609.263,407.108,598.184,403.349,598.184,403.349z"/>
			</g>
		</g>
		<g>
			<g>
				<path fill="#C5CAE8" d="M651,344.899c0,13.511-10.953,24.464-24.464,24.464c-13.511,0-24.464-10.953-24.464-24.464H651z"/>
			</g>
		</g>
		<g>
			<g>
				<circle fill="#676E8A" cx="625.301" cy="555.443" r="3.745"/>
			</g>
		</g>
		<g>
			<g>
				<circle fill="#B2EBF2" cx="629.959" cy="530.874" r="12.056"/>
			</g>
		</g>
		<g>
			<g>
				<path fill="#676E8A" d="M627.785,542.93c-9.228,0-16.735-7.507-16.735-16.735s7.507-16.736,16.735-16.736
					c1.513,0,2.74,1.227,2.74,2.74c0,1.513-1.227,2.74-2.74,2.74c-6.207,0-11.255,5.05-11.255,11.256
					c0,6.207,5.049,11.255,11.255,11.255c6.207,0,11.256-5.049,11.256-11.255c0-1.513,1.227-2.74,2.74-2.74
					c1.513,0,2.74,1.227,2.74,2.74C644.521,535.423,637.013,542.93,627.785,542.93z"/>
			</g>
		</g>
		<g>
			<g>
				<path fill="#676E8A" d="M770.525,659.683c-1.513,0-2.74-1.227-2.74-2.74V537.608c0-1.513,1.227-2.74,2.74-2.74
					s2.74,1.227,2.74,2.74v119.335C773.265,658.456,772.038,659.683,770.525,659.683z"/>
			</g>
		</g>
		<g>
			<g>
				<path fill="#676E8A" d="M770.525,517.521c-1.513,0-2.74-1.227-2.74-2.74V228.472c0-70.503-65.626-130.065-143.306-130.065
					c-6.231,0-12.406,0.361-18.35,1.074c-1.494,0.174-2.866-0.892-3.047-2.395c-0.18-1.502,0.892-2.866,2.395-3.047
					c6.16-0.738,12.553-1.113,19.002-1.113c37.714,0,75.399,14.134,103.389,38.778c29.275,25.773,45.397,60.14,45.397,96.767
					v286.309C773.265,516.294,772.038,517.521,770.525,517.521z"/>
			</g>
		</g>
		<g>
			<g>
				<path fill="#676E8A" d="M482.548,444.399c-1.513,0-2.74-1.227-2.74-2.74V219.386c0-8.043,5.296-29.735,19.506-53.697
					c11.908-20.08,33.514-47.121,68.828-61.912c4.26-1.784,8.679-3.37,13.134-4.714c1.447-0.436,2.977,0.383,3.414,1.832
					c0.437,1.449-0.383,2.977-1.832,3.414c-4.274,1.289-8.513,2.81-12.599,4.521c-62.792,26.302-84.97,95.297-84.97,110.555v222.273
					C485.288,443.172,484.061,444.399,482.548,444.399z"/>
			</g>
		</g>
		<g>
			<g>
				<path fill="#676E8A" d="M482.548,476.241c-1.513,0-2.74-1.227-2.74-2.74v-20.754c0-1.513,1.227-2.74,2.74-2.74
					c1.513,0,2.74,1.227,2.74,2.74v20.754C485.288,475.015,484.061,476.241,482.548,476.241z"/>
			</g>
		</g>
		<g>
			<g>
				<path fill="#676E8A" d="M482.548,659.683c-1.513,0-2.74-1.227-2.74-2.74V492.99c0-1.513,1.227-2.74,2.74-2.74
					c1.513,0,2.74,1.227,2.74,2.74v163.953C485.288,658.456,484.061,659.683,482.548,659.683z"/>
			</g>
		</g>
		<g>
			<g>
				<path fill="#676E8A" d="M537.068,659.683c-1.513,0-2.74-1.227-2.74-2.74v-163.56c0-8.571,1.814-16.725,5.391-24.234
					c0.65-1.366,2.284-1.946,3.652-1.295c1.366,0.651,1.946,2.285,1.295,3.652c-3.223,6.768-4.858,14.128-4.858,21.877v163.56
					C539.807,658.456,538.581,659.683,537.068,659.683z"/>
			</g>
		</g>
		<g>
			<g>
				<path fill="#676E8A" d="M717.404,659.683c-1.513,0-2.74-1.227-2.74-2.74V485.694c0-8.549-16.824-41.296-44.791-41.296h-89.468
					c-5.052,0-11.432,2.282-17.504,6.26c-1.266,0.833-2.964,0.475-3.794-0.79c-0.829-1.266-0.475-2.964,0.79-3.793
					c6.941-4.549,14.416-7.157,20.508-7.157h89.468c31.889,0,50.271,35.499,50.271,46.776v171.249
					C720.143,658.456,718.917,659.683,717.404,659.683z"/>
			</g>
		</g>
		<g>
			<g>
				<path fill="#676E8A" d="M624.479,408.751c-40.62,0-62.995-23.152-74.613-42.572c-12.478-20.861-15.395-41.411-15.513-42.275
					c-0.017-0.123-0.025-0.247-0.025-0.371v-27.653c-7.409-1.333-18.173-6.338-18.173-18.479c0-12.109,10.834-17.875,18.173-19.709
					v-36.908c0-16.17,14.362-21.612,20.914-21.612H660.39c1.513,0,2.74,1.227,2.74,2.74c0,34.142,28.173,55.275,54.274,55.275
					c8.103,0,19.515,6.271,19.515,20.214c0,12.935-8.348,18.118-16.775,18.771v25.265
					C720.143,335.005,702.502,408.751,624.479,408.751z M539.807,323.332c0.308,2.012,3.482,21.25,14.852,40.184
					c15.841,26.38,39.332,39.755,69.82,39.755c39.011,0,61.106-19.935,72.771-36.659c13.287-19.048,17.414-39.78,17.414-45.176
					v-27.959c0-0.766,0.321-1.497,0.885-2.016c0.564-0.519,1.323-0.777,2.082-0.714c0.035,0.003,0.269,0.017,0.642,0.017
					c3.959,0,13.166-1.302,13.166-13.363c0-12.028-10.394-14.734-14.035-14.734c-28.03,0-58.23-22.102-59.698-58.015H555.241
					c-3.062,0-15.434,2.871-15.434,16.132v39.143c0,1.352-0.987,2.502-2.324,2.708c-0.642,0.102-15.85,2.643-15.85,14.766
					c0,12.003,15.005,13.295,15.644,13.345c1.427,0.11,2.53,1.3,2.53,2.732V323.332z"/>
			</g>
		</g>
		<g>
			<g>
				<path fill="#676E8A" d="M654.495,444.399h-56.311c-1.513,0-2.74-1.227-2.74-2.74v-39.405c0-0.883,0.426-1.712,1.144-2.227
					c0.718-0.514,1.639-0.652,2.477-0.367c0.105,0.035,10.879,3.612,25.414,3.612c14.652,0,29.1-4.193,29.245-4.235
					c0.827-0.245,1.722-0.083,2.414,0.436c0.691,0.517,1.098,1.329,1.098,2.193v39.994
					C657.235,443.172,656.009,444.399,654.495,444.399z M600.924,438.919h50.831v-33.702c-5.369,1.308-16.141,3.534-27.277,3.534
					c-10.472,0-18.989-1.711-23.555-2.868V438.919z"/>
			</g>
		</g>
		<g>
			<g>
				<path fill="#676E8A" d="M644.677,631.026h-38.239c-12.121,0-21.981-9.861-21.981-21.982v-96.812
					c0-12.121,9.861-21.982,21.981-21.982h38.239c12.121,0,21.982,9.861,21.982,21.982v96.812
					C666.659,621.165,656.799,631.026,644.677,631.026z M606.439,495.73c-9.099,0-16.501,7.402-16.501,16.502v96.812
					c0,9.1,7.403,16.502,16.501,16.502h38.239c9.1,0,16.502-7.402,16.502-16.502v-96.812c0-9.1-7.402-16.502-16.502-16.502H606.439z
					"/>
			</g>
		</g>
		<g>
			<g>
				<path fill="#FFFFFF" d="M663.919,529.031c0,0,16.438-1.398,16.438,14.678s0,46.132,0,57.316c0,8.737-4.318,13.281-11.184,13.281
					c-9.087,0-18.173,0-18.173,0s-24.464-2.949-24.464-28.308c0-25.36,31.43-28.308,37.383-28.308V529.031z"/>
			</g>
			<g>
				<path fill="#676E8A" d="M669.173,617.046h-18.173c-0.109,0-0.219-0.006-0.328-0.019c-0.269-0.033-26.876-3.558-26.876-31.029
					c0-23.593,24.849-30.117,37.383-30.952v-26.015c0-1.417,1.096-2.602,2.508-2.73c0,0,0.446-0.041,1.207-0.041
					c8.8,0,18.203,4.584,18.203,17.449v57.316C683.097,611.057,677.892,617.046,669.173,617.046z M651.178,611.566h17.995
					c6.978,0,8.444-5.733,8.444-10.541v-57.316c0-9.207-6.23-11.49-10.958-11.894v25.875c0,1.513-1.227,2.74-2.74,2.74
					c-0.347,0-34.643,0.696-34.643,25.568C629.277,607.932,649.077,611.274,651.178,611.566z"/>
			</g>
		</g>
	</g>
</g>
</svg>
