<?xml version="1.0" encoding="utf-8"?>
<!-- Generator: Adobe Illustrator 17.0.0, SVG Export Plug-In . SVG Version: 6.00 Build 0)  -->
<!DOCTYPE svg PUBLIC "-//W3C//DTD SVG 1.1//EN" "http://www.w3.org/Graphics/SVG/1.1/DTD/svg11.dtd" [
	<!ENTITY ns_extend "http://ns.adobe.com/Extensibility/1.0/">
	<!ENTITY ns_ai "http://ns.adobe.com/AdobeIllustrator/10.0/">
	<!ENTITY ns_graphs "http://ns.adobe.com/Graphs/1.0/">
	<!ENTITY ns_vars "http://ns.adobe.com/Variables/1.0/">
	<!ENTITY ns_imrep "http://ns.adobe.com/ImageReplacement/1.0/">
	<!ENTITY ns_sfw "http://ns.adobe.com/SaveForWeb/1.0/">
	<!ENTITY ns_custom "http://ns.adobe.com/GenericCustomNamespace/1.0/">
	<!ENTITY ns_adobe_xpath "http://ns.adobe.com/XPath/1.0/">
]>
<svg version="1.1" xmlns:x="&ns_extend;" xmlns:i="&ns_ai;" xmlns:graph="&ns_graphs;"
	 xmlns="http://www.w3.org/2000/svg" xmlns:xlink="http://www.w3.org/1999/xlink" x="0px" y="0px" width="793.701px"
	 height="793.701px" viewBox="0 0 793.701 793.701" enable-background="new 0 0 793.701 793.701" xml:space="preserve">
<metadata><?xpacket begin="﻿" id="W5M0MpCehiHzreSzNTczkc9d"?>
<x:xmpmeta xmlns:x="adobe:ns:meta/" x:xmptk="Adobe XMP Core 5.5-c014 79.151739, 2013/04/03-12:12:15        ">
   <rdf:RDF xmlns:rdf="http://www.w3.org/1999/02/22-rdf-syntax-ns#">
      <rdf:Description rdf:about=""
            xmlns:xmp="http://ns.adobe.com/xap/1.0/"
            xmlns:xmpGImg="http://ns.adobe.com/xap/1.0/g/img/"
            xmlns:dc="http://purl.org/dc/elements/1.1/"
            xmlns:xmpTPg="http://ns.adobe.com/xap/1.0/t/pg/"
            xmlns:stDim="http://ns.adobe.com/xap/1.0/sType/Dimensions#"
            xmlns:xmpG="http://ns.adobe.com/xap/1.0/g/"
            xmlns:xmpMM="http://ns.adobe.com/xap/1.0/mm/"
            xmlns:stRef="http://ns.adobe.com/xap/1.0/sType/ResourceRef#"
            xmlns:stEvt="http://ns.adobe.com/xap/1.0/sType/ResourceEvent#"
            xmlns:pdf="http://ns.adobe.com/pdf/1.3/">
         <xmp:CreatorTool>Adobe Illustrator CC (Windows)</xmp:CreatorTool>
         <xmp:CreateDate>2017-08-11T23:18:18-05:00</xmp:CreateDate>
         <xmp:ModifyDate>2017-08-11T23:18:18-05:00</xmp:ModifyDate>
         <xmp:MetadataDate>2017-08-11T23:18:18-05:00</xmp:MetadataDate>
         <xmp:Thumbnails>
            <rdf:Alt>
               <rdf:li rdf:parseType="Resource">
                  <xmpGImg:width>256</xmpGImg:width>
                  <xmpGImg:height>256</xmpGImg:height>
                  <xmpGImg:format>JPEG</xmpGImg:format>
                  <xmpGImg:image>/9j/4AAQSkZJRgABAgEBLAEsAAD/7QAsUGhvdG9zaG9wIDMuMAA4QklNA+0AAAAAABABLAAAAAEA&#xA;AQEsAAAAAQAB/+4ADkFkb2JlAGTAAAAAAf/bAIQABgQEBAUEBgUFBgkGBQYJCwgGBggLDAoKCwoK&#xA;DBAMDAwMDAwQDA4PEA8ODBMTFBQTExwbGxscHx8fHx8fHx8fHwEHBwcNDA0YEBAYGhURFRofHx8f&#xA;Hx8fHx8fHx8fHx8fHx8fHx8fHx8fHx8fHx8fHx8fHx8fHx8fHx8fHx8fHx8f/8AAEQgBAAEAAwER&#xA;AAIRAQMRAf/EAaIAAAAHAQEBAQEAAAAAAAAAAAQFAwIGAQAHCAkKCwEAAgIDAQEBAQEAAAAAAAAA&#xA;AQACAwQFBgcICQoLEAACAQMDAgQCBgcDBAIGAnMBAgMRBAAFIRIxQVEGE2EicYEUMpGhBxWxQiPB&#xA;UtHhMxZi8CRygvElQzRTkqKyY3PCNUQnk6OzNhdUZHTD0uIIJoMJChgZhJRFRqS0VtNVKBry4/PE&#xA;1OT0ZXWFlaW1xdXl9WZ2hpamtsbW5vY3R1dnd4eXp7fH1+f3OEhYaHiImKi4yNjo+Ck5SVlpeYmZ&#xA;qbnJ2en5KjpKWmp6ipqqusra6voRAAICAQIDBQUEBQYECAMDbQEAAhEDBCESMUEFURNhIgZxgZEy&#xA;obHwFMHR4SNCFVJicvEzJDRDghaSUyWiY7LCB3PSNeJEgxdUkwgJChgZJjZFGidkdFU38qOzwygp&#xA;0+PzhJSktMTU5PRldYWVpbXF1eX1RlZmdoaWprbG1ub2R1dnd4eXp7fH1+f3OEhYaHiImKi4yNjo&#xA;+DlJWWl5iZmpucnZ6fkqOkpaanqKmqq6ytrq+v/aAAwDAQACEQMRAD8A9U4q7FXYq7FXYq7FXYq7&#xA;FXYq7FXYq7FXYq7FXYqlHmC2vJlh9BWdATyVfHahpmRp5AXbq+0sWSYHCLCYWEc0dnCkxrKFHKu5&#xA;+X0ZVkIMjTnaaMo4wJc6V8g3OxV2KuJCgkmgHUnFBNNI6OvJGDKehBqMJFLGQIsN4EuxV2KuxV2K&#xA;uxV2KuxV2KuxV2KuxV2KuxV2KuxV2KuxV2KrZAxjYIaOQQp8DTbCGMgSDXNJNEttRivXMyusfEhy&#xA;3QntTxzJzSiY7Oo0GLLHIeK6T3MV3LsVdirsVSjX765t/RSB+HOpZh12pTMjBAG7dX2lqJ46ETVo&#xA;7TZ3uLGKWQ1dgeR6VIJH8MqyRqRDmaXIZ4xI80TkHIdirsVQerWs9zZNFCfjJBIO1QO2WYpCMrLi&#xA;a3FLJj4Y81PRbGe0t3WY0Z2rxBrTamSzTEjsw0GnligRLqUwylznYq7FXYq7FXYq7FXYq7FXYq7F&#xA;XYq7FXYq7FXYq7FXYq7FXYqkXmC7vYbmIRyNHGVqOJpVq71zKwQiRu6btLNkhMUaFJvYztPaRSsK&#xA;M6gt8++Y840SHZ6fIZwEj1CtkW52KuxVL9XfTVSP66pbc+mFrX36EZdhEv4XB1ssIA8QX3Iu0aBr&#xA;aNrf+5p8FPAbZXIG9+bk4TEwHD9KrkW12KuxVjGr3F1JqhjjLAoQsSgkb7b/AE5nYogQt57W5Zyz&#xA;UL25MmUMFAY1am598wS9ALrdvFLsVdirsVdirsVdirsVdirsVdirsVdirsVdiqk91bJKsTyqsjdE&#xA;JFd8kIki2uWaAPCSLVci2OxV2KuxVQvIrZ4Ge4jEiRAvQip2FTTJwJvZpzwgYkzFgboTS9XiupDA&#xA;IvRKisYBqCB26DLMuIx3u3F0etjkPDXD3JllDsHYq7FUg8z/AN5b/Jv1jMvTdXSdrc4/FH6PJHFo&#xA;8ckjBI0Ds7sQFADMSST0ynN9Zc7s/wDuY/H7yxC+82635ou5NJ8mD07RDwvvMEgPpp4rB/M3v+of&#xA;FhEBHeXycq75IK3t7r8uNYhM91Le+V9WYLd3Mxq9veEf3rU/Zfv7f6oqT6x5hH0vRrq6jgtXuNmV&#xA;VqtDsa9N/fKoRs0jPlGOBkeiB0nURfTOZIVWWMVWQDsdqVOW5cfCNi4Wj1XjSNxFjqmmUOydirsV&#xA;diqCv9WtrJ1RwzuwqVWmw+nLceIycPU62GIgHcouKVJYlkQ1RwGU+xysijTlQmJAEciuwMnYq7FX&#xA;Yq7FXYq7FXYq7FXYqkuoaHPcXxnikUI9C1a1WgptTMnHnAjRdTqez5TycQOxTGHUrKWcwJKGlG1N&#xA;96daHocpOOQF050NVjlLhB3ROQch2KuxVplVlKsKqwoR7HFBFiixEc9O1P8A4wv96n+qnNj9cfe8&#xA;xvgzf1T9n9jL1YMoYGoIqD7HNc9ODe7sUuxVi/nzU7DS7KK/vZljiTkoSo5uxoQEXqxzK00uYdX2&#xA;jp5ZOExY3pmg+ZvOMEJ1syaV5YQ84dMQ8Z7kFiwaY9VU1/oP2sGTIAbHNytNhMICJ6PRbGwsrC0j&#xA;tLKFLe2hHGOKMcVAzHJtylmq6XZarp0+n30YltblCkiHwPQg9iDuD44g0bQQ8403U9U0S5PknV3M&#xA;n1c+ppF623r2wB4p80/hTsK5mIAniDq+0uLw66Wzzy7benZmUj4pmqP9Vdh/HKdRK5V3M+zMXDj4&#xA;v5ya5Q7J2KuxVC6jqMVlEHccnbZEGxOWY8ZkXG1OpjijZ5oKOCy1lVuXV43Q8HUEUNN+tPfLDKWP&#xA;ZxI48eqHGbBGyaxxpGixoKIoAUewygm3ZRiIihyC7AydirsVdirsVdirsVdirsVdirsVY++gXUd8&#xA;rW5HohgyuTuorXp7ZljODHfm6OXZ045Lj9Np3Fd2ssjRxyq7r1UGpzGMCNy7eGaEjQIJVci2uxV2&#xA;KpZqeii8nWZJBG1OL1Fagd8vxZuEU67V6DxZCQNJjFGIokjXoihR8gKZSTZtz4R4Ygdy7AyYr5o8&#xA;+W+mXK6RpUB1XzFN8MNhDuEJ/amYfZAG9OtPAb5ZDHe52DEyQ3l/yJcPfrr3mucanrZ3hhO9tajq&#xA;FjToSPHx9/iwyybVHkoj1LM8qZOxVTurmC1tpbm4cRwQI0ksh6KqCrE/IDEBXnWh6Pfed9STzZqs&#xA;jW+mwOy6FYU6IDQzPv1Yr9/sBmTxjHsObjZsRyRq6D0eKNIo1jQURAFUewzHJs23wgIgAcguwMnY&#xA;qpXNzDbQmWU0QfeT4DJRiSaDXlyxxx4pckslhtdaVZIpGjaL4WVlBNDv45eCcWxddOENWLiSOFMr&#xA;O0itYBDENhuSepPiconMyNl2GDDHHHhCtkW12KuxV2KuxV2KuxV2KuxV2KuxV2KuIqCPHFSxG6tr&#xA;nTLwFSRQ8opB3H+fUZsIyE4vMZsU9Pk2+BZHpuoR3sHMbSLtIngf6Zh5MZiXfaXUjLG+vVF5W5Ls&#xA;Vdiq2WWKGJ5ZXWOKMFnkchVVRuSSdgBirAb3zVrvmu6k0rydW3sEPC98wyKQi+K24NOTU79fls2X&#xA;CAjvL5MLvknWieQdH0WGL6iWF6r+pcX8nxzTEmrcz4Hwx8Y72nhZKGUkgEEr9oA9PnlLJvFXYqw3&#xA;82rmZPJ8lrCeMmo3EFoGHYSPyP3haZbhHqYz5MssrOCys4LO3XhBbxrFEo7KgCj8BlZNslbArsVa&#xA;d1RC7niqirE9gMQLRKQAssU1K/l1C5Cxg+mDxij7knv8zmwxwEA81qtRLPOhy6BP9K08WVvQ7yvQ&#xA;yH9Q+jMTLk4i7vR6bwo/0jzRuVOW7FXYq7FXYq7FXYq7FXYq7FXYq7FXYq7FVC9s4ruAxSD3Vu4P&#xA;iMnCZibDTnwRyx4SgdI0ieyneSSRWBXioWu+9amo9sty5RIUHD0WilikSSmuY7snYqlfmHzLo/l+&#xA;wN7qc4jTcRRjeSRv5Y17n/M5KMTI7IJph8WjeZPPMqXWvh9K8tAh7fRkJWacA1DTsKEA+H3U+1lv&#xA;EIctyxonmz6ysrSxtY7SzhSC2hHGOKMBVA+Qykm2atgVLJbG5h1RLu03jmIW6jJoKfzb5aJgxosa&#xA;3TPKmTsVYf8AmvZT3Hk24ntxyn0+SK8Qb/7qb4jt4KSctwn1MZ8mT6XqNtqWnW2oWzcoLqNZYz7M&#xA;K0PuOhysijTIFE4FdiqyeJZoXib7LqVNOu+GJo2wyQEomJ6oLT9Gt7OQy8jJJ0UkAUHt75bkzGQp&#xA;xNNoY4jfMphlLnOxV2KuxVbLLHFG0kh4ogqx9sIFmmM5iIJPIIWx1W1vHZIuQZRWjClR0qKE5OeI&#xA;x5uPp9ZDKSI8wjMrcp2KuxVB6rfPZ2vqooZiwUV6CoJqafLLMUOI04us1BxQ4gLNrdK1E3luzyKE&#xA;aM0Yj7PjXfDlx8J2Y6PVeLEk7EI1XV1DKQynoQajKiHLBBFhvFLsVdirsVdirsVYn5n8+RafdjR9&#xA;Gtzq3mGXaOzj3SL/ACpmH2QOtPvp1yyGO9zsGJko+XvIkv18a95onGqa61DGp3t7YdQsSdNvGn9c&#xA;Msm1Dkoj3syypk7FXYq7FUsjubu21Vra4JkguSWt3p9k9eOXGIMbHMMb3TPKWS2WOOWN4pFDxyAq&#xA;6MKgqRQgjFXnFje3f5d6g+mairy+ULmQtp2oAFzas5qYpQKmlf69yBeRxix9TD6fc9Csr6yvrdbm&#xA;ynjubd/sSxMHU/SMpIpmqySRxo0kjBEUVZ2IAAHck4FSDTvP3lXUtcbRbK9We7CllZR+6cruVR+j&#xA;EDfbJnGQLYiQZDkGTsVdirsVQOrag9lbhkXk7nipPQbVrluLHxFw9bqTijYG5QWlXNzqKTwXf7yE&#xA;r9sALQ16bDLcsRCiObiaPLPOJRnvFHWGk21kzPGWZ2FCzU6daCmVZMpk5mm0cMRsc0blTluxV2Kr&#xA;ZI0kQpIoZD1Uiowg0xlESFHcIO904PYPbWoWKpBAGwND3plkMlSsuLqNLeIwhsl+i2mo212wkUxw&#xA;AH1Kn4Se1MuzTjIbc3B0GHLjnuKj1RcXmCweUoeSDoHYfCfuys6eQDlQ7SxE1uEyVlZQykMp3BG4&#xA;OUEOeCCLDeKXYqsmnhghead1ihjBaSRyFVVHUknpirArvzPr3m+5k0zygTa6WjcL3zBIpA91txsS&#xA;1O//ABHrlwgI7y+TCyeTJvLHlHR/LloYbGMtNJvc3knxTSt4u38BtkJzMubICk6yCXYq7FXYq7FX&#xA;YqgbLUjNdTWs6elcRE8Vrsy+IyyUKAI5IBR2VpWTwQXELwTxrNDIOMkUihlYHsVOxxVh9z+U/lk3&#xA;D3GnS3mjyvu31CcxqT8mD0+QplozHrux4Ap/8qn0adg2ralqerAGpju7kshp/qhW/wCGx8Y9AAjg&#xA;RXmXyBp11okUGiQx6bqOnN9Y0ueEBOMq0NGI3POgqT33wRyG90mKK8kea/0/prrcp9X1ixb0NTtD&#xA;sUlXbkB/K1NvpHbBkhR8libZHkGSFv8AUreyUGQku32Yx1OWQxmXJxtRqoYhvz7mO3ep3t+4jFQh&#xA;NFhSu/z8czIY4w3dFm1eTMa6dwTzTLGRNPEF4oerchG3xBRtQZi5Z+q4u40mnIxcOTfyR0cccahY&#xA;1CKOiqAB+GVE25kYiIoCguwMnYq7FXYq7FXYq7FUjvfLgJL2jUP++m6fQcyoajvdPqOy73gfggLS&#xA;TUrG7SEKwLMAYTuG+X9RlsxGQtwsMs2GYjv7mV5gPSpV5j80aN5dsTeanN6YNRDCvxSyMP2UXv8A&#xA;qHfJRgZckE0xGHQfMXneVL3zKH0zy8rB7XQ0JWWUDcPcNsR8uvhTqbeIQ5c2NE82fWlpa2dtHa2s&#xA;SwW8K8YoowFVQOwAykm2argV2KuxV2KuxV2KuxVSa0t2uUuSn7+MFVf2OS4jVIpbZ3tveRGSBqgG&#xA;jA7EH3GMoGPNQbV8il2KuxV2KvOfzDaHyxrVl5t0+VI7+Rhb3+n1obyA9SFH7S7b/Lw3vx+ocJYS&#xA;23ehwyiWGOUKyCRQ3BxRhUVow7HKGaE1HSYr10dnKMgptvUZbjymLharRRzEEmqVrPT7W0WkS/Ef&#xA;tOd2P05GeQy5t2DTQxD0hEZBvdirsVdirsVdirsVdirsVdirsVYj5m8+LZ3v6E0G3/S3mKTYWsf9&#xA;3D/lTPsBTwr8yMsjjvc7BiZdy3y55EeK+Gu+Zbj9K+YGoVZt4LfuFhQ7beNPkB1Jlk6DYKI97MMq&#xA;ZOxV2KuxV2KuxV2KuxV2KuxVBRaakF/JdxPwSVf3sVNi1a8ssM7jSK3RqsrAFSCD0IytLsVdirD/&#xA;ADJ58aG+/QXly3/SvmF6gxrvDb9i0zig28K/MjvbHH1OwYmXcu8s+QltL39N6/cfpbzFJQm4feKH&#xA;/JgUgUp2NPkBjLJew2CiPey7KmTsVdirsVdirsVdirsVdirsVdirsVU7i5t7aCS4uJFhgiUtJK5C&#xA;qqjqSTsMQFYDdeZPMHnK4k07ymWsdGQlLzzBICC3iluuxr79f9XvcIiO8ufcwsnkyPyd5SsvLdg9&#xA;tAitNI5aW66yyjsXY/Tt0GRyT4imIpP8rZOxV2KuxV2KuxV2KuxV2KuxV2KtMoZSpFQRQj2OKpdp&#xA;dpd2c01ufisvtQOTuKn7OW5JCQvqxApG3V3bWltJc3UqQW8Q5SyyEKqgdyTlYFsmAz6/5j87TPZe&#xA;WS+m+XwSl1rrgrJKBsVt1ND9PXx49DdwiHPmwsnky3y35W0by7Y/VNNh4cqGadvillYftSN3/UO2&#xA;VSmZc2QFJtkUuxV2KuxV2KuxVQuL60tjSaUIaV49TT5DfJxgTyDTl1EMf1GlOfU7aKz+tKfUjOy8&#xA;e58N+mGOMmVMMmrhHHxjcLdM1RL5XohjaOlVJrsem+3hhyYuFjpNWM17UQhrTzAlxdiExFVc0R61&#xA;PtUZOeChduPh7SE58NbFWudcsredoXDsy7MVAIB8NyMjHBIi23L2hjhLhNooXlt9XFx6gEJ3DnYe&#xA;GV8Buurk+PDh479KU695z8vaJYm7u7pWJ2ht4yGmkb+VE6/T0yQxSvksM8JfSbYzb+XvMPnSdL/z&#xA;QH0/QlIe00GNirP4PcMKH6Ov+r3kZCOw5sqJ5s9tbW2tLeO2tokht4gFjijAVVUdgBlJNs1LU7ae&#xA;4tSsEhjmQ84yDSpHY/PJ45AHdBDenXE1xaJJNGY5d1dSKbjatMZxAOygonIJdirsVdirsVdirsVd&#xA;irsVdirsVSPzZ5r0ny/p7yXk5W4mVltLeMcppHIoOCex7nbJ44klEjTFtN8reY/Nrw3/AJxZrfTI&#xA;iHtNCQ8eXg9wRQ19uv8Aq9DZKYj9LEAnm9Cgght4UggjWKGNQscaAKqqNgABsBlDNfirsVdirsVS&#xA;rWfMui6TbyPdX1vDKg+GKSVFYnw4k8j9GThDiLVmmYxJAspHb+abjUoFns7lXgeoVogKEg0O/XMw&#xA;YYh0OXW57omkVYw6xJdRyfvacgS7lgKV369cEzACtk6eGeUwfV8Ux1LQ2u7ozpKF5ABlYE9BTbKc&#xA;efhFU5+q7POSfEDSKttLgisvqkn71GPJydqn2p0yuWUmVhyMWkjHHwHcK1rZW1qpWBOIY1Y1JJ+k&#xA;5GUzLm24cEMYqIWx6fZRz+ukSrL15b9/AdMJySIq0R02OMuIDdDXmhWlzM03Jkdt240oT47jJwzm&#xA;Ipx8/Z0MkuKyCWK+bvMKW7xeVtAt31DXgQ3oj+7hDCvOdtgNnr/TJ45GzIpy6SJgMY5BEeVPy7i0&#xA;+5Gr65MNT15txKwrFB/kwqfD+anypkMmYy9zkYsMYCgzPKW52KuxVB6rc3VrbieBBIqMDMp68O9M&#xA;sxxBNFBKItriK4gSaI1RxUf0yEhRpIKpgV2KuxV2KuxV2KuxV2KuxVh3mLz3Il8dC8sQDVdeaofi&#xA;awW3YtM/So/lr8/A2xx9TsGJl0Cp5Y8hxWN2da1uc6t5ik3e7l3SL/JhU7KB0Bp8qYJZL2GwURZb&#xA;lbJL9Q8w6Dptfr+o21qR+zLKit9Ck1OSESeSCQxu8/N3yXC/pW002ozf76tIXYn5F/TU/QcmMMix&#xA;4wp/4385X1Bo/lG5Ct0mv5FtgB48GAr9DY+HEcyvEe531L83NQr62oado0bfs20bTyAe/qBl+5sb&#xA;gPNfU7/lWc95Q635k1PUP5okk9CE/wDPMc/wOPi1yAXhTDT/AMsfItjT09JilYdWuOU9fokLL+GA&#xA;5ZHqnhCW/lciWZ8w6KFAOm6lL6e2/oy/3f8AxAnJZTdHyYwAss6ylsdirsVdirsVdirBfO+l3+ja&#xA;rH520VDJPbqI9Zsx0uLUUBb/AFkAH3A9t7sZBHCWEhW7L9J1Wx1bTrfUbGQS2tygeNu/gQR2IOxH&#xA;jlRFGmQKLwJdirsVcQCCCKg9RiqDnurPTlhiKGOF2KqVHwqeu/35MRMrRdIzIJdirsVdirsVdirs&#xA;VUby8tLK2kuruZILeIcpJZCFVR7k4QLV5D5m/NSbXL06TojXFtph+G4u7aIyXky9xClV4A+7A/Lp&#xA;mTHFW5ajO038u32u6bYCy8reS54I23ku9RlWCSQ/zSBgrN9DfLISAJ3KR5BNvqH5t6gSZ9S0/R42&#xA;/ZtYjPIP+RoI+5sjcB0tPqd/yrOa8odb8x6nqH80SSCCE/8APMc/wOPi1yAXhR+n/lj5FsaenpMU&#xA;rDq1xynr9EhZfwwHLI9U8ITxtL0tLb0Rbxw26EPwjURqOPf4aZESNppFqysoZSCpFQRuCMilvFXY&#xA;q7FWD6dXT/za1W3J4x6xp8N2o7F4CIvvoGOWneA8mA+pnGVM3Yq7FXYq7FXYq4gEEEVB2IOKvNnm&#xA;/wCVc69IXDHydqzM6BQW+qXNKlQBX4WA2H/NO9/1j+kGH0+5HRecvO+tgS+XPL6w2Lbx32pv6YcH&#xA;oREpVqe4JwcERzK8RPJUbUfzdtv3s2laXfRj7UNrLJFIR7NK3HBUO8rckf5d/MDTNVvTpd5BLpGt&#xA;L9rT7scWb/jGxAD/AIH2wSxkb8wkSZRlbJSu7WG6geCUVRh17g9iMlGRBsIIW26xW0UNq0oLheKc&#xA;iAzcfAe2J33UK+RS7FXYq7FXYqknmjzho/ly1WS9cvcy7WtlF8U0rdAFXwr3O2ThAyQTTGrPytrv&#xA;m25j1TzhW205DzsvLyEhR4NcHYlvbr8umTMxHaPzY1fNndrZ2lpCIbSCO3hXZY4lVFFPAKAMqJtm&#xA;q4FdirsVdiqldQ+tbSxf78Rl+8UwxNG1KH0ZJ002FJlKSICCp60DGn4ZPKRxGkR5I3K0uxVjHmnz&#xA;vDpN3FpWn2r6rr1wKw6fCacQf25W34L3/oN8shjvc7BiZUl+ieV/Nl35mtPM3mS6t4p7WOSOHTrR&#xA;KhVlUji8hO9OVe+/fDKcQKCADdlm+VM3Yq7FXYq7FXYq7FVO4tra5iMVzEk0RIJjkUOtQag0NRsc&#xA;QVXLNEzcFdSw/ZBBP3YaLETiTQO67AySLzb5R0/zHYGKYejfQ/FY36bSQyDdSGFDSvUfxycJmJQR&#xA;aD/L/wAw32p6dcWOqjjrekS/VdQH8xFQkn+zCn6RhyRo2ORREspytkgdW09ruJXiPC6hPKF+m/hl&#xA;mOdHfkgi0XB6phjMwAl4j1AOnKm+QNXslfgV2KuxVhnmHz3Ob9tB8qwDU9cNRLIN7e2HQtK/So8P&#xA;47G2OPazyYmXQIjyv5Eg025bV9XnOreYpt5b6UVWMn9mFT9kDpX9Q2wTyXsNgoiyvK2TsVdirsVd&#xA;irsVdiqEtL8z3d1bsnA27AA16g9/wycoUAe9AKLyCUp82a9HoPl691VgGa3j/dIejSsQsan25EV9&#xA;slCNmkE0Eo8h+WpdK0l9TvR6/mDVF+s307j4+TjksXsF7gd/oyc5Wa6MNxEkc1T9O6ojkM4qDujK&#xA;BT26A5leBB5/+UMwO5+xWj8y3QI9SNGHelQf1nIHTDo3R7Vn1ATW+1e3tBHyVmaQcgopsPeuUQxG&#xA;TstRrY4qu91Sz1O2u4nkQlRH/eB6Cg8cE8ZiaZ4NXDICRtXO19tf2lyxWCUOy7kbg/jglAx5s8Wo&#xA;hkNRNrJNUsY7j6u8oElQCKGgJ7V6YRikRbCWrxxlwk7oXVNa+pyiFI+b0DEk0Ark8WHiFuPq9f4U&#xA;uECy5NSuLrS5p4Iys6HiAPi8KkfQcTjEZgHksdVLJhMoj1BJfT1e6NCJpAf5uXH8dsybhHudTw58&#xA;n84o3TtDvkuoppaRLGwYitSadtsryZ4kUHK0vZ+QTEjtTIcw3euxVg9qv1P8372NNk1PSkuJQO8k&#xA;UoiUn/YoctO8Piw/iZxlTN2Kpbq7Xtu8V5bsXji2mgHQqe9Mtx0dixkmMbh0VwCAwBAPXffKiGSj&#xA;fX1nY2sl3eTJb20I5SSyHioHzOEC1YFLqvmTz3I1tobSaR5YBKz6s4Kz3IGxWBdiFPj9/wDLl1CH&#xA;PcsLJZj5e8t6P5fsFstMgEUexkc7ySN/M7ftH/MZVKRkd2QFJnkUuxV2KuxV2KuxV2KuxVDx2MUd&#xA;7LdqTzmUKy9tu/4ZIzJFIpEZFLCPzZAfRtJhf/eefVrWO48PTIcmv0gZbh5n3MJs3ypmteKJ/tor&#xA;f6wB/XhBIYygDzFqB02wLBvq8dRuKKB+GS8SXe0/lcV3wh17p1teBfWB5L9llNCMYZDHkuo0sMv1&#xA;KcGk2sFtLAnKkwo7kjl0oO1Nq5KWUkg9zDHooQgYi/Uo6boos7gzGXmaFVFKdfHfJZM3EKpp0ug8&#xA;KXFdrbjQIJrtpzIwVzyaOnfvvjHOQKRk7NjOfFex6I24sLO5ZXmiDsuwO42+jK45COTl5dNjyG5C&#xA;1aKKKJAkShEHRQKDIkk822EBEUBQXYGTsVdirsVYJ5TkGteftf8AMEXxWNpGmlWkvZyhDylexHJf&#xA;uIy6e0QGA3Ns7ylm7FXYqxrzZ53s/Lc0SXMZna4Q/VraH4p5JK0AC/y12r/tZbDHxBiZUxx/L2u6&#xA;8Br3nFONlAyvY+XI2IjQEgBrg/tNQ9P1D4csiRfDH5sSDzL0S1EItohAgjh4L6aKAFVabAAbDbMc&#xA;82xUwK7FXYq7FXYq7FXYq7FXYqleq+ql/p8yVKiQxuB4PQf1y7HyIYnmmmUsmOfmFoU2teU721th&#xA;W8jC3FpTr6kJ5AD3YVUfPJ45VJjIWET5P8xweYfL9rqMZHqsvC7jHVJ1FHUj57j2xnHhNJibCdZB&#xA;LsVdirsVdirsVdirsVdirsVdirB/zQ1zVrK20/TLKQWMOrym2udXevGBTQU26MwJ38AfmLcUQd+5&#xA;hIsn8vaFYaFpFvplitIIF+2ftOx3Z2I7schKRJssgKTHIpdirC9f893E1+2geUoV1LWuk8/W2tR0&#xA;LSN0JHh4++2Wxx7XLkxMugRflbyJbaVcNqupTHVPME+8+oS78Sf2YlP2QOn9BtgnkvYclEWS3Vul&#xA;xbyQPssgKkjqMhE0bZEOtoRBbxwglhGoUE9TQUxkbNqFTArsVdirsVdirsVdirsVdiqjeXKWts87&#xA;gssYqQOvWmSjGzSCVSKRZYklT7LqGX5EVGAikrsCsG1jyrrmi6zN5h8ocHe5PLU9FkPGKc93jOwV&#xA;+/8AnQ3RmCKkwIrcL7X82vLqMINbhudEvhtJb3UMhFf8lkU1HuQMBwnpuvGE40bz15U1q/Nhpl+t&#xA;xdhDJ6YSVfhWlSGdVU9elcjLHICyyEgU+yCXYq7FXYq7FXYq7FXYql15rtnbtwX9846heg+nLoYC&#xA;fJwM/aGOBoeoqepadpvmXQpbO7TlbXSkH+ZGB2ZT4qwqMiQYScnDlGWAkOrHfI2t39jey+Tdeeup&#xA;2K10+5PS6tR9kivVlA+75HDkiD6gziejL7/ULLT7SS8vZkt7aIVklc0AH+fbKwLZsDk1HzJ59doN&#xA;KMmkeValZtRYcbi6A2Kwj9lT4/f/AC5dQhz3LCyUP5g8v2HkS70fzDoqGGygdbLV4qlvUglP94xP&#xA;7St+PHwxjIzsFBFbvTMobHYqlmiNKpvIJCzGKZuLNU7N8/vy7LWx8mMUzylk7FXYq7FXYq7FXYq7&#xA;FXYqpXUAuLaWAmgkUrXrSo64YmjaC1ZW7W9pFAzczGoUt0wyNm1AVsil2KrJoIJ04TRrKn8rqGH3&#xA;HFWDeareDSfO/lLUreJIYZpZtPmCKFU+utIxQU/aZjl0DcSGB5hnmUs3Yq7FXYq7FXYqpy3NvEwW&#xA;WVUZugYgE/fkhEnk1zywjsSAknmC6vBOLdCVhZRTj+0T2r/DMnBGNX1dT2lmycXAPpP2rLDy9LJS&#xA;S6JjTtGPtH5+GHJqAOTXpuzJS3nsO7qn8MMcMaxRrxRRRQMxCSTZd5CAiKHIMc88+VZdasorvT3+&#xA;r69pretptyKA8huY2P8AK1O/9cnjnXPkshaTad5N17zFdRan55dfThNbXQoT+4Qj9uWhYMT4VPzp&#xA;8OSMxHaKBEnmz6ONI0WONQiIAqIooABsAAMpZsU/Nb0/8Aat6lKcYqV/m9dOP45Zh+oMZ8mRaVz/&#xA;AEXZ868/Qj5V614CtcgebIIrAqHN7Ct8LMgiVk9QGmxHT+GS4TVovdEZFLsVdirsVdirsVdirsVd&#xA;irsVS3SLid572CZy7QyniT/KxNP1ZbkiKBDGJTLKmTsVdirC/wA3IH/wl9fiFZtKure8j+avw/5m&#xA;Zbh+qu9jPkyuLUrKVIWWZR66LJGpIBKuKr99chwHuYHNAHhJFonItrsVdirsVS9Ncs3uxbqGqW4B&#xA;6DiTWnjXLjglVuDHtDGZ8AvuSyXQ9QmvZC5HBmJ9YkHavh1y4Z4iLr59n5Z5DfK+bIYkEcaRg1CK&#xA;FqfYUzEJsu8hHhAHcuwMnYq7FXYq7FWAed5/8R+YNP8AJln+8iSRbzXJBuscEe6xkju9f+I5dj9I&#xA;4mEtzTP8pZuxVB3Fg0moW14rhfRDK606gg0/XkxOokII3RmQS7FXYq7FXYq7FXYq7FXYq7FUO1zZ&#xA;Q3JiZljmkX1GJFKqNqlslRIvoi0q1Dz15P0+outXtlZftIkglcfNY+TfhhGOR6KZBJm/NjRZyU0f&#xA;T9Q1h+im1tm4E+5ajD/gcl4J67MeNb/iP8zL+n6O8tQ2EZ6S6hOG+kxp6bj7seGA5lbPco3nlD8w&#xA;tctpbXW/MFvbWc44zWllbh1YeHN+D/jhE4jkFolPF8qNBDa29vPyht4YoOcu7kRIEB2FCSFyyGoA&#xA;G4dZqezpTnxA7FkSiigVrQUqcxXagU7FLsVdiqBi0WxjuvrChi1eSqT8IPiBTLTmkRThw0GOM+Pq&#xA;jsqcx2KuxV2KuJABJNANyTigmkp/xHaesyhHMagkONyaAnZfftl5wEC3Ah2jCU+ED4sSj82+dPNt&#xA;sB5Y04aZp01VOs3jqWAB4t6ca1+IUIrv9HXHgjHm5tk8mT+VPKWn+XbN44Wa4vLhvUvr+XeWaQ71&#xA;Y77bmg/jU5XOZkyApPMgl2KoDXJbiHT2mgco6MpJHhWmWYgDKixlyRsUgkiSQdHUMPkRXIEUyXYF&#xA;dirsVdirTuiKWdgqjcsTQDFUj1Dz35O0+v1rV7ZWX7SRuJXH+wj5t+GTGOR6IMgkp/NjR7huGjad&#xA;qOsP+y1tbtw+ktRh/wADkvBPXZjxtf4h/M7UB/uP8twach6S6hccz/wCcHH3Y8MBzK2Up4fmDf3H&#xA;p6n5iXT4SeMiWEC/D22duD/jmR4IAsC3WfykOKiCAm0f5SeX7h0n1a+v9Zk6lrq4Yqflw4sB/sso&#xA;8Yjls7MRB3T3T/JPlHT6G00m2Rh0kaMSOP8AZvyb8cgZyPVkIhO1UKAqgBQKADoBkEuxV2KuxV2K&#xA;uxV2KuxV2KuxV2KuxV2KpBr+pksbOI0A/vW8T/LmXgx/xF0naWr38OPxVNB0vgBdzD4j/dKewP7W&#xA;DPl6Bs7O0leuXwSL8q62lprWiMd9K1KeKNfCJzVD9JDHKsvQ94dpBnGVM3Yq7FVsiRujLIAyEfED&#xA;uKYQVUoLy0ktvXjkUQDbkfhApt3pTDKJBooBSjUfPvk3T+QutXtgy/aSN/WcfNYubfhhGOR6KZBJ&#xA;z+a2kXJ46Npuo6wx2Vra3b0/pZqEf8DkvBPUgMeNb/iH8ztQH+4/y3BpyHpLqFxzP/AJwcfdjwwH&#xA;MrZd/hr8yr8n9I+Z4rGM9YdPgB+6R/TcY8UByC0e9tPyl0GdlfWL3UNYkG5+t3DFa+wXiw/4LHxj&#xA;02XgTzT/ACT5R0+htNJtkYdJGjEjj/Zvyb8ciZyPVkIhO1UKAqgBQKADoBkEuxVJNc0nlyu4F+Ib&#xA;yoO/+UP45lYMvQun7Q0V+uPxWeXtQlL/AFN6stCY28Kdvlh1GMc2PZmpN+GeXRPsxHdOxV2KuxV2&#xA;KuxV2KuxV2KuxV2KuxV2KpfqWsQ2TCML6kp3Kg0AHud8ux4TJwdVro4jVWVkWn2F8yX5VgZPiMZI&#xA;4kjbcU9sJySj6WENNizEZaO/RM8odiwbSWTTPzS163ciKHU7KC/UsaLWI+kxqfFixy47wDAc071H&#xA;z75N0/kLrV7YMv2kjf1nHzWLm34ZAY5HoyMgkU35vaI+2laff6oTUK8MBWM0/wApiD/wuWDBItc8&#xA;8Y8y1D5m/MvVkL6XoFtYQk0Wa+n9T/hI+DD7sTjjHmUY8vGLjyVP8MfmRfn/AHJeaEsoz9qHT4B+&#xA;ErcHyPHEcgzo97Vv+T/lohTqVxe6qwNSLm4bjX2CcCPvwnPJeAMg0/yX5T06htNJtY3HSQxq7/8A&#xA;Bvyb8crM5HqyEQnIAAAAoBsAMil2KuxVBarqJsYVcJzZzQAmgy3Fj4i4ms1XgxBq7VNPvVvLZZgO&#xA;JqQy9aEZHJDhNM9NnGWHEicg5DsVdiqX3yR2NrNcWkKrLtVgOgJy6B4iAS4OoiMMDOAAko6Lq0l0&#xA;zQz7ygclcClR4HJZsQjuGrQa05Dwy5ptmO7N2KuxV2KuxV2KuxV2KuxV2KuxVDX1/BZxh5aktsqr&#xA;1NMnDGZHZx9RqY4hckA+nWmqSLexyMivtIhG9V28dsuGQw9LhHSw1B8QEgHmm0caRxrGg4ooooHh&#xA;mOTbs4xERQ5LsDJIPMXkXy15hu4LvVbZppbdDGvGR0BSvKjcCvQk5OOQx5IMQVbT/JflPTqG00m1&#xA;jcdJDGrv/wAG/JvxwGcj1URCX67OJb70k+xCAigdK9/6ZmYI1H3vO9o5eLLX83ZkVhb/AFezih7q&#xA;vxf6x3P45iZJWSXeabF4eMRV8g3uxVJNe1G6t7iOKF+A4cyRTckkd/lmVgxgiy6ftHUzhMRia2tN&#xA;rWRpbWGRvtOis1PEgHMeQokO0wyMoAnqAq5FsdiqB1q19ewegq8fxr9HX8MtwyqTh6/Fx4j3jdK/&#xA;Ld1wuHt2O0oqv+sv9mX6iO1ut7Ly1Ix72RZhu+dirsVcyhgVYVB2IPcYoIvZK7uK30q3e4tYR6rE&#xA;LUkkAH6cvgTkNEuvzQjpomcBuraRqD3sDNIoV0NCR0ORy4+Etui1Jyxs8wjsqcx2KuxV2KuxV2Ku&#xA;xV2KuxV2KoXUNOhvUVZCVKElWX369csx5DHk42p0scwAPRVtbWK1gWGP7K9z1JPc5GUjI2WzDhGO&#xA;PCFXItrsVdiriQASTQDck4qSksWiK9/9aEyyQcy9BuSa1pttmSc1Rqt3Uw0AOTj4gY3adZjO2dir&#xA;sVY15l/3uj/4xD/iTZm6b6fi6DtX+8H9X9JT3TSTp9vX/fa/gMxcn1F3GlP7qPuCIyDe7FXYqkya&#xA;VZ2F2tzLcBYwT6aMKb/Ou9MyTllMUA6oaPHhnxmW3QJwrKyhlIKkVBG4IOYztAQRYbxS7FXYq08a&#xA;SIUdQyNsVO4OEGkSiJCjyWwwQwpwiQInWgFMTInmxhjjAVEUF+Bm7FXYq7FXYq7FXYq7FXYq7FXY&#xA;q7FXYq7FXYql2v8Ar/o8iIEgsPUp/Luf15dgri3cDtLi8L09+6l5ct5Y7WR3BUSN8KnwA6/TktRI&#xA;EtfZeOUYEnqm2Y7s3Yq7FUs1ePSi8bXjFXpReNakV70B2y/EZ/wuv1scJIOQ0UxiEYiQRU9MKOFO&#xA;nGm1MpN3u50KoVyXYGTsVdiqUeYbKedIpIVLmOoZV3NDTen0ZkaeYFgur7TwSmAYi6RWjxzxafGk&#xA;4KsK0U9QK7VyGYgy2cnQwlHEBLmjcqct2KuxV2KuxV2KuxV2KuxV2KuxV2KuxV2KuxV2KuxV2Kux&#xA;V2KpHqWsXsOoGCEAKhUBSKlq0OZWPDExsum1WuyRy8Men2p5mK7l2KuxV2KpJr2nXdxcxywpzXgE&#xA;IBGxBJ7/ADzKwZABRdR2jpZzmDEXtSbWcTQ2sMTfaRArfMDMeZskuywQMYCJ6BVyLa7FXYq7FUg0&#xA;m61N9RKTF2Q8vVVui0G1PDfMvLGPDs6XRZsxy1K66+Sf5iO6dirsVdirsVdirsVdirsVdirsVdir&#xA;sVdirsVdirsVdirsVdiq0xxlw5UFx0YgVH04bLExBN1uuwMnYq7FXYqkuv3d7DLEsLMkZFeS92r0&#xA;zJwQiQbdR2lmyQkBGwP0ptatK1tE0opKVBce9N8olV7OzxGRgDLnSpkWx2KuxV2KuxV2KuxV2Kux&#xA;V2KuxV2KuxV2KuxV/9k=</xmpGImg:image>
               </rdf:li>
            </rdf:Alt>
         </xmp:Thumbnails>
         <dc:format>image/svg+xml</dc:format>
         <dc:title>
            <rdf:Alt>
               <rdf:li xml:lang="x-default">boletos_01</rdf:li>
            </rdf:Alt>
         </dc:title>
         <xmpTPg:NPages>1</xmpTPg:NPages>
         <xmpTPg:HasVisibleTransparency>False</xmpTPg:HasVisibleTransparency>
         <xmpTPg:HasVisibleOverprint>False</xmpTPg:HasVisibleOverprint>
         <xmpTPg:MaxPageSize rdf:parseType="Resource">
            <stDim:w>28.000000</stDim:w>
            <stDim:h>28.000000</stDim:h>
            <stDim:unit>Centimeters</stDim:unit>
         </xmpTPg:MaxPageSize>
         <xmpTPg:PlateNames>
            <rdf:Seq>
               <rdf:li>Cyan</rdf:li>
               <rdf:li>Magenta</rdf:li>
               <rdf:li>Yellow</rdf:li>
               <rdf:li>Black</rdf:li>
            </rdf:Seq>
         </xmpTPg:PlateNames>
         <xmpTPg:SwatchGroups>
            <rdf:Seq>
               <rdf:li rdf:parseType="Resource">
                  <xmpG:groupName>Grupo de muestras por defecto</xmpG:groupName>
                  <xmpG:groupType>0</xmpG:groupType>
                  <xmpG:Colorants>
                     <rdf:Seq>
                        <rdf:li rdf:parseType="Resource">
                           <xmpG:swatchName>R=103 G=110 B=138 1</xmpG:swatchName>
                           <xmpG:mode>RGB</xmpG:mode>
                           <xmpG:type>PROCESS</xmpG:type>
                           <xmpG:red>103</xmpG:red>
                           <xmpG:green>110</xmpG:green>
                           <xmpG:blue>138</xmpG:blue>
                        </rdf:li>
                        <rdf:li rdf:parseType="Resource">
                           <xmpG:swatchName>R=197 G=202 B=232 1</xmpG:swatchName>
                           <xmpG:mode>RGB</xmpG:mode>
                           <xmpG:type>PROCESS</xmpG:type>
                           <xmpG:red>197</xmpG:red>
                           <xmpG:green>202</xmpG:green>
                           <xmpG:blue>232</xmpG:blue>
                        </rdf:li>
                        <rdf:li rdf:parseType="Resource">
                           <xmpG:swatchName>R=178 G=235 B=242 1</xmpG:swatchName>
                           <xmpG:mode>RGB</xmpG:mode>
                           <xmpG:type>PROCESS</xmpG:type>
                           <xmpG:red>178</xmpG:red>
                           <xmpG:green>235</xmpG:green>
                           <xmpG:blue>242</xmpG:blue>
                        </rdf:li>
                     </rdf:Seq>
                  </xmpG:Colorants>
               </rdf:li>
            </rdf:Seq>
         </xmpTPg:SwatchGroups>
         <xmpMM:DocumentID>xmp.did:83a48a69-4e63-7046-8f5a-f57875130335</xmpMM:DocumentID>
         <xmpMM:InstanceID>xmp.iid:83a48a69-4e63-7046-8f5a-f57875130335</xmpMM:InstanceID>
         <xmpMM:OriginalDocumentID>xmp.did:2743e603-6e76-8f48-9182-3df093e9950b</xmpMM:OriginalDocumentID>
         <xmpMM:RenditionClass>proof:pdf</xmpMM:RenditionClass>
         <xmpMM:DerivedFrom rdf:parseType="Resource">
            <stRef:instanceID>xmp.iid:a84c81ad-f209-3540-ae9e-54d62724faaf</stRef:instanceID>
            <stRef:documentID>xmp.did:a84c81ad-f209-3540-ae9e-54d62724faaf</stRef:documentID>
            <stRef:originalDocumentID>xmp.did:2743e603-6e76-8f48-9182-3df093e9950b</stRef:originalDocumentID>
            <stRef:renditionClass>proof:pdf</stRef:renditionClass>
         </xmpMM:DerivedFrom>
         <xmpMM:History>
            <rdf:Seq>
               <rdf:li rdf:parseType="Resource">
                  <stEvt:action>saved</stEvt:action>
                  <stEvt:instanceID>xmp.iid:2743e603-6e76-8f48-9182-3df093e9950b</stEvt:instanceID>
                  <stEvt:when>2017-08-11T22:42:27-05:00</stEvt:when>
                  <stEvt:softwareAgent>Adobe Illustrator CC (Windows)</stEvt:softwareAgent>
                  <stEvt:changed>/</stEvt:changed>
               </rdf:li>
               <rdf:li rdf:parseType="Resource">
                  <stEvt:action>saved</stEvt:action>
                  <stEvt:instanceID>xmp.iid:83a48a69-4e63-7046-8f5a-f57875130335</stEvt:instanceID>
                  <stEvt:when>2017-08-11T23:18:18-05:00</stEvt:when>
                  <stEvt:softwareAgent>Adobe Illustrator CC (Windows)</stEvt:softwareAgent>
                  <stEvt:changed>/</stEvt:changed>
               </rdf:li>
            </rdf:Seq>
         </xmpMM:History>
         <pdf:Producer>Adobe PDF library 10.01</pdf:Producer>
      </rdf:Description>
   </rdf:RDF>
</x:xmpmeta>
                                                                                                    
                                                                                                    
                                                                                                    
                                                                                                    
                                                                                                    
                                                                                                    
                                                                                                    
                                                                                                    
                                                                                                    
                                                                                                    
                                                                                                    
                                                                                                    
                                                                                                    
                                                                                                    
                                                                                                    
                                                                                                    
                                                                                                    
                                                                                                    
                                                                                                    
                                                                                                    
                           
<?xpacket end="w"?>
	</metadata>
<g id="Capa_1" display="none">
	<g display="inline">
		<g>
			<g>
				<g>
					<path fill="#B2EBF2" d="M880.035,370.381h-1032.37l0,0h0c-18.227,0-33.004,14.776-33.004,33.004
						c0,18.228,14.776,33.004,33.004,33.004h0l0,0h1032.37c18.228,0,33.004-14.776,33.004-33.004
						C913.039,385.157,898.263,370.381,880.035,370.381z"/>
				</g>
				<g>
					
						<path fill="none" stroke="#B2EBF2" stroke-width="3" stroke-linecap="round" stroke-linejoin="round" stroke-miterlimit="10" d="
						M880.035,370.381h-1032.37l0,0h0c-18.227,0-33.004,14.776-33.004,33.004c0,18.228,14.776,33.004,33.004,33.004h0l0,0h1032.37
						c18.228,0,33.004-14.776,33.004-33.004C913.039,385.157,898.263,370.381,880.035,370.381z"/>
				</g>
			</g>
			<g>
				<g>
					<path fill="#B2EBF2" d="M866.574,629.594H-62.849c-17.357,0-31.427,14.07-31.427,31.427c0,17.357,14.07,31.427,31.427,31.427
						h929.423c17.357,0,31.427-14.07,31.427-31.427C898.001,643.664,883.931,629.594,866.574,629.594z"/>
				</g>
				<g>
					
						<path fill="none" stroke="#B2EBF2" stroke-width="3" stroke-linecap="round" stroke-linejoin="round" stroke-miterlimit="10" d="
						M866.574,629.594H-62.849c-17.357,0-31.427,14.07-31.427,31.427c0,17.357,14.07,31.427,31.427,31.427h929.423
						c17.357,0,31.427-14.07,31.427-31.427C898.001,643.664,883.931,629.594,866.574,629.594z"/>
				</g>
			</g>
			<g>
				<g>
					<path fill="#B2EBF2" d="M760.814,597.507c0-17.721,14.366-32.087,32.087-32.087H-5.802c-17.721,0-32.087,14.366-32.087,32.087
						c0,17.721,14.366,32.087,32.087,32.087H792.9C775.179,629.594,760.814,615.228,760.814,597.507z"/>
				</g>
				<g>
					
						<path fill="none" stroke="#B2EBF2" stroke-width="3" stroke-linecap="round" stroke-linejoin="round" stroke-miterlimit="10" d="
						M760.814,597.507c0-17.721,14.366-32.087,32.087-32.087H-5.802c-17.721,0-32.087,14.366-32.087,32.087
						c0,17.721,14.366,32.087,32.087,32.087H792.9C775.179,629.594,760.814,615.228,760.814,597.507z"/>
				</g>
			</g>
			<g>
				<g>
					<path fill="#B2EBF2" d="M767.01,243.92h-870.365c-17.627,0-31.917,14.29-31.917,31.917s14.29,31.917,31.917,31.917H767.01
						c17.627,0,31.917-14.29,31.917-31.917S784.637,243.92,767.01,243.92z"/>
				</g>
				<g>
					
						<path fill="none" stroke="#B2EBF2" stroke-width="3" stroke-linecap="round" stroke-linejoin="round" stroke-miterlimit="10" d="
						M767.01,243.92h-870.365c-17.627,0-31.917,14.29-31.917,31.917s14.29,31.917,31.917,31.917H767.01
						c17.627,0,31.917-14.29,31.917-31.917S784.637,243.92,767.01,243.92z"/>
				</g>
			</g>
			<g>
				<g>
					<path fill="#B2EBF2" d="M866.327,502.691H-152.334c-17.322,0-31.364,14.042-31.364,31.364
						c0,17.322,14.042,31.364,31.364,31.364H866.327c17.322,0,31.364-14.042,31.364-31.364
						C897.691,516.734,883.649,502.691,866.327,502.691z"/>
				</g>
				<g>
					
						<path fill="none" stroke="#B2EBF2" stroke-width="3" stroke-linecap="round" stroke-linejoin="round" stroke-miterlimit="10" d="
						M866.327,502.691H-152.334c-17.322,0-31.364,14.042-31.364,31.364c0,17.322,14.042,31.364,31.364,31.364H866.327
						c17.322,0,31.364-14.042,31.364-31.364C897.691,516.734,883.649,502.691,866.327,502.691z"/>
				</g>
			</g>
			<g>
				<g>
					<path fill="#B2EBF2" d="M687.893,339.067c0-17.294,14.02-31.314,31.314-31.314H14.332c17.294,0,31.314,14.02,31.314,31.314
						s-14.02,31.314-31.314,31.314h704.874C701.912,370.381,687.893,356.361,687.893,339.067z"/>
				</g>
				<g>
					
						<path fill="none" stroke="#B2EBF2" stroke-width="3" stroke-linecap="round" stroke-linejoin="round" stroke-miterlimit="10" d="
						M687.893,339.067c0-17.294,14.02-31.314,31.314-31.314H14.332c17.294,0,31.314,14.02,31.314,31.314
						s-14.02,31.314-31.314,31.314h704.874C701.912,370.381,687.893,356.361,687.893,339.067z"/>
				</g>
			</g>
			<g>
				<g>
					<path fill="#B2EBF2" d="M742.99,502.691v-0.022c-0.291,0.009-0.581,0.021-0.874,0.022H742.99z M741.997,436.389
						c0.333,0,0.662,0.015,0.992,0.025v-0.025H741.997z M-41.152,469.54c0,18.309-14.842,33.151-33.151,33.151v0h816.182
						c-18.255-0.064-33.035-14.88-33.035-33.15c0-18.31,14.843-33.153,33.153-33.153h-816.3
						C-55.994,436.389-41.152,451.231-41.152,469.54z"/>
				</g>
				<g>
					
						<path fill="none" stroke="#B2EBF2" stroke-width="3" stroke-linecap="round" stroke-linejoin="round" stroke-miterlimit="10" d="
						M742.99,502.691v-0.022c-0.291,0.009-0.581,0.021-0.874,0.022H742.99z M741.997,436.389c0.333,0,0.662,0.015,0.992,0.025
						v-0.025H741.997z M-41.152,469.54c0,18.309-14.842,33.151-33.151,33.151v0h816.182c-18.255-0.064-33.035-14.88-33.035-33.15
						c0-18.31,14.843-33.153,33.153-33.153h-816.3C-55.994,436.389-41.152,451.231-41.152,469.54z"/>
				</g>
			</g>
		</g>
		<g>
			
				<circle fill="none" stroke="#676E8A" stroke-width="5" stroke-linecap="round" stroke-linejoin="round" stroke-miterlimit="10" cx="70.363" cy="109.253" r="13"/>
			
				<circle fill="none" stroke="#676E8A" stroke-width="5" stroke-linecap="round" stroke-linejoin="round" stroke-miterlimit="10" cx="61.903" cy="481.773" r="13"/>
			<circle fill="#676E8A" cx="-84.211" cy="375.188" r="10.065"/>
			<circle fill="#676E8A" cx="-113.393" cy="470.465" r="5.938"/>
			
				<circle fill="none" stroke="#676E8A" stroke-width="5" stroke-linecap="round" stroke-linejoin="round" stroke-miterlimit="10" cx="-101.758" cy="651.718" r="13.303"/>
			
				<circle fill="none" stroke="#676E8A" stroke-width="5" stroke-linecap="round" stroke-linejoin="round" stroke-miterlimit="10" cx="748.093" cy="152.835" r="13"/>
			
				<circle fill="none" stroke="#676E8A" stroke-width="5" stroke-linecap="round" stroke-linejoin="round" stroke-miterlimit="10" cx="789.044" cy="507.359" r="11.339"/>
			
				<circle fill="none" stroke="#676E8A" stroke-width="5" stroke-linecap="round" stroke-linejoin="round" stroke-miterlimit="10" cx="849.845" cy="598.048" r="10.528"/>
			<circle fill="#676E8A" cx="679.698" cy="657.972" r="8.194"/>
			<g>
				<g>
					<polyline fill="none" stroke="#676E8A" stroke-width="7" stroke-linecap="round" stroke-linejoin="round" points="
						-45.995,605.477 -45.995,613.477 -37.995,613.477 					"/>
					
						<line fill="none" stroke="#676E8A" stroke-width="7" stroke-linecap="round" stroke-linejoin="round" stroke-dasharray="15.3405,19.1757" x1="-18.819" y1="613.477" x2="316.755" y2="613.477"/>
					<polyline fill="none" stroke="#676E8A" stroke-width="7" stroke-linecap="round" stroke-linejoin="round" points="
						326.343,613.477 334.343,613.477 334.343,605.477 					"/>
					
						<line fill="none" stroke="#676E8A" stroke-width="7" stroke-linecap="round" stroke-linejoin="round" stroke-dasharray="15.3754,19.2193" x1="334.343" y1="586.258" x2="334.343" y2="249.92"/>
					<polyline fill="none" stroke="#676E8A" stroke-width="7" stroke-linecap="round" stroke-linejoin="round" points="
						334.343,240.31 334.343,232.31 326.343,232.31 					"/>
					
						<line fill="none" stroke="#676E8A" stroke-width="7" stroke-linecap="round" stroke-linejoin="round" stroke-dasharray="15.3405,19.1757" x1="307.167" y1="232.31" x2="-28.407" y2="232.31"/>
					<polyline fill="none" stroke="#676E8A" stroke-width="7" stroke-linecap="round" stroke-linejoin="round" points="
						-37.995,232.31 -45.995,232.31 -45.995,240.31 					"/>
					
						<line fill="none" stroke="#676E8A" stroke-width="7" stroke-linecap="round" stroke-linejoin="round" stroke-dasharray="15.3754,19.2193" x1="-45.995" y1="259.53" x2="-45.995" y2="595.867"/>
				</g>
			</g>
			<g>
				<g>
					<polyline fill="none" stroke="#676E8A" stroke-width="7" stroke-linecap="round" stroke-linejoin="round" points="
						477.281,584.42 477.281,592.42 485.281,592.42 					"/>
					
						<line fill="none" stroke="#676E8A" stroke-width="7" stroke-linecap="round" stroke-linejoin="round" stroke-dasharray="15.2941,19.1176" x1="504.398" y1="592.42" x2="735.722" y2="592.42"/>
					<polyline fill="none" stroke="#676E8A" stroke-width="7" stroke-linecap="round" stroke-linejoin="round" points="
						745.281,592.42 753.281,592.42 753.281,584.42 					"/>
					
						<line fill="none" stroke="#676E8A" stroke-width="7" stroke-linecap="round" stroke-linejoin="round" stroke-dasharray="15.3754,19.2193" x1="753.281" y1="565.201" x2="753.281" y2="228.863"/>
					<polyline fill="none" stroke="#676E8A" stroke-width="7" stroke-linecap="round" stroke-linejoin="round" points="
						753.281,219.253 753.281,211.253 745.281,211.253 					"/>
					
						<line fill="none" stroke="#676E8A" stroke-width="7" stroke-linecap="round" stroke-linejoin="round" stroke-dasharray="15.2941,19.1176" x1="726.163" y1="211.253" x2="494.84" y2="211.253"/>
					<polyline fill="none" stroke="#676E8A" stroke-width="7" stroke-linecap="round" stroke-linejoin="round" points="
						485.281,211.253 477.281,211.253 477.281,219.253 					"/>
					
						<line fill="none" stroke="#676E8A" stroke-width="7" stroke-linecap="round" stroke-linejoin="round" stroke-dasharray="15.3754,19.2193" x1="477.281" y1="238.473" x2="477.281" y2="574.81"/>
				</g>
			</g>
		</g>
		<g>
			
				<path fill="#FFFFFF" stroke="#676E8A" stroke-width="5" stroke-linecap="round" stroke-linejoin="round" stroke-miterlimit="10" d="
				M633.161,426.643c0,22.819,18.498,41.317,41.317,41.317h60.273c0,0-2.076,19.15,3.107,19.15c8.666,0,24.017-19.15,24.017-19.15
				h55.668c22.819,0,41.317-18.498,41.317-41.317v-57.667c0-22.819-18.498-41.317-41.317-41.317H674.478
				c-22.819,0-41.317,18.498-41.317,41.317V426.643z"/>
			<g>
				
					<circle fill="none" stroke="#676E8A" stroke-width="5" stroke-linecap="round" stroke-linejoin="round" stroke-miterlimit="10" cx="746.057" cy="399.385" r="12.756"/>
				
					<circle fill="none" stroke="#676E8A" stroke-width="5" stroke-linecap="round" stroke-linejoin="round" stroke-miterlimit="10" cx="789.581" cy="399.385" r="12.756"/>
				
					<circle fill="none" stroke="#676E8A" stroke-width="5" stroke-linecap="round" stroke-linejoin="round" stroke-miterlimit="10" cx="702.971" cy="399.385" r="12.756"/>
			</g>
		</g>
		<g>
			
				<path fill="#FFFFFF" stroke="#676E8A" stroke-width="5" stroke-linecap="round" stroke-linejoin="round" stroke-miterlimit="10" d="
				M-72.995,620.913c0,21.932,17.779,39.711,39.711,39.711h57.93c0,0-1.995,18.406,2.986,18.406c8.33,0,23.083-18.406,23.083-18.406
				h53.504c21.932,0,39.711-17.779,39.711-39.711v-55.426c0-21.932-17.779-39.711-39.711-39.711H-33.284
				c-21.932,0-39.711,17.779-39.711,39.711V620.913z"/>
			
				<text transform="matrix(-1.0084 0 0 -1 73.9158 509.3071)" fill="none" stroke="#676E8A" stroke-width="5" stroke-linecap="round" stroke-linejoin="round" stroke-miterlimit="10" font-family="'CopperplateGothic-Bold'" font-size="164.7288">“</text>
		</g>
		<g>
			
				<path fill="#FFFFFF" stroke="#676E8A" stroke-width="5" stroke-linecap="round" stroke-linejoin="round" stroke-miterlimit="10" d="
				M128.167,274.769c0,23.018-18.66,41.678-41.678,41.678H25.69c0,0,2.094,19.317-3.134,19.317
				c-8.742,0-24.226-19.317-24.226-19.317h-56.154c-23.018,0-41.678-18.66-41.678-41.678v-58.171
				c0-23.018,18.66-41.678,41.678-41.678H86.489c23.018,0,41.678,18.66,41.678,41.678V274.769z"/>
			<path fill="none" stroke="#676E8A" stroke-width="5" stroke-linecap="round" stroke-linejoin="round" stroke-miterlimit="10" d="
				M85.708,245.469c0,5.313-4.307,9.621-9.621,9.621h-123.51c-5.313,0-9.621-4.307-9.621-9.621l0,0c0-5.313,4.307-9.621,9.621-9.621
				h123.51C81.401,235.849,85.708,240.156,85.708,245.469L85.708,245.469z"/>
		</g>
		<g>
			<path fill="#C5CAE8" d="M82.986,364.003c0,0-21.083-3-21.083-18.75c0-20.667,0-108,0-108s0.667-10,7.333-16.667
				c6.667-6.667,15.25-8.583,23.333-6.667c0-11.333,10.333-28.333,27.667-28.333s24.079,9.344,28.333,21.667
				c3-18.923,18-20.667,22.667-20.667c4.667,0,18,1.743,22.667,17.333c4.667-22,19.667-26,32.667-26s34,10.41,34,34.667
				c12.667,0,23.333,12,23.333,25.333s0,75.333,0,75.333l-32.667-0.667c0,0,0.757-43.623,0.757-36.123s-0.757-24.544-18.757-24.544
				s-97.828,0-116.495,0c-18.057,0-20.838,21.333-20.838,21.333l-3.667,29.333c0,0-19.333,0.333-21.667,17
				C68.236,336.253,86.43,340.88,86.43,340.88L82.986,364.003z"/>
			<path fill="#FFFFFF" d="M82.986,364.003l3.444-23.124c0,0-18.194-4.626-15.861-21.293c2.333-16.667,21.667-17,21.667-17
				l3.667-29.333c0,0,2.781-21.333,20.838-21.333c18.667,0,98.495,0,116.495,0s18.757,32.043,18.757,24.544s0,36.123,0,36.123v76
				c0,0-15.757,51.667-76.757,51.667C94.903,440.253,82.986,364.003,82.986,364.003z"/>
			<path fill="#FFFFFF" d="M150.569,472.39h45v-34.256c0,0-8.667,2.119-20.333,2.119c-11.667,0-24.667-2.698-24.667-2.698V472.39z"
				/>
			<path fill="#FFFFFF" d="M253.8,697.447c0,0,0-182.992,0-191.368c0-12.667-1.808-36.689-42.644-36.689
				c-26.966,0-66.474,0-80.271,0c-18.052,0-38.881,8.816-38.881,43.27c0,28.117,0,184.787,0,184.787H253.8z"/>
			<circle fill="#676E8A" cx="132.403" cy="315.753" r="7.833"/>
			<circle fill="#676E8A" cx="213.547" cy="315.753" r="7.833"/>
			<g>
				
					<path fill="none" stroke="#676E8A" stroke-width="5" stroke-linecap="round" stroke-linejoin="round" stroke-miterlimit="10" d="
					M240.083,180.024c-4.698-2.1-9.489-3.104-13.514-3.104c-13,0-28,4-32.667,26c-4.667-15.59-18-17.333-22.667-17.333
					s-19.667,1.743-22.667,20.667c-4.255-12.323-11-21.667-28.333-21.667s-27.667,17-27.667,28.333
					c-8.083-1.917-16.667,0-23.333,6.667c-6.667,6.667-7.333,16.667-7.333,16.667s0,7.482,0,25.375"/>
				
					<path fill="none" stroke="#676E8A" stroke-width="5" stroke-linecap="round" stroke-linejoin="round" stroke-miterlimit="10" d="
					M61.903,279.128c0,27.178,0,52.663,0,65.125c0,15.75,21.083,18.75,21.083,18.75l3.444-23.124c0,0-18.194-4.626-15.861-21.293
					c2.333-16.667,21.667-17,21.667-17l3.667-29.333c0,0,2.781-21.333,20.838-21.333c18.667,0,98.495,0,116.495,0
					c15.563,0,18.235,23.948,18.674,25.588c0.051-1.962,0.083-2.588,0.083-1.044c0,1.016-0.014,1.301-0.083,1.044
					c-0.196,7.571-0.674,35.079-0.674,35.079l32.667,0.667c0,0,0-62,0-75.333c0-13.333-10.667-25.333-23.333-25.333
					c0-12.452-5.535-21.249-12.68-26.866"/>
				
					<path fill="none" stroke="#676E8A" stroke-width="5" stroke-linecap="round" stroke-linejoin="round" stroke-miterlimit="10" d="
					M251.993,275.464c0-1.544-0.032-0.918-0.083,1.044C251.978,276.765,251.993,276.479,251.993,275.464z"/>
				
					<path fill="none" stroke="#676E8A" stroke-width="5" stroke-linecap="round" stroke-linejoin="round" stroke-miterlimit="10" d="
					M82.986,363.003l3.444-23.124c0,0-18.194-4.626-15.861-21.293c2.333-16.667,21.667-17,21.667-17l3.667-29.333
					c0,0,2.781-21.333,20.838-21.333c18.667,0,98.495,0,116.495,0s18.757,32.043,18.757,24.544s0,36.123,0,36.123v76
					c0,0-15.757,51.667-76.757,51.667C94.903,439.253,82.986,363.003,82.986,363.003z"/>
				
					<path fill="none" stroke="#676E8A" stroke-width="5" stroke-linecap="round" stroke-linejoin="round" stroke-miterlimit="10" d="
					M150.569,468.39h45v-31.256c0,0-8.667,2.119-20.333,2.119c-11.667,0-24.667-2.698-24.667-2.698V468.39z"/>
				
					<line fill="none" stroke="#676E8A" stroke-width="5" stroke-linecap="round" stroke-linejoin="round" stroke-miterlimit="10" x1="92.005" y1="652.045" x2="92.005" y2="696.447"/>
				
					<path fill="none" stroke="#676E8A" stroke-width="5" stroke-linecap="round" stroke-linejoin="round" stroke-miterlimit="10" d="
					M253.8,688.447c0,0,0-174.992,0-183.368c0-12.667-1.808-36.689-42.644-36.689c-26.966,0-66.474,0-80.271,0
					c-18.052,0-38.881,8.816-38.881,43.27c0,18.762,0,124.988,0,124.988"/>
			</g>
			
				<path fill="#FFFFFF" stroke="#676E8A" stroke-width="5" stroke-linecap="round" stroke-linejoin="round" stroke-miterlimit="10" d="
				M92.034,519.632c0,0-14.998-1.276-14.998,13.393c0,14.668,0,42.092,0,52.296c0,7.972,3.94,12.117,10.204,12.117
				c8.291,0,16.582,0,16.582,0s22.321-2.69,22.321-25.829S97.466,545.78,92.034,545.78V519.632z"/>
		</g>
		<g>
			<path fill="#C5CAE8" d="M432.058,379.351c0-51.87,0-90.783,0-96.277c0-18.388,32.179-116.239,133.35-116.239
				c71.545,0,137.217,53.851,137.217,124.776c0,13.785,0,88.836,0,117.406c0,22.57-8.389,65.387-63.056,65.387
				c-39.353,0-207.511-3.027-207.511-3.027V379.351z"/>
			<path fill="none" stroke="#676E8A" stroke-width="5" stroke-linecap="round" stroke-linejoin="round" stroke-miterlimit="10" d="
				M660.846,201.626c25.361,22.328,41.779,53.522,41.779,88.985c0,13.785,0,88.836,0,117.406c0,22.57-8.389,65.387-63.056,65.387
				c-39.353,0-207.511-3.027-207.511-3.027v-92.027c0-51.87,0-90.783,0-96.277c0-18.388,32.179-116.239,133.35-116.239
				c21.461,0,42.393,4.845,61.182,13.543"/>
			<path fill="#FFFFFF" d="M598.922,268.556h-63.161c0,19.374-12.714,52.064-54.294,52.064v54.761c0,0,17.362,86.309,85.874,86.309
				c59.235,0,85.874-55.7,85.874-86.309c0-8.682-0.605-20.248-0.605-20.248s16.952-0.605,16.952-16.347
				c0-15.741-16.952-16.347-16.952-16.347s0-16.952,0-33.904c0-16.952-13.32-19.979-13.32-19.979h-103.53"/>
			<path fill="#FFFFFF" d="M652.377,697.447c0-284.081,0-284.081,0-163.804c0-8.929-15.944-40.179-43.367-40.179s-67.602,0-81.633,0
				c-14.031,0-39.541,17.219-39.541,47.194s0,156.789,0,156.789H652.377z"/>
			<path fill="#FFFFFF" d="M539.999,456.507v36.958h54.98V457.18c0,0-12.634,4.51-27.49,4.51S539.999,456.507,539.999,456.507z"/>
			<path fill="#FFFFFF" d="M662.932,548.031c0,0,14.998-1.276,14.998,13.393c0,14.668,0,42.092,0,52.296
				c0,7.972-3.94,12.117-10.204,12.117c-8.291,0-16.582,0-16.582,0s-22.321-2.69-22.321-25.829s28.677-25.829,34.109-25.829V548.031
				z"/>
			<path fill="#FFFFFF" d="M663.659,520.594c0-1.174-19.689-44.305-19.689-44.305s-19.689,43.13-19.689,44.305v132.2
				c0,1.174,0.952,2.126,2.126,2.126h35.126c1.174,0,2.126-0.952,2.126-2.126V520.594z"/>
			<path fill="none" stroke="#676E8A" stroke-width="5" stroke-linecap="round" stroke-linejoin="round" stroke-miterlimit="10" d="
				M584.196,349.978c0-13.709,10.3-24.823,23.007-24.823c12.706,0,23.007,11.114,23.007,24.823"/>
			<path fill="none" stroke="#676E8A" stroke-width="5" stroke-linecap="round" stroke-linejoin="round" stroke-miterlimit="10" d="
				M504.575,349.978c0-13.709,10.3-24.823,23.007-24.823s23.007,11.114,23.007,24.823"/>
			<path fill="none" stroke="#676E8A" stroke-width="5" stroke-linecap="round" stroke-linejoin="round" stroke-miterlimit="10" d="
				M598.922,267.556h-63.161c0,19.374-12.714,52.064-54.294,52.064v54.761c0,0,17.362,86.309,85.874,86.309
				c59.235,0,85.874-55.7,85.874-86.309c0-8.682-0.605-20.248-0.605-20.248s16.952-0.605,16.952-16.347
				c0-15.741-16.952-16.347-16.952-16.347s0-16.952,0-33.904c0-16.952-13.32-19.979-13.32-19.979h-103.53"/>
			<path fill="none" stroke="#676E8A" stroke-width="5" stroke-linecap="round" stroke-linejoin="round" stroke-miterlimit="10" d="
				M652.377,696.447V532.643c0-8.929-15.944-40.179-43.367-40.179s-67.602,0-81.633,0c-14.031,0-39.541,17.219-39.541,47.194
				s0,151.789,0,151.789"/>
			<path fill="none" stroke="#676E8A" stroke-width="5" stroke-linecap="round" stroke-linejoin="round" stroke-miterlimit="10" d="
				M539.999,455.507v36.958h54.98V456.18c0,0-12.634,4.51-27.49,4.51S539.999,455.507,539.999,455.507z"/>
			<g>
				
					<path fill="#FFFFFF" stroke="#676E8A" stroke-width="5" stroke-linecap="round" stroke-linejoin="round" stroke-miterlimit="10" d="
					M661.314,513.071h-38.689c-1.293,0-2.342,0.884-2.342,1.974v9.166v113.558v9.166c0,1.09,1.049,1.974,2.342,1.974h38.689
					c1.293,0,2.342-0.884,2.342-1.974v-9.166V524.211v-9.166C663.656,513.955,662.607,513.071,661.314,513.071z"/>
				<g>
					<line fill="#FFFFFF" x1="620.283" y1="546.931" x2="663.656" y2="546.931"/>
					<g>
						
							<line fill="none" stroke="#676E8A" stroke-width="5" stroke-linecap="round" stroke-linejoin="round" x1="620.283" y1="546.931" x2="621.283" y2="546.931"/>
						
							<line fill="none" stroke="#676E8A" stroke-width="5" stroke-linecap="round" stroke-linejoin="round" stroke-dasharray="2.1775,8.71" x1="629.993" y1="546.931" x2="658.301" y2="546.931"/>
						
							<line fill="none" stroke="#676E8A" stroke-width="5" stroke-linecap="round" stroke-linejoin="round" x1="662.656" y1="546.931" x2="663.656" y2="546.931"/>
					</g>
				</g>
			</g>
			<g>
				
					<path fill="#FFFFFF" stroke="#676E8A" stroke-width="5" stroke-linecap="round" stroke-linejoin="round" stroke-miterlimit="10" d="
					M633.684,515.461l-38.097,5.68c-1.274,0.19-2.123,1.214-1.898,2.287l1.894,9.026l23.469,111.822l1.894,9.026
					c0.225,1.073,1.44,1.79,2.714,1.6l38.097-5.68c1.274-0.19,2.123-1.214,1.898-2.287l-1.894-9.026l-23.469-111.822l-1.894-9.026
					C636.172,515.988,634.957,515.271,633.684,515.461z"/>
				<g>
					<line fill="#FFFFFF" x1="600.278" y1="554.827" x2="642.988" y2="548.46"/>
					<g>
						
							<line fill="none" stroke="#676E8A" stroke-width="5" stroke-linecap="round" stroke-linejoin="round" x1="600.278" y1="554.827" x2="601.267" y2="554.68"/>
						
							<line fill="none" stroke="#676E8A" stroke-width="5" stroke-linecap="round" stroke-linejoin="round" stroke-dasharray="2.1675,8.6698" x1="609.842" y1="553.401" x2="637.711" y2="549.247"/>
						
							<line fill="none" stroke="#676E8A" stroke-width="5" stroke-linecap="round" stroke-linejoin="round" x1="641.999" y1="548.607" x2="642.988" y2="548.46"/>
					</g>
				</g>
			</g>
			
				<path fill="#FFFFFF" stroke="#676E8A" stroke-width="5" stroke-linecap="round" stroke-linejoin="round" stroke-miterlimit="10" d="
				M662.932,547.031c0,0,14.998-1.276,14.998,13.393c0,14.668,0,42.092,0,52.296c0,7.972-3.94,12.117-10.204,12.117
				c-8.291,0-16.582,0-16.582,0s-22.321-2.69-22.321-25.829s28.677-25.829,34.109-25.829V547.031z"/>
		</g>
		<g>
			<path fill="#C5CAE8" d="M375.236,185.33c69.48,0,133.255,52.296,133.255,121.173s0,388.944,0,388.944h-48.469
				c0,0,0-145.321,0-154.25s-15.944-40.179-43.367-40.179c-27.423,0-67.602,0-81.633,0s-39.541,17.219-39.541,47.194
				s0,147.235,0,147.235h-49.745c0,0,0-379.378,0-397.235S276.986,185.33,375.236,185.33z"/>
			<path fill="#FFFFFF" d="M460.022,697.447c0,0,0-147.321,0-156.25s-15.944-40.179-43.367-40.179c-27.423,0-67.602,0-81.633,0
				s-39.541,17.219-39.541,47.194s0,149.235,0,149.235H460.022z"/>
			<path fill="#FFFFFF" d="M295.481,299.488c0,12.755,0,35.714,0,35.714s-16.582,2.551-16.582,15.944s16.582,14.668,16.582,14.668
				v27.423c0,0,10.276,75.255,79.755,75.255s84.786-66.327,84.786-77.168c0-10.842,0-25.51,0-25.51s15.306,1.276,15.306-14.668
				c0-12.117-10.171-15.944-15.306-15.944c-24.235,0-52.02-19.77-52.02-52.934c0,0-90.676,0-95.939,0
				C306.8,282.269,295.481,286.733,295.481,299.488z"/>
			<path fill="#FFFFFF" d="M351.244,465.064v35.955h51.379v-36.492c0,0-13.504,3.967-27.388,3.967
				C361.353,468.493,351.244,465.064,351.244,465.064z"/>
			<path fill="#C5CAE8" d="M399.435,411.733c0,12.328-9.994,22.321-22.321,22.321s-22.321-9.994-22.321-22.321H399.435z"/>
			<circle fill="#676E8A" cx="375.986" cy="603.837" r="3.417"/>
			<circle fill="#B2EBF2" cx="380.236" cy="581.42" r="11"/>
			<path fill="none" stroke="#676E8A" stroke-width="5" stroke-linecap="round" stroke-linejoin="round" stroke-miterlimit="10" d="
				M391.023,577.15c0,7.053-5.717,12.77-12.77,12.77s-12.77-5.717-12.77-12.77s5.717-12.77,12.77-12.77"/>
			
				<line fill="none" stroke="#676E8A" stroke-width="5" stroke-linecap="round" stroke-linejoin="round" stroke-miterlimit="10" x1="508.491" y1="587.564" x2="508.491" y2="696.447"/>
			<path fill="none" stroke="#676E8A" stroke-width="5" stroke-linecap="round" stroke-linejoin="round" stroke-miterlimit="10" d="
				M358.196,185.328c5.442-0.652,11.119-0.998,17.04-0.998c69.48,0,133.255,52.296,133.255,121.173c0,34.358,0,261.233,0,261.233"/>
			<path fill="none" stroke="#676E8A" stroke-width="5" stroke-linecap="round" stroke-linejoin="round" stroke-miterlimit="10" d="
				M245.736,500.018c0-96.447,0-193.984,0-202.805c0-14.348,20.173-78.511,79.062-103.178c3.754-1.573,7.666-2.985,11.74-4.213"/>
			<path fill="none" stroke="#676E8A" stroke-width="5" stroke-linecap="round" stroke-linejoin="round" stroke-miterlimit="10" d="
				M245.736,529.072c0-6.277,0-12.598,0-18.937"/>
			<path fill="none" stroke="#676E8A" stroke-width="5" stroke-linecap="round" stroke-linejoin="round" stroke-miterlimit="10" d="
				M245.736,696.447c0,0,0-68.953,0-149.594"/>
			<path fill="none" stroke="#676E8A" stroke-width="5" stroke-linecap="round" stroke-linejoin="round" stroke-miterlimit="10" d="
				M300.156,526.176c-2.888,6.063-4.675,13.103-4.675,21.036c0,29.974,0,149.235,0,149.235"/>
			<path fill="none" stroke="#676E8A" stroke-width="5" stroke-linecap="round" stroke-linejoin="round" stroke-miterlimit="10" d="
				M460.022,696.447c0,0,0-147.321,0-156.25s-15.944-40.179-43.367-40.179c-27.423,0-67.602,0-81.633,0
				c-4.904,0-11.211,2.104-17.341,6.121"/>
			<path fill="none" stroke="#676E8A" stroke-width="5" stroke-linecap="round" stroke-linejoin="round" stroke-miterlimit="10" d="
				M295.481,298.488c0,12.755,0,35.714,0,35.714s-16.582,2.551-16.582,15.944s16.582,14.668,16.582,14.668v27.423
				c0,0,10.276,75.255,79.755,75.255s84.786-66.327,84.786-77.168c0-10.842,0-25.51,0-25.51s15.306,1.276,15.306-14.668
				c0-12.117-10.171-15.944-15.306-15.944c-24.235,0-52.02-19.77-52.02-52.934c0,0-90.676,0-95.939,0
				C306.8,281.269,295.481,285.733,295.481,298.488z"/>
			<path fill="none" stroke="#676E8A" stroke-width="5" stroke-linecap="round" stroke-linejoin="round" stroke-miterlimit="10" d="
				M351.244,464.064v35.955h51.379v-36.492c0,0-13.504,3.967-27.388,3.967C361.353,467.493,351.244,464.064,351.244,464.064z"/>
			<path fill="none" stroke="#676E8A" stroke-width="5" stroke-linecap="round" stroke-linejoin="round" stroke-miterlimit="10" d="
				M411.223,652.743c0,9.696-7.86,17.557-17.557,17.557h-34.89c-9.696,0-17.556-7.86-17.556-17.557V564.41
				c0-9.696,7.86-17.557,17.556-17.557h34.89c9.696,0,17.557,7.86,17.557,17.557V652.743z"/>
			
				<path fill="#FFFFFF" stroke="#676E8A" stroke-width="5" stroke-linecap="round" stroke-linejoin="round" stroke-miterlimit="10" d="
				M411.223,579.738c0,0,14.998-1.276,14.998,13.393c0,14.668,0,42.092,0,52.296c0,7.972-3.94,12.117-10.204,12.117
				c-8.291,0-16.582,0-16.582,0s-22.321-2.69-22.321-25.829s28.677-25.829,34.109-25.829V579.738z"/>
		</g>
	</g>
</g>
<g id="Capa_2">
	<g>
		<g display="none">
			<g display="inline">
				<g>
					<path fill="#B2EBF2" d="M399.085,129.021c-4.971,0-9-4.029-9-9V86.237c0-4.971,4.029-9,9-9s9,4.029,9,9v33.784
						C408.085,124.992,404.055,129.021,399.085,129.021z"/>
				</g>
				<g>
					<path fill="#B2EBF2" d="M399.085,73.498c-4.971,0-9-4.029-9-9V51.556c0-4.971,4.029-9,9-9s9,4.029,9,9v12.942
						C408.085,69.469,404.055,73.498,399.085,73.498z"/>
				</g>
				<g>
					<path fill="#B2EBF2" d="M399.085,36.177c-4.971,0-9-4.029-9-9v-4.232c0-4.971,4.029-9,9-9s9,4.029,9,9v4.232
						C408.085,32.147,404.055,36.177,399.085,36.177z"/>
				</g>
			</g>
			<g display="inline">
				<g>
					<path fill="#B2EBF2" d="M491.802,145.921c-1.002,0-2.021-0.168-3.02-0.524c-4.683-1.667-7.126-6.815-5.459-11.498
						l11.333-31.826c1.668-4.682,6.816-7.126,11.498-5.459c4.683,1.667,7.126,6.815,5.459,11.498l-11.333,31.826
						C498.968,143.622,495.501,145.921,491.802,145.921z"/>
				</g>
				<g>
					<path fill="#B2EBF2" d="M510.428,93.615c-1.002,0-2.021-0.168-3.02-0.524c-4.683-1.667-7.126-6.815-5.459-11.498l4.342-12.192
						c1.668-4.682,6.815-7.126,11.498-5.459c4.683,1.667,7.126,6.815,5.459,11.498l-4.342,12.192
						C517.594,91.316,514.127,93.615,510.428,93.615z"/>
				</g>
				<g>
					<path fill="#B2EBF2" d="M522.947,58.456c-1.002,0-2.021-0.168-3.02-0.524c-4.683-1.667-7.126-6.815-5.459-11.498l1.42-3.987
						c1.668-4.683,6.814-7.126,11.498-5.459c4.683,1.667,7.126,6.815,5.459,11.498l-1.42,3.987
						C530.113,56.158,526.646,58.456,522.947,58.456z"/>
				</g>
			</g>
			<g display="inline">
				<g>
					<path fill="#B2EBF2" d="M634.656,264.636c-3.045,0-6.015-1.545-7.707-4.339c-2.575-4.251-1.216-9.786,3.036-12.36l28.897-17.5
						c4.252-2.576,9.785-1.215,12.36,3.036s1.216,9.786-3.036,12.36l-28.897,17.501
						C637.852,264.216,636.244,264.636,634.656,264.636z"/>
				</g>
				<g>
					<path fill="#B2EBF2" d="M682.149,235.874c-3.045,0-6.015-1.545-7.707-4.339c-2.575-4.251-1.216-9.786,3.036-12.36l11.069-6.704
						c4.252-2.575,9.786-1.215,12.36,3.036c2.575,4.251,1.216,9.786-3.036,12.36l-11.069,6.704
						C685.346,235.454,683.737,235.874,682.149,235.874z"/>
				</g>
				<g>
					<path fill="#B2EBF2" d="M714.073,216.542c-3.045,0-6.015-1.545-7.707-4.339c-2.575-4.251-1.216-9.786,3.036-12.36l3.62-2.192
						c4.252-2.575,9.786-1.215,12.36,3.036c2.575,4.251,1.216,9.786-3.036,12.36l-3.62,2.192
						C717.269,216.121,715.661,216.542,714.073,216.542z"/>
				</g>
			</g>
			<g display="inline">
				<g>
					<path fill="#B2EBF2" d="M668.211,352.697c-4.184,0-7.933-2.934-8.807-7.192c-0.999-4.869,2.138-9.626,7.007-10.626
						l33.095-6.792c4.862-0.995,9.627,2.137,10.626,7.007c0.999,4.869-2.138,9.626-7.007,10.626l-33.095,6.792
						C669.42,352.637,668.811,352.697,668.211,352.697z"/>
				</g>
				<g>
					<path fill="#B2EBF2" d="M722.6,341.534c-4.184,0-7.933-2.934-8.807-7.193c-0.999-4.869,2.138-9.626,7.007-10.625l12.678-2.602
						c4.867-0.999,9.626,2.138,10.626,7.007c0.999,4.869-2.138,9.626-7.007,10.625l-12.678,2.602
						C723.809,341.473,723.2,341.534,722.6,341.534z"/>
				</g>
				<g>
					<path fill="#B2EBF2" d="M759.16,334.031c-4.184,0-7.932-2.934-8.807-7.192c-0.999-4.869,2.138-9.626,7.007-10.626l4.146-0.851
						c4.862-0.997,9.625,2.136,10.626,7.006c0.999,4.869-2.138,9.626-7.007,10.626l-4.146,0.851
						C760.369,333.971,759.761,334.031,759.16,334.031z"/>
				</g>
			</g>
			<g display="inline">
				<g>
					<path fill="#B2EBF2" d="M703.775,451.62c-0.418,0-0.84-0.029-1.265-0.089l-33.454-4.703c-4.922-0.691-8.352-5.243-7.659-10.165
						c0.691-4.923,5.255-8.35,10.165-7.659l33.454,4.703c4.922,0.691,8.352,5.243,7.659,10.165
						C712.044,448.369,708.189,451.62,703.775,451.62z"/>
				</g>
				<g>
					<path fill="#B2EBF2" d="M738.119,456.448c-0.418,0-0.84-0.029-1.265-0.089l-12.815-1.802
						c-4.922-0.691-8.352-5.243-7.659-10.165c0.691-4.923,5.253-8.352,10.165-7.659l12.815,1.802
						c4.922,0.691,8.352,5.243,7.659,10.165C746.388,453.197,742.533,456.448,738.119,456.448z"/>
				</g>
				<g>
					<path fill="#B2EBF2" d="M766.452,460.431c-0.418,0-0.841-0.029-1.266-0.089l-4.191-0.59c-4.922-0.692-8.351-5.244-7.658-10.166
						c0.692-4.923,5.254-8.347,10.166-7.658l4.191,0.59c4.922,0.692,8.351,5.244,7.658,10.166
						C774.72,457.181,770.866,460.431,766.452,460.431z"/>
				</g>
			</g>
			<g display="inline">
				<g>
					<path fill="#B2EBF2" d="M670.599,552.032c-1.405,0-2.831-0.33-4.162-1.026l-29.938-15.653
						c-4.405-2.303-6.108-7.741-3.806-12.146s7.743-6.108,12.146-3.806l29.938,15.653c4.405,2.303,6.108,7.741,3.806,12.146
						C676.976,550.273,673.843,552.032,670.599,552.032z"/>
				</g>
				<g>
					<path fill="#B2EBF2" d="M701.333,568.101c-1.405,0-2.83-0.33-4.162-1.026l-11.469-5.996c-4.405-2.303-6.108-7.74-3.806-12.146
						c2.303-4.404,7.739-6.108,12.146-3.806l11.469,5.996c4.405,2.303,6.108,7.74,3.806,12.146
						C707.71,566.343,704.576,568.101,701.333,568.101z"/>
				</g>
				<g>
					<path fill="#B2EBF2" d="M726.688,581.358c-1.404,0-2.83-0.33-4.162-1.026l-3.751-1.961c-4.404-2.303-6.108-7.74-3.806-12.146
						c2.302-4.403,7.736-6.11,12.146-3.806l3.751,1.961c4.404,2.303,6.108,7.74,3.806,12.146
						C733.065,579.599,729.932,581.358,726.688,581.358z"/>
				</g>
			</g>
			<g display="inline">
				<g>
					<path fill="#B2EBF2" d="M600.339,640.263c-2.489,0-4.968-1.027-6.746-3.039l-22.375-25.313
						c-3.292-3.725-2.941-9.412,0.782-12.704c3.725-3.292,9.413-2.94,12.704,0.782l22.375,25.313
						c3.292,3.725,2.941,9.412-0.782,12.704C604.585,639.52,602.457,640.263,600.339,640.263z"/>
				</g>
				<g>
					<path fill="#B2EBF2" d="M623.308,666.248c-2.489,0-4.967-1.027-6.746-3.039l-8.571-9.696
						c-3.292-3.725-2.941-9.412,0.782-12.704c3.725-3.29,9.411-2.94,12.704,0.782l8.571,9.696c3.292,3.725,2.941,9.412-0.782,12.704
						C627.555,665.504,625.427,666.248,623.308,666.248z"/>
				</g>
				<g>
					<path fill="#B2EBF2" d="M642.258,687.685c-2.489,0-4.968-1.027-6.746-3.04l-2.803-3.171c-3.292-3.724-2.941-9.411,0.783-12.703
						c3.721-3.291,9.411-2.942,12.703,0.783l2.803,3.171c3.292,3.724,2.941,9.411-0.783,12.703
						C646.504,686.942,644.377,687.685,642.258,687.685z"/>
				</g>
			</g>
			<g display="inline">
				<g>
					<path fill="#B2EBF2" d="M506.71,696.277c-3.604,0-7.006-2.18-8.391-5.74l-12.242-31.487c-1.801-4.633,0.494-9.849,5.127-11.65
						c4.634-1.798,9.849,0.494,11.65,5.127l12.242,31.487c1.801,4.633-0.494,9.849-5.127,11.65
						C508.897,696.08,507.795,696.277,506.71,696.277z"/>
				</g>
				<g>
					<path fill="#B2EBF2" d="M519.277,728.601c-3.604,0-7.006-2.18-8.391-5.741l-4.689-12.063
						c-1.801-4.633,0.495-9.848,5.128-11.649c4.631-1.797,9.849,0.494,11.649,5.128l4.689,12.063
						c1.801,4.633-0.495,9.848-5.128,11.649C521.465,728.404,520.362,728.601,519.277,728.601z"/>
				</g>
				<g>
					<path fill="#B2EBF2" d="M529.645,755.268c-3.604,0-7.006-2.18-8.391-5.741l-1.533-3.944c-1.801-4.633,0.495-9.849,5.128-11.649
						c4.63-1.798,9.848,0.495,11.649,5.128l1.533,3.944c1.801,4.633-0.495,9.849-5.128,11.649
						C531.833,755.071,530.73,755.268,529.645,755.268z"/>
				</g>
			</g>
			<g display="inline">
				<g>
					<path fill="#B2EBF2" d="M397.182,716.471c-4.928,0-8.946-3.969-8.998-8.907l-0.348-33.782c-0.052-4.97,3.936-9.041,8.906-9.093
						c0.031,0,0.063,0,0.095,0c4.927,0,8.946,3.969,8.998,8.907l0.349,33.782c0.051,4.97-3.937,9.041-8.907,9.093
						C397.246,716.471,397.214,716.471,397.182,716.471z"/>
				</g>
				<g>
					<path fill="#B2EBF2" d="M397.541,751.15c-4.928,0-8.946-3.968-8.998-8.907l-0.134-12.941c-0.051-4.97,3.937-9.041,8.907-9.092
						c0.031-0.001,0.063-0.001,0.095-0.001c4.928,0,8.946,3.968,8.998,8.907l0.134,12.941c0.051,4.97-3.937,9.041-8.907,9.092
						C397.604,751.15,397.572,751.15,397.541,751.15z"/>
				</g>
				<g>
					<path fill="#B2EBF2" d="M397.836,779.761c-4.928,0-8.946-3.968-8.997-8.906l-0.045-4.232c-0.051-4.971,3.937-9.042,8.906-9.094
						c0.032,0,0.064,0,0.096,0c4.928,0,8.946,3.968,8.997,8.906l0.045,4.232c0.051,4.971-3.937,9.042-8.906,9.094
						C397.899,779.761,397.867,779.761,397.836,779.761z"/>
				</g>
			</g>
			<g display="inline">
				<g>
					<path fill="#B2EBF2" d="M291.926,698.331c-0.982,0-1.981-0.162-2.961-0.504c-4.694-1.636-7.173-6.767-5.538-11.46
						l11.115-31.903c1.635-4.694,6.767-7.176,11.46-5.538c4.694,1.636,7.173,6.767,5.538,11.46l-11.115,31.903
						C299.131,696.003,295.648,698.331,291.926,698.331z"/>
				</g>
				<g>
					<path fill="#B2EBF2" d="M280.515,731.081c-0.983,0-1.981-0.162-2.962-0.504c-4.694-1.636-7.173-6.767-5.538-11.46l4.258-12.221
						c1.636-4.694,6.766-7.176,11.46-5.538c4.694,1.636,7.173,6.767,5.538,11.46l-4.258,12.221
						C287.72,728.753,284.238,731.081,280.515,731.081z"/>
				</g>
				<g>
					<path fill="#B2EBF2" d="M271.102,758.099c-0.983,0-1.982-0.162-2.962-0.504c-4.693-1.636-7.172-6.767-5.537-11.461l1.393-3.996
						c1.635-4.693,6.767-7.174,11.46-5.537c4.693,1.636,7.172,6.767,5.537,11.461l-1.393,3.996
						C278.306,755.771,274.824,758.099,271.102,758.099z"/>
				</g>
			</g>
			<g display="inline">
				<g>
					<path fill="#B2EBF2" d="M194.615,641.895c-2.046,0-4.102-0.693-5.79-2.113c-3.804-3.199-4.293-8.877-1.093-12.681
						l21.749-25.853c3.202-3.805,8.878-4.292,12.681-1.093c3.804,3.199,4.293,8.877,1.093,12.681l-21.749,25.853
						C199.726,640.805,197.179,641.895,194.615,641.895z"/>
				</g>
				<g>
					<path fill="#B2EBF2" d="M172.289,668.434c-2.046,0-4.102-0.693-5.79-2.113c-3.804-3.199-4.293-8.877-1.093-12.681l8.332-9.903
						c3.201-3.805,8.878-4.292,12.681-1.093c3.804,3.199,4.293,8.877,1.093,12.681l-8.332,9.903
						C177.4,667.345,174.853,668.434,172.289,668.434z"/>
				</g>
				<g>
					<path fill="#B2EBF2" d="M153.87,690.329c-2.045,0-4.101-0.693-5.789-2.112c-3.804-3.199-4.293-8.877-1.094-12.681l2.725-3.239
						c3.2-3.804,8.876-4.293,12.681-1.095c3.804,3.199,4.293,8.877,1.094,12.681l-2.725,3.239
						C158.982,689.238,156.434,690.329,153.87,690.329z"/>
				</g>
			</g>
			<g display="inline">
				<g>
					<path fill="#B2EBF2" d="M125.22,557.084c-3.132,0-6.175-1.638-7.833-4.556c-2.456-4.321-0.943-9.815,3.379-12.271l29.373-16.69
						c4.321-2.453,9.816-0.942,12.271,3.379s0.943,9.815-3.379,12.271l-29.373,16.69
						C128.254,556.704,126.726,557.084,125.22,557.084z"/>
				</g>
				<g>
					<path fill="#B2EBF2" d="M95.066,574.218c-3.132,0-6.175-1.638-7.833-4.556c-2.456-4.322-0.942-9.815,3.379-12.271l11.252-6.394
						c4.323-2.453,9.816-0.942,12.271,3.379c2.456,4.322,0.942,9.815-3.379,12.271l-11.252,6.394
						C98.1,573.838,96.573,574.218,95.066,574.218z"/>
				</g>
				<g>
					<path fill="#B2EBF2" d="M70.19,588.352c-3.132,0-6.175-1.638-7.833-4.556c-2.456-4.321-0.943-9.815,3.379-12.271l3.68-2.091
						c4.323-2.452,9.816-0.942,12.271,3.379c2.456,4.321,0.943,9.815-3.379,12.271l-3.68,2.091
						C73.224,587.972,71.697,588.352,70.19,588.352z"/>
				</g>
			</g>
			<g display="inline">
				<g>
					<path fill="#B2EBF2" d="M89.687,454.217c-4.323,0-8.136-3.122-8.868-7.526c-0.814-4.903,2.5-9.539,7.404-10.353l33.328-5.535
						c4.905-0.817,9.538,2.5,10.353,7.403c0.814,4.903-2.5,9.539-7.404,10.353l-33.328,5.535
						C90.674,454.177,90.177,454.217,89.687,454.217z"/>
				</g>
				<g>
					<path fill="#B2EBF2" d="M55.475,459.898c-4.323,0-8.136-3.122-8.868-7.526c-0.814-4.903,2.5-9.539,7.404-10.353l12.768-2.12
						c4.901-0.818,9.538,2.5,10.353,7.403s-2.5,9.539-7.404,10.354l-12.767,2.119C56.461,459.858,55.964,459.898,55.475,459.898z"/>
				</g>
				<g>
					<path fill="#B2EBF2" d="M27.25,464.585c-4.323,0-8.136-3.122-8.868-7.526c-0.814-4.903,2.5-9.539,7.404-10.353l4.175-0.693
						c4.909-0.818,9.539,2.5,10.353,7.403s-2.5,9.539-7.404,10.353l-4.175,0.693C28.236,464.545,27.739,464.585,27.25,464.585z"/>
				</g>
			</g>
			<g display="inline">
				<g>
					<path fill="#B2EBF2" d="M124.516,354.45c-0.527,0-1.062-0.046-1.6-0.143l-33.253-5.966c-4.893-0.877-8.147-5.555-7.269-10.448
						c0.877-4.893,5.549-8.153,10.448-7.269l33.253,5.966c4.893,0.877,8.147,5.555,7.269,10.448
						C132.583,351.393,128.79,354.45,124.516,354.45z"/>
				</g>
				<g>
					<path fill="#B2EBF2" d="M69.866,344.645c-0.527,0-1.062-0.046-1.6-0.143l-12.738-2.286c-4.893-0.878-8.147-5.556-7.269-10.448
						c0.877-4.892,5.552-8.151,10.448-7.269l12.738,2.286c4.893,0.878,8.147,5.556,7.269,10.448
						C77.932,341.588,74.14,344.645,69.866,344.645z"/>
				</g>
				<g>
					<path fill="#B2EBF2" d="M33.131,338.054c-0.528,0-1.062-0.046-1.6-0.143l-4.166-0.748c-4.892-0.878-8.146-5.556-7.269-10.448
						s5.553-8.149,10.448-7.269l4.166,0.748c4.892,0.878,8.146,5.556,7.269,10.448C41.198,334.997,37.405,338.054,33.131,338.054z"
						/>
				</g>
			</g>
			<g display="inline">
				<g>
					<path fill="#B2EBF2" d="M157.503,266.175c-1.516,0-3.051-0.383-4.46-1.189l-29.325-16.775
						c-4.314-2.468-5.812-7.966-3.343-12.281c2.469-4.315,7.968-5.811,12.281-3.343l29.325,16.775
						c4.314,2.468,5.812,7.966,3.343,12.281C163.661,264.547,160.625,266.175,157.503,266.175z"/>
				</g>
				<g>
					<path fill="#B2EBF2" d="M109.308,238.605c-1.516,0-3.051-0.383-4.461-1.189l-11.233-6.426
						c-4.314-2.468-5.811-7.967-3.343-12.281c2.468-4.314,7.968-5.811,12.281-3.343l11.233,6.426
						c4.314,2.468,5.811,7.966,3.343,12.281C115.467,236.977,112.431,238.605,109.308,238.605z"/>
				</g>
				<g>
					<path fill="#B2EBF2" d="M76.913,220.073c-1.516,0-3.051-0.383-4.46-1.189l-3.674-2.102c-4.314-2.468-5.812-7.966-3.343-12.281
						c2.469-4.314,7.967-5.811,12.281-3.343l3.674,2.102c4.314,2.468,5.812,7.966,3.343,12.281
						C83.072,218.445,80.036,220.073,76.913,220.073z"/>
				</g>
			</g>
			<g display="inline">
				<g>
					<path fill="#B2EBF2" d="M220.188,192.445c-2.563,0-5.109-1.089-6.889-3.203l-21.76-25.843
						c-3.201-3.802-2.714-9.48,1.088-12.682c3.802-3.2,9.48-2.714,12.682,1.088l21.76,25.843c3.201,3.802,2.714,9.48-1.088,12.682
						C224.292,191.75,222.234,192.445,220.188,192.445z"/>
				</g>
				<g>
					<path fill="#B2EBF2" d="M184.426,149.972c-2.563,0-5.108-1.089-6.889-3.203l-8.336-9.9c-3.202-3.802-2.715-9.48,1.087-12.681
						c3.803-3.202,9.479-2.715,12.681,1.087l8.336,9.9c3.202,3.802,2.715,9.48-1.087,12.681
						C188.531,149.278,186.472,149.972,184.426,149.972z"/>
				</g>
				<g>
					<path fill="#B2EBF2" d="M160.388,121.423c-2.563,0-5.109-1.089-6.889-3.204l-2.726-3.238
						c-3.201-3.802-2.714-9.479,1.088-12.681c3.802-3.201,9.479-2.714,12.681,1.088l2.726,3.238
						c3.201,3.802,2.714,9.479-1.088,12.681C164.492,120.729,162.434,121.423,160.388,121.423z"/>
				</g>
			</g>
			<g display="inline">
				<g>
					<path fill="#B2EBF2" d="M302.453,145.488c-3.653,0-7.089-2.241-8.437-5.866l-11.774-31.666
						c-1.732-4.659,0.64-9.84,5.299-11.572c4.658-1.734,9.84,0.64,11.572,5.299l11.774,31.666c1.732,4.659-0.64,9.84-5.299,11.572
						C304.555,145.305,303.495,145.488,302.453,145.488z"/>
				</g>
				<g>
					<path fill="#B2EBF2" d="M283.104,93.445c-3.653,0-7.089-2.241-8.437-5.866l-4.51-12.13c-1.732-4.659,0.64-9.84,5.299-11.572
						c4.658-1.733,9.841,0.64,11.572,5.299l4.51,12.13c1.732,4.659-0.64,9.84-5.299,11.572
						C285.206,93.263,284.146,93.445,283.104,93.445z"/>
				</g>
				<g>
					<path fill="#B2EBF2" d="M270.097,58.464c-3.653,0-7.089-2.241-8.437-5.866l-1.475-3.967c-1.732-4.659,0.64-9.84,5.299-11.572
						c4.658-1.734,9.84,0.64,11.572,5.299l1.475,3.967c1.732,4.659-0.64,9.84-5.299,11.572
						C272.2,58.282,271.139,58.464,270.097,58.464z"/>
				</g>
			</g>
		</g>
		<g>
			<g>
				<g>
					<g>
						<path fill="#B2EBF2" d="M573.472,192.73c-1.954,0-3.919-0.648-5.551-1.979c-3.762-3.069-4.325-8.606-1.256-12.369
							l21.353-26.18c3.069-3.762,8.606-4.325,12.369-1.256c3.762,3.069,4.325,8.606,1.256,12.369l-21.353,26.18
							C578.552,191.626,576.022,192.73,573.472,192.73z"/>
					</g>
				</g>
				<g>
					<g>
						<path fill="#B2EBF2" d="M611.789,145.751c-1.954,0-3.919-0.648-5.551-1.979c-3.762-3.069-4.325-8.606-1.256-12.369
							l4.956-6.076c3.069-3.762,8.606-4.325,12.369-1.256c3.762,3.069,4.325,8.606,1.256,12.369l-4.956,6.076
							C616.869,144.646,614.339,145.751,611.789,145.751z"/>
					</g>
				</g>
				<g>
					<g>
						<path fill="#B2EBF2" d="M633.491,119.142c-1.954,0-3.919-0.648-5.551-1.979c-3.762-3.069-4.325-8.606-1.256-12.369l1.338-1.64
							c3.069-3.762,8.606-4.325,12.369-1.256c3.762,3.069,4.325,8.606,1.256,12.369l-1.337,1.64
							C638.571,118.038,636.041,119.142,633.491,119.142z"/>
					</g>
				</g>
			</g>
			<g>
				<g>
					<g>
						<path fill="#B2EBF2" d="M631.835,264.025c-1.84-0.657-3.473-1.928-4.562-3.731c-2.511-4.155-1.178-9.56,2.977-12.071
							l28.914-17.474c4.155-2.511,9.56-1.178,12.071,2.977c2.511,4.155,1.178,9.559-2.977,12.071l-28.914,17.474
							C636.991,264.693,634.237,264.883,631.835,264.025z"/>
					</g>
				</g>
				<g>
					<g>
						<path fill="#B2EBF2" d="M683.721,232.669c-1.84-0.657-3.473-1.928-4.562-3.731c-2.511-4.155-1.178-9.559,2.977-12.071
							l6.711-4.055c4.155-2.511,9.56-1.178,12.071,2.977c2.511,4.155,1.178,9.56-2.977,12.071l-6.711,4.055
							C688.876,233.338,686.122,233.527,683.721,232.669z"/>
					</g>
				</g>
				<g>
					<g>
						<path fill="#B2EBF2" d="M713.108,214.91c-1.84-0.657-3.473-1.928-4.562-3.731c-2.511-4.155-1.178-9.56,2.977-12.071
							l1.811-1.094c4.155-2.511,9.56-1.178,12.071,2.977c2.511,4.155,1.178,9.559-2.977,12.071l-1.811,1.094
							C718.263,215.578,715.509,215.768,713.108,214.91z"/>
					</g>
				</g>
			</g>
			<g>
				<g>
					<g>
						<path fill="#B2EBF2" d="M662.547,349.249c-1.519-1.229-2.639-2.969-3.071-5.03c-0.995-4.752,2.051-9.411,6.803-10.406
							l33.067-6.923c4.752-0.995,9.411,2.051,10.406,6.803c0.995,4.752-2.051,9.411-6.803,10.406l-33.067,6.923
							C667.192,351.586,664.53,350.853,662.547,349.249z"/>
					</g>
				</g>
				<g>
					<g>
						<path fill="#B2EBF2" d="M721.885,336.826c-1.519-1.229-2.639-2.969-3.071-5.03c-0.995-4.752,2.051-9.411,6.803-10.406
							l7.674-1.607c4.752-0.995,9.411,2.051,10.406,6.803c0.995,4.752-2.051,9.411-6.803,10.406l-7.674,1.607
							C726.529,339.162,723.868,338.43,721.885,336.826z"/>
					</g>
				</g>
				<g>
					<g>
						<path fill="#B2EBF2" d="M755.493,329.789c-1.519-1.229-2.639-2.969-3.071-5.03c-0.995-4.752,2.051-9.411,6.803-10.406
							l2.071-0.434c4.752-0.995,9.411,2.051,10.406,6.803c0.995,4.752-2.051,9.411-6.803,10.406l-2.071,0.434
							C760.137,332.126,757.475,331.393,755.493,329.789z"/>
					</g>
				</g>
			</g>
			<g>
				<g>
					<g>
						<path fill="#B2EBF2" d="M663.26,440.29c-1.024-1.664-1.502-3.677-1.224-5.765c0.642-4.813,5.063-8.194,9.875-7.552
							l33.488,4.464c4.813,0.641,8.194,5.063,7.552,9.875c-0.642,4.813-5.063,8.194-9.875,7.552l-33.488-4.464
							C666.863,444.037,664.597,442.462,663.26,440.29z"/>
					</g>
				</g>
				<g>
					<g>
						<path fill="#B2EBF2" d="M723.353,448.3c-1.024-1.664-1.502-3.677-1.224-5.765c0.642-4.813,5.063-8.194,9.875-7.552
							l7.772,1.036c4.813,0.642,8.194,5.063,7.552,9.875c-0.642,4.813-5.063,8.194-9.875,7.552l-7.772-1.036
							C726.956,452.048,724.689,450.472,723.353,448.3z"/>
					</g>
				</g>
				<g>
					<g>
						<path fill="#B2EBF2" d="M757.388,452.837c-1.024-1.664-1.502-3.677-1.224-5.765c0.641-4.813,5.063-8.194,9.875-7.552
							l2.098,0.28c4.813,0.641,8.194,5.063,7.552,9.875c-0.641,4.813-5.063,8.194-9.875,7.552l-2.098-0.28
							C760.991,456.584,758.725,455.009,757.388,452.837z"/>
					</g>
				</g>
			</g>
			<g>
				<g>
					<g>
						<path fill="#B2EBF2" d="M633.014,527.572c-0.403-1.912-0.175-3.968,0.791-5.84c2.227-4.314,7.529-6.007,11.844-3.78
							l30.022,15.494c4.314,2.227,6.007,7.529,3.78,11.844c-2.227,4.314-7.529,6.007-11.844,3.78l-30.022-15.494
							C635.143,532.315,633.54,530.067,633.014,527.572z"/>
					</g>
				</g>
				<g>
					<g>
						<path fill="#B2EBF2" d="M686.887,555.374c-0.403-1.912-0.175-3.968,0.791-5.84c2.227-4.314,7.529-6.007,11.844-3.78
							l6.968,3.596c4.314,2.227,6.007,7.529,3.78,11.844s-7.529,6.007-11.844,3.78l-6.968-3.596
							C689.016,560.117,687.413,557.87,686.887,555.374z"/>
					</g>
				</g>
				<g>
					<g>
						<path fill="#B2EBF2" d="M717.4,571.121c-0.403-1.912-0.175-3.968,0.791-5.84c2.227-4.314,7.529-6.007,11.844-3.78l1.88,0.971
							c4.314,2.227,6.007,7.529,3.78,11.844c-2.227,4.315-7.529,6.007-11.844,3.78l-1.88-0.971
							C719.529,575.864,717.926,573.617,717.4,571.121z"/>
					</g>
				</g>
			</g>
			<g>
				<g>
					<g>
						<path fill="#B2EBF2" d="M569.03,604.734c0.322-1.927,1.285-3.758,2.868-5.148c3.647-3.204,9.202-2.845,12.406,0.802
							l22.298,25.38c3.205,3.647,2.845,9.202-0.802,12.406c-3.647,3.204-9.202,2.845-12.406-0.802l-22.298-25.38
							C569.282,609.927,568.61,607.25,569.03,604.734z"/>
					</g>
				</g>
				<g>
					<g>
						<path fill="#B2EBF2" d="M609.044,650.278c0.322-1.927,1.286-3.758,2.868-5.148c3.647-3.204,9.202-2.845,12.406,0.802
							l5.175,5.89c3.204,3.647,2.845,9.202-0.802,12.406c-3.647,3.204-9.202,2.845-12.406-0.802l-5.175-5.89
							C609.295,655.471,608.623,652.794,609.044,650.278z"/>
					</g>
				</g>
				<g>
					<g>
						<path fill="#B2EBF2" d="M631.706,676.073c0.322-1.927,1.286-3.758,2.868-5.148c3.647-3.204,9.202-2.845,12.406,0.802
							l1.397,1.59c3.204,3.647,2.845,9.202-0.802,12.406c-3.647,3.205-9.202,2.845-12.406-0.802l-1.397-1.59
							C631.958,681.266,631.285,678.589,631.706,676.073z"/>
					</g>
				</g>
			</g>
			<g>
				<g>
					<g>
						<path fill="#B2EBF2" d="M486.73,651.376c0.967-1.697,2.503-3.084,4.468-3.843c4.529-1.749,9.619,0.504,11.368,5.033
							l12.172,31.515c1.749,4.529-0.504,9.619-5.033,11.368s-9.619-0.504-11.368-5.033l-12.172-31.515
							C485.174,656.337,485.467,653.592,486.73,651.376z"/>
					</g>
				</g>
				<g>
					<g>
						<path fill="#B2EBF2" d="M508.572,707.929c0.967-1.697,2.503-3.084,4.468-3.843c4.529-1.749,9.619,0.504,11.368,5.033
							l2.825,7.314c1.749,4.529-0.504,9.619-5.033,11.368c-4.529,1.749-9.619-0.504-11.368-5.033l-2.825-7.314
							C507.016,712.89,507.309,710.145,508.572,707.929z"/>
					</g>
				</g>
				<g>
					<g>
						<path fill="#B2EBF2" d="M520.943,739.96c0.967-1.697,2.503-3.084,4.468-3.843c4.529-1.749,9.619,0.504,11.368,5.033
							l0.762,1.974c1.749,4.529-0.504,9.619-5.033,11.368c-4.529,1.749-9.619-0.504-11.368-5.033l-0.762-1.974
							C519.387,744.92,519.68,742.175,520.943,739.96z"/>
					</g>
				</g>
			</g>
			<g>
				<g>
					<g>
						<path fill="#B2EBF2" d="M389.449,666.678c1.512-1.237,3.443-1.981,5.549-1.984c4.855-0.008,8.798,3.921,8.806,8.776
							l0.057,33.784c0.008,4.855-3.921,8.798-8.776,8.806c-4.855,0.008-8.798-3.921-8.806-8.776l-0.057-33.784
							C386.217,670.751,387.475,668.294,389.449,666.678z"/>
					</g>
				</g>
				<g>
					<g>
						<path fill="#B2EBF2" d="M389.551,727.303c1.512-1.237,3.443-1.981,5.549-1.984c4.855-0.008,8.798,3.921,8.806,8.776
							l0.013,7.841c0.008,4.855-3.921,8.798-8.776,8.806c-4.855,0.008-8.798-3.921-8.806-8.776l-0.013-7.841
							C386.319,731.375,387.577,728.918,389.551,727.303z"/>
					</g>
				</g>
				<g>
					<g>
						<path fill="#B2EBF2" d="M389.609,761.639c1.512-1.237,3.443-1.981,5.549-1.984c4.855-0.008,8.798,3.921,8.806,8.776
							l0.004,2.116c0.008,4.855-3.921,8.798-8.776,8.806c-4.855,0.008-8.798-3.921-8.806-8.776l-0.004-2.116
							C386.377,765.711,387.635,763.254,389.609,761.639z"/>
					</g>
				</g>
			</g>
			<g id="XMLID_1_">
				<g>
					<g>
						<path fill="#B2EBF2" d="M403.223,127c-1.507,1.243-3.435,1.994-5.541,2.006c-4.855,0.027-8.813-3.887-8.839-8.743
							l-0.186-33.784c-0.027-4.855,3.887-8.813,8.743-8.839c4.855-0.027,8.813,3.887,8.839,8.743l0.186,33.784
							C406.439,122.915,405.19,125.377,403.223,127z"/>
					</g>
				</g>
				<g>
					<g>
						<path fill="#B2EBF2" d="M402.89,66.376c-1.507,1.243-3.435,1.994-5.542,2.006c-4.855,0.027-8.812-3.887-8.839-8.743
							l-0.043-7.841c-0.027-4.855,3.887-8.813,8.742-8.839c4.855-0.027,8.813,3.887,8.839,8.743l0.043,7.841
							C406.106,62.292,404.857,64.754,402.89,66.376z"/>
					</g>
				</g>
				<g>
					<g>
						<path fill="#B2EBF2" d="M402.701,32.041c-1.507,1.243-3.435,1.994-5.541,2.006c-4.855,0.027-8.813-3.887-8.839-8.743
							l-0.012-2.116c-0.027-4.855,3.887-8.812,8.742-8.839c4.855-0.027,8.813,3.887,8.839,8.743l0.012,2.116
							C405.917,27.956,404.668,30.418,402.701,32.041z"/>
					</g>
				</g>
			</g>
			<g>
				<g>
					<g>
						<path fill="#B2EBF2" d="M493.167,144.693c-1.836,0.667-3.905,0.729-5.893,0.035c-4.584-1.6-7.003-6.613-5.404-11.197
							l11.131-31.898c1.6-4.584,6.613-7.003,11.197-5.404c4.584,1.6,7.003,6.613,5.404,11.197l-11.131,31.898
							C497.565,141.921,495.564,143.823,493.167,144.693z"/>
					</g>
				</g>
				<g>
					<g>
						<path fill="#B2EBF2" d="M513.141,87.454c-1.836,0.667-3.905,0.729-5.893,0.035c-4.584-1.6-7.003-6.613-5.404-11.197
							l2.583-7.403c1.6-4.584,6.613-7.003,11.197-5.404c4.584,1.6,7.003,6.613,5.404,11.197l-2.583,7.403
							C517.539,84.682,515.538,86.584,513.141,87.454z"/>
					</g>
				</g>
				<g>
					<g>
						<path fill="#B2EBF2" d="M524.455,55.035c-1.836,0.667-3.905,0.729-5.893,0.035c-4.584-1.6-7.003-6.613-5.404-11.197
							l0.697-1.998c1.6-4.584,6.613-7.003,11.197-5.404c4.584,1.6,7.003,6.613,5.404,11.197l-0.697,1.998
							C528.852,52.262,526.852,54.164,524.455,55.035z"/>
					</g>
				</g>
			</g>
		</g>
		<g>
			<g>
				<g>
					<path fill="#B2EBF2" d="M220.229,600.974c1.954,0,3.919,0.648,5.551,1.979c3.762,3.069,4.325,8.606,1.256,12.369l-21.353,26.18
						c-3.069,3.762-8.606,4.325-12.369,1.256c-3.762-3.069-4.325-8.606-1.256-12.369l21.353-26.18
						C215.149,602.079,217.679,600.974,220.229,600.974z"/>
				</g>
			</g>
			<g>
				<g>
					<path fill="#B2EBF2" d="M181.912,647.954c1.954,0,3.919,0.648,5.551,1.979c3.762,3.069,4.325,8.606,1.256,12.369l-4.956,6.076
						c-3.069,3.762-8.606,4.325-12.369,1.256c-3.762-3.069-4.325-8.606-1.256-12.369l4.956-6.076
						C176.832,649.058,179.361,647.954,181.912,647.954z"/>
				</g>
			</g>
			<g>
				<g>
					<path fill="#B2EBF2" d="M160.21,674.562c1.954,0,3.919,0.648,5.551,1.979c3.762,3.069,4.325,8.606,1.256,12.369l-1.337,1.64
						c-3.069,3.762-8.606,4.325-12.369,1.256s-4.325-8.606-1.256-12.369l1.337-1.64C155.13,675.667,157.659,674.562,160.21,674.562z
						"/>
				</g>
			</g>
		</g>
		<g>
			<g>
				<g>
					<path fill="#B2EBF2" d="M161.866,529.68c1.84,0.657,3.473,1.928,4.562,3.731c2.511,4.155,1.178,9.56-2.977,12.071
						l-28.914,17.474c-4.155,2.511-9.56,1.178-12.071-2.977c-2.511-4.155-1.178-9.559,2.977-12.071l28.914-17.474
						C156.71,529.011,159.464,528.822,161.866,529.68z"/>
				</g>
			</g>
			<g>
				<g>
					<path fill="#B2EBF2" d="M109.98,561.035c1.84,0.657,3.473,1.928,4.562,3.731c2.511,4.155,1.178,9.559-2.977,12.071
						l-6.711,4.055c-4.155,2.511-9.56,1.178-12.071-2.977c-2.511-4.155-1.178-9.56,2.977-12.071l6.711-4.055
						C104.824,560.367,107.578,560.177,109.98,561.035z"/>
				</g>
			</g>
			<g>
				<g>
					<path fill="#B2EBF2" d="M80.593,578.794c1.84,0.657,3.473,1.928,4.562,3.731c2.511,4.155,1.178,9.56-2.977,12.071l-1.811,1.094
						c-4.155,2.511-9.559,1.178-12.071-2.977c-2.511-4.155-1.178-9.56,2.977-12.071l1.811-1.094
						C75.437,578.126,78.191,577.937,80.593,578.794z"/>
				</g>
			</g>
		</g>
		<g>
			<g>
				<g>
					<path fill="#B2EBF2" d="M131.153,444.455c1.519,1.229,2.639,2.968,3.071,5.03c0.995,4.752-2.051,9.411-6.803,10.406
						l-33.067,6.923c-4.752,0.995-9.411-2.051-10.406-6.803c-0.995-4.752,2.051-9.411,6.803-10.406l33.067-6.923
						C126.509,442.119,129.171,442.851,131.153,444.455z"/>
				</g>
			</g>
			<g>
				<g>
					<path fill="#B2EBF2" d="M71.816,456.879c1.519,1.229,2.639,2.969,3.071,5.03c0.995,4.752-2.051,9.411-6.803,10.406
						l-7.674,1.607c-4.752,0.995-9.411-2.051-10.406-6.803c-0.995-4.752,2.051-9.411,6.803-10.406l7.674-1.607
						C67.172,454.542,69.833,455.275,71.816,456.879z"/>
				</g>
			</g>
			<g>
				<g>
					<path fill="#B2EBF2" d="M38.208,463.915c1.519,1.229,2.639,2.969,3.071,5.03c0.995,4.752-2.051,9.411-6.803,10.406
						l-2.071,0.434c-4.752,0.995-9.411-2.051-10.406-6.803c-0.995-4.752,2.051-9.411,6.803-10.406l2.071-0.434
						C33.564,461.579,36.225,462.311,38.208,463.915z"/>
				</g>
			</g>
		</g>
		<g>
			<g>
				<g>
					<path fill="#B2EBF2" d="M130.441,353.415c1.024,1.664,1.502,3.677,1.224,5.765c-0.642,4.813-5.063,8.194-9.875,7.552
						l-33.488-4.464c-4.813-0.642-8.194-5.063-7.552-9.875c0.642-4.813,5.063-8.194,9.875-7.552l33.488,4.464
						C126.837,349.667,129.104,351.243,130.441,353.415z"/>
				</g>
			</g>
			<g>
				<g>
					<path fill="#B2EBF2" d="M70.348,345.404c1.024,1.664,1.502,3.677,1.224,5.765c-0.642,4.813-5.063,8.194-9.875,7.552
						l-7.772-1.036c-4.813-0.642-8.194-5.063-7.552-9.875c0.642-4.813,5.063-8.194,9.875-7.552l7.772,1.036
						C66.745,341.657,69.011,343.232,70.348,345.404z"/>
				</g>
			</g>
			<g>
				<g>
					<path fill="#B2EBF2" d="M36.313,340.867c1.024,1.664,1.502,3.677,1.224,5.765c-0.642,4.813-5.063,8.194-9.875,7.552
						l-2.098-0.28c-4.813-0.642-8.194-5.063-7.552-9.875c0.642-4.813,5.063-8.194,9.875-7.552l2.098,0.28
						C32.709,337.12,34.976,338.696,36.313,340.867z"/>
				</g>
			</g>
		</g>
		<g>
			<g>
				<g>
					<path fill="#B2EBF2" d="M160.687,266.133c0.403,1.912,0.175,3.968-0.791,5.84c-2.227,4.314-7.529,6.007-11.844,3.78
						l-30.022-15.494c-4.314-2.227-6.007-7.529-3.78-11.844c2.227-4.314,7.529-6.007,11.844-3.78l30.022,15.494
						C158.558,261.39,160.161,263.637,160.687,266.133z"/>
				</g>
			</g>
			<g>
				<g>
					<path fill="#B2EBF2" d="M106.813,238.33c0.403,1.912,0.175,3.968-0.791,5.84c-2.227,4.314-7.529,6.007-11.844,3.78
						l-6.968-3.596c-4.314-2.227-6.007-7.529-3.78-11.844c2.227-4.314,7.529-6.007,11.844-3.78l6.968,3.596
						C104.685,233.587,106.287,235.835,106.813,238.33z"/>
				</g>
			</g>
			<g>
				<g>
					<path fill="#B2EBF2" d="M76.301,222.583c0.403,1.912,0.175,3.968-0.791,5.84c-2.227,4.314-7.529,6.007-11.844,3.78l-1.88-0.97
						c-4.314-2.227-6.007-7.529-3.78-11.844c2.227-4.314,7.529-6.007,11.844-3.78l1.88,0.97
						C74.172,217.84,75.775,220.088,76.301,222.583z"/>
				</g>
			</g>
		</g>
		<g>
			<g>
				<g>
					<path fill="#B2EBF2" d="M224.67,188.97c-0.322,1.927-1.286,3.758-2.868,5.148c-3.647,3.204-9.202,2.845-12.406-0.802
						l-22.298-25.38c-3.204-3.647-2.845-9.202,0.802-12.406c3.647-3.204,9.202-2.845,12.406,0.802l22.298,25.38
						C224.419,183.777,225.091,186.455,224.67,188.97z"/>
				</g>
			</g>
			<g>
				<g>
					<path fill="#B2EBF2" d="M184.657,143.426c-0.322,1.927-1.286,3.758-2.868,5.148c-3.647,3.204-9.202,2.845-12.406-0.802
						l-5.175-5.89c-3.204-3.647-2.845-9.202,0.802-12.406c3.647-3.204,9.202-2.845,12.406,0.802l5.175,5.89
						C184.406,138.234,185.078,140.911,184.657,143.426z"/>
				</g>
			</g>
			<g>
				<g>
					<path fill="#B2EBF2" d="M161.995,117.631c-0.322,1.927-1.286,3.758-2.868,5.148c-3.647,3.204-9.202,2.845-12.406-0.802
						l-1.397-1.59c-3.204-3.647-2.845-9.202,0.802-12.406c3.647-3.204,9.202-2.845,12.406,0.802l1.397,1.59
						C161.743,112.438,162.415,115.116,161.995,117.631z"/>
				</g>
			</g>
		</g>
		<g>
			<g>
				<g>
					<path fill="#B2EBF2" d="M306.971,142.328c-0.967,1.697-2.503,3.084-4.468,3.843c-4.529,1.749-9.619-0.504-11.368-5.033
						l-12.172-31.515c-1.749-4.529,0.504-9.619,5.033-11.368c4.529-1.749,9.619,0.504,11.368,5.033l12.172,31.515
						C308.527,137.367,308.234,140.112,306.971,142.328z"/>
				</g>
			</g>
			<g>
				<g>
					<path fill="#B2EBF2" d="M285.129,85.775c-0.967,1.697-2.503,3.084-4.468,3.843c-4.529,1.749-9.619-0.504-11.368-5.033
						l-2.825-7.314c-1.749-4.529,0.504-9.619,5.033-11.368c4.529-1.749,9.619,0.504,11.368,5.033l2.825,7.314
						C286.685,80.815,286.392,83.559,285.129,85.775z"/>
				</g>
			</g>
			<g>
				<g>
					<path fill="#B2EBF2" d="M272.758,53.745c-0.967,1.697-2.503,3.084-4.468,3.843c-4.529,1.749-9.619-0.504-11.368-5.033
						l-0.762-1.974c-1.749-4.529,0.504-9.619,5.033-11.368c4.529-1.749,9.619,0.504,11.368,5.033l0.762,1.974
						C274.314,48.784,274.021,51.529,272.758,53.745z"/>
				</g>
			</g>
		</g>
		<g>
			<g>
				<g>
					<g>
						<path fill="#B2EBF2" d="M300.534,649.011c1.836-0.667,3.905-0.729,5.893-0.035c4.584,1.6,7.003,6.613,5.404,11.197
							l-11.131,31.898c-1.6,4.584-6.613,7.003-11.197,5.404c-4.584-1.6-7.003-6.613-5.404-11.197l11.131-31.898
							C296.136,651.784,298.137,649.882,300.534,649.011z"/>
					</g>
				</g>
			</g>
			<g>
				<g>
					<g>
						<path fill="#B2EBF2" d="M280.559,706.25c1.836-0.667,3.905-0.729,5.893-0.035c4.584,1.6,7.003,6.613,5.404,11.197
							l-2.583,7.403c-1.6,4.584-6.613,7.003-11.197,5.404c-4.584-1.6-7.003-6.613-5.404-11.197l2.583-7.403
							C276.162,709.023,278.162,707.121,280.559,706.25z"/>
					</g>
				</g>
			</g>
			<g>
				<g>
					<g>
						<path fill="#B2EBF2" d="M269.246,738.669c1.836-0.667,3.905-0.729,5.893-0.035c4.584,1.6,7.003,6.613,5.404,11.197
							l-0.697,1.998c-1.6,4.584-6.613,7.003-11.197,5.404c-4.584-1.6-7.003-6.613-5.404-11.197l0.697-1.998
							C264.848,741.442,266.849,739.54,269.246,738.669z"/>
					</g>
				</g>
			</g>
		</g>
		<g>
			<g>
				<g>
					<g>
						<g>
							<path fill="#FFFFFF" d="M635.714,470.25c-5.945-29.819,13.409-58.812,43.228-64.757l-11.568-58.026l-465.253,92.755
								l11.568,58.026c29.819-5.945,58.812,13.409,64.757,43.228c5.945,29.819-13.409,58.812-43.228,64.756l11.568,58.026
								l465.253-92.755l-11.568-58.026C670.652,519.423,641.659,500.069,635.714,470.25z"/>
						</g>
					</g>
				</g>
				<g>
					<g>
						<g>
							<g>
								<path fill="#C5CAE8" d="M564.214,379.69c-1.64,0-3.104-1.158-3.431-2.829l-1.536-7.851
									c-0.371-1.897,0.865-3.735,2.763-4.107c1.896-0.37,3.736,0.866,4.106,2.763l1.536,7.851
									c0.371,1.897-0.865,3.735-2.763,4.107C564.663,379.669,564.436,379.69,564.214,379.69z"/>
							</g>
						</g>
					</g>
					<g>
						<g>
							<g>
								<path fill="#C5CAE8" d="M600.91,567.34c-1.641,0-3.104-1.159-3.431-2.829l-3.262-16.68
									c-0.371-1.897,0.866-3.735,2.763-4.106c1.899-0.376,3.736,0.866,4.106,2.763l3.262,16.68
									c0.371,1.897-0.866,3.736-2.763,4.106C601.359,567.318,601.133,567.34,600.91,567.34z M593.571,529.809
									c-1.641,0-3.104-1.159-3.431-2.829l-3.262-16.68c-0.371-1.897,0.866-3.736,2.763-4.106c1.899-0.372,3.736,0.866,4.106,2.763
									l3.262,16.68c0.371,1.897-0.866,3.736-2.763,4.106C594.02,529.788,593.794,529.809,593.571,529.809z M586.231,492.28
									c-1.641,0-3.104-1.159-3.431-2.829l-3.262-16.68c-0.371-1.897,0.866-3.736,2.763-4.106c1.896-0.374,3.736,0.866,4.106,2.763
									l3.262,16.68c0.371,1.897-0.866,3.736-2.763,4.106C586.68,492.259,586.454,492.28,586.231,492.28z M578.892,454.751
									c-1.641,0-3.104-1.159-3.431-2.829l-3.262-16.681c-0.371-1.897,0.866-3.736,2.763-4.106
									c1.896-0.375,3.736,0.866,4.106,2.763l3.262,16.681c0.371,1.897-0.866,3.736-2.763,4.106
									C579.342,454.729,579.115,454.751,578.892,454.751z M571.553,417.221c-1.641,0-3.104-1.159-3.431-2.829l-3.262-16.68
									c-0.371-1.897,0.866-3.736,2.763-4.107c1.897-0.369,3.736,0.867,4.106,2.763l3.262,16.68
									c0.371,1.897-0.866,3.735-2.763,4.106C572.002,417.199,571.775,417.221,571.553,417.221z"/>
							</g>
						</g>
					</g>
					<g>
						<g>
							<g>
								<path fill="#C5CAE8" d="M606.523,596.041c-1.641,0-3.104-1.159-3.431-2.829l-1.535-7.852
									c-0.371-1.897,0.866-3.736,2.763-4.106c1.897-0.374,3.736,0.866,4.106,2.763l1.535,7.852
									c0.371,1.897-0.866,3.736-2.763,4.106C606.972,596.019,606.746,596.041,606.523,596.041z"/>
							</g>
						</g>
					</g>
				</g>
				<g>
					<g>
						<g>
							<g>
								<path fill="#C5CAE8" d="M314.442,428.264c-1.635,0-3.097-1.151-3.429-2.816l-1.564-7.845
									c-0.378-1.896,0.853-3.739,2.748-4.117c1.893-0.376,3.739,0.852,4.117,2.748l1.564,7.845
									c0.378,1.896-0.853,3.739-2.748,4.117C314.9,428.242,314.669,428.264,314.442,428.264z"/>
							</g>
						</g>
					</g>
					<g>
						<g>
							<g>
								<path fill="#C5CAE8" d="M351.825,615.776c-1.635,0-3.097-1.151-3.429-2.816l-3.323-16.667
									c-0.378-1.896,0.853-3.739,2.748-4.117c1.896-0.375,3.739,0.852,4.117,2.748l3.323,16.667
									c0.378,1.896-0.853,3.739-2.748,4.117C352.283,615.754,352.052,615.776,351.825,615.776z M344.348,578.274
									c-1.635,0-3.097-1.152-3.429-2.816l-3.323-16.668c-0.378-1.896,0.853-3.739,2.749-4.117
									c1.892-0.377,3.738,0.854,4.117,2.748l3.323,16.668c0.378,1.896-0.853,3.739-2.749,4.117
									C344.805,578.252,344.575,578.274,344.348,578.274z M336.871,540.772c-1.635,0-3.097-1.152-3.429-2.816l-3.323-16.668
									c-0.378-1.896,0.853-3.739,2.749-4.117c1.894-0.375,3.739,0.853,4.117,2.748l3.323,16.668
									c0.378,1.896-0.853,3.739-2.749,4.117C337.328,540.75,337.098,540.772,336.871,540.772z M329.395,503.269
									c-1.635,0-3.097-1.152-3.429-2.816l-3.323-16.668c-0.378-1.896,0.853-3.739,2.749-4.117
									c1.895-0.377,3.738,0.854,4.117,2.748l3.323,16.668c0.378,1.896-0.853,3.739-2.749,4.117
									C329.852,503.247,329.622,503.269,329.395,503.269z M321.918,465.767c-1.635,0-3.097-1.152-3.429-2.816l-3.323-16.668
									c-0.378-1.896,0.853-3.739,2.749-4.117c1.892-0.376,3.738,0.853,4.117,2.748l3.323,16.668
									c0.378,1.896-0.853,3.739-2.749,4.117C322.375,465.745,322.145,465.767,321.918,465.767z"/>
							</g>
						</g>
					</g>
					<g>
						<g>
							<g>
								<path fill="#C5CAE8" d="M357.543,644.457c-1.635,0-3.097-1.152-3.429-2.816l-1.564-7.846
									c-0.378-1.896,0.853-3.739,2.749-4.117c1.893-0.376,3.739,0.854,4.117,2.748l1.564,7.846
									c0.378,1.896-0.853,3.739-2.749,4.117C358,644.434,357.77,644.457,357.543,644.457z"/>
							</g>
						</g>
					</g>
				</g>
				<g>
					<g>
						<g>
							<path fill="#676E8A" d="M246.783,667.26c-1.401,0-2.654-0.987-2.938-2.414l-11.569-58.026
								c-0.156-0.78,0.005-1.591,0.447-2.253c0.442-0.661,1.128-1.12,1.909-1.276c13.636-2.718,25.397-10.584,33.117-22.148
								s10.474-25.442,7.756-39.078c-4.839-24.272-26.284-41.889-50.991-41.889c-3.414,0-6.857,0.342-10.237,1.016
								c-0.78,0.154-1.591-0.005-2.252-0.447c-0.662-0.441-1.121-1.128-1.276-1.908l-11.568-58.026
								c-0.324-1.625,0.73-3.205,2.355-3.529l465.252-92.754c0.784-0.158,1.591,0.005,2.253,0.447
								c0.661,0.442,1.12,1.128,1.276,1.909l11.568,58.026c0.323,1.625-0.731,3.205-2.355,3.529
								c-13.637,2.719-25.397,10.584-33.117,22.148s-10.474,25.443-7.755,39.079c4.838,24.271,26.282,41.888,50.989,41.888
								c3.414,0,6.858-0.342,10.237-1.016c0.784-0.153,1.591,0.005,2.253,0.447c0.661,0.441,1.12,1.128,1.276,1.908l11.568,58.027
								c0.323,1.625-0.73,3.205-2.355,3.529l-465.253,92.754C247.175,667.24,246.977,667.26,246.783,667.26z M238.731,608.513
								l10.411,52.217l459.369-91.581L698.1,516.93c-2.807,0.412-5.64,0.62-8.454,0.62c-27.559,0-51.478-19.646-56.874-46.714
								c-3.032-15.208,0.04-30.687,8.649-43.584c8.052-12.062,20.047-20.517,34.007-24.041l-10.41-52.216L205.65,442.577
								l10.41,52.218c2.806-0.412,5.638-0.62,8.453-0.62c27.559,0,51.479,19.646,56.875,46.715
								c3.032,15.208-0.04,30.686-8.649,43.583C264.686,596.535,252.691,604.989,238.731,608.513z"/>
						</g>
					</g>
				</g>
			</g>
			<g>
				<g>
					<g>
						<g>
							<path fill="#FFFFFF" d="M478.716,213.303c-18.18-24.373-13.159-58.868,11.213-77.048l-35.377-47.428L74.279,372.475
								l35.377,47.428c24.373-18.18,58.868-13.159,77.048,11.213c18.18,24.373,13.159,58.868-11.213,77.048l35.377,47.428
								L591.14,271.944l-35.377-47.428C531.391,242.696,496.895,237.675,478.716,213.303z"/>
						</g>
					</g>
				</g>
				<g>
					<g>
						<g>
							<g>
								<path fill="#C5CAE8" d="M167.303,316.571c-1.067,0-2.121-0.486-2.809-1.407l-4.783-6.413
									c-1.156-1.55-0.836-3.743,0.713-4.898c1.551-1.155,3.743-0.836,4.898,0.713l4.783,6.413
									c1.156,1.549,0.836,3.743-0.713,4.898C168.764,316.345,168.031,316.571,167.303,316.571z"/>
							</g>
						</g>
					</g>
					<g>
						<g>
							<g>
								<path fill="#C5CAE8" d="M280.173,467.889c-1.067,0-2.121-0.486-2.809-1.407l-10.033-13.45
									c-1.156-1.55-0.836-3.742,0.713-4.898c1.551-1.156,3.743-0.836,4.898,0.713l10.033,13.45
									c1.156,1.55,0.836,3.742-0.713,4.898C281.634,467.664,280.9,467.889,280.173,467.889z M257.598,437.626
									c-1.067,0-2.121-0.486-2.809-1.407l-10.033-13.45c-1.156-1.55-0.836-3.742,0.713-4.898c1.551-1.155,3.743-0.835,4.898,0.713
									l10.033,13.45c1.156,1.55,0.836,3.742-0.713,4.898C259.06,437.4,258.326,437.626,257.598,437.626z M235.025,407.362
									c-1.067,0-2.121-0.486-2.809-1.407l-10.033-13.451c-1.156-1.55-0.836-3.743,0.713-4.898
									c1.551-1.154,3.743-0.836,4.898,0.713l10.033,13.451c1.156,1.55,0.836,3.742-0.713,4.898
									C236.486,407.137,235.752,407.362,235.025,407.362z M212.451,377.098c-1.067,0-2.121-0.486-2.809-1.407l-10.033-13.451
									c-1.156-1.549-0.836-3.743,0.713-4.898c1.551-1.155,3.743-0.836,4.898,0.713l10.033,13.451
									c1.156,1.549,0.836,3.743-0.713,4.898C213.912,376.872,213.179,377.098,212.451,377.098z M189.877,346.834
									c-1.067,0-2.121-0.486-2.809-1.407l-10.033-13.451c-1.156-1.55-0.836-3.743,0.713-4.898
									c1.551-1.154,3.743-0.836,4.898,0.713l10.033,13.451c1.156,1.55,0.836,3.743-0.713,4.898
									C191.338,346.608,190.604,346.834,189.877,346.834z"/>
							</g>
						</g>
					</g>
					<g>
						<g>
							<g>
								<path fill="#C5CAE8" d="M297.497,491.116c-1.067,0-2.122-0.486-2.809-1.407l-4.783-6.413
									c-1.156-1.55-0.836-3.742,0.713-4.898c1.551-1.155,3.744-0.835,4.898,0.713l4.783,6.413c1.156,1.55,0.836,3.742-0.713,4.898
									C298.958,490.89,298.224,491.116,297.497,491.116z"/>
							</g>
						</g>
					</g>
				</g>
				<g>
					<g>
						<g>
							<g>
								<path fill="#C5CAE8" d="M372.11,169.454c-1.067,0-2.121-0.486-2.809-1.407l-4.783-6.413
									c-1.156-1.55-0.836-3.743,0.713-4.898c1.55-1.155,3.743-0.836,4.898,0.713l4.783,6.413c1.155,1.549,0.836,3.743-0.713,4.898
									C373.572,169.228,372.838,169.454,372.11,169.454z"/>
							</g>
						</g>
					</g>
					<g>
						<g>
							<g>
								<path fill="#C5CAE8" d="M483.992,319.449c-1.067,0-2.121-0.486-2.809-1.407l-9.945-13.333
									c-1.155-1.549-0.837-3.743,0.713-4.898c1.549-1.155,3.743-0.836,4.898,0.713l9.945,13.333
									c1.155,1.549,0.837,3.743-0.713,4.898C485.454,319.223,484.72,319.449,483.992,319.449z M461.616,289.45
									c-1.067,0-2.121-0.486-2.809-1.407l-9.945-13.333c-1.155-1.549-0.836-3.743,0.713-4.898c1.55-1.155,3.743-0.836,4.898,0.713
									l9.945,13.333c1.155,1.549,0.836,3.743-0.713,4.898C463.078,289.224,462.344,289.45,461.616,289.45z M439.239,259.451
									c-1.067,0-2.121-0.486-2.809-1.407l-9.944-13.333c-1.155-1.55-0.836-3.743,0.713-4.898c1.55-1.155,3.742-0.836,4.898,0.713
									l9.944,13.333c1.155,1.55,0.836,3.743-0.713,4.898C440.701,259.225,439.967,259.451,439.239,259.451z M416.863,229.452
									c-1.067,0-2.121-0.486-2.809-1.407l-9.945-13.333c-1.155-1.549-0.837-3.743,0.713-4.898
									c1.549-1.155,3.743-0.836,4.898,0.713l9.945,13.333c1.155,1.549,0.837,3.743-0.713,4.898
									C418.325,229.226,417.591,229.452,416.863,229.452z M394.487,199.453c-1.067,0-2.121-0.486-2.809-1.407l-9.945-13.333
									c-1.155-1.549-0.837-3.743,0.713-4.898c1.55-1.155,3.742-0.835,4.898,0.713l9.945,13.333
									c1.155,1.549,0.837,3.743-0.713,4.898C395.949,199.227,395.215,199.453,394.487,199.453z"/>
							</g>
						</g>
					</g>
					<g>
						<g>
							<g>
								<path fill="#C5CAE8" d="M501.207,342.528c-1.067,0-2.121-0.486-2.809-1.407l-4.783-6.413
									c-1.155-1.55-0.836-3.743,0.713-4.898c1.55-1.155,3.742-0.836,4.898,0.713l4.783,6.413c1.155,1.549,0.836,3.743-0.713,4.898
									C502.669,342.302,501.934,342.528,501.207,342.528z"/>
							</g>
						</g>
					</g>
				</g>
				<g>
					<g>
						<g>
							<path fill="#676E8A" d="M210.866,558.592c-0.144,0-0.288-0.011-0.432-0.031c-0.787-0.114-1.497-0.537-1.973-1.175
								l-35.376-47.428c-0.991-1.328-0.717-3.208,0.611-4.198c23.007-17.162,27.764-49.842,10.602-72.85
								c-9.924-13.305-25.148-20.935-41.769-20.935c-11.271,0-22.019,3.573-31.081,10.332c-0.638,0.476-1.436,0.68-2.226,0.564
								c-0.787-0.114-1.497-0.537-1.973-1.175l-35.376-47.428c-0.991-1.328-0.717-3.208,0.611-4.199L452.759,86.423
								c0.638-0.475,1.439-0.679,2.226-0.564c0.788,0.115,1.497,0.537,1.973,1.175l35.376,47.428
								c0.991,1.328,0.718,3.208-0.61,4.198c-11.146,8.313-18.386,20.469-20.389,34.229c-2.002,13.759,1.474,27.475,9.786,38.62
								c9.924,13.305,25.148,20.935,41.77,20.935c11.271,0,22.018-3.573,31.08-10.333c0.638-0.475,1.442-0.677,2.226-0.564
								c0.788,0.115,1.497,0.537,1.973,1.175l35.376,47.428c0.991,1.328,0.718,3.208-0.61,4.198L212.66,557.996
								C212.138,558.386,211.509,558.592,210.866,558.592z M179.642,508.714l31.834,42.68l375.464-280.061l-31.834-42.679
								c-9.569,6.415-20.646,9.79-32.218,9.79c-18.534,0-35.511-8.51-46.578-23.347c-9.272-12.43-13.148-27.727-10.915-43.072
								c2.089-14.352,9.287-27.139,20.379-36.319l-31.834-42.679L78.477,373.086l31.834,42.679c9.57-6.415,20.646-9.79,32.218-9.79
								c18.533,0,35.511,8.51,46.578,23.347C207.645,454.176,203.252,489.148,179.642,508.714z"/>
						</g>
					</g>
				</g>
			</g>
		</g>
	</g>
</g>
</svg>
