<?xml version="1.0" encoding="utf-8"?>
<!-- Generator: Adobe Illustrator 17.0.0, SVG Export Plug-In . SVG Version: 6.00 Build 0)  -->
<!DOCTYPE svg PUBLIC "-//W3C//DTD SVG 1.1//EN" "http://www.w3.org/Graphics/SVG/1.1/DTD/svg11.dtd" [
	<!ENTITY ns_flows "http://ns.adobe.com/Flows/1.0/">
	<!ENTITY ns_extend "http://ns.adobe.com/Extensibility/1.0/">
	<!ENTITY ns_ai "http://ns.adobe.com/AdobeIllustrator/10.0/">
	<!ENTITY ns_graphs "http://ns.adobe.com/Graphs/1.0/">
	<!ENTITY ns_vars "http://ns.adobe.com/Variables/1.0/">
	<!ENTITY ns_imrep "http://ns.adobe.com/ImageReplacement/1.0/">
	<!ENTITY ns_sfw "http://ns.adobe.com/SaveForWeb/1.0/">
	<!ENTITY ns_custom "http://ns.adobe.com/GenericCustomNamespace/1.0/">
	<!ENTITY ns_adobe_xpath "http://ns.adobe.com/XPath/1.0/">
]>
<svg version="1.1" id="Capa_1" xmlns:x="&ns_extend;" xmlns:i="&ns_ai;" xmlns:graph="&ns_graphs;"
	 xmlns="http://www.w3.org/2000/svg" xmlns:xlink="http://www.w3.org/1999/xlink" xmlns:a="http://ns.adobe.com/AdobeSVGViewerExtensions/3.0/"
	 x="0px" y="0px" width="800px" height="600px" viewBox="0 0 800 600" enable-background="new 0 0 800 600" xml:space="preserve">
<metadata><?xpacket begin="﻿" id="W5M0MpCehiHzreSzNTczkc9d"?>
<x:xmpmeta xmlns:x="adobe:ns:meta/" x:xmptk="Adobe XMP Core 5.5-c014 79.151739, 2013/04/03-12:12:15        ">
   <rdf:RDF xmlns:rdf="http://www.w3.org/1999/02/22-rdf-syntax-ns#">
      <rdf:Description rdf:about=""
            xmlns:dc="http://purl.org/dc/elements/1.1/"
            xmlns:xmp="http://ns.adobe.com/xap/1.0/"
            xmlns:xmpGImg="http://ns.adobe.com/xap/1.0/g/img/"
            xmlns:xmpMM="http://ns.adobe.com/xap/1.0/mm/"
            xmlns:stRef="http://ns.adobe.com/xap/1.0/sType/ResourceRef#"
            xmlns:stEvt="http://ns.adobe.com/xap/1.0/sType/ResourceEvent#"
            xmlns:illustrator="http://ns.adobe.com/illustrator/1.0/"
            xmlns:xmpTPg="http://ns.adobe.com/xap/1.0/t/pg/"
            xmlns:stDim="http://ns.adobe.com/xap/1.0/sType/Dimensions#"
            xmlns:xmpG="http://ns.adobe.com/xap/1.0/g/"
            xmlns:pdf="http://ns.adobe.com/pdf/1.3/">
         <dc:format>image/svg+xml</dc:format>
         <dc:title>
            <rdf:Alt>
               <rdf:li xml:lang="x-default">LANDINGPAGE---IMAGENESIDEAS</rdf:li>
            </rdf:Alt>
         </dc:title>
         <xmp:CreatorTool>Adobe Illustrator CC (Windows)</xmp:CreatorTool>
         <xmp:CreateDate>2017-08-15T21:50:54-05:00</xmp:CreateDate>
         <xmp:ModifyDate>2017-08-15T21:50:54-05:00</xmp:ModifyDate>
         <xmp:MetadataDate>2017-08-15T21:50:54-05:00</xmp:MetadataDate>
         <xmp:Thumbnails>
            <rdf:Alt>
               <rdf:li rdf:parseType="Resource">
                  <xmpGImg:width>256</xmpGImg:width>
                  <xmpGImg:height>116</xmpGImg:height>
                  <xmpGImg:format>JPEG</xmpGImg:format>
                  <xmpGImg:image>/9j/4AAQSkZJRgABAgEBLAEsAAD/7QAsUGhvdG9zaG9wIDMuMAA4QklNA+0AAAAAABABLAAAAAEA&#xA;AQEsAAAAAQAB/+4ADkFkb2JlAGTAAAAAAf/bAIQABgQEBAUEBgUFBgkGBQYJCwgGBggLDAoKCwoK&#xA;DBAMDAwMDAwQDA4PEA8ODBMTFBQTExwbGxscHx8fHx8fHx8fHwEHBwcNDA0YEBAYGhURFRofHx8f&#xA;Hx8fHx8fHx8fHx8fHx8fHx8fHx8fHx8fHx8fHx8fHx8fHx8fHx8fHx8fHx8f/8AAEQgAdAEAAwER&#xA;AAIRAQMRAf/EAaIAAAAHAQEBAQEAAAAAAAAAAAQFAwIGAQAHCAkKCwEAAgIDAQEBAQEAAAAAAAAA&#xA;AQACAwQFBgcICQoLEAACAQMDAgQCBgcDBAIGAnMBAgMRBAAFIRIxQVEGE2EicYEUMpGhBxWxQiPB&#xA;UtHhMxZi8CRygvElQzRTkqKyY3PCNUQnk6OzNhdUZHTD0uIIJoMJChgZhJRFRqS0VtNVKBry4/PE&#xA;1OT0ZXWFlaW1xdXl9WZ2hpamtsbW5vY3R1dnd4eXp7fH1+f3OEhYaHiImKi4yNjo+Ck5SVlpeYmZ&#xA;qbnJ2en5KjpKWmp6ipqqusra6voRAAICAQIDBQUEBQYECAMDbQEAAhEDBCESMUEFURNhIgZxgZEy&#xA;obHwFMHR4SNCFVJicvEzJDRDghaSUyWiY7LCB3PSNeJEgxdUkwgJChgZJjZFGidkdFU38qOzwygp&#xA;0+PzhJSktMTU5PRldYWVpbXF1eX1RlZmdoaWprbG1ub2R1dnd4eXp7fH1+f3OEhYaHiImKi4yNjo&#xA;+DlJWWl5iZmpucnZ6fkqOkpaanqKmqq6ytrq+v/aAAwDAQACEQMRAD8A9U4qgtV1IWUIIHKV6hFP&#xA;TbqTluLHxFw9ZqvBj/SKQnXdUJqJqewVf4jMrwIdzpj2jm7/ALA1+nNU/wB//wDCp/TD4EO5H8oZ&#xA;v532D9SFvvOEtj6X1y9WBZmKRu6qF5AE0LceI2Hc4PBh3M4azUS5G/gFSz80Xl7ax3Vtc84JRyjf&#xA;0wtRWlaMoOPgw7kT12eJonf3BW/Tmqf7/wD+FT+mHwIdzH+UM3877B+p36c1T/f/APwqf0x8CHcv&#xA;8oZv532D9Tv05qn+/wD/AIVP6Y+BDuX+UM3877B+p36c1T/f/wDwqf0x8CHcv8oZv532D9Tv05qn&#xA;+/8A/hU/pj4EO5f5QzfzvsH6nfpzVP8Af/8Awqf0x8CHcv8AKGb+d9g/U79Oap/v/wD4VP6Y+BDu&#xA;X+UM3877B+p36c1T/f8A/wAKn9MfAh3L/KGb+d9g/U79Oap/v/8A4VP6Y+BDuX+UM3877B+p36c1&#xA;T/f/APwqf0x8CHcv8oZv532D9TT65qxRgtxRiDxPBNj/AMDj4EO5I7QzfzvsH6mA+XrTWLTVdPnj&#xA;s57TU7d5G1bU3dXS4Vw1RWrepzYgio+HCYA7OTPWEXIS58h1+LP/ANOap/v/AP4VP6YPAh3OL/KG&#xA;b+d9g/U79Oap/v8A/wCFT+mPgQ7l/lDN/O+wfqd+nNU/3/8A8Kn9MfAh3L/KGb+d9g/U79Oap/v/&#xA;AP4VP6Y+BDuX+UM3877B+p36c1T/AH//AMKn9MfAh3L/AChm/nfYP1O/Tmqf7/8A+FT+mPgQ7l/l&#xA;DN/O+wfqd+nNU/3/AP8ACp/THwIdy/yhm/nfYP1O/Tmqf7//AOFT+mPgQ7l/lDN/O+wfqSPzF+Yt&#xA;/oksKTAyi5UiEqYVJkBA4sGAou/2sBww7nJwajPkBqXLyH6k7j17Viis0vFiAWXihofCtMfAh3OO&#xA;e0M3877B+pOtH1drzlFKAJlFQR0YZj5sXDuOTtNDrfF9MvqTPKHYuxV2KuxVI/M1vIRFOASi1Vva&#xA;vTMrTS5h0/auMmpdEgzLdK7FUv1nRbbV4Y7e6d/qqvzlhQ8RJQfCGI3oDvtgbcWUwNjmibC0NnZw&#xA;2vqvMIV4LLJQuQOlaAdBthYTlxEnkr4sXYq7FXYq7FXYq7FXYq7FXYq7FXYq7FXYq7FXYq7FXYq7&#xA;FXYqhrjTNPuZGkuLeOWRozCWdQT6ZNSu/bFnHJIbAohEVEVEHFVACgdABsMWBKb+XLeRrwzU/dxq&#xA;QT7ntmPqJbU7PsvGTk4ugZLmE792KuxV2KtMqspVgGU7EHcEYoIBFFBnRtMJJMAqfAsP1HLfGl3u&#xA;KdDhP8P3tfoTS/8AfA/4Jv64+NLvR+Qw/wA373foTS/98D/gm/rj40u9fyGH+b97v0Jpf++P+Gb+&#xA;uPjT71/IYf5v3pRrWkx2qrPBURMeLId6HtQ+GZGHKZbF1ev0QxjijySLUL6CwsZ7yc0igQu9OpoO&#xA;g9zmQ6+EDKQA6ojRfIKanbJqHmkvczzgSR6WrslvbqwqEKoVMj0+0WzCyZyTs9Np9JDGOW6bf8q3&#xA;8i/9Wa3+4/1yrxJd7kcId/yrfyL/ANWa3+4/1x8SXevCHf8AKt/Iv/Vmt/uP9cfEl3rwh3/Kt/Iv&#xA;/Vmt/uP9cfEl3rwh3/Kt/Iv/AFZrf7j/AFx8SXevCHf8q38i/wDVmt/uP9cfEl3rwh3/ACrfyL/1&#xA;Zrf7j/XHxJd68Id/yrfyL/1Zrf7j/XHxJd68Id/yrfyL/wBWa3+4/wBcfEl3rwh3/Kt/Iv8A1Zrf&#xA;7j/XHxJd68Id/wAq38i/9Wa3+4/1x8SXevCHf8q38i/9Wa3+4/1x8SXevCEPeflj5XeMtpsL6TeD&#xA;+6u7N3QgjpyQng48QRko5pBjPDGQohIdKur1murDUAo1LTpfQuimyvsGSVR2EiEHM6ErFvN6vT+F&#xA;OhyR+ScV2Ko/SNNF7MwclYowC5HUk9BlWXJwhzNFpfFlv9IT4aHpYH9x/wAM39cxPGn3u6HZ+H+b&#xA;9pb/AEJpf++B/wAE39cfGl3r+Qw/zfvRccUcSBI1CIOigUGVkk83KhARFAUF2Bk7FXYq0zog5MwU&#xA;eJNBiAgyA5rPrVt/v1P+CGS4T3MPGh3j5u+tW3+/U/4IY8J7l8aHePm761bf79T/AIIY8J7l8aHe&#xA;Pm761bf79T/ghjwnuXxod4+bRurUCpmQD/WH9ceE9y+NDvHzSXXtSgliW2hYPvydxuNugB75k4MZ&#xA;Bsup7R1cZDgibYN54kaPyveulOQ9Kldx/fIMyTycHRf3o/HRmn6H89f9TJb/APcOH/VfNdce56ai&#xA;79D+ev8AqZLf/uHD/qvjce5aLv0P56/6mS3/AO4cP+q+Nx7lou/Q/nr/AKmS3/7hw/6r43HuWi79&#xA;D+ev+pkt/wDuHD/qvjce5aLv0P56/wCpkt/+4cP+q+Nx7lou/Q/nr/qZLf8A7hw/6r43HuWii/J2&#xA;qXereWNN1G7Km5uYQ8pUcV5VI2GCYo0kHZOcil2KuxV2KuxV2KvPLr/lNfMHys/+TGZ2n+l0fa31&#xA;RQ1x5j0G2maGfULeOVDR0aRag+BFdsuddHBMiwCr2Oq6bfhjZXUVxw+36bhiK9K0wsZ45R5ik+0L&#xA;UIrWZ0mPGOUD4/AjpX78oz4zIbOb2fqY45ES5FkQu7RhUTRkeIYf1zD4D3O9GaB/iHzb+tW3+/U/&#xA;4IY8J7k+NDvHzd9atv8Afqf8EMeE9y+NDvHzd9atv9+p/wAEMeE9y+NDvHzd9atv9+p/wQx4T3L4&#xA;0O8fNero45KwYeINRkSGYkDyYdfXst3O0jk8angnZRmyhARFPK6jPLLKyhsm0OxV2KuxV2KuxVh3&#xA;mw6zf6Hr9xFJAmkabNb28kZRjNI7NExowPEcWkHbplUp707rRaSPCMnV7Zmvdw7FXYq7FXYq7FXY&#xA;qxv8t/8AlBdG/wCYcfrOTyfUWMeTJMgydirsVdirsVSPzZ5gu9GtbI2dot5d395HZQRPJ6ShpFdg&#xA;S1G/kycI2gmmF6joX5jXV9qt7FptrBNqUcaKVugTEY4/TDKSgqe+XwyxiKcPUaXxZAnohf0H5r0H&#xA;RZZToVktrYwPNO4uQzssSFnY/u/iY0ywZ4nZxsnZ8pGzJT1aKGOXR9YtUEFzJcQQS8ducNyQrI9K&#xA;cqVBFcuddiJIlA7ij8wyPC4jsVdirsVdirsVRNjey2k6yITxqOadmGQnASFN+nzyxSsKuo6XcWsr&#xA;UQtATVHAqKeB98jjyiQ82zVaOWOR29KU3mo2Fk0a3lxHbtKaRiVwnI+3IjLLceOKR5Aorg/8p+7G&#xA;2PCWiCOu2FCHv762sLOW8uW4QQrydqV2+QxZQgZGhzU7Pyp5u1O0Orm9/Rd09DY6VKoeL0uv+k0+&#xA;IO/+T9j3zFlqKPk77H2bDgo80HJrd3ZTfUtV0y6g1PpHbwRPcLP7wOgKsPnSmXDJEi3X5OzcglQ3&#xA;CzWdNvrP8p9elvrdrW4v70XfoSU5qj3UKxh6FqHgg2zH4gcmzusWPgxiPc9VzGch2KuxV2KuxV2K&#xA;uxVjf5b/APKC6N/zDj9ZyeT6ixjyZJkGTsVdirsVdirFfPv975Y/7btr/wAm5csx9fcxkyrK2ST+&#xA;c/8AlD9d/wC2fdf8mHyUPqCDyedav/xx9F/5i7D/AImubJ5jF9cvdJkWFxXYqu4P/KfuwWnhLuD/&#xA;AMp+7G14S7g/8p+7G14S7g/8p+7G14SjNO0u4upVqhWAGruRQU8B75XkyiI83K0ujlkkNvSy3Ne9&#xA;Ownzz+Xt15i1KO9tryKAtamxuEuIRMBGZPU9SKv2ZN6V/EZbDJwhjKNswsrVLSzgtUZmS3jSJWY1&#xA;YhFCgk+O2Vksl09vDPGY5VDoex/hjGRBsMMmOMxUhYYRqdhA/wBZsZ1EsDconVujL0zZRNi3lZg4&#xA;5kD+EqvkbWrq1uj5X1J2lkhQy6TdtUmW2U0Mbn+eKoHuKfTiZ8dbh6LR6kZY+bNsx3Leffmz5l0E&#xA;+VtS0db6J9Tf0aWqHm44XEbNy41C7D9qmXYom7YTIp6DlLN2KuxV2KuxV2KuxVjf5b/8oLo3/MOP&#xA;1nJ5PqLGPJkmQZOxV2KuxV2KsV8+/wB75Y/7btr/AMm5csx9fcxkyrK2ST+c/wDlD9d/7Z91/wAm&#xA;HyUPqCDyedav/wAcfRf+Yuw/4mubJ5jF9cvdJkWFxWTW8I0/RpLqCH17oQNMEH2nYLyVB169MwMs&#xA;zKVdHpdFgjDGCOZDEfy68865r2rSWt7JBdQNafWpHt4pI/qs3q8Pq8hfZjx3+jHJAAOVGVvQ8pZu&#xA;xV2KuxVRuLy1tgDPIEr0B6n6BvkowJ5NWXPDH9RpD/pvS/8Af4/4Fv6ZPwZdzR+fw/zvvd+m9L/3&#xA;+P8AgW/pj4Mu5fz+H+d96lceYLCOMmJjLJ+yoBAr7kgZKOCR5teXtLGB6dywaDVtb1gtcaRo1xeR&#xA;yMxF3M0dtAxDEEqznkwr4LmSckY7OBHs7JM8UjzZB5S8sapaanc6zrPoi+liW2toLdmdIYQebgsy&#xA;rVnalaDtmLly8XJ22l0wxRpvz/ql7FbWWj2Ept7vV5HRrhNnit4l5TOh7Nuqg++OGFllqc3hwMmD&#xA;+btOstP8l3lvaRLFGPR2HUn103Yndj7nM0jZ0WmyynmBke/7nseax6R2KuxV2KuxV2KuxVjf5b/8&#xA;oLo3/MOP1nJ5PqLGPJkmQZOxV2KuxV2KsV8+/wB75Y/7btr/AMm5csx9fcxkyrK2ST+c/wDlD9d/&#xA;7Z91/wAmHyUPqCDyedawQNG0Zjsq3dgST0A5rmyeYxfXL3SZFhcVN9N82aTFCLa8uo43i+EMWB2G&#xA;1CBuCMxMuEk2HeaPWgREZg7daRi+afK61K38C8jVqGlSe5yrwZdzm/nMff8AYf1Lv8WeW/8Aq4w/&#xA;8Fj4Mu5fzmPv+w/qVovMGjSpziulkQ9GUMR94GPgy7mJ12Icz9hXjWtMJp6438Qw/hj4Mu5Rr8P8&#xA;770Yjq6hkIZTuGG4OVEOUCCLDC7ueSe5klc/EzHbwHYfRmzhGhTyebIZzMio5JqdirsVQvlbzXL5&#xA;e0e30rVNJvAtsXAvLZUuI2DSM/Iqjeov2v5cxMmEk2HpcWtxEVbM9D8yaNrkMkumXHrCFgsyFXjd&#xA;GIqAyOFYfdmPKJHNzIyB5Mc/MANb6roGpPtaxvcWcz9la6VDGT4AtDx+nLtOd3E1+MyxEBjPn3/l&#xA;E775w/8AJ9MzDydHov70fH7nreat6h2KuxV2KuxV2KuxVjf5b/8AKC6N/wAw4/Wcnk+osY8mSZBk&#xA;7FXYq7FXYqxXz7/e+WP+27a/8m5csx9fcxkyrK2ST+c/+UP13/tn3X/Jh8lD6gg8mFNp1vqOgR2V&#xA;xX05oIxyXZlIUFWU+KkVGbJ5PxDCdjvQsLecLaMQvDaXvDZbkyvCzgdCycHAbxocWw+Ed9x5Jt+W&#xA;vlvy/f8AlaO51DSbO5u3uLn1JZYIpWqJ3FObrUgdBmFmkRLm9JiA4Qyn/Bnk/wD6sWn/APSLB/zR&#xA;lXHLvbKDv8GeT/8Aqxaf/wBIsH/NGPHLvWgwnRbe3trnWYLeJIYItTuVjijUKiqCtAqigAzPxH0h&#xA;57tL+9+CZ5Y69PvLM8h9WAklAAy+x6H78xNTHkXc9k5DvHo7UtAleZprWhDmrRk0IJ8O2OPOAKK6&#xA;rs2RkZQ69EF+gdT/AN9D/gl/rlvjxcP+Ts3d9od+gdT/AN9D/gl/rj48V/k7N3faHfoHU/8AfQ/4&#xA;Jf64+PFf5Ozd32h36B1P/fQ/4Jf64+PFf5Ozd32hKvKkV0/nrUJ7Mf6Fb24tNVkrWN7lW5RqlNi8&#xA;akhj2rTrlWeQIDtez8M8cSJM21LTbHU7GawvohPa3ClJY27g+43BHUEdMxgadgQ8u8/+Uta0jypf&#xA;FNSS90iMw/BcoRdIpmQIolU8ZKGlSyg5lQzXs4R0cBPjHN61mI5rsVdirsVdirsVdirG/wAt/wDl&#xA;BdG/5hx+s5PJ9RYx5MkyDJ2KuxV2KuxVivn3+98sf9t21/5Ny5Zj6+5jJlWVskn85/8AKH67/wBs&#xA;+6/5MPkofUEHkxXTQP0da7/7pj/4iM2TyOT6j70RQeOFglEnlDyzJI0j6fCXclmNDuSanA3jU5B/&#xA;E6PyP5alcRx6ZEztsFANcBoM458sjQJJRv8Ayq/Sv+rRB94/5qyvxoOX4Gq/BCY2HlCawg+r2dok&#xA;ENS3BGUCp6nrj48GqehzyNkX8QiV0DUyQDGAPEsP4Y+PFiOzc3d9qe6Vpq2MTAtylehdh026AZi5&#xA;cnEXc6PSjDHvJRuVOW7FUn82a7JoWiS6okccot2QyQyP6ZdCwDLGaGrmvwjvkoRs0gmlvlHzBJr+&#xA;kDUmiSBZJZFihV+boiNxAl/lk23XtjONGlBtEeZIdYm0K+i0aRYtTeIi1kbYBj4Hs1K8T2OMavdS&#xA;k3lXW/K2neVl4ONMg0391fwXbBZop+riXpyd2qQQPi7eGSnEkoBFICT8xNWuJvX0nRGuNLX/AHZP&#xA;ILeeYfzRRsDRR25kV9stGnNOJk1+OMqtR8869aa5+Vup31skkS+pFFJDMoWRJI7uNXVgCwqD4HIQ&#xA;iYzouSZCUbD0DKWx2KuxV2KuxV2KuxVjf5b/APKC6N/zDj9ZyeT6ixjyZJkGTsVdirsVdirFfPv9&#xA;75Y/7btr/wAm5csx9fcxkyrK2ST+c/8AlD9d/wC2fdf8mHyUPqCDyYppv/HPtf8AjDH/AMRGbN5D&#xA;J9R96IxYuxVOvLKRmeZz/eKoC/Ik1/UMxtSdg7bsmI4pHqyHMN3jsVdirsVdirsVUbwWno+pdIjx&#xA;xESDmoajKaqRX9oHphiCTQYZJiETI8gki+YIIWk+rWaosjl3IopZm6s3EdTmV+W7y6mXa2+0dveu&#xA;/wATyf8ALOP+CP8ATH8t5sf5WP8AN+1gnmvU9C1HV4ZbWGzuPMkskdnaJyDUkduKtMAaH0/Eio6Z&#xA;ZGIgEieXPIAjhgyX/lXHly30+S61qe6v7mGNpZ717iaLjxUljHHE6IqjegocxjmkTs7OOnhEUAwS&#xA;O9jT8sPMthMTDM17BdW1vNIGmMF09vNHyJALtxNWOWH6wUgARp7hmK3OxV2KuxV2KuxV2Ksb/Lf/&#xA;AJQXRv8AmHH6zk8n1FjHkyTIMnYq7FXYq7FWGfmTfJbHy7wje5uU1aG4SzgHKeRIY5OfBKitCwHh&#xA;vluMc/cxkiZfN3mO0hN3feVrpLNQWka3nguJlXsTCrKfnQ7YOAd62e5AfXfN/nDy7O+npp1lpepw&#xA;Swp6sklxPwkUxnkYuKI2/T4qHYjDUYndG5CVRy6lpE9tpWuWy20kgEVneRP6ltOyj7IYhWR/8lhv&#xA;2zMhkEuToNXoZQuQ3CZ5Y69BaxqsOlWRvJ43eBGUSmMAlFY05kEjYe2BsxYzM0Oav5d15rm3j1K1&#xA;jeKOQt6aygAugNKkAnZsjKIkKLbGUsGTY7hkX+J5P+Wcf8Ef6ZR+WHe538rH+b9rv8Tyf8s4/wCC&#xA;P9Mfy3mv8rH+b9rh5neu9uKf639mP5bzT/Kx/m/am9jfQ3kPqR7EbOh6g5jzgYmi7PT6iOWNhEZB&#xA;vdiqWeYlc6fVeiupf5bj9dMv0/1Ou7TB8LbvYvmc88lXmm4lg0G6kjlMJPBGmXqiSSKjuP8AVRic&#xA;B5ORpIiWQA8mTah5PtYbXRBoFtDENLvYLjjsvqQ0McpL/tNxflU9SM14nzt6iu5k11bQXVtNa3CC&#xA;S3nRopoz0ZHHFlPzBysFkwf80tA0OHyTf3cWn2y3cCW0cN0Ik9ZUWaOMKJKc6BPh69MtxSPEwmNm&#xA;eZUzdirsVdirsVdirsVY3+W//KC6N/zDj9ZyeT6ixjyZJkGTsVdirsVQmratp+k2Et/qEwgtYRV5&#xA;DU9dgABuSTsAMIBJoIJY/wCWILrUvMGpeZb2ymtUljhtdIjulVJUt1XlIeALFPUkNd+2TlsKQO9l&#xA;eVsko0jy9HpeqandWspWz1FkmNkFokc4BEsin/iz4ajxGSMrCAF/mjRE1rQbzTjQSyxk20h24TL8&#xA;UTg9RxcDpjCVG1kLFMGuz5o0a1W71qzglsFoLm8sZWlMJrxLSRsiGgP2itaZmxzAmnSZuyyBcSib&#xA;ywsdQhRLqNZ4VZZUUmqll3UmmzD57Zc6yE5RO2zdjp9nYQehaRCGHkz+mtaAsamgPTfsMUTmZGyi&#xA;MWLsVdiqd+WFf1Z2/wB18QD867Zi6nkHb9kg3I9GQZiO7diqRy+XdSkv2uG128+rNLzNjwtjFw5V&#xA;9LeLlxpt1r75MTroxMb2PJLrzyDLNcyzQ65e28cjFlgRYCqAn7Kloy1B7nLRqC4n8n4u5DzfltNN&#xA;E8UvmC9eKQFXRktiCDsQR6eP5gqNDjBsD8fNMPLHk+80B1RNbu7ywjj9OKyuAjIvShDU5CgGwGVy&#xA;mD0csRI6sko/iPu/tytO6WeZdAi1/RLnSZ5mhiuQnKWMDkCjrIKVqOq5KMqNoIJSX/BfmL/qbtQ/&#xA;4CH/AJpyfGO5HCe93+C/MX/U3ah/wEP/ADTjxjuXhPe7/BfmL/qbtQ/4CH/mnHjHcvCe93+C/MX/&#xA;AFN2of8AAQ/8048Y7l4T3u/wX5i/6m7UP+Ah/wCaceMdy8J73f4L8xf9TdqH/AQ/8048Y7l4T3u/&#xA;wX5i/wCpu1D/AICH/mnHjHcvCe92neRdT06xhsrTzNfRW0C8Io1jtqAeA5RsfxxOQHovCe9Ef4U1&#xA;7/qab/8A5F2v/VLBxjuXhPe7/Cmvf9TTf/8AIu1/6pY8Y7l4T3u/wpr3/U03/wDyLtf+qWPGO5eE&#xA;97v8Ka9/1NN//wAi7X/qljxjuXhPek2p6NeWvmvyzBqurXGp2E088gjuREsa3MMJaD+7RKmpYivc&#xA;ZISFGgtG92f5SzdirsVUNQnuYLC4ntoDc3MUbvDbggGR1UlUqaAVO2EKxeKKDyx+Xzw6y6vO0Mpu&#xA;o61MtzdFnaJKfaLPJxFMn9UtmPIIjy95S+r6Dp0F5I4uoraJJ1FNnCAMv0HbLTqC6+fZkJEkk7ph&#xA;/hq0/wB+P+H9MH5ksf5Kh3l3+GrT/fj/AIf0x/Mlf5Kh3l3+GrT/AH4/4f0x/Mlf5Kh3lw8tWdd5&#xA;JKfR/TH8zJf5Kx95TO2tobaIRQrxQb/M+JymUiTZdhixRxxqI2VMi2OxV2KuxV2KuxV2KuxV2Kux&#xA;V2KuxV2KuxV2KuxV2KuxVIfN/wDhX6jD/iP/AHl9X9z/AH395xP++d+leuThfRBrqxT/AJAz/n9e&#xA;yz1sdlS1/wCVO/XrT0eP1r14/qnL65/fcv3dOfw1rgPGuz0XKWbsVdirsVeceYP+VSfpuT9M/WP0&#xA;p6zUr+k/73lv6XD4OvTht4ZdHjrb9DA0t/5BP/2sP+5zh9f4pdnf8gn/AO1h/wBznH1/il2Z7e/W&#xA;P0RN9Q9T6x6DfVacfU58Pg/v/h5V/n+nKRz3ZMQ0T/lY/wClrX9JfXvqPP8A0j1P0Vw4/wCV6P7y&#xA;n+rvlkuGtv0sRbO8qZuxV//Z</xmpGImg:image>
               </rdf:li>
            </rdf:Alt>
         </xmp:Thumbnails>
         <xmpMM:RenditionClass>proof:pdf</xmpMM:RenditionClass>
         <xmpMM:OriginalDocumentID>uuid:65E6390686CF11DBA6E2D887CEACB407</xmpMM:OriginalDocumentID>
         <xmpMM:DocumentID>xmp.did:b44d260e-4f70-4d4b-ad25-68de881e64a2</xmpMM:DocumentID>
         <xmpMM:InstanceID>xmp.iid:b44d260e-4f70-4d4b-ad25-68de881e64a2</xmpMM:InstanceID>
         <xmpMM:DerivedFrom rdf:parseType="Resource">
            <stRef:instanceID>xmp.iid:98ee0810-9b50-f247-8bff-9103c91c6f6e</stRef:instanceID>
            <stRef:documentID>xmp.did:98ee0810-9b50-f247-8bff-9103c91c6f6e</stRef:documentID>
            <stRef:originalDocumentID>uuid:65E6390686CF11DBA6E2D887CEACB407</stRef:originalDocumentID>
            <stRef:renditionClass>proof:pdf</stRef:renditionClass>
         </xmpMM:DerivedFrom>
         <xmpMM:History>
            <rdf:Seq>
               <rdf:li rdf:parseType="Resource">
                  <stEvt:action>saved</stEvt:action>
                  <stEvt:instanceID>xmp.iid:37ef2abf-b31e-aa40-9c39-3af3ec833183</stEvt:instanceID>
                  <stEvt:when>2017-08-08T12:28:43-05:00</stEvt:when>
                  <stEvt:softwareAgent>Adobe Illustrator CC (Windows)</stEvt:softwareAgent>
                  <stEvt:changed>/</stEvt:changed>
               </rdf:li>
               <rdf:li rdf:parseType="Resource">
                  <stEvt:action>saved</stEvt:action>
                  <stEvt:instanceID>xmp.iid:b44d260e-4f70-4d4b-ad25-68de881e64a2</stEvt:instanceID>
                  <stEvt:when>2017-08-15T21:50:54-05:00</stEvt:when>
                  <stEvt:softwareAgent>Adobe Illustrator CC (Windows)</stEvt:softwareAgent>
                  <stEvt:changed>/</stEvt:changed>
               </rdf:li>
            </rdf:Seq>
         </xmpMM:History>
         <illustrator:StartupProfile>Web</illustrator:StartupProfile>
         <xmpTPg:NPages>1</xmpTPg:NPages>
         <xmpTPg:HasVisibleTransparency>False</xmpTPg:HasVisibleTransparency>
         <xmpTPg:HasVisibleOverprint>False</xmpTPg:HasVisibleOverprint>
         <xmpTPg:MaxPageSize rdf:parseType="Resource">
            <stDim:w>28.222222</stDim:w>
            <stDim:h>21.166667</stDim:h>
            <stDim:unit>Centimeters</stDim:unit>
         </xmpTPg:MaxPageSize>
         <xmpTPg:PlateNames>
            <rdf:Seq>
               <rdf:li>Cyan</rdf:li>
               <rdf:li>Magenta</rdf:li>
               <rdf:li>Yellow</rdf:li>
               <rdf:li>Black</rdf:li>
            </rdf:Seq>
         </xmpTPg:PlateNames>
         <xmpTPg:SwatchGroups>
            <rdf:Seq>
               <rdf:li rdf:parseType="Resource">
                  <xmpG:groupName>Grupo de muestras por defecto</xmpG:groupName>
                  <xmpG:groupType>0</xmpG:groupType>
               </rdf:li>
            </rdf:Seq>
         </xmpTPg:SwatchGroups>
         <pdf:Producer>Adobe PDF library 10.01</pdf:Producer>
      </rdf:Description>
   </rdf:RDF>
</x:xmpmeta>
                                                                                                    
                                                                                                    
                                                                                                    
                                                                                                    
                                                                                                    
                                                                                                    
                                                                                                    
                                                                                                    
                                                                                                    
                                                                                                    
                                                                                                    
                                                                                                    
                                                                                                    
                                                                                                    
                                                                                                    
                                                                                                    
                                                                                                    
                                                                                                    
                                                                                                    
                                                                                                    
                           
<?xpacket end="w"?>
	</metadata>
<g id="Capa_6" display="none">
</g>
<g id="Capa_5">
</g>
<g id="Capa_4">
	<g>
		<g>
			<g>
				<g>
					<g>
						<g>
							<g>
								<path fill="#B2EBF2" d="M768.672,220.448H31.329l0,0l0,0c-13.018,0-23.572,10.554-23.572,23.572
									c0,13.018,10.554,23.572,23.572,23.572l0,0l0,0h737.343c13.018,0,23.572-10.554,23.572-23.572
									S781.69,220.448,768.672,220.448z"/>
							</g>
						</g>
					</g>
				</g>
				<g>
					<g>
						<g>
							<g>
								<path fill="#B2EBF2" d="M768.672,268.664H31.329c-13.589,0-24.644-11.055-24.644-24.644s11.055-24.643,24.644-24.643
									h737.342c13.589,0,24.644,11.055,24.644,24.643C793.315,257.609,782.259,268.664,768.672,268.664z M31.329,221.52
									c-12.407,0-22.501,10.094-22.501,22.5c0,12.407,10.094,22.501,22.501,22.501h737.342c12.407,0,22.501-10.094,22.501-22.501
									s-10.094-22.5-22.501-22.5L31.329,221.52L31.329,221.52z"/>
							</g>
						</g>
					</g>
				</g>
			</g>
			<g>
				<g>
					<g>
						<g>
							<g>
								<path fill="#B2EBF2" d="M759.057,405.584H95.241c-12.397,0-22.446,10.049-22.446,22.446s10.049,22.446,22.446,22.446
									h663.816c12.397,0,22.446-10.049,22.446-22.446C781.504,415.633,771.454,405.584,759.057,405.584z"/>
							</g>
						</g>
					</g>
				</g>
				<g>
					<g>
						<g>
							<g>
								<path fill="#B2EBF2" d="M759.057,451.547H95.241c-12.968,0-23.517-10.549-23.517-23.517s10.55-23.517,23.517-23.517h663.815
									c12.968,0,23.517,10.549,23.517,23.517S772.025,451.547,759.057,451.547z M95.241,406.655
									c-11.785,0-21.374,9.588-21.374,21.374s9.589,21.374,21.374,21.374h663.815c11.786,0,21.374-9.589,21.374-21.374
									s-9.588-21.374-21.374-21.374H95.241z"/>
							</g>
						</g>
					</g>
				</g>
			</g>
			<g>
				<g>
					<g>
						<g>
							<g>
								<path fill="#B2EBF2" d="M687.946,130.127H66.312c-12.59,0-22.795,10.206-22.795,22.795c0,12.59,10.206,22.795,22.795,22.795
									h621.635c12.59,0,22.795-10.206,22.795-22.795C710.742,140.332,700.536,130.127,687.946,130.127z"/>
							</g>
						</g>
					</g>
				</g>
				<g>
					<g>
						<g>
							<g>
								<path fill="#B2EBF2" d="M687.947,176.789H66.311c-13.16,0-23.867-10.707-23.867-23.867s10.707-23.867,23.867-23.867h621.635
									c13.16,0,23.867,10.707,23.867,23.867C711.813,166.083,701.107,176.789,687.947,176.789z M66.311,131.199
									c-11.979,0-21.724,9.746-21.724,21.724c0,11.979,9.745,21.725,21.724,21.725h621.635c11.978,0,21.724-9.746,21.724-21.725
									c0-11.978-9.745-21.724-21.724-21.724H66.311z"/>
							</g>
						</g>
					</g>
				</g>
			</g>
			<g>
				<g>
					<g>
						<g>
							<g>
								<path fill="#B2EBF2" d="M758.881,314.947H31.329c-12.372,0-22.401,10.029-22.401,22.401s10.029,22.401,22.401,22.401
									h727.552c12.372,0,22.401-10.029,22.401-22.401C781.281,324.977,771.252,314.947,758.881,314.947z"/>
							</g>
						</g>
					</g>
				</g>
				<g>
					<g>
						<g>
							<g>
								<path fill="#B2EBF2" d="M758.881,360.821H31.329c-12.943,0-23.472-10.53-23.472-23.472s10.53-23.472,23.472-23.472h727.552
									c12.943,0,23.472,10.53,23.472,23.472S771.823,360.821,758.881,360.821z M31.329,316.018c-11.761,0-21.33,9.568-21.33,21.33
									s9.568,21.33,21.33,21.33h727.552c11.761,0,21.33-9.568,21.33-21.33s-9.568-21.33-21.33-21.33H31.329z"/>
							</g>
						</g>
					</g>
				</g>
			</g>
			<g>
				<g>
					<g>
						<g>
							<g>
								<path fill="#B2EBF2" d="M631.439,198.083c0-12.352,10.013-22.365,22.365-22.365H150.366
									c12.352,0,22.365,10.013,22.365,22.365s-10.013,22.365-22.365,22.365h503.438
									C641.452,220.448,631.439,210.435,631.439,198.083z"/>
							</g>
						</g>
					</g>
				</g>
				<g>
					<g>
						<g>
							<g>
								<path fill="#B2EBF2" d="M653.805,221.52H150.366c-0.592,0-1.071-0.48-1.071-1.071c0-0.592,0.48-1.071,1.071-1.071
									c11.742,0,21.294-9.552,21.294-21.294c0-11.741-9.552-21.293-21.294-21.293c-0.592,0-1.071-0.48-1.071-1.071
									s0.48-1.071,1.071-1.071h503.438c0.592,0,1.071,0.48,1.071,1.071s-0.48,1.071-1.071,1.071
									c-11.742,0-21.294,9.552-21.294,21.293c0,11.742,9.553,21.294,21.294,21.294c0.592,0,1.071,0.48,1.071,1.071
									C654.876,221.04,654.396,221.52,653.805,221.52z M160.154,219.377h483.864c-8.049-3.715-13.65-11.863-13.65-21.294
									s5.6-17.579,13.649-21.293H160.154c8.049,3.715,13.649,11.862,13.649,21.293
									C173.803,207.514,168.203,215.663,160.154,219.377z"/>
							</g>
						</g>
					</g>
				</g>
			</g>
			<g>
				<g>
					<g>
						<g>
							<g>
								<path fill="#B2EBF2" d="M670.79,314.948v-0.016c-0.208,0.006-0.415,0.015-0.624,0.016H670.79z M670.081,267.592
									c0.238,0,0.473,0.011,0.709,0.018v-0.018H670.081z M110.738,291.27c0,13.077-10.601,23.678-23.678,23.678l0,0h582.936
									c-13.039-0.046-23.594-10.627-23.594-23.676c0-13.077,10.601-23.678,23.678-23.678H87.06
									C100.137,267.592,110.738,278.193,110.738,291.27z"/>
							</g>
						</g>
					</g>
				</g>
				<g>
					<g>
						<g>
							<g>
								<path fill="#B2EBF2" d="M670.79,316.018h-0.624c-0.029,0-0.057-0.001-0.085-0.003c-0.028,0.002-0.056,0.003-0.085,0.003
									H87.06c-0.592,0-1.071-0.48-1.071-1.071s0.48-1.071,1.071-1.071c12.465,0,22.606-10.141,22.606-22.606
									c0-12.464-10.141-22.606-22.606-22.606c-0.592,0-1.071-0.48-1.071-1.071s0.48-1.071,1.071-1.071h583.73
									c0.592,0,1.071,0.48,1.071,1.071c0,0.289-0.117,0.576-0.325,0.777c-0.208,0.202-0.469,0.329-0.778,0.311l-0.196-0.007
									c-0.16-0.006-0.319-0.011-0.48-0.011c-12.465,0-22.607,10.141-22.607,22.608c0,12.421,10.105,22.561,22.526,22.604
									c0.027,0,0.054,0.001,0.081,0.003c0.16-0.012,0.328-0.008,0.49-0.012l0.19-0.006c0.285-0.023,0.568,0.101,0.776,0.303
									c0.207,0.202,0.324,0.479,0.324,0.768C671.862,315.523,671.381,316.018,670.79,316.018z M97.132,313.876h562.886
									c-8.643-3.868-14.686-12.554-14.686-22.604c0-10.063,6.036-18.743,14.679-22.608H97.132
									c8.642,3.865,14.678,12.543,14.678,22.606C111.81,301.332,105.774,310.011,97.132,313.876z"/>
							</g>
						</g>
					</g>
				</g>
			</g>
			<g>
				<path fill="#B2EBF2" d="M132.397,404.456c1.168,0.194,2.366,0.544,3.589,0.544H696.53c-8.297-4-14.081-12.305-14.081-22
					c0-9.696,5.784-18,14.081-22H135.986c-1.357,0-2.684,0.041-3.973,0.279c10.198,1.876,17.927,10.882,17.927,21.623
					C149.94,393.508,142.405,402.43,132.397,404.456z"/>
			</g>
		</g>
		<g>
			<g>
				<path fill="#656C86" d="M434.06,142.469c-5.514,0-10-4.486-10-10s4.486-10,10-10s10,4.486,10,10
					C444.06,137.983,439.573,142.469,434.06,142.469z M434.06,126.469c-3.309,0-6,2.691-6,6s2.691,6,6,6s6-2.691,6-6
					S437.368,126.469,434.06,126.469z"/>
			</g>
			<g>
				<path fill="#656C86" d="M49.266,283.497c-4.634,0-8.403-3.77-8.403-8.404s3.77-8.403,8.403-8.403s8.403,3.77,8.403,8.403
					S53.899,283.497,49.266,283.497z M49.266,270.69c-2.428,0-4.403,1.975-4.403,4.403s1.976,4.404,4.403,4.404
					s4.403-1.976,4.403-4.404S51.693,270.69,49.266,270.69z"/>
			</g>
			<g>
				<path fill="#656C86" d="M677.104,295.14c-4.794,0-8.694-3.9-8.694-8.694s3.9-8.695,8.694-8.695s8.694,3.9,8.694,8.695
					C685.798,291.239,681.897,295.14,677.104,295.14z M677.104,281.75c-2.589,0-4.694,2.106-4.694,4.695
					c0,2.588,2.105,4.694,4.694,4.694s4.694-2.106,4.694-4.694C681.798,283.856,679.692,281.75,677.104,281.75z"/>
			</g>
			<g>
				<path fill="#656C86" d="M133.094,157.172c-0.512,0-1.023-0.195-1.414-0.586l-12.225-12.225c-0.781-0.781-0.781-2.047,0-2.828
					s2.047-0.781,2.828,0l12.225,12.225c0.781,0.781,0.781,2.047,0,2.828C134.117,156.977,133.605,157.172,133.094,157.172z"/>
			</g>
			<g>
				<path fill="#656C86" d="M120.869,157.172c-0.512,0-1.023-0.195-1.414-0.586c-0.781-0.781-0.781-2.047,0-2.828l12.225-12.225
					c0.781-0.781,2.047-0.781,2.828,0s0.781,2.047,0,2.828l-12.225,12.225C121.893,156.977,121.381,157.172,120.869,157.172z"/>
			</g>
			<g>
				<path fill="#656C86" d="M87.094,395.173c-0.512,0-1.023-0.195-1.414-0.586l-12.225-12.226c-0.781-0.781-0.781-2.047,0-2.828
					s2.047-0.781,2.828,0l12.225,12.226c0.781,0.781,0.781,2.047,0,2.828C88.117,394.978,87.605,395.173,87.094,395.173z"/>
			</g>
			<g>
				<path fill="#656C86" d="M74.869,395.173c-0.512,0-1.023-0.195-1.414-0.586c-0.781-0.781-0.781-2.047,0-2.828l12.225-12.226
					c0.781-0.781,2.047-0.781,2.828,0s0.781,2.047,0,2.828l-12.225,12.226C75.893,394.978,75.381,395.173,74.869,395.173z"/>
			</g>
			<g>
				<path fill="#656C86" d="M670.094,151.172c-0.512,0-1.023-0.195-1.414-0.586l-12.225-12.225c-0.781-0.781-0.781-2.047,0-2.828
					s2.047-0.781,2.828,0l12.225,12.225c0.781,0.781,0.781,2.047,0,2.828C671.117,150.977,670.605,151.172,670.094,151.172z"/>
			</g>
			<g>
				<path fill="#656C86" d="M657.869,151.172c-0.512,0-1.023-0.195-1.414-0.586c-0.781-0.781-0.781-2.047,0-2.828l12.225-12.225
					c0.781-0.781,2.047-0.781,2.828,0s0.781,2.047,0,2.828l-12.225,12.225C658.893,150.977,658.381,151.172,657.869,151.172z"/>
			</g>
			<g>
				<path fill="#656C86" d="M676.094,423.173c-0.512,0-1.023-0.195-1.414-0.586l-12.225-12.226c-0.781-0.781-0.781-2.047,0-2.828
					s2.047-0.781,2.828,0l12.225,12.226c0.781,0.781,0.781,2.047,0,2.828C677.117,422.978,676.605,423.173,676.094,423.173z"/>
			</g>
			<g>
				<path fill="#656C86" d="M663.869,423.173c-0.512,0-1.023-0.195-1.414-0.586c-0.781-0.781-0.781-2.047,0-2.828l12.225-12.226
					c0.781-0.781,2.047-0.781,2.828,0s0.781,2.047,0,2.828l-12.225,12.226C664.893,422.978,664.381,423.173,663.869,423.173z"/>
			</g>
		</g>
		<g>
			<g>
				<path fill="#FFFFFF" d="M201,396.554c-5,0-10.736,2.171-14.934,5.759c-4.237-3.696-9.443-5.94-15.508-5.94
					c-11.859,0-21.546,8.564-23.563,19.844c-1.349-0.339-2.671-0.539-4.126-0.539c-9.52,0-17.196,8.663-17.196,18.183
					c0,9.52,8.123,18.092,17.643,18.092h0.364H201V396.554z"/>
			</g>
			<g>
				<path fill="#656C86" d="M144,451.952H86c-1.104,0-2-0.896-2-2s0.896-2,2-2h58c1.104,0,2,0.896,2,2S145.104,451.952,144,451.952z
					"/>
			</g>
			<g>
				<path fill="#656C86" d="M142.952,452.153c-10.607,0-19.237-8.63-19.237-19.238c0-10.607,8.63-19.237,19.237-19.237
					c1.537,0,3.117,0.202,4.697,0.6c1.071,0.27,1.721,1.356,1.451,2.428c-0.27,1.072-1.358,1.718-2.428,1.451
					c-1.261-0.317-2.513-0.479-3.721-0.479c-8.402,0-15.237,6.835-15.237,15.237s6.835,15.238,15.237,15.238c1.104,0,2,0.896,2,2
					S144.057,452.153,142.952,452.153z"/>
			</g>
			<g>
				<path fill="#656C86" d="M147.163,418.217c-0.116,0-0.235-0.01-0.354-0.031c-1.088-0.194-1.812-1.233-1.617-2.32
					c2.227-12.453,13.034-21.492,25.697-21.492c6.306,0,12.397,2.285,17.153,6.434c0.833,0.726,0.919,1.989,0.192,2.821
					c-0.725,0.832-1.988,0.92-2.821,0.192c-4.027-3.513-9.186-5.447-14.524-5.447c-10.724,0-19.875,7.652-21.76,18.195
					C148.957,417.537,148.114,418.217,147.163,418.217z"/>
			</g>
			<g>
				<path fill="#656C86" d="M149.915,434.382c-0.696,0-1.372-0.363-1.74-1.012c-2.224-3.908-3.398-8.364-3.398-12.884
					c0-1.523,0.14-3.078,0.416-4.622c0.193-1.087,1.223-1.813,2.321-1.616c1.087,0.194,1.811,1.233,1.616,2.321
					c-0.234,1.312-0.354,2.629-0.354,3.917c0,3.828,0.994,7.6,2.875,10.907c0.546,0.96,0.211,2.181-0.75,2.727
					C150.59,434.298,150.25,434.382,149.915,434.382z"/>
			</g>
			<g>
				<path fill="#656C86" d="M186.729,404.313c-0.564,0-1.126-0.237-1.521-0.7c-0.718-0.84-0.618-2.103,0.221-2.82
					c4.706-4.022,10.707-6.238,16.896-6.238c1.104,0,2,0.896,2,2s-0.896,2-2,2c-5.236,0-10.313,1.875-14.296,5.279
					C187.651,404.156,187.189,404.313,186.729,404.313z"/>
			</g>
			<g>
				<path fill="#656C86" d="M178.302,422.576c-1.104,0-2-0.896-2-2c0-7.613,3.327-14.824,9.127-19.783
					c0.84-0.719,2.103-0.619,2.82,0.221s0.619,2.103-0.221,2.82c-4.91,4.197-7.727,10.3-7.727,16.742
					C180.302,421.681,179.406,422.576,178.302,422.576z"/>
			</g>
			<g>
				<path fill="#656C86" d="M76,451.952H61c-1.104,0-2-0.896-2-2s0.896-2,2-2h15c1.104,0,2,0.896,2,2S77.104,451.952,76,451.952z"/>
			</g>
		</g>
		<g>
			<g>
				<path fill="#FFFFFF" d="M187.5,232l-3.884,29.722l-14.976,5.525l-25.83-15.927l-16.97,16.91l18.649,24.039l-6.725,14.616
					L108,314.031v10v10l29.764,7.161l6.6,14.631l-18.587,24.069l17.002,16.971l25.845-15.806l14.984,6.252L187.5,418H200v-93.969
					V232H187.5z M198,354.081c-15.588-1.03-27.524-14.038-27.524-30.459s11.937-29.429,27.524-30.459V354.081z"/>
				<path fill="#656C86" d="M200,420h-12.5c-1.007,0-1.857-0.749-1.984-1.748l-3.747-29.543l-12.973-5.412l-24.973,15.272
					c-0.789,0.482-1.804,0.363-2.457-0.291l-17.002-16.97c-0.712-0.712-0.785-1.842-0.17-2.639l17.854-23.119l-5.704-12.643
					l-28.812-6.933c-0.898-0.216-1.532-1.02-1.532-1.944v-20c0-0.925,0.634-1.729,1.533-1.944l28.819-6.92l5.813-12.631
					l-17.905-23.08c-0.619-0.797-0.547-1.931,0.168-2.643l16.971-16.91c0.655-0.654,1.675-0.772,2.462-0.286l25,15.416l12.929-4.77
					l3.728-28.523c0.131-0.996,0.979-1.741,1.983-1.741H200c1.104,0,2,0.896,2,2v186C202,419.104,201.104,420,200,420z M189.263,416
					H198V234h-8.744l-3.657,27.981c-0.097,0.737-0.594,1.36-1.291,1.617l-14.976,5.525c-0.577,0.212-1.22,0.149-1.742-0.174
					l-24.485-15.099l-14.602,14.55l17.566,22.643c0.457,0.589,0.549,1.384,0.236,2.062l-6.726,14.616
					c-0.256,0.557-0.753,0.966-1.35,1.108L110,315.607v16.848l28.231,6.793c0.601,0.145,1.102,0.559,1.355,1.122l6.601,14.631
					c0.304,0.674,0.211,1.46-0.24,2.045l-17.511,22.675l14.642,14.615l24.502-14.984c0.548-0.335,1.221-0.387,1.814-0.14
					l14.983,6.251c0.66,0.275,1.123,0.884,1.214,1.594L189.263,416z"/>
			</g>
			<g>
				<path fill="#656C86" d="M200,358.146c-18.799,0-33.524-15.165-33.524-34.524s14.726-34.525,33.524-34.525c1.104,0,2,0.896,2,2
					v65.049C202,357.251,201.104,358.146,200,358.146z M198,293.163c-15.588,1.03-27.524,14.038-27.524,30.459
					s11.937,29.429,27.524,30.459V293.163z"/>
			</g>
		</g>
		<g>
			<path fill="#FFFFFF" d="M557,450H200V202.29c0-16.159,13.791-28.29,29.702-28.29h299.032C544.646,174,557,186.131,557,202.29V450
				z"/>
			<path fill="#656C86" d="M557,452H200c-1.104,0-2-0.896-2-2V202.29c0-16.702,14.222-30.29,31.702-30.29h299.032
				C545.988,172,559,185.021,559,202.29V450C559,451.104,558.104,452,557,452z M202,448h353V202.29
				c0-14.987-11.292-26.29-26.266-26.29H229.702C214.427,176,202,187.793,202,202.29V448z"/>
		</g>
		<g>
			<path fill="#656C86" d="M378,452H200c-1.104,0-2-0.896-2-2V206c0-1.104,0.896-2,2-2h178c1.104,0,2,0.896,2,2v244
				C380,451.104,379.104,452,378,452z M202,448h174V208H202V448z"/>
		</g>
		<g>
			<g>
				<rect x="541" y="235" fill="#FFFFFF" width="55" height="216"/>
				<path fill="#656C86" d="M596,453h-55c-1.104,0-2-0.896-2-2V235c0-1.104,0.896-2,2-2h55c1.104,0,2,0.896,2,2v216
					C598,452.104,597.104,453,596,453z M543,449h51V237h-51V449z"/>
			</g>
			<g>
				<path fill="#656C86" d="M650,335h-17.436C623.179,335,614,323.251,614,314.481v-78.094c0-5.405-5.38-15.387-13.045-15.387
					H586.08c-9.576,0-13.938,7.257-13.938,14c0,1.104-0.896,2-2,2s-2-0.896-2-2c0-8.945,6.161-18,17.938-18h14.875
					c9.888,0,17.045,11.581,17.045,19.387v78.094c0,6.673,7.672,16.519,14.564,16.519H650c1.104,0,2,0.896,2,2S651.104,335,650,335z
					"/>
			</g>
			<g>
				<rect x="650" y="320" fill="#FFFFFF" width="76" height="26"/>
				<path fill="#656C86" d="M726,348h-76c-1.104,0-2-0.896-2-2v-26c0-1.104,0.896-2,2-2h76c1.104,0,2,0.896,2,2v26
					C728,347.104,727.104,348,726,348z M652,344h72v-22h-72V344z"/>
			</g>
		</g>
		<g>
			<g>
				<path fill="#FFFFFF" d="M624.737,471.746L624.737,471.746c12.751,0,22.931-7.371,22.931-18.949
					c0-11.579-9.034-20.966-20.612-20.966c-2.1,0-3.95,0.313-5.862,0.888c-2.396-15.825-15.968-27.954-32.462-27.954
					c-7.733,0-14.794,2.673-20.413,7.137c-3.825-2.503-8.373-3.964-13.286-3.964c-13.444,0-24.332,10.898-24.332,24.342
					c0,0.106,0.012,0.211,0.014,0.317c-9.742,1.703-17.146,11.098-17.146,21.327c0,9.242,5.186,17.822,5.186,17.822H624.737z"/>
			</g>
			<g>
				<path fill="#656C86" d="M619.625,461.275c-0.415,0-0.833-0.126-1.195-0.387c-0.917-0.661-1.125-1.941-0.463-2.858
					c3.199-4.434,5.226-9.64,5.862-15.055c0.131-1.123,1.146-1.933,2.272-1.794c1.123,0.132,1.926,1.148,1.794,2.272
					c-0.716,6.106-3.002,11.975-6.608,16.972C620.887,460.98,620.26,461.275,619.625,461.275z"/>
			</g>
			<g>
				<path fill="#656C86" d="M738,477h-20c-1.104,0-2-0.896-2-2s0.896-2,2-2h20c1.104,0,2,0.896,2,2S739.104,477,738,477z"/>
			</g>
			<g>
				<path fill="#656C86" d="M569.521,413.996c-3.808-2.493-8.229-3.811-12.789-3.811c-12.907,0-23.408,10.502-23.408,23.41
					l0.01,0.314c0.009,1.004-0.709,1.866-1.698,2.039c-9.258,1.618-16.239,10.119-16.239,19.775c0,8.578,4.587,12.328,4.633,12.364
					c0.683,0.544,0.948,1.459,0.66,2.283c-0.287,0.824-1.064,1.376-1.937,1.376h-53.289c-1.133,0-2.052-0.919-2.052-2.052
					c0-1.133,0.919-2.052,2.052-2.052h48.979c-1.566-2.548-3.15-6.472-3.15-11.918c0-11.035,7.609-20.823,17.959-23.458
					c0.697-14.556,12.756-26.184,27.48-26.184c4.868,0,9.605,1.279,13.789,3.711l-0.385-0.218
					c5.759-4.224,12.937-6.813,20.115-6.813c15.706,0,29.409,11.209,32.694,26.393c1.402-0.282,2.808-0.421,4.255-0.421
					c12.074,0,21.897,9.869,21.897,21.999c0,7.696-3.639,14.231-9.411,18.132h54.695c1.039,0,1.882,0.843,1.882,1.882
					s-0.843,1.882-1.882,1.882h-65.457c-0.757,0.071-1.526,0.105-2.306,0.105c-1.039,0-1.882-0.843-1.882-1.882v-0.104
					c0-1.039,0.843-1.882,1.882-1.882h2.159c9.715-0.948,16.557-8.281,16.557-18.132c0-10.055-8.134-18.235-18.132-18.235
					c-1.772,0-3.474,0.253-5.202,0.771c-0.52,0.157-1.086,0.08-1.548-0.213c-0.461-0.292-0.773-0.769-0.855-1.308
					c-2.177-14.379-14.792-25.223-29.345-25.223c-6.764,0-13.142,2.227-18.447,6.44"/>
			</g>
			<g>
				<path fill="#656C86" d="M582.926,429.819c-0.839,0-1.627-0.522-1.927-1.357c-0.052-0.144-3.419-9.212-11.7-14.477
					c-0.954-0.606-1.235-1.871-0.628-2.826s1.871-1.236,2.826-0.628c9.523,6.053,13.205,16.126,13.358,16.552
					c0.38,1.064-0.175,2.236-1.239,2.617C583.388,429.78,583.155,429.819,582.926,429.819z"/>
			</g>
		</g>
	</g>
</g>
<g id="Capa_3">
</g>
<g id="Capa_2">
</g>
<g id="Capa_1_1_">
</g>
</svg>
