<?xml version="1.0" encoding="utf-8"?>
<!-- Generator: Adobe Illustrator 17.0.0, SVG Export Plug-In . SVG Version: 6.00 Build 0)  -->
<!DOCTYPE svg PUBLIC "-//W3C//DTD SVG 1.1//EN" "http://www.w3.org/Graphics/SVG/1.1/DTD/svg11.dtd" [
	<!ENTITY ns_flows "http://ns.adobe.com/Flows/1.0/">
	<!ENTITY ns_extend "http://ns.adobe.com/Extensibility/1.0/">
	<!ENTITY ns_ai "http://ns.adobe.com/AdobeIllustrator/10.0/">
	<!ENTITY ns_graphs "http://ns.adobe.com/Graphs/1.0/">
	<!ENTITY ns_vars "http://ns.adobe.com/Variables/1.0/">
	<!ENTITY ns_imrep "http://ns.adobe.com/ImageReplacement/1.0/">
	<!ENTITY ns_sfw "http://ns.adobe.com/SaveForWeb/1.0/">
	<!ENTITY ns_custom "http://ns.adobe.com/GenericCustomNamespace/1.0/">
	<!ENTITY ns_adobe_xpath "http://ns.adobe.com/XPath/1.0/">
]>
<svg version="1.1" id="Capa_1" xmlns:x="&ns_extend;" xmlns:i="&ns_ai;" xmlns:graph="&ns_graphs;"
	 xmlns="http://www.w3.org/2000/svg" xmlns:xlink="http://www.w3.org/1999/xlink" xmlns:a="http://ns.adobe.com/AdobeSVGViewerExtensions/3.0/"
	 x="0px" y="0px" width="800px" height="600px" viewBox="0 0 800 600" enable-background="new 0 0 800 600" xml:space="preserve">
<metadata><?xpacket begin="﻿" id="W5M0MpCehiHzreSzNTczkc9d"?>
<x:xmpmeta xmlns:x="adobe:ns:meta/" x:xmptk="Adobe XMP Core 5.5-c014 79.151739, 2013/04/03-12:12:15        ">
   <rdf:RDF xmlns:rdf="http://www.w3.org/1999/02/22-rdf-syntax-ns#">
      <rdf:Description rdf:about=""
            xmlns:dc="http://purl.org/dc/elements/1.1/"
            xmlns:xmp="http://ns.adobe.com/xap/1.0/"
            xmlns:xmpGImg="http://ns.adobe.com/xap/1.0/g/img/"
            xmlns:xmpMM="http://ns.adobe.com/xap/1.0/mm/"
            xmlns:stRef="http://ns.adobe.com/xap/1.0/sType/ResourceRef#"
            xmlns:stEvt="http://ns.adobe.com/xap/1.0/sType/ResourceEvent#"
            xmlns:illustrator="http://ns.adobe.com/illustrator/1.0/"
            xmlns:xmpTPg="http://ns.adobe.com/xap/1.0/t/pg/"
            xmlns:stDim="http://ns.adobe.com/xap/1.0/sType/Dimensions#"
            xmlns:xmpG="http://ns.adobe.com/xap/1.0/g/"
            xmlns:pdf="http://ns.adobe.com/pdf/1.3/">
         <dc:format>image/svg+xml</dc:format>
         <dc:title>
            <rdf:Alt>
               <rdf:li xml:lang="x-default">LANDINGPAGE---IMAGENESIDEAS</rdf:li>
            </rdf:Alt>
         </dc:title>
         <xmp:CreatorTool>Adobe Illustrator CC (Windows)</xmp:CreatorTool>
         <xmp:CreateDate>2017-08-15T21:48:55-05:00</xmp:CreateDate>
         <xmp:ModifyDate>2017-08-15T21:48:55-05:00</xmp:ModifyDate>
         <xmp:MetadataDate>2017-08-15T21:48:55-05:00</xmp:MetadataDate>
         <xmp:Thumbnails>
            <rdf:Alt>
               <rdf:li rdf:parseType="Resource">
                  <xmpGImg:width>256</xmpGImg:width>
                  <xmpGImg:height>128</xmpGImg:height>
                  <xmpGImg:format>JPEG</xmpGImg:format>
                  <xmpGImg:image>/9j/4AAQSkZJRgABAgEBLAEsAAD/7QAsUGhvdG9zaG9wIDMuMAA4QklNA+0AAAAAABABLAAAAAEA&#xA;AQEsAAAAAQAB/+4ADkFkb2JlAGTAAAAAAf/bAIQABgQEBAUEBgUFBgkGBQYJCwgGBggLDAoKCwoK&#xA;DBAMDAwMDAwQDA4PEA8ODBMTFBQTExwbGxscHx8fHx8fHx8fHwEHBwcNDA0YEBAYGhURFRofHx8f&#xA;Hx8fHx8fHx8fHx8fHx8fHx8fHx8fHx8fHx8fHx8fHx8fHx8fHx8fHx8fHx8f/8AAEQgAgAEAAwER&#xA;AAIRAQMRAf/EAaIAAAAHAQEBAQEAAAAAAAAAAAQFAwIGAQAHCAkKCwEAAgIDAQEBAQEAAAAAAAAA&#xA;AQACAwQFBgcICQoLEAACAQMDAgQCBgcDBAIGAnMBAgMRBAAFIRIxQVEGE2EicYEUMpGhBxWxQiPB&#xA;UtHhMxZi8CRygvElQzRTkqKyY3PCNUQnk6OzNhdUZHTD0uIIJoMJChgZhJRFRqS0VtNVKBry4/PE&#xA;1OT0ZXWFlaW1xdXl9WZ2hpamtsbW5vY3R1dnd4eXp7fH1+f3OEhYaHiImKi4yNjo+Ck5SVlpeYmZ&#xA;qbnJ2en5KjpKWmp6ipqqusra6voRAAICAQIDBQUEBQYECAMDbQEAAhEDBCESMUEFURNhIgZxgZEy&#xA;obHwFMHR4SNCFVJicvEzJDRDghaSUyWiY7LCB3PSNeJEgxdUkwgJChgZJjZFGidkdFU38qOzwygp&#xA;0+PzhJSktMTU5PRldYWVpbXF1eX1RlZmdoaWprbG1ub2R1dnd4eXp7fH1+f3OEhYaHiImKi4yNjo&#xA;+DlJWWl5iZmpucnZ6fkqOkpaanqKmqq6ytrq+v/aAAwDAQACEQMRAD8A9U4q7FXYq7FXYq7FXYq7&#xA;FXYqxvzl50i8trZoLOS+u70yehbxsE+GFQ0jFjXoCO2ThDiYylSa6DrNrrWj2uqWoZYLpOaq4oyk&#xA;Egg/IgjIyjRpINo/Al2KuxV2KpffeYdAsJvQvtTtLSegb0p5443oeh4swOSESeQRYXWevaFfOEst&#xA;Rtbpz0WGaOQ/crHAYkLaOwJdiryn88NK8yXp05rGGa601A/qwwKz8ZqijOq16rsp7b+OZGAgNeQF&#xA;lH5V2et2nk62h1cSJPzcwRTV9RITTgrA7jvQHoMhlIMtmUOTLsqZOxV2KuxV2KuxV2KuxV2KuxV2&#xA;KuxV2KuxV2KuxV2KuxV2KuxVLdd8taHr1ulvq1ot1FG3OMEsrKfZkKsK998lGRHJBFo2zs7WztYr&#xA;W1iWG2hUJFEgoqqOgGAm0quBXYqxTzH51NrdPpWixLe6slPXdyRb2wPQysNyx7Iu/jTLseEy3PJh&#xA;KVMcW1v5rpL3U9RuL67Q80q5jgjalP3cKUQfTU5lRgB0YWVeS3gkk9WSNHl/nZQW+85NCFuND0e4&#xA;XjNZQP4ExrUfIgVGKr7Rdc0g8tF1BxGv/SvvGae3I8FLH1I/9i30ZXLFEpBIZd5b842msSNZTxNY&#xA;avEvKWxkINV/nicbSJ7jcdxmJkxmLYJWyDK2TsVdirsVdirsVdirsVdirsVdirsVdirsVYB581R0&#xA;8x2Wnahq1zoehPaSTi8tG9KSa6V+Po+rQ8eKfF7/AHZfijY2FlqySpU8jeb7ufQgb0veGOaWO2vX&#xA;orzQI1I3YePbLJae+Tg5e0RjPCRbIf8AE8X++G/4If0yP5Y97X/K0f5rv8Txf74b/gh/TH8se9f5&#xA;Wj/Nd/ieL/fDf8EP6Y/lj3r/ACtH+agdY87fUrMNb2ZnvJ3S3soCwHqTytxRSewqan2xOnrmW7B2&#xA;h4kuERVIdD85SL6l35kMUz/E0NraW/ooT+yhlWR2A8WOVcUe5z6K/wDQHmf/AKme4/6RbP8A6pYO&#xA;IdyaLv0B5n/6me4/6RbP/qljxDuWigdSvfM/lgLqN9fLrOjF0jvBJFHBPbh2CLIpiAV15MOQK18O&#xA;+SiIy25FhORiL5pr/ieL/fDf8EP6ZZ+WPe6z+Vo/zUl8y+drlII9O0uPhqt9VIJWIYQoP7yZhT9k&#xA;dPemEaejuXI0+t8W6FJNp2n29hbCCEE7lpJGNXkdt2d2O5ZjmS5CKxV2KuxV2KoPUtOF2sckcjW9&#xA;9bN6lneR7PFIO48Qf2l7jARasg8veenvbMx3ttw1O0b0b6NW+H1APtrt9lx8QzH/AC3m42fX+EaM&#xA;U1/xPF/vhv8Agh/TB+WPe0fytH+axnzd5nje702C7lnsdFkMv12WCUxM8gC+lG8qUZEPxE0O+Sjg&#xA;psh2gJg1HcdFbyb5ncWd3GXnvbCO5ZdNup35SNDxUkFyKuFfkAx7Yy09on2iIbEb/cyD/E8X++G/&#xA;4If0yP5Y97D+Vo/zXf4ni/3w3/BD+mP5Y96/ytH+a7/E8X++G/4If0x/LHvX+Vo/zXf4ni/3w3/B&#xA;D+mP5Y96/wArR/mu/wATw/74b/gh/TH8se9f5Wj/ADUysr+3vIy8J3X7SHYjKZ4zHm7DBqYZRcUR&#xA;kG92KuxV2Ksc83W8Vx6EVxEksFGIR1DLyFOxzL03V03aspAxrzSZVVVCqAFAoANgAMynTN4q7FXY&#xA;ql2qf8dHQP8AtrW3/G2V5fpLsOzP734fqZtrt9qlsYFskCRycvVuzby3gQqBxX0IHjk+Pf4q0FN+&#xA;uYEQHoSlf6W8wf8ALdH/ANwLUv8AqvkqH4IRZabV/MQUkXsbEDZf0HqQr7V9fGh+CFsteeJrmb8u&#xA;76a6g+rXMlvG01vyD8HLqSvIdaY4/qRL6UBmxeQY/o4+uajf6u+4eQ2loewggYqSP9eTkci9FpMX&#xA;BjHmj73ULezVPV5NJK3CGGNWkkkbrxREBYnElyVH9J3X/Vm1X/pBn/5pyPHHvTRd+k7r/qzar/0g&#xA;z/8ANOPHHvWitk1kwhXudO1C1hLKhnntJo41LsEXk7KAKswGImD1RSY5JXYqlMo+p+ZrS4TaPUY3&#xA;tZx2LxgyRN86BlwhwO0Md477k+wujcyqwIYAg9QcVcAAKDYDoMVdirsVdirsVdiqaeXS/wCkKL9k&#xA;o3P5bfxyjUfS7Hswnxdu5k+YL0LsVdirsVULyyhu4fSlG3VWHUH2ycJmJsNOfBHLGpJQfLDV2uBT&#xA;3X+3Mj8z5OrPZP8AS+xr/DD/APLQP+B/tx/M+S/ySf532O/ww/8Ay0D/AIH+3H8z5L/JJ/nfY4+W&#xA;HptOK/6v9uP5nyR/JJ/nMd81aPqVolpdQxieawuYr2CNTQS+i1WjqehKk0ywTEwQGvHjlpsgMvpP&#xA;VO7f8yPJssYaTUFtZf8Adltcq0Usbd1dWHUe22YhxSHR3gyRIsFHWHnDyvqErxWep280iI0jqHAI&#xA;Rd2bemw75EwI6MhIIb/lYXkr/q8W/wDwR/ph8OXcjiCQebvNeleYNNfQdEkN7JeMi3d1Grejbwhw&#xA;zszkAMzBaKoy3FiN2XH1Opjjj5oLVPLei6rNHNf2/rSxDjG3ORKCtf2GXvmY87j1E4ColC+WABoV&#xA;oAKDiT97E4HpI8kz0JVbz5YcgDwsbpkrvQl4hUeGxplOf6WcOb0TMJtdiqWeZ9H/AEzoN7poYJJc&#xA;R/uZD0WVCHjY/J1ByUJUbQRYYFpeoNcxvDcJ6Go2x9O+tW2aOQddu6nqp6EZsAbaUbhVKdfJD6Uw&#xA;pyF/Dxr/AJSuv6ji0aofu5e5GaXH5iWaQ6pLavCR+7W3VwwavcselMLochx16b+LWnx+YxeSG/lt&#xA;WsyG9NIVcSVr8NSxp0xWZx16bt1rH5kGos11Natp9W4JGjiWn7G5NPnisjj4dgeJyR+ZP0oWea1O&#xA;mcjRAj+txp8IrXjWuKk4+HkeL7F0kmuLrkKKkT6RIjc3AIkjdQKVJNDyJ2oMUAQ4D/OTi0tJrqYR&#xA;QirHck9APE4JzERZXDhlklwxTVfLEtPinUH2UnMf8yO52Q7JPWTf+GG/5aB/wP8Abj+Z8k/ySf53&#xA;2Jnp+mwWSEJVnb7bnqf7MoyZDJ2Om0scQ2596LytyXYq7FXYq7FXYq7FXYq7FUp8ySRizSM/bZwV&#xA;HyBqfxzI049TrO1JDwwOtsMj06NNbn1AS1eWCOEw06BWY8q1718MzXSHJ6BHzXanpNpqMSpPySSM&#xA;loZ4mKSoSKHiw8RsR3wEWnDnljNxRFtBHb28VvH/AHcKLGlevFRQfqwtcpWbKpih2KpH5bNNBtD4&#xA;Ien+sci9VHkn/kDRpbv6t5ruroPJcwSJa2cQURwxSOCQzbs7/uxXoAajMTNkvZtgOrOMx2bsVdiq&#xA;Ta75R0TWpEuLqJor2McYr63YxTqPDmv2h7NUZOOQx5IMQWI+YNAu/Lgs7qLU5r61nuY7SW2uljLj&#xA;1qhXR41Q1UjcEbjMnFmMjRa5RpLfMH2tK/7aEH/G2XuNqf7uXuT7JPNuxV2KuxVLr19RGt6asAb6&#xA;ky3H1wgArUKvp1PbetMDbAR4JXz2plnlmWMSzRk0kcKV9wta/rzG1INAuy7JmAZDqWQZiO7dirsV&#xA;dirsVdirHdQ1+4MzJasEjU050BLe+/bMzHgFbui1PaUuKobBCfprU/8Af5+4f0yzwY9zi/n83853&#xA;6a1P/f5+4f0x8GPcv5/N/Od+mtT/AN/n7h/THwY9y/n838536a1P/f5+4f0x8GPcv5/N/OaOs6kR&#xA;/fn7h/THwY9y/ns385CyzSyuXlcux/aY1OWAAcnGnMyNk2Uri02ZPMFxqRZfRlto4VTflyR2Yk9q&#xA;bjFmcg8MR80xwtSVReatClu1tUuau7+lHJxcRNJ/IslOBP04G86aYF0muFodiqSeWv8AjhWn+qf+&#xA;JHIvVR5Jh5UiWy87RQWpaK3u7S4mnt1ZvSaRZIqP6deIb4juBlGcbM4c3o2Yba7FXYq7FXmWqxC7&#xA;88axJcu831CS3Wyjd2aOL1LWNnKRk8QSSd6ZnYR6WqXNB+YPtaV/20IP+NstcbU/3cvcn2Sebdir&#xA;sVdiqXXtzfx63psEKk2ky3BuiFqAUVTHVv2dyfngbYRiYSJ57UmasysGUlWG4I2IxIawSDYVbq/1&#xA;C4tJbU3UiLMjIZIzxdQwpVW6g5Dwo9zlR12UdUPob32kaVb6dFdyTR268VeUhmp1pv0A7DsMTiie&#xA;jKXaGUnY0j/01qf+/wA/cP6YPBj3Mfz+b+c79Nan/v8AP3D+mPgx7l/P5v5zv01qf+/z9w/pj4Me&#xA;5fz+b+ci9P1+4EypdMHjY050AK++3bK8mAVs5Wm7SlxVPcJVPDJBM8Ugo6Ghy+MrFutyYzCRieYU&#xA;8kwdirsVdirsVdiqWRQX48xXE7cvqLWsaR/F8PqB2LUWvWnemBuMo+GB/FaYyIJI2QkgOCpI2IqK&#xA;bYWkGmKJo+vPpdvoEltDHaQPHy1FZNzHE4cFY6cg7U33wOccsBI5ATZ6MtwuC7FUk8tf8cK0/wBU&#xA;/wDEjkXqo8kQ94ul67pOrueNvDK1reN0AhugE5MfBJAhOV5Y3FkDRenZgNyV6hr0dlcmB4WY0BDA&#xA;ihBy6GHiF2xMqVNM1dNQZwkTIIwCWJBFT2yOTHwqJWjZpooIXmmYJFEpeR22CqoqSfkMrZPL9Jne&#xA;9N5qzgqdUuXuY1bqIdkhB/55opzYwjQppJUfMH2tK/7aEH/G2ScfU/3cvcn2SebS+9TUL/U7LQ7C&#xA;X6tLeiSS5uwOTQ28QHMqD+0xYKp7ZXknwi3P0GmGSVnkGQx/ll5QCATW89xLT455bq4Luf5m4yKK&#xA;/IZh+NLvd8MMB0Xf8qy8lf8ALA//AEk3X/VXHxpd6fCj3O/5Vl5K/wCWB/8ApJuv+quPjS718KPc&#xA;p3H5Y+WDCwsVuNPuqfu7qC5nLqf9WR3UjxBGIzyYywQIohIdIuL4i6stQKtf6dO1tcSKKLJxAZJQ&#xA;vbmjA5nRlYt53WYBjnQ5I/JOK7FXYq7FVSCGSeZIoxV3NBkZSoWzx4zOQiOZZhc2Fpc0M8Ycjodw&#xA;fvFDmvjMx5PU5dPDJ9QtQ/Qel/74/wCGf+uS8afe0/yfh/m/aXfoPS/98f8ADP8A1x8afev8n4f5&#xA;v2lRufL1k8Z9AGKT9k1JFfetclHUSHNqy9mYyPT6SxZJoZGkWORJDExSTgwajDqDSu+ZoNugnAxN&#xA;ELsLF2KpbFPqB8xXELBvqC20bRnj8PqF2DUanWg6VwNxEfDB/itMsLS7FXYq7FUk8tf8cK0/1T/x&#xA;I5F6qPJH3NvDc28lvOoeGVSjqe4IocUo3y15v/RSR6P5hl4JHSOw1aTaKVBsqTN0SRRtVtm+eYmX&#xA;D1DZGXezOe1sr2NTKizJ1Ruux8CMpjIjkyItZJJpmlWjSSyRWdqm7SSMEUfNmPtiSZFeTAvMHmJ/&#xA;NH+4/Tg8fl+oN3eMCjXVDURRA0b0/wCZj16DMnFircsJSteAFAVRQDYAdAMyGCVeYPtaV/20IP8A&#xA;jbFo1P8Ady9yfZJ5try9/wAp7H/2yp/+oiDMfU/S7rsnlJOfP+valofl173T0X1jLHE9xIrPHAkh&#xA;oZnVQSQvT5nv0zFxxBO7tpGgxFvzB8y/4RjvvVgQvqbWB1wwyej9WVQRciKlfiaq9KbU65b4Y4vg&#xA;x4jTV7+YfmVfK2iXsjwabJqD3K3GpyQySQ0gFYisYDMPX9x7gUxGMWV4jTPPKmqX2q+XLDUb6AW9&#xA;1cxCSSIAgbk0YA7gMKMPnlMxRoMwdko0nTLa783eZ5J6sEuLUBAaD/eOLrTfLfEMYgBxcukhklcu&#xA;if8A6D0v/fH/AAz/ANcj40+9H8n4f5v2l36D0v8A3x/wz/1x8afev8n4f5v2l36D0v8A3x/wz/1x&#xA;8afev8n4f5v2l36D0v8A3x/wz/1x8afev8n4f5v2lXtrC0tqmCMIT1O5P3mpyMpmXNuxaeGP6RSv&#xA;kG52KuxVQvvR+qTLNJ6UboyM4NCOQpt7+GGIJOzDJOMRcjQeV+VPKKeX3uyt0bkXBULVOFFStKir&#xA;b/FmzDzeq1Pi1QqmQYXEdiqXRalO/mCfTiqiGK2jmVt+RZ3ZT3pTbA2nGPDEutpjhanYq7FXYqkn&#xA;lr/jhWn+qf8AiRyL1UeSZ4pWyRxyIUkUOjCjKwqCPcHFWvJnkHy1feXo7xopre7lnulkmtriaGqx&#xA;3UqKvFW4UCqB9nMTLkIlTOMRSn5q8leWtLvdFntbQtPPdOk0k8ks5cLbSuK+qzj7Sg7DJYZkndZA&#xA;BXApsOmZLB2KpT5g+1pX/bQg/wCNsWjU/wB3L3J9knm0D+kY9F80adq1yeGnyRS2F5OfsxCVkeN2&#xA;8F5x0J7ZTmjcXa9l5QCYnq9HjkimiWSNlkikFVdSGVlPcEbEZgO9b4Jw4cRwpTjTanhTFXFVIoQC&#xA;Ntj023GKqV5eWllbPc3cyW9vGKySyMFUD3JwgWrG/It0NRfWdZ+yup3nO2RtmNtDEkMUhU7jmErl&#xA;mSJFBqx5YyJAO4ZVlTagbPXtEvbuWzs7+3uLqGvqwRyIzrTY1UGu3fCYkItHYEuxV2KsV1PVried&#xA;1jcpApIVVJFQO5zPx4gB5vN6vWznIgGooL6xP/vxv+COW8IcTxJd5d9Yn/343/BHHhC+JLvK1nZj&#xA;ViWPiTXGmJJPNbhQ0zKilmIVVFWY7AAYqAh9GsPNGuW41C0+rafps29obqOSWaVK7SFEeIIrdV3J&#xA;zHnnANO5xdlgx9R3TD/CPmvly/SOn8iKE/VJq0H/AEcZH8z5Nv8AJUO8/j4O/wAJebP+rlYf9Is3&#xA;/ZRj+Z8l/kqHefx8Eu1m08y6DD9fvzbX2lIQLqS1SSKaEMaeoUd5A6D9qhr3ycM4kaas3ZYEbid0&#xA;P5gtdTu9Jmh0u4Fvdvx4S1K7AgkBhUio75c6vBKMZXIWFfSIL6DTbeG/lE94iATSjoT8zSvzwscp&#xA;iZEx2CC0CUS6RbSBFjDKfgQUUfEegJORenjyCZ2yxzX1tZmVY5bpisQY7nipdqDvRVJyM5ULZAJx&#xA;/wAq48tSySS3yz38jsWUzzOFQH9lEjMagD5V98xDnkWzgCmfyp8gkk/ovcmppPcDr/z0yPjS714A&#xA;2n5V+QkYMuljkOhM9wf1yY+NLvXgCG1X8u4LeBrjy1K9leRjktnJI8lrNT9h1kZuBPZlIpk4ZyOa&#xA;DDuSbTb9L21EwQxSKzRzwPs0cqHi6MPFSMzGtB+YPtaV/wBtCD/jbFo1P93L3J9knm2pI45EaORQ&#xA;8bgq6MKgg7EEHFQaSg+UPLpYlbThyNSscksa1PgqMqj7sFByRrMo/iUZfLbWNxa33l/hbX9tIWDX&#xA;DzSRlWRkNVLNUjlUZGUARTfg7QlE3M2EJPoulxanY2l+s1/e6iJ5J76SaVCXjAZiUVgKHlQAdMIi&#xA;Ak6vLISkDVVt70yj8peXY5Fk+prIy/Z9VnlA/wBjIzDDTjS1eUijJOBt02wuO6Z55IXjEzpzUryD&#xA;GoqKVGDhDYMsgeZYzo+i6tBcaYk8UFvFpCuqXEDEvNyQp04rwBryfc1ONOTk1Ao0TcvsZT9Yn/34&#xA;3/BHHhDi+JLvLYubgGolcEdCGODhHcoyzHUsi0LUZbqN4pjykjoQ3cqfH5Zh58YjuHe9n6o5ARLm&#xA;El1LT5rW4eqn0SSY37UPb55k48gkPN1Or00scjt6eiDofDLXFp1D4YrTqHwxWnUPhitILWgf0Pf/&#xA;APMPL/xA4tmL6x7wzPyp/wAoto//ADA23/Jlc1k+ZetHJItR13V7XzUNOWZzcXbn9H2RWI272wgF&#xA;ZC6gyq6zcieRpxGw75MRFWgndEeS9bu7+4vrWaea5NmsInedIleO5YyCaKsIEbKvBSKVpXr0wTjS&#xA;xKZecAD5S1uv/LBdf8mWyMPqCZcmFx6pptnZ2q3l3Dbu8KFVmkVCRxG45EZsnkzjlImgTur3Wp6b&#xA;aBDdXcNuJBWMyyKnID+XkRXrhYxxylyBKE0i9a906C6ZVQyry4r9kbkbZF6aAoAIvQwH89acGFRH&#xA;Z3bp7MWiWv8AwJIynP8AS2Q5s41jVLfStLudRuQxhtYzIyoKs1OiqPFjsMw4izTYSkv13zutr9cv&#xA;DpWmxEBjHO0zmMHosklY05eNBTJ1HzRut1DWvNOiwjUNUhsrrSkZRdvaGVJYkYgeqFkLK6rXcVBx&#xA;EQdhzWyGUZWyeazqsfm7zHEg4xi4gkCjpyktY2c/7I7nM7D9IaZc0Br/ANrSv+2hB/xtlrj6n+7l&#xA;7kyttZ0m6uTa295DLcLWsSOC3w9dh4ZJ5+WGYFkGnRazpMt4bKK8he7BKmBXBeq/aFPamKnFMC6N&#xA;OGtaQbz6kLyE3fLh6HMc+Q7U8cV8GdXRpz61pMd4LJ7yFbssEEBcB+TfZFPE1xUYZkXRpQuNT0oa&#xA;7aWDKsuolZWjICs0I4gty35LzH34GUcc+Ay/h+9NKHC0uocVdQ4q6h8MVp1D4YrTqHwxWmR+X7CW&#xA;BHmmUo0lAqnYgDx+eYWfIDsHfdm6aUAZS2JTfMd2jsVdirsVdiqS+aNIt7zSrnYRyNGyM6jcq44m&#xA;v35fgyEGnX67BHh4wPVHdIPLnnzQ9N0a00zXZf0Zf2MSWzpKjmORYlCLLFIFKsrAV8RjkwyvZycO&#xA;eM42CjLDzT+XNxrwu7S9t31m9CWqygPzcVoiDkKCpPbrtkDCVeTbYtqz81flt5eR9Ls761tEidjJ&#xA;DHyYeoftEsA1T26+2EwnLdbAQXmXzzo+raNdaToEv6QvtQja25Ij+lDHKODySuQAAqk0HUmm2Sx4&#xA;Te7Tn1EYRslDPplhJHGk9vHP6ShEaVFcgAe4zOeYGSQ5Gl9xY2VwFFxbxzBPsCRFalfCoNMURnIc&#xA;ilXlnbQrP/UP/EjkXqByTPQP+U7sv+YC6/5OQ5RqPpZw5p/+Yv8Ayhuof88f+T6ZjY/qZy5ITz/p&#xA;l/cy6XeRWTalZ2TytdWSBXbk6gRzCNiA/p0YU6/FUdMnhkAd2nUxmYejmgtUutfl/LvzBcavCbcy&#xA;RSiztpAPVSDgqj1OP7TNyNO2SPDxilwiQx1I2WReXNX1G7m1Gw1NIl1DS5lilkt+QikWSNZY3VXJ&#xA;ZTxfdan55VKIG4bwWH3f/KZ+Y/8AjLa/9QkeZeH6Q1y5rL65tIHtPrMXq+rcJHDsDxkavFt+lPHL&#xA;XE1gJxSpFxWFjFM00VvFHM1eUioqsa7mpArvknnzORFEtpY2STm4S3jWdq8pgihzXrVgK4qZyIq9&#xA;nCxshcfWRbx/WP8Af3BefSn2qV6Yrxyqr2SS61vSo7ue6OmvNFZyelc6msUZEbrs25PqEJ0YgbYH&#xA;IjhkQBxc+ieiC2MwuRGhmK8RMAOXHrTl1phcbiNUqYodiqa+X7KOe4eSQBlhAop6cm6fqzHzzIFB&#xA;2PZuATmSeUWTZhPQpfr+sxaPpcl88TTlWSOKBCA0kkriONATsKsw3yUY2UE0htB1671C5vbG/sTp&#xA;+oWIiaWESrOhScMY2WQBK/YYEUxlGuSgpzkUuxV2KuxVByazpsbFWnFR1oGYfeARlgwyPRxJa7DE&#xA;0ZLf05pf+/8A/hX/AKYfAn3Mf5Qw/wA77D+pLdY1qKeE29tUq325CKbDegB3y/DhINlwNbr4zjww&#xA;+aSZkupQup6bb6jaNa3BYRsVYNGeLgowYFW7dMDPFkMJcQ5qlnZ2tnbR2trGIoIhxSNegH+ffCic&#xA;zI2eatixdirsVSTy1/xwrT/VP/EjkXqo8kz0D/lO7L/mAuv+TkOUaj6WcOaf/mL/AMobqH/PH/k+&#xA;mY2P6mcuSZeZJrKDQNQuL1GltIYHkmiRmRmVBy4hkIYVpTBHmk8klTypqGt2Yl8y6jcMLlQ0mlWr&#xA;/V7aNW39JuH7ySnQlmyXGByRV80R5e/5SvzX/wAxFp/1Bx4y+kKOZYzd/wDKZ+Y/+Mtr/wBQkeZW&#xA;H6QwlzQHmD7Wlf8AbQg/42y1xtT/AHcvcn2SebdirsVSK48tXUn1q3i1BotNvZGkuLb0wz/vDWVU&#xA;lJ+EOf8AJOByY6gCiY+ofjkniqFUKNgBQD2GFxm8VdiqO0nUBZXBZgTE4o4HX2OVZcfEHL0Wp8KV&#xA;nkU//Tml/wC//wDhX/pmJ4E+53X8oYf532H9SG1G78valZS2N6wmtZxxkjKuK0NQQQAQQRUEdDhG&#xA;GY6Ke0MP877D+pDaLF5Y0j1vqUj+rcsGuJ5mmllcqKLykk5NRR0FdsMscz0Ua/D/ADvvT9HR1Dow&#xA;ZTuGBqDlJFOZGQIscm8CXYqluvzyRaeQhp6jBGI8CCT+rLsEbk4HaWQxxbdTTCNc1B9O0q4vI1Dy&#xA;RgBA2y8nYIC1P2QWqfbM90GGHHIBBW13q9pq1tY388V2l5HI6PFGY2jeKhII5NVDy2PjgbJRhKJl&#xA;EVSd4XHdirsVdirsVdirsVSTy1/xwrT/AFT/AMSOReqjyTPQP+U7sv8AmAuv+TkOUaj6WcObI/P8&#xA;E03k/UlhQyOsay8FFSVikWRqD/VU5jY/qDZLkj7hNN8waHPDFMs9jqEDx+tEQw4yLSoPiK4BcSvN&#xA;jx82ap5ctYLPX9OluZQyW1teWTwOLkmioRDJJFIrt3UA/dk+AS5IuuaZeV7TUPr+s6reWrWX6TuI&#xA;mgtZWRpFSGBIeT+mXUFipNK5GZFAJDFbv/lM/Mf/ABltf+oSPMvD9Ia5c0B5g+1pX/bQg/42y1xt&#xA;T/dy9yfZJ5t2KuxV2KrZWdInZF5uqkqnSpA2H04qOaUeV9U1fUbKWXVLI2UySFUXiyclHfi/xbdM&#xA;DkajHCBqJtOcLjuxV2KuxV2Kp75ZnflNATVAA49j0P35i6mPIu47JyGzHpzT7MR3TsVUby1jurdo&#xA;X2DdD3BHQ5KEjE21Z8IyRMSxu68r3UqSQOkc8EgKsCRRlOxBBzMGoi6M9m5YnZAad5Bj06RpbS1V&#xA;JWXgXaRnYKN+ILs1F9hj48WWTR6iex/QmH+H9S/kX/ghh8eLX/Jubu+13+H9S/kX/ghj48V/k3N3&#xA;fa7/AA/qX8i/8EMfHiv8m5u77Xf4f1L+Rf8Aghj48V/k3N3fa7/D+pfyL/wQx8eK/wAm5u77Xf4f&#xA;1L+Rf+CGPjxX+Tc3d9rv8P6l/Iv/AAQx8eK/ybm7vtY/5c0TV10S0V7SRGCmqsvEj4j2O+HxI97v&#xA;BE0mGj6XqMHnaznlt5EhFjcqZSp4gmSKgLdKnKc0wY7M4jdnOYrYkkvkjyfLI0smjWbSOeTN6KCp&#xA;PU7DJ+JLvRwhWsPKnlnT7gXNjpdrb3CiiyxxIrCvgaVGAzJ6rQTXIpYBNpOpy+bfME8dtIYZJbb0&#xA;5OJCtxtYweJPWh22zMxTAiLLVIG0JrmhavJJpYS0kal/AWIFQqjlVmp0A8cs8WPe058ZlAgdWQ/4&#xA;f1L+Rf8Aghg8eLp/5Nzd32u/w/qX8i/8EMfHiv8AJubu+13+H9S/kX/ghj48V/k3N3fa7/D+pfyL&#xA;/wAEMfHiv8m5u77Xf4f1L+Rf+CGPjxX+Tc3d9rv8P6l/Iv8AwQx8eK/ybm7vtd/h/Uv5F/4IY+PF&#xA;f5Nzd32u/wAP6l/Iv/BDHx4r/Jubu+13+H9S/kX/AIIY+PFf5Nzd32u/w/qX8i/8EMfHiv8AJubu&#xA;+1w8v6kTQqo9ywwfmIqOzcvcPmnml6atjEQTylehdu23YZjZcnEXcaTSjDHvJ5v/2Q==</xmpGImg:image>
               </rdf:li>
            </rdf:Alt>
         </xmp:Thumbnails>
         <xmpMM:RenditionClass>proof:pdf</xmpMM:RenditionClass>
         <xmpMM:OriginalDocumentID>uuid:65E6390686CF11DBA6E2D887CEACB407</xmpMM:OriginalDocumentID>
         <xmpMM:DocumentID>xmp.did:c979ce59-48ee-9743-a9dd-2b41d0b71a8d</xmpMM:DocumentID>
         <xmpMM:InstanceID>xmp.iid:c979ce59-48ee-9743-a9dd-2b41d0b71a8d</xmpMM:InstanceID>
         <xmpMM:DerivedFrom rdf:parseType="Resource">
            <stRef:instanceID>uuid:62634c01-938e-4699-875f-8e9bef381c50</stRef:instanceID>
            <stRef:documentID>xmp.did:37ef2abf-b31e-aa40-9c39-3af3ec833183</stRef:documentID>
            <stRef:originalDocumentID>uuid:65E6390686CF11DBA6E2D887CEACB407</stRef:originalDocumentID>
            <stRef:renditionClass>proof:pdf</stRef:renditionClass>
         </xmpMM:DerivedFrom>
         <xmpMM:History>
            <rdf:Seq>
               <rdf:li rdf:parseType="Resource">
                  <stEvt:action>saved</stEvt:action>
                  <stEvt:instanceID>xmp.iid:37ef2abf-b31e-aa40-9c39-3af3ec833183</stEvt:instanceID>
                  <stEvt:when>2017-08-08T12:28:43-05:00</stEvt:when>
                  <stEvt:softwareAgent>Adobe Illustrator CC (Windows)</stEvt:softwareAgent>
                  <stEvt:changed>/</stEvt:changed>
               </rdf:li>
               <rdf:li rdf:parseType="Resource">
                  <stEvt:action>saved</stEvt:action>
                  <stEvt:instanceID>xmp.iid:c979ce59-48ee-9743-a9dd-2b41d0b71a8d</stEvt:instanceID>
                  <stEvt:when>2017-08-15T21:48:55-05:00</stEvt:when>
                  <stEvt:softwareAgent>Adobe Illustrator CC (Windows)</stEvt:softwareAgent>
                  <stEvt:changed>/</stEvt:changed>
               </rdf:li>
            </rdf:Seq>
         </xmpMM:History>
         <illustrator:StartupProfile>Web</illustrator:StartupProfile>
         <xmpTPg:NPages>1</xmpTPg:NPages>
         <xmpTPg:HasVisibleTransparency>False</xmpTPg:HasVisibleTransparency>
         <xmpTPg:HasVisibleOverprint>False</xmpTPg:HasVisibleOverprint>
         <xmpTPg:MaxPageSize rdf:parseType="Resource">
            <stDim:w>28.222222</stDim:w>
            <stDim:h>21.166667</stDim:h>
            <stDim:unit>Centimeters</stDim:unit>
         </xmpTPg:MaxPageSize>
         <xmpTPg:PlateNames>
            <rdf:Seq>
               <rdf:li>Cyan</rdf:li>
               <rdf:li>Magenta</rdf:li>
               <rdf:li>Yellow</rdf:li>
               <rdf:li>Black</rdf:li>
            </rdf:Seq>
         </xmpTPg:PlateNames>
         <xmpTPg:SwatchGroups>
            <rdf:Seq>
               <rdf:li rdf:parseType="Resource">
                  <xmpG:groupName>Grupo de muestras por defecto</xmpG:groupName>
                  <xmpG:groupType>0</xmpG:groupType>
               </rdf:li>
            </rdf:Seq>
         </xmpTPg:SwatchGroups>
         <pdf:Producer>Adobe PDF library 10.01</pdf:Producer>
      </rdf:Description>
   </rdf:RDF>
</x:xmpmeta>
                                                                                                    
                                                                                                    
                                                                                                    
                                                                                                    
                                                                                                    
                                                                                                    
                                                                                                    
                                                                                                    
                                                                                                    
                                                                                                    
                                                                                                    
                                                                                                    
                                                                                                    
                                                                                                    
                                                                                                    
                                                                                                    
                                                                                                    
                                                                                                    
                                                                                                    
                                                                                                    
                           
<?xpacket end="w"?>
	</metadata>
<g id="Capa_6" display="none">
</g>
<g id="Capa_1_1_">
	<g>
		<g>
			<g>
				<g>
					<g>
						<g>
							<g>
								<path fill="#B2EBF2" d="M768.672,258.919H31.329l0,0l0,0c-13.018,0-23.572,10.554-23.572,23.572
									s10.554,23.572,23.572,23.572l0,0l0,0h737.343c13.018,0,23.572-10.554,23.572-23.572
									C792.244,269.474,781.69,258.919,768.672,258.919z"/>
							</g>
						</g>
					</g>
				</g>
				<g>
					<g>
						<g>
							<g>
								<path fill="#B2EBF2" d="M768.672,307.135H31.329c-13.589,0-24.644-11.055-24.644-24.643s11.055-24.643,24.644-24.643
									h737.342c13.589,0,24.644,11.055,24.644,24.643C793.315,296.081,782.259,307.135,768.672,307.135z M31.329,259.992
									c-12.407,0-22.501,10.094-22.501,22.5c0,12.407,10.094,22.501,22.501,22.501h737.342c12.407,0,22.501-10.094,22.501-22.501
									c0-12.407-10.094-22.5-22.501-22.5H31.329L31.329,259.992z"/>
							</g>
						</g>
					</g>
				</g>
			</g>
			<g>
				<g>
					<g>
						<g>
							<g>
								<path fill="#B2EBF2" d="M759.057,444.055H95.241c-12.397,0-22.446,10.049-22.446,22.446
									c0,12.397,10.049,22.446,22.446,22.446h663.816c12.397,0,22.446-10.049,22.446-22.446
									C781.504,454.104,771.454,444.055,759.057,444.055z"/>
							</g>
						</g>
					</g>
				</g>
				<g>
					<g>
						<g>
							<g>
								<path fill="#B2EBF2" d="M759.057,490.018H95.241c-12.968,0-23.517-10.549-23.517-23.517
									c0-12.968,10.55-23.517,23.517-23.517h663.815c12.968,0,23.517,10.549,23.517,23.517
									C782.574,479.469,772.025,490.018,759.057,490.018z M95.241,445.126c-11.785,0-21.374,9.588-21.374,21.374
									c0,11.786,9.589,21.374,21.374,21.374h663.815c11.786,0,21.374-9.589,21.374-21.374c0-11.785-9.588-21.374-21.374-21.374
									H95.241z"/>
							</g>
						</g>
					</g>
				</g>
			</g>
			<g>
				<g>
					<g>
						<g>
							<g>
								<path fill="#B2EBF2" d="M687.946,168.598H66.312c-12.59,0-22.795,10.206-22.795,22.795c0,12.59,10.206,22.795,22.795,22.795
									h621.635c12.59,0,22.795-10.206,22.795-22.795C710.742,178.803,700.536,168.598,687.946,168.598z"/>
							</g>
						</g>
					</g>
				</g>
				<g>
					<g>
						<g>
							<g>
								<path fill="#B2EBF2" d="M687.947,215.26H66.311c-13.16,0-23.867-10.707-23.867-23.867s10.707-23.867,23.867-23.867h621.635
									c13.16,0,23.867,10.707,23.867,23.867C711.813,204.554,701.106,215.26,687.947,215.26z M66.311,169.67
									c-11.979,0-21.724,9.746-21.724,21.724c0,11.979,9.745,21.725,21.724,21.725h621.635c11.978,0,21.724-9.746,21.724-21.725
									c0-11.978-9.745-21.724-21.724-21.724H66.311z"/>
							</g>
						</g>
					</g>
				</g>
			</g>
			<g>
				<g>
					<g>
						<g>
							<g>
								<path fill="#B2EBF2" d="M758.881,353.418H31.329c-12.372,0-22.401,10.029-22.401,22.401s10.029,22.401,22.401,22.401
									h727.552c12.372,0,22.401-10.029,22.401-22.401C781.281,363.448,771.252,353.418,758.881,353.418z"/>
							</g>
						</g>
					</g>
				</g>
				<g>
					<g>
						<g>
							<g>
								<path fill="#B2EBF2" d="M758.881,399.292H31.329c-12.943,0-23.472-10.53-23.472-23.472s10.53-23.472,23.472-23.472h727.552
									c12.943,0,23.472,10.53,23.472,23.472C782.353,388.762,771.823,399.292,758.881,399.292z M31.329,354.49
									c-11.761,0-21.33,9.568-21.33,21.33c0,11.762,9.568,21.33,21.33,21.33h727.552c11.761,0,21.33-9.568,21.33-21.33
									c0-11.762-9.568-21.33-21.33-21.33H31.329z"/>
							</g>
						</g>
					</g>
				</g>
			</g>
			<g>
				<g>
					<g>
						<g>
							<g>
								<path fill="#B2EBF2" d="M631.438,236.554c0-12.352,10.013-22.365,22.365-22.365H150.366
									c12.352,0,22.365,10.013,22.365,22.365c0,12.352-10.013,22.365-22.365,22.365h503.438
									C641.452,258.919,631.438,248.906,631.438,236.554z"/>
							</g>
						</g>
					</g>
				</g>
				<g>
					<g>
						<g>
							<g>
								<path fill="#B2EBF2" d="M653.804,259.992H150.366c-0.592,0-1.071-0.48-1.071-1.071s0.48-1.071,1.071-1.071
									c11.742,0,21.294-9.552,21.294-21.294c0-11.741-9.552-21.293-21.294-21.293c-0.592,0-1.071-0.48-1.071-1.071
									s0.48-1.071,1.071-1.071h503.438c0.592,0,1.071,0.48,1.071,1.071s-0.48,1.071-1.071,1.071
									c-11.742,0-21.294,9.552-21.294,21.293c0,11.742,9.553,21.294,21.294,21.294c0.592,0,1.071,0.48,1.071,1.071
									C654.876,259.511,654.395,259.992,653.804,259.992z M160.153,257.849h483.864c-8.049-3.715-13.65-11.863-13.65-21.294
									s5.6-17.579,13.649-21.293H160.153c8.049,3.715,13.649,11.862,13.649,21.293
									C173.803,245.985,168.203,254.134,160.153,257.849z"/>
							</g>
						</g>
					</g>
				</g>
			</g>
			<g>
				<g>
					<g>
						<g>
							<g>
								<path fill="#B2EBF2" d="M670.79,353.419v-0.016c-0.208,0.006-0.415,0.015-0.624,0.016H670.79z M670.081,306.063
									c0.238,0,0.473,0.011,0.709,0.018v-0.018H670.081z M110.738,329.742c0,13.077-10.601,23.678-23.678,23.678l0,0h582.936
									c-13.039-0.046-23.594-10.627-23.594-23.676c0-13.077,10.601-23.678,23.678-23.678H87.06
									C100.137,306.063,110.738,316.664,110.738,329.742z"/>
							</g>
						</g>
					</g>
				</g>
				<g>
					<g>
						<g>
							<g>
								<path fill="#B2EBF2" d="M670.79,354.49h-0.624c-0.029,0-0.057-0.001-0.085-0.003c-0.028,0.002-0.056,0.003-0.085,0.003
									H87.06c-0.592,0-1.071-0.48-1.071-1.071s0.48-1.071,1.071-1.071c12.465,0,22.606-10.141,22.606-22.606
									c0-12.465-10.141-22.606-22.606-22.606c-0.592,0-1.071-0.48-1.071-1.071s0.48-1.071,1.071-1.071h583.729
									c0.592,0,1.071,0.48,1.071,1.071c0,0.289-0.117,0.576-0.325,0.777c-0.208,0.202-0.469,0.329-0.778,0.311l-0.196-0.007
									c-0.16-0.006-0.319-0.011-0.48-0.011c-12.465,0-22.607,10.141-22.607,22.608c0,12.421,10.105,22.561,22.526,22.604
									c0.027,0,0.054,0.001,0.081,0.003c0.16-0.012,0.328-0.008,0.49-0.012l0.19-0.006c0.285-0.023,0.568,0.101,0.776,0.303
									c0.207,0.202,0.324,0.479,0.324,0.768C671.862,353.995,671.381,354.49,670.79,354.49z M97.132,352.347h562.886
									c-8.643-3.868-14.686-12.554-14.686-22.604c0-10.063,6.036-18.743,14.679-22.608H97.132
									c8.642,3.865,14.678,12.543,14.678,22.606C111.809,339.803,105.774,348.482,97.132,352.347z"/>
							</g>
						</g>
					</g>
				</g>
			</g>
			<g>
				<path fill="#B2EBF2" d="M132.397,442.693c1.168,0.194,2.366,0.309,3.589,0.309H696.53c-8.297-4-14.081-12.305-14.081-22
					c0-9.696,5.784-18,14.081-22H135.986c-1.357,0-2.684,0.276-3.973,0.513c10.198,1.876,17.927,10.882,17.927,21.623
					C149.94,431.745,142.405,440.667,132.397,442.693z"/>
			</g>
		</g>
		<g>
			<g>
				<g>
					<polygon fill="#676E8A" points="403,401.003 395,401.003 395,397.003 399,397.003 399,393.003 403,393.003 					"/>
				</g>
				<g>
					<path fill="#676E8A" d="M380,401.503h-11c-1.381,0-2.5-1.119-2.5-2.5s1.119-2.5,2.5-2.5h11c1.381,0,2.5,1.119,2.5,2.5
						S381.381,401.503,380,401.503z M354,401.503h-11c-1.381,0-2.5-1.119-2.5-2.5s1.119-2.5,2.5-2.5h11c1.381,0,2.5,1.119,2.5,2.5
						S355.381,401.503,354,401.503z M328,401.503h-11c-1.381,0-2.5-1.119-2.5-2.5s1.119-2.5,2.5-2.5h11c1.381,0,2.5,1.119,2.5,2.5
						S329.381,401.503,328,401.503z M302,401.503h-11c-1.381,0-2.5-1.119-2.5-2.5s1.119-2.5,2.5-2.5h11c1.381,0,2.5,1.119,2.5,2.5
						S303.381,401.503,302,401.503z M276,401.503h-11c-1.381,0-2.5-1.119-2.5-2.5s1.119-2.5,2.5-2.5h11c1.381,0,2.5,1.119,2.5,2.5
						S277.381,401.503,276,401.503z M250,401.503h-11c-1.381,0-2.5-1.119-2.5-2.5s1.119-2.5,2.5-2.5h11c1.381,0,2.5,1.119,2.5,2.5
						S251.381,401.503,250,401.503z M224,401.503h-11c-1.381,0-2.5-1.119-2.5-2.5s1.119-2.5,2.5-2.5h11c1.381,0,2.5,1.119,2.5,2.5
						S225.381,401.503,224,401.503z"/>
				</g>
				<g>
					<polygon fill="#676E8A" points="196,401.003 188,401.003 188,393.003 192,393.003 192,397.003 196,397.003 					"/>
				</g>
				<g>
					<path fill="#676E8A" d="M190,379.503c-1.381,0-2.5-1.119-2.5-2.5v-12c0-1.381,1.119-2.5,2.5-2.5s2.5,1.119,2.5,2.5v12
						C192.5,378.384,191.381,379.503,190,379.503z M190,351.503c-1.381,0-2.5-1.119-2.5-2.5v-12c0-1.381,1.119-2.5,2.5-2.5
						s2.5,1.119,2.5,2.5v12C192.5,350.384,191.381,351.503,190,351.503z M190,323.503c-1.381,0-2.5-1.119-2.5-2.5v-12
						c0-1.381,1.119-2.5,2.5-2.5s2.5,1.119,2.5,2.5v12C192.5,322.384,191.381,323.503,190,323.503z M190,295.503
						c-1.381,0-2.5-1.119-2.5-2.5v-12c0-1.381,1.119-2.5,2.5-2.5s2.5,1.119,2.5,2.5v12C192.5,294.384,191.381,295.503,190,295.503z
						 M190,267.503c-1.381,0-2.5-1.119-2.5-2.5v-12c0-1.381,1.119-2.5,2.5-2.5s2.5,1.119,2.5,2.5v12
						C192.5,266.384,191.381,267.503,190,267.503z M190,239.503c-1.381,0-2.5-1.119-2.5-2.5v-12c0-1.381,1.119-2.5,2.5-2.5
						s2.5,1.119,2.5,2.5v12C192.5,238.384,191.381,239.503,190,239.503z"/>
				</g>
				<g>
					<polygon fill="#676E8A" points="192,212.002 188,212.002 188,204.002 196,204.002 196,208.002 192,208.002 					"/>
				</g>
				<g>
					<path fill="#676E8A" d="M378,208.502h-11c-1.381,0-2.5-1.119-2.5-2.5s1.119-2.5,2.5-2.5h11c1.381,0,2.5,1.119,2.5,2.5
						S379.381,208.502,378,208.502z M352,208.502h-11c-1.381,0-2.5-1.119-2.5-2.5s1.119-2.5,2.5-2.5h11c1.381,0,2.5,1.119,2.5,2.5
						S353.381,208.502,352,208.502z M326,208.502h-11c-1.381,0-2.5-1.119-2.5-2.5s1.119-2.5,2.5-2.5h11c1.381,0,2.5,1.119,2.5,2.5
						S327.381,208.502,326,208.502z M300,208.502h-11c-1.381,0-2.5-1.119-2.5-2.5s1.119-2.5,2.5-2.5h11c1.381,0,2.5,1.119,2.5,2.5
						S301.381,208.502,300,208.502z M274,208.502h-11c-1.381,0-2.5-1.119-2.5-2.5s1.119-2.5,2.5-2.5h11c1.381,0,2.5,1.119,2.5,2.5
						S275.381,208.502,274,208.502z M248,208.502h-11c-1.381,0-2.5-1.119-2.5-2.5s1.119-2.5,2.5-2.5h11c1.381,0,2.5,1.119,2.5,2.5
						S249.381,208.502,248,208.502z M222,208.502h-11c-1.381,0-2.5-1.119-2.5-2.5s1.119-2.5,2.5-2.5h11c1.381,0,2.5,1.119,2.5,2.5
						S223.381,208.502,222,208.502z"/>
				</g>
				<g>
					<polygon fill="#676E8A" points="403,212.002 399,212.002 399,208.002 395,208.002 395,204.002 403,204.002 					"/>
				</g>
				<g>
					<path fill="#676E8A" d="M403,380.002h-4v-12h4V380.002z M403,352.003h-4v-12.001h4V352.003z M403,324.002h-4v-12h4V324.002z
						 M403,296.002h-4v-12h4V296.002z M403,268.002h-4v-12h4V268.002z M403,240.002h-4v-12h4V240.002z"/>
				</g>
			</g>
		</g>
		<g>
			<g>
				<g>
					<path fill="#676E8A" d="M611.5,401.003H606c-1.381,0-2.5-1.119-2.5-2.5s1.119-2.5,2.5-2.5h3v-4c0-1.381,1.119-2.5,2.5-2.5
						s2.5,1.119,2.5,2.5v6.5C614,399.884,612.881,401.003,611.5,401.003z"/>
				</g>
				<g>
					<path fill="#676E8A" d="M591,401.003h-11c-1.381,0-2.5-1.119-2.5-2.5s1.119-2.5,2.5-2.5h11c1.381,0,2.5,1.119,2.5,2.5
						S592.381,401.003,591,401.003z M565,401.003h-11c-1.381,0-2.5-1.119-2.5-2.5s1.119-2.5,2.5-2.5h11c1.381,0,2.5,1.119,2.5,2.5
						S566.381,401.003,565,401.003z M539,401.003h-11c-1.381,0-2.5-1.119-2.5-2.5s1.119-2.5,2.5-2.5h11c1.381,0,2.5,1.119,2.5,2.5
						S540.381,401.003,539,401.003z M513,401.003h-11c-1.381,0-2.5-1.119-2.5-2.5s1.119-2.5,2.5-2.5h11c1.381,0,2.5,1.119,2.5,2.5
						S514.381,401.003,513,401.003z M487,401.003h-11c-1.381,0-2.5-1.119-2.5-2.5s1.119-2.5,2.5-2.5h11c1.381,0,2.5,1.119,2.5,2.5
						S488.381,401.003,487,401.003z M461,401.003h-11c-1.381,0-2.5-1.119-2.5-2.5s1.119-2.5,2.5-2.5h11c1.381,0,2.5,1.119,2.5,2.5
						S462.381,401.003,461,401.003z"/>
				</g>
				<g>
					<path fill="#676E8A" d="M433,401.003h-6.5c-1.381,0-2.5-1.119-2.5-2.5v-6.5c0-1.381,1.119-2.5,2.5-2.5s2.5,1.119,2.5,2.5v4h4
						c1.381,0,2.5,1.119,2.5,2.5S434.381,401.003,433,401.003z"/>
				</g>
				<g>
					<path fill="#676E8A" d="M426.5,379.503c-1.381,0-2.5-1.119-2.5-2.5v-11c0-1.381,1.119-2.5,2.5-2.5s2.5,1.119,2.5,2.5v11
						C429,378.384,427.881,379.503,426.5,379.503z M426.5,353.503c-1.381,0-2.5-1.119-2.5-2.5v-11c0-1.381,1.119-2.5,2.5-2.5
						s2.5,1.119,2.5,2.5v11C429,352.384,427.881,353.503,426.5,353.503z M426.5,327.503c-1.381,0-2.5-1.119-2.5-2.5v-11
						c0-1.381,1.119-2.5,2.5-2.5s2.5,1.119,2.5,2.5v11C429,326.384,427.881,327.503,426.5,327.503z M426.5,301.503
						c-1.381,0-2.5-1.119-2.5-2.5v-11c0-1.381,1.119-2.5,2.5-2.5s2.5,1.119,2.5,2.5v11C429,300.384,427.881,301.503,426.5,301.503z
						 M426.5,275.503c-1.381,0-2.5-1.119-2.5-2.5v-11c0-1.381,1.119-2.5,2.5-2.5s2.5,1.119,2.5,2.5v11
						C429,274.384,427.881,275.503,426.5,275.503z M426.5,249.503c-1.381,0-2.5-1.119-2.5-2.5v-11c0-1.381,1.119-2.5,2.5-2.5
						s2.5,1.119,2.5,2.5v11C429,248.384,427.881,249.503,426.5,249.503z"/>
				</g>
				<g>
					<path fill="#676E8A" d="M426.5,222.502c-1.381,0-2.5-1.119-2.5-2.5v-5.5c0-1.381,1.119-2.5,2.5-2.5h6.5
						c1.381,0,2.5,1.119,2.5,2.5s-1.119,2.5-2.5,2.5h-4v3C429,221.383,427.881,222.502,426.5,222.502z"/>
				</g>
				<g>
					<path fill="#676E8A" d="M589,217.002h-11c-1.381,0-2.5-1.119-2.5-2.5s1.119-2.5,2.5-2.5h11c1.381,0,2.5,1.119,2.5,2.5
						S590.381,217.002,589,217.002z M563,217.002h-11c-1.381,0-2.5-1.119-2.5-2.5s1.119-2.5,2.5-2.5h11c1.381,0,2.5,1.119,2.5,2.5
						S564.381,217.002,563,217.002z M537,217.002h-11c-1.381,0-2.5-1.119-2.5-2.5s1.119-2.5,2.5-2.5h11c1.381,0,2.5,1.119,2.5,2.5
						S538.381,217.002,537,217.002z M511,217.002h-11c-1.381,0-2.5-1.119-2.5-2.5s1.119-2.5,2.5-2.5h11c1.381,0,2.5,1.119,2.5,2.5
						S512.381,217.002,511,217.002z M485,217.002h-11c-1.381,0-2.5-1.119-2.5-2.5s1.119-2.5,2.5-2.5h11c1.381,0,2.5,1.119,2.5,2.5
						S486.381,217.002,485,217.002z M459,217.002h-11c-1.381,0-2.5-1.119-2.5-2.5s1.119-2.5,2.5-2.5h11c1.381,0,2.5,1.119,2.5,2.5
						S460.381,217.002,459,217.002z"/>
				</g>
				<g>
					<path fill="#676E8A" d="M611.5,222.502c-1.381,0-2.5-1.119-2.5-2.5v-3h-3c-1.381,0-2.5-1.119-2.5-2.5s1.119-2.5,2.5-2.5h5.5
						c1.381,0,2.5,1.119,2.5,2.5v5.5C614,221.383,612.881,222.502,611.5,222.502z"/>
				</g>
				<g>
					<path fill="#676E8A" d="M611.5,378.502c-1.381,0-2.5-1.119-2.5-2.5v-11c0-1.381,1.119-2.5,2.5-2.5s2.5,1.119,2.5,2.5v11
						C614,377.383,612.881,378.502,611.5,378.502z M611.5,352.502c-1.381,0-2.5-1.119-2.5-2.5v-11c0-1.381,1.119-2.5,2.5-2.5
						s2.5,1.119,2.5,2.5v11C614,351.383,612.881,352.502,611.5,352.502z M611.5,326.502c-1.381,0-2.5-1.119-2.5-2.5v-11
						c0-1.381,1.119-2.5,2.5-2.5s2.5,1.119,2.5,2.5v11C614,325.383,612.881,326.502,611.5,326.502z M611.5,300.502
						c-1.381,0-2.5-1.119-2.5-2.5v-11c0-1.381,1.119-2.5,2.5-2.5s2.5,1.119,2.5,2.5v11C614,299.383,612.881,300.502,611.5,300.502z
						 M611.5,274.502c-1.381,0-2.5-1.119-2.5-2.5v-11c0-1.381,1.119-2.5,2.5-2.5s2.5,1.119,2.5,2.5v11
						C614,273.383,612.881,274.502,611.5,274.502z M611.5,248.502c-1.381,0-2.5-1.119-2.5-2.5v-11c0-1.381,1.119-2.5,2.5-2.5
						s2.5,1.119,2.5,2.5v11C614,247.383,612.881,248.502,611.5,248.502z"/>
				</g>
			</g>
		</g>
		<g>
			<g>
				<g>
					<g>
						<path fill="#676E8A" d="M52.516,180.099c-6.341,0-11.5-5.159-11.5-11.5s5.159-11.5,11.5-11.5s11.5,5.159,11.5,11.5
							S58.857,180.099,52.516,180.099z M52.516,162.099c-3.584,0-6.5,2.916-6.5,6.5s2.916,6.5,6.5,6.5s6.5-2.916,6.5-6.5
							S56.1,162.099,52.516,162.099z M249.097,134.697c-4.687,0-8.5-3.813-8.5-8.5s3.813-8.5,8.5-8.5s8.5,3.813,8.5,8.5
							S253.784,134.697,249.097,134.697z M249.097,122.697c-1.93,0-3.5,1.57-3.5,3.5s1.57,3.5,3.5,3.5s3.5-1.57,3.5-3.5
							S251.027,122.697,249.097,122.697z"/>
					</g>
				</g>
			</g>
			<g>
				<g>
					<g>
						<circle fill="#676E8A" cx="110.821" cy="330.94" r="7.189"/>
					</g>
				</g>
			</g>
			<g>
				<g>
					<g>
						<path fill="#676E8A" d="M110.821,479.037c-6.223,0-11.287-5.063-11.287-11.287c0-6.223,5.063-11.287,11.287-11.287
							c6.223,0,11.287,5.063,11.287,11.287S117.045,479.037,110.821,479.037z M110.821,460.034c-4.255,0-7.716,3.461-7.716,7.716
							s3.461,7.716,7.716,7.716c4.254,0,7.716-3.461,7.716-7.716S115.076,460.034,110.821,460.034z"/>
					</g>
				</g>
			</g>
			<g>
				<g>
					<g>
						<path fill="#676E8A" d="M586.267,436.235c-6.104,0-11.071-4.966-11.071-11.071c0-6.104,4.966-11.071,11.071-11.071
							c6.104,0,11.071,4.966,11.071,11.071C597.337,431.269,592.371,436.235,586.267,436.235z M586.267,417.665
							c-4.135,0-7.499,3.365-7.499,7.499c0,4.135,3.364,7.499,7.499,7.499s7.499-3.365,7.499-7.499
							C593.766,421.031,590.402,417.665,586.267,417.665z"/>
					</g>
				</g>
			</g>
			<g>
				<g>
					<g>
						<path fill="#676E8A" d="M546.199,178.597c-6.104,0-11.071-4.966-11.071-11.071c0-6.104,4.966-11.071,11.071-11.071
							c6.104,0,11.071,4.966,11.071,11.071C557.269,173.63,552.303,178.597,546.199,178.597z M546.199,160.027
							c-4.135,0-7.499,3.365-7.499,7.499s3.364,7.499,7.499,7.499s7.499-3.365,7.499-7.499S550.334,160.027,546.199,160.027z"/>
					</g>
				</g>
			</g>
			<g>
				<g>
					<g>
						<path fill="#676E8A" d="M495.519,126.606c-6.104,0-11.071-4.966-11.071-11.071c0-6.104,4.966-11.071,11.071-11.071
							c6.104,0,11.071,4.966,11.071,11.071C506.59,121.639,501.624,126.606,495.519,126.606z M671.861,252.348
							c-3.033,0-5.5,2.468-5.5,5.5c0,3.032,2.467,5.5,5.5,5.5s5.5-2.468,5.5-5.5C677.361,254.816,674.894,252.348,671.861,252.348z"
							/>
					</g>
				</g>
			</g>
			<g>
				<g>
					<g>
						<path fill="#676E8A" d="M703.683,366.638c-5.449,0-9.883-4.434-9.883-9.884s4.434-9.884,9.883-9.884
							c5.45,0,9.884,4.434,9.884,9.884C713.567,362.203,709.133,366.638,703.683,366.638z M703.683,350.44
							c-3.481,0-6.312,2.831-6.312,6.313s2.831,6.313,6.312,6.313s6.313-2.831,6.313-6.313S707.164,350.44,703.683,350.44z"/>
					</g>
				</g>
			</g>
			<g>
				<g>
					<g>
						<path fill="#676E8A" d="M747.108,430.829c-5.131,0-9.305-4.175-9.305-9.305c0-5.131,4.175-9.305,9.305-9.305
							c5.131,0,9.306,4.175,9.306,9.305C756.414,426.656,752.24,430.829,747.108,430.829z M747.108,415.79
							c-3.162,0-5.734,2.572-5.734,5.734s2.572,5.734,5.734,5.734c3.163,0,5.735-2.572,5.735-5.734
							C752.843,418.362,750.271,415.79,747.108,415.79z"/>
					</g>
				</g>
			</g>
			<g>
				<g>
					<g>
						<circle fill="#676E8A" cx="625.586" cy="464.323" r="5.853"/>
					</g>
				</g>
			</g>
			<g>
				<circle fill="#676E8A" cx="276.058" cy="360.068" r="5.964"/>
			</g>
			<g>
				<path fill="#676E8A" d="M239.097,294.058c-6.617,0-12-5.383-12-12s5.383-12,12-12s12,5.383,12,12
					S245.714,294.058,239.097,294.058z M239.097,274.058c-4.411,0-8,3.589-8,8s3.589,8,8,8s8-3.589,8-8
					S243.508,274.058,239.097,274.058z"/>
			</g>
		</g>
		<g>
			<g>
				<g>
					<path fill="#FFFFFF" d="M536.428,331.675c0,11.867,9.62,21.486,21.486,21.486h31.344c0,0-1.079,9.959,1.616,9.959
						c4.507,0,12.49-9.959,12.49-9.959h28.949c11.867,0,21.486-9.62,21.486-21.486v-29.989c0-11.867-9.62-21.486-21.486-21.486
						h-74.398c-11.867,0-21.486,9.62-21.486,21.486L536.428,331.675L536.428,331.675z"/>
				</g>
				<g>
					<path fill="#676E8A" d="M590.874,364.42c-0.68,0-1.294-0.283-1.776-0.818c-1.548-1.726-1.46-6.429-1.263-9.14h-29.921
						c-12.565,0-22.786-10.222-22.786-22.786v-29.989c0-12.564,10.222-22.786,22.786-22.786h74.398
						c12.564,0,22.787,10.222,22.787,22.786v29.989c0,12.565-10.222,22.786-22.787,22.786H603.98
						C602.145,356.678,595.406,364.42,590.874,364.42z M557.915,281.5c-11.131,0-20.187,9.056-20.187,20.187v29.989
						c0,11.131,9.056,20.186,20.187,20.186h31.344c0.369,0,0.721,0.157,0.967,0.432c0.246,0.275,0.364,0.642,0.325,1.008
						c-0.409,3.782-0.198,7.748,0.438,8.516c2.865-0.15,8.464-5.855,11.361-9.468c0.246-0.308,0.62-0.487,1.014-0.487h28.95
						c11.131,0,20.187-9.056,20.187-20.186v-29.989c0-11.131-9.056-20.187-20.187-20.187L557.915,281.5L557.915,281.5z"/>
					<path fill="#676E8A" d="M590.874,364.921c-0.825,0-1.567-0.34-2.147-0.983c-1.509-1.682-1.626-5.7-1.426-8.975h-29.387
						c-12.84,0-23.286-10.446-23.286-23.286v-29.989c0-12.84,10.446-23.286,23.286-23.286h74.398
						c12.84,0,23.286,10.446,23.286,23.286v29.989c0,12.84-10.446,23.286-23.286,23.286h-28.098
						C602.069,357.53,595.488,364.921,590.874,364.921z M557.914,279.401c-12.289,0-22.286,9.998-22.286,22.286v29.989
						c0,12.289,9.997,22.286,22.286,22.286h30.459l-0.039,0.536c-0.321,4.41,0.093,7.606,1.136,8.77
						c0.385,0.427,0.87,0.652,1.404,0.652c3.41,0,8.808-5.051,12.722-9.777l0.149-0.181h28.567c12.289,0,22.286-9.997,22.286-22.286
						v-29.989c0-12.289-9.997-22.286-22.286-22.286H557.914z M590.765,362.33l-0.16-0.193c-0.826-0.996-0.93-5.39-0.551-8.889
						c0.024-0.226-0.049-0.451-0.2-0.62c-0.151-0.17-0.367-0.267-0.595-0.267h-31.344c-11.407,0-20.688-9.279-20.688-20.686v-29.989
						c0-11.407,9.28-20.687,20.688-20.687L632.314,281c11.406,0,20.687,9.28,20.687,20.687v29.989
						c0,11.406-9.28,20.686-20.687,20.686h-28.95c-0.244,0-0.472,0.109-0.624,0.3c-2.104,2.625-8.313,9.477-11.725,9.654
						L590.765,362.33z M557.915,282c-10.855,0-19.688,8.832-19.688,19.687v29.989c0,10.854,8.832,19.686,19.688,19.686h31.344
						c0.513,0,1.001,0.219,1.34,0.601c0.339,0.378,0.503,0.886,0.449,1.393c-0.404,3.742-0.156,6.979,0.211,7.928
						c2.662-0.494,7.788-5.611,10.701-9.245c0.343-0.429,0.854-0.675,1.404-0.675h28.95c10.855,0,19.687-8.831,19.687-19.686
						v-29.989c0-10.855-8.831-19.687-19.687-19.687L557.915,282z"/>
				</g>
			</g>
			<g>
				<g>
					<g>
						<path fill="#676E8A" d="M595.139,325.432c-4.375,0-7.933-3.559-7.933-7.933c0-4.374,3.559-7.933,7.933-7.933
							c4.374,0,7.933,3.559,7.933,7.933C603.072,321.873,599.513,325.432,595.139,325.432z M595.139,312.167
							c-2.941,0-5.333,2.392-5.333,5.333c0,2.941,2.392,5.333,5.333,5.333s5.333-2.392,5.333-5.333
							C600.472,314.558,598.08,312.167,595.139,312.167z"/>
						<path fill="#676E8A" d="M595.139,325.933c-4.649,0-8.433-3.783-8.433-8.434c0-4.649,3.783-8.433,8.433-8.433
							c4.65,0,8.434,3.783,8.434,8.433C603.572,322.149,599.789,325.933,595.139,325.933z M595.139,310.066
							c-4.099,0-7.433,3.334-7.433,7.433s3.334,7.434,7.433,7.434s7.434-3.335,7.434-7.434S599.237,310.066,595.139,310.066z
							 M595.139,323.332c-3.217,0-5.833-2.616-5.833-5.833s2.616-5.833,5.833-5.833s5.833,2.616,5.833,5.833
							S598.355,323.332,595.139,323.332z M595.139,312.666c-2.665,0-4.833,2.168-4.833,4.833s2.168,4.833,4.833,4.833
							s4.833-2.168,4.833-4.833S597.804,312.666,595.139,312.666z"/>
					</g>
				</g>
				<g>
					<g>
						<path fill="#676E8A" d="M617.772,325.432c-4.375,0-7.933-3.559-7.933-7.933c0-4.374,3.559-7.933,7.933-7.933
							c4.374,0,7.933,3.559,7.933,7.933C625.706,321.873,622.147,325.432,617.772,325.432z M617.772,312.167
							c-2.941,0-5.333,2.392-5.333,5.333c0,2.941,2.392,5.333,5.333,5.333s5.333-2.392,5.333-5.333
							C623.105,314.558,620.713,312.167,617.772,312.167z"/>
						<path fill="#676E8A" d="M617.772,325.933c-4.65,0-8.434-3.783-8.434-8.434c0-4.649,3.783-8.433,8.434-8.433
							c4.649,0,8.433,3.783,8.433,8.433c0.001,2.249-0.877,4.366-2.472,5.961S620.021,325.933,617.772,325.933z M617.772,310.066
							c-4.099,0-7.434,3.334-7.434,7.433s3.335,7.434,7.434,7.434c1.982,0,3.848-0.774,5.254-2.18
							c1.405-1.406,2.179-3.271,2.179-5.254C625.205,313.4,621.871,310.066,617.772,310.066z M617.772,323.332
							c-3.217,0-5.833-2.616-5.833-5.833s2.616-5.833,5.833-5.833s5.833,2.616,5.833,5.833S620.989,323.332,617.772,323.332z
							 M617.772,312.666c-2.665,0-4.833,2.168-4.833,4.833s2.168,4.833,4.833,4.833s4.833-2.168,4.833-4.833
							S620.438,312.666,617.772,312.666z"/>
					</g>
				</g>
				<g>
					<g>
						<path fill="#676E8A" d="M572.732,325.432c-4.375,0-7.933-3.559-7.933-7.933c0-4.374,3.559-7.933,7.933-7.933
							c4.375,0,7.933,3.559,7.933,7.933S577.106,325.432,572.732,325.432z M572.732,312.167c-2.941,0-5.333,2.392-5.333,5.333
							c0,2.941,2.392,5.333,5.333,5.333s5.333-2.392,5.333-5.333C578.065,314.558,575.673,312.167,572.732,312.167z"/>
						<path fill="#676E8A" d="M572.732,325.933c-4.65,0-8.434-3.783-8.434-8.434c0-4.649,3.783-8.433,8.434-8.433
							c4.649,0,8.433,3.783,8.433,8.433C581.165,322.149,577.382,325.933,572.732,325.933z M572.732,310.066
							c-4.099,0-7.434,3.334-7.434,7.433s3.335,7.434,7.434,7.434s7.433-3.335,7.433-7.434S576.831,310.066,572.732,310.066z
							 M572.732,323.332c-3.217,0-5.833-2.616-5.833-5.833s2.616-5.833,5.833-5.833s5.833,2.616,5.833,5.833
							S575.949,323.332,572.732,323.332z M572.732,312.666c-2.665,0-4.833,2.168-4.833,4.833s2.168,4.833,4.833,4.833
							s4.833-2.168,4.833-4.833S575.397,312.666,572.732,312.666z"/>
					</g>
				</g>
			</g>
		</g>
		<g>
			<g>
				<g>
					<path fill="#FFFFFF" d="M154.295,403.888c0,9.836,7.974,17.81,17.81,17.81h25.981c0,0-0.895,8.255,1.339,8.255
						c3.736,0,10.353-8.255,10.353-8.255h23.996c9.836,0,17.81-7.974,17.81-17.81V379.03c0-9.836-7.974-17.81-17.81-17.81h-61.668
						c-9.836,0-17.81,7.974-17.81,17.81L154.295,403.888L154.295,403.888z"/>
				</g>
				<g>
					<path fill="#676E8A" d="M199.425,431.074c-0.577,0-1.097-0.239-1.504-0.693c-1.285-1.432-1.223-5.302-1.061-7.562h-24.755
						c-10.439,0-18.931-8.492-18.931-18.931V379.03c0-10.439,8.493-18.932,18.931-18.932h61.669
						c10.439,0,18.931,8.493,18.931,18.932v24.858c0,10.439-8.493,18.931-18.931,18.931H210.31
						C208.767,424.68,203.19,431.074,199.425,431.074z M172.105,362.341c-9.202,0-16.689,7.487-16.689,16.689v24.858
						c0,9.202,7.486,16.689,16.689,16.689h25.981c0.318,0,0.622,0.135,0.834,0.372c0.213,0.237,0.314,0.553,0.28,0.87
						c-0.333,3.082-0.168,6.333,0.34,7.009c2.367-0.153,6.973-4.852,9.362-7.831c0.213-0.266,0.534-0.42,0.875-0.42h23.996
						c9.202,0,16.689-7.486,16.689-16.689V379.03c0-9.202-7.486-16.689-16.689-16.689H172.105L172.105,362.341z"/>
					<path fill="#676E8A" d="M199.425,431.574c-0.724,0-1.373-0.297-1.876-0.858c-1.259-1.404-1.376-4.691-1.222-7.396h-24.222
						c-10.714,0-19.431-8.717-19.431-19.431V379.03c0-10.715,8.717-19.432,19.431-19.432h61.669
						c10.714,0,19.431,8.717,19.431,19.432v24.858c0,10.714-8.717,19.431-19.431,19.431h-23.229
						C208.348,425.944,203.196,431.574,199.425,431.574z M172.105,360.599c-10.163,0-18.431,8.269-18.431,18.432v24.858
						c0,10.163,8.268,18.431,18.431,18.431h25.292l-0.039,0.536c-0.259,3.62,0.082,6.241,0.935,7.192
						c0.313,0.35,0.694,0.526,1.132,0.526c2.807,0,7.265-4.171,10.5-8.074l0.15-0.181h23.699c10.163,0,18.431-8.268,18.431-18.431
						V379.03c0-10.163-8.268-18.432-18.431-18.432H172.105z M199.303,429.345l-0.163-0.216c-0.674-0.898-0.752-4.449-0.437-7.363
						c0.019-0.176-0.038-0.352-0.155-0.482c-0.118-0.131-0.286-0.206-0.462-0.206h-25.981c-9.478,0-17.189-7.711-17.189-17.188
						V379.03c0-9.478,7.711-17.188,17.189-17.188h61.668c9.478,0,17.189,7.711,17.189,17.188v24.858
						c0,9.478-7.711,17.188-17.189,17.188h-23.996c-0.189,0-0.366,0.085-0.485,0.233c-1.737,2.167-6.872,7.833-9.719,8.017
						L199.303,429.345z M172.105,362.842c-8.927,0-16.189,7.262-16.189,16.188v24.858c0,8.927,7.262,16.188,16.189,16.188h25.981
						c0.46,0,0.899,0.196,1.206,0.538c0.306,0.342,0.454,0.8,0.405,1.257c-0.318,2.946-0.146,5.541,0.13,6.408
						c2.196-0.51,6.324-4.652,8.684-7.596c0.31-0.387,0.771-0.607,1.265-0.607h23.996c8.927,0,16.189-7.262,16.189-16.188V379.03
						c0-8.927-7.262-16.188-16.189-16.188H172.105z"/>
				</g>
			</g>
			<g>
				<g>
					<g>
						<path fill="#676E8A" d="M188.9,404.964c-0.31,0-0.616-0.141-0.817-0.406l-1.746-2.309c-0.17-0.225-0.24-0.51-0.192-0.789
							c0.047-0.278,0.207-0.524,0.443-0.681c1.852-1.229,3.201-2.423,4.009-3.549c0.555-0.772,1.002-1.725,1.335-2.844
							c-0.472,0.077-0.874,0.115-1.213,0.115c-1.898,0-3.453-0.668-4.621-1.985c-1.137-1.283-1.713-2.974-1.713-5.026
							c0-2.038,0.588-3.704,1.746-4.952c1.178-1.27,2.746-1.915,4.66-1.915c2.54,0,4.517,1.056,5.876,3.138
							c1.126,1.757,1.695,3.887,1.695,6.34c0,5.603-2.986,10.541-8.875,14.676C189.308,404.904,189.103,404.964,188.9,404.964z
							 M188.613,401.867l0.497,0.657c4.846-3.636,7.205-7.707,7.205-12.422c0-2.055-0.46-3.814-1.366-5.229
							c-0.966-1.48-2.328-2.203-4.158-2.203c-1.34,0-2.374,0.412-3.16,1.26c-0.808,0.87-1.2,2.035-1.2,3.561
							c0,1.559,0.392,2.759,1.198,3.668c0.774,0.872,1.785,1.296,3.09,1.296c0.341,0,1.022-0.07,2.331-0.401
							c0.338-0.084,0.696,0.007,0.951,0.246c0.254,0.239,0.37,0.59,0.306,0.933c-0.39,2.096-1.079,3.842-2.049,5.191
							C191.448,399.552,190.225,400.707,188.613,401.867z M206.287,404.964c-0.31,0-0.616-0.141-0.817-0.406l-1.745-2.309
							c-0.17-0.225-0.24-0.511-0.192-0.789c0.047-0.278,0.208-0.524,0.443-0.681c1.852-1.229,3.201-2.423,4.009-3.549
							c0.555-0.772,0.995-1.724,1.316-2.842c-0.462,0.076-0.858,0.114-1.194,0.114c-1.9,0-3.456-0.675-4.625-2.007
							c-1.134-1.295-1.709-2.978-1.709-5.004c0-2.038,0.587-3.704,1.746-4.952c1.179-1.27,2.747-1.915,4.66-1.915
							c2.54,0,4.517,1.056,5.877,3.137c1.126,1.756,1.694,3.887,1.694,6.34c0,5.603-2.986,10.541-8.875,14.676
							C206.695,404.904,206.49,404.964,206.287,404.964z M206.001,401.867l0.497,0.657c4.846-3.636,7.205-7.707,7.205-12.422
							c0-2.056-0.46-3.815-1.366-5.229c-0.966-1.48-2.328-2.203-4.159-2.203c-1.34,0-2.374,0.412-3.161,1.26
							c-0.807,0.87-1.2,2.035-1.2,3.561c0,1.537,0.393,2.732,1.201,3.655c0.773,0.881,1.783,1.31,3.087,1.31
							c0.34,0,1.013-0.07,2.29-0.4c0.336-0.087,0.694,0.002,0.949,0.238c0.256,0.235,0.374,0.585,0.315,0.927
							c-0.364,2.1-1.042,3.85-2.014,5.203C208.836,399.552,207.612,400.707,206.001,401.867z"/>
					</g>
				</g>
			</g>
		</g>
		<g>
			<g>
				<g>
					<path fill="#FFFFFF" d="M274.584,206.647c0,10.323-8.369,18.692-18.692,18.692h-27.268c0,0,0.939,8.663-1.406,8.663
						c-3.921,0-10.865-8.663-10.865-8.663h-25.184c-10.323,0-18.692-8.369-18.692-18.692v-26.089
						c0-10.323,8.369-18.692,18.692-18.692h64.723c10.323,0,18.692,8.369,18.692,18.692L274.584,206.647L274.584,206.647z"/>
				</g>
				<g>
					<path fill="#676E8A" d="M227.219,235.124c-3.941,0-9.805-6.742-11.398-8.663h-24.652c-10.925,0-19.813-8.888-19.813-19.813
						v-26.089c0-10.925,8.888-19.813,19.813-19.813h64.723c10.925,0,19.813,8.888,19.813,19.813v26.089
						c0,10.925-8.888,19.813-19.813,19.813h-26.041c0.173,2.355,0.252,6.453-1.095,7.955
						C228.34,234.879,227.808,235.124,227.219,235.124z M191.169,162.988c-9.689,0-17.571,7.882-17.571,17.571v26.089
						c0,9.689,7.882,17.571,17.571,17.571h25.184c0.34,0,0.662,0.155,0.874,0.42c2.524,3.147,7.405,8.116,9.896,8.241
						c0.558-0.659,0.743-4.117,0.385-7.419c-0.034-0.317,0.068-0.633,0.28-0.87c0.213-0.237,0.516-0.372,0.834-0.372h27.268
						c9.689,0,17.571-7.882,17.571-17.571v-26.089c0-9.689-7.882-17.571-17.571-17.571H191.169L191.169,162.988z"/>
					<path fill="#676E8A" d="M227.219,235.625c-3.926,0-9.333-5.915-11.633-8.663h-24.417c-11.201,0-20.313-9.112-20.313-20.313
						V180.56c0-11.201,9.112-20.313,20.313-20.313h64.723c11.201,0,20.313,9.112,20.313,20.313v26.089
						c0,11.201-9.112,20.313-20.313,20.313h-25.506c0.17,2.85,0.059,6.321-1.258,7.789
						C228.614,235.322,227.954,235.625,227.219,235.625z M191.169,161.247c-10.649,0-19.313,8.664-19.313,19.313v26.089
						c0,10.649,8.664,19.313,19.313,19.313h24.887l0.15,0.181c3.401,4.101,8.081,8.482,11.014,8.482c0.45,0,0.841-0.183,1.165-0.542
						c0.896-0.999,1.249-3.764,0.969-7.584l-0.04-0.537h26.579c10.649,0,19.313-8.664,19.313-19.313V180.56
						c0-10.649-8.664-19.313-19.313-19.313H191.169z M227.345,233.392l-0.247-0.012c-2.994-0.15-8.422-6.134-10.261-8.427
						c-0.117-0.146-0.297-0.233-0.484-0.233h-25.184c-9.964,0-18.071-8.107-18.071-18.071V180.56
						c0-9.964,8.106-18.071,18.071-18.071h64.721c9.964,0,18.071,8.107,18.071,18.071v26.089c0,9.964-8.106,18.071-18.071,18.071
						h-27.268c-0.176,0-0.345,0.075-0.462,0.206c-0.117,0.13-0.174,0.307-0.155,0.483c0.288,2.651,0.323,6.823-0.5,7.795
						L227.345,233.392z M191.169,163.488c-9.413,0-17.071,7.658-17.071,17.071v26.089c0,9.413,7.658,17.071,17.071,17.071h25.184
						c0.495,0,0.956,0.222,1.265,0.608c2.516,3.136,6.924,7.545,9.233,8.015c0.309-0.865,0.497-3.722,0.16-6.827
						c-0.049-0.457,0.099-0.915,0.404-1.257c0.308-0.343,0.748-0.539,1.207-0.539h27.268c9.413,0,17.071-7.658,17.071-17.071V180.56
						c0-9.413-7.658-17.071-17.071-17.071H191.169z"/>
				</g>
			</g>
			<g>
				<g>
					<path fill="#676E8A" d="M251.227,198.943h-55.392c-2.997,0-5.436-2.438-5.436-5.436s2.438-5.436,5.436-5.436h55.393
						c2.997,0,5.436,2.438,5.436,5.436C256.663,196.504,254.224,198.943,251.227,198.943z M195.834,190.313
						c-1.761,0-3.194,1.433-3.194,3.194s1.433,3.193,3.194,3.193h55.393c1.761,0,3.194-1.433,3.194-3.193
						c0-1.761-1.433-3.194-3.194-3.194H195.834z"/>
				</g>
			</g>
		</g>
		<g>
			<g>
				<g>
					<g>
						<path fill="#C5CAE8" d="M396.828,128.698c49.624,0,95.174,37.351,95.174,86.545s0,277.793,0,277.793h-34.618
							c0,0,0-103.792,0-110.169s-11.387-28.696-30.974-28.696s-48.283,0-58.304,0s-28.241,12.298-28.241,33.707s0,105.159,0,105.159
							h-35.529c0,0,0-270.96,0-283.714S326.655,128.698,396.828,128.698z"/>
					</g>
				</g>
			</g>
			<g>
				<g>
					<g>
						<path fill="#FFFFFF" d="M457.384,494.464c0,0,0-105.22,0-111.598s-11.387-28.696-30.974-28.696s-48.283,0-58.304,0
							s-28.241,12.298-28.241,33.707s0,106.587,0,106.587L457.384,494.464L457.384,494.464z"/>
					</g>
				</g>
			</g>
			<g>
				<g>
					<g>
						<path fill="#FFFFFF" d="M339.865,210.233c0,9.11,0,25.508,0,25.508s-11.843,1.822-11.843,11.387
							c0,9.565,11.843,10.476,11.843,10.476v19.587c0,0,7.339,53.749,56.963,53.749s60.556-47.372,60.556-55.116
							c0-7.744,0-18.22,0-18.22s10.932,0.911,10.932-10.476c0-8.654-7.264-11.387-10.932-11.387
							c-17.309,0-37.154-14.12-37.154-37.807c0,0-64.763,0-68.522,0S339.865,201.122,339.865,210.233z"/>
					</g>
				</g>
			</g>
			<g>
				<g>
					<g>
						<path fill="#FFFFFF" d="M379.692,328.49v25.68h36.696v-26.064c0,0-9.645,2.833-19.561,2.833
							C386.912,330.94,379.692,328.49,379.692,328.49z"/>
					</g>
				</g>
			</g>
			<g>
				<g>
					<g>
						<path fill="#C5CAE8" d="M414.111,290.401c0,8.805-7.138,15.942-15.942,15.942s-15.942-7.138-15.942-15.942H414.111z"/>
					</g>
				</g>
			</g>
			<g>
				<g>
					<g>
						<circle fill="#676E8A" cx="397.364" cy="427.605" r="2.44"/>
					</g>
				</g>
			</g>
			<g>
				<g>
					<g>
						<circle fill="#B2EBF2" cx="400.399" cy="411.595" r="7.857"/>
					</g>
				</g>
			</g>
			<g>
				<g>
					<g>
						<path fill="#676E8A" d="M398.982,419.451c-6.014,0-10.906-4.892-10.906-10.906c0-6.014,4.892-10.906,10.906-10.906
							c0.986,0,1.786,0.8,1.786,1.786s-0.8,1.786-1.786,1.786c-4.045,0-7.335,3.291-7.335,7.335c0,4.045,3.29,7.335,7.335,7.335
							c4.045,0,7.335-3.29,7.335-7.335c0-0.986,0.8-1.786,1.786-1.786c0.986,0,1.786,0.8,1.786,1.786
							C409.889,414.56,404.996,419.451,398.982,419.451z"/>
					</g>
				</g>
			</g>
			<g>
				<g>
					<g>
						<path fill="#676E8A" d="M492.002,495.536c-0.986,0-1.786-0.8-1.786-1.786v-77.767c0-0.986,0.8-1.786,1.786-1.786
							s1.786,0.8,1.786,1.786v77.767C493.787,494.737,492.988,495.536,492.002,495.536z"/>
					</g>
				</g>
			</g>
			<g>
				<g>
					<g>
						<path fill="#676E8A" d="M492.002,402.893c-0.986,0-1.786-0.8-1.786-1.786V214.529c0-45.945-42.766-84.759-93.388-84.759
							c-4.061,0-8.085,0.235-11.958,0.7c-0.974,0.113-1.868-0.581-1.986-1.561c-0.117-0.979,0.581-1.868,1.561-1.986
							c4.014-0.481,8.18-0.725,12.383-0.725c24.577,0,49.135,9.211,67.375,25.27c19.078,16.795,29.584,39.191,29.584,63.06v186.579
							C493.787,402.094,492.988,402.893,492.002,402.893z"/>
					</g>
				</g>
			</g>
			<g>
				<g>
					<g>
						<path fill="#676E8A" d="M304.336,355.242c-0.986,0-1.786-0.8-1.786-1.786V208.607c0-5.241,3.451-19.377,12.711-34.993
							c7.76-13.086,21.84-30.707,44.853-40.346c2.776-1.163,5.656-2.196,8.559-3.072c0.943-0.284,1.94,0.25,2.225,1.194
							s-0.25,1.94-1.194,2.225c-2.785,0.84-5.548,1.831-8.21,2.946c-40.92,17.14-55.372,62.102-55.372,72.045v144.848
							C306.122,354.443,305.322,355.242,304.336,355.242z"/>
					</g>
				</g>
			</g>
			<g>
				<g>
					<g>
						<path fill="#676E8A" d="M304.336,375.992c-0.986,0-1.786-0.8-1.786-1.786v-13.524c0-0.986,0.8-1.786,1.786-1.786
							c0.986,0,1.786,0.8,1.786,1.786v13.525C306.122,375.193,305.322,375.992,304.336,375.992z"/>
					</g>
				</g>
			</g>
			<g>
				<g>
					<g>
						<path fill="#676E8A" d="M304.336,495.536c-0.986,0-1.786-0.8-1.786-1.786V386.907c0-0.986,0.8-1.786,1.786-1.786
							c0.986,0,1.786,0.8,1.786,1.786V493.75C306.122,494.737,305.322,495.536,304.336,495.536z"/>
					</g>
				</g>
			</g>
			<g>
				<g>
					<g>
						<path fill="#676E8A" d="M339.865,495.536c-0.986,0-1.786-0.8-1.786-1.786V387.164c0-5.585,1.182-10.899,3.513-15.793
							c0.424-0.89,1.488-1.268,2.38-0.844c0.89,0.424,1.268,1.489,0.844,2.38c-2.1,4.41-3.166,9.207-3.166,14.257V493.75
							C341.65,494.737,340.851,495.536,339.865,495.536z"/>
					</g>
				</g>
			</g>
			<g>
				<g>
					<g>
						<path fill="#676E8A" d="M457.384,495.536c-0.986,0-1.786-0.8-1.786-1.786V382.152c0-5.571-10.964-26.911-29.189-26.911
							h-58.304c-3.292,0-7.45,1.487-11.407,4.079c-0.825,0.543-1.932,0.31-2.472-0.515c-0.54-0.825-0.31-1.932,0.515-2.472
							c4.523-2.964,9.394-4.664,13.364-4.664h58.304c20.781,0,32.76,23.134,32.76,30.482v111.598
							C459.169,494.737,458.37,495.536,457.384,495.536z"/>
					</g>
				</g>
			</g>
			<g>
				<g>
					<g>
						<path fill="#676E8A" d="M396.828,332.011c-26.471,0-41.052-15.087-48.623-27.743c-8.132-13.594-10.032-26.986-10.109-27.549
							c-0.011-0.08-0.016-0.161-0.016-0.242v-18.021c-4.828-0.869-11.843-4.13-11.843-12.042c0-7.891,7.06-11.649,11.843-12.844
							v-24.052c0-10.537,9.359-14.084,13.629-14.084h68.522c0.986,0,1.786,0.8,1.786,1.786c0,22.249,18.359,36.021,35.369,36.021
							c5.28,0,12.717,4.087,12.717,13.173c0,8.429-5.44,11.807-10.932,12.232v16.464
							C459.169,283.953,447.673,332.011,396.828,332.011z M341.65,276.346c0.201,1.311,2.269,13.848,9.679,26.187
							c10.323,17.191,25.631,25.907,45.5,25.907c25.422,0,39.821-12.991,47.423-23.89c8.659-12.413,11.348-25.923,11.348-29.44
							v-18.22c0-0.499,0.209-0.976,0.577-1.314c0.368-0.338,0.862-0.506,1.357-0.465c0.023,0.002,0.175,0.011,0.418,0.011
							c2.58,0,8.58-0.848,8.58-8.708c0-7.838-6.773-9.602-9.146-9.602c-18.266,0-37.947-14.403-38.903-37.807H351.71
							c-1.995,0-10.058,1.871-10.058,10.513v25.508c0,0.881-0.643,1.63-1.514,1.765c-0.418,0.066-10.329,1.722-10.329,9.623
							c0,7.822,9.778,8.664,10.195,8.697c0.93,0.072,1.649,0.847,1.649,1.78L341.65,276.346L341.65,276.346z"/>
					</g>
				</g>
			</g>
			<g>
				<g>
					<g>
						<path fill="#676E8A" d="M416.388,355.242h-36.696c-0.986,0-1.786-0.8-1.786-1.786v-25.679c0-0.575,0.278-1.116,0.746-1.451
							c0.468-0.335,1.068-0.425,1.614-0.239c0.068,0.023,7.09,2.354,16.562,2.354c9.548,0,18.964-2.732,19.058-2.76
							c0.539-0.16,1.122-0.054,1.573,0.284c0.45,0.337,0.716,0.866,0.716,1.429v26.063
							C418.174,354.443,417.375,355.242,416.388,355.242z M381.478,351.67h33.125v-21.963c-3.499,0.852-10.519,2.303-17.776,2.303
							c-6.824,0-12.375-1.115-15.35-1.869L381.478,351.67L381.478,351.67z"/>
					</g>
				</g>
			</g>
			<g>
				<g>
					<g>
						<path fill="#676E8A" d="M409.99,476.86h-24.919c-7.899,0-14.324-6.426-14.324-14.325v-63.089
							c0-7.899,6.426-14.325,14.324-14.325h24.919c7.899,0,14.325,6.426,14.325,14.325v63.089
							C424.315,470.435,417.89,476.86,409.99,476.86z M385.072,388.693c-5.93,0-10.753,4.824-10.753,10.754v63.089
							c0,5.93,4.824,10.754,10.753,10.754h24.919c5.93,0,10.754-4.824,10.754-10.754v-63.089c0-5.93-4.824-10.754-10.754-10.754
							H385.072L385.072,388.693z"/>
					</g>
				</g>
			</g>
			<g>
				<g>
					<g>
						<path fill="#FFFFFF" d="M422.53,410.394c0,0,10.712-0.911,10.712,9.565s0,30.063,0,37.351c0,5.694-2.814,8.655-7.288,8.655
							c-5.922,0-11.843,0-11.843,0s-15.942-1.922-15.942-18.447c0-16.526,20.482-18.447,24.361-18.447L422.53,410.394
							L422.53,410.394z"/>
					</g>
				</g>
				<g>
					<g>
						<path fill="#676E8A" d="M425.954,467.75h-11.843c-0.071,0-0.143-0.004-0.214-0.012c-0.175-0.022-17.514-2.319-17.514-20.221
							c0-15.375,16.193-19.626,24.361-20.17v-16.953c0-0.923,0.714-1.696,1.634-1.779c0,0,0.291-0.027,0.787-0.027
							c5.735,0,11.862,2.987,11.862,11.371v37.351C435.028,463.847,431.636,467.75,425.954,467.75z M414.227,464.18h11.727
							c4.547,0,5.503-3.736,5.503-6.869v-37.351c0-6-4.06-7.488-7.141-7.751v16.862c0,0.986-0.8,1.786-1.786,1.786
							c-0.226,0-22.576,0.454-22.576,16.662C399.955,461.811,412.858,463.99,414.227,464.18z"/>
					</g>
				</g>
			</g>
		</g>
	</g>
</g>
</svg>
