<?xml version="1.0" encoding="utf-8"?>
<!-- Generator: Adobe Illustrator 17.0.0, SVG Export Plug-In . SVG Version: 6.00 Build 0)  -->
<!DOCTYPE svg PUBLIC "-//W3C//DTD SVG 1.1//EN" "http://www.w3.org/Graphics/SVG/1.1/DTD/svg11.dtd" [
	<!ENTITY ns_flows "http://ns.adobe.com/Flows/1.0/">
	<!ENTITY ns_extend "http://ns.adobe.com/Extensibility/1.0/">
	<!ENTITY ns_ai "http://ns.adobe.com/AdobeIllustrator/10.0/">
	<!ENTITY ns_graphs "http://ns.adobe.com/Graphs/1.0/">
	<!ENTITY ns_vars "http://ns.adobe.com/Variables/1.0/">
	<!ENTITY ns_imrep "http://ns.adobe.com/ImageReplacement/1.0/">
	<!ENTITY ns_sfw "http://ns.adobe.com/SaveForWeb/1.0/">
	<!ENTITY ns_custom "http://ns.adobe.com/GenericCustomNamespace/1.0/">
	<!ENTITY ns_adobe_xpath "http://ns.adobe.com/XPath/1.0/">
]>
<svg version="1.1" id="Capa_1" xmlns:x="&ns_extend;" xmlns:i="&ns_ai;" xmlns:graph="&ns_graphs;"
	 xmlns="http://www.w3.org/2000/svg" xmlns:xlink="http://www.w3.org/1999/xlink" xmlns:a="http://ns.adobe.com/AdobeSVGViewerExtensions/3.0/"
	 x="0px" y="0px" width="800px" height="600px" viewBox="0 0 800 600" enable-background="new 0 0 800 600" xml:space="preserve">
<metadata><?xpacket begin="﻿" id="W5M0MpCehiHzreSzNTczkc9d"?>
<x:xmpmeta xmlns:x="adobe:ns:meta/" x:xmptk="Adobe XMP Core 5.5-c014 79.151739, 2013/04/03-12:12:15        ">
   <rdf:RDF xmlns:rdf="http://www.w3.org/1999/02/22-rdf-syntax-ns#">
      <rdf:Description rdf:about=""
            xmlns:dc="http://purl.org/dc/elements/1.1/"
            xmlns:xmp="http://ns.adobe.com/xap/1.0/"
            xmlns:xmpGImg="http://ns.adobe.com/xap/1.0/g/img/"
            xmlns:xmpMM="http://ns.adobe.com/xap/1.0/mm/"
            xmlns:stRef="http://ns.adobe.com/xap/1.0/sType/ResourceRef#"
            xmlns:stEvt="http://ns.adobe.com/xap/1.0/sType/ResourceEvent#"
            xmlns:illustrator="http://ns.adobe.com/illustrator/1.0/"
            xmlns:xmpTPg="http://ns.adobe.com/xap/1.0/t/pg/"
            xmlns:stDim="http://ns.adobe.com/xap/1.0/sType/Dimensions#"
            xmlns:xmpG="http://ns.adobe.com/xap/1.0/g/"
            xmlns:pdf="http://ns.adobe.com/pdf/1.3/">
         <dc:format>image/svg+xml</dc:format>
         <dc:title>
            <rdf:Alt>
               <rdf:li xml:lang="x-default">LANDINGPAGE---IMAGENESIDEAS</rdf:li>
            </rdf:Alt>
         </dc:title>
         <xmp:CreatorTool>Adobe Illustrator CC (Windows)</xmp:CreatorTool>
         <xmp:CreateDate>2017-08-15T21:49:26-05:00</xmp:CreateDate>
         <xmp:ModifyDate>2017-08-15T21:49:27-05:00</xmp:ModifyDate>
         <xmp:MetadataDate>2017-08-15T21:49:27-05:00</xmp:MetadataDate>
         <xmp:Thumbnails>
            <rdf:Alt>
               <rdf:li rdf:parseType="Resource">
                  <xmpGImg:width>256</xmpGImg:width>
                  <xmpGImg:height>112</xmpGImg:height>
                  <xmpGImg:format>JPEG</xmpGImg:format>
                  <xmpGImg:image>/9j/4AAQSkZJRgABAgEBLAEsAAD/7QAsUGhvdG9zaG9wIDMuMAA4QklNA+0AAAAAABABLAAAAAEA&#xA;AQEsAAAAAQAB/+4ADkFkb2JlAGTAAAAAAf/bAIQABgQEBAUEBgUFBgkGBQYJCwgGBggLDAoKCwoK&#xA;DBAMDAwMDAwQDA4PEA8ODBMTFBQTExwbGxscHx8fHx8fHx8fHwEHBwcNDA0YEBAYGhURFRofHx8f&#xA;Hx8fHx8fHx8fHx8fHx8fHx8fHx8fHx8fHx8fHx8fHx8fHx8fHx8fHx8fHx8f/8AAEQgAcAEAAwER&#xA;AAIRAQMRAf/EAaIAAAAHAQEBAQEAAAAAAAAAAAQFAwIGAQAHCAkKCwEAAgIDAQEBAQEAAAAAAAAA&#xA;AQACAwQFBgcICQoLEAACAQMDAgQCBgcDBAIGAnMBAgMRBAAFIRIxQVEGE2EicYEUMpGhBxWxQiPB&#xA;UtHhMxZi8CRygvElQzRTkqKyY3PCNUQnk6OzNhdUZHTD0uIIJoMJChgZhJRFRqS0VtNVKBry4/PE&#xA;1OT0ZXWFlaW1xdXl9WZ2hpamtsbW5vY3R1dnd4eXp7fH1+f3OEhYaHiImKi4yNjo+Ck5SVlpeYmZ&#xA;qbnJ2en5KjpKWmp6ipqqusra6voRAAICAQIDBQUEBQYECAMDbQEAAhEDBCESMUEFURNhIgZxgZEy&#xA;obHwFMHR4SNCFVJicvEzJDRDghaSUyWiY7LCB3PSNeJEgxdUkwgJChgZJjZFGidkdFU38qOzwygp&#xA;0+PzhJSktMTU5PRldYWVpbXF1eX1RlZmdoaWprbG1ub2R1dnd4eXp7fH1+f3OEhYaHiImKi4yNjo&#xA;+DlJWWl5iZmpucnZ6fkqOkpaanqKmqq6ytrq+v/aAAwDAQACEQMRAD8A9U4q4kAEk0A3JOKkoVtU&#xA;04GhuEqPA1/VlnhS7nGOsxD+INfpbTv+WhcfCl3L+cxfzg79Lad/y0Lj4Uu5fzmL+cHfpbTv+Whc&#xA;fCl3L+cxfzg79Lad/wAtC4+FLuX85i/nB36W07/loXHwpdy/nMX84O/S2nf8tC4+FLuX85i/nB36&#xA;W07/AJaFx8KXcv5zF/ODv0tp3/LQuPhS7l/OYv5wYnpuiaR5p1bWr/WI/wBIJZ3hsbCCQt6MUUcU&#xA;bkqgIHJ2k+InJSJjQGzbAiYsbhM/+VceRv8AqzW/3H+uR8WXey4Q7/lXHkb/AKs1v9x/rj4su9eE&#xA;O/5Vx5G/6s1v9x/rj4su9eEO/wCVceRv+rNb/cf64+LLvXhDv+VceRv+rNb/AHH+uPiy714Q7/lX&#xA;Hkb/AKs1v9x/rj4su9eEO/5Vx5G/6s1v9x/rj4su9eEO/wCVceRv+rNb/cf64+LLvXhCXpYab5X8&#xA;36fBp3+h6bqtvc/WrMEmES23plJFUk8WIkINMkLmPNhOcYbk0GU/pbTv+Whcj4Uu5r/OYv5wd+lt&#xA;O/5aFx8KXcv5zF/ODv0tp3/LQuPhS7l/OYv5wd+ltO/5aFx8KXcv5zF/ODjq+mgEm4QAbkk4+FLu&#xA;X85i/nBiSw3vnW8kv4L2407Q7IsmkT27cHnuFNGuTX7Ua04qp675L6NurdzR1l5pvdKuk0vzYEgn&#xA;c8LPV4wVtbnwB/31L4qdvDI8F7xUyrmylHR1DIwZT0YGoP3ZAimUZAiw3gS7FXYq7FUj8y3MirFb&#xA;qSFerP706DMrTR6un7VykARHIpBmW6VKrVvNWpS315pFrBdabZy/VhC7mKaaRBWVonNU+Enj8XXx&#xA;yqWURNF2uHs7jxg3UlS116yluTZXCvYagv2rK7X0pN/5a7OP9UnJiQPJw82kyY+Y2THJOM7FXYq7&#xA;FXYq7FUZ+XH+8+u/9tWX/kxBmDqPqen0P90GX5Q5bsVdirsVdirsVdirsVYT55/5Sfy7/wAYb/8A&#xA;VBmVpurru0/7v4qWZbzzsVdirsVS02k/mPVjoVq5SwhAfW7pOojP2bdD/PJ38F+7KsuThDtez9Jx&#xA;Hjly6PSbe3gtreO3t0EUEKhIo1FFVVFAAPYZryXeqd/p9lqFpJZ3sKXFtKKSROKgj/PvhBpWIR2+&#xA;r+SpWdTNqnlZt3ArJdWY/mp/u2Je/wC0B40y4y4x/SaIYhAkjkWYWF/ZahaR3llMlxbTDlHLGeSk&#xA;f59cpIpvV8CuxV2KoDV9NN7CvAgTR14V6EHqMtxZOE+Tha3S+LHb6gwzzMmp6ZppMcX+mXUiWlit&#xA;V+KeY8Upv2+19GZgyxPJ1OPQZOIcQ2Zl5e0a30XRbTTIN0towrP3dzu7n3ZiTmBKVm3ogKC/VtF0&#xA;nV7Y22pWsd1D1CyCpU+Kt9pT7g4BIjkpFsRvvJGsaWrTaFqAntUqzadqLFgqgVIjuBV1p2Dgj3zJ&#xA;hqO9wc/Z8J7jYoPR9QOo6Zb3xhaAXC8ljfrSpAIPcGlQfDMoF0ObEccjEozC1OxV2KuxVGflx/vP&#xA;rv8A21Zf+TEGYOo+p6fQ/wB0GX5Q5bsVdirsVdirsVdirsVYT55/5Sfy7/xhv/1QZlabq67tP+7+&#xA;KlmW887FXYqgtbm1GHSrmTTovWvFT9ynudqgHqQN6d8WzCImQ4uTJPy//QC+XYk0eb1wGLX0kg4z&#xA;m5b+8M6ndXr2Pbptmuy3e71eOq25Mkytm7FXYqxW/wDLOoaVdy6t5VKRSyHne6PIeNrcnuyU/uZT&#xA;/MNj3ywSB2LGu5NvL3mG01uzeeBJIJreRre8tZl4yQzJTkjdjSvUZGUaSDaaZFLsVdiqReZvLt5q&#xA;c+n31jeC0v8AS3eS2EsYmgcyLxIkQkHpsGBqKnJxlXNBCCXzjfaWVi81ac1gCaDU7as9k3uzAepF&#xA;XwcfTh4L5I4u9ktpd2t5bpc2kyXFvIKxyxMHRh7MKjIEUyY557upZrez8uWshS81+U25dSAyWqDn&#xA;dOK/8Vjj9OTxjr3MZdyO1uytbfS4I4UEaW3CKBR2QLQKPkBlmnkeJ1vakB4YPUFj2ZroVDyr5V0z&#xA;zFBc6traG95XM0NpaOzCGKOBzGPgUgM7FSSTmHmykGg9Lo8EYwB6lPv+VceRv+rNb/cf65V4su9y&#xA;+EO/5Vx5G/6s1v8Acf64+LLvXhCj5AsrSxHmC0tIlhtodWlWKJeij6vBsMchuvcsWVZWydirsVdi&#xA;rsVdirsVdirEPNmk6bqvm7y7aajbpc2xg1BjE+4qogoctgSImmJG6L/5Vx5G/wCrNb/cf64PFl3r&#xA;wh3/ACrjyN/1Zrf7j/XHxZd68IY3daTb6D5q/RtgWTTLuzN1HaszOsUscgjYR8qkKwcGnjmVgmZD&#xA;d1HamGIAkOaNy90zVr5alubibU9Iuv0drcIXjKBWGZd/3dwg+2ppSvUZj55AVbueypEiQvlSceXP&#xA;OdtqN7No+oILDzBaHhcWRYMrkCvOF/21KnlTqB9+Y0oVuOTtxJkmVsnYqx3zXrd7E8Gh6MQdd1IH&#xA;0WO628I2kuZPZei+LePTJwj1PJiSmehaJZ6LpcOn2gJSOpklbd5JG3eRz3ZjucEpWbSBSPyKUsv9&#xA;dt7WQxIhmkX7VDQD2rvvl8MBkLdfqO0Y4zwgcRQv+KP+Xb/h/wDm3J/lvNxv5X/o/b+x3+KP+Xb/&#xA;AIf/AJtx/Lea/wAr/wBH7f2NN5mDAq1qCpFCC+xH/A4/lvNf5X/o/b+xjV1p1lHO95oIk0K/bdmt&#xA;XBt3P/Ftsy+m30UOWDD3m2P8q/0ft/YqaHdatHrVxrOtrDc33oJaWhtyyRpCp5u3Fg1Gkald+2A4&#xA;NqBZHtUdI2hbq4OmLfX093O+ml/XFo5aYQM7fGUJq/HetO2WxgIuHm1Es5EaRqOkiK6MGRwGVgag&#xA;g7gg5NwiKTP8tv8AlGj/AMxl5/1Evmvz/U9Zp/7uPuVPMs2oXetaZoNpdSWMN3HPc3t1AQJvTg4K&#xA;I42IPHk0m5pXbBGgCWw9zY8jWtP+OxrB9/0hcf8ANWPieQXhUfIFotoPMFssksyxatKolncySN/o&#xA;8G7O27HHIbr3LFlWVsnYq7FXYq7FXYq7FXYqxDzZpqaj5u8u2zzz2ymDUG9W1laCTYQbc0INMtga&#xA;iWJG6Kk8jR8T6Ot6xFKN0kN9LIAe1UcsrD2IweJ5BeFFeTtTvtR0KOW/KvewyzW1xIg4q7W8rRcw&#xA;O3LjXBMUdkxKQeav+U4sv+2ZN/1ER5kabkXWdq/QPf8ArazKdCr2d5NaTCWI79CD0I8DkJwEhRbc&#xA;GeWOXFFB6zqGlatqR0u90pQ0kH1yPUYX9OdJo3EYZJAlQyjjQ19umVDARyLtv5SuHFw9a5/sVNI8&#xA;6XukSJYeZm9S0YhLXWwKLvsq3QH2G/y+h75XkwdQ5Om1scm3Iso8w+YbHRdIfUZj6oNFtYU3aaV/&#xA;7uNKdS36t8ojEk05kpACyxjyxczWJudS1GET63qLB7ubnQIg/u4IxQ0SMbe53zLlgva3UHtUAmo3&#xA;8f2J9/ij/l2/4f8A5tyH5bzX+V/6P2/sRVhrtvdSCJ0MMjfZqag+1dt8hPAYi3J0/aMch4SOEsZf&#xA;lzblXlU8q9a5mh56V3utwoUru6gtLaS5nbjDEOTsAWNPkAScUxiZGghF1WSXTWvbaynkatI7Z1EU&#xA;jCtOQDkUFN98WzwgJUSG31mC309b3UUewQtwZZQGKkmg5GPmAD44oGImVR9SNjkjljWSNg8bgMjq&#xA;QVIPQgjFrIrm26JIjI6hkcFWUioIOxBGKg0gNIvIpRc2kUH1ddOm+qrGOnBUUow2FAVbpi25YkUS&#xA;b4hbIfy1IPlkkGoN5eEEf8xL5r8/1PT6f+7HuV77/lP9J/7Z97/ycgyI+ktnVkeQZMb8nf71eZf+&#xA;2xL/ANQ8GWT6e5iGSZWydirsVdirsVdirsVdirG9Y/5Tny5/zD6j+qDLI/SfgxPNkmVsmOeQv+OL&#xA;cf8AbQv/APqKkyeTmxilHmr/AJTiy/7Zk3/URHmRpuRdb2r9A9/62synQuxVBR3V8+szW3o8bGGF&#xA;GE5BBeV2OynoQqrv74thjHgBv1Wi5Yo5Y2ilQPG4KujAEEHqCDi1gkbhKrPy3b215FL680tra8jY&#xA;WUrFordpPtmOviBt4ZERANuXk1k5w4Sm+ScR2Krk5c1415VHGnWuApjd7Mlv9BhuZTLG/pO27ilQ&#xA;T49swsecxFF6DU9nRyHiBooGby8sMZkmu0jjFKu44qKmg3J8Tln5nycX+ST/ADvsQml+TNRga4mv&#xA;dR9ea4kLBFVvSjQbIkak+HU9zj+ZHc2T7LugCBXkiLjy5dRoXjdZablRUN9GSjqAebj5ey5xFg2l&#xA;DorKUcBlIoykVBHuMyHWJffWupxJb/odoIo4DR7OROMToafZZBVCvagpgbYSib4736qlzq0Nvex2&#xA;kkNwTLx4zJC7xVY0oXUED3rhRHESLsfNB2mq6rPrNzax2AWxgl4Pes3GtI1Oy0qzVPXpTA2SxxEA&#xA;b3I5Mp/LGNIvKwjjHFEu7tUXwAuHAGYGf6npNObgD5Ii+/5T/Sf+2fe/8nIMiPpLZ1ZHkGTG/J3+&#xA;9XmX/tsS/wDUPBlk+nuYhkmVsnYq7FXYq7FXYq7FXYqxvWP+U58uf8w+o/qgyyP0n4MTzZJlbJjn&#xA;kL/ji3H/AG0L/wD6ipMnk5sYpR5q/wCU4sv+2ZN/1ER5kabkXW9q/QPf+tK4799Ws5zpUxt+EvpJ&#xA;dvGHR+NOTRjkOQ7V8cyXTmHARxC/JfPpU9zYRW1zf3HqIay3EBWFpOux4jYb/s4oGUCVgD7090vQ&#xA;rie3T0zwgQBEeQlmIXbvUn5nKp5hHZyMGinm9XII/wDwxJ/y0D/gT/XK/wAz5OV/JJ/nfY7/AAxJ&#xA;/wAtA/4E/wBcfzPkv8kn+d9jv8MSf8tA/wCBP9cfzPkv8kn+d9jv8MSf8tA/4E/1x/M+S/ySf532&#xA;Iuw0GG2lEsj+q67oKUAPj3yvJnMhQcrTdnRxniJspplDsUp8x6fp+oQWVrfXIgia8hdIyVAneImV&#xA;Yfi68uFaDfbJRJCCm2RS7FWF3rI15O0e6F2KkdKVzZQ+kPJagg5JEcrKhUDJtSncySR28skaGWRE&#xA;ZkjHVmAqFHzxTEWd1LTDenT7dr2n1to1M4AoA5FSKe3TFlkriPDyTv8ALb/lGj/zGXn/AFEvmvz/&#xA;AFPU6f8Au4+5Wvv+U/0n/tn3v/JyDIj6S2dWR5Bkxvyd/vV5l/7bEv8A1DwZZPp7mIZJlbJ2KuxV&#xA;2KuxV2KuxV2Ksb1j/lOfLn/MPqP6oMsj9J+DE82SZWyY55C/44tx/wBtC/8A+oqTJ5ObGLG/zAu7&#xA;y2856WLOH1pp7NodwSqK1zGXduPQBQcyNNyLg9oxBhudh+oouOOONAkahEXZVUUA+QGZTzpNt4qz&#xA;PTmjawtylOPBRt4gUP45rcn1F6vSkHFGu5EZBvdirsVdirsVSTUfMDRTNDbKp4GjO1SKjqANsyce&#xA;CxZdRqu0jGXDAckl1a7m1IWhnIU2NzFeQsgofUirQHrsQxBy4YIhxf5Ty+StYec5NQtlubR45IiS&#xA;K8SCCNirKSCCPA4Py8Wc+0M0TRAav/MVyLd2uZ0t7cD94xoi092P9clHDENE9bmyenv7khtb/VtZ&#xA;JTy7Ytcx9DqNxWG0HyYjnJTwQYZ5RFtwdmzlvLYJqfywhvrSX9O6hLfXkkbLEErDbQORRXSJT8TK&#xA;e7k/LMaWoJLt8WkhjGwSCO51m68vXUEX7vXbTnazLUbXERoTVtviHxD55lg2LdFlwxx5ql9Ke5Jw&#xA;0y/Lb/lGj/zGXn/US+a/P9T1mn/u4+5Wvv8AlP8ASf8Atn3v/JyDIj6S2dWR5Bkxvyd/vV5l/wC2&#xA;xL/1DwZZPp7mIZJlbJ2KuxV2KuxV2KuxV2Ksb1j/AJTny5/zD6j+qDLI/SfgxPNkmVsmOeQv+OLc&#xA;f9tC/wD+oqTJ5ObGKUeawf8AHNjQ0ppk9ff9/HmRpuRdb2r9A9/62synQuxVE2mo3dpUQvRTuUIq&#xA;K/TkJ4xLm34dVPH9JRn+I9Q8I/8AgT/XK/y8XK/lTL5O/wAR6h4R/wDAn+uP5eK/ypl8nf4j1Dwj&#xA;/wCBP9cfy8V/lTL5OHmPUK/ZjPtQ/wBcH5eK/wAqZfJO9N1GO9hLAcZE2dOvXoR88xsmPhLt9Lqh&#xA;mjfIhil1DJDcSRyfaViCfH3+nM+JsW83mgYzIPNSyTWkyw6nfaveaR5ft4rW7pHcXuoTFVQB9gyx&#xA;0ZpCePHp1yvJkEXZ6TSeKAZHYdGUaZ+XWmRyR3WtTPrV8h5K1wAIEP8AxXbr8A/2VTmJPNIu4xae&#xA;GMbBliqFAVRQDYAdAMpb3Yq8787ab+j/ADAt7G7Q2nmCM2VzIhp6d2qEQyA9i6VX5jMvTz2p13aG&#xA;GwJgfS1pi3MdjBBdyLLeRRotwykmrAU5b770zKdDkoyJHJPPy2/5Ro/8xl5/1Evmvz/U9Tp/7uPu&#xA;Vr7/AJT/AEn/ALZ97/ycgyI+ktnVkeQZMb8nf71eZf8AtsS/9Q8GWT6e5iGSZWydirsVdirsVdir&#xA;sVdirG9Y/wCU58uf8w+o/qgyyP0n4MTzZJlbJjnkL/ji3H/bQv8A/qKkyeTmxik/mtlXzzYBiAW0&#xA;2YKD3Prxmg+7MjTci63tUege9AjV4zqP1Fba5ZgaNceiwhBpX+8NB92ZTpfC9PFY+e7m1vT01Iad&#xA;KzxXLUEQdHVJNuXwORxanzxXwZcPEOSOxa0DqOu6PpzIl7dRwu5AVCatv34ipp79MDZjwzn9IR2F&#xA;rdirsVT3yzFJyml6JQKPc9fwzF1J5B3HZMD6pdE2urC0uqGeMMR0bcH7xmPHIY8nZ5tNDJ9QQ/6A&#xA;0z/fZ/4Jv65Px5NH8nYe77WPeZ7CHQbqx80WYZUsX9DVEBLc7KchWNOp9J+Lj6cImZ7FuxaeOL6W&#xA;YKyuoZSGVhVWG4IPcZQ5DeKqV3d2tnbvc3cyW9vGKySysERR7saDCBavP/NfmmDzNpk2k6HZvdxT&#xA;EU1WWsEETowZXjLDnIVYfsj6cycWEg24eo1eOAo7qKaUiXiakSxvhB6VwI6KkxAFCynuD9nfMp54&#xA;5LHD/DfyT/8ALB2k8qLIyGNnurtjG3VSbhzQ+4zAz/U9RgFQHuRN9/yn+k/9s+9/5OQZEfSWfVke&#xA;QZMb8nf71eZf+2xL/wBQ8GWT6e5iGSZWydirsVdirsVdirsVdirG9Y/5Tny5/wAw+o/qgyyP0n4M&#xA;TzZJlbJjnkL/AI4tx/20L/8A6ipMnk5sYpN5thik89aezoGaLTpnjJAPFvWjWo8DRiMyNNyLre1S&#xA;RAe9vMp0KXXuuWFtcLarzur9v7qytlMsxP8Aqr9n5mmAkBvw6aeTkFbS/KHnLUjM+qXp0ixlkLx2&#xA;0XCS8EZp8HqqOCDuCOTZjT1A6O5xdnQFGXNlNn5I8s2mn3NjDZLxvI2iup3+OeRXFDylare/tmOc&#xA;hJt2AgAKCVeSrKCawn0zUUJ1TRpTaXTciPUQCsMwFekkZH01y6eaQ5cnD/IYiTY3ZF+gNM/32f8A&#xA;gm/rkPHkv8nYe77XDQdMBr6RPsWb+uPjyUdnYe77Sjo4440CRqFReijYZUTbmRiIihsF2Bk7FVO6&#xA;toLq2ltrhBJBOjRyxnoyuKMD8wcQVYn5X1y20bTLzSNbu47eTQJBbieZgvqWrDlbSCvUmP4aDuMt&#xA;nGzY6sQaVP8AE+va0AvljTuFqxp+mNRDRQkfzQw/3svsdhg4AOa3fJB6h5W09B9Y1u7k1zVmp6f1&#xA;iggi8TFbL+7T6anLsNk7Cg6/X5xCFX6isAAAAFANgBmW8+7FUy/Lb/lGj/zGXn/US+a/P9T1mn/u&#xA;4+5WvlP+PtJNNv0fe7/89IMiPpLZ1ZHkGTDYtRuPLGrawl7p91cWGo3X160vLOFpxV40jeORUqUK&#xA;mPbxy2uIBjdIn/lYulf9W/VP+kGb+mDwz5LxO/5WLpX/AFb9U/6QZv6Y+GfJeJ3/ACsXSv8Aq36p&#xA;/wBIM39MfDPkvE7/AJWLpX/Vv1T/AKQZv6Y+GfJeJ3/KxdK/6t+qf9IM39MfDPkvE7/lYulf9W/V&#xA;P+kGb+mPhnyXid/ysXSv+rfqn/SDN/THwz5LxO/5WLpX/Vv1T/pBm/pj4Z8l4lOwubvX/NNlqkVj&#xA;cWel6Zb3CLNdxmF5pbkxiiRt8XFVj+144kUKXmWW5WyY55DUjRbiop/uQv8Ar/zFSZPJzYxSjzV/&#xA;ynFl/wBsyb/qIjzI03Iut7V+ge/9ajdwfWLWa35tGZkZPUQ0ZeQIqCO4zKdFGVEFMfyxTTV8urHB&#xA;aRWuoWrta6nwHxvNH+2zH4m5rRt/HNfmBEt3rMMhKIIZflTa0zKilmIVVFWY7AAdzirCItWsbvz9&#xA;b3fl8vfxyxPZ65LApNuoT44JDNtGzqarsTsctqo7sL32ZxlTN2KuxV2KuxVB6tetaWbSJ/eMQiHw&#xA;J7/cMsxQ4pU4usznFjsc+TB7vTbC81BdRuoEnvUXik8g5MADUUr4V2zYCIDzp1GQiiSiuTeJxabL&#xA;qnxwraBv9b0+wmjhuZHE0qlkjjjklYqpAJpGr0G+AkBuxYJ5PpFqH+KNJ8bj/pFuv+qeDiDb+Rzd&#xA;33IzyR5v0PTNDNtfPcRT/WbmTh9Uum+CSdnQ1WJhupzEywJlYehw+mAB50n/APysPyp/v+4/6Qrz&#xA;/qjlfhybOIO/5WH5U/3/AHH/AEhXn/VHHw5LxB3/ACsPyp/v+4/6Qrz/AKo4+HJeIO/5WH5U/wB/&#xA;3H/SFef9UcfDkvEHf8rD8qf7/uP+kK8/6o4+HJeIO/5WH5U/3/cf9IV5/wBUcfDkvEHf8rD8qf7/&#xA;ALj/AKQrz/qjj4cl4g7/AJWH5U/3/cf9IV5/1Rx8OS8QV7Lzt5cvbuK0tpp2nmPGNWtLpBX3Z4lU&#xA;fScBxkJ4gnuQSkV7528uWV3LaXM06zwnjIq2l04r7MkTKfoOTGMlHEERqnmjRtL9H67JKn1hecXC&#xA;3nlqu3X0kfj174BAlSUB/wArD8qf7/uP+kK8/wCqOS8OSOIO/wCVh+VP9/3H/SFef9UcfDkvEGKa&#xA;/wCaNJuvNVrfW5uHtY7GWB5Pql0KSNMjBaGMN9lT2zIwDh5uB2hjlkiBEXu7/FGk+Nx/0i3X/VPL&#xA;+IOp/I5u77naFr9hp/mKDVo5wNG1tfqt3K1URLmGohkfmAVqA0Zr7ZTnhYsOx7PmYk45cwnt9+Y0&#xA;MzPb+XLRtVmU8TeMfSs0PQ/vTu9PBB9OUwwE83NzauGPmUjudO1PV3EnmK+a8XqNPhrDZqev2AeU&#xA;lPFzmVDEIunz9pTltHYJjDFFBEsUCLFEgokaAKoHsBtk3XmRPMr+TeJxRZbDuDUMQR0IONJEiGR6&#xA;BqMtwjwzHk8YBVz1IPj8sw8+MDcO+7O1MpgxlzCbZjuzdiqD1Wya7s2jT+8Uh0r0qO33HLMU+E24&#xA;uswHLjoc2KSQTRMUkRkYdiCM2AkDyealjlE0RSzi3gcWFF3FvA4rRS+/Go2eoWWt6fEZ7mwLrLag&#xA;0M1vKAJEBP7QoGX3GQyR4hTn6DUeHLfkWTWn5i+TbiEO+pxWsnSS3uj6EqN3Vkem49swjikOj0Im&#xA;CLVv8eeS/wDq92f/ACOT+uDw5dyeIO/x55L/AOr3Z/8AI5P64+HLuXiDv8eeS/8Aq92f/I5P64+H&#xA;LuXiDv8AHnkv/q92f/I5P64+HLuXiDv8eeS/+r3Z/wDI5P64+HLuXiDv8eeS/wDq92f/ACOT+uPh&#xA;y7l4g7/Hnkv/AKvdn/yOT+uPhy7l4g7/AB55L/6vdn/yOT+uPhy7l4g7/Hnkv/q92f8AyOT+uPhy&#xA;7l4g7/Hnkv8A6vdn/wAjk/rj4cu5eIO/x55L/wCr3Z/8jk/rj4cu5eIO/wAeeS/+r3Z/8jk/rj4c&#xA;u5eIO/x55L/6vdn/AMjk/rj4cu5eIO/x55L/AOr3Z/8AI5P64+HLuXiDv8eeS/8Aq92f/I5P64+H&#xA;LuXiDv8AHnkv/q92f/I5P64+HLuXiCW6z+YmlmF7Ty7Iuq6vKvGAQ1aGItsJJpAOIVetK1PTJwwk&#xA;ndqy54wFlJLHQ7eHR4dNuUW6RBWX1F5B5C3NmINerknM55nJllKZkNimCxhFCqvFVFFUCgAHhi1U&#xA;W+LeBxRRdxbwOK0XcW8DitFsI7EAKST0AGNpESWR6Dp0tujzTDi8gAVD1Cjx+eYefIDsHfdnaaUA&#xA;ZS5l/9k=</xmpGImg:image>
               </rdf:li>
            </rdf:Alt>
         </xmp:Thumbnails>
         <xmpMM:RenditionClass>proof:pdf</xmpMM:RenditionClass>
         <xmpMM:OriginalDocumentID>uuid:65E6390686CF11DBA6E2D887CEACB407</xmpMM:OriginalDocumentID>
         <xmpMM:DocumentID>xmp.did:ac99513b-6080-e24a-92e3-4ae01afdfd1b</xmpMM:DocumentID>
         <xmpMM:InstanceID>xmp.iid:ac99513b-6080-e24a-92e3-4ae01afdfd1b</xmpMM:InstanceID>
         <xmpMM:DerivedFrom rdf:parseType="Resource">
            <stRef:instanceID>xmp.iid:c979ce59-48ee-9743-a9dd-2b41d0b71a8d</stRef:instanceID>
            <stRef:documentID>xmp.did:c979ce59-48ee-9743-a9dd-2b41d0b71a8d</stRef:documentID>
            <stRef:originalDocumentID>uuid:65E6390686CF11DBA6E2D887CEACB407</stRef:originalDocumentID>
            <stRef:renditionClass>proof:pdf</stRef:renditionClass>
         </xmpMM:DerivedFrom>
         <xmpMM:History>
            <rdf:Seq>
               <rdf:li rdf:parseType="Resource">
                  <stEvt:action>saved</stEvt:action>
                  <stEvt:instanceID>xmp.iid:37ef2abf-b31e-aa40-9c39-3af3ec833183</stEvt:instanceID>
                  <stEvt:when>2017-08-08T12:28:43-05:00</stEvt:when>
                  <stEvt:softwareAgent>Adobe Illustrator CC (Windows)</stEvt:softwareAgent>
                  <stEvt:changed>/</stEvt:changed>
               </rdf:li>
               <rdf:li rdf:parseType="Resource">
                  <stEvt:action>saved</stEvt:action>
                  <stEvt:instanceID>xmp.iid:ac99513b-6080-e24a-92e3-4ae01afdfd1b</stEvt:instanceID>
                  <stEvt:when>2017-08-15T21:49:27-05:00</stEvt:when>
                  <stEvt:softwareAgent>Adobe Illustrator CC (Windows)</stEvt:softwareAgent>
                  <stEvt:changed>/</stEvt:changed>
               </rdf:li>
            </rdf:Seq>
         </xmpMM:History>
         <illustrator:StartupProfile>Web</illustrator:StartupProfile>
         <xmpTPg:NPages>1</xmpTPg:NPages>
         <xmpTPg:HasVisibleTransparency>False</xmpTPg:HasVisibleTransparency>
         <xmpTPg:HasVisibleOverprint>False</xmpTPg:HasVisibleOverprint>
         <xmpTPg:MaxPageSize rdf:parseType="Resource">
            <stDim:w>28.222222</stDim:w>
            <stDim:h>21.166667</stDim:h>
            <stDim:unit>Centimeters</stDim:unit>
         </xmpTPg:MaxPageSize>
         <xmpTPg:PlateNames>
            <rdf:Seq>
               <rdf:li>Cyan</rdf:li>
               <rdf:li>Magenta</rdf:li>
               <rdf:li>Yellow</rdf:li>
               <rdf:li>Black</rdf:li>
            </rdf:Seq>
         </xmpTPg:PlateNames>
         <xmpTPg:SwatchGroups>
            <rdf:Seq>
               <rdf:li rdf:parseType="Resource">
                  <xmpG:groupName>Grupo de muestras por defecto</xmpG:groupName>
                  <xmpG:groupType>0</xmpG:groupType>
               </rdf:li>
            </rdf:Seq>
         </xmpTPg:SwatchGroups>
         <pdf:Producer>Adobe PDF library 10.01</pdf:Producer>
      </rdf:Description>
   </rdf:RDF>
</x:xmpmeta>
                                                                                                    
                                                                                                    
                                                                                                    
                                                                                                    
                                                                                                    
                                                                                                    
                                                                                                    
                                                                                                    
                                                                                                    
                                                                                                    
                                                                                                    
                                                                                                    
                                                                                                    
                                                                                                    
                                                                                                    
                                                                                                    
                                                                                                    
                                                                                                    
                                                                                                    
                                                                                                    
                           
<?xpacket end="w"?>
	</metadata>
<g id="Capa_6" display="none">
</g>
<g id="Capa_2">
	<g>
		<g>
			<g>
				<g>
					<g>
						<g>
							<path fill="#B2EBF2" d="M768.672,239.417H31.329l0,0l0,0c-13.018,0-23.572,10.554-23.572,23.572s10.554,23.572,23.572,23.572
								l0,0l0,0h737.343c13.018,0,23.572-10.554,23.572-23.572C792.244,249.971,781.69,239.417,768.672,239.417z"/>
						</g>
					</g>
				</g>
			</g>
			<g>
				<g>
					<g>
						<g>
							<path fill="#B2EBF2" d="M768.672,287.633H31.329c-13.589,0-24.643-11.055-24.643-24.643s11.055-24.643,24.643-24.643h737.342
								c13.589,0,24.643,11.055,24.643,24.643C793.315,276.578,782.259,287.633,768.672,287.633z M31.329,240.489
								c-12.407,0-22.501,10.094-22.501,22.5c0,12.407,10.094,22.501,22.501,22.501h737.342c12.407,0,22.501-10.094,22.501-22.501
								s-10.094-22.5-22.501-22.5H31.329L31.329,240.489z"/>
						</g>
					</g>
				</g>
			</g>
		</g>
		<g>
			<g>
				<g>
					<g>
						<g>
							<path fill="#B2EBF2" d="M759.057,424.553H95.241c-12.397,0-22.446,10.049-22.446,22.446s10.049,22.446,22.446,22.446h663.816
								c12.397,0,22.446-10.049,22.446-22.446C781.504,434.602,771.454,424.553,759.057,424.553z"/>
						</g>
					</g>
				</g>
			</g>
			<g>
				<g>
					<g>
						<g>
							<path fill="#B2EBF2" d="M759.057,470.516H95.241c-12.968,0-23.517-10.549-23.517-23.517s10.55-23.517,23.517-23.517h663.815
								c12.968,0,23.517,10.549,23.517,23.517C782.574,459.966,772.025,470.516,759.057,470.516z M95.241,425.624
								c-11.785,0-21.374,9.588-21.374,21.374s9.589,21.374,21.374,21.374h663.815c11.786,0,21.374-9.589,21.374-21.374
								s-9.588-21.374-21.374-21.374H95.241z"/>
						</g>
					</g>
				</g>
			</g>
		</g>
		<g>
			<g>
				<g>
					<g>
						<g>
							<path fill="#B2EBF2" d="M687.946,149.096H66.312c-12.59,0-22.795,10.206-22.795,22.795c0,12.59,10.206,22.795,22.795,22.795
								h621.635c12.59,0,22.795-10.206,22.795-22.795C710.742,159.301,700.536,149.096,687.946,149.096z"/>
						</g>
					</g>
				</g>
			</g>
			<g>
				<g>
					<g>
						<g>
							<path fill="#B2EBF2" d="M687.947,195.758H66.311c-13.16,0-23.867-10.707-23.867-23.867s10.707-23.867,23.867-23.867h621.635
								c13.16,0,23.867,10.707,23.867,23.867C711.813,185.052,701.106,195.758,687.947,195.758z M66.311,150.168
								c-11.979,0-21.724,9.746-21.724,21.724c0,11.979,9.745,21.725,21.724,21.725h621.635c11.978,0,21.724-9.746,21.724-21.725
								c0-11.978-9.745-21.724-21.724-21.724H66.311z"/>
						</g>
					</g>
				</g>
			</g>
		</g>
		<g>
			<g>
				<g>
					<g>
						<g>
							<path fill="#B2EBF2" d="M758.881,333.916H31.329c-12.372,0-22.401,10.029-22.401,22.401s10.029,22.401,22.401,22.401h727.552
								c12.372,0,22.401-10.029,22.401-22.401C781.281,343.946,771.252,333.916,758.881,333.916z"/>
						</g>
					</g>
				</g>
			</g>
			<g>
				<g>
					<g>
						<g>
							<path fill="#B2EBF2" d="M758.881,379.79H31.329c-12.943,0-23.472-10.53-23.472-23.472s10.53-23.472,23.472-23.472h727.552
								c12.943,0,23.473,10.53,23.473,23.472S771.823,379.79,758.881,379.79z M31.329,334.987c-11.761,0-21.33,9.568-21.33,21.33
								s9.568,21.33,21.33,21.33h727.552c11.761,0,21.33-9.568,21.33-21.33s-9.568-21.33-21.33-21.33H31.329z"/>
						</g>
					</g>
				</g>
			</g>
		</g>
		<g>
			<g>
				<g>
					<g>
						<g>
							<path fill="#B2EBF2" d="M631.438,217.052c0-12.352,10.013-22.365,22.365-22.365H150.365
								c12.352,0,22.365,10.013,22.365,22.365c0,12.352-10.013,22.365-22.365,22.365h503.438
								C641.452,239.417,631.438,229.404,631.438,217.052z"/>
						</g>
					</g>
				</g>
			</g>
			<g>
				<g>
					<g>
						<g>
							<path fill="#B2EBF2" d="M653.804,240.489H150.366c-0.592,0-1.071-0.48-1.071-1.071s0.48-1.071,1.071-1.071
								c11.742,0,21.294-9.552,21.294-21.294c0-11.741-9.552-21.293-21.294-21.293c-0.592,0-1.071-0.48-1.071-1.071
								s0.48-1.071,1.071-1.071h503.438c0.592,0,1.071,0.48,1.071,1.071s-0.48,1.071-1.071,1.071
								c-11.742,0-21.294,9.552-21.294,21.293c0,11.742,9.553,21.294,21.294,21.294c0.592,0,1.071,0.48,1.071,1.071
								C654.876,240.009,654.396,240.489,653.804,240.489z M160.153,238.346h483.864c-8.049-3.715-13.65-11.863-13.65-21.294
								s5.6-17.579,13.649-21.293H160.153c8.049,3.715,13.649,11.862,13.649,21.293
								C173.803,226.483,168.203,234.632,160.153,238.346z"/>
						</g>
					</g>
				</g>
			</g>
		</g>
		<g>
			<g>
				<g>
					<g>
						<g>
							<path fill="#B2EBF2" d="M670.79,333.917v-0.016c-0.208,0.006-0.415,0.015-0.624,0.016H670.79z M670.081,286.561
								c0.238,0,0.473,0.011,0.709,0.018v-0.018H670.081z M110.738,310.239c0,13.077-10.601,23.678-23.678,23.678l0,0h582.936
								c-13.039-0.046-23.594-10.627-23.594-23.676c0-13.077,10.601-23.678,23.678-23.678H87.06
								C100.137,286.561,110.738,297.162,110.738,310.239z"/>
						</g>
					</g>
				</g>
			</g>
			<g>
				<g>
					<g>
						<g>
							<path fill="#B2EBF2" d="M670.79,334.987h-0.624c-0.029,0-0.057-0.001-0.085-0.003c-0.028,0.002-0.056,0.003-0.085,0.003
								H87.06c-0.592,0-1.071-0.48-1.071-1.071s0.48-1.071,1.071-1.071c12.465,0,22.606-10.141,22.606-22.606
								s-10.141-22.606-22.606-22.606c-0.592,0-1.071-0.48-1.071-1.071s0.48-1.071,1.071-1.071h583.729
								c0.592,0,1.071,0.48,1.071,1.071c0,0.289-0.117,0.576-0.325,0.777c-0.208,0.202-0.469,0.329-0.778,0.311l-0.196-0.007
								c-0.16-0.006-0.319-0.011-0.48-0.011c-12.465,0-22.607,10.141-22.607,22.608c0,12.421,10.105,22.561,22.526,22.604
								c0.027,0,0.054,0.001,0.081,0.003c0.16-0.012,0.328-0.008,0.49-0.012l0.19-0.006c0.285-0.023,0.568,0.101,0.776,0.303
								c0.207,0.202,0.324,0.479,0.324,0.768C671.861,334.492,671.381,334.987,670.79,334.987z M97.132,332.845h562.886
								c-8.643-3.868-14.686-12.554-14.686-22.604c0-10.063,6.036-18.743,14.679-22.608H97.132
								c8.642,3.865,14.678,12.543,14.678,22.606C111.809,320.301,105.774,328.98,97.132,332.845z"/>
						</g>
					</g>
				</g>
			</g>
		</g>
		<g>
			<path fill="#B2EBF2" d="M132.397,423.191c1.168,0.194,2.366,0.309,3.589,0.309H696.53c-8.297-4-14.081-12.305-14.081-22
				c0-9.696,5.784-18,14.081-22H135.986c-1.357,0-2.684,0.276-3.973,0.513c10.198,1.876,17.927,10.882,17.927,21.623
				C149.94,412.242,142.405,421.165,132.397,423.191z"/>
		</g>
	</g>
	<g>
		<g>
			<g>
				<g>
					<path fill="#676E8A" d="M585.026,338.954c-0.141,0-0.284-0.015-0.428-0.046c-1.079-0.235-1.764-1.301-1.528-2.38
						c0.368-1.692,0.746-3.331,1.131-4.918c0.26-1.074,1.341-1.739,2.414-1.473c1.073,0.26,1.733,1.341,1.473,2.414
						c-0.377,1.558-0.747,3.167-1.109,4.828C586.774,338.315,585.946,338.954,585.026,338.954z"/>
				</g>
				<g>
					<path fill="#676E8A" d="M589.66,321.573c-0.206,0-0.415-0.032-0.621-0.1c-1.05-0.344-1.623-1.473-1.28-2.522
						c1.03-3.15,2.132-6.124,3.276-8.838c0.429-1.017,1.602-1.496,2.62-1.065c1.018,0.429,1.495,1.602,1.065,2.62
						c-1.102,2.612-2.164,5.48-3.159,8.525C591.285,321.037,590.502,321.573,589.66,321.573z M598.896,301.438
						c-0.381,0-0.766-0.108-1.106-0.336c-0.92-0.612-1.169-1.854-0.556-2.772c1.905-2.861,3.982-5.367,6.174-7.449
						c0.802-0.759,2.066-0.728,2.828,0.072c0.761,0.801,0.729,2.067-0.072,2.828c-1.977,1.877-3.86,4.153-5.602,6.766
						C600.177,301.125,599.542,301.438,598.896,301.438z M615.732,287.597c-0.824,0-1.596-0.514-1.886-1.335
						c-0.368-1.041,0.178-2.184,1.22-2.552c2.739-0.968,5.736-1.646,9.434-2.132c1.094-0.136,2.1,0.627,2.244,1.723
						c0.144,1.095-0.628,2.1-1.723,2.244c-3.413,0.448-6.153,1.063-8.623,1.937C616.179,287.56,615.953,287.597,615.732,287.597z
						 M637.664,284.061c-0.952,0-1.795-0.681-1.967-1.65c-0.193-1.088,0.531-2.126,1.619-2.318c3.283-0.583,5.864-1.439,8.122-2.694
						c0.967-0.537,2.185-0.188,2.72,0.776c0.537,0.966,0.189,2.184-0.776,2.72c-2.657,1.477-5.634,2.474-9.366,3.136
						C637.897,284.051,637.779,284.061,637.664,284.061z M655.313,271.981c-0.319,0-0.643-0.076-0.944-0.238
						c-0.973-0.522-1.338-1.734-0.815-2.708c1.263-2.354,2.196-5.104,2.773-8.175c0.204-1.084,1.253-1.805,2.335-1.596
						c1.086,0.204,1.801,1.25,1.597,2.335c-0.653,3.475-1.724,6.612-3.182,9.328C656.716,271.6,656.025,271.981,655.313,271.981z
						 M658.91,250.283c-1.046,0-1.925-0.812-1.994-1.87c-0.185-2.842-0.562-5.865-1.122-8.983c-0.195-1.087,0.528-2.127,1.615-2.322
						c1.084-0.194,2.127,0.528,2.322,1.615c0.586,3.266,0.982,6.439,1.177,9.43c0.071,1.103-0.764,2.054-1.866,2.125
						C658.998,250.282,658.954,250.283,658.91,250.283z"/>
				</g>
				<g>
					<path fill="#676E8A" d="M654.608,228.232c-0.853,0-1.643-0.55-1.909-1.408c-0.881-2.837-1.557-4.582-1.563-4.599
						c-0.399-1.029,0.109-2.188,1.139-2.589c1.028-0.402,2.188,0.108,2.589,1.137c0.029,0.075,0.729,1.88,1.656,4.865
						c0.327,1.055-0.263,2.176-1.317,2.503C655.005,228.203,654.805,228.232,654.608,228.232z"/>
				</g>
			</g>
		</g>
		<g>
			<g>
				<g>
					<g>
						<path fill="#676E8A" d="M585.003,378.084c-0.673,0-1.329-0.339-1.707-0.954c-0.577-0.941-0.284-2.172,0.657-2.75
							c0.069-0.043,1.738-1.063,4.608-2.429c0.997-0.474,2.191-0.051,2.665,0.946c0.475,0.998,0.051,2.191-0.946,2.665
							c-2.658,1.265-4.219,2.217-4.234,2.227C585.72,377.988,585.359,378.084,585.003,378.084z"/>
					</g>
					<g>
						<path fill="#676E8A" d="M639.081,373.617c-0.301,0-0.606-0.068-0.895-0.212c-3.033-1.521-6.269-2.677-9.615-3.437
							c-1.077-0.244-1.752-1.315-1.508-2.393c0.244-1.078,1.319-1.754,2.393-1.508c3.661,0.83,7.201,2.096,10.523,3.761
							c0.987,0.495,1.387,1.697,0.892,2.685C640.521,373.213,639.814,373.617,639.081,373.617z M603.526,370.705
							c-0.897,0-1.714-0.608-1.939-1.52c-0.266-1.072,0.389-2.156,1.461-2.422c3.681-0.91,7.348-1.506,10.901-1.769
							c1.085-0.086,2.061,0.744,2.142,1.847c0.082,1.102-0.745,2.061-1.847,2.142c-3.329,0.247-6.773,0.807-10.235,1.663
							C603.848,370.687,603.686,370.705,603.526,370.705z"/>
					</g>
					<g>
						<path fill="#676E8A" d="M654.594,386.065c-0.567,0-1.131-0.24-1.526-0.707c-1.051-1.238-2.153-2.431-3.278-3.544
							c-0.785-0.776-0.793-2.043-0.016-2.828c0.775-0.785,2.042-0.793,2.828-0.016c1.208,1.194,2.392,2.474,3.517,3.802
							c0.715,0.843,0.61,2.104-0.232,2.818C655.51,385.91,655.051,386.065,654.594,386.065z"/>
					</g>
				</g>
			</g>
		</g>
		<g>
			<g>
				<g>
					<path fill="#676E8A" d="M207.998,394.251c-0.343,0-0.691-0.088-1.009-0.274c-0.07-0.041-1.746-1.027-4.311-2.923
						c-0.888-0.656-1.077-1.908-0.42-2.797c0.655-0.89,1.908-1.078,2.797-0.42c2.377,1.756,3.942,2.68,3.958,2.689
						c0.952,0.56,1.271,1.784,0.712,2.736C209.352,393.897,208.684,394.251,207.998,394.251z"/>
				</g>
				<g>
					<path fill="#676E8A" d="M193.955,382.753c-0.523,0-1.046-0.204-1.439-0.611c-2.286-2.367-4.395-4.851-6.269-7.38
						c-0.658-0.888-0.471-2.14,0.417-2.798c0.887-0.655,2.139-0.473,2.797,0.417c1.771,2.39,3.767,4.739,5.933,6.983
						c0.767,0.794,0.745,2.061-0.05,2.827C194.956,382.566,194.455,382.753,193.955,382.753z M181.158,364.229
						c-0.764,0-1.493-0.44-1.826-1.183c-1.352-3.016-2.427-6.123-3.196-9.235c-0.265-1.072,0.39-2.156,1.462-2.421
						c1.075-0.266,2.157,0.39,2.421,1.462c0.711,2.881,1.708,5.76,2.962,8.558c0.452,1.008,0.001,2.191-1.007,2.644
						C181.709,364.172,181.431,364.229,181.158,364.229z M176.454,342.258c-1.064,0-1.95-0.839-1.997-1.913
						c-0.072-1.644-0.108-3.262-0.108-4.811c0-1.639,0.041-3.254,0.122-4.799c0.057-1.103,0.992-1.961,2.102-1.893
						c1.103,0.058,1.951,0.998,1.893,2.102c-0.077,1.476-0.116,3.021-0.116,4.59c0,1.49,0.035,3.05,0.104,4.637
						c0.048,1.104-0.807,2.037-1.911,2.085C176.513,342.257,176.483,342.258,176.454,342.258z M178.359,319.817
						c-0.16,0-0.322-0.019-0.484-0.06c-1.072-0.267-1.725-1.352-1.458-2.424c0.857-3.442,1.896-6.444,2.89-9.176
						c0.378-1.038,1.526-1.576,2.564-1.194c1.038,0.378,1.573,1.525,1.195,2.563c-0.958,2.628-1.955,5.51-2.767,8.773
						C180.072,319.21,179.256,319.817,178.359,319.817z M185.315,298.335c-0.156,0-0.315-0.018-0.474-0.057
						c-1.073-0.261-1.732-1.343-1.471-2.416c0.71-2.924,1.168-5.855,1.398-8.963c0.082-1.102,1.035-1.94,2.143-1.847
						c1.102,0.081,1.928,1.04,1.847,2.142c-0.247,3.329-0.737,6.474-1.5,9.613C187.035,297.722,186.217,298.335,185.315,298.335z
						 M186.565,275.87c-1.023,0-1.896-0.781-1.989-1.819c-0.278-3.069-0.797-6.081-1.541-8.953
						c-0.277-1.069,0.365-2.161,1.434-2.438c1.07-0.277,2.161,0.365,2.438,1.434c0.799,3.082,1.355,6.311,1.652,9.596
						c0.1,1.101-0.711,2.073-1.811,2.173C186.687,275.867,186.625,275.87,186.565,275.87z M180.136,254.358
						c-0.708,0-1.394-0.376-1.757-1.041c-1.432-2.619-3.122-5.16-5.025-7.553c-0.688-0.865-0.544-2.123,0.321-2.81
						c0.864-0.688,2.122-0.543,2.81,0.321c2.045,2.572,3.863,5.305,5.404,8.124c0.53,0.969,0.174,2.185-0.795,2.714
						C180.789,254.279,180.46,254.358,180.136,254.358z M165.647,237.157c-0.447,0-0.896-0.149-1.269-0.455
						c-2.294-1.886-4.801-3.686-7.45-5.349c-0.936-0.587-1.218-1.822-0.63-2.757c0.587-0.935,1.823-1.217,2.757-0.63
						c2.792,1.753,5.438,3.653,7.863,5.646c0.853,0.701,0.977,1.961,0.275,2.815C166.798,236.908,166.225,237.157,165.647,237.157z"
						/>
				</g>
				<g>
					<path fill="#676E8A" d="M146.197,225.468c-0.268,0-0.541-0.054-0.802-0.169c-1.07-0.469-2-0.857-2.757-1.173
						c-0.867-0.362-1.52-0.636-1.917-0.832c-0.991-0.487-1.4-1.686-0.913-2.677c0.487-0.992,1.687-1.4,2.677-0.913
						c0.35,0.172,0.928,0.411,1.692,0.73c0.774,0.323,1.727,0.721,2.823,1.201c1.012,0.443,1.472,1.623,1.028,2.635
						C147.701,225.021,146.967,225.468,146.197,225.468z"/>
				</g>
			</g>
		</g>
		<g>
			<g>
				<g>
					<path fill="#676E8A" d="M205.75,279.959c-0.354,0-0.712-0.094-1.037-0.291c-0.944-0.574-1.244-1.804-0.67-2.748
						c1.445-2.376,2.069-4.08,2.075-4.098c0.376-1.037,1.524-1.573,2.559-1.202c1.038,0.374,1.578,1.515,1.207,2.554
						c-0.03,0.083-0.749,2.071-2.422,4.824C207.084,279.617,206.425,279.959,205.75,279.959z"/>
				</g>
				<g>
					<path fill="#676E8A" d="M64.351,352.813c-0.429,0-0.861-0.138-1.226-0.421c-2.769-2.153-5.25-4.571-7.375-7.188
						c-0.696-0.857-0.565-2.117,0.292-2.813c0.857-0.695,2.117-0.565,2.813,0.292c1.933,2.381,4.195,4.586,6.724,6.552
						c0.872,0.679,1.029,1.935,0.351,2.807C65.537,352.547,64.947,352.813,64.351,352.813z M50.678,333.918
						c-0.839,0-1.62-0.532-1.898-1.372c-1.068-3.227-1.726-6.642-1.955-10.152c-0.072-1.103,0.763-2.055,1.865-2.127
						c1.093-0.073,2.054,0.763,2.126,1.865c0.208,3.173,0.8,6.253,1.761,9.156c0.347,1.049-0.221,2.181-1.27,2.527
						C51.099,333.885,50.887,333.918,50.678,333.918z M49.782,310.527c-0.127,0-0.255-0.012-0.385-0.037
						c-1.084-0.212-1.791-1.262-1.58-2.346c0.656-3.362,1.614-6.661,2.847-9.805c0.403-1.028,1.564-1.533,2.592-1.132
						c1.028,0.403,1.535,1.564,1.131,2.593c-1.145,2.919-2.034,5.983-2.645,9.109C51.557,309.865,50.72,310.527,49.782,310.527z
						 M174.252,296.816c-0.007,0-0.014,0-0.021,0c-3.568-0.037-6.897-0.416-10.179-1.158c-1.077-0.244-1.753-1.315-1.509-2.393
						c0.243-1.078,1.312-1.752,2.392-1.51c3.002,0.68,6.057,1.026,9.338,1.061c1.104,0.012,1.99,0.916,1.979,2.021
						C176.24,295.935,175.347,296.816,174.252,296.816z M187.821,294.694c-0.824,0-1.595-0.513-1.885-1.334
						c-0.369-1.041,0.177-2.185,1.218-2.553c2.933-1.037,5.682-2.49,8.17-4.318c0.89-0.656,2.142-0.464,2.796,0.427
						c0.654,0.891,0.462,2.143-0.428,2.796c-2.804,2.061-5.901,3.698-9.204,4.867C188.268,294.657,188.042,294.694,187.821,294.694z
						 M151.705,290.686c-0.33,0-0.664-0.081-0.972-0.253c-3.119-1.74-6.033-3.707-8.472-5.402c-0.907-0.631-1.132-1.877-0.501-2.784
						c0.63-0.906,1.876-1.13,2.784-0.501c2.359,1.64,5.171,3.539,8.138,5.193c0.965,0.538,1.311,1.757,0.772,2.722
						C153.087,290.316,152.406,290.686,151.705,290.686z M59.195,289.032c-0.416,0-0.835-0.129-1.194-0.396
						c-0.886-0.66-1.068-1.913-0.408-2.799c2.049-2.748,4.372-5.294,6.904-7.564c0.822-0.735,2.086-0.668,2.824,0.154
						c0.737,0.822,0.668,2.087-0.154,2.824c-2.335,2.094-4.477,4.44-6.367,6.977C60.407,288.754,59.805,289.032,59.195,289.032z
						 M131.987,277.629c-0.356,0-0.718-0.095-1.044-0.295c-2.955-1.813-5.722-3.255-8.461-4.406
						c-1.018-0.429-1.497-1.601-1.068-2.619c0.428-1.018,1.6-1.496,2.619-1.068c2.928,1.231,5.873,2.764,9.002,4.684
						c0.941,0.578,1.236,1.81,0.659,2.751C133.316,277.29,132.659,277.629,131.987,277.629z M77.269,274.112
						c-0.745,0-1.459-0.417-1.804-1.133c-0.479-0.995-0.06-2.19,0.935-2.67c3.049-1.467,6.284-2.646,9.613-3.508
						c1.069-0.274,2.16,0.366,2.437,1.436c0.276,1.069-0.367,2.161-1.436,2.438c-3.077,0.796-6.065,1.886-8.88,3.24
						C77.854,274.049,77.559,274.112,77.269,274.112z M110,269.47c-0.09,0-0.18-0.006-0.272-0.019
						c-3.012-0.409-6.176-0.574-9.508-0.496c-1.113,0.041-2.021-0.846-2.048-1.95s0.847-2.021,1.951-2.048
						c3.549-0.091,6.922,0.093,10.145,0.531c1.094,0.148,1.861,1.156,1.712,2.251C111.843,268.742,110.985,269.47,110,269.47z"/>
				</g>
				<g>
					<path fill="#676E8A" d="M81.412,360.761c-0.061,0-0.121-0.003-0.182-0.008c-1.483-0.134-3.326-0.576-5.331-1.278
						c-1.042-0.365-1.591-1.507-1.226-2.549c0.366-1.044,1.503-1.591,2.549-1.227c1.673,0.587,3.225,0.967,4.367,1.069
						c1.1,0.1,1.912,1.071,1.812,2.172C83.308,359.979,82.435,360.761,81.412,360.761z"/>
				</g>
			</g>
		</g>
	</g>
	<g>
		<g>
			
				<rect x="646.245" y="139.327" transform="matrix(-0.606 0.7955 -0.7955 -0.606 1254.494 -231.0146)" fill="#FFFFFF" width="76.431" height="111.709"/>
			<path fill="#676E8A" d="M705.733,261.428c-0.436,0-0.861-0.142-1.212-0.409l-88.862-67.694c-0.422-0.321-0.699-0.797-0.771-1.323
				c-0.07-0.526,0.07-1.058,0.392-1.48l46.316-60.799c0.321-0.422,0.797-0.699,1.323-0.77c0.523-0.075,1.057,0.069,1.479,0.391
				l88.861,67.694c0.879,0.669,1.049,1.924,0.379,2.803l-46.315,60.799c-0.321,0.422-0.797,0.699-1.323,0.77
				C705.912,261.422,705.822,261.428,705.733,261.428z M619.674,191.355l85.681,65.27l43.892-57.618l-85.68-65.27L619.674,191.355z"
				/>
		</g>
		<g>
			
				<rect x="640.971" y="369.667" transform="matrix(0.4288 0.9034 -0.9034 0.4288 750.009 -368.3364)" fill="#FFFFFF" width="50.62" height="78.53"/>
			<path fill="#676E8A" d="M641.662,450.634c-0.227,0-0.454-0.038-0.671-0.116c-0.5-0.178-0.908-0.547-1.136-1.026l-21.705-45.73
				c-0.474-0.998-0.049-2.19,0.949-2.664l70.943-33.673c0.994-0.475,2.19-0.049,2.664,0.949l21.706,45.729
				c0.228,0.479,0.256,1.029,0.077,1.528c-0.178,0.5-0.547,0.908-1.026,1.136L642.52,450.44
				C642.249,450.569,641.956,450.634,641.662,450.634z M622.621,403.853l19.99,42.117l67.331-31.959l-19.991-42.116L622.621,403.853
				z"/>
		</g>
		<g>
			
				<rect x="89.116" y="328.015" transform="matrix(0.429 0.9033 -0.9033 0.429 408.9639 104.5518)" fill="#FFFFFF" width="65.335" height="95.492"/>
			<path fill="#676E8A" d="M92.67,427.752c-0.748,0-1.466-0.421-1.808-1.142l-28.029-59.017c-0.228-0.479-0.255-1.029-0.078-1.529
				c0.178-0.5,0.547-0.908,1.026-1.136l86.258-40.966c0.996-0.475,2.19-0.051,2.665,0.948l28.029,59.017
				c0.228,0.479,0.255,1.029,0.078,1.529c-0.178,0.5-0.547,0.908-1.026,1.136l-86.258,40.966
				C93.25,427.69,92.958,427.752,92.67,427.752z M67.304,367.684l26.313,55.403l82.645-39.249l-26.313-55.403L67.304,367.684z"/>
		</g>
		<g>
			
				<rect x="88.958" y="163.951" transform="matrix(-0.4221 0.9065 -0.9065 -0.4221 344.6629 182.1749)" fill="#FFFFFF" width="50.618" height="73.982"/>
			<path fill="#676E8A" d="M137.117,241.5c-0.289,0-0.577-0.063-0.844-0.187l-67.067-31.229c-1.001-0.466-1.435-1.656-0.969-2.657
				l21.367-45.887c0.224-0.481,0.629-0.853,1.128-1.035c0.499-0.182,1.048-0.158,1.529,0.066l67.067,31.229
				c1.001,0.466,1.435,1.656,0.969,2.657l-21.367,45.887c-0.224,0.481-0.629,0.853-1.128,1.035
				C137.581,241.459,137.349,241.5,137.117,241.5z M72.707,207.302l63.441,29.541l19.678-42.261l-63.441-29.541L72.707,207.302z"/>
		</g>
	</g>
	<g>
		<path fill="#FFFFFF" d="M585,442.5V218.306c0-9.006-6.801-15.806-15.806-15.806H224.807c-9.006,0-16.806,6.801-16.806,15.806
			V442.5h-41.5c0,15,12.291,27,27.453,27h30.854h344.387h27.854c15.162,0,27.453-12,27.453-27H585z"/>
	</g>
	<g>
		<g>
			<path fill="#676E8A" d="M598.048,472.5H194.953c-16.241,0-29.453-13.01-29.453-29c0-1.104,0.896-2,2-2H443c1.104,0,2,0.896,2,2
				s-0.896,2-2,2H169.581c1.041,12.854,12.023,23,25.373,23h403.095c13.35,0,24.332-10.146,25.372-23H511c-1.104,0-2-0.896-2-2
				s0.896-2,2-2h114.501c1.104,0,2,0.896,2,2C627.501,459.49,614.288,472.5,598.048,472.5z"/>
		</g>
		<g>
			<path fill="#676E8A" d="M498,445.5h-18c-1.104,0-2-0.896-2-2s0.896-2,2-2h18c1.104,0,2,0.896,2,2S499.104,445.5,498,445.5z"/>
		</g>
	</g>
	<g>
		<path fill="#676E8A" d="M552,422.5c-1.104,0-2-0.896-2-2v-177c0-5.514-4.486-10-10-10H254c-5.514,0-10,4.486-10,10v177
			c0,1.104-0.896,2-2,2s-2-0.896-2-2v-177c0-7.72,6.28-14,14-14h286c7.72,0,14,6.28,14,14v177C554,421.604,553.104,422.5,552,422.5z
			"/>
	</g>
	<g>
		<path fill="#676E8A" d="M587,443.5h-4V218.306c0-7.899-4.907-12.806-12.806-12.806H225.807c-7.77,0-15.806,4.79-15.806,12.806
			V443.5h-4V218.306c0-10.52,10.07-16.806,19.806-16.806h344.387c10.052,0,16.806,6.754,16.806,16.806V443.5z"/>
	</g>
	<g>
		<g>
			<path fill="#FFFFFF" d="M501,129.5h-43.632H296c-6.627,0-12,5.373-12,12v219.64v44.36c0,6.627,5.373,12,12,12h43.632H501
				c6.627,0,12-5.373,12-12V185.86V141.5C513,134.873,507.627,129.5,501,129.5z"/>
		</g>
		<g>
			<path fill="#676E8A" d="M501,419.5H296c-7.72,0-14-6.28-14-14v-264c0-7.72,6.28-14,14-14h205c7.72,0,14,6.28,14,14v264
				C515,413.22,508.72,419.5,501,419.5z M296,131.5c-5.514,0-10,4.486-10,10v264c0,5.514,4.486,10,10,10h205c5.514,0,10-4.486,10-10
				v-264c0-5.514-4.486-10-10-10H296z"/>
		</g>
	</g>
</g>
</svg>
