<?xml version="1.0" encoding="utf-8"?>
<!-- Generator: Adobe Illustrator 17.0.0, SVG Export Plug-In . SVG Version: 6.00 Build 0)  -->
<!DOCTYPE svg PUBLIC "-//W3C//DTD SVG 1.1//EN" "http://www.w3.org/Graphics/SVG/1.1/DTD/svg11.dtd" [
	<!ENTITY ns_extend "http://ns.adobe.com/Extensibility/1.0/">
	<!ENTITY ns_ai "http://ns.adobe.com/AdobeIllustrator/10.0/">
	<!ENTITY ns_graphs "http://ns.adobe.com/Graphs/1.0/">
	<!ENTITY ns_vars "http://ns.adobe.com/Variables/1.0/">
	<!ENTITY ns_imrep "http://ns.adobe.com/ImageReplacement/1.0/">
	<!ENTITY ns_sfw "http://ns.adobe.com/SaveForWeb/1.0/">
	<!ENTITY ns_custom "http://ns.adobe.com/GenericCustomNamespace/1.0/">
	<!ENTITY ns_adobe_xpath "http://ns.adobe.com/XPath/1.0/">
]>
<svg version="1.1" id="Capa_1" xmlns:x="&ns_extend;" xmlns:i="&ns_ai;" xmlns:graph="&ns_graphs;"
	 xmlns="http://www.w3.org/2000/svg" xmlns:xlink="http://www.w3.org/1999/xlink" x="0px" y="0px" width="1018.285px"
	 height="485.623px" viewBox="2.794 269.057 1018.285 485.623" enable-background="new 2.794 269.057 1018.285 485.623"
	 xml:space="preserve">
<metadata><?xpacket begin="﻿" id="W5M0MpCehiHzreSzNTczkc9d"?>
<x:xmpmeta xmlns:x="adobe:ns:meta/" x:xmptk="Adobe XMP Core 5.5-c014 79.151739, 2013/04/03-12:12:15        ">
   <rdf:RDF xmlns:rdf="http://www.w3.org/1999/02/22-rdf-syntax-ns#">
      <rdf:Description rdf:about=""
            xmlns:dc="http://purl.org/dc/elements/1.1/"
            xmlns:xmp="http://ns.adobe.com/xap/1.0/"
            xmlns:xmpGImg="http://ns.adobe.com/xap/1.0/g/img/"
            xmlns:xmpMM="http://ns.adobe.com/xap/1.0/mm/"
            xmlns:stRef="http://ns.adobe.com/xap/1.0/sType/ResourceRef#"
            xmlns:stEvt="http://ns.adobe.com/xap/1.0/sType/ResourceEvent#"
            xmlns:illustrator="http://ns.adobe.com/illustrator/1.0/"
            xmlns:xmpTPg="http://ns.adobe.com/xap/1.0/t/pg/"
            xmlns:stDim="http://ns.adobe.com/xap/1.0/sType/Dimensions#"
            xmlns:xmpG="http://ns.adobe.com/xap/1.0/g/"
            xmlns:pdf="http://ns.adobe.com/pdf/1.3/">
         <dc:format>image/svg+xml</dc:format>
         <dc:title>
            <rdf:Alt>
               <rdf:li xml:lang="x-default">a_logo</rdf:li>
            </rdf:Alt>
         </dc:title>
         <xmp:CreatorTool>Adobe Illustrator CC (Windows)</xmp:CreatorTool>
         <xmp:CreateDate>2017-10-04T21:29:07-05:00</xmp:CreateDate>
         <xmp:ModifyDate>2017-10-04T21:29:08-05:00</xmp:ModifyDate>
         <xmp:MetadataDate>2017-10-04T21:29:08-05:00</xmp:MetadataDate>
         <xmp:Thumbnails>
            <rdf:Alt>
               <rdf:li rdf:parseType="Resource">
                  <xmpGImg:width>256</xmpGImg:width>
                  <xmpGImg:height>124</xmpGImg:height>
                  <xmpGImg:format>JPEG</xmpGImg:format>
                  <xmpGImg:image>/9j/4AAQSkZJRgABAgEASABIAAD/7QAsUGhvdG9zaG9wIDMuMAA4QklNA+0AAAAAABAASAAAAAEA&#xA;AQBIAAAAAQAB/+4ADkFkb2JlAGTAAAAAAf/bAIQABgQEBAUEBgUFBgkGBQYJCwgGBggLDAoKCwoK&#xA;DBAMDAwMDAwQDA4PEA8ODBMTFBQTExwbGxscHx8fHx8fHx8fHwEHBwcNDA0YEBAYGhURFRofHx8f&#xA;Hx8fHx8fHx8fHx8fHx8fHx8fHx8fHx8fHx8fHx8fHx8fHx8fHx8fHx8fHx8f/8AAEQgAfAEAAwER&#xA;AAIRAQMRAf/EAaIAAAAHAQEBAQEAAAAAAAAAAAQFAwIGAQAHCAkKCwEAAgIDAQEBAQEAAAAAAAAA&#xA;AQACAwQFBgcICQoLEAACAQMDAgQCBgcDBAIGAnMBAgMRBAAFIRIxQVEGE2EicYEUMpGhBxWxQiPB&#xA;UtHhMxZi8CRygvElQzRTkqKyY3PCNUQnk6OzNhdUZHTD0uIIJoMJChgZhJRFRqS0VtNVKBry4/PE&#xA;1OT0ZXWFlaW1xdXl9WZ2hpamtsbW5vY3R1dnd4eXp7fH1+f3OEhYaHiImKi4yNjo+Ck5SVlpeYmZ&#xA;qbnJ2en5KjpKWmp6ipqqusra6voRAAICAQIDBQUEBQYECAMDbQEAAhEDBCESMUEFURNhIgZxgZEy&#xA;obHwFMHR4SNCFVJicvEzJDRDghaSUyWiY7LCB3PSNeJEgxdUkwgJChgZJjZFGidkdFU38qOzwygp&#xA;0+PzhJSktMTU5PRldYWVpbXF1eX1RlZmdoaWprbG1ub2R1dnd4eXp7fH1+f3OEhYaHiImKi4yNjo&#xA;+DlJWWl5iZmpucnZ6fkqOkpaanqKmqq6ytrq+v/aAAwDAQACEQMRAD8A9U4q7FXYq7FX5xfmh5gu&#xA;R+b3mfV9JvJoJk1e6a1vIXaOQenMyqyOpqPs/Dvir7+/L7UdV1LyJ5d1HVhTU7zTbSe9qKEyyQqz&#xA;kjahJNSO2Kp/irsVdirsVdirsVdirsVdirsVdirsVdirsVdirsVdirsVdirsVdirsVdirsVdirsV&#xA;dirsVdiqReel82v5S1OPyiIP8RSQlLBrpzHGrNsXBAb41WpSu3KldsVfKH5d/wDOI3nq68020/nW&#xA;GGx0O3kE92qzxzy3PFq+koiZ6c/2mYjbpvir7LRERFRFCooAVQKAAbAADFW8VdirsVdirsVdirsV&#xA;dirsVdirsVdirsVdirsVdirsVdirsVdirsVdirsVdirsVdirsVYp+YP5n+TPIOmC/wDMd8IWkB+q&#xA;2UY9S5nK9RFFUV92NFHcjFXzH5x/5zR84Xsrw+VNLttItNwlzdf6VcnwanwxJ/qlW+eKsa0b8wP+&#xA;co/OyS3Oi32r38C1SSeyhjghB/lDxJFGG+RriqV61+a3/ORHlS/Ww1vWtW028ReSQ3qirLUjkPVQ&#xA;iRaj7W4xVM9E/wCct/zl05x9bvbTV4xT4Ly1jXYf5Vt9Xb6ScVe7/lF/zlVoXnbWbXy7q+mvo+t3&#xA;h4Wrxv69rNIBXjWivGzUNAQR/lYq92xV5d+an/OQ/kT8vmexmkbVtfUf8cm0ZeUdRUfWJTVYvlu3&#xA;Q8ab4q+b/NP/ADmB+auqyOuj/VNAtST6YgiW4mC+DSXAkUn3VFxVLtC85/8AOUHm6M3mh32uahbo&#xA;5JuLVCkHNeq81VIz/qfhiqB1D86/+chPLWptZ6rrmpafqEdGa1v4I+VK7H054jVTTrShxVkfl7/n&#xA;Mb809PdBq0VjrUA/vPVh+ryn/VeAogP/ADzOKvpb8nvzx8tfmba3K2NvNp+rWKq97p81HCq5IV45&#xA;VAV1qKdAfbFXozMqqWYhVUVZjsAB3OKvAPzO/wCcu/Kfl6eXTPKluPMOpRkpJd8iljGwNDRx8U1K&#xA;fsUXwbFXht9/zkl+fPmjUBaaXfvDLOT6OnaRaIXJG9E+Gac/8GcVS/U/zY/5yI8t3SnWNX1rTJ5D&#xA;ySLUYXjDUA+zHcR8ab9AMVeoflP/AM5g6mdQg0r8wkiltJmCDXYEETxE7cp4UHBk8WQLTwOKvqPV&#xA;dc07TNBvNdnlDadZWsl7JNGQwMMUZlLKQaGqjbFXxA3/ADkv+dWq+c21XSLqQxcy8Hl+CETWwgXf&#xA;g0arzf4ftPXl4EbUVfXn5S/mXpn5ieTbfX7NPQnDG31GzO/o3SKpdAf2lIYMp/lIrvUYqzLFXYq7&#xA;FVlxcQW8ElxcSLDBEpeWWRgqKqipZmNAAB3xV88/mP8A85i+WNGnm0/yfZ/p67jqrajKxislcbfB&#xA;QepMAfDiD2Y4q8WvP+clfz48z6gllpeoNBNctxg0/SrSMuzGuyEpNOf+DxVE6zrX/OWGhWUusapP&#xA;5gtbJFrPcOGaKNAK8nVQyxjxYgYqkmm/85MfnbYMvDzJJcIOsdzBbTBupoWeMv37Nir0fyj/AM5r&#xA;+YreVIvNmiW9/b1o11p5a3mA8THIZI3PsCmKvqXyh5s0bzb5bsfMWiyNLpuoIXgZ1KOCjmN1ZT0Z&#xA;HRlPbbbbFUi/N38ztM/Lrydca5dKJ7xz6Gl2RNDPcsCVU03CKByc+A8aYq/PfzX5r1/zXrlzrevX&#xA;b3moXLVeRzsq1+GONeiItfhUbDFWafkF+VJ/MXzulld8k0LTlF1q8qbExhqJCrdmlbb/AFQx7Yq/&#xA;QDTdN0/TLCDT9Oto7SxtUEdvbQqEjRF6KqrQDFXgP/ObNjbP+XeiX7IDcwaukEUlBURz207yCvXc&#xA;wJ92KvjLFXvH/OHnk5dZ/MqbXJ05W3l22MybVH1m5rDED/sPUYe4GKva/wDnJf8APOTyLpcfl/QJ&#xA;QPNOpxl/W6/U7Y1X1d9vUcghB2oWPaqr4gnnmuJpJ55GlnlYvLK5LOzsaszMdySdyTir1P8A5x0/&#xA;KJPzD85H9JK3+HNHCXGqUqPVLE+lbBhuPUKkt/kqaUNMVfe9nZ2llaQ2dnBHbWlugjgt4lCRoiii&#xA;qqrQAAdhir5q/wCc4LK1Oh+V7701+tJc3EAloOXptGrFSfDktcVfI2Kvrz/nCLQPR8u+ZNfdd7y7&#xA;hsomPhbRmR6exNwPuxViP/OTH/OQdzrd7deSfK1z6eh27GLVb+Jt7uRTRokYf7pU7Gn2z/k9VXzj&#xA;ir6E/wCcKbe3f8ydXmehnh0iT0QabcrmAMwH4fTir6G/5yO0ux1D8mfMouolkNrAtzbsQCySxSKV&#xA;ZSeh6g07EjFX564q+sPyb806n5u/5xr85+WGZrrU9Bsbm3tE3Z2tZbd5LeMdSSGjkRR4BRir50/L&#xA;rz5q/kTzbZeZNLVJJ7UsslvLXhLFIOMkbU3FQdj2NDir0fyP+flh5F/KjUNC8u29ynnLV7uW5uNQ&#xA;dIltLb1AqKYBykZysaCgZFoxPWgqqoaD/wA5Z/nLptwj3moW+sW60DW95bQrVe/x26wPX3JOKvtL&#xA;yL5o/wAVeTtI8x/VWsv0pbJcm1Y8ihcdA1F5DwNNxiqe4q+H/wDnI/8AP26856rN5b8u3LReUbJ+&#xA;EkkZp9fmQ7yMR1hB/u17/aPYKq8NRHkdY41Lu5CoiipJOwAAxV9//kF+TOnfl75WgmuoFfzVqEQk&#xA;1W7YAvHzo31WNuyR0HLf4m38AFXqMkccsbRyKHjcFXRgCrKRQgg9QcVfl5r9pFZ67qNpDtFb3U0U&#xA;Y/yUkZR+AxVCQQSzzRwQqXmlYJGg6szGgA+ZxV+mPkDyrB5T8l6N5dhoRptrHDIw6PLTlM/+zkLN&#xA;9OKvjb/nLLz1L5h/M6bR4ZK6b5cQWcSA/CbhgHuHp/NypGf9TFXieKvur/nEryemh/lTBqciBb3z&#xA;DO97I1Pi9FCYYEPtRC4/18Ve1Yq+bf8AnN3Ulj8peW9M5fFc38tyFrsRbwlCae31jFXx7ir7W/5x&#xA;F0a20D8o73zJe0hTU7qe7kuG2pa2a+kK+yukp+nFXyT5+8333nHzjqvmS8LepqNw0kUbGvpwj4YY&#xA;h7RxhV+jFWP4q++/+cX/ACfH5c/KLS5mj43uuV1S5YjcrPQQb9aegqH5k+OKvWcVfLf/ADnFqKiz&#xA;8paaG+KSS9uXXwCLCiH6ebYq+T8VfV8nmG5/LH/nEvSFsnNvrvmcMLeVdnUX7PM0w7gragKG7MVO&#xA;KvlDFXsf5DflCfPmg+d7kxB57TThbaRy2Bv5G9ZCD2I+r8D7Piqz/nF3zIvln85rG3vq2y6pHNpE&#xA;4kBUrLKVaNGB3BM8KJ8zir6l/wCcmdRFj+SXmV+VHnS3t0HiZrmJGHf9gk4q/PrFX1B/zg9Jw1Hz&#xA;hybjGILJnqaL8LT7n5VOKrbL8kPy/wDzR/NLWrvyutxpvkPTSYr+/tHX07rUWPJ0sOaOqRKDVjuO&#xA;nEBWXFWE/wDOS3lfyT5K1fR/JvlWzEP1W2N7ql27ercTTXDcYllkbf4EjqFUBfj6Yq8t8p+XbzzL&#xA;5m0vQLMf6TqdzFbI1K8fUYBnPsi1Y+wxV+mmlabaaXpdnplmnp2djBHbWyfyxwoEQfQq4q8s/wCc&#xA;ovPjeVfysvLe2k4anr7foy1II5LHIpNw9OtPSBSo6My4q+CMVerf84yeT4/M35u6UtwnqWekK+qX&#xA;KkVB+r0ENf8Anu8dfbFX39iqnc3EVtby3Ex4xQo0kjeCoKk/cMVflreXL3V3PcyfbnkaR967uxY7&#xA;n54q9C/5x28t/wCIPzi8uWzJygs7g6hOeoC2amZa+xkRV+nFX6GYq/LvzBqsur69qWrSktLqN1Pd&#xA;yM3UtPI0hJ+lsVS/FX6e+T9HTRfKei6Oi8F06xtrXj/xhiVDWvfbFU3xV8W/85neZk1D8xNP0KJu&#xA;SaJZAzCv2Z7s+owp/wAYliP04q+fcVfcfnyN/JP/ADig+nxfurhdHtLGVfGS+aOO5+/1pDir4cxV&#xA;UggknnjgjFZJWVEH+UxoMVfqNpWnwabpdnp0H9xZQR28Xb4IkCL+C4qisVfDn/OYHmVdV/Ng6bE/&#xA;KLQ7KG1YA1HrS1uHPz4yop+WKvF9M0+41HUbXT7Ycrm8mjt4V8XlYIo+84q+kv8AnM6BdMtfImhW&#xA;x42Fha3UcKe0Yt4lr8lTbFXzJir7k/5w80hLL8oheAfHqmoXNwW70j424H/JE4qxb/nIj/nG2+1X&#xA;UJ/OvkWGuqSN62qaTEQjSyDc3Ft0/eGlXT9o7j4tiq8o/Mr8/PMnmz8uLTyT5isJLXX9PvYm1C8Y&#xA;FDPHBG6gSxMAyS82Ut2JFdumKvG8Ve0/kJ+XX5k+cLHUdK0q4l0XyVqssI8xaso4PcJb8+NtCTu5&#xA;/etyA+Hf4+ylV9reV/LGieV9BtNC0S2W102yThDENzuaszMd2ZmJZiepxV+fX55eYT5g/NrzRqPL&#xA;nGL6S1gPYxWlLZCPYrFXFXpv/OGPk1dS88aj5nnSsOg2/p2xP/LTeckBFf5YVkB/1hir7NxV8M/8&#xA;5aeff8R/mU2jW0nPTvLKGzUA/CbpyGumHuCFjP8AqYq8RxV9Uf8AOD2joZPNesuvxqLSzgf2YySS&#xA;j/hY8VfVmKsB/PjzMnlz8pPMt/z4zTWj2Vtvv6t5/o6lfdfU5fRir86cVfS//OEWgrN5k8ya8y/7&#xA;xWkNlEx6VupDI1PcC2H34q+vcVfllfWc9le3FncLxntpHhmXweNirDf3GKqSFQ6lhyUEErWlR4Vx&#xA;V+o+j6tY6xpVnqunyiayvoUuLaVSCGjkUMp2r2OKqXmDXdM8v6Jfa3qkvo6fp8L3FzJ3CIK0Ud2P&#xA;RR3O2KvzU85eZ73zT5q1XzDe7XGp3MlwyDcIrH4Ix7IlFHyxVS8r2MOoeZtIsJiBDd3tvBIW2ULL&#xA;KqGvtQ4q+6/+codOnvfyS8wCAFnt/q1wVArVI7qMv/wKVb6MVfAGKo/QbyGy1zTr2evo2tzDNLxF&#xA;TxjkDNQfIYq/UG1ube7torq2lWa2nRZYJkIZHRxyVlI2IINRiqWebvNGleVfLWoeYdVk9Ox06Fpp&#xA;OxY9EjX/ACnchV9zir80/MWu3+v69qGt6g3K91K4kupyK05ysWIWvYVoPbFWe/8AONnl39OfnL5e&#xA;jZeUFhK2ozE9vqiGSM/8jgmKvav+c3tAnm0byzr8aEw2c9xZXDCpoblUkir4f3D/AH4q+R8VfeH/&#xA;ADiZren3/wCTOmWFvKGutInure9ir8SNLcyXKGngyTCh+fhir2NmVVLMQqqKsx2AA7nFX57/APOQ&#xA;35g2/nj8zb+/smD6VYKNP02RekkUBblLXuJJGZlP8tMVYZ5R8qax5s8x2Pl/R4fWv7+QRxjfii9X&#xA;kcjoiKCzHwGKv0i8leVNP8peVNL8uaeP9F0yBYVelC7/AGpJCP5pJGZz7nFU4kkSONpJDxRAWZj0&#xA;AAqTir8s7u5lurqa6mNZZ5GlkO5qzksetT1OKvtz/nDzR4rL8pPrwA9XVNQuJ3bvxi4wKv0ekT9O&#xA;Ks1/On80LD8u/JV1qruratcq0GjWpoTJcsNmKnqkVeb+23UjFXxR+Y35eat5Z8q+U9c1fm2peaku&#xA;9QumkqXUlo2jR6/tGN1kNd6sQemKvP8AFX1t/wA4Qavp50nzNo/MLqKzwXnpk/E8DIY6qK7hHX4v&#xA;9YYq+nsVfJH/ADmd+YkN3f6b5FsZg62DfX9WC7gTshWCMnxWN2Yj/KXFXzFir7T/AOcLLGGL8s9U&#xA;vFIM1zq0qyU6hYreHip/4Nj9OKvoHFXxF/zlR+UV/wCWvN9z5t063Z/LuuSmeaVAStveSGsqSU+y&#xA;JWPNCfEjtirwjFXpn5af85C/mJ+X9j+jNMmgvtHDFo9Ov0aSOIseTmJkeORORJNOXGu9K1xV61oO&#xA;lfnP/wA5APbTebpf8P8A5fxOsrwWkTW63ZUg/uVlaSST2kclF6qCdsVeOfm/+S3mf8t9ZeK6je70&#xA;GZ/9x2soh9KRTuEkpURyjup69RUYq8/ilkhlSWJiksbB0cbEMpqCPkcVfYflv/nK/wDLbzH5Pk0j&#xA;z7FPYXt1avaaoqQNNbTiRDG7RGLk68wa8WX4exOKvk3XtJisbyaTT3lu9Cknmj0vVJIZIUuY4mpU&#xA;BwPiAZea9jiqV4q9Y/Lf/nJX8xvIulpo9s1vqukQilta6gruYR/LFJG8bha/stUDsBiql5r/ADL/&#xA;ADe/OjUbfREge6iD+pBomlxOsAbp6stS7HjX7Uj8V9t8VQn5p/k5c/lxofl9tYv45fMerm4ku9Ng&#xA;IdLaGIRemC43ZyZGqfs9lrSpVTf/AJxx1Hz/AKTr2p33krysfMGrXFsLKO7nLR2dqrusjmZ/3a1b&#xA;01oPUU7Hrir328/Iz8zfPtnIPzO86ultIOUOhaLGsdrG43jaRmVRLwbsyk+D4q+S/wAwvy480+Qt&#xA;ek0jXrVojyb6peKCYLmMHaSJ+h2IqOq9CAcVUvI/5hebvI+qnU/LV+1lPIoS4jorxTIDXjLG4Kt7&#xA;dx2IxVmHnX/nJX81vNulPpN5fxWFhMpS6i0+L0DMp6q8hZ5OJ6FVYA9xirDPJnkPzZ501ZdL8uad&#xA;LfXBI9V1FIoVP7c0p+CNfmd+1Tir7j/I78i9H/LTSmmlZL7zPeoF1DUgKKqVDehBXcRggVPVzuew&#xA;Cr1HFXEAih3B6jFX5mfmB5Pv/J/nHVfLt7GySWM7pCxrSSAmsMqk9Q8ZDYqzX8tP+cj/AD3+X/l6&#xA;TQNMhsr3T+TyWq3kcjNC8hq3ExyR1Unfie+KvQPyh8hedfzk85xef/zCkkuPL1i9baGVeEVy6Gqw&#xA;QRU4iBG3kNPi+zuSxCr3D/nIT8rZPzB8gyWenqv6c0x/rmkg0Xm6qVkgqenqJ0/ygtdsVfn/AHdn&#xA;d2d1LaXcL291AxjmglUo6OpoVZWoQR74qmHlfzX5g8q61BrWgXslhqVv9iaOhqp6o6sCrq3dWBBx&#xA;V7tov/OS35/+d3j8ueWdLsW1accDfWdtIZEU7eozTSyQRDxZlp8sVVfzA/5xL832vlJPMFpqUvmL&#xA;zeWe41613czGQhibZm+OR0NeXLd+ooaKVXzjNDLDK8MyNHLGxSSNwVZWU0KsDuCDir2b/nHb8+7f&#xA;8t573Stat5bny7qUizs1uA01vcBQhkVWKh1dQAwrXYEeBVfQ8n/OVH5dXnC08sW+o+Y9dufgstJt&#xA;bWSN5JCNgzyBQq/zMOVBvTFXr15Z2d7ay2l7BHc2k6lJ7eZFkjdG2KujAqwPgcVeU6v/AM4q/kvq&#xA;N01yuky2LOSXjtLmWOMk+CMXVfktBiqa+Wf+cd/yf8u3CXVl5ehuLuOhWe9eS7II6MEmZ4wfcLir&#xA;0cAKAAKAbADoBiqje2Nlf2ktnfW8d1aTrwmt50WSN1P7LIwKsPniryzWf+cWvyW1OczjRXsJGPJ/&#xA;qVxNEh9hGWaNR/qqMVVtC/5xj/JfR50uF0EX08ZqrX80twnWu8LN6LfSmKs91nyj5Y1rRf0Jqul2&#xA;13pIAVLKSJfTTiKL6YAHAqOhWhHbFXll/wD84ifk1dSM8NrfWIZqhLe7cqo8B6wmNPmcVYV518if&#xA;84p/lk5Gt282rauoDRaMt1NPOT25pG8UaA/8WkV7VxVJ/LPmH84/zCt20z8rPL9p+X/k1m4yalbo&#xA;IOVCQSboIGkcf8UJyB+02KvK/wA9/wAvIPIfmiz0mXWJ9d1m5s1vtWv59gZZZHVVVSZHqFjqSzmt&#xA;R0xV9Uf84oeW/wBDfk7YXLpxn1q4n1CQHrxZvRj+gxwqw+eKvYsVQGt6Boevae+na1YW+o2Mn2re&#xA;5jWVK9iAwNGHYjcYq8v1L/nFH8lb2cyx6TPZFiSyW11OEJP+TI0lPkKYqraT/wA4s/krp0qynRHv&#xA;pFNV+t3M8i/SgdEb6VOKvTdJ0bSNGsUsNIsYNPso/sW1rGkMYJ6kIgUYqjMVdirsVYf5+/KTyD58&#xA;SM+ZNLW5uoF4W99GzQ3CLWvESRlSy1JPFqr7YqxjQ/8AnF38mNJuluf0K1/KhDIL6eWeMU8YqrGw&#xA;/wBZTir1SCCC3hSCCNYoYlCRxIAqqqigVVGwAxVfirC/PH5N/lv52k+seYdFinvgABfxF4Lig2Aa&#xA;SIoXA7B6jFWJWP8Azib+StrMJZNLuLwDcRz3c/Db/jG0Z/HFXpvl3yr5b8t2IsNA0230y0FKxW0a&#xA;x8iO7kCrt7sScVTTFWG+c/ye/LbzlKZ/MOhW91eEUN7HzguDQUHKaFo3anYMSMVYZD/ziR+S8c4k&#xA;ewu5kBqYXu5Qh9qoVb/hsVeieUvy+8leUIGi8t6NbabzHGSWJKzONjR5n5SuNv2mxVkOKuxV2Kux&#xA;V2KuxV2KoHXNd0fQdKuNW1i7jsdOtV5z3MzcVUfrJPQAbk9MVfJf5nf85S+bfNuof4Y/La3uLO1u&#xA;n9CK8iVm1G6ZtgIVWphB7cfj916YqzD8of8AnE6xtDH5g/Memp6vK3rDRi/qQRux5VuXBPrvXqte&#xA;HjzxV9HwQQW8KQQRrFDEoSOJAFVVUUCqo2AGKvzv/ObzBL51/OHW7qy/fLcXq6fpyjoyQcbaIr7S&#xA;FOX04q/QHyzokGheXNL0SCno6ZaQWkZHcQRiOv08a4qmWKuxV2KuxV2KuxV2KuxV2KuxV2KuxV2K&#xA;uxV2KuxV2KuxV2KuxV2KuxV2KuxV2KpT5q806J5V0C817W7gW2nWSc5ZDuSeioi/tO7fCo7nFXwN&#xA;+bn5x+afzP15fWDwaRFIV0nRYiWC8jxVnp/eTN4/QtBir6n/AOcd/wAhrLyHpEWt6zCsvnC+jrKz&#xA;UYWcbivoR/5dP7xh8ht1Ve0Yqwj86fOy+TPy01vW1fheCA22nUO/1q4/dxEf6hbmfZTir4x/5xs8&#xA;r/4h/OLQonTnbaa7ancmlaC0HOM095/TH04q/QXFXYq7FXYq7FXYq7FXYq7FXYq7FXYq7FXYq7FX&#xA;Yq7FXYq7FXYq7FXYq7FXYq7FXYq+Hv8AnKr82J/NPnKTyxp8x/w/5elMRVT8M96oKyymnX06mNf9&#xA;kR9rFUx/5w+/La317zZdebNRi9Sz8u8BYo32WvpalX9/RReX+sVPbFX2hirsVfHf/OZn5hLqXmOw&#xA;8lWcvK10YfWtRCnY3cy/u0PvFC1f9mRirI/+cJfKTR2PmDzbNGQbh00yycinwx0mnp4gs0Y+anFX&#xA;1DirsVdirsVdirsVdirsVdirsVdirsVdirsVdirsVdirsVdirsVdirsVdirsVdirHPzG8ynyx5D1&#xA;7X0NJtPsppbfwM/AiEH5yFcVfmg7vI7SSMXdyWd2NSSdySTir7M/5wovrJ/y61mxjZfrtvqzzXCA&#xA;1b05reFYmI7AmJwPkcVfQ2KsI/Nv81ND/LrytPqt7IkmpSqyaTpxPx3E9NhQbiNTu7dh7kAqvz1l&#xA;l1zzT5kaRy9/retXe/d5rm5k2A/1nbFX6N/lr5KtfJXkfSfLVuVY2MIFzKo2kuHJeaTx+KRjSvag&#xA;xVk2KuxV2KuxV2KuxV2KuxV2KuxV2KuxV2KuxV2KuxV2KuxV2KuxV2KuxV2KuxV2KvMv+clYriX8&#xA;kPNCwGjiK3c0FfgS7haTx/YBxV+fGKsr/Lj8zPNX5fa6dX8vTIryL6V3aTrzgnjrXhIoKnY7gqwY&#xA;ePXFXrWrf85qfmHc2Zh07SdN0+4YUa6Kyzsp8Y1dwgP+sGxV4f5l80+YfM+qy6tr+oTajqEuzTzN&#xA;Wi1JCoooqIK7KoAHhir6J/5xC/KGS5vz+YWswUtLXlFoMcg/vJiCslzQ/sxiqof5qnquKvrbFXYq&#xA;7FXYq7FXYq7FXYq7FXYq7FXYq7FXYq7FXYq7FXYq7FXYq7FXYq7FXYq7FXYql/mHQ7HXtC1DRL9e&#xA;VnqVvLa3AFK8JkKErX9oVqD44q/OH8wvy/8AMPkTzNc6FrULI8TE2t0FIiuYa0SaI91YduoOx3GK&#xA;sZxVsAk0G5OKvefyS/5xf1/zTdW+tebrebSfLKEOttIDFdXlNwqqRyjiPdzuR9nryCr7TsbGysLK&#xA;CxsYEtrO2RYre3iUIiIgoqqo2AAxVXxV2KuxV2KuxV2KuxV2KuxV2KuxV2KuxV2KuxV2KuxV2Kux&#xA;V2KuxV2KuxV2KuxV2KuxVi/5if8AKuf0A3+Pf0f+h6nj+kvT486f7p5fF6lOnD4sVfOV7/0JB9dP&#xA;H6xxr8Xofpf0q13py+Kny+jFXqP5W/8AQsH1yP8AwP8Aoj9J1H1f6x6n13l/xV9f/wBIr/q4q9kx&#xA;V2KuxV2KuxV2KuxV2KuxV2KuxV2KuxV2KuxV2KuxV2KuxV2KuxV2KuxV/9k=</xmpGImg:image>
               </rdf:li>
            </rdf:Alt>
         </xmp:Thumbnails>
         <xmpMM:RenditionClass>proof:pdf</xmpMM:RenditionClass>
         <xmpMM:OriginalDocumentID>uuid:65E6390686CF11DBA6E2D887CEACB407</xmpMM:OriginalDocumentID>
         <xmpMM:DocumentID>xmp.did:02b10f31-5aae-2048-9439-816e02c67ced</xmpMM:DocumentID>
         <xmpMM:InstanceID>xmp.iid:02b10f31-5aae-2048-9439-816e02c67ced</xmpMM:InstanceID>
         <xmpMM:DerivedFrom rdf:parseType="Resource">
            <stRef:instanceID>xmp.iid:131b3cb4-bd48-4f49-80f7-42ff2d857c6c</stRef:instanceID>
            <stRef:documentID>xmp.did:131b3cb4-bd48-4f49-80f7-42ff2d857c6c</stRef:documentID>
            <stRef:originalDocumentID>uuid:65E6390686CF11DBA6E2D887CEACB407</stRef:originalDocumentID>
            <stRef:renditionClass>proof:pdf</stRef:renditionClass>
         </xmpMM:DerivedFrom>
         <xmpMM:History>
            <rdf:Seq>
               <rdf:li rdf:parseType="Resource">
                  <stEvt:action>saved</stEvt:action>
                  <stEvt:instanceID>xmp.iid:38d9701c-40f9-3944-8076-33c49ec492b2</stEvt:instanceID>
                  <stEvt:when>2017-06-19T12:50:54-05:00</stEvt:when>
                  <stEvt:softwareAgent>Adobe Illustrator CC (Windows)</stEvt:softwareAgent>
                  <stEvt:changed>/</stEvt:changed>
               </rdf:li>
               <rdf:li rdf:parseType="Resource">
                  <stEvt:action>saved</stEvt:action>
                  <stEvt:instanceID>xmp.iid:02b10f31-5aae-2048-9439-816e02c67ced</stEvt:instanceID>
                  <stEvt:when>2017-10-04T21:29:08-05:00</stEvt:when>
                  <stEvt:softwareAgent>Adobe Illustrator CC (Windows)</stEvt:softwareAgent>
                  <stEvt:changed>/</stEvt:changed>
               </rdf:li>
            </rdf:Seq>
         </xmpMM:History>
         <illustrator:StartupProfile>Web</illustrator:StartupProfile>
         <xmpTPg:NPages>1</xmpTPg:NPages>
         <xmpTPg:HasVisibleTransparency>False</xmpTPg:HasVisibleTransparency>
         <xmpTPg:HasVisibleOverprint>False</xmpTPg:HasVisibleOverprint>
         <xmpTPg:MaxPageSize rdf:parseType="Resource">
            <stDim:w>35.922844</stDim:w>
            <stDim:h>17.131713</stDim:h>
            <stDim:unit>Centimeters</stDim:unit>
         </xmpTPg:MaxPageSize>
         <xmpTPg:PlateNames>
            <rdf:Seq>
               <rdf:li>Cyan</rdf:li>
               <rdf:li>Magenta</rdf:li>
               <rdf:li>Yellow</rdf:li>
               <rdf:li>Black</rdf:li>
            </rdf:Seq>
         </xmpTPg:PlateNames>
         <xmpTPg:SwatchGroups>
            <rdf:Seq>
               <rdf:li rdf:parseType="Resource">
                  <xmpG:groupName>Grupo de muestras por defecto</xmpG:groupName>
                  <xmpG:groupType>0</xmpG:groupType>
               </rdf:li>
            </rdf:Seq>
         </xmpTPg:SwatchGroups>
         <pdf:Producer>Adobe PDF library 10.01</pdf:Producer>
      </rdf:Description>
   </rdf:RDF>
</x:xmpmeta>
                                                                                                    
                                                                                                    
                                                                                                    
                                                                                                    
                                                                                                    
                                                                                                    
                                                                                                    
                                                                                                    
                                                                                                    
                                                                                                    
                                                                                                    
                                                                                                    
                                                                                                    
                                                                                                    
                                                                                                    
                                                                                                    
                                                                                                    
                                                                                                    
                                                                                                    
                                                                                                    
                           
<?xpacket end="w"?>
	</metadata>
<g id="Capa_1_1_">
	<g>
		<path d="M1021.08,507.854c-12,10.425-29.145,8.089-37.433,4.735c-8.853-3.583-17.628-15.085-15.205-35.375
			c1.737-14.549,9.086-50.13,16.688-77.37c6.012-21.543,12.97-36.842,11.939-39.558c-2.336-6.151-29.579-21.652-90.384-21.652
			c-47.154,0-110.47,22.154-124.53,105.007c-9.833,63.158,23.632,89.482,54.262,89.482c34.647,0,54.339-17.061,70.408-31.623
			c7.03,10.043,28.08,31.623,62.266,31.623c21.782,0,39.989-7.111,51.989-17.793L1021.08,507.854L1021.08,507.854z M902.248,489.667
			c-5.649,8.907-16.615,15.159-27.22,15.159c-18.992,0-32.008-16.107-32.008-32.009c0-38.411,17.467-115.042,60.651-115.042
			c0,0,21.698-0.87,23.547,14.859C930.655,401.861,923.006,456.936,902.248,489.667z"/>
		<path d="M804.609,387.487c-2.591,1.85-9.151,13.856-11.122,18.543l-22.372,53.071c-5.306,12.213-10.982,21.899-17.025,29.053
			c-9.747,11.597-20.234,17.394-31.458,17.394c-3.58,0-6.416-1.417-8.512-4.256c-1.975-2.713-2.962-6.292-2.962-10.733
			c0-7.648,1.481-17.145,4.442-28.498c2.342-8.263,6.042-19.246,11.102-32.939c5.058-13.694,8.079-21.957,9.068-24.797
			c3.083-8.633,4.627-14.555,4.627-17.764c0-4.071-4.89-7.661-14.619-10.918c-5.747-1.923-17.261-3.451-26.56-3.506l-2.677,6.651
			c-1.359,1.975-2.961,3.516-4.812,4.626c-2.469,1.48-5.181,2.221-8.141,2.221c-2.591,0-4.859,0.049-6.662-1.296
			c4.556-7.551,7.221-13.741,6.662-20.171c0-1.48-0.926-3.637-2.776-6.477c-1.85-2.961-4.195-5.797-7.032-8.512
			c-6.91-7.032-13.323-10.548-19.245-10.548c-2.345,0-4.69,0.926-7.032,2.776c-2.345,1.85-4.505,4.32-6.477,7.402
			c-4.442,7.156-6.662,15.359-6.662,24.612c0,10.611,2.096,18.875,6.291,24.796c4.933,6.911,11.889,11.061,22.392,10.363
			c4.307-0.286,9.128-1.296,14.434-3.886c4.933-2.343,9.437-5.367,13.509-9.067c-6.292,18.875-10.918,34.789-13.878,47.742
			c-4.071,17.395-6.107,32.939-6.107,46.633c0,10.981,2.591,20.48,7.771,28.497c6.167,9.747,14.989,14.546,26.462,14.619
			c26.416,0.168,41.327-11.843,57.736-35.529c6.413-9.374,12.092-19.896,17.519-34.061l32.633-78.819
			C808.805,384.711,807.321,385.637,804.609,387.487z M670.894,380.981c0,0-1.712-1.185-2.628-1.928
			c-8.614-6.981-8.378-13.715-7.282-16.69c1.097-2.976,5.555-4.013,8.118-1.645C671.633,363.056,674.087,369.533,670.894,380.981z"
			/>
		<g>
			<path d="M608.349,362.438c-12.155-15.867-30.056-23.804-53.687-23.804c-36.807,0-67.362,13.509-91.673,40.519
				c-22.625,24.311-33.095,50.988-31.402,80.024c1.013,19.246,6.584,35.287,16.714,48.115
				c13.842,17.221,34.101,25.831,60.778,25.831c32.074,0,58.918-11.309,80.53-33.934c21.605-22.617,33.087-49.461,34.441-80.53
				C625.063,395.7,619.824,376.96,608.349,362.438z M545.121,488.597c-5.501,8.674-16.18,14.762-26.508,14.762
				c-18.495,0-31.171-15.686-31.171-31.171c0-37.406,17.011-112.033,59.065-112.033c0,0,21.13-0.847,22.932,14.47
				C572.785,403.088,565.336,456.722,545.121,488.597z"/>
			<path d="M536.075,358.436c-1.836,2.448-5.632,8.416-5.632,25.636c0,38.772,16.51,69.957,57.194,69.957
				c18.559,0,57.665-22.198,76.766-62.198h7.287c0,0-34.245,74.132-86.32,74.132c-54.091,0-80.445-46.668-80.989-70.143
				C503.837,372.346,528.609,358.47,536.075,358.436z"/>
		</g>
		<g>
			<g>
				<path d="M447.577,501.191l-4.737-7.277c-12,4.775-26.384,9.853-42.251,15.641c17.974-74.481,33.922-147.969,33.494-149.284
					c-1.242-3.815-22.028-21.652-90.538-21.638c-37.195,0.008-102.816,14.032-122.879,97.23
					c-15.205,63.053,19.882,94.397,48.97,97.105c48.031,4.471,81.238-13.02,99.832-31.01c0.571,5.839,0.49,12.368-0.118,19.374
					c-29.374,11.56-61.431,25.894-91.932,45.023c-40.698,25.523-72.3,57.142-84.721,94.534
					c-16.223,48.839-1.014,96.833,57.288,93.791c60.216-3.142,88.768-51.815,109-96.326c8.79-19.338,24.219-77.46,38.815-137.308
					C424.677,509.832,447.577,501.191,447.577,501.191z M345.679,490.124c-5.649,8.907-16.615,15.159-27.22,15.159
					c-18.992,0-32.008-16.107-32.008-32.009c0-38.411,17.467-115.042,60.651-115.042c0,0,21.698-0.87,23.547,14.859
					C374.086,402.318,366.437,457.393,345.679,490.124z M319.78,665.114c-13.22,21.483-38.761,34-58.64,31.771
					c-22.603-2.535-34.643-33.799-14.332-67.513c22.113-36.706,45.38-54.327,82.139-75.962c10.058-5.92,24.011-12.703,38.822-19.378
					C360.501,579.764,335.881,638.95,319.78,665.114z"/>
			</g>
		</g>
		<path d="M244.135,507.845c-12.416,10.425-29.806,8.099-38.094,4.744c-8.853-3.583-17.63-15.085-15.207-35.375
			c1.737-14.549,9.085-50.13,16.687-77.37c6.012-21.543,12.97-36.842,11.938-39.558c-2.336-6.151-29.58-21.652-90.385-21.652
			c-47.154,0-110.47,22.154-124.53,105.007c-9.833,63.158,23.632,89.482,54.262,89.482c34.647,0,54.339-17.061,70.408-31.623
			c7.03,10.043,28.084,31.623,62.27,31.623c23.911,0,42.42-8.569,55.982-21.024C247.467,512.099,249.545,514.66,244.135,507.845z
			 M124.639,489.667c-5.649,8.907-16.615,15.159-27.22,15.159c-18.992,0-32.008-16.107-32.008-32.009
			c0-38.411,17.467-115.042,60.651-115.042c0,0,21.698-0.87,23.547,14.859C153.047,401.861,145.397,456.936,124.639,489.667z"/>
		<path d="M145.51,269.201c8.524,0.474,18.596,3.425,20.461,15.546c1.846,11.999-10.786,36.202-21.576,38.32
			c-13.81,2.71-24.507-3.273-22.354-6.091c4.339-3.093,8.797-10.847,10.828-17.785c2.566-8.767,3.003-15.502,2.86-25.239
			C135.65,268.562,140.055,268.898,145.51,269.201z"/>
	</g>
</g>
<g id="Capa_2">
</g>
</svg>
