<?xml version="1.0" encoding="utf-8"?>
<!-- Generator: Adobe Illustrator 17.0.0, SVG Export Plug-In . SVG Version: 6.00 Build 0)  -->
<!DOCTYPE svg PUBLIC "-//W3C//DTD SVG 1.1//EN" "http://www.w3.org/Graphics/SVG/1.1/DTD/svg11.dtd" [
	<!ENTITY ns_extend "http://ns.adobe.com/Extensibility/1.0/">
	<!ENTITY ns_ai "http://ns.adobe.com/AdobeIllustrator/10.0/">
	<!ENTITY ns_graphs "http://ns.adobe.com/Graphs/1.0/">
	<!ENTITY ns_vars "http://ns.adobe.com/Variables/1.0/">
	<!ENTITY ns_imrep "http://ns.adobe.com/ImageReplacement/1.0/">
	<!ENTITY ns_sfw "http://ns.adobe.com/SaveForWeb/1.0/">
	<!ENTITY ns_custom "http://ns.adobe.com/GenericCustomNamespace/1.0/">
	<!ENTITY ns_adobe_xpath "http://ns.adobe.com/XPath/1.0/">
]>
<svg version="1.1" id="Capa_1" xmlns:x="&ns_extend;" xmlns:i="&ns_ai;" xmlns:graph="&ns_graphs;"
	 xmlns="http://www.w3.org/2000/svg" xmlns:xlink="http://www.w3.org/1999/xlink" x="0px" y="0px" width="1018.285px"
	 height="485.623px" viewBox="0 0 1018.285 485.623" enable-background="new 0 0 1018.285 485.623" xml:space="preserve">
<metadata><?xpacket begin="﻿" id="W5M0MpCehiHzreSzNTczkc9d"?>
<x:xmpmeta xmlns:x="adobe:ns:meta/" x:xmptk="Adobe XMP Core 5.5-c014 79.151739, 2013/04/03-12:12:15        ">
   <rdf:RDF xmlns:rdf="http://www.w3.org/1999/02/22-rdf-syntax-ns#">
      <rdf:Description rdf:about=""
            xmlns:dc="http://purl.org/dc/elements/1.1/"
            xmlns:xmp="http://ns.adobe.com/xap/1.0/"
            xmlns:xmpGImg="http://ns.adobe.com/xap/1.0/g/img/"
            xmlns:xmpMM="http://ns.adobe.com/xap/1.0/mm/"
            xmlns:stRef="http://ns.adobe.com/xap/1.0/sType/ResourceRef#"
            xmlns:stEvt="http://ns.adobe.com/xap/1.0/sType/ResourceEvent#"
            xmlns:illustrator="http://ns.adobe.com/illustrator/1.0/"
            xmlns:xmpTPg="http://ns.adobe.com/xap/1.0/t/pg/"
            xmlns:stDim="http://ns.adobe.com/xap/1.0/sType/Dimensions#"
            xmlns:xmpG="http://ns.adobe.com/xap/1.0/g/"
            xmlns:pdf="http://ns.adobe.com/pdf/1.3/">
         <dc:format>image/svg+xml</dc:format>
         <dc:title>
            <rdf:Alt>
               <rdf:li xml:lang="x-default">a_logo</rdf:li>
            </rdf:Alt>
         </dc:title>
         <xmp:CreatorTool>Adobe Illustrator CC (Windows)</xmp:CreatorTool>
         <xmp:CreateDate>2017-10-04T22:34:18-05:00</xmp:CreateDate>
         <xmp:ModifyDate>2017-10-04T22:34:18-05:00</xmp:ModifyDate>
         <xmp:MetadataDate>2017-10-04T22:34:18-05:00</xmp:MetadataDate>
         <xmp:Thumbnails>
            <rdf:Alt>
               <rdf:li rdf:parseType="Resource">
                  <xmpGImg:width>256</xmpGImg:width>
                  <xmpGImg:height>124</xmpGImg:height>
                  <xmpGImg:format>JPEG</xmpGImg:format>
                  <xmpGImg:image>/9j/4AAQSkZJRgABAgEASABIAAD/7QAsUGhvdG9zaG9wIDMuMAA4QklNA+0AAAAAABAASAAAAAEA&#xA;AQBIAAAAAQAB/+4ADkFkb2JlAGTAAAAAAf/bAIQABgQEBAUEBgUFBgkGBQYJCwgGBggLDAoKCwoK&#xA;DBAMDAwMDAwQDA4PEA8ODBMTFBQTExwbGxscHx8fHx8fHx8fHwEHBwcNDA0YEBAYGhURFRofHx8f&#xA;Hx8fHx8fHx8fHx8fHx8fHx8fHx8fHx8fHx8fHx8fHx8fHx8fHx8fHx8fHx8f/8AAEQgAfAEAAwER&#xA;AAIRAQMRAf/EAaIAAAAHAQEBAQEAAAAAAAAAAAQFAwIGAQAHCAkKCwEAAgIDAQEBAQEAAAAAAAAA&#xA;AQACAwQFBgcICQoLEAACAQMDAgQCBgcDBAIGAnMBAgMRBAAFIRIxQVEGE2EicYEUMpGhBxWxQiPB&#xA;UtHhMxZi8CRygvElQzRTkqKyY3PCNUQnk6OzNhdUZHTD0uIIJoMJChgZhJRFRqS0VtNVKBry4/PE&#xA;1OT0ZXWFlaW1xdXl9WZ2hpamtsbW5vY3R1dnd4eXp7fH1+f3OEhYaHiImKi4yNjo+Ck5SVlpeYmZ&#xA;qbnJ2en5KjpKWmp6ipqqusra6voRAAICAQIDBQUEBQYECAMDbQEAAhEDBCESMUEFURNhIgZxgZEy&#xA;obHwFMHR4SNCFVJicvEzJDRDghaSUyWiY7LCB3PSNeJEgxdUkwgJChgZJjZFGidkdFU38qOzwygp&#xA;0+PzhJSktMTU5PRldYWVpbXF1eX1RlZmdoaWprbG1ub2R1dnd4eXp7fH1+f3OEhYaHiImKi4yNjo&#xA;+DlJWWl5iZmpucnZ6fkqOkpaanqKmqq6ytrq+v/aAAwDAQACEQMRAD8A9U4q7FXYq7FXyX5y1SYe&#xA;fNZv7G4eKRb6Yw3EbFWHCQgFWU17bZymon+9kQer7d2Xpx+SxwmAR4cbB9z6g8rXd7eeWtKu77/e&#xA;y4tIJbjtV3jBYkdqk9M6bDImAJ50Hx3tHHCGoyRh9EZyA91pplrhuxV2KuxV2KuxV2KuxV2KuxV2&#xA;KuxV2KuxV2KuxV2KuxV2KuxV2KuxV2KuxV2KuxV2KuxV2Kpb5lGutod4uhCL9KtGVtTMxVVY7Fqg&#xA;H4gN1rtXrlebi4TwfU5eg8HxonPfh3vX4+fk8Q8qfkV5lm1qGTzFGltpsTCScCVZXmoa8BwLU5dy&#xA;e2aTB2bMy9ewfRO0vbDTxwkacmWQ7DYgDz3fQCqqqFUAKBQAbAAZv3zEm28UOxV2KuxV2KuxV2Ku&#xA;xV2KuxV2KuxV2KuxV2KuxV2KuxV2KuxV2KuxV2KuxV2KuxV2KpJ5p85eX/LFmLnVrkRl6+jbp8U0&#xA;pHZE/iaAdzlOfUQxC5F2PZ3ZefWT4cUb7z0HvP4Lx3X/APnITXrh2j0SzisYOiyzfvpj70+FF+VD&#xA;880+XtWZ+kU95ovYnBEXmkZnuGw/X9yT6f5o/OfzEry6dc391GPheW3jWKMHw5IqLX5b5VHNqcnI&#xA;kudm7P7I0tDJHHE/0iSftJKC1Hzt+a2iXS2uo6hfWlwoqsdwN2XpyHNTyHvvkJ6nPA0SQ5GDsnsz&#xA;UR4scISj/R/ZyRmnfnp+YFow9e4gv1FPhuIUG3zh9I5OHaWUczbRn9kNDP6RKHukf99b0zyJ+dem&#xA;+YtQh0q/s2sNRn+GBkb1IZGArStAyE9gaj3zY6btGOQ8JFF5Htj2TyaWBywlx4xz6Efr/Gz0rNk8&#xA;iwzzr+avlryszW0jG+1QD/eGAiq13Hqudk+W59sw9RrYYtucu53/AGT7OajWeoejH/OP6B1+7zeS&#xA;a1+fXna9dhYehpcJ+yIkEslPd5eQJ9wozU5O08suXpe40vsbo8Y9fFkPmaHyH6yhNM8w/nLrqG40&#xA;251K6iVq+rCpWPkO3IBUP+rkYZdTPeJkW7UaLsnTHhyRxxPcef6/ihrr8xPzT0e8Nve6jd2t0tCY&#xA;bmNa0rseMqHY/jkZavPA0SQfNux9h9m54cUIQlHvif0gptpX5++dbVlF8ltqEf7XOP0nPyaLio/4&#xA;HLYdqZBzouFqfYzRz+gygffY+39b1/yD+ZGkecYZhbRSWt9bANcWsnxUDGgZHFAw+gH2zbaXVxzD&#xA;bYh4XtnsLLoCOIiUJciP0joy0kAEk0A3JOZbowHl3nH89tD0qR7PRIhqt4h4vPXjbKR4MN5P9jt/&#xA;lZrNR2nGO0fUfsex7L9j82YCeY+HHu/i/Z8d/J5vc/m7+Zms3Qgsrpo3lP7u0sIFLeNF+GSU/wDB&#xA;Zrjr80zQPyD1sPZns7Tx4pxsDrOX9kfsQt554/NbSJh9fvtRs5XNVS6jZK0HZZVp+GQlqc8DuZD3&#xA;t2LsjszOPRDHIf0T+kFmfkf8+rw3UVl5qVHgkIUanEvBkJ7yovwlfdQKeBzM03aZusnzdB2v7Gw4&#xA;TPTXY/gO9+4/rezXupWlnpk+pSuDaW8L3DyKQQY0UuSp6HYbZuZTAiZdHgMWCWTIMYHqlLh+JNPn&#xA;M/m/+Yd75gN7YzOU5Fo9Ljj9SERD9llA5Nt1br8s538/mlOx8n1b/QxoMeDgmP8APJo3+OnJ7t5G&#xA;832fmvQItUt19KUH0ruA7+nMoBZQe43BU+GbzTZxlhxB837X7Mnos5xy3HOJ7x+ObIMyHVuxV2Kr&#xA;ZZYoo2lldY40BZ3YgKoG5JJ6DATSYxMjQ3JeV+bfz90bT5ZLXQLf9JzrVTduSluGH8tPik/AeBzV&#xA;5+1Ix2gL+57Ts32My5QJZz4Y7ucv1D7fc88uPze/MzWLpbeyujHJMaR2tjApYnwWqySf8NmAdfmm&#xA;aB+Qeoh7M9nYI8U42B1lL+wfYrahqP536bbvf3suqQ26rWSVgSiL4sACE+ZAwynqYizxMMODsfLI&#xA;QgMRl9p/Wl1p+cH5i2pHHV2lUdVmihkr9LJy/HK46/MP4nLy+zGgn/k69xkP0ss0L/nIjVonVNc0&#xA;6K5i6Ga1JikA8eLF1Y/SuZeLtWQ+oX7nR6z2IxEXhmYnuluPmKI+17ToOuafrukW2rae5ezulLRl&#xA;gVYcWKspB7qykHNxiyCcRIci+f6zSZNNlliyfVH+37kt89+cbPynoEupTASXDH07O3rT1JiNh/qj&#xA;qx8Mr1OoGKHEfg5nY/Zc9bnGMbR5yPcPxyfLGt65qmt6lLqOpztcXUxqzN0A7Ko6Ko7AZzGTJKcr&#xA;lzfZtJpMenxjHjHDEfj5sh/LDyQfNnmNbefkum2iie+ddiVrRYwexc/hU5fo9N4s6PIc3V+0Ha35&#xA;LT8Q/vJbR/X8P1PqK0s7WztorW0iSC2hUJFDGAqqo7ADOnjEAUOT43lyyySMpG5HmS8v/wCcibaF&#xA;vKmnXJX99FfrGjeCyQyMw+kxrms7WH7sHzex9h8hGpnHocd/KUf1l8+5oH096Z+QmgLqHm+TUpFr&#xA;DpMJkXw9aasaV/2PM/MZsuzMXFk4v5ryPtlrfC0oxjnkNfAbn9D0T83/AMyX8tWS6Xpjga1eJy9T&#xA;r6EJqOf+uxFF+/wrsNfrPDHDH6j9jy3sx2CNXPxcg/dQ/wBke73d/wAnzjJJJLI0srF5HJZ3Yksz&#xA;E1JJPUnOeJt9WjEAUNgGa/lP5EXzX5gP1sH9E2AWW9pUcyT8ENR050NfYHvmZodN4s9/pHN5/wBp&#xA;O2PyWD0/3s9o+XfL4fe+nbe3gt4I4LeNYYIlCRxIAqqo2AUDYDOlAAFB8fnOUyZSNk9XkH/ORttC&#xA;dN0a54D11mljD034MoalfmM1PawFRL3XsLM+Jkj0oH7XhWaN9He7/wDOOel+npWr6oy73E8duh9o&#xA;V5tT/kaM3nZMPTKT5v7c6i8uPH/NiZfM1+hIvzg/NObUbify7osvHTYiUvbpDvO46opH+6wev83y&#xA;60a/W8R4I8uvm7L2Y9nRiiNRmH7w/SP5vn7/ALve8lzVPbPU/wDnHiKJvN19I1DJHYP6YPblLGCR&#xA;m07KH7w+54323kRpYDocn+9k9V/Nqytrr8v9X9dA5hiE0TECqujggg9vD5ZtNdEHFK3i/ZrLKGux&#xA;0eZo+4h8r5y77M9w8ga1ea7+UXmDRiTNeaZbTRQLuWMLxM0S+5qrKvtTN1pchnp5R6gPnfbWlhpu&#xA;1cOblHJKJPvB3/QT8Xk/lTzNfeWtdt9Xsgryw1DxP9l0YUZTTxHfxzV4MxxyEg9t2loIavCcU+R6&#xA;9x6Flnlv8zrXy15IutM0mKZfMF9O80t0yoIIeVFBjHJy1EXYFRufbMrDrBjxGMfrLpNd7Py1esjk&#xA;ykeBCIAG/EffyrfzU9M/PH8wLOVWuLqK/iFKxTwxio/1ohG344IdpZRzNs9R7I6GY9MTA94J/TYf&#xA;QvlrWf03oFhq3om3+uwrN6JNePIdK0FR4HOgw5OOAl3vluv0v5fPPFfFwGrTLLHEfOX5tfmfP5gv&#xA;ZNI0qYpoVu3F2U0+syKd3NP91j9kd+p7U57Xaw5Dwx+n731f2a9nxpYDLlH76X+xHd7+/wCXv5sq&#xA;szBVBZmNFUbkk9hmtesJrcvqL8sPy/tPKuixyTRq2t3SBr2cgFk5UPoqeyr38Tv4Z0+j0oxR3+o8&#xA;3xz2g7alrMxAP7mJ9I7/AOkfM/YGZuiupRwGRgQykVBB6gjMx0AJBsPjPVIEt9Su4I/sRTSInyVy&#xA;BnHTFSIffdPMyxxkeZiPuQ8cbyyLHGpaRyFRR1JJoBgAtslIAWeT7C8r6LFofl7T9JjpS0hWN2H7&#xA;T0rI3+yck51uHHwQEe58J7Q1Z1GeeU/xSv4dPsfP/wCePmV9V84yWEb1tNJX0EUHYytRpW+daL/s&#xA;c0PaWbiyV0i+neyOgGHSCZ+rLv8ADp+v4vO8171L6U/IzQV03yTHeOoFxqsjXDnv6an041+VFLD/&#xA;AFs6Ps3Fw4r/AJz5L7X6zxdYYD6cYr48z+r4PQ82DyzyP/nIy7C6FpFnXea6eYCv++o+PT/nrmp7&#xA;Wl6Yjze59hsV5sk+6IHzP7HgmaJ9KfRH5E6fDpnkW41e4pGt5NLO8p7QW44b/Jlc50HZkOHEZHr+&#xA;h8t9sM5za0Yo78IA+Mt/1PDPM+vXOv6/favcE8rqVnRCa8IxtGn+xQAZpM2U5JmR6vo3Z+jjpsEc&#xA;Uf4R8z1PxKVZU5j6f/JrQF0nyJZSMvG41Kt7Me5En919HphTnTdn4uDEPPd8f9qdYc+tkP4cfpHw&#xA;5/bbOMzXnHjH/OR92BBoVoDuzXErD/VEar/xI5pu15bRHve/9hcfqyz/AKo+94fmlfRHt7arN5O/&#xA;I2xFu3palrIIidftAXJaQuPlAAAexpm64/B0ornL9P7Hzwaca/tmfFvjxc/82hX+m+y3iGaV9DZ/&#xA;+WXkQ+ZtM8xzFOUkFoIbCvQ3Ln1FIPt6XE/62Z+j03iRl7tve8z2/wBsflMmEXsZ3L+ry/TfwW/k&#xA;zq40f8wLaK5rCL1ZLGTmKFXchkUg9zJGq4Oz8nBlF9dk+1Wm8fQyMd+Cp/Ac/sJL2j84LsW35dau&#xA;1aNIsUSjx9SZFP8Awtc3OvlWGTwHsxj49fj8rPyiXy1nMPsj2X/nHF+N3r1TRPTty1TtsZNzm47J&#xA;5y+DwXt0Lji98v8AetW/5c+VvOfnTUJ9FEtp5ZtCUurqBl4TXZ3ZbXkrKqCtT1HgKEYjSQzZCY7Q&#xA;H3+Sz7d1Og0kI5qlqJcgf4Yf0/P8HcFjv5v6N5d8u31h5f0WAR+jEbi9nY85ZJJTRA7n+VUqAKD4&#xA;sx9fjhjIhEe92vsxqs+qhPPmN2eGI5AAc6HmT79mF6HpNxq+sWWmW/8Ae3kyQqfDkaFj7KNzmFjg&#xA;ZyER1eg1epjgxSyS5RBL7DsrOCys4LO3XjBbRpDCvgkahVH3DOvjEAADo+EZcsskzOX1SJJ+LCvz&#xA;m8zHRPJdxFC/G81M/U4aEVCOCZWp/qArXsSMwu0M3BjNc5bPQeyug/MawE/Tj9R/R9u/wL5jzmn1&#xA;9m/5O6Cmsee7ISrzt7ANeyqf+KqCP/koy5m6DFx5R5bvPe1GsODRSr6p+kfHn9lvqDOmfHVs0qQx&#xA;PLIaJGpdz4BRU4CaZRiZEAcy+Lp5mmnkmb7UjM7d92Nc44mzb7/CPDEAdGVflTpH6U8/aTCy1igl&#xA;+tSeAFuDItfm6qMytDj4ssfn8nTe0ep8HQ5D1kOH/Tbfdb6pzqHxd8Zapevf6neXzkl7qeSdiepM&#xA;jljX7846cuKRPe++6fEMeOMB/DED5CkLkW59k6DYLp2h6fYKOItLaGGn/GNAv8M7DFHhiB3B8F1m&#xA;bxc05/zpE/Mo7JuM+ev+cgtYW6812umoarp1uPUHhLOeZH/ABM0HauS8gj3B9R9itLwaaWQ/5SX2&#xA;R2++3luat7J9H+Zkby7+SLWqfBKLCC2ceL3JRJvv9Rs6LN+701eQ+18o7PP5rtjiPLxJS/0tmP3B&#xA;84Zzr6uvijaWRI03Z2CqPcmgwgWiUgBZfZ1lax2dnBaRf3dvGkSf6qKFH6s7GMaAD4DlyGczI85E&#xA;n5q2FrfOH586ut754NojVTTbeOAgdPUesrfg6g/LOd7TycWWu4PrHsdpfD0fGeeSRPwG36C89s7W&#xA;W7u4LWEVluJFijHizsFH4nMCMbNB6jLkEImR5RF/J65/zkFELODy1psJpa20Myxr/qCJFr8gubXt&#xA;UUIRHIfseH9ipeIc+Q/VKUf98Xjuah7t9IfkJYrb+RBcU+K9uppSfZeMQH/JPOi7MjWK+8vlHtlm&#xA;4tbw/wAyAH6f0pL+a35RXN7dSeYvLUdb1j6l7YoeJdhv6sPT4+7L36jfrTrtAZHjhz6hz/Zz2mjj&#xA;iNPqD6OUZd3lLy7j09zCPN/5navrnlKDy7qts8OqWtwjXVwaqZViRlAdDQq/Ign+GYWfWSnj4JD1&#xA;AvRdmez+LT6o6jFK8comh3WRyPUdzAMwHpnoX5Y+U/N2vW13ZWUr6d5dvXjGrXw+FpVi5UhjPVvt&#xA;moG383YHYaPBkmCBtA8y8v7QdpaXTSjOYE88AeCPdf8AEe7l7+7vfRGi6Np2jaZBpunQiC0t14xo&#xA;Nz4lie5Y7k50GPGIR4RyfLNVqsmoyHJkNyk+WvzI1U6p551m6ryQXLQxn/Ig/dLT5hK5zGrnxZZH&#xA;zfZewtN4Oixx/o3/AKb1fpZj/wA4++Xxd+Y7vWZVrHpkXCE/8XXFVr9EYb78y+ysVzMu79LofbXW&#xA;8GnjiHPId/dH9tPoHN++YPm788vM36W83nT4X5WmjqbdfAzNQzH6CAh/1c53tLNx5K6RfWfZHs/w&#xA;NLxn6su/w/h/X8XnOa56p7X/AM442Cl9b1Bh8QEFvG3sebuPwXNz2TH6j7nz726zbYsf9Y/cB+l7&#xA;Zm6fPWMfmZrC6T5F1e55cZJIGt4fHnP+6FPlyr9GY2sycGKR8vvdx2BpfG1uOPQS4j7o7/ofJ+cq&#xA;+1vYP+cc9MEmr6vqbD/eeCO3Q+87lzT/AJEjNv2TD1Sl5PC+3OorFjx/zpGX+lFf757vm8fNnxbc&#xA;28lvcS28opLC7RuPBlND+IzjSKNP0DjmJREhyItTUgMCRUA7jxwMi+z7C+tr+ygvbVxJb3MaywuO&#xA;6uKjpnYxkJAEci+A5sMsczCQqUTRWapqdnpenXOo3j+na2sbSzP/AJKiu3iT0AxnMRBJ5BOn0882&#xA;SOOAuUjQfIWv6xca1rV7qtxtLeStKV7KCfhUeyrQZyWXIZyMj1fdNFpY6fDHFHlEUs0a2jutYsbW&#xA;QgRz3EUTk9KO4U1+/BjFyA82WqyGGKchzESfsfSn5zWklz+XWqCMVaL0ZSB3VJkLfctTnR9oRvCX&#xA;yT2WyCGvx314h/sS+Xs5l9iROmXEdtqVpcSV9OGaOR6bnirAmn3ZKBogtWogZ45RHMgj7H2XDNFP&#xA;Ck0LiSGVQ8cimqsrCoII7EZ2AN7h8DnExJBFEITXdZstE0i61W9bhbWkZd/Enoqj3ZqAe+Ry5BCJ&#xA;keQb9HpZ6jLHFD6pH8fJ8g6rqVzqmp3Wo3RrcXcrzSkdOTkmg9h2zkpzMpEnq+6abBHDjjjj9MQB&#xA;8mTflFpX6S/MDSkYVjtXN3IfD0FLof8AkZxzJ0EOLKPLd0/tNqfC0OQ9ZDh/02x+y3of/ORulySa&#xA;fo+qItY7eWW3lP8AxmVWT/k02bDtaG0ZPLew2oAnkxnnIAj4WD94eF5o30d9MfkdqNrc/l9Z2sTg&#xA;z2Ek8VwndWeZpV28CsgzpOzZg4gO58j9rsEoa6UiNpiJHwiB94Z+SACSaAbknM95gB8r/mp5pi8x&#xA;+cbq6t2DWVsBa2jjoyRk1f8A2Tkke1M5fW5/EyEjkNn2f2d7OOl0kYy+uXql7z0+A+1j+haJf65q&#xA;1tpdgnqXV04RPBR1Z28FUbnKMWMzkIjmXZ6zVw0+KWWZqMR+B8X1x5e0S10PRLPSbX+5s4xGG6Fm&#xA;6u592YljnV4sYhERHR8P12rlqM0ssucjf6h8Bsj3ZUUuxoqglj4AZY4wFmnxbPM888k0hq8rF3Pu&#xA;xqeucaTZt+gIREQAOQfRf5B2CW/kX6yB8d7dSyMe9EpEB/whzoezI1ivvL5V7ZZjLW8P8yIHz3/S&#xA;yL8wvOdt5U8uzXrMDfSgxafAaVeUjZqfyp9pvu75karUDFC+vR1fYnZUtbnEP4BvI+X6zyD5382e&#xA;Vb7R9E0PUb7kbvWlnupi9eQJKFVavcowY96k5z+fAYRjI85WX1Ps3tGGfNlxw+nFwxH2/p2+DFsx&#xA;XcPc/wDnHK/tTY6xYcgLsSxz8Sd2jKlKgf5LDf5jN32TIVIdXzn25wy48c/4aI+PP8e57Jm4eCeG&#xA;f85Bea457m08t20nIWp+s31O0jLSJPmqsSfmM0naueyIDpzfR/Yrs0xjLUSH1emPu6n5/cXjead7&#xA;x9Df84820aeT724BBkmvnVqdgkUdAf8Agic6DsofuyfN8u9tshOrjHoID7SXqObN4185/nV5EutI&#xA;16bXLSItpOpOZJHUVEVwxq6tToHPxL9I7Zz3aOmMJ8Q+k/e+reynbEc+AYZH97jFe+PT5ci80zWv&#xA;Wsw8ofmp5r8rW31OzkjubAElLS6UuiFjVuBVkZa+FaV7ZmYNbkxChuPN0Xafs7ptZLjmDGf86PX3&#xA;8x+lnOmWX5g/mi0Umuv+i/K6MHaOBDEJyDX92HLs/wDrMSo7b5mwjm1P1emH3vOajLoex7GEeJqP&#xA;M3w++qA9w3PVgPnz8vdY8pagyTI0+mSN/omoKvwMD0V6fZf2P0ZganSyxHf6e96fsbtvFrYWNsg5&#xA;x6/DvDFkd43V0JV0IZWHUEbg5jAu4IBFF73pH53eUdW0F7HzMkltcTQtBehYzJDKHXixThyYcga0&#xA;I2983uPtHHOFT273zTU+yWqwZ+PTESiJXHeiOu9vD9TsUtriR7Vnn015JEsr1o2jWZEPUcgNwCOQ&#xA;7ZpJxo7cuhfRdPmM4gSoZKHFG7q/xsgsg3s48pfm95s8t2S2ELRXtjHtDBdKzGMeCOrKwHsajwzN&#xA;wa/JjFcx5vPdpezOl1c+M3CZ5mPX3hZrfnDz3+YV3FpyxNOgblHp1kjCMHpzepY7fzO1B7Y5NRl1&#xA;Br7AnSdmaLsuJyXX9KR39w/UBuoedfIM3lLTdLN/dI+rX5lee0jIZYY0CcQW7tVjU9PCtK5HUaXw&#xA;oiz6i29ldsjW5MnBGsUKqR/iJv8AV7+9H/lLd+aLHU7y58u6L+lL6WIW6zyErbwBmDt6jfCtTxFB&#xA;zGT0MpxkTCPEfscb2kx6bJjjHUZfDgDdD6pdNv7C9OuPy284+Z4GHnHzCyxMKx6Zp6hYVbqpckDn&#xA;xPYqf9bNmdJkyD95L4B4+Hb2k0cv8Ew7/wA+fP4d3z+Dw7zV5S1ryxqb2OpwFNz6E4FY5kH7aN39&#xA;x1HfNJnwSxyqT6L2d2lh1ePjxn3jqPI/jdT8t+atd8uXpvNIumt5WAWVaBkdQa0dGqD/AA7YMOeW&#xA;M3Estf2dh1cODLHiH2j3FP8AzD+b3nbXLJrGe6S2tZBxmS1T0zID2ZiWaniAQDmRl1+WYomh5Os0&#xA;Pszo9PPjjEykOXEbr9DHvL3lnXPMN8LPSbR7mXbmwFEjB/akc/Co+eY+LDLIaiLdpre0MOlhx5ZC&#xA;I+0+4dX0h+W/5bWHlCyMjlbnWbhaXV2Bsq9fSiruEqNz1Y/QB0Wk0YxDvk+Udu9vT106HpxR5R/S&#xA;fP7mZ5mPPuxV8e+aNButB1+90q4Uq1tKyxk/tRk1jcezLQ5yObEcczE9H3fs/WR1OCOWP8Q+3qPg&#xA;WQ+T/wA2vM3lfSm0yzjt7i15M8IuFYmNm3PEoybE70OZGn108UeEVTqu0/ZrT6zL4kzKMutVv8wW&#xA;U+RPLHmHz/5gTzR5qdpdKtmrDG44pKymqxxJ0ESn7R79NzWmTpsM88+PJ9I/HydP2x2hg7MwHTab&#xA;bJLn3jzJ/nd3dz7no/5p+S380+WHgtVH6Ss29exrtyYCjR1/y16e9M2Ot0/iwocxyeT9ne1Ro9Tx&#xA;S/u5bS/X8Put8uzwT28zwTxtFNGxWSJwVZWGxBB3BzmSCDRfY4TEgJRNgorRdb1TRdQj1DS7hra7&#xA;i+zItNweqsDUMp7g5LHklA3E0WnVaTHqMZx5BxRL0vTvzf8AzQ8xsuk6PZ2xvpBxNzBC3NR05sZH&#xA;aJPckUzZQ1+fJ6YgW8jn9mOzdL+9yylwDoT9mw4iv80fkbrsOhrqkF2+q69yaXU4N2MnPcmEn4nZ&#xA;e9d27eGHN2bIR4geKXVj2f7XYZZvClEY8PKB7v63QA/Z9ryV0eN2jkUo6Eq6MKEEbEEHNUQ9uCCL&#xA;HJ6D+VH5nReUZLiy1GJ5tKu2EhMQBkilA48gCRyDADlv22zP0Os8KwfpLzHtH7PnXATxkDJHbfkR&#xA;+OT1V/zq8pz8YNGiutW1Kb4bexhhZWZz0BZwAB4nembT+UcZ2jcj3PFj2U1UfVmMMeMc5GQ/Qzy4&#xA;t4LiF4LiNJoJAVkikUMjKeoZTUEZnEAii81CcoESiaI6hhF9+Sn5e3c5mFi9sW3ZIJXVCT/kksB9&#xA;FMwpdnYSeVPRYfazXQFcYl7wEbo/5U+QtKlWa30qOWddxJcs8+47hZCyA/IZPHocUdwHH1XtHrcw&#xA;qWQgf0aj927LQAAABQDoMy3RqdxbW9zA9vcxJPBIOMkUih0YeDK1QcBAIos4ZJQIlEkEdQwvUPyX&#xA;/L28lMo09rZ2NW+ryyIp/wBgSVH0DMOfZ+E9Kd/h9qtfjFcfF7wD9vNU0z8nPy9sJFlGmC5kXcG5&#xA;keVfpjJ9M/SuGHZ+GPS2Oo9qNdkFcfCP6IA+3n9rJtQ0LRtR0/8AR17ZQz2IAC27IOC02HED7NO1&#xA;MyZ4oyFEbOow6zLiyeJCRE++/wAWwu6/In8v5mZo4bm2BNQsU7ED2HqCTMKXZmI94egx+2GuiNzG&#xA;Xvj+qmO+YfLX5JeTmI1GKS+vgOSWAmkkk9uSqyKo/wBc5j5cOmw89z3O00Ov7Y1392RCH87hAH2g&#xA;k/BAaPqvn/zVEbPyVpcHlfy+TR7uJRHXsT6wUMzf8Y1qO5yGOeXLtiHBD8df1OTqtPodGePWZJaj&#xA;P/NO/wDsb2H9Y13BhX5l+VY/LOs29i9/JqWoTQC5vrqTaru7AKASzdEqSWNcwtZg8OQF2a3eh7A7&#xA;ROrwmYgMcBLhiB3AD9fc9q/JDSP0f5BtpmXjLqEsl0/jQn00/wCEjB+nNz2dj4cQ893z72t1Pi66&#xA;Q6QAj+k/aWfZnvMobUdL03U7VrTULWK7tn+1FMgda+ND398jOAkKIsN2DUZMMuLHIxl3g0wy7/JH&#xA;8vLiQutjJb1NSsM8gXf2YtT6Mw5dnYT0d/i9rdfEUZCXviP2Klj+S35eWjhzpzXLLuPXmkYf8CGV&#xA;T9Iwx7OwjpbHN7V6+Yrj4fcB/azGx0+w0+2W2sbaK1t0+zDCixoP9ioAzLjARFAUHQ5s88suKcjK&#xA;XeTavkmp2KuxVIfM/kbyx5mVP0vZLLNGOMVyhMcqjrTmpFR7NUZRm00Mn1B2fZ/a+p0n91KgeY5j&#xA;5fqSbTfyY/L6xmE36PN06mqi5keRR/sKhG/2QOUw7PwxN1bn5/arXZBXHw/1QB9vP5M1jjjijWOJ&#xA;QkaAKiKAFAGwAA6ZmAU89KRJs7ldhQx7zH5A8peYn9XVdPSW5pQXKFopaDpV0KlqeDVzHzaXHk+o&#xA;bu00PbWq0orFMiPdzHyP6EjtvyP/AC8hkDvZyzgfsSTycf8AhCmUDs3COn2uyye12vkKEgPdEfpt&#xA;mGlaLpGkWwttMs4rODukKBakd2I3Y+5zMhjjAVEU6HU6vLnlxZJGR80bk3HSDzB5C8o+YHMuq6bF&#xA;NcEU+sLyil26VeMqxp75Rl0uPJ9Qdnou2dVphWKZEe7mPkbY9H+Rf5erIHa1nkUH+7ad+J/4Eq34&#xA;5jjs3D3fa7SXtfriK4oj/NDLND8reXdBjKaRp8NnyFHdFrIw8Gkart9JzKx4IQ+kU6XWdo59Sbyz&#xA;Mvu+XJNMtcJ2KuxV2KuxV2KuxVDalqVhpllLfX86W1pCOUk0hoAP4nwAyM5iIs7BuwaeeaYhAGUj&#xA;0Dw3zj+dGua7dfofyjFLbwzN6STopN3MTtSMD+7B9vi9x0zSajtCUzw4/wBr6L2X7K4dNHxdURIj&#xA;ev4I+/v+73p/5D/I+2gK6p5tpeX7n1Bp5blErHeszf7savUfZ/1sv03ZoHqybnudb2x7XSl+70vp&#xA;hy4uv+b/ADR9vuetRxxxRrHEoSNAFRFACgDYAAdM2oFPDykSbO5fKf5gao/mLz7qM1v+8EtwLW0A&#xA;6MsdIUp/rca/TnL6qfiZSR30+09i6caXRQEtqjxH4+o/J9R6Pp0emaTZadF/d2cEcCkdxGgWv4Z0&#xA;2OHDEDufHNVnObLLIecpE/MovJtDsVdirsVdirsVdirsVdirsVdirsVdirsVdirsVdirsVdirsVd&#xA;irsVdirsVdiqB1vWtO0XS59T1GUQ2luvJ2PUnoFUd2Y7AZDJkEImR5ORpNJk1GQY8YuUnzF568/6&#xA;15y1MepyjsEeljpyVIFdgWp9uQ+P3ZzOp1Us0vLoH2HsfsXDoMe2869UvxyH4L2n8qfyyt/LNimo&#xA;6hGH1+5Srk7i3Rh/dp/lfzn6Bt13Oh0Yxiz9R+x8+9o+35auZx4zWGJ/03mfLuH6XoWbB5djn5he&#xA;Yh5f8oajqIbjcemYbTx9aX4EI/1a8vkMx9Vl8PGS7XsTQ/mtVDH/AA3Z9w3Pz5Pn38otG/Svn7TE&#xA;ZeUNoxvJe9BAOSf8lOIzQaDHxZR5bvqHtNqvB0Mz1l6R/nc/st9S507407FXYq7FXYq7FXYq7FXY&#xA;q7FXYq7FXYq7FXYq7FXYq7FXYq7FXYq7FXYq7FXYq7FXzj+dnneTWtffRrWT/cXpTlCFPwyXA2dz&#xA;/qbov0+Oc72jqeOfCPpj976v7J9kDT4PFkP3mQfKPQfHmfh3Ir8hfKMWp65Prl2nK30riLZT0Ny9&#xA;SG/55qK/MjJ9mYOKXEf4fvafbLtM4cIwxPqyc/6o/X91voTN++XOxV4H/wA5A+ahd6tbeXrd6w6e&#xA;PXu6HYzyD4VP+pGf+GzRdqZ7kIDo+mexfZ3BilnkN57D+qP1n7k2/wCcddCKW2qa5ItPVZbO3Y/y&#xA;r+8lp7ElPuy3snFsZfBwvbjWXLHhHT1H7h+l7Nm4eAdirsVdirsVdirsVdirsVdirsVdirsVdirs&#xA;VdirsVdirsVdirsVdirsVdirsVSnzZrB0byzqeprtJa20jxf8ZONIx/wZGVZ8nBAy7g5vZul8fUQ&#xA;x9JSF+7r9j4/ZmZizEszGrMdySe5zkX3YCtg+gf+cd7m3bypqFspH1iK+aSVa78ZIowhPzKMPozf&#xA;9lEeGR5vmHtvjkNVCR+kwofAm/vD1XNo8Wxzz15103ynosl7cMr3bgrY2hPxSy022G/EftH+NMx9&#xA;TqBijZ59Ha9j9k5NbmEI/T/FLuH6+58sO+o61q5Zi1zqOoT/AOyeWZv4sc5c3OXeS+zgY9Pir6cc&#xA;I/IB9ZeUPL0Pl3y5Y6RFQm2jAmcftyt8UjfSxNPbOqwYhjgI9z4l2nrjqtRPKf4jt5Dp9icZc4Ds&#xA;VdirsVdirsVdirsVdirsVdirsVdirsVdirsVdirsVdirsVdirsVdirsVdirD/wA30lf8udaEX2gk&#xA;THv8Kzxlv+FBzD14/cy/HV33swQNfivvP+5L5YzmH2VO/KXnDW/K2pfX9KkUM68J4JByilSteLgE&#xA;Hr0IIOX4NRLFK4uv7S7Lw6zHwZR7iOY9zOb7/nIbzVNb+naWNpaykUM1HkI91DMFH01zNl2rkI2A&#xA;DzmH2I00ZXKU5Du2H4+x5xq+tarrN699ql1Jd3T9ZJDWg68VHRVHYDbNdkySmbkbL1em0mLBAQxx&#xA;EYjuer/kR5Dea5/xVqEVIIeSaYjD7UnR5d+y/ZX3+WbXszTWfEPweL9se2BGP5aB3P1+7pH48z5e&#xA;97nm7fOHYq7FXYq7FXYq7FXYq7FXYq7FXYq7FXYq7FXYq7FXYq7FXYq7FXYq7FXYq7FXYqhdV062&#xA;1PTLrTrkVt7yJ4JadeMilSR7iu2RnASiQerdp88sOSOSP1RII+D5K81eVtV8taxNpmoRlWQkwzUo&#xA;ksdfhkQ+B/Doc5TPhljlwl9v7O7RxavEMmM+8dQe4pPlLnN4q9M/Lr8mtU1qeLUNdiksdHUhhCwK&#xA;Tz+ACndEPdj17eI2Wk7PlM3PaP3vIdue1OPTg48JE8vfzjH9Z8vn3Poa2tre1t47a2jWG3hUJFEg&#xA;CqqqKAADoBnQAACg+XZMkpyMpG5HmVTCwdirsVdirsVdirsVdirsVdirsVdirsVdirsVdirsVdir&#xA;sVdirsVdirsVdirsVdirsVSbzX/hP9GH/E/1X6hX4frfGnKn7HLflT+XfKc/h8PrqvN2HZv5rxP8&#xA;G4+P+j+ny9+zya4/6Fy+sGnq0rv6f17h79d/uzVH8nf/AEk9tD+X+Hp8fDtmfkv/AJU39YT/AA59&#xA;R+uV/dery+sV/wAj61+9/wCBzM0/5a/RV/b9roO1f5W4T+Y8Tg619Px4PT82f5nvMOxV2KuxV2Ku&#xA;xV2KuxV2KuxV2KuxV2KuxV2KuxV2KuxV2KuxV2KuxV2Kv//Z</xmpGImg:image>
               </rdf:li>
            </rdf:Alt>
         </xmp:Thumbnails>
         <xmpMM:RenditionClass>proof:pdf</xmpMM:RenditionClass>
         <xmpMM:OriginalDocumentID>uuid:65E6390686CF11DBA6E2D887CEACB407</xmpMM:OriginalDocumentID>
         <xmpMM:DocumentID>xmp.did:ee33c912-e599-d048-a8bd-12bbc8ce7b55</xmpMM:DocumentID>
         <xmpMM:InstanceID>xmp.iid:ee33c912-e599-d048-a8bd-12bbc8ce7b55</xmpMM:InstanceID>
         <xmpMM:DerivedFrom rdf:parseType="Resource">
            <stRef:instanceID>xmp.iid:02b10f31-5aae-2048-9439-816e02c67ced</stRef:instanceID>
            <stRef:documentID>xmp.did:02b10f31-5aae-2048-9439-816e02c67ced</stRef:documentID>
            <stRef:originalDocumentID>uuid:65E6390686CF11DBA6E2D887CEACB407</stRef:originalDocumentID>
            <stRef:renditionClass>proof:pdf</stRef:renditionClass>
         </xmpMM:DerivedFrom>
         <xmpMM:History>
            <rdf:Seq>
               <rdf:li rdf:parseType="Resource">
                  <stEvt:action>saved</stEvt:action>
                  <stEvt:instanceID>xmp.iid:38d9701c-40f9-3944-8076-33c49ec492b2</stEvt:instanceID>
                  <stEvt:when>2017-06-19T12:50:54-05:00</stEvt:when>
                  <stEvt:softwareAgent>Adobe Illustrator CC (Windows)</stEvt:softwareAgent>
                  <stEvt:changed>/</stEvt:changed>
               </rdf:li>
               <rdf:li rdf:parseType="Resource">
                  <stEvt:action>saved</stEvt:action>
                  <stEvt:instanceID>xmp.iid:ee33c912-e599-d048-a8bd-12bbc8ce7b55</stEvt:instanceID>
                  <stEvt:when>2017-10-04T22:34:18-05:00</stEvt:when>
                  <stEvt:softwareAgent>Adobe Illustrator CC (Windows)</stEvt:softwareAgent>
                  <stEvt:changed>/</stEvt:changed>
               </rdf:li>
            </rdf:Seq>
         </xmpMM:History>
         <illustrator:StartupProfile>Web</illustrator:StartupProfile>
         <xmpTPg:NPages>1</xmpTPg:NPages>
         <xmpTPg:HasVisibleTransparency>False</xmpTPg:HasVisibleTransparency>
         <xmpTPg:HasVisibleOverprint>False</xmpTPg:HasVisibleOverprint>
         <xmpTPg:MaxPageSize rdf:parseType="Resource">
            <stDim:w>35.922831</stDim:w>
            <stDim:h>17.131700</stDim:h>
            <stDim:unit>Centimeters</stDim:unit>
         </xmpTPg:MaxPageSize>
         <xmpTPg:PlateNames>
            <rdf:Seq>
               <rdf:li>Magenta</rdf:li>
               <rdf:li>Yellow</rdf:li>
            </rdf:Seq>
         </xmpTPg:PlateNames>
         <xmpTPg:SwatchGroups>
            <rdf:Seq>
               <rdf:li rdf:parseType="Resource">
                  <xmpG:groupName>Grupo de muestras por defecto</xmpG:groupName>
                  <xmpG:groupType>0</xmpG:groupType>
               </rdf:li>
            </rdf:Seq>
         </xmpTPg:SwatchGroups>
         <pdf:Producer>Adobe PDF library 10.01</pdf:Producer>
      </rdf:Description>
   </rdf:RDF>
</x:xmpmeta>
                                                                                                    
                                                                                                    
                                                                                                    
                                                                                                    
                                                                                                    
                                                                                                    
                                                                                                    
                                                                                                    
                                                                                                    
                                                                                                    
                                                                                                    
                                                                                                    
                                                                                                    
                                                                                                    
                                                                                                    
                                                                                                    
                                                                                                    
                                                                                                    
                                                                                                    
                                                                                                    
                           
<?xpacket end="w"?>
	</metadata>
<g id="Capa_1_1_">
	<g>
		<path fill="#E62117" d="M1018.285,238.729c-12,10.425-29.145,8.089-37.433,4.735c-8.853-3.583-17.628-15.085-15.205-35.375
			c1.737-14.549,9.086-50.13,16.688-77.37c6.012-21.543,12.97-36.842,11.939-39.558c-2.336-6.151-29.579-21.652-90.384-21.652
			c-47.154,0-110.47,22.154-124.53,105.007c-9.833,63.158,23.632,89.482,54.262,89.482c34.647,0,54.339-17.061,70.408-31.623
			c7.03,10.043,28.08,31.623,62.266,31.623c21.782,0,39.989-7.111,51.989-17.793L1018.285,238.729L1018.285,238.729z
			 M899.453,220.541c-5.649,8.907-16.615,15.159-27.22,15.159c-18.992,0-32.008-16.107-32.008-32.009
			c0-38.411,17.467-115.042,60.651-115.042c0,0,21.698-0.87,23.547,14.859C927.86,132.735,920.211,187.811,899.453,220.541z"/>
		<path fill="#E62117" d="M801.814,118.361c-2.591,1.85-9.151,13.856-11.122,18.543l-22.372,53.071
			c-5.306,12.213-10.982,21.899-17.025,29.053c-9.747,11.597-20.234,17.394-31.458,17.394c-3.58,0-6.416-1.417-8.512-4.256
			c-1.975-2.713-2.962-6.292-2.962-10.733c0-7.648,1.481-17.145,4.442-28.498c2.342-8.263,6.042-19.246,11.102-32.939
			c5.058-13.694,8.079-21.957,9.068-24.797c3.083-8.633,4.627-14.555,4.627-17.764c0-4.071-4.89-7.661-14.619-10.918
			c-5.747-1.923-17.261-3.451-26.56-3.506l-2.677,6.651c-1.359,1.975-2.961,3.516-4.812,4.626c-2.469,1.48-5.181,2.221-8.141,2.221
			c-2.591,0-4.859,0.049-6.662-1.296c4.556-7.551,7.221-13.741,6.662-20.171c0-1.48-0.926-3.637-2.776-6.477
			c-1.85-2.961-4.195-5.797-7.032-8.512c-6.91-7.032-13.323-10.548-19.245-10.548c-2.345,0-4.69,0.926-7.032,2.776
			c-2.345,1.85-4.505,4.32-6.477,7.402c-4.442,7.156-6.662,15.359-6.662,24.612c0,10.611,2.096,18.875,6.291,24.796
			c4.933,6.911,11.889,11.061,22.392,10.363c4.307-0.286,9.128-1.296,14.434-3.886c4.933-2.343,9.437-5.367,13.509-9.067
			c-6.292,18.875-10.918,34.789-13.878,47.742c-4.071,17.395-6.107,32.939-6.107,46.633c0,10.981,2.591,20.48,7.771,28.497
			c6.167,9.747,14.989,14.546,26.462,14.619c26.416,0.168,41.327-11.843,57.736-35.529c6.413-9.374,12.092-19.896,17.519-34.061
			l32.633-78.819C806.01,115.585,804.526,116.511,801.814,118.361z M668.099,111.855c0,0-1.712-1.185-2.628-1.928
			c-8.614-6.981-8.378-13.715-7.282-16.69c1.097-2.976,5.555-4.013,8.118-1.645C668.838,93.93,671.292,100.407,668.099,111.855z"/>
		<g>
			<path fill="#E62117" d="M605.554,93.312c-12.155-15.867-30.056-23.804-53.687-23.804c-36.807,0-67.362,13.509-91.673,40.519
				c-22.625,24.311-33.095,50.988-31.402,80.024c1.013,19.246,6.584,35.287,16.714,48.115
				c13.842,17.221,34.101,25.831,60.778,25.831c32.074,0,58.918-11.309,80.53-33.934c21.605-22.617,33.087-49.461,34.441-80.53
				C622.268,126.575,617.029,107.834,605.554,93.312z M542.326,219.471c-5.501,8.674-16.18,14.762-26.508,14.762
				c-18.495,0-31.171-15.686-31.171-31.171c0-37.406,17.011-112.033,59.065-112.033c0,0,21.13-0.847,22.932,14.47
				C569.99,133.963,562.541,187.596,542.326,219.471z"/>
			<path fill="#E62117" d="M533.28,89.311c-1.836,2.448-5.632,8.416-5.632,25.636c0,38.772,16.51,69.957,57.194,69.957
				c18.559,0,57.665-22.198,76.766-62.198h7.287c0,0-34.245,74.132-86.32,74.132c-54.091,0-80.445-46.668-80.989-70.143
				C501.042,103.221,525.814,89.344,533.28,89.311z"/>
		</g>
		<g>
			<g>
				<path fill="#E62117" d="M444.782,232.066l-4.737-7.277c-12,4.775-26.384,9.853-42.251,15.641
					c17.974-74.481,33.922-147.969,33.494-149.284c-1.242-3.815-22.028-21.652-90.538-21.638
					c-37.195,0.008-102.816,14.032-122.879,97.23c-15.205,63.053,19.882,94.397,48.97,97.105
					c48.031,4.471,81.238-13.02,99.832-31.01c0.571,5.839,0.49,12.368-0.118,19.374c-29.374,11.56-61.431,25.894-91.932,45.023
					c-40.698,25.523-72.3,57.142-84.721,94.534c-16.223,48.839-1.014,96.833,57.288,93.791c60.216-3.142,88.768-51.815,109-96.326
					c8.79-19.338,24.219-77.46,38.815-137.308C421.882,240.706,444.782,232.066,444.782,232.066z M342.884,220.998
					c-5.649,8.907-16.615,15.159-27.22,15.159c-18.992,0-32.008-16.107-32.008-32.009c0-38.411,17.467-115.042,60.651-115.042
					c0,0,21.698-0.87,23.547,14.859C371.291,133.192,363.642,188.268,342.884,220.998z M316.985,395.988
					c-13.22,21.483-38.761,34-58.64,31.771c-22.603-2.535-34.643-33.799-14.332-67.513c22.113-36.706,45.38-54.327,82.139-75.962
					c10.058-5.92,24.011-12.703,38.822-19.378C357.706,310.638,333.086,369.824,316.985,395.988z"/>
			</g>
		</g>
		<path fill="#E62117" d="M241.34,238.719c-12.416,10.425-29.806,8.099-38.094,4.744c-8.853-3.583-17.63-15.085-15.207-35.375
			c1.737-14.549,9.085-50.13,16.687-77.37c6.012-21.543,12.97-36.842,11.938-39.558c-2.336-6.151-29.58-21.652-90.385-21.652
			c-47.154,0-110.47,22.154-124.53,105.007c-9.833,63.158,23.632,89.482,54.262,89.482c34.647,0,54.339-17.061,70.408-31.623
			c7.03,10.043,28.084,31.623,62.27,31.623c23.911,0,42.42-8.569,55.982-21.024C244.672,242.973,246.75,245.534,241.34,238.719z
			 M121.844,220.541c-5.649,8.907-16.615,15.159-27.22,15.159c-18.992,0-32.008-16.107-32.008-32.009
			c0-38.411,17.467-115.042,60.651-115.042c0,0,21.698-0.87,23.547,14.859C150.252,132.735,142.602,187.811,121.844,220.541z"/>
		<path fill="#E62117" d="M142.715,0.075c8.524,0.474,18.596,3.425,20.461,15.546c1.846,11.999-10.786,36.202-21.576,38.32
			c-13.81,2.71-24.507-3.273-22.354-6.091c4.339-3.093,8.797-10.847,10.828-17.785c2.566-8.767,3.003-15.502,2.86-25.239
			C132.855-0.563,137.26-0.227,142.715,0.075z"/>
	</g>
</g>
<g id="Capa_2">
</g>
</svg>
