<?xml version="1.0" encoding="utf-8"?>
<!-- Generator: Adobe Illustrator 17.0.0, SVG Export Plug-In . SVG Version: 6.00 Build 0)  -->
<!DOCTYPE svg PUBLIC "-//W3C//DTD SVG 1.1//EN" "http://www.w3.org/Graphics/SVG/1.1/DTD/svg11.dtd" [
	<!ENTITY ns_extend "http://ns.adobe.com/Extensibility/1.0/">
	<!ENTITY ns_ai "http://ns.adobe.com/AdobeIllustrator/10.0/">
	<!ENTITY ns_graphs "http://ns.adobe.com/Graphs/1.0/">
	<!ENTITY ns_vars "http://ns.adobe.com/Variables/1.0/">
	<!ENTITY ns_imrep "http://ns.adobe.com/ImageReplacement/1.0/">
	<!ENTITY ns_sfw "http://ns.adobe.com/SaveForWeb/1.0/">
	<!ENTITY ns_custom "http://ns.adobe.com/GenericCustomNamespace/1.0/">
	<!ENTITY ns_adobe_xpath "http://ns.adobe.com/XPath/1.0/">
]>
<svg version="1.1" id="Capa_1" xmlns:x="&ns_extend;" xmlns:i="&ns_ai;" xmlns:graph="&ns_graphs;"
	 xmlns="http://www.w3.org/2000/svg" xmlns:xlink="http://www.w3.org/1999/xlink" x="0px" y="0px" width="1018.285px"
	 height="485.623px" viewBox="0 0 1018.285 485.623" enable-background="new 0 0 1018.285 485.623" xml:space="preserve">
<metadata><?xpacket begin="﻿" id="W5M0MpCehiHzreSzNTczkc9d"?>
<x:xmpmeta xmlns:x="adobe:ns:meta/" x:xmptk="Adobe XMP Core 5.5-c014 79.151739, 2013/04/03-12:12:15        ">
   <rdf:RDF xmlns:rdf="http://www.w3.org/1999/02/22-rdf-syntax-ns#">
      <rdf:Description rdf:about=""
            xmlns:dc="http://purl.org/dc/elements/1.1/"
            xmlns:xmp="http://ns.adobe.com/xap/1.0/"
            xmlns:xmpGImg="http://ns.adobe.com/xap/1.0/g/img/"
            xmlns:xmpMM="http://ns.adobe.com/xap/1.0/mm/"
            xmlns:stRef="http://ns.adobe.com/xap/1.0/sType/ResourceRef#"
            xmlns:stEvt="http://ns.adobe.com/xap/1.0/sType/ResourceEvent#"
            xmlns:illustrator="http://ns.adobe.com/illustrator/1.0/"
            xmlns:xmpTPg="http://ns.adobe.com/xap/1.0/t/pg/"
            xmlns:stDim="http://ns.adobe.com/xap/1.0/sType/Dimensions#"
            xmlns:xmpG="http://ns.adobe.com/xap/1.0/g/"
            xmlns:pdf="http://ns.adobe.com/pdf/1.3/">
         <dc:format>image/svg+xml</dc:format>
         <dc:title>
            <rdf:Alt>
               <rdf:li xml:lang="x-default">a_logo</rdf:li>
            </rdf:Alt>
         </dc:title>
         <xmp:CreatorTool>Adobe Illustrator CC (Windows)</xmp:CreatorTool>
         <xmp:CreateDate>2017-10-04T21:29:07-05:00</xmp:CreateDate>
         <xmp:ModifyDate>2017-10-04T21:29:08-05:00</xmp:ModifyDate>
         <xmp:MetadataDate>2017-10-04T21:29:08-05:00</xmp:MetadataDate>
         <xmp:Thumbnails>
            <rdf:Alt>
               <rdf:li rdf:parseType="Resource">
                  <xmpGImg:width>256</xmpGImg:width>
                  <xmpGImg:height>124</xmpGImg:height>
                  <xmpGImg:format>JPEG</xmpGImg:format>
                  <xmpGImg:image>/9j/4AAQSkZJRgABAgEASABIAAD/7QAsUGhvdG9zaG9wIDMuMAA4QklNA+0AAAAAABAASAAAAAEA&#xA;AQBIAAAAAQAB/+4ADkFkb2JlAGTAAAAAAf/bAIQABgQEBAUEBgUFBgkGBQYJCwgGBggLDAoKCwoK&#xA;DBAMDAwMDAwQDA4PEA8ODBMTFBQTExwbGxscHx8fHx8fHx8fHwEHBwcNDA0YEBAYGhURFRofHx8f&#xA;Hx8fHx8fHx8fHx8fHx8fHx8fHx8fHx8fHx8fHx8fHx8fHx8fHx8fHx8fHx8f/8AAEQgAfAEAAwER&#xA;AAIRAQMRAf/EAaIAAAAHAQEBAQEAAAAAAAAAAAQFAwIGAQAHCAkKCwEAAgIDAQEBAQEAAAAAAAAA&#xA;AQACAwQFBgcICQoLEAACAQMDAgQCBgcDBAIGAnMBAgMRBAAFIRIxQVEGE2EicYEUMpGhBxWxQiPB&#xA;UtHhMxZi8CRygvElQzRTkqKyY3PCNUQnk6OzNhdUZHTD0uIIJoMJChgZhJRFRqS0VtNVKBry4/PE&#xA;1OT0ZXWFlaW1xdXl9WZ2hpamtsbW5vY3R1dnd4eXp7fH1+f3OEhYaHiImKi4yNjo+Ck5SVlpeYmZ&#xA;qbnJ2en5KjpKWmp6ipqqusra6voRAAICAQIDBQUEBQYECAMDbQEAAhEDBCESMUEFURNhIgZxgZEy&#xA;obHwFMHR4SNCFVJicvEzJDRDghaSUyWiY7LCB3PSNeJEgxdUkwgJChgZJjZFGidkdFU38qOzwygp&#xA;0+PzhJSktMTU5PRldYWVpbXF1eX1RlZmdoaWprbG1ub2R1dnd4eXp7fH1+f3OEhYaHiImKi4yNjo&#xA;+DlJWWl5iZmpucnZ6fkqOkpaanqKmqq6ytrq+v/aAAwDAQACEQMRAD8A9U4q7FXYq7FXYq7FXYq7&#xA;FXYq7FXYq7FXYq7FXYq7FXYq7FXYq7FXYq7FXYq7FXYq7FXYq7FXYq7FXYq7FXYq7FXYq7FXYq7F&#xA;XYq7FXYq7FXYq7FXYq7FXYq7FXYq7FXYq7FXYq7FXYq7FXYq7FXYq7FXYq7FXYq7FXYq7FXYq7FX&#xA;Yq7FXYq7FXYq7FXYq7FXYq7FXYq7FXYq7FXYq7FXYq7FXYq7FXYq7FXYq7FXYq7FXYq7FXYq7FXY&#xA;q7FXYq7FXYq7FXYq7FXYq7FXYq7FXYq7FXYq7FXYq7FXYq7FXYq7FXYq7FXYq7FXYq7FXYq7FXYq&#xA;7FXYq7FXYq7FXYq7FXYq7FXYq7FXYq7FXYq7FXYq7FXYq7FXYq7FXYq7FXYq7FXYq7FXYq7FXYq7&#xA;FXYq7FXYq7FXYq7FXYq7FXYq7FXYq7FXYq7FXYq7FXYq7FXYq7FXYq7FXYq7FXYq7FXYq7FXYq7F&#xA;XYq7FXYq7FXYq7FXYq7FXYq7FXYq7FXYq7FXYq7FXYq7FXYq7FXYq7FXYq7FXYq7FXYq7FXYq7FX&#xA;Yq7FXYq7FXYq7FXYq7FXYq7FXYq7FXYq7FXYq7FXYq7FXYq7FXYq7FXYq7FXYq7FXYq7FXYq7FXY&#xA;q7FXYq7FXYq7FXYq7FXYq7FXYq7FXYq7FXYq7FXYq7FXYq7FXYq7FXYq7FXYq7FXYq7FXYq7FXYq&#xA;7FXYq7FXYq7FXYq7FXYq7FXYq7FXYq7FXYq7FXYq7FXYq7FXYq7FXYq7FXYq7FXYq7FXYq7FXYq7&#xA;FXYq7FXYq7FXYq7FXYq7FXYq7FXYq7FXYq7FXYq7FXYq7FXYq7FXYq7FXYq7FXYq7FXYq7FXYq7F&#xA;XYq7FXYq7FXYq7FXYq7FXYq7FXYq7FXYq7FXYq7FXYq7FXYq7FXYq7FXYq7FXYq7FXYq7FXYq7FX&#xA;Yq7FXYq7FXYq7FXYq7FXYq7FXYq7FXYq7FXYq7FXYq7FXYq7FXYq7FXYq7FXYq7FXYq7FXYq7FXY&#xA;q7FXYq7FXYq7FXYq7FXYq7FXYq7FXYq7FXYq7FXYq7FXYq7FXYq7FXYq7FXYq7FXYq7FXYq7FXYq&#xA;7FXYq7FXYq7FXYq7FXYq7FXYq7FXYq7FXYq7FXYq7FXYq7FXYq7FXYq7FXYq7FXYq7FXYq7FXYq7&#xA;FXYq7FXYq7FXYq7FXYq7FXYq7FXYq7FXYq7FXYq7FXYq7FXYq7FXYq7FXYq7FXYq7FXYq7FXYq7F&#xA;XYq7FXYq7FXYq7FXYq7FXYq7FXYq7FXYq7FXYq7FXYq7FX//2Q==</xmpGImg:image>
               </rdf:li>
            </rdf:Alt>
         </xmp:Thumbnails>
         <xmpMM:RenditionClass>proof:pdf</xmpMM:RenditionClass>
         <xmpMM:OriginalDocumentID>uuid:65E6390686CF11DBA6E2D887CEACB407</xmpMM:OriginalDocumentID>
         <xmpMM:DocumentID>xmp.did:02b10f31-5aae-2048-9439-816e02c67ced</xmpMM:DocumentID>
         <xmpMM:InstanceID>xmp.iid:02b10f31-5aae-2048-9439-816e02c67ced</xmpMM:InstanceID>
         <xmpMM:DerivedFrom rdf:parseType="Resource">
            <stRef:instanceID>xmp.iid:131b3cb4-bd48-4f49-80f7-42ff2d857c6c</stRef:instanceID>
            <stRef:documentID>xmp.did:131b3cb4-bd48-4f49-80f7-42ff2d857c6c</stRef:documentID>
            <stRef:originalDocumentID>uuid:65E6390686CF11DBA6E2D887CEACB407</stRef:originalDocumentID>
            <stRef:renditionClass>proof:pdf</stRef:renditionClass>
         </xmpMM:DerivedFrom>
         <xmpMM:History>
            <rdf:Seq>
               <rdf:li rdf:parseType="Resource">
                  <stEvt:action>saved</stEvt:action>
                  <stEvt:instanceID>xmp.iid:38d9701c-40f9-3944-8076-33c49ec492b2</stEvt:instanceID>
                  <stEvt:when>2017-06-19T12:50:54-05:00</stEvt:when>
                  <stEvt:softwareAgent>Adobe Illustrator CC (Windows)</stEvt:softwareAgent>
                  <stEvt:changed>/</stEvt:changed>
               </rdf:li>
               <rdf:li rdf:parseType="Resource">
                  <stEvt:action>saved</stEvt:action>
                  <stEvt:instanceID>xmp.iid:02b10f31-5aae-2048-9439-816e02c67ced</stEvt:instanceID>
                  <stEvt:when>2017-10-04T21:29:08-05:00</stEvt:when>
                  <stEvt:softwareAgent>Adobe Illustrator CC (Windows)</stEvt:softwareAgent>
                  <stEvt:changed>/</stEvt:changed>
               </rdf:li>
            </rdf:Seq>
         </xmpMM:History>
         <illustrator:StartupProfile>Web</illustrator:StartupProfile>
         <xmpTPg:NPages>1</xmpTPg:NPages>
         <xmpTPg:HasVisibleTransparency>False</xmpTPg:HasVisibleTransparency>
         <xmpTPg:HasVisibleOverprint>False</xmpTPg:HasVisibleOverprint>
         <xmpTPg:MaxPageSize rdf:parseType="Resource">
            <stDim:w>35.922831</stDim:w>
            <stDim:h>17.131700</stDim:h>
            <stDim:unit>Centimeters</stDim:unit>
         </xmpTPg:MaxPageSize>
         <xmpTPg:SwatchGroups>
            <rdf:Seq>
               <rdf:li rdf:parseType="Resource">
                  <xmpG:groupName>Grupo de muestras por defecto</xmpG:groupName>
                  <xmpG:groupType>0</xmpG:groupType>
               </rdf:li>
            </rdf:Seq>
         </xmpTPg:SwatchGroups>
         <pdf:Producer>Adobe PDF library 10.01</pdf:Producer>
      </rdf:Description>
   </rdf:RDF>
</x:xmpmeta>
                                                                                                    
                                                                                                    
                                                                                                    
                                                                                                    
                                                                                                    
                                                                                                    
                                                                                                    
                                                                                                    
                                                                                                    
                                                                                                    
                                                                                                    
                                                                                                    
                                                                                                    
                                                                                                    
                                                                                                    
                                                                                                    
                                                                                                    
                                                                                                    
                                                                                                    
                                                                                                    
                           
<?xpacket end="w"?>
	</metadata>
<g id="Capa_1_1_">
	<g>
		<path fill="#FFFFFF" d="M1018.285,238.729c-12,10.425-29.145,8.089-37.433,4.735c-8.853-3.583-17.628-15.085-15.205-35.375
			c1.737-14.549,9.086-50.13,16.688-77.37c6.012-21.543,12.97-36.842,11.939-39.558c-2.336-6.151-29.579-21.652-90.384-21.652
			c-47.154,0-110.47,22.154-124.53,105.007c-9.833,63.158,23.632,89.482,54.262,89.482c34.647,0,54.339-17.061,70.408-31.623
			c7.03,10.043,28.08,31.623,62.266,31.623c21.782,0,39.989-7.111,51.989-17.793L1018.285,238.729L1018.285,238.729z
			 M899.453,220.541c-5.649,8.907-16.615,15.159-27.22,15.159c-18.992,0-32.008-16.107-32.008-32.009
			c0-38.411,17.467-115.042,60.651-115.042c0,0,21.698-0.87,23.547,14.859C927.86,132.735,920.211,187.811,899.453,220.541z"/>
		<path fill="#FFFFFF" d="M801.814,118.361c-2.591,1.85-9.151,13.856-11.122,18.543l-22.372,53.071
			c-5.306,12.213-10.982,21.899-17.025,29.053c-9.747,11.597-20.234,17.394-31.458,17.394c-3.58,0-6.416-1.417-8.512-4.256
			c-1.975-2.713-2.962-6.292-2.962-10.733c0-7.648,1.481-17.145,4.442-28.498c2.342-8.263,6.042-19.246,11.102-32.939
			c5.058-13.694,8.079-21.957,9.068-24.797c3.083-8.633,4.627-14.555,4.627-17.764c0-4.071-4.89-7.661-14.619-10.918
			c-5.747-1.923-17.261-3.451-26.56-3.506l-2.677,6.651c-1.359,1.975-2.961,3.516-4.812,4.626c-2.469,1.48-5.181,2.221-8.141,2.221
			c-2.591,0-4.859,0.049-6.662-1.296c4.556-7.551,7.221-13.741,6.662-20.171c0-1.48-0.926-3.637-2.776-6.477
			c-1.85-2.961-4.195-5.797-7.032-8.512c-6.91-7.032-13.323-10.548-19.245-10.548c-2.345,0-4.69,0.926-7.032,2.776
			c-2.345,1.85-4.505,4.32-6.477,7.402c-4.442,7.156-6.662,15.359-6.662,24.612c0,10.611,2.096,18.875,6.291,24.796
			c4.933,6.911,11.889,11.061,22.392,10.363c4.307-0.286,9.128-1.296,14.434-3.886c4.933-2.343,9.437-5.367,13.509-9.067
			c-6.292,18.875-10.918,34.789-13.878,47.742c-4.071,17.395-6.107,32.939-6.107,46.633c0,10.981,2.591,20.48,7.771,28.497
			c6.167,9.747,14.989,14.546,26.462,14.619c26.416,0.168,41.327-11.843,57.736-35.529c6.413-9.374,12.092-19.896,17.519-34.061
			l32.633-78.819C806.01,115.585,804.526,116.511,801.814,118.361z M668.099,111.855c0,0-1.712-1.185-2.628-1.928
			c-8.614-6.981-8.378-13.715-7.282-16.69c1.097-2.976,5.555-4.013,8.118-1.645C668.838,93.93,671.292,100.407,668.099,111.855z"/>
		<g>
			<path fill="#FFFFFF" d="M605.554,93.312c-12.155-15.867-30.056-23.804-53.687-23.804c-36.807,0-67.362,13.509-91.673,40.519
				c-22.625,24.311-33.095,50.988-31.402,80.024c1.013,19.246,6.584,35.287,16.714,48.115
				c13.842,17.221,34.101,25.831,60.778,25.831c32.074,0,58.918-11.309,80.53-33.934c21.605-22.617,33.087-49.461,34.441-80.53
				C622.268,126.575,617.029,107.834,605.554,93.312z M542.326,219.471c-5.501,8.674-16.18,14.762-26.508,14.762
				c-18.495,0-31.171-15.686-31.171-31.171c0-37.406,17.011-112.033,59.065-112.033c0,0,21.13-0.847,22.932,14.47
				C569.99,133.963,562.541,187.596,542.326,219.471z"/>
			<path fill="#FFFFFF" d="M533.28,89.311c-1.836,2.448-5.632,8.416-5.632,25.636c0,38.772,16.51,69.957,57.194,69.957
				c18.559,0,57.665-22.198,76.766-62.198h7.287c0,0-34.245,74.132-86.32,74.132c-54.091,0-80.445-46.668-80.989-70.143
				C501.042,103.221,525.814,89.344,533.28,89.311z"/>
		</g>
		<g>
			<g>
				<path fill="#FFFFFF" d="M444.782,232.066l-4.737-7.277c-12,4.775-26.384,9.853-42.251,15.641
					c17.974-74.481,33.922-147.969,33.494-149.284c-1.242-3.815-22.028-21.652-90.538-21.638
					c-37.195,0.008-102.816,14.032-122.879,97.23c-15.205,63.053,19.882,94.397,48.97,97.105
					c48.031,4.471,81.238-13.02,99.832-31.01c0.571,5.839,0.49,12.368-0.118,19.374c-29.374,11.56-61.431,25.894-91.932,45.023
					c-40.698,25.523-72.3,57.142-84.721,94.534c-16.223,48.839-1.014,96.833,57.288,93.791c60.216-3.142,88.768-51.815,109-96.326
					c8.79-19.338,24.219-77.46,38.815-137.308C421.882,240.706,444.782,232.066,444.782,232.066z M342.884,220.998
					c-5.649,8.907-16.615,15.159-27.22,15.159c-18.992,0-32.008-16.107-32.008-32.009c0-38.411,17.467-115.042,60.651-115.042
					c0,0,21.698-0.87,23.547,14.859C371.291,133.192,363.642,188.268,342.884,220.998z M316.985,395.988
					c-13.22,21.483-38.761,34-58.64,31.771c-22.603-2.535-34.643-33.799-14.332-67.513c22.113-36.706,45.38-54.327,82.139-75.962
					c10.058-5.92,24.011-12.703,38.822-19.378C357.706,310.638,333.086,369.824,316.985,395.988z"/>
			</g>
		</g>
		<path fill="#FFFFFF" d="M241.34,238.719c-12.416,10.425-29.806,8.099-38.094,4.744c-8.853-3.583-17.63-15.085-15.207-35.375
			c1.737-14.549,9.085-50.13,16.687-77.37c6.012-21.543,12.97-36.842,11.938-39.558c-2.336-6.151-29.58-21.652-90.385-21.652
			c-47.154,0-110.47,22.154-124.53,105.007c-9.833,63.158,23.632,89.482,54.262,89.482c34.647,0,54.339-17.061,70.408-31.623
			c7.03,10.043,28.084,31.623,62.27,31.623c23.911,0,42.42-8.569,55.982-21.024C244.672,242.973,246.75,245.534,241.34,238.719z
			 M121.844,220.541c-5.649,8.907-16.615,15.159-27.22,15.159c-18.992,0-32.008-16.107-32.008-32.009
			c0-38.411,17.467-115.042,60.651-115.042c0,0,21.698-0.87,23.547,14.859C150.252,132.735,142.602,187.811,121.844,220.541z"/>
		<path fill="#FFFFFF" d="M142.715,0.075c8.524,0.474,18.596,3.425,20.461,15.546c1.846,11.999-10.786,36.202-21.576,38.32
			c-13.81,2.71-24.507-3.273-22.354-6.091c4.339-3.093,8.797-10.847,10.828-17.785c2.566-8.767,3.003-15.502,2.86-25.239
			C132.855-0.563,137.26-0.227,142.715,0.075z"/>
	</g>
</g>
<g id="Capa_2">
</g>
</svg>
