<?xml version="1.0" encoding="utf-8"?>
<!-- Generator: Adobe Illustrator 17.0.0, SVG Export Plug-In . SVG Version: 6.00 Build 0)  -->
<!DOCTYPE svg PUBLIC "-//W3C//DTD SVG 1.1//EN" "http://www.w3.org/Graphics/SVG/1.1/DTD/svg11.dtd">
<svg version="1.1" id="Capa_1" xmlns="http://www.w3.org/2000/svg" xmlns:xlink="http://www.w3.org/1999/xlink" x="0px" y="0px"
	 width="64px" height="64px" viewBox="0 0 64 64" enable-background="new 0 0 64 64" xml:space="preserve">
<g>
</g>
<g>
	<g>
		<path fill="#3E3E3D" d="M61.515,12.969H2.485C1.112,12.969,0,11.857,0,10.485S1.112,8,2.485,8h59.031C62.888,8,64,9.112,64,10.485
			S62.888,12.969,61.515,12.969z"/>
	</g>
	<g>
		<path fill="#3E3E3D" d="M61.515,55.956c-0.628,0-1.257-0.237-1.741-0.712L32,29.967L4.226,55.244
			c-0.979,0.962-2.552,0.947-3.514-0.031c-0.961-0.979-0.947-2.552,0.032-3.514l29.515-26.987c0.967-0.949,2.516-0.949,3.482,0
			l29.515,26.987c0.979,0.961,0.993,2.535,0.031,3.514C62.802,55.708,62.159,55.956,61.515,55.956z"/>
	</g>
</g>
</svg>
