<?xml version="1.0" encoding="utf-8"?>
<!-- Generator: Adobe Illustrator 17.0.0, SVG Export Plug-In . SVG Version: 6.00 Build 0)  -->
<!DOCTYPE svg PUBLIC "-//W3C//DTD SVG 1.1//EN" "http://www.w3.org/Graphics/SVG/1.1/DTD/svg11.dtd">
<svg version="1.1" id="Capa_1" xmlns="http://www.w3.org/2000/svg" xmlns:xlink="http://www.w3.org/1999/xlink" x="0px" y="0px"
	 width="64px" height="64px" viewBox="0 0 64 64" enable-background="new 0 0 64 64" xml:space="preserve">
<g display="none">
</g>
<g>
	<g>
		<g>
			<path fill="#3E3E3D" d="M35,31h-6c-0.553,0-1-0.448-1-1s0.447-1,1-1h6c0.553,0,1,0.448,1,1S35.553,31,35,31z"/>
		</g>
		<g>
			<path fill="#3E3E3D" d="M35,36.995h-6c-0.553,0-1-0.448-1-1c0-0.552,0.447-1,1-1h6c0.553,0,1,0.448,1,1
				C36,36.548,35.553,36.995,35,36.995z"/>
		</g>
		<g>
			<path fill="#3E3E3D" d="M35,42.991h-6c-0.553,0-1-0.448-1-1c0-0.552,0.447-1,1-1h6c0.553,0,1,0.448,1,1
				C36,42.543,35.553,42.991,35,42.991z"/>
		</g>
		<g>
			<path fill="#3E3E3D" d="M49.27,64.016H14.729c-3.137,0-5.979-1.586-7.533-4.311c-1.554-2.726-1.528-5.966,0.071-8.665
				l15.679-27.458V9.079c-1.077-0.982-1.707-2.387-1.707-3.854c0-2.873,2.766-5.21,5.639-5.21h10.658c2.873,0,5.21,2.337,5.21,5.21
				c0,1.467-0.63,2.872-1.707,3.854V23.58l15.747,27.513c1.596,2.696,1.622,5.935,0.068,8.661
				C55.299,62.48,52.408,64.016,49.27,64.016z M26.878,2.054c-1.749,0-3.601,1.423-3.601,3.172c0,1.001,0.484,1.956,1.293,2.554
				l0.414,0.305v16.049L9.023,52.073C7.8,54.139,7.78,56.612,8.967,58.695c1.187,2.081,3.366,3.283,5.762,3.283H49.27
				c2.396,0,4.626-1.151,5.812-3.233c1.187-2.082,1.167-4.556-0.053-6.617L39,24.134V8.085l0.414-0.305
				c0.81-0.598,1.293-1.552,1.293-2.554c0-1.749-1.423-3.172-3.172-3.172L26.878,2.054L26.878,2.054z"/>
		</g>
	</g>
	<circle fill="#3E3E3D" cx="29.003" cy="9.038" r="1"/>
	<circle fill="#3E3E3D" cx="34.5" cy="15.493" r="1.5"/>
	<circle fill="#3E3E3D" cx="29.526" cy="21.524" r="1.5"/>
</g>
<path fill="#3E3E3D" d="M51.804,55.339l-5.068-8.877c-0.162-0.275-0.457-0.443-0.776-0.443H18.039c-0.319,0-0.614,0.168-0.776,0.443
	l-5.067,8.877c-0.339,0.573-0.345,1.233-0.015,1.814c0.331,0.578,0.902,0.91,1.567,0.91h36.502c0.665,0,1.236-0.332,1.568-0.911
	C52.149,56.573,52.143,55.912,51.804,55.339z M19.989,56.023c-0.552,0-1-0.448-1-1s0.448-1,1-1s1,0.448,1,1
	C20.989,55.575,20.541,56.023,19.989,56.023z M26.001,53.016c-1.105,0-2-0.895-2-2s0.895-2,2-2s2,0.895,2,2
	C28.001,52.121,27.106,53.016,26.001,53.016z M28.46,56.013c-0.276,0-0.5-0.224-0.5-0.5s0.224-0.5,0.5-0.5s0.5,0.224,0.5,0.5
	S28.736,56.013,28.46,56.013z M36.006,56.048c-1.105,0-2-0.895-2-2s0.895-2,2-2c1.105,0,2,0.895,2,2
	C38.006,55.153,37.111,56.048,36.006,56.048z M43.009,53.038c-0.552,0-1-0.448-1-1s0.448-1,1-1s1,0.448,1,1
	S43.561,53.038,43.009,53.038z"/>
</svg>
