<?xml version="1.0" encoding="utf-8"?>
<!-- Generator: Adobe Illustrator 17.0.0, SVG Export Plug-In . SVG Version: 6.00 Build 0)  -->
<!DOCTYPE svg PUBLIC "-//W3C//DTD SVG 1.1//EN" "http://www.w3.org/Graphics/SVG/1.1/DTD/svg11.dtd" [
	<!ENTITY ns_extend "http://ns.adobe.com/Extensibility/1.0/">
	<!ENTITY ns_ai "http://ns.adobe.com/AdobeIllustrator/10.0/">
	<!ENTITY ns_graphs "http://ns.adobe.com/Graphs/1.0/">
	<!ENTITY ns_vars "http://ns.adobe.com/Variables/1.0/">
	<!ENTITY ns_imrep "http://ns.adobe.com/ImageReplacement/1.0/">
	<!ENTITY ns_sfw "http://ns.adobe.com/SaveForWeb/1.0/">
	<!ENTITY ns_custom "http://ns.adobe.com/GenericCustomNamespace/1.0/">
	<!ENTITY ns_adobe_xpath "http://ns.adobe.com/XPath/1.0/">
]>
<svg version="1.1" id="Layer_1" xmlns:x="&ns_extend;" xmlns:i="&ns_ai;" xmlns:graph="&ns_graphs;"
	 xmlns="http://www.w3.org/2000/svg" xmlns:xlink="http://www.w3.org/1999/xlink" x="0px" y="0px" width="512px" height="512px"
	 viewBox="23.736 5.221 512 512" enable-background="new 23.736 5.221 512 512" xml:space="preserve">
<metadata>
	<sfw  xmlns="&ns_sfw;">
		<slices></slices>
		<sliceSourceBounds  height="477.661" width="512" x="223.5" y="41.669" bottomLeftOrigin="true"></sliceSourceBounds>
	</sfw>
</metadata>
<g>
	<g>
		<path fill="#4EFFBB" d="M517.379,397.864l-29.039,7.649l-12.622-12.628l12.54-3.305c7.809-2.055,12.474-10.055,10.421-17.864
			c-2.055-7.809-10.085-12.468-17.864-10.413l-29.039,7.649L152.799,69.974l19.459,4.337c7.884,1.748,15.692-3.21,17.455-11.093
			c1.755-7.884-3.21-15.7-11.093-17.455l-68.005-15.159c-4.877-1.096-9.982,0.394-13.52,3.934
			c-3.532,3.532-5.016,8.629-3.926,13.514l15.159,68.219c1.513,6.822,7.554,11.45,14.259,11.45c1.052,0,2.12-0.116,3.189-0.351
			c7.884-1.748,12.856-9.565,11.099-17.446l-4.146-18.67l298.62,298.62l-8.278,28.745c-2.238,7.765,2.245,15.868,10.011,18.105
			c1.354,0.394,2.714,0.577,4.051,0.577c6.355,0,12.197-4.176,14.048-10.58l3.802-13.213l12.929,12.929l-8.278,28.746
			c-2.238,7.765,2.245,15.868,10.011,18.105c1.354,0.394,2.714,0.577,4.051,0.577c6.355,0,12.197-4.176,14.048-10.58l3.802-13.213
			l5.184,5.184c2.853,2.859,6.597,4.285,10.34,4.285s7.489-1.426,10.34-4.285c5.711-5.712,5.711-14.968,0-20.679l-5.118-5.118
			l12.54-3.305c7.809-2.055,12.474-10.055,10.421-17.864C533.189,400.468,525.175,395.817,517.379,397.864z"/>
		<path fill="#4EFFBB" d="M197.202,389.873l106.902-106.902c-6.896-6.896-13.784-13.784-20.679-20.679l-106.66,106.66l-29.03-7.649
			c-7.78-2.055-15.811,2.596-17.864,10.413c-2.055,7.809,2.604,15.811,10.421,17.864l12.549,3.305l-12.628,12.628l-29.03-7.649
			c-7.788-2.047-15.811,2.596-17.864,10.413c-2.055,7.809,2.604,15.811,10.421,17.864l12.549,3.305l-5.118,5.118
			c-5.712,5.712-5.712,14.97,0,20.679c2.853,2.859,6.597,4.285,10.34,4.285c3.743,0,7.489-1.426,10.34-4.285l5.184-5.184
			l3.802,13.213c1.844,6.405,7.693,10.58,14.048,10.58c1.339,0,2.705-0.183,4.051-0.577c7.765-2.238,12.241-10.34,10.011-18.105
			l-8.278-28.746l12.929-12.929l3.802,13.213c1.844,6.405,7.693,10.58,14.048,10.58c1.339,0,2.705-0.183,4.051-0.577
			c7.765-2.238,12.241-10.34,10.011-18.105L197.202,389.873z"/>
		<path fill="#4EFFBB" d="M456.283,74.309l19.459-4.337L325.353,220.36c6.896,6.896,13.79,13.784,20.679,20.679L495.815,91.258
			l-4.146,18.67c-1.755,7.884,3.218,15.692,11.099,17.446c1.067,0.235,2.143,0.351,3.189,0.351c6.706,0,12.746-4.636,14.259-11.45
			l15.159-68.219c1.082-4.885-0.403-9.982-3.941-13.52c-3.532-3.54-8.635-5.03-13.52-3.934l-68.005,15.159
			c-7.884,1.755-12.848,9.572-11.093,17.455C440.591,71.099,448.408,76.057,456.283,74.309z"/>
		<g>
			<path fill="#222051" d="M449.133,397.864l-29.03,7.649l-12.628-12.628l12.549-3.305c7.809-2.055,12.474-10.055,10.421-17.864
				c-2.055-7.809-10.085-12.468-17.864-10.413l-29.03,7.649L84.557,69.974l19.459,4.337c7.884,1.748,15.692-3.21,17.455-11.093
				c1.755-7.884-3.21-15.7-11.093-17.455L42.369,30.603c-4.877-1.096-9.982,0.394-13.514,3.926c-3.54,3.54-5.025,8.635-3.941,13.52
				l15.159,68.219c1.513,6.822,7.554,11.45,14.259,11.45c1.047,0,2.12-0.116,3.189-0.351c7.884-1.748,12.856-9.565,11.099-17.446
				l-4.146-18.67l298.62,298.62l-8.278,28.746c-2.238,7.765,2.245,15.868,10.011,18.105c1.354,0.394,2.714,0.577,4.051,0.577
				c6.355,0,12.204-4.176,14.048-10.58l3.802-13.213l12.929,12.929l-8.278,28.746c-2.238,7.765,2.245,15.868,10.011,18.105
				c1.354,0.394,2.714,0.577,4.051,0.577c6.355,0,12.204-4.176,14.048-10.58l3.802-13.213l5.184,5.184
				c2.853,2.859,6.597,4.285,10.34,4.285c3.743,0,7.487-1.426,10.34-4.285c5.712-5.712,5.712-14.968,0-20.679l-5.126-5.118
				l12.549-3.305c7.809-2.055,12.474-10.055,10.421-17.864C464.941,400.468,456.921,395.817,449.133,397.864z"/>
			<path fill="#222051" d="M128.955,389.873l106.902-106.902c-6.896-6.896-13.784-13.784-20.679-20.679l-106.66,106.66l-29.03-7.649
				c-7.78-2.055-15.811,2.596-17.864,10.413c-2.055,7.809,2.604,15.811,10.421,17.864l12.549,3.305l-12.628,12.628l-29.03-7.649
				c-7.788-2.047-15.811,2.596-17.864,10.413c-2.055,7.809,2.604,15.811,10.421,17.864l12.549,3.305l-5.126,5.118
				c-5.712,5.712-5.712,14.97,0,20.679c2.853,2.859,6.597,4.285,10.34,4.285s7.489-1.426,10.34-4.285l5.184-5.184l3.802,13.213
				c1.85,6.405,7.693,10.58,14.048,10.58c1.339,0,2.705-0.183,4.051-0.577c7.765-2.238,12.241-10.34,10.011-18.105l-8.278-28.746
				l12.929-12.929l3.802,13.213c1.85,6.405,7.693,10.58,14.048,10.58c1.339,0,2.705-0.183,4.051-0.577
				c7.765-2.238,12.241-10.34,10.011-18.105L128.955,389.873z"/>
			<path fill="#222051" d="M330.789,146.677l-73.683,73.678c6.896,6.896,13.784,13.784,20.679,20.679l73.681-73.678
				c5.651-5.651,5.637-14.793-0.008-20.444c-0.067-0.067-0.139-0.139-0.206-0.206C345.603,141.046,336.448,141.025,330.789,146.677z
				"/>
			<path fill="#222051" d="M463.193,34.53c-3.532-3.54-8.635-5.03-13.52-3.934L382.47,45.572
				c-7.466,1.668-13.068,8.556-12.154,16.154c1.052,8.73,9.345,14.434,17.711,12.578l19.459-4.337l-34.412,34.405
				c-5.651,5.651-5.651,14.822,0,20.476c0.067,0.067,0.139,0.139,0.206,0.206c5.651,5.651,14.822,5.651,20.476,0l33.806-33.806
				l-4.016,18.075c-1.601,7.211,2.026,14.917,8.957,17.446c1.74,0.635,3.496,0.936,5.199,0.936c6.706,0,12.746-4.636,14.259-11.451
				l15.159-68.219C468.218,43.166,466.733,38.068,463.193,34.53z"/>
			<polygon fill="#222051" points="237.678,45.615 237.933,45.528 260.77,84.774 275.212,84.774 275.212,22.39 260.77,22.39 
				260.77,61.505 260.514,61.594 237.678,22.39 223.192,22.39 223.192,84.774 237.678,84.774 			"/>
			<path fill="#222051" d="M247.87,462.004c-4.256-1.659-7.159-3.035-8.716-4.132c-1.557-1.096-2.333-2.566-2.333-4.395
				c0-1.887,0.76-3.473,2.274-4.752c1.513-1.287,3.584-1.931,6.216-1.931c3.225,0,5.637,0.665,7.24,1.99
				c1.601,1.331,2.398,3.465,2.398,6.405h14.054l0.087-0.255c0.145-6.054-1.96-10.748-6.295-14.077
				c-4.344-3.328-10.07-4.996-17.185-4.996c-6.742,0-12.3,1.616-16.666,4.842c-4.373,3.225-6.553,7.458-6.553,12.679
				c0,5.338,1.879,9.433,5.631,12.277c3.758,2.844,9.507,5.52,17.243,8.037c3.824,1.345,6.471,2.604,7.927,3.795
				c1.456,1.186,2.186,2.896,2.186,5.118c0,1.946-0.745,3.511-2.23,4.717c-1.485,1.2-3.743,1.798-6.77,1.798
				c-3.685,0-6.42-0.76-8.206-2.288c-1.784-1.528-2.676-4.109-2.676-7.736h-14.106l-0.087,0.255
				c-0.145,7.144,2.238,12.372,7.136,15.7c4.9,3.328,10.874,4.996,17.93,4.996c7.087,0,12.767-1.551,17.052-4.651
				c4.285-3.1,6.428-7.394,6.428-12.877c0-5.367-1.858-9.601-5.573-12.679C260.573,466.756,255.102,464.144,247.87,462.004z"/>
			<polygon fill="#222051" points="466.382,232.187 466.382,221.05 425.505,221.05 425.505,283.432 466.339,283.432 
				466.339,272.295 439.984,272.295 439.984,256.742 461.966,256.742 461.966,245.597 439.984,245.597 439.984,232.187 			"/>
			<polygon fill="#222051" points="51.713,283.432 62.125,244.91 62.382,244.91 72.882,283.432 86.507,283.432 100.816,221.05 
				86.162,221.05 78.623,261.495 78.368,261.495 67.742,221.05 56.81,221.05 46.23,261.582 45.972,261.539 38.434,221.05 
				23.736,221.05 38.091,283.432 			"/>
		</g>
	</g>
</g>
</svg>
