<?xml version="1.0" encoding="utf-8"?>
<!-- Generator: Adobe Illustrator 17.0.0, SVG Export Plug-In . SVG Version: 6.00 Build 0)  -->
<!DOCTYPE svg PUBLIC "-//W3C//DTD SVG 1.1//EN" "http://www.w3.org/Graphics/SVG/1.1/DTD/svg11.dtd" [
	<!ENTITY ns_flows "http://ns.adobe.com/Flows/1.0/">
	<!ENTITY ns_extend "http://ns.adobe.com/Extensibility/1.0/">
	<!ENTITY ns_ai "http://ns.adobe.com/AdobeIllustrator/10.0/">
	<!ENTITY ns_graphs "http://ns.adobe.com/Graphs/1.0/">
	<!ENTITY ns_vars "http://ns.adobe.com/Variables/1.0/">
	<!ENTITY ns_imrep "http://ns.adobe.com/ImageReplacement/1.0/">
	<!ENTITY ns_sfw "http://ns.adobe.com/SaveForWeb/1.0/">
	<!ENTITY ns_custom "http://ns.adobe.com/GenericCustomNamespace/1.0/">
	<!ENTITY ns_adobe_xpath "http://ns.adobe.com/XPath/1.0/">
]>
<svg version="1.1" id="Capa_1" xmlns:x="&ns_extend;" xmlns:i="&ns_ai;" xmlns:graph="&ns_graphs;"
	 xmlns="http://www.w3.org/2000/svg" xmlns:xlink="http://www.w3.org/1999/xlink" xmlns:a="http://ns.adobe.com/AdobeSVGViewerExtensions/3.0/"
	 x="0px" y="0px" width="800px" height="600px" viewBox="0 0 800 600" enable-background="new 0 0 800 600" xml:space="preserve">
<metadata><?xpacket begin="﻿" id="W5M0MpCehiHzreSzNTczkc9d"?>
<x:xmpmeta xmlns:x="adobe:ns:meta/" x:xmptk="Adobe XMP Core 5.5-c014 79.151739, 2013/04/03-12:12:15        ">
   <rdf:RDF xmlns:rdf="http://www.w3.org/1999/02/22-rdf-syntax-ns#">
      <rdf:Description rdf:about=""
            xmlns:dc="http://purl.org/dc/elements/1.1/"
            xmlns:xmp="http://ns.adobe.com/xap/1.0/"
            xmlns:xmpGImg="http://ns.adobe.com/xap/1.0/g/img/"
            xmlns:xmpMM="http://ns.adobe.com/xap/1.0/mm/"
            xmlns:stRef="http://ns.adobe.com/xap/1.0/sType/ResourceRef#"
            xmlns:stEvt="http://ns.adobe.com/xap/1.0/sType/ResourceEvent#"
            xmlns:illustrator="http://ns.adobe.com/illustrator/1.0/"
            xmlns:xmpTPg="http://ns.adobe.com/xap/1.0/t/pg/"
            xmlns:stDim="http://ns.adobe.com/xap/1.0/sType/Dimensions#"
            xmlns:xmpG="http://ns.adobe.com/xap/1.0/g/"
            xmlns:pdf="http://ns.adobe.com/pdf/1.3/">
         <dc:format>image/svg+xml</dc:format>
         <dc:title>
            <rdf:Alt>
               <rdf:li xml:lang="x-default">LANDINGPAGE---IMAGENESIDEAS</rdf:li>
            </rdf:Alt>
         </dc:title>
         <xmp:CreatorTool>Adobe Illustrator CC (Windows)</xmp:CreatorTool>
         <xmp:CreateDate>2017-08-15T21:50:16-05:00</xmp:CreateDate>
         <xmp:ModifyDate>2017-08-15T21:50:16-05:00</xmp:ModifyDate>
         <xmp:MetadataDate>2017-08-15T21:50:16-05:00</xmp:MetadataDate>
         <xmp:Thumbnails>
            <rdf:Alt>
               <rdf:li rdf:parseType="Resource">
                  <xmpGImg:width>256</xmpGImg:width>
                  <xmpGImg:height>180</xmpGImg:height>
                  <xmpGImg:format>JPEG</xmpGImg:format>
                  <xmpGImg:image>/9j/4AAQSkZJRgABAgEBLAEsAAD/7QAsUGhvdG9zaG9wIDMuMAA4QklNA+0AAAAAABABLAAAAAEA&#xA;AQEsAAAAAQAB/+4ADkFkb2JlAGTAAAAAAf/bAIQABgQEBAUEBgUFBgkGBQYJCwgGBggLDAoKCwoK&#xA;DBAMDAwMDAwQDA4PEA8ODBMTFBQTExwbGxscHx8fHx8fHx8fHwEHBwcNDA0YEBAYGhURFRofHx8f&#xA;Hx8fHx8fHx8fHx8fHx8fHx8fHx8fHx8fHx8fHx8fHx8fHx8fHx8fHx8fHx8f/8AAEQgAtAEAAwER&#xA;AAIRAQMRAf/EAaIAAAAHAQEBAQEAAAAAAAAAAAQFAwIGAQAHCAkKCwEAAgIDAQEBAQEAAAAAAAAA&#xA;AQACAwQFBgcICQoLEAACAQMDAgQCBgcDBAIGAnMBAgMRBAAFIRIxQVEGE2EicYEUMpGhBxWxQiPB&#xA;UtHhMxZi8CRygvElQzRTkqKyY3PCNUQnk6OzNhdUZHTD0uIIJoMJChgZhJRFRqS0VtNVKBry4/PE&#xA;1OT0ZXWFlaW1xdXl9WZ2hpamtsbW5vY3R1dnd4eXp7fH1+f3OEhYaHiImKi4yNjo+Ck5SVlpeYmZ&#xA;qbnJ2en5KjpKWmp6ipqqusra6voRAAICAQIDBQUEBQYECAMDbQEAAhEDBCESMUEFURNhIgZxgZEy&#xA;obHwFMHR4SNCFVJicvEzJDRDghaSUyWiY7LCB3PSNeJEgxdUkwgJChgZJjZFGidkdFU38qOzwygp&#xA;0+PzhJSktMTU5PRldYWVpbXF1eX1RlZmdoaWprbG1ub2R1dnd4eXp7fH1+f3OEhYaHiImKi4yNjo&#xA;+DlJWWl5iZmpucnZ6fkqOkpaanqKmqq6ytrq+v/aAAwDAQACEQMRAD8A9U4q7FXYq7FXYq7FXYq7&#xA;FXYq7FXYq7FXYql9xodlPrVrrDmT63ZxyQwgSMI+MtOXJAeJO3+dBQ8W1IpMMCXYq7FWNebdb1Cz&#xA;v9J0yyuYLB9TabnqFynqJGIEDcApZAXcttVuxycIg2WJKI8ma3d6vpMk12Ynmt7ma1Nzb19GcQtx&#xA;EsdSfhb59cZxopBT3IJdirsVYfD+YFzfz3I0XQbzUrS2kMJvFaKKN3U0PD1GHIZb4dcyx4lb/Fnm&#xA;b/qU7z/kfbf814OAd62e53+LPM3/AFKd5/yPtv8AmvHgHetnud/izzN/1Kd5/wAj7b/mvHgHetnu&#xA;QWs/mHrOkWD3175YuobeMqrSPPBQFmCj7Bc9/DDHGCeaDKujJ9A1/TNe0yLUtNl9S3k2IOzo4+0j&#xA;r+yy/wBo2yEokGiyBtMMil2KuxV2KuxV2KuxV2KuxV2KuxV2KuxVqSRI0aSRgkaAs7saAAbkknFW&#xA;C3H5pLdXr2fljR7jXWiJV7hGEMFR14yMGr9wy4YdrJphx9yyP805rG6WDzPoVzoyMQv1oN9YiUnu&#xA;5VVKj5VwnBtYNrx97Ore4guYI57eRZYJVDxyoQyspFQQR1GUM13qR+p6fIepTlwqOVOlaYqlun+Z&#xA;tG1HUJ7Cymea4tuXrERSiNSjBSPVZRGTU9myRiQLQC6z1yS61Oax/Rd7AkJYfXZo0S3fjQfA3Mua&#xA;12+HEx25rbcOtTSas2nnS72NFLAX7rF9WIArUMJC+/QfDjw7Xa2hdRv9A1HUf8P6nYSXDMQY/rFo&#xA;72zMFL1WUqY9hXevXbCAQLC2OSYWlxotvKNJtJbaGW3UAWETRq0akch+6XdRQ16ZEg81RuBLsVdi&#xA;rD/yo/5Q2H/mIuv+T75bm+pjDkzDKmTsVdirD/zX28mXDHYLPbFj2A9dOuW4fqYz5IbWtD1DyzqU&#xA;vmby1D61tN8WtaMnSVRuZoQOki1JoOv34YyEhRQRW4ZXomt6bremxajp0oltpRsejKw6o47MO4yq&#xA;USDRZA2jsCXYq7FXYq7FXYq7FXYq7FXYq7FXYqwL82b65e10vy/BIYv03OyXMi9fq8IDSKPnyH6s&#xA;vwRs2wmU18kxafZQNYwIsPEKIkG1VUGtPE9zk9QDsiDfnD6nciO1dVlNGEyEAji1PhbHTg7rNjf5&#xA;VyX1lrWseXmumfTbBVmsbZgDxWc8j8f2vh6U71JwaiI5rAs50zy3oemXU93Y2aRXdyWM9wavK3Ju&#xA;RBdyzUr2rTKDIlmAmWRS7FXYq7FUJNo+kz3sV9NZwSXsJrFdNGplXamz05YeI8kUhZNJ1P8ATa6h&#xA;b6rKlo1Bc6bIiSQsAvEemaK8ZruTU1w2Kqlpsa8F139ET2VzEZBytbzhyt5QE5MPUUngy0Oz09u2&#xA;PDta2k3nrzFqFu1r5e0P4tf1aqwv2gh6PO3hQA0+RPamSxxHM8giR6KX5Rp6fki2jry4TXC18aTM&#xA;MOb6lhyZllTJ2KuxVQv7Cz1Czlsr2JZ7WdeEsT9CP8+hwg0rHF/LPyuqhUF2qqKKovLgAAdAPjyf&#xA;iljwhhvlrU7Pyf5/1bR1iaPQry4gtknZmYQ3Bi5pyZidpObVr+oZbIcUQerEGi9czGbHYq7FXYq7&#xA;FXYq7FXYq7FXYqpW15aXSs1tPHOqMUdo2VwGHVTxJ3HhhIVVwK89/N+JrWLRfMAoU0u6KTJUAmO5&#xA;AVitepHDMjTnemE2YeXVtTpFrcW1GS5jWUSj9oOOQNfkcryyJkUxGzvMMdt+iriafiogQyeq1BxC&#xA;7k1PQeOHCSJLLkwz8q4JL/U9b8y8StndtHa2JIpzSAUd9+xNPxyeol0YwD0XMdsdirsVdirsVdiq&#xA;R6x518t6Peizv7v05+IeQLHJII1bZWlZFYID/lZMQJQZBOhLEYhKHUxFeYkBHHjSta9KUyCWCflt&#xA;ZrqV/q/nGUEtqVxJDp/MluFrG9Ni3Tkw3H+Tl2U0BFhHvR35Uf8AKGw/8xF1/wAn3wZvqTDky/Km&#xA;TsVdirsVdirzgeX4df1Lz7pkgHOWW1Nu5/YmWAmNq/63X2y/ioRLCrtkn5e69LrXlW0uLkn67Byt&#xA;b0H7XqwniS3uy0Y/PK8kaKYmwyPIMnYq7FXYq7FXYq7FXYqpXlst1aT2zMyLPG0bOhowDqVqp7Hf&#xA;bCCrGvInkRPKiXoF79ca89EbQrAqrArKvwqzVY8vibvk8mTiYxjSea3rNno+my391yKR0CRoOTyS&#xA;MaJGijqzNsMhGNmkk0hpdD0vWWsdS1Sx5XMcPwWlweaRGZRzVo6mMuPs1ph4iNgtWkqeSNa0hmHl&#xA;bWmsbJiWGl3cYubdSSTSNmIeNa9hk+MHmEcPctm8l+YtZAi8za8Z9PJBk02xiFtHJTtJJUyMp8Me&#xA;MDkFo9WXWlpbWdtFa2sSw28KhIokFFVR0AGVE2yVcVdiqhfahY2Fu1zfXEVrbqQGmmdY0BPQcmIG&#xA;+EAlUsh87eT5m4x61ZFuwM8a1+VSMlwS7kcQTeGeGeMSQyLLG32XQhlP0jIJX4qxDWfK/mNtS1ab&#xA;R7mzW116NI78XcbtJEUi9DlDw2eqfsvtXLBIUL6MSCivMiLof5e3tvbsxFlpxtoZD9r4YvSVj798&#xA;Y7yU7BFeSLJLPyho9uoApaRO1OnKRA7/APDMcGQ3IpjySv8AKj/lDYf+Yi6/5Pvks31IhyZflTJ2&#xA;KuxV2KuxViHlH/lMvOP/ADEWn/JjLZ/SGI5lQ8iKbXzR5x01door2K7UdgbtGdv+IjHJyBRHmWbZ&#xA;UzdirsVdirsVdirsVdirsVdiqVaDeavfx3NzqNotnCZiLC2YH1hEmweapIDOwqAOgpkpADkgJrkU&#xA;uxV2KuxVLdf8w6dodl9avWJLtwt4IxyllkPRI17k/wC3koxMjQQTTBby98ya4xfUbl9Osm+xplm5&#xA;VuJ/3/OtHY+IWgzMhhAazIlUitoI7aO1Vf8AR4gBHG1WAA3/AGq5bTFp7O0deLwRsp7MqkfiMVQi&#xA;6FZwSmfTmk0y56+tZuYq/wCsg+Bh7MuAxB5qm+m+eNT0p1g8yBbiyJ4rrECceHh9YiFaf66be2Y0&#xA;8HczE+9ncckckayRsHjcBkdSCCCKggjqDmM2JD+YMLzeSdaROotZHPyQcz+C5PH9QYy5IvylMk/l&#xA;bR5U+y9lbn/kktR9GCfMpHJJfyo/5Q2H/mIuv+T75PN9SIcmX5UydirsVdirsVYh5R/5TLzj/wAx&#xA;Fp/yYy2f0hiOZUvJ0jT+d/OlyN4zPZwA/wCVBE6MPoxn9IWPMs0ypk7FXYqlut6lJaRIkW0slaN1&#xA;oBl+HHxHd1+v1RxACP1Fjpvr1jUzyE/6xzL4I9zojqMh/iPza+uXf+/n/wCCOHgHcvjz/nH5u+uX&#xA;f+/n/wCCOPAO5fHn/OPzd9cu/wDfz/8ABHHgHcvjz/nH5u+uXf8Av5/+COPAO5fHn/OPzQN5da/J&#xA;qFmtvcNFZIWku5OVWagokYB/mJqT7YOAdzZDUERNk303R31y7/38/wDwRw8A7mvx5/zj83fXLv8A&#xA;38//AARx4B3L48/5x+bvrl3/AL+f/gjjwDuXx5/zj83fXLv/AH8//BHHgHcvjz/nH5qdzqsttbyX&#xA;E9y6QwqXkYsdlUVOPAO5McuQmgT82P6bHd6hcDW9T5NcyKRZQua/V4G6Af5bjdj9GAAB6DDj4Y0T&#xA;ZTbC2uxV2KuxVp0V1KOAysCGUioIPUEYqlWn3d3oGoRacJ3Gj3jFbEFj+4mO/o9fsP8As++2DhHc&#xA;4GuxyriiTsyG4lnuIJIJZXaKVWSRSx3VhQj7sPAO51A1GT+cWvyl1FzoU+h3Df6bok727qepiZi0&#xA;b/I7gfLMLPGpW9RgyCUQQivyo/5Q2H/mIuv+T74M31M4cmX5UydirsVdirsVYLo2pW2meYPPeoXJ&#xA;pBavbyyeJC25NB7noMukLEQwB5ov8rrC5h8tHUbsUvNauJdRm8f3x+H71HL6cGU713JhyZflTJ2K&#xA;uxVJvMVlLKkc8alvTqHA60O9fozJ08wNi6rtPAZASHRjuZjonYq7FXYq41pt17YqgtGt7+CwUX8v&#xA;q3js8kxBJVS7FuCV/ZUbDFsyyiZenkjcWt2KuxV2KpH5h/0y7sNI6xTubi7HjDBQhT7NIVGAux7O&#xA;xXIy7kzZlVSzEKqipJ2AAwO6QEWrTXEYms9L1C7tm/u7mG2cxuPFGPGo98iZgdU0v+val/1YtU/6&#xA;Rj/XB4ke9aLvr2pf9WLVP+kY/wBcfEj3rRVNPv472F5EjkiaOR4ZYpV4OkkbcWVhvQg5MFCJxVAa&#xA;5Ym+0q4gTabjzgYdRKnxIR/sgMUEWEZpN8L/AEy1vBQG4iSRgOzEbj6DknmMsOGRHclzyT6R560a&#xA;/sN5NWkFjfW3aSKorL84xQ/R88pzRBi7XsvKd49Ayj8qP+UNh/5iLr/k++Yub6ncQ5Mvypk7FXYq&#xA;7FXYq8ffTb3zN5917Rrdx+gnu7e41idDXktvGFWEMO7PX7q9syb4Yg9WqrL1+NEjRY0UKiAKqgUA&#xA;A2AAzGbW8VdirsVdiqk1raseTQoxPUlQT+rJcR72s4YHmB8mvqdn/viP/gF/pjxnvR4GP+aPkh/U&#xA;0X69+j62/wBe9P1vq3wep6dac+PWlcPFLnuvgY/5o+SI+pWZ/wB0R/8AAL/TBxy718DH/NHyYx5z&#xA;0KaSKzm09xbRpdRvehSV5RJVuK08WAB9sycGQk0XXa3T48YMwPL59UDmU6NbLLFDE8sriOJAWd2N&#xA;AAOpJOKgEmghdO1jS9SDmxuY7j06cwhqRXpUYGc8UofUKRmFg7FUjm/5S8e2n7fTPgLuezfoPvb8&#xA;zEjy9qJBofq8n4qcDsnp9giJY2yIoVFiRVUbAAKAAM1p5t6vgV2KvNtet20LzJcmf4dM1iT6xbXB&#xA;+wlyVAlic9i/Hmteu+ZuCdimqQ3VsuYuxVLvJ/8Ayjln7CQD5CRsIed1n96UJa65oVv+YLX2r3kd&#xA;vaaJakQhqszXE/Xgigs1Ebeg2ynMCRQdp2bDhhZ6teSvzBm0vy5FZ2mh3mo+nNNJNOg4R8JJWf4D&#xA;RubBW+zQZCeEyNuYdTCGxL0Xy9508ua+g/R92v1inx2ctI51I6gxnfbxFR75jygY828SBTvIMnYq&#xA;hNT1fTNLtjc6jdRWsA/blYLWnYV3J9hhAJ5IJYTc+YvMPnItY+VY5NP0ZjxufME6lCy1oy2yGhJ2&#xA;69f9XLRER58+5jZPJl3l3y7pfl/TI9O06MpCp5O7bvI5+07ttVjT+HTK5SMjZZAUmeRS7FXYqo3F&#xA;5a24BmkCV6A9T9A3yUYE8mrLnhj+o0h/03pf+/x/wLf0yfgy7mj8/h/nfe79N6X/AL/H/At/THwZ&#xA;dy/n8P8AO+936b0v/f4/4Fv6Y+DLuX8/h/nfel/peU/01+m+Ef6U9L0frXF+XD7qVptXrTbph8Od&#xA;Uv57D/O+9MP03pf+/wD/AIVv6YPBn3L+fw/zvvYtq1xd3XmGS4ScnTFto4YoKsAZebM8hQ7VpxAO&#xA;ZOHHwjfm6zX6yOQcMeSnl7rEt8xabNqWkTWsJUSsUdFk+wxjcPwen7LcaYC24MghMEoPTbLVJ9cO&#xA;q3lrHYLHbfVkhSQSM9WDcmZQBxWlFGLZknEQ4QeLe0+wuM7FUjl/5S8f9s//AJn4C7rs36D70QNL&#xA;k8way+gNcm0svqhuLtkCmaVWf0/TjLgqtOrNQ9sqyz4Q7IC3p0aLHGqL9lAFHyG2YDc3irsVUb2y&#xA;s761ktbyFLi2lHGSGQBlYe4OEGlYtL+WunoG/RupX1gKH0oVkWaFD2+CZXantyy4Z5MOAMe0a7mu&#xA;9Ojmm4mXlJG7J9hjFI0ZZfZuNRmYC1qfk/8A5Ryz/wCen/J1sIed1n96USPL+i/XXvTZxNdSHk0r&#xA;ryNfEcq0+jFr8edcN7Jhhakr1Tyzompv6l1bL9YG63EZMcgI6HktK07VwU3YtROHIqEWi+YbQBdN&#xA;8zX8Ma9I5yLkD5cqADIHFE9HNj2pMcwukt/MtY/0p5vuo7VmWMtDHHA/J2AUBlPUnbInEByDdj7T&#xA;MjRGyc6f5L8g29wLu8ebV7sGon1F5Jz8ivFUP0qcpIyd1OWNbg/nfeyxNY0lEVElCooAVQrAADYA&#xA;ADK/Bn3Mvz+H+d97f6b0v/f4/wCBb+mPgy7l/P4f533u/Tel/wC/x/wLf0x8GXcv5/D/ADvvd+m9&#xA;L/3+P+Bb+mPgy7l/P4f533oi3vLW4BMMgenUDqPoO+QlAjm34s8Mn0m2H3NxJcTvLIasxr8vYZsY&#xA;xAFPLZchnIyPVSyTW7FXYq7FUjvvOWj210bOD1dQvB1t7NDMwptvSg/HAZAOVi0WSe9V70utvNF/&#xA;YSXk+taVqlrbTTF4JJrZxHFEEVeJ5UpuCTTIiYPVysvZ86FVsGR6dqmn6lbi4sZ1ni6EqdwfBgdw&#xA;fnk3XZMcoGpCkViwdirsVdiqRy/8peP+2f8A8z8Bd12b9B96n5ptoTpFxeAFbuzieS1uEYpJG4HV&#xA;XUgjAQ7F6taszWsLMasUUknuSBmsLeq4q7FXYqw/8zS7abpVuJJEiudSjhuBG7Rl4zDMShKFTQlR&#xA;l+AXJhPklFvbw28KQQII4YwFRFFAAMzGtBeT/wDlHLP/AJ6f8nWwh53Wf3pTnC4zsVdirsVQer2l&#xA;pdWLR3UnowoyStLyC8TE4cHk2w3XFsxSMZbc0Zi1uxV2KuxV2KqttcSW86SxmjKa/P2ORlEEU2Ys&#xA;hhISHRMtR0K5jmZ7ZfUiY1CjqvtTKcecEbufqezpiVwFxQX6L1H/AJZ3+7LPFj3uJ+Uy/wA0u/Re&#xA;o/8ALO/3Y+LHvX8pl/mlTls7uFeUsLov8xU0+/JCYPIsJ4Jx3IIY3qg1DXNcg8q6ZKYDLGZ9Uu13&#xA;MVvWlB/lNWn0jI5J8Ic7s/SiR4izE6fpnlTTIbDRbdLcyfbmoDI3GlWdj9pj75jY48Zsu8ka5LNM&#xA;1y9F1HHO/rRSsEZWpty2qMtyYRWzGMiknnrycNK9TzX5bjW3urYF9SsUHGK4hG7txGwZRuafPr1q&#xA;w5TdFr1GnjkjRX6ffQX9jBeQGsM6B0r1Fex9x0zNeYnAxkQeiIxYuxV2KpHL/wApeP8Atn/8z8Bd&#xA;12b9B96Ou7ZLq0mtpPsTxtG3ycEH9eB2LKfImqNqHlq1Ex/0yzH1O9XuJYPgJP8ArCjfTmBkjUm2&#xA;J2TfUb02dsZ/TMgUgMAaUB74IR4jSSaSuLzSskixpasWchQAw6n6MtOnrqx409zHZsD863q33mTT&#xA;9LjPKPTFa9vPASyKY4EPvxZ2+7MrTx6tcyoZksEu8n/8o5Z/89P+TrYQ87rP70pzhcZ2KuxV2KoT&#xA;V7KG+0y5tJn9KKaMq0m3w/5W/hizxTMZAhG29tM4EcSNKVAB4gk+FTTAZAc1jCUz6RaI/Reo/wDL&#xA;O/3ZDxY97b+Uy/zS79F6j/yzv92Pix71/KZf5pd+i9R/5Z3+7HxY96/lMv8ANLv0XqP/ACzv92Pi&#xA;x71/KZf5pRunaFcyTK9yvpxKalT1b2pleTOANnL03Z0zK5ioskzCd+7FXYq0yqylWAKsKEHoQcQU&#xA;EAiiwP8ALu3i/wAUecJzvMl4lsvLdhFEGCfQf4ZfmkSA06fGIRodGQ+ZH0941ikl43MdWQKOXUdG&#xA;8K4cAl8GydJLpTWSXay3blUjIZQBWpHjTsMyMl1Qa40zMGG4g2pJDKpB7hlOxzAIpveSeQhw0SW3&#xA;Uloba6nihbqCgeoI+/NlHk812gKysjyThITUNX03TghvJ1iMhpGlCzsf8lFBY/QMFtmPDKf0i0L/&#xA;AIn0nxuP+kS6/wCqeDiDf+RzfzfuSqTWbI+YxeBbj6t9T9H1Pq1x9v1eVKenXpgMg7PQ4ZQiRIVu&#xA;j/8AEemf8vH/AEi3P/VPHiDmqFl5rj0bWDqVhHc3FvdcU1KxFtcKXC7LNGWRVEiDahNGH0ZVkiJB&#xA;kDTOP+VheU3SjS3FGHxI1leHr2P7kjMbw5M+IKEHnLyNBJ6kJmR/5hY3tR8v3O2SImea2EPrv5na&#xA;XbWLHSIbi+vn+GJWtbmONCf25C8aniPBak4I4je6mTEdN1XT7aOR55Lm4vblzNeXJtLkGSVup/u9&#xA;lHRR2GZgIDUjP8R6Z/y8f9Itz/1Tw8QVBeW9bsbPRba2uVuI5o+fNPqtwaVkZhusZHQ4eIOm1Oky&#xA;SyEgbJxaa/pN3ci1imIuGHJYpY5IWYDrxEqpy+jCCC4mTTZIC5BDebHuk0oGEyrCZoxetBX1Rbk/&#xA;vClN/u7YlOmA4t+dbX3oPyu8LajeDTJJpdFEcZjaYyMonJbmIml+IjjSvviGeoB4RxVx/oZLhcRB&#xA;6xp41HTLixMnpC4XgZKcqVI7VGLZinwSEu5nmlW8UFhCsYA5IrMR3LCua7LImRel0mMRxiuotF5W&#xA;5LsVdirsVdiqDvdWs7RuEhLSfyIKkfPplkMRlycXPrMeI0efkhf8S2P++5fuX/mrLPy0vJxv5Vx9&#xA;0vs/W7/Etj/vuX7l/wCasfy0vJf5Vx90vs/WpXHmWL0yLeNuZ6M9AB9AJrko6Y9WvL2rGvQDfmwj&#xA;SdVXy358mlvG4aX5jVFa4b7Md3FsvI9g1Tv7+AyeeFjboz7O1HFGjzCb37M19cMxqTI2/wBJy2HI&#xA;OaeahkkIjUPNkfl/ynczcud9LI0GmwDdnmdRSg8FJ5H+0ZjZYXMMxKglPlfSX0rQrWzk3mVS85/4&#xA;sclm+6tMyQ8xqcvHMlNcLS7yjBDJ511OZ0DSwWNssLkVKCSSXmF8OXEVzF1J5O/7L/uz72U615j0&#xA;fRUiOoT+m85IghRHlkcqKnikYZjTuaUzGjEnk7Imko/5WV5Z8Lz/AKQ7n/mjJeEUcQTjRNesNZt5&#xA;J7L1fTjfg3rRPCa0B2EgUnrkZRISDaY5FLsVdirsVdirsVdirEfzJijbTNMlKj1YtTtPTfuvOTi1&#xA;D7qaHLtP9Tj6sfupe4oLM95V2KuxVBatpzX8VvGJPTSK4inkFK8liblx6jqQMWzFk4ST5Fkum68b&#xA;eIQzoXRfsMv2gPDfMfJgs2HP0vaPhx4ZCwjf8S2P++5fuX/mrKvy0vJzP5Vx90vs/W7/ABLY/wC+&#xA;5fuX/mrH8tLyX+VcfdL7P1u/xLY/77l+5f8AmrH8tLyX+VcfdL7P1tjzLYE/YlHvRf8AmrH8tJf5&#xA;Vxd0vx8UxguIZ4xJCwdD3GUSiQaLsMeSMxcTYYZcPI9xI0n2yxLfOubKIobPJ5ZEyJPO1PJMHYq7&#xA;FUNqWmWWpWclneRiWCTqOhBHQg9iMWePIYGxzSJLPzbpI9K29PWbJNollf0blQBspcjg1PE75Gnb&#xA;Yu0Yn6ti1Nqvm88Ei0ERPIQolkuY5EQnuyx1biMLd+dxd6J03y3KL5dU1icXuooKQqo4wQA9o17n&#xA;/KO+NOt1OtOTYbRT7C4TsVX+Tv8AlL9Y/wCYO0/4nNmLqejv+y/7s+9NJgD+Y9pUV46RcFfY/WYR&#xA;lH8Pxdj1ZJlbJ2KuxV2KuxV2KuxV2KuxVin5kf8AHHsf+2nZf8nhl2D6nH1X91L3FL8z3lXYq7FU&#xA;DJp8kmsw37S/uoIHijh3+3IwLPX/AFVpi2CdQMe8o7FrdirsVdirsVTzyw8nOdP910BPzzF1I5O3&#xA;7JkbkOiJ1DQY7mVpon9N23ZSKqT4+2Qx56FFyNT2cMkuKJooP/DNz/v5Pxyz8yO5xf5Jn3h3+Gbn&#xA;/fyfjj+ZHcv8kz7w7/DNz/v5Pxx/MjuX+SZ94d/hm5/38n44/mR3L/JM+8IO+0q5swGko0Z2DruK&#xA;+BrlkMolycTUaOeLc8kBMrtDIsT8JSpEbkVAamxp7HLHGFXuh9JlvJtNt5L6Mw3hWk8e3212JFD0&#xA;NKjFnkERI8J2Re3jha3beOKr/J3/ACmGsf8AMHaf8TmzF1PR3/Zf92femcv/AJMa2/7Y9x/1FQ5R&#xA;/D8XY9WSZWydirsVYrqH5j6FbXctraw3eqSwMUnNjEJERh1UyO0aE/InLY4ZFiZhOtD12z1mzN1b&#xA;JLEFYo8M8ZikVh4qf1jbISgY80g2mGRS7FXYq7FWKfmR/wAcew/7adl/yeGXYPqcfVf3UvcUBt45&#xA;nvKu28cVcSoFSaDAqA0fTWsbeVZZTNcXE0k88tKAs52ABJoAoAxbcuQSO3ICkft44WpWtbWS5mEM&#xA;Qqx8egHicjKQiLLbhwnJLhjzTL/DNz/v5Pxyj8yO52H8kz7w7/DNz/v5Pxx/MjuX+SZ94bHlm4qK&#xA;zIB3IBOP5kdyjsmX84JxYWENnD6ce5O7uepOY05mRsu10+njijQROQch2KsU83+fofLt7FafUZL2&#xA;QwNd3BR0jEcCNwLDn9pq/sjLIY+JiZUye2uI7m2iuIqmKZFkQkUPFhUbfTlZZKmKoHW2jGmy8+9A&#xA;o/yq7ZbhviDh68gYTbEs2DzKBkGqLrETxkSabJEyTIeIMcimquO5DA8SMWwcPB/SR2LW7FV/k7/l&#xA;L9Y/5g7T/ic2Yup6O/7L/uz72VtpFs2tR6wWf6zHbPaKlR6fpySLISRSvKsY75i3tTsqRuBLsVY9&#xA;+YN9c2Pk3VLi1YpN6QjWReqiV1jZh0+yrk5PGLkGMuTFrKzt7K1itbdAkMKhUUe3f5nvmwallxe3&#xA;dlqWjS207xGTUbe3ljViFljnb03Vl6NQNyHgRXIZADEpB3em5r252KuxV2KsU/Mj/jj2P/bTsv8A&#xA;k8MuwfU4+q/upe4pfme8q7FUu1Cyt9UaGL6wDFZ3CyXMCENyZByRHofh3IamLbCZhZrmExxanYql&#xA;2l+YvMhk1W70m3s5LLTDIk0Vy0izzfV95fSZfgT25A1yjMAat3XZ8BA/0jG/g9E02+h1DTrW/hBE&#xA;N3DHPGG68ZVDiv0HMIijTuAiMCuxV2KuxV2KpP5j0Ty5fxR3OsWMV4bU1h9QVIJp8PuD4HbLMfET&#xA;Qac+WOOJlLogH8w3xP7sJGg2VQK0H05lDTxdJPtPKTtQW/4g1L+df+BGHwIsf5Szd/2IW6v7m6IM&#xA;78uP2R0A+gZOMBHk42bUTyfUbUKjwybStkUSRsm68wV5KSGFRSoPY4Eg0g9Kju7Syjtr+4W4nQss&#xA;cxJ5Oin4S1f2uP2sWzIRI3EUiorm3mr6TpJx2biwanzocWsgjmFbyayt5w1jiQaWdoDTsec2Y2p6&#xA;O/7L/u/izjMR2TsVdiqH1CwtdQsbixuk9S2uY2ilTpVWFDv2wg0bUvPm8uec9JpaQ2a61aJ8NvdR&#xA;zRwzcB9kTJKVBYeKnMyOeJ5tRgUy8u+UdXm1WDV9fWOBbMlrDTYn9XjIQV9WZ6cSyg/CF6dcqy5r&#xA;FBlGLN8x2bsVdirsVYp+ZH/HHsP+2nZf8nhl2D6nH1X91L3FAVHhme8qhp9Ss4Lu3tJG/wBJuuXo&#xA;xgEkhBViadAPE4GYgSCa2C3TNMtdOtzBAC3N2lllkPJ3dzVmc7VOKcmQzNlF1Hhha3VHhiqS3fla&#xA;xuLmaUT3NvHdGt5awSlIZiRxbmtK/ENmoRXBTkw1UogbDbkerKIdavoYkhiKJFGoSNAoACqKAD5D&#xA;KvAi2/ylm7/sX/4g1L+df+BGPgRT/KWbv+xtfMOpA1LKw8Cv9MH5eKjtPL5fJO9L1JL6ImnGVKB1&#xA;7b9CMxsuPhLuNJqhmj3Ec0blTluxVLfMEMkunkoK+mwdh7AEH9eXYDUnX9pYzLFt0NsWzPeddirs&#xA;VdiqF1HU7LToRLdScA7BI0ALO7noqKoLMT7YCWzHilM1EIXQtEtvOOs3EmqQSppWkFEjsJkaF5Li&#xA;ROTNKDRgqqRRe9fDrj5stcne6HSeGLl9SL8x+TNBu/MulaJplnHpbmKW8vryzHoy/VoyIvSXhQH1&#xA;Hk3JByqGQgEubOAlsQmflnRdL0fznqtlptuttbCws24LU1YyTVYkkkk06nIykTEWyAosxypk7FXY&#xA;q7FXYq7FXYq7FXYqlOq+bPLWkyiHUdSt7aY7+i7jmB4lRVgMkIE8kEhinnzzX5cvdDsWsdQhu2/S&#xA;Nq4igYSSkRyBmpGtX2HtluGJEt2nUDigQOZCW3nmC8t7KS5XQtUZVBK8rV0U+7HcqvuRmV4ke90g&#xA;7NydaRWmzaXf8dUtTHLM8YhaZDyKgHl6ddiKFvAZNw8glH0lHYWt2KuxV2KuxV2KuxVPfLMMnKaY&#xA;1EZAQe5rX8MxdSeQdx2TjNmXRPsxHdOxV2KoJ9G0x2LNAKnrQso+4EDLRmkOriS0OEm+H72v0Hpf&#xA;++P+Gf8Arj48+9j/ACfh/m/af1u/Qel/74/4Z/64+PPvX+T8P837T+t36D0v/fH/AAz/ANcfHn3r&#xA;/J+H+b9p/WxjULbS9L8/6Vc3irDZS2c0FhNIx9NL0upIq2ys8Wy779MkZylFtxaeGM+kVbItO0UW&#xA;Wr6pfpOWi1RoZTb02SSKP03YNXfmoXt2yoysAN4C+XXvL0UzLLqNok8dUZWmiDqa7qatUbjpjwlb&#xA;DHrLXdDXzxqlw2o2wgextESUzR8GZZJiyhq0JFRXJmJ4Qi90/wD8S+XP+rrZ/wDSRF/zVkOE9ybD&#xA;v8S+XP8Aq62f/SRF/wA1Y8J7lsO/xL5c/wCrrZ/9JEX/ADVjwnuWw7/Evlz/AKutn/0kRf8ANWPC&#xA;e5bDv8S+XP8Aq62f/SRF/wA1Y8J7lsO/xL5c/wCrrZ/9JEX/ADVjwnuWwqLruiNC866hbNBGQsko&#xA;mjKKW6AtWgrTbBwlbXpq+kvavdpewNaRnjJcCVDGp22L14g7jHhKbSLzR5ttk0wW+iX9tPq9/NFZ&#xA;2XpyJJwedgvqFVJ2Ratvtk4w335MSUy0DyxpOiW/C0iDXL73N7J8U8zn7TySH4iSd/DIykSkCkB5&#xA;m8ppcN+mdGRLTzJaAyWtygAE1BvDOBQOrjbfcYYz6HkghO9KvJrzTbW7mt3tZp4kkltpQVeNmFWR&#xA;gd9jkSKLIMS846PY6PdxeareIRxpKkeuQpVVmt5GCeqQtP3kRblXuK1y7FkPJoz4IT+oWmWlaj5F&#xA;1aYwadeQXM4FfSSVuZHiFJBP0YnJkHNoGgwd32n9ab/oPS/98f8ADP8A1yPjz70/yfh/m/af1u/Q&#xA;el/74/4Z/wCuPjz71/k/D/N+0/rd+g9L/wB8f8M/9cfHn3r/ACfh/m/af1u/Qel/74/4Z/64+PPv&#xA;X+T8P837T+t36D0v/fH/AAz/ANcfHn3r/J+H+b9p/W4aHpYP9x/wz/1x8efen+T8P837T+tGpGka&#xA;BEUKi7BRsBlZNuXGIiKHJvAl2KuxV2KrZYo5YnikUPHIpV1PQqRQg4qk+neS/KumyvNY6ZDBJJG0&#xA;MjKDUxv9pdydjTJGZPVFBC/8q28i/wDVmt/uP9cPiS70cIaP5a+RSCDo1vQ+AYfqOPiS714Qnela&#xA;Vp+lWMdhp8It7SHl6cSkkDkxY7kk9TkSSebIBgq6No3l6+vYta8vR6jp1xPJc2Wqx2aXTIspLNDO&#xA;ArSDg32W3BHhl3EZciwql36Y/Kr/AKsUf/cJb/qjg4Z9/wBq2Hfpj8qv+rFH/wBwlv8Aqjjwz7/t&#xA;Ww79MflV/wBWKP8A7hLf9UceGff9q2Hfpj8qv+rFH/3CW/6o48M+/wC1bDv0x+VX/Vij/wC4S3/V&#xA;HHhn3/ath36Y/Kr/AKsUf/cJb/qjjwz7/tWw79MflV/1Yo/+4S3/AFRx4Z9/2rYVV8xflmlvJbJp&#xA;AW3lKtLCNLcIzLXiWX0qEiu2PDPv+1bC2584/l3aaPdQRaUfqdGmey/RzxwyOoqOQMYjrVR8TY8E&#xA;r5/avEEV5M8gaTZpDrd/aQtrdxxuSI41jhtiwqscMS0ReA25UqTvXBPITt0TGLNcqZOxV2KoDXtS&#xA;g0zRb7UJwrRWsLylG6MVFVX/AGR2wxFmkEpbqWgw+Y/L1vJqEK2mrGBJorhKrJa3JQNVH+0Ar9R3&#xA;yQlwnbkpFhFeUNVn1byxpmo3FPrFzbo0xGwL0oxA9yK4JiiQoOyb5FLsVdirsVdirsVdirsVdirs&#xA;VdirsVdirsVdirsVdirsVdirsVdirsVQerXWoWti82n2J1G6BULarIkJYE0J5yfCKDfCAOqCkH+J&#xA;PPH/AFJ8n/cQtP65Phj3os9yC1zUfOuq6Ne6a/lGWNbyCSH1Bf2h481IDUr2wxEQbtTfcyby22qt&#xA;oVl+lrcWuorEEuYQyuAyfDXkhK/EBy2O1aZCVXskJlkUuxV2KoPVdIsNVt0tr5PVt0ljmMVSFZom&#xA;5KHA+0vIdDthBpBDDfNmsefb6GbTNM8v3FtbSs0VxferA0phJKt6K8wqll/aJ2y2EYjcliSUZYa/&#xA;r1hY29la+T7xLe2jWKFfXttlQcR+37YDEHqm/JX/AMW+Z/8AqUrz/kfbf814OAd62e5PdGv72+s/&#xA;XvNPk02bkVFvK6O1BSjVjLDfISFJDU+v6FbytDPqVrFMho8bzRqynwILVGPCVtGQTwXESzQSLLC4&#xA;qkiEMrDxBGxwJX4q7FXYq7FXYq7FXYq7FXYq7FXYq7FXYq7FXYq7FXYq7FXYq7FXYq7FXYq7FXYq&#xA;7FXYq7FXYq7FUhvP8B/Wpfrv6K+t8j6/rfV/U5d+fL4q/PJji80bJtp/6P8Aqcf6P9L6nQ+j9X4+&#xA;lSprx4fD18Mib6pRGBXYq//Z</xmpGImg:image>
               </rdf:li>
            </rdf:Alt>
         </xmp:Thumbnails>
         <xmpMM:RenditionClass>proof:pdf</xmpMM:RenditionClass>
         <xmpMM:OriginalDocumentID>uuid:65E6390686CF11DBA6E2D887CEACB407</xmpMM:OriginalDocumentID>
         <xmpMM:DocumentID>xmp.did:98ee0810-9b50-f247-8bff-9103c91c6f6e</xmpMM:DocumentID>
         <xmpMM:InstanceID>xmp.iid:98ee0810-9b50-f247-8bff-9103c91c6f6e</xmpMM:InstanceID>
         <xmpMM:DerivedFrom rdf:parseType="Resource">
            <stRef:instanceID>xmp.iid:ac99513b-6080-e24a-92e3-4ae01afdfd1b</stRef:instanceID>
            <stRef:documentID>xmp.did:ac99513b-6080-e24a-92e3-4ae01afdfd1b</stRef:documentID>
            <stRef:originalDocumentID>uuid:65E6390686CF11DBA6E2D887CEACB407</stRef:originalDocumentID>
            <stRef:renditionClass>proof:pdf</stRef:renditionClass>
         </xmpMM:DerivedFrom>
         <xmpMM:History>
            <rdf:Seq>
               <rdf:li rdf:parseType="Resource">
                  <stEvt:action>saved</stEvt:action>
                  <stEvt:instanceID>xmp.iid:37ef2abf-b31e-aa40-9c39-3af3ec833183</stEvt:instanceID>
                  <stEvt:when>2017-08-08T12:28:43-05:00</stEvt:when>
                  <stEvt:softwareAgent>Adobe Illustrator CC (Windows)</stEvt:softwareAgent>
                  <stEvt:changed>/</stEvt:changed>
               </rdf:li>
               <rdf:li rdf:parseType="Resource">
                  <stEvt:action>saved</stEvt:action>
                  <stEvt:instanceID>xmp.iid:98ee0810-9b50-f247-8bff-9103c91c6f6e</stEvt:instanceID>
                  <stEvt:when>2017-08-15T21:50:16-05:00</stEvt:when>
                  <stEvt:softwareAgent>Adobe Illustrator CC (Windows)</stEvt:softwareAgent>
                  <stEvt:changed>/</stEvt:changed>
               </rdf:li>
            </rdf:Seq>
         </xmpMM:History>
         <illustrator:StartupProfile>Web</illustrator:StartupProfile>
         <xmpTPg:NPages>1</xmpTPg:NPages>
         <xmpTPg:HasVisibleTransparency>False</xmpTPg:HasVisibleTransparency>
         <xmpTPg:HasVisibleOverprint>False</xmpTPg:HasVisibleOverprint>
         <xmpTPg:MaxPageSize rdf:parseType="Resource">
            <stDim:w>28.222222</stDim:w>
            <stDim:h>21.166667</stDim:h>
            <stDim:unit>Centimeters</stDim:unit>
         </xmpTPg:MaxPageSize>
         <xmpTPg:PlateNames>
            <rdf:Seq>
               <rdf:li>Cyan</rdf:li>
               <rdf:li>Magenta</rdf:li>
               <rdf:li>Yellow</rdf:li>
               <rdf:li>Black</rdf:li>
            </rdf:Seq>
         </xmpTPg:PlateNames>
         <xmpTPg:SwatchGroups>
            <rdf:Seq>
               <rdf:li rdf:parseType="Resource">
                  <xmpG:groupName>Grupo de muestras por defecto</xmpG:groupName>
                  <xmpG:groupType>0</xmpG:groupType>
               </rdf:li>
            </rdf:Seq>
         </xmpTPg:SwatchGroups>
         <pdf:Producer>Adobe PDF library 10.01</pdf:Producer>
      </rdf:Description>
   </rdf:RDF>
</x:xmpmeta>
                                                                                                    
                                                                                                    
                                                                                                    
                                                                                                    
                                                                                                    
                                                                                                    
                                                                                                    
                                                                                                    
                                                                                                    
                                                                                                    
                                                                                                    
                                                                                                    
                                                                                                    
                                                                                                    
                                                                                                    
                                                                                                    
                                                                                                    
                                                                                                    
                                                                                                    
                                                                                                    
                           
<?xpacket end="w"?>
	</metadata>
<g id="Capa_6" display="none">
</g>
<g id="Capa_3">
	<g>
		<g>
			<g>
				<g>
					<g>
						<g>
							<g>
								<path fill="#B2EBF2" d="M768.671,270.917H31.329l0,0l0,0c-13.018,0-23.572,10.554-23.572,23.572
									s10.554,23.572,23.572,23.572l0,0l0,0h737.342c13.019,0,23.572-10.554,23.572-23.572
									C792.244,281.471,781.69,270.917,768.671,270.917z"/>
							</g>
						</g>
					</g>
				</g>
			</g>
			<g>
				<g>
					<g>
						<g>
							<g>
								<path fill="#B2EBF2" d="M768.671,319.133H31.329c-13.589,0-24.644-11.055-24.644-24.643s11.055-24.643,24.644-24.643
									h737.342c13.589,0,24.644,11.055,24.644,24.643S782.26,319.133,768.671,319.133z M31.329,271.989
									c-12.407,0-22.501,10.094-22.501,22.5c0,12.407,10.094,22.501,22.501,22.501h737.342c12.407,0,22.501-10.094,22.501-22.501
									s-10.094-22.5-22.501-22.5H31.329L31.329,271.989z"/>
							</g>
						</g>
					</g>
				</g>
			</g>
		</g>
		<g>
			<g>
				<g>
					<g>
						<g>
							<g>
								<path fill="#B2EBF2" d="M759.057,456.053H95.241c-12.397,0-22.446,10.049-22.446,22.446s10.049,22.446,22.446,22.446
									h663.816c12.397,0,22.446-10.049,22.446-22.446S771.454,456.053,759.057,456.053z"/>
							</g>
						</g>
					</g>
				</g>
			</g>
			<g>
				<g>
					<g>
						<g>
							<g>
								<path fill="#B2EBF2" d="M759.057,502.016H95.241c-12.968,0-23.517-10.549-23.517-23.517s10.55-23.517,23.517-23.517h663.815
									c12.968,0,23.518,10.549,23.518,23.517C782.574,491.466,772.025,502.016,759.057,502.016z M95.241,457.124
									c-11.786,0-21.374,9.588-21.374,21.374s9.589,21.374,21.374,21.374h663.815c11.786,0,21.374-9.589,21.374-21.374
									s-9.588-21.374-21.374-21.374H95.241z"/>
							</g>
						</g>
					</g>
				</g>
			</g>
		</g>
		<g>
			<g>
				<g>
					<g>
						<g>
							<g>
								<path fill="#B2EBF2" d="M687.946,180.596H66.312c-12.59,0-22.795,10.206-22.795,22.795c0,12.59,10.206,22.795,22.795,22.795
									h621.635c12.59,0,22.795-10.206,22.795-22.795C710.742,190.801,700.536,180.596,687.946,180.596z"/>
							</g>
						</g>
					</g>
				</g>
			</g>
			<g>
				<g>
					<g>
						<g>
							<g>
								<path fill="#B2EBF2" d="M687.947,227.258H66.312c-13.16,0-23.867-10.707-23.867-23.867s10.707-23.867,23.867-23.867h621.635
									c13.16,0,23.867,10.707,23.867,23.867C711.813,216.552,701.106,227.258,687.947,227.258z M66.311,181.668
									c-11.979,0-21.724,9.746-21.724,21.724c0,11.979,9.745,21.725,21.724,21.725h621.635c11.979,0,21.724-9.746,21.724-21.725
									c0-11.978-9.745-21.724-21.724-21.724H66.311z"/>
							</g>
						</g>
					</g>
				</g>
			</g>
		</g>
		<g>
			<g>
				<g>
					<g>
						<g>
							<g>
								<path fill="#B2EBF2" d="M758.881,365.416H31.329c-12.372,0-22.401,10.029-22.401,22.401s10.029,22.401,22.401,22.401
									h727.552c12.372,0,22.401-10.029,22.401-22.401C781.281,375.446,771.252,365.416,758.881,365.416z"/>
							</g>
						</g>
					</g>
				</g>
			</g>
			<g>
				<g>
					<g>
						<g>
							<g>
								<path fill="#B2EBF2" d="M758.881,411.29H31.329c-12.943,0-23.472-10.53-23.472-23.472s10.53-23.472,23.472-23.472h727.552
									c12.943,0,23.472,10.53,23.472,23.472S771.823,411.29,758.881,411.29z M31.329,366.487c-11.761,0-21.33,9.568-21.33,21.33
									s9.568,21.33,21.33,21.33h727.552c11.76,0,21.33-9.568,21.33-21.33s-9.568-21.33-21.33-21.33H31.329z"/>
							</g>
						</g>
					</g>
				</g>
			</g>
		</g>
		<g>
			<g>
				<g>
					<g>
						<g>
							<g>
								<path fill="#B2EBF2" d="M631.438,248.552c0-12.352,10.013-22.365,22.365-22.365H150.365
									c12.352,0,22.365,10.013,22.365,22.365c0,12.352-10.013,22.365-22.365,22.365h503.438
									C641.452,270.917,631.438,260.904,631.438,248.552z"/>
							</g>
						</g>
					</g>
				</g>
			</g>
			<g>
				<g>
					<g>
						<g>
							<g>
								<path fill="#B2EBF2" d="M653.804,271.989H150.366c-0.592,0-1.071-0.48-1.071-1.071s0.48-1.071,1.071-1.071
									c11.742,0,21.294-9.552,21.294-21.294c0-11.741-9.552-21.293-21.294-21.293c-0.592,0-1.071-0.48-1.071-1.071
									s0.48-1.071,1.071-1.071h503.438c0.592,0,1.071,0.48,1.071,1.071s-0.479,1.071-1.071,1.071
									c-11.742,0-21.294,9.552-21.294,21.293c0,11.742,9.553,21.294,21.294,21.294c0.592,0,1.071,0.48,1.071,1.071
									C654.876,271.509,654.396,271.989,653.804,271.989z M160.153,269.846h483.864c-8.05-3.715-13.65-11.863-13.65-21.294
									s5.6-17.579,13.649-21.293H160.153c8.049,3.715,13.649,11.862,13.649,21.293
									C173.803,257.983,168.203,266.132,160.153,269.846z"/>
							</g>
						</g>
					</g>
				</g>
			</g>
		</g>
		<g>
			<g>
				<g>
					<g>
						<g>
							<g>
								<path fill="#B2EBF2" d="M670.79,365.417v-0.016c-0.208,0.006-0.415,0.015-0.624,0.016H670.79z M670.081,318.061
									c0.238,0,0.473,0.011,0.709,0.018v-0.018H670.081z M110.738,341.739c0,13.077-10.601,23.678-23.678,23.678l0,0h582.936
									c-13.039-0.046-23.594-10.627-23.594-23.676c0-13.077,10.601-23.678,23.678-23.678H87.06
									C100.137,318.061,110.738,328.662,110.738,341.739z"/>
							</g>
						</g>
					</g>
				</g>
			</g>
			<g>
				<g>
					<g>
						<g>
							<g>
								<path fill="#B2EBF2" d="M670.79,366.487h-0.624c-0.029,0-0.057-0.001-0.085-0.003c-0.028,0.002-0.056,0.003-0.085,0.003
									H87.06c-0.592,0-1.071-0.48-1.071-1.071s0.48-1.071,1.071-1.071c12.465,0,22.606-10.141,22.606-22.606
									s-10.141-22.606-22.606-22.606c-0.592,0-1.071-0.48-1.071-1.071s0.48-1.071,1.071-1.071h583.729
									c0.592,0,1.071,0.48,1.071,1.071c0,0.289-0.117,0.576-0.325,0.777c-0.208,0.202-0.469,0.329-0.778,0.311l-0.196-0.007
									c-0.16-0.006-0.319-0.011-0.48-0.011c-12.465,0-22.607,10.141-22.607,22.608c0,12.421,10.105,22.561,22.526,22.604
									c0.027,0,0.054,0.001,0.081,0.003c0.16-0.012,0.328-0.008,0.49-0.012l0.19-0.006c0.285-0.023,0.568,0.101,0.776,0.303
									c0.207,0.202,0.324,0.479,0.324,0.768C671.862,365.992,671.381,366.487,670.79,366.487z M97.132,364.345h562.886
									c-8.643-3.868-14.686-12.554-14.686-22.604c0-10.063,6.036-18.743,14.679-22.608H97.132
									c8.642,3.865,14.678,12.543,14.678,22.606C111.809,351.801,105.774,360.48,97.132,364.345z"/>
							</g>
						</g>
					</g>
				</g>
			</g>
		</g>
		<g>
			<g>
				<path fill="#B2EBF2" d="M132.397,454.691c1.168,0.194,2.366,0.309,3.589,0.309H696.53c-8.297-4-14.081-12.305-14.081-22
					c0-9.696,5.783-18,14.081-22H135.986c-1.357,0-2.684,0.276-3.973,0.513c10.198,1.876,17.927,10.882,17.927,21.623
					C149.94,443.742,142.405,452.665,132.397,454.691z"/>
			</g>
		</g>
	</g>
	<g>
		<g>
			<g>
				<g>
					<g>
						<path fill="#C5CAE8" d="M406.425,151.095c49.624,0,95.174,37.351,95.174,86.545s0,277.793,0,277.793h-34.618
							c0,0,0-103.792,0-110.169s-11.387-28.696-30.974-28.696s-48.283,0-58.304,0s-28.241,12.298-28.241,33.707s0,105.159,0,105.159
							h-35.529c0,0,0-270.96,0-283.714S336.251,151.095,406.425,151.095z"/>
					</g>
				</g>
			</g>
		</g>
		<g>
			<g>
				<g>
					<g>
						<path fill="#FFFFFF" d="M466.98,516.861c0,0,0-105.22,0-111.598s-11.387-28.696-30.974-28.696s-48.283,0-58.304,0
							s-28.241,12.298-28.241,33.707s0,106.587,0,106.587H466.98z"/>
					</g>
				</g>
			</g>
		</g>
		<g>
			<g>
				<g>
					<g>
						<path fill="#FFFFFF" d="M349.461,232.63c0,9.11,0,25.508,0,25.508s-11.843,1.822-11.843,11.387s11.843,10.476,11.843,10.476
							v19.587c0,0,7.339,53.749,56.963,53.749c49.624,0,60.556-47.372,60.556-55.116s0-18.22,0-18.22s10.932,0.911,10.932-10.476
							c0-8.654-7.264-11.387-10.932-11.387c-17.309,0-37.154-14.12-37.154-37.807c0,0-64.763,0-68.522,0
							S349.461,223.52,349.461,232.63z"/>
					</g>
				</g>
			</g>
		</g>
		<g>
			<g>
				<g>
					<g>
						<path fill="#FFFFFF" d="M389.289,350.888v25.68h36.696v-26.064c0,0-9.645,2.833-19.561,2.833
							C396.509,353.337,389.289,350.888,389.289,350.888z"/>
					</g>
				</g>
			</g>
		</g>
		<g>
			<g>
				<g>
					<g>
						<path fill="#C5CAE8" d="M423.707,312.798c0,8.805-7.138,15.942-15.942,15.942s-15.942-7.138-15.942-15.942H423.707z"/>
					</g>
				</g>
			</g>
		</g>
		<g>
			<g>
				<g>
					<g>
						<circle fill="#676E8A" cx="406.96" cy="450.003" r="2.44"/>
					</g>
				</g>
			</g>
		</g>
		<g>
			<g>
				<g>
					<g>
						<circle fill="#B2EBF2" cx="409.996" cy="433.992" r="7.857"/>
					</g>
				</g>
			</g>
		</g>
		<g>
			<g>
				<g>
					<g>
						<path fill="#676E8A" d="M408.579,441.848c-6.014,0-10.906-4.892-10.906-10.906s4.892-10.906,10.906-10.906
							c0.986,0,1.786,0.8,1.786,1.786s-0.8,1.786-1.786,1.786c-4.045,0-7.334,3.291-7.334,7.335c0,4.045,3.29,7.335,7.334,7.335
							c4.045,0,7.335-3.29,7.335-7.335c0-0.986,0.8-1.786,1.786-1.786c0.986,0,1.785,0.8,1.785,1.786
							C419.485,436.956,414.593,441.848,408.579,441.848z"/>
					</g>
				</g>
			</g>
		</g>
		<g>
			<g>
				<g>
					<g>
						<path fill="#676E8A" d="M501.598,517.933c-0.986,0-1.786-0.8-1.786-1.786V438.38c0-0.986,0.8-1.786,1.786-1.786
							c0.986,0,1.786,0.8,1.786,1.786v77.767C503.384,517.133,502.584,517.933,501.598,517.933z"/>
					</g>
				</g>
			</g>
		</g>
		<g>
			<g>
				<g>
					<g>
						<path fill="#676E8A" d="M501.598,425.29c-0.986,0-1.786-0.8-1.786-1.786V236.926c0-45.945-42.766-84.759-93.388-84.759
							c-4.061,0-8.085,0.235-11.958,0.7c-0.974,0.113-1.868-0.581-1.986-1.561c-0.117-0.979,0.581-1.868,1.561-1.986
							c4.014-0.481,8.18-0.725,12.383-0.725c24.577,0,49.135,9.211,67.375,25.27c19.078,16.795,29.584,39.191,29.584,63.06v186.579
							C503.384,424.491,502.584,425.29,501.598,425.29z"/>
					</g>
				</g>
			</g>
		</g>
		<g>
			<g>
				<g>
					<g>
						<path fill="#676E8A" d="M313.932,377.639c-0.986,0-1.785-0.8-1.785-1.786V231.005c0-5.241,3.451-19.377,12.711-34.993
							c7.76-13.086,21.84-30.707,44.853-40.346c2.776-1.163,5.656-2.196,8.559-3.072c0.943-0.284,1.94,0.25,2.225,1.194
							c0.285,0.944-0.25,1.94-1.194,2.225c-2.785,0.84-5.548,1.831-8.21,2.946c-40.92,17.14-55.372,62.102-55.372,72.045v144.848
							C315.718,376.839,314.918,377.639,313.932,377.639z"/>
					</g>
				</g>
			</g>
		</g>
		<g>
			<g>
				<g>
					<g>
						<path fill="#676E8A" d="M313.932,398.389c-0.986,0-1.785-0.8-1.785-1.786v-13.525c0-0.986,0.8-1.786,1.785-1.786
							c0.986,0,1.786,0.8,1.786,1.786v13.525C315.718,397.59,314.918,398.389,313.932,398.389z"/>
					</g>
				</g>
			</g>
		</g>
		<g>
			<g>
				<g>
					<g>
						<path fill="#676E8A" d="M313.932,517.933c-0.986,0-1.785-0.8-1.785-1.786V409.304c0-0.986,0.8-1.786,1.785-1.786
							c0.986,0,1.786,0.8,1.786,1.786v106.843C315.718,517.133,314.918,517.933,313.932,517.933z"/>
					</g>
				</g>
			</g>
		</g>
		<g>
			<g>
				<g>
					<g>
						<path fill="#676E8A" d="M349.461,517.933c-0.986,0-1.786-0.8-1.786-1.786V409.56c0-5.585,1.182-10.899,3.513-15.793
							c0.424-0.89,1.489-1.268,2.38-0.844c0.89,0.424,1.268,1.489,0.844,2.38c-2.1,4.41-3.166,9.207-3.166,14.257v106.587
							C351.246,517.133,350.448,517.933,349.461,517.933z"/>
					</g>
				</g>
			</g>
		</g>
		<g>
			<g>
				<g>
					<g>
						<path fill="#676E8A" d="M466.981,517.933c-0.986,0-1.785-0.8-1.785-1.786V404.55c0-5.571-10.964-26.911-29.189-26.911h-58.303
							c-3.292,0-7.45,1.487-11.407,4.079c-0.825,0.543-1.931,0.31-2.472-0.515c-0.54-0.825-0.31-1.932,0.515-2.472
							c4.523-2.964,9.395-4.664,13.364-4.664h58.304c20.781,0,32.76,23.134,32.76,30.482v111.598
							C468.766,517.133,467.967,517.933,466.981,517.933z"/>
					</g>
				</g>
			</g>
		</g>
		<g>
			<g>
				<g>
					<g>
						<path fill="#676E8A" d="M406.425,354.408c-26.471,0-41.052-15.087-48.623-27.743c-8.132-13.594-10.032-26.986-10.109-27.549
							c-0.011-0.08-0.016-0.161-0.016-0.242v-18.021c-4.828-0.869-11.843-4.13-11.843-12.042c0-7.891,7.06-11.649,11.843-12.844
							v-24.052c0-10.537,9.359-14.084,13.629-14.084h68.522c0.986,0,1.785,0.8,1.785,1.786c0,22.249,18.36,36.021,35.369,36.021
							c5.281,0,12.718,4.087,12.718,13.173c0,8.429-5.44,11.807-10.932,12.232v16.464
							C468.766,306.35,457.27,354.408,406.425,354.408z M351.246,298.743c0.201,1.311,2.269,13.848,9.679,26.187
							c10.323,17.191,25.631,25.907,45.5,25.907c25.422,0,39.821-12.991,47.423-23.89c8.659-12.413,11.348-25.923,11.348-29.44
							v-18.22c0-0.499,0.209-0.976,0.577-1.314c0.367-0.338,0.862-0.506,1.357-0.465c0.023,0.002,0.175,0.011,0.418,0.011
							c2.58,0,8.58-0.848,8.58-8.708c0-7.838-6.773-9.602-9.146-9.602c-18.266,0-37.947-14.403-38.904-37.807h-66.773
							c-1.995,0-10.058,1.871-10.058,10.513v25.508c0,0.881-0.643,1.63-1.514,1.765c-0.418,0.066-10.329,1.722-10.329,9.623
							c0,7.822,9.778,8.664,10.195,8.697c0.93,0.072,1.649,0.847,1.649,1.78v19.455H351.246z"/>
					</g>
				</g>
			</g>
		</g>
		<g>
			<g>
				<g>
					<g>
						<path fill="#676E8A" d="M425.985,377.639h-36.696c-0.986,0-1.786-0.8-1.786-1.786v-25.679c0-0.575,0.278-1.116,0.746-1.451
							s1.068-0.425,1.614-0.239c0.068,0.023,7.089,2.354,16.562,2.354c9.548,0,18.963-2.732,19.058-2.76
							c0.539-0.16,1.122-0.054,1.573,0.284c0.45,0.337,0.716,0.866,0.716,1.429v26.063
							C427.771,376.839,426.972,377.639,425.985,377.639z M391.074,374.068h33.125v-21.963c-3.499,0.852-10.519,2.303-17.776,2.303
							c-6.824,0-12.375-1.115-15.35-1.869L391.074,374.068L391.074,374.068z"/>
					</g>
				</g>
			</g>
		</g>
		<g>
			<g>
				<g>
					<g>
						<path fill="#676E8A" d="M419.587,499.258h-24.919c-7.899,0-14.324-6.426-14.324-14.325v-63.089
							c0-7.899,6.426-14.325,14.324-14.325h24.919c7.899,0,14.325,6.426,14.325,14.325v63.089
							C433.912,492.832,427.486,499.258,419.587,499.258z M394.668,411.09c-5.93,0-10.753,4.824-10.753,10.754v63.089
							c0,5.93,4.824,10.754,10.753,10.754h24.919c5.93,0,10.754-4.824,10.754-10.754v-63.089c0-5.93-4.823-10.754-10.754-10.754
							H394.668L394.668,411.09z"/>
					</g>
				</g>
			</g>
		</g>
		<g>
			<g>
				<g>
					<g>
						<path fill="#FFFFFF" d="M432.126,432.791c0,0,10.712-0.911,10.712,9.565s0,30.063,0,37.351c0,5.694-2.814,8.655-7.288,8.655
							c-5.922,0-11.843,0-11.843,0s-15.942-1.922-15.942-18.447c0-16.526,20.482-18.447,24.361-18.447V432.791z"/>
					</g>
				</g>
			</g>
			<g>
				<g>
					<g>
						<path fill="#676E8A" d="M435.55,490.148h-11.843c-0.071,0-0.143-0.004-0.214-0.012c-0.175-0.022-17.514-2.319-17.514-20.221
							c0-15.375,16.193-19.626,24.361-20.17v-16.953c0-0.923,0.714-1.696,1.634-1.779c0,0,0.291-0.027,0.787-0.027
							c5.735,0,11.862,2.987,11.862,11.371v37.351C444.624,486.245,441.232,490.148,435.55,490.148z M423.823,486.576h11.727
							c4.547,0,5.503-3.736,5.503-6.869v-37.351c0-6-4.06-7.488-7.141-7.751v16.862c0,0.986-0.8,1.786-1.786,1.786
							c-0.226,0-22.576,0.454-22.576,16.662C409.551,484.208,422.454,486.386,423.823,486.576z"/>
					</g>
				</g>
			</g>
		</g>
	</g>
	<g>
		<g>
			<g>
				<g>
					<path fill="#676E8A" d="M222.542,477.837c-0.544,0-1.086-0.221-1.481-0.655c-1.129-1.244-2.244-2.498-3.348-3.766
						c-0.726-0.832-0.639-2.096,0.194-2.821c0.833-0.726,2.096-0.638,2.822,0.194c1.086,1.246,2.183,2.48,3.293,3.703
						c0.743,0.817,0.682,2.083-0.136,2.825C223.503,477.665,223.022,477.837,222.542,477.837z"/>
				</g>
			</g>
			<g>
				<g>
					<path fill="#676E8A" d="M582.793,476.147c-0.474,0-0.948-0.167-1.33-0.507c-0.824-0.735-0.896-1.999-0.162-2.824
						c2.168-2.432,4.323-4.951,6.404-7.488c0.701-0.853,1.961-0.979,2.814-0.277c0.854,0.7,0.979,1.961,0.277,2.814
						c-2.115,2.579-4.306,5.14-6.51,7.613C583.892,475.922,583.344,476.147,582.793,476.147z M209.179,461.783
						c-0.603,0-1.198-0.271-1.592-0.787c-2.012-2.64-4-5.36-5.908-8.089c-0.633-0.905-0.413-2.152,0.492-2.785
						c0.906-0.634,2.152-0.412,2.785,0.492c1.877,2.684,3.833,5.36,5.812,7.956c0.67,0.879,0.5,2.134-0.378,2.804
						C210.028,461.649,209.602,461.783,209.179,461.783z M598.923,455.984c-0.403,0-0.81-0.121-1.163-0.374
						c-0.897-0.644-1.104-1.893-0.461-2.791c1.908-2.663,3.783-5.396,5.574-8.125c0.605-0.924,1.847-1.184,2.769-0.575
						c0.924,0.605,1.182,1.846,0.575,2.769c-1.82,2.774-3.727,5.555-5.666,8.262C600.16,455.694,599.546,455.984,598.923,455.984z
						 M194.641,440.447c-0.676,0-1.336-0.343-1.712-0.963c-1.721-2.839-3.408-5.756-5.015-8.671
						c-0.533-0.968-0.182-2.184,0.786-2.717c0.97-0.533,2.185-0.182,2.717,0.785c1.581,2.867,3.24,5.736,4.933,8.528
						c0.572,0.945,0.271,2.175-0.674,2.747C195.352,440.354,194.994,440.447,194.641,440.447z M612.823,434.221
						c-0.334,0-0.672-0.083-0.983-0.26c-0.961-0.544-1.299-1.765-0.755-2.726c1.608-2.842,3.182-5.76,4.677-8.674
						c0.502-0.982,1.705-1.373,2.692-0.866c0.982,0.504,1.37,1.709,0.866,2.692c-1.52,2.962-3.119,5.93-4.755,8.818
						C614.197,433.856,613.521,434.221,612.823,434.221z M182.458,417.687c-0.752,0-1.473-0.426-1.813-1.151
						c-1.412-3.016-2.778-6.097-4.061-9.158c-0.427-1.019,0.053-2.19,1.072-2.617c1.02-0.428,2.19,0.054,2.617,1.072
						c1.261,3.011,2.604,6.041,3.993,9.006c0.469,1.001,0.038,2.191-0.963,2.66C183.03,417.626,182.742,417.687,182.458,417.687z
						 M624.325,411.099c-0.265,0-0.534-0.054-0.792-0.165c-1.015-0.438-1.481-1.615-1.043-2.629
						c1.302-3.014,2.555-6.084,3.722-9.125c0.396-1.03,1.555-1.549,2.584-1.15c1.031,0.396,1.546,1.553,1.15,2.584
						c-1.188,3.093-2.46,6.214-3.784,9.277C625.836,410.646,625.099,411.099,624.325,411.099z M172.777,393.756
						c-0.831,0-1.607-0.521-1.892-1.352c-1.078-3.14-2.105-6.349-3.055-9.54c-0.315-1.059,0.288-2.172,1.347-2.487
						c1.054-0.317,2.172,0.288,2.487,1.347c0.934,3.138,1.945,6.295,3.004,9.382c0.359,1.045-0.198,2.183-1.242,2.541
						C173.211,393.721,172.993,393.756,172.777,393.756z M633.285,386.874c-0.196,0-0.396-0.029-0.593-0.091
						c-1.056-0.327-1.646-1.447-1.318-2.502c0.965-3.112,1.88-6.299,2.722-9.473c0.283-1.066,1.372-1.704,2.446-1.421
						c1.067,0.283,1.704,1.379,1.421,2.446c-0.856,3.227-1.787,6.468-2.769,9.631C634.929,386.323,634.138,386.874,633.285,386.874z
						 M165.719,368.925c-0.913,0-1.738-0.629-1.948-1.558c-0.735-3.237-1.413-6.538-2.015-9.812c-0.2-1.087,0.519-2.13,1.605-2.329
						c1.08-0.203,2.128,0.518,2.329,1.604c0.592,3.22,1.259,6.467,1.982,9.651c0.245,1.077-0.43,2.148-1.507,2.393
						C166.015,368.909,165.866,368.925,165.719,368.925z M639.596,361.824c-0.127,0-0.256-0.012-0.385-0.037
						c-1.084-0.212-1.792-1.262-1.58-2.346c0.629-3.223,1.198-6.49,1.691-9.713c0.167-1.092,1.19-1.84,2.279-1.674
						c1.092,0.167,1.842,1.188,1.674,2.279c-0.501,3.275-1.079,6.598-1.719,9.873C641.37,361.162,640.533,361.824,639.596,361.824z
						 M161.362,343.485c-1.001,0-1.865-0.75-1.984-1.769c-0.386-3.302-0.708-6.656-0.958-9.97c-0.083-1.102,0.742-2.062,1.843-2.145
						c1.106-0.087,2.063,0.742,2.145,1.844c0.247,3.259,0.563,6.559,0.942,9.808c0.128,1.097-0.657,2.09-1.754,2.218
						C161.518,343.481,161.439,343.485,161.362,343.485z M643.189,336.24c-0.058,0-0.115-0.002-0.174-0.008
						c-1.101-0.095-1.916-1.063-1.82-2.164c0.281-3.262,0.5-6.571,0.648-9.84c0.05-1.104,1.007-1.939,2.089-1.907
						c1.104,0.051,1.957,0.985,1.907,2.089c-0.151,3.322-0.373,6.688-0.66,10.002C645.09,335.454,644.217,336.24,643.189,336.24z
						 M159.732,317.725c-1.095,0-1.988-0.882-2-1.979c-0.009-0.882-0.014-1.766-0.014-2.649c0-2.445,0.037-4.923,0.109-7.364
						c0.032-1.104,0.939-2.003,2.058-1.939c1.104,0.032,1.973,0.954,1.94,2.059c-0.071,2.4-0.107,4.839-0.107,7.245
						c0,0.87,0.005,1.739,0.014,2.606c0.012,1.104-0.875,2.01-1.979,2.021C159.747,317.725,159.739,317.725,159.732,317.725z
						 M644.053,310.427c-1.087,0-1.978-0.87-1.999-1.962c-0.063-3.275-0.191-6.588-0.385-9.845c-0.065-1.103,0.775-2.05,1.878-2.115
						c1.078-0.067,2.049,0.775,2.114,1.878c0.197,3.31,0.329,6.677,0.393,10.006c0.021,1.104-0.857,2.017-1.962,2.038
						C644.079,310.427,644.065,310.427,644.053,310.427z M160.814,291.935c-0.063,0-0.127-0.003-0.191-0.009
						c-1.1-0.104-1.906-1.081-1.802-2.18c0.314-3.313,0.701-6.66,1.15-9.947c0.149-1.095,1.157-1.861,2.252-1.711
						c1.094,0.149,1.86,1.157,1.711,2.252c-0.441,3.233-0.821,6.525-1.13,9.785C162.704,291.159,161.833,291.935,160.814,291.935z
						 M642.203,284.681c-0.993,0-1.854-0.74-1.981-1.751c-0.406-3.241-0.886-6.52-1.425-9.746c-0.182-1.089,0.554-2.12,1.643-2.302
						c1.085-0.182,2.121,0.552,2.303,1.643c0.548,3.279,1.035,6.613,1.448,9.908c0.138,1.096-0.64,2.096-1.735,2.233
						C642.37,284.676,642.286,284.681,642.203,284.681z M164.617,266.406c-0.132,0-0.267-0.013-0.402-0.041
						c-1.083-0.221-1.781-1.277-1.56-2.359c0.664-3.253,1.406-6.54,2.205-9.769c0.265-1.072,1.35-1.726,2.422-1.461
						c1.072,0.265,1.726,1.35,1.461,2.422c-0.786,3.176-1.515,6.408-2.168,9.608C166.381,265.752,165.547,266.406,164.617,266.406z
						 M637.632,259.278c-0.906,0-1.728-0.621-1.944-1.542c-0.75-3.179-1.577-6.387-2.459-9.537
						c-0.298-1.064,0.323-2.167,1.387-2.465c1.058-0.299,2.167,0.322,2.465,1.386c0.897,3.203,1.738,6.466,2.5,9.698
						c0.254,1.075-0.412,2.152-1.487,2.406C637.938,259.26,637.784,259.278,637.632,259.278z M171.127,241.428
						c-0.201,0-0.406-0.031-0.608-0.095c-1.052-0.335-1.633-1.46-1.297-2.513c1.013-3.176,2.106-6.374,3.25-9.502
						c0.378-1.038,1.529-1.573,2.564-1.192c1.038,0.379,1.571,1.527,1.192,2.564c-1.124,3.078-2.199,6.222-3.196,9.346
						C172.761,240.885,171.974,241.428,171.127,241.428z M630.367,234.509c-0.824,0-1.597-0.514-1.886-1.335
						c-1.089-3.087-2.256-6.188-3.469-9.219c-0.41-1.025,0.089-2.189,1.114-2.6c1.029-0.409,2.189,0.089,2.601,1.114
						c1.232,3.082,2.419,6.235,3.525,9.375c0.368,1.042-0.179,2.184-1.221,2.551C630.813,234.473,630.588,234.509,630.367,234.509z
						 M180.298,217.246c-0.271,0-0.545-0.055-0.808-0.171c-1.01-0.447-1.467-1.627-1.021-2.638c1.347-3.047,2.776-6.106,4.247-9.092
						c0.487-0.99,1.688-1.398,2.678-0.91c0.991,0.488,1.398,1.687,0.91,2.678c-1.446,2.937-2.852,5.945-4.177,8.941
						C181.798,216.801,181.066,217.246,180.298,217.246z M620.496,210.68c-0.745,0-1.461-0.419-1.805-1.137
						c-1.414-2.953-2.902-5.906-4.425-8.778c-0.518-0.976-0.146-2.187,0.83-2.704c0.974-0.519,2.187-0.145,2.703,0.83
						c1.549,2.92,3.063,5.923,4.499,8.925c0.478,0.996,0.056,2.19-0.94,2.667C621.08,210.617,620.786,210.68,620.496,210.68z
						 M192.003,194.2c-0.339,0-0.683-0.086-0.998-0.269c-0.957-0.552-1.284-1.775-0.732-2.732c1.663-2.881,3.409-5.768,5.189-8.579
						c0.591-0.933,1.826-1.209,2.76-0.62c0.933,0.591,1.211,1.827,0.62,2.76c-1.752,2.766-3.469,5.605-5.105,8.439
						C193.367,193.841,192.694,194.2,192.003,194.2z M608.143,188.052c-0.671,0-1.326-0.337-1.704-0.95
						c-1.714-2.776-3.51-5.557-5.338-8.264c-0.618-0.916-0.378-2.159,0.538-2.777c0.916-0.62,2.158-0.376,2.776,0.538
						c1.859,2.752,3.686,5.579,5.428,8.402c0.58,0.94,0.288,2.172-0.651,2.752C608.863,187.956,608.501,188.052,608.143,188.052z
						 M206.094,172.543c-0.409,0-0.821-0.125-1.177-0.384c-0.892-0.651-1.088-1.902-0.437-2.794
						c1.964-2.693,4.006-5.376,6.069-7.974c0.686-0.865,1.945-1.011,2.81-0.323c0.865,0.687,1.01,1.945,0.323,2.81
						c-2.029,2.556-4.038,5.195-5.97,7.844C207.319,172.259,206.711,172.543,206.094,172.543z M593.443,166.854
						c-0.597,0-1.188-0.266-1.582-0.775c-1.993-2.573-4.075-5.149-6.188-7.657c-0.712-0.844-0.604-2.106,0.24-2.818
						c0.844-0.713,2.105-0.605,2.818,0.241c2.148,2.549,4.266,5.168,6.292,7.784c0.677,0.874,0.517,2.129-0.356,2.806
						C594.303,166.717,593.872,166.854,593.443,166.854z M222.398,152.514c-0.479,0-0.959-0.171-1.343-0.518
						c-0.818-0.742-0.88-2.006-0.139-2.825c2.228-2.458,4.541-4.908,6.875-7.283c0.774-0.788,2.04-0.799,2.829-0.024
						c0.788,0.774,0.798,2.041,0.024,2.829c-2.297,2.335-4.572,4.746-6.764,7.165C223.486,152.293,222.943,152.514,222.398,152.514z
						 M576.573,147.323c-0.525,0-1.05-0.206-1.442-0.614c-2.265-2.357-4.609-4.7-6.969-6.963c-0.797-0.765-0.823-2.031-0.059-2.828
						c0.765-0.798,2.031-0.823,2.828-0.059c2.398,2.3,4.781,4.682,7.084,7.078c0.765,0.797,0.739,2.063-0.057,2.828
						C577.571,147.138,577.072,147.323,576.573,147.323z M240.724,134.33c-0.55,0-1.098-0.226-1.493-0.668
						c-0.735-0.824-0.664-2.088,0.161-2.824c2.483-2.216,5.041-4.406,7.604-6.511c0.853-0.702,2.114-0.578,2.815,0.276
						c0.701,0.854,0.578,2.114-0.276,2.815c-2.521,2.07-5.037,4.225-7.479,6.405C241.674,134.163,241.198,134.33,240.724,134.33z
						 M557.725,129.679c-0.454,0-0.911-0.154-1.286-0.469c-2.515-2.114-5.096-4.197-7.671-6.19
						c-0.874-0.676-1.034-1.932-0.358-2.806c0.677-0.874,1.933-1.034,2.806-0.357c2.618,2.026,5.242,4.143,7.798,6.292
						c0.846,0.711,0.954,1.972,0.244,2.818C558.861,129.437,558.295,129.679,557.725,129.679z M260.863,118.194
						c-0.623,0-1.236-0.29-1.626-0.834c-0.644-0.897-0.438-2.147,0.459-2.791c2.696-1.935,5.47-3.841,8.245-5.666
						c0.922-0.606,2.163-0.35,2.77,0.573c0.607,0.923,0.351,2.163-0.572,2.77c-2.729,1.795-5.458,3.67-8.11,5.573
						C261.674,118.073,261.267,118.194,260.863,118.194z M537.104,114.125c-0.385,0-0.773-0.11-1.116-0.342
						c-2.716-1.831-5.504-3.628-8.288-5.343c-0.94-0.579-1.233-1.811-0.654-2.752c0.579-0.94,1.812-1.233,2.752-0.654
						c2.831,1.743,5.666,3.571,8.427,5.433c0.916,0.617,1.157,1.86,0.54,2.776C538.378,113.816,537.746,114.125,537.104,114.125z
						 M282.589,104.292c-0.697,0-1.374-0.365-1.742-1.014c-0.545-0.961-0.208-2.182,0.753-2.727
						c2.885-1.636,5.844-3.235,8.795-4.753c0.98-0.505,2.187-0.119,2.693,0.864c0.505,0.982,0.118,2.188-0.864,2.693
						c-2.903,1.492-5.813,3.065-8.65,4.675C283.262,104.208,282.923,104.292,282.589,104.292z M514.938,100.847
						c-0.314,0-0.635-0.075-0.933-0.232c-2.895-1.53-5.86-3.021-8.817-4.431c-0.997-0.476-1.419-1.669-0.943-2.666
						c0.475-0.999,1.669-1.419,2.666-0.944c3.006,1.434,6.021,2.95,8.964,4.505c0.977,0.516,1.35,1.727,0.834,2.703
						C516.35,100.46,515.656,100.847,514.938,100.847z M305.656,92.789c-0.773,0-1.509-0.451-1.836-1.205
						c-0.439-1.013,0.026-2.191,1.04-2.63c3.046-1.32,6.156-2.594,9.244-3.784c1.032-0.396,2.188,0.116,2.585,1.147
						c0.397,1.03-0.116,2.188-1.147,2.585c-3.036,1.17-6.095,2.422-9.091,3.721C306.191,92.736,305.921,92.789,305.656,92.789z
						 M491.47,90.007c-0.246,0-0.496-0.046-0.739-0.143c-3.044-1.212-6.155-2.377-9.247-3.462c-1.042-0.366-1.591-1.507-1.225-2.549
						c0.364-1.042,1.508-1.591,2.549-1.225c3.145,1.104,6.309,2.288,9.403,3.521c1.026,0.409,1.526,1.572,1.118,2.598
						C493.017,89.53,492.265,90.007,491.47,90.007z M329.829,83.814c-0.853,0-1.643-0.549-1.909-1.406
						c-0.328-1.055,0.26-2.176,1.315-2.504c3.171-0.987,6.408-1.922,9.622-2.779c1.062-0.283,2.163,0.35,2.448,1.417
						c0.284,1.067-0.35,2.163-1.417,2.448c-3.161,0.842-6.345,1.762-9.463,2.733C330.226,83.785,330.025,83.814,329.829,83.814z
						 M466.988,81.751c-0.178,0-0.357-0.024-0.537-0.074c-3.151-0.877-6.362-1.699-9.542-2.444
						c-1.075-0.252-1.743-1.328-1.491-2.403c0.252-1.077,1.33-1.743,2.403-1.491c3.233,0.757,6.498,1.594,9.702,2.485
						c1.064,0.296,1.687,1.399,1.391,2.463C468.668,81.172,467.864,81.751,466.988,81.751z M354.85,77.476
						c-0.937,0-1.772-0.661-1.96-1.614c-0.213-1.083,0.492-2.135,1.576-2.349c3.263-0.643,6.582-1.225,9.863-1.732
						c1.09-0.173,2.113,0.58,2.282,1.671c0.168,1.092-0.58,2.113-1.671,2.282c-3.228,0.498-6.491,1.071-9.701,1.704
						C355.107,77.463,354.978,77.476,354.85,77.476z M441.786,76.175c-0.108,0-0.218-0.009-0.329-0.027
						c-3.219-0.533-6.498-1.007-9.749-1.41c-1.096-0.136-1.874-1.134-1.738-2.23s1.131-1.873,2.23-1.739
						c3.304,0.409,6.639,0.891,9.911,1.433c1.089,0.181,1.826,1.21,1.646,2.3C443.595,75.48,442.747,76.175,441.786,76.175z
						 M380.404,73.849c-1.025,0-1.898-0.784-1.99-1.825c-0.097-1.1,0.717-2.071,1.817-2.167c3.312-0.292,6.673-0.519,9.991-0.674
						c1.09-0.071,2.039,0.8,2.091,1.904c0.052,1.103-0.8,2.04-1.903,2.091c-3.264,0.154-6.571,0.377-9.829,0.664
						C380.522,73.846,380.463,73.849,380.404,73.849z M416.134,73.318c-0.039,0-0.078-0.001-0.117-0.003
						c-3.261-0.188-6.573-0.313-9.845-0.371c-1.104-0.019-1.983-0.93-1.965-2.035c0.02-1.104,0.918-2.017,2.035-1.964
						c3.324,0.058,6.691,0.185,10.005,0.376c1.104,0.064,1.945,1.009,1.882,2.112C418.067,72.497,417.186,73.318,416.134,73.318z"/>
				</g>
			</g>
			<g>
				<g>
					<path fill="#676E8A" d="M568.03,491.336c-0.531,0-1.062-0.211-1.455-0.628c-0.758-0.804-0.721-2.069,0.083-2.827
						c1.202-1.133,2.394-2.28,3.571-3.438c0.786-0.774,2.054-0.763,2.828,0.025c0.774,0.787,0.763,2.054-0.025,2.828
						c-1.197,1.177-2.408,2.342-3.63,3.494C569.016,491.155,568.522,491.336,568.03,491.336z"/>
				</g>
			</g>
		</g>
	</g>
	<g>
		<g>
			<g>
				<path fill="#FFFFFF" d="M262,472.608c-5,0-10.091,2.048-14.051,5.433c-3.997-3.487-8.89-5.604-14.611-5.604
					c-11.188,0-20.317,8.079-22.22,18.72c-1.273-0.32-2.515-0.509-3.888-0.509c-8.981,0-16.221,7.738-16.221,16.719
					c0,8.981,7.666,16.633,16.647,16.633H208h54V472.608z"/>
			</g>
		</g>
		<g>
			<g>
				<path fill="#656C86" d="M208,525h-54c-1.104,0-2-0.896-2-2s0.896-2,2-2h54c1.104,0,2,0.896,2,2S209.104,525,208,525z"/>
			</g>
		</g>
		<g>
			<g>
				<path fill="#656C86" d="M207.314,525.172c-10.07,0-18.262-8.192-18.262-18.262s8.192-18.262,18.262-18.262
					c1.457,0,2.957,0.191,4.458,0.569c1.071,0.27,1.721,1.356,1.451,2.428c-0.269,1.071-1.354,1.72-2.428,1.451
					c-1.182-0.298-2.354-0.448-3.481-0.448c-7.864,0-14.262,6.397-14.262,14.262s6.398,14.262,14.262,14.262c1.104,0,2,0.896,2,2
					S208.419,525.172,207.314,525.172z"/>
			</g>
		</g>
		<g>
			<g>
				<path fill="#656C86" d="M211.287,493.157c-0.117,0-0.235-0.01-0.354-0.031c-1.087-0.194-1.811-1.233-1.617-2.32
					c2.109-11.802,12.352-20.368,24.354-20.368c5.978,0,11.751,2.165,16.257,6.097c0.832,0.726,0.918,1.989,0.192,2.821
					c-0.725,0.832-1.989,0.919-2.822,0.192c-3.777-3.295-8.617-5.11-13.627-5.11c-10.062,0-18.648,7.18-20.416,17.071
					C213.08,492.478,212.237,493.157,211.287,493.157z"/>
			</g>
		</g>
		<g>
			<g>
				<path fill="#656C86" d="M213.882,508.407c-0.696,0-1.372-0.363-1.741-1.012c-2.106-3.705-3.22-7.928-3.22-12.211
					c0-1.442,0.133-2.916,0.395-4.38c0.194-1.087,1.233-1.815,2.321-1.616c1.087,0.194,1.811,1.233,1.617,2.321
					c-0.22,1.231-0.332,2.468-0.332,3.675c0,3.591,0.933,7.13,2.698,10.234c0.546,0.96,0.21,2.181-0.75,2.727
					C214.556,508.323,214.217,508.407,213.882,508.407z"/>
			</g>
		</g>
		<g>
			<g>
				<path fill="#656C86" d="M248.612,480.041c-0.564,0-1.125-0.237-1.521-0.7c-0.717-0.84-0.619-2.103,0.221-2.82
					c4.46-3.813,10.147-5.912,16.012-5.912c1.104,0,2,0.896,2,2s-0.896,2-2,2c-4.913,0-9.677,1.759-13.414,4.953
					C249.534,479.884,249.072,480.041,248.612,480.041z"/>
			</g>
		</g>
		<g>
			<g>
				<path fill="#656C86" d="M240.662,497.27c-1.104,0-2-0.896-2-2c0-7.216,3.153-14.05,8.65-18.749
					c0.839-0.718,2.102-0.619,2.819,0.221c0.718,0.84,0.619,2.103-0.221,2.82c-4.606,3.938-7.249,9.663-7.249,15.708
					C242.662,496.374,241.767,497.27,240.662,497.27z"/>
			</g>
		</g>
		<g>
			<g>
				<path fill="#656C86" d="M144,525h-14c-1.104,0-2-0.896-2-2s0.896-2,2-2h14c1.104,0,2,0.896,2,2S145.104,525,144,525z"/>
			</g>
		</g>
	</g>
	<g>
		<g>
			<g>
				<path fill="#FFFFFF" d="M541,521V355.553c0-6.622-5.838-11.553-12.46-11.553H275.299c-6.622,0-12.299,4.93-12.299,11.553V521
					h-30.576c0,10,9.038,20,20.187,20h22.688H528.54h20.482c11.149,0,20.187-10,20.187-20H541z"/>
			</g>
		</g>
		<g>
			<g>
				<path fill="#676E8A" d="M292,431h-4v-53.742c0-5.656,5.029-10.258,11.211-10.258H336v4h-36.789
					c-3.468,0-7.211,2.393-7.211,6.258V431z"/>
			</g>
		</g>
		<g>
			<g>
				<path fill="#676E8A" d="M544,519h-4V356.303c0-5.478-3.884-9.303-9.444-9.303H276.267c-5.441,0-11.267,3.738-11.267,9.303V519
					h-4V356.303c0-8.217,7.925-13.303,15.267-13.303h254.289c7.79,0,13.444,5.595,13.444,13.303V519z"/>
			</g>
		</g>
		<g>
			<g>
				<g>
					<path fill="#676E8A" d="M548.573,543H252.162c-12.648,0-22.187-9.458-22.187-22c0-1.104,0.896-2,2-2H435c1.104,0,2,0.896,2,2
						s-0.896,2-2,2H234.071c0.912,9.384,8.239,16,18.091,16h296.411c9.852,0,17.178-6.616,18.091-16h-97.896c-1.104,0-2-0.896-2-2
						s0.896-2,2-2h99.991c1.104,0,2,0.896,2,2C570.76,533.542,561.222,543,548.573,543z"/>
				</g>
			</g>
			<g>
				<g>
					<path fill="#676E8A" d="M456.838,523h-14c-1.104,0-2-0.896-2-2s0.896-2,2-2h14c1.104,0,2,0.896,2,2S457.942,523,456.838,523z"
						/>
				</g>
			</g>
		</g>
		<g>
			<g>
				<circle fill="#C5CAE8" cx="395.74" cy="439.308" r="23.745"/>
			</g>
		</g>
		<g>
			<g>
				<path fill="#676E8A" d="M395.739,465.053c-14.196,0-25.745-11.549-25.745-25.745s11.549-25.745,25.745-25.745
					c4.164,0,8.146,0.971,11.838,2.885c0.98,0.509,1.363,1.716,0.854,2.696c-0.508,0.98-1.711,1.363-2.696,0.854
					c-3.116-1.616-6.48-2.436-9.996-2.436c-11.99,0-21.745,9.755-21.745,21.745s9.755,21.745,21.745,21.745
					s21.745-9.755,21.745-21.745c0-3.916-1.063-7.763-3.073-11.125c-0.566-0.948-0.258-2.176,0.69-2.743
					c0.948-0.566,2.176-0.259,2.743,0.69c2.381,3.982,3.64,8.539,3.64,13.178C421.484,453.504,409.936,465.053,395.739,465.053z"/>
			</g>
		</g>
		<g>
			<g>
				<path fill="none" stroke="#676E8A" stroke-width="4" stroke-miterlimit="10" d="M416.129,427.157"/>
			</g>
		</g>
	</g>
	<g>
		<g>
			<g>
				<path fill="#FFFFFF" d="M600.264,561.002c13.669,0,24.607-8.367,24.607-20.562c0-12.195-10.41-22.08-23.552-22.08
					c-2.383,0-4.562,0.329-6.733,0.934c-2.72-16.666-18.163-29.44-36.883-29.44c-8.777,0-16.812,2.816-23.188,7.516
					c-4.342-2.636-9.513-4.174-15.09-4.174c-15.259,0-27.622,11.478-27.622,25.637c0,0.111,0.123,3.266,0.124,3.377
					c-11.057,1.793-19.574,8.147-19.574,18.92c0,9.734,5.996,19.872,5.996,19.872H600.264z"/>
			</g>
		</g>
		<g>
			<g>
				<path fill="#656C86" d="M590.531,552.479c-0.405,0-0.814-0.123-1.168-0.378c-0.896-0.646-1.099-1.896-0.452-2.792
					c3.592-4.978,5.868-10.823,6.583-16.904c0.13-1.097,1.129-1.888,2.22-1.753c1.098,0.129,1.882,1.123,1.753,2.22
					c-0.795,6.756-3.323,13.249-7.312,18.777C591.764,552.19,591.152,552.479,590.531,552.479z"/>
			</g>
		</g>
		<g>
			<g>
				<path fill="#656C86" d="M723,572h-22c-1.104,0-2-0.896-2-2s0.896-2,2-2h22c1.104,0,2,0.896,2,2S724.104,572,723,572z"/>
			</g>
		</g>
		<g>
			<g>
				<path fill="#656C86" d="M477.999,563.002h-59c-1.104,0-2-0.896-2-2s0.896-2,2-2h54.579c-1.766-2.672-3.588-6.915-3.588-13.047
					c0-12.152,8.295-22.569,19.953-25.375c0.664-16.124,13.989-29.037,30.272-29.037c5.905,0,11.634,1.706,16.566,4.935
					c0.924,0.605,1.183,1.845,0.578,2.77c-0.604,0.924-1.846,1.181-2.77,0.578c-4.279-2.802-9.25-4.282-14.375-4.282
					c-14.501,0-26.299,11.798-26.299,26.299l0.009,0.353c0.008,0.978-0.692,1.817-1.655,1.985
					c-10.593,1.852-18.28,11.01-18.28,21.775c0,9.475,4.975,13.273,5.187,13.431c0.692,0.514,0.985,1.419,0.715,2.238
					C479.62,562.443,478.862,563.002,477.999,563.002z"/>
			</g>
		</g>
		<g>
			<g>
				<path fill="#656C86" d="M600.161,563.758c-1.104,0-2-0.896-2-2s0.896-2.06,2-2.06h1.676c11.083-0.792,19.84-9.365,19.84-19.789
					c0-10.944-9.511-19.849-21.201-19.849c-2.084,0-4.149,0.286-6.139,0.849c-0.547,0.156-1.139,0.069-1.62-0.237
					c-0.481-0.308-0.809-0.806-0.899-1.369c-2.517-15.648-17.153-27.449-34.046-27.449c-7.871,0-15.285,2.435-21.44,7.04
					c-0.887,0.662-2.14,0.481-2.8-0.403c-0.661-0.885-0.481-2.138,0.403-2.8c6.853-5.127,15.095-7.837,23.837-7.837
					c18.073,0,33.844,12.196,37.586,28.703c1.681-0.33,3.395-0.496,5.118-0.496c13.896,0,25.201,10.698,25.201,23.849
					c0,8.23-4.484,15.501-11.289,19.789h62.88c1.104,0,2,0.896,2,2s-0.896,2-2,2h-75.293
					C601.375,563.737,600.771,563.758,600.161,563.758z"/>
			</g>
		</g>
		<g>
			<g>
				<path fill="#656C86" d="M549.646,517.434c-0.821,0-1.591-0.51-1.883-1.327c-0.065-0.18-3.846-10.354-13.148-16.269
					c-0.932-0.592-1.207-1.828-0.614-2.761s1.828-1.207,2.761-0.614c10.528,6.692,14.6,17.826,14.769,18.297
					c0.371,1.04-0.171,2.185-1.211,2.557C550.097,517.396,549.87,517.434,549.646,517.434z"/>
			</g>
		</g>
	</g>
	<g>
		<g>
			<g>
				<path fill="#FFFFFF" d="M625.181,51.192c-57.251,0-103.663,46.411-103.663,103.663c0,22.982,7.484,44.214,20.141,61.402
					l-0.025-0.023l-11.23,36.499l36.806-11.928c16.547,11.183,36.497,17.713,57.972,17.713c57.251,0,103.663-46.411,103.663-103.663
					C728.844,97.604,682.432,51.192,625.181,51.192z"/>
			</g>
		</g>
		<g>
			<g>
				<path fill="#676E8A" d="M625.182,261.518c-20.888,0-41.057-6.016-58.427-17.412l-35.426,11.48
					c-1.065,0.343-2.232,0.069-3.03-0.717c-0.797-0.786-1.091-1.95-0.762-3.02l10.792-35.076
					c-12.968-18.146-19.812-39.519-19.812-61.919c0-58.814,47.849-106.663,106.663-106.663c58.813,0,106.663,47.849,106.664,106.663
					C731.845,213.669,683.996,261.518,625.182,261.518z M567.21,237.805c0.592,0,1.178,0.175,1.68,0.515
					c16.648,11.251,36.113,17.198,56.292,17.198c55.506,0,100.663-45.157,100.663-100.663
					c-0.001-55.506-45.158-100.663-100.664-100.663S524.518,99.349,524.518,154.855c0,21.631,6.763,42.249,19.558,59.623
					c0.673,0.914,0.755,2.095,0.294,3.066l-9.4,30.556l31.316-10.149C566.587,237.854,566.899,237.805,567.21,237.805z"/>
			</g>
		</g>
		<g>
			<g>
				<g>
					<g>
						<path fill="#FFFFFF" d="M567.208,240.805c16.547,11.183,36.497,17.713,57.972,17.713c31.552,0,59.806-14.1,78.819-36.338
							V82.019L667.387,45H559.986c-4.411,0-7.987,3.084-7.987,7.495v193.239L567.208,240.805z"/>
					</g>
				</g>
				<g>
					<g>
						<path fill="#676E8A" d="M624.805,261.018c-20.792,0-40.899-6.035-58.233-17.465l-17.572,5.602V52.495
							c0-5.413,4.724-9.495,10.987-9.495h108.444l37.568,37.992v142.111l-0.6,0.702
							C685.193,247.454,655.817,261.018,624.805,261.018z M567.354,238.055l1.004,0.679c16.732,11.308,36.251,17.284,56.447,17.284
							c29.243,0,56.96-12.659,76.194-34.767V83.046L666.343,48H559.986c-2.976,0-5.987,1.544-5.987,4.495v189.818L567.354,238.055z"
							/>
					</g>
				</g>
			</g>
			<g>
				<g>
					<g>
						<path fill="#FFFFFF" d="M667,44.68v29.524c0,4.411,3.576,7.796,7.987,7.796h29.04L667,44.68z"/>
					</g>
				</g>
				<g>
					<g>
						<path fill="#676E8A" d="M704.027,85h-29.04C669.134,85,664,79.955,664,74.204V44.68c0-1.013,0.611-1.926,1.548-2.312
							c0.936-0.387,2.014-0.168,2.727,0.551l37.527,37.82c0.711,0.716,0.922,1.79,0.533,2.722C705.947,84.393,705.037,85,704.027,85
							z M669,50.749v23.455c0,2.979,2.91,5.796,5.987,5.796h23.037L669,50.749z"/>
					</g>
				</g>
			</g>
		</g>
	</g>
	<g>
		<g>
			<g>
				<circle fill="#FFFFFF" cx="447.24" cy="46.898" r="8"/>
			</g>
			<g>
				<path fill="#656C86" d="M447.24,56.898c-5.514,0-10-4.486-10-10s4.486-10,10-10s10,4.486,10,10S452.754,56.898,447.24,56.898z
					 M447.24,40.898c-3.309,0-6,2.691-6,6s2.691,6,6,6s6-2.691,6-6S450.549,40.898,447.24,40.898z"/>
			</g>
		</g>
		<g>
			<g>
				<circle fill="#FFFFFF" cx="490.5" cy="131.5" r="8.5"/>
			</g>
			<g>
				<path fill="#656C86" d="M490.5,142c-5.79,0-10.5-4.71-10.5-10.5s4.71-10.5,10.5-10.5s10.5,4.71,10.5,10.5S496.29,142,490.5,142z
					 M490.5,125c-3.584,0-6.5,2.916-6.5,6.5s2.916,6.5,6.5,6.5s6.5-2.916,6.5-6.5S494.084,125,490.5,125z"/>
			</g>
		</g>
		<g>
			<g>
				<path fill="#656C86" d="M574.82,347.82c-6.065,0-11-4.935-11-11s4.935-11,11-11s11,4.935,11,11S580.886,347.82,574.82,347.82z
					 M574.82,329.82c-3.859,0-7,3.141-7,7s3.141,7,7,7s7-3.141,7-7S578.68,329.82,574.82,329.82z"/>
			</g>
		</g>
		<g>
			<g>
				<path fill="#656C86" d="M232.485,267.677c-6.065,0-11-4.935-11-11s4.935-11,11-11s11,4.935,11,11
					S238.551,267.677,232.485,267.677z M232.485,249.677c-3.86,0-7,3.14-7,7s3.14,7,7,7s7-3.14,7-7S236.345,249.677,232.485,249.677
					z"/>
			</g>
		</g>
		<g>
			<g>
				<path fill="#656C86" d="M184,139.529c-3.86,0-7-3.14-7-7s3.14-7,7-7s7,3.14,7,7S187.86,139.529,184,139.529z M184,129.529
					c-1.654,0-3,1.346-3,3s1.346,3,3,3s3-1.346,3-3S185.654,129.529,184,129.529z"/>
			</g>
		</g>
		<g>
			<g>
				<circle fill="#656C86" cx="340.302" cy="33.302" r="4.302"/>
			</g>
		</g>
		<g>
			<g>
				<circle fill="#656C86" cx="117.242" cy="251.435" r="5.242"/>
			</g>
		</g>
		<g>
			<g>
				<path fill="#656C86" d="M74,451.632c-4.411,0-8-3.589-8-8s3.589-8,8-8s8,3.589,8,8S78.411,451.632,74,451.632z M74,439.632
					c-2.206,0-4,1.794-4,4s1.794,4,4,4s4-1.794,4-4S76.206,439.632,74,439.632z"/>
			</g>
		</g>
		<g>
			<g>
				<path fill="#656C86" d="M685.82,455.64c-6.518,0-11.82-5.302-11.82-11.819S679.303,432,685.82,432s11.82,5.303,11.82,11.82
					S692.338,455.64,685.82,455.64z M685.82,436c-4.313,0-7.82,3.508-7.82,7.82c0,4.312,3.508,7.819,7.82,7.819
					s7.82-3.508,7.82-7.819C693.641,439.508,690.133,436,685.82,436z"/>
			</g>
		</g>
	</g>
	<g>
		<g>
			<g>
				<circle fill="#FFFFFF" cx="160.324" cy="340.681" r="47.88"/>
			</g>
			<g>
				<path fill="#656C86" d="M160.324,391.561c-28.055,0-50.88-22.824-50.88-50.88s22.825-50.88,50.88-50.88
					s50.88,22.824,50.88,50.88S188.379,391.561,160.324,391.561z M160.324,295.801c-24.747,0-44.88,20.133-44.88,44.88
					s20.133,44.88,44.88,44.88s44.88-20.133,44.88-44.88S185.071,295.801,160.324,295.801z"/>
			</g>
		</g>
		<g>
			<g>
				<g>
					<path fill="#C4CBEA" d="M188,375.973V360.11c0-10.554-8.556-19.11-19.11-19.11H167v-3.927
						c5.594-2.891,9.426-8.718,9.426-15.449c0-9.606-7.787-17.393-17.393-17.393c-9.605,0-17.392,7.787-17.392,17.393
						c0,7.1,4.26,13.197,10.359,15.899V341h-0.89c-10.554,0-19.11,8.556-19.11,19.11v15.353
						c7.731,6.307,17.592,10.098,28.324,10.098C170.761,385.562,180.369,381.971,188,375.973z"/>
				</g>
			</g>
		</g>
	</g>
	<g>
		<g>
			<g>
				<circle fill="#C5CAE8" cx="277.933" cy="103.256" r="34.399"/>
			</g>
			<g>
				<path fill="#656C86" d="M277.933,140.655c-20.622,0-37.399-16.777-37.399-37.399s16.777-37.399,37.399-37.399
					s37.399,16.777,37.399,37.399S298.555,140.655,277.933,140.655z M277.933,71.857c-17.313,0-31.399,14.085-31.399,31.399
					s14.085,31.399,31.399,31.399s31.399-14.085,31.399-31.399S295.247,71.857,277.933,71.857z"/>
			</g>
		</g>
		<g>
			<g>
				<path fill="#FFFFFF" d="M297,128.18v-11.412c0-7.603-6.164-13.767-13.767-13.767H282v-2.522
					c4.788-2.037,8.146-6.783,8.146-12.315c0-7.389-5.99-13.379-13.379-13.379s-13.379,5.99-13.379,13.379
					c0,5.321,3.114,9.903,7.612,12.058V103h-0.233c-7.603,0-13.767,6.164-13.767,13.767v9.868c5.56,4.983,12.897,8.021,20.933,8.021
					C285.1,134.656,291.709,132.237,297,128.18z"/>
			</g>
		</g>
	</g>
</g>
</svg>
