<?xml version="1.0" encoding="utf-8"?>
<!-- Generator: Adobe Illustrator 17.0.0, SVG Export Plug-In . SVG Version: 6.00 Build 0)  -->
<!DOCTYPE svg PUBLIC "-//W3C//DTD SVG 1.1//EN" "http://www.w3.org/Graphics/SVG/1.1/DTD/svg11.dtd">
<svg version="1.1" id="Capa_1" xmlns="http://www.w3.org/2000/svg" xmlns:xlink="http://www.w3.org/1999/xlink" x="0px" y="0px"
	 width="64px" height="64px" viewBox="0 0 64 64" enable-background="new 0 0 64 64" xml:space="preserve">
<g display="none">
</g>
<g>
	<g>
		<g>
			<path fill="#3E3E3D" d="M61.147,25.82c-1.204-0.18-2.439-0.353-3.672-0.514c-0.149-0.019-0.271-0.121-0.308-0.258
				c-0.569-2.065-1.395-4.058-2.455-5.924c-0.071-0.125-0.058-0.283,0.034-0.403c0.758-0.986,1.51-1.982,2.235-2.961
				c0.978-1.322,0.836-3.198-0.33-4.365L52.605,7.35c-1.166-1.166-3.042-1.308-4.365-0.33c-0.977,0.723-1.973,1.475-2.961,2.234
				c-0.119,0.092-0.278,0.105-0.403,0.034c-1.865-1.059-3.858-1.885-5.924-2.455c-0.137-0.038-0.239-0.159-0.258-0.309
				c-0.161-1.235-0.334-2.471-0.514-3.672C37.937,1.227,36.51,0,34.861,0h-5.722c-1.649,0-3.076,1.227-3.319,2.853
				c-0.18,1.202-0.353,2.437-0.514,3.672c-0.02,0.15-0.121,0.271-0.258,0.308c-2.066,0.569-4.059,1.395-5.923,2.455
				c-0.125,0.071-0.284,0.057-0.403-0.034c-0.988-0.76-1.984-1.512-2.961-2.235c-1.323-0.978-3.199-0.836-4.365,0.33L7.35,11.396
				c-1.166,1.166-1.308,3.043-0.33,4.365c0.726,0.981,1.477,1.977,2.234,2.961c0.092,0.119,0.105,0.278,0.034,0.403
				c-1.06,1.866-1.885,3.859-2.455,5.924c-0.038,0.137-0.159,0.238-0.308,0.258c-1.233,0.161-2.468,0.334-3.672,0.514
				C1.227,26.063,0,27.49,0,29.139v5.722c0,1.649,1.227,3.076,2.853,3.32c1.204,0.18,2.44,0.353,3.672,0.514
				c0.15,0.02,0.271,0.121,0.308,0.258c0.569,2.065,1.395,4.058,2.455,5.924c0.071,0.125,0.058,0.284-0.034,0.403
				c-0.759,0.986-1.511,1.983-2.234,2.961c-0.978,1.322-0.836,3.199,0.33,4.365l4.046,4.046c1.166,1.166,3.043,1.308,4.365,0.33
				c0.977-0.723,1.973-1.475,2.961-2.234c0.119-0.092,0.278-0.105,0.403-0.034c1.865,1.059,3.858,1.885,5.924,2.455
				c0.137,0.038,0.239,0.159,0.258,0.308c0.161,1.235,0.334,2.471,0.514,3.672C26.063,62.773,27.49,64,29.139,64h5.722
				c1.649,0,3.076-1.227,3.319-2.853c0.18-1.203,0.353-2.438,0.514-3.672c0.02-0.15,0.121-0.271,0.258-0.309
				c2.066-0.569,4.059-1.395,5.923-2.455c0.125-0.071,0.284-0.057,0.403,0.034c0.988,0.76,1.984,1.512,2.961,2.234
				c1.322,0.978,3.198,0.836,4.365-0.33l4.046-4.046c1.166-1.166,1.308-3.042,0.33-4.365c-0.724-0.979-1.476-1.975-2.235-2.961
				c-0.092-0.119-0.105-0.278-0.034-0.403c1.06-1.865,1.885-3.859,2.455-5.923c0.038-0.137,0.159-0.239,0.309-0.258
				c1.233-0.161,2.468-0.334,3.672-0.514C62.773,37.937,64,36.51,64,34.861v-5.722C64,27.49,62.774,26.063,61.147,25.82z
				 M61.012,34.861c0,0.181-0.132,0.338-0.307,0.364c-1.185,0.177-2.402,0.347-3.617,0.506c-1.345,0.175-2.445,1.128-2.803,2.428
				c-0.504,1.827-1.234,3.591-2.172,5.241c-0.667,1.174-0.563,2.627,0.264,3.702c0.747,0.971,1.487,1.952,2.2,2.916
				c0.105,0.142,0.088,0.346-0.04,0.474l-4.046,4.046c-0.128,0.128-0.332,0.145-0.474,0.04c-0.962-0.712-1.944-1.452-2.916-2.201
				c-1.075-0.827-2.528-0.931-3.701-0.264c-1.651,0.937-3.414,1.668-5.242,2.172c-1.299,0.358-2.252,1.458-2.428,2.803
				c-0.158,1.215-0.329,2.432-0.506,3.617c-0.026,0.175-0.183,0.307-0.364,0.307h-5.722c-0.181,0-0.338-0.132-0.364-0.307
				c-0.177-1.183-0.347-2.4-0.506-3.616c-0.175-1.345-1.128-2.445-2.428-2.803c-1.828-0.504-3.591-1.235-5.242-2.172
				c-0.515-0.292-1.083-0.436-1.65-0.436c-0.726,0-1.448,0.236-2.051,0.701c-0.973,0.748-1.954,1.489-2.916,2.201
				c-0.142,0.105-0.346,0.088-0.474-0.04l-4.046-4.046c-0.128-0.128-0.146-0.332-0.04-0.474c0.713-0.963,1.453-1.944,2.2-2.916
				c0.827-1.075,0.931-2.528,0.264-3.701c-0.938-1.651-1.668-3.415-2.172-5.242c-0.358-1.299-1.458-2.252-2.803-2.428
				c-1.214-0.158-2.431-0.329-3.617-0.506c-0.175-0.026-0.307-0.183-0.307-0.364V29.14c0-0.181,0.132-0.338,0.307-0.364
				c1.186-0.177,2.403-0.348,3.617-0.506c1.345-0.175,2.445-1.128,2.803-2.428c0.503-1.827,1.234-3.591,2.172-5.242
				c0.666-1.174,0.563-2.626-0.264-3.701c-0.746-0.969-1.486-1.95-2.2-2.916c-0.105-0.142-0.088-0.346,0.04-0.474l4.046-4.046
				c0.128-0.128,0.332-0.145,0.474-0.04c0.962,0.712,1.943,1.452,2.916,2.201c1.075,0.827,2.528,0.931,3.701,0.264
				c1.65-0.937,3.414-1.668,5.241-2.172c1.299-0.358,2.252-1.458,2.428-2.803c0.159-1.216,0.329-2.433,0.506-3.617
				c0.026-0.175,0.183-0.307,0.364-0.307h5.722c0.181,0,0.338,0.132,0.364,0.307c0.177,1.183,0.347,2.4,0.506,3.617
				c0.175,1.345,1.128,2.445,2.428,2.803c1.827,0.504,3.591,1.235,5.242,2.172c1.174,0.666,2.626,0.563,3.701-0.264
				c0.973-0.748,1.954-1.489,2.916-2.2c0.142-0.105,0.346-0.088,0.474,0.04l4.046,4.046c0.128,0.128,0.146,0.332,0.04,0.474
				c-0.713,0.964-1.453,1.945-2.2,2.916c-0.827,1.075-0.931,2.528-0.264,3.702c0.938,1.651,1.668,3.414,2.172,5.242
				c0.358,1.299,1.459,2.252,2.803,2.427c1.214,0.158,2.431,0.329,3.617,0.506c0.175,0.026,0.307,0.183,0.307,0.364L61.012,34.861
				L61.012,34.861L61.012,34.861L61.012,34.861z"/>
		</g>
	</g>
	<g>
		<g>
			<path fill="#3E3E3D" d="M32,18c-7.72,0-14,6.28-14,14s6.28,14,14,14s14-6.28,14-14S39.72,18,32,18z M32,42.988
				c-6.059,0-10.988-4.929-10.988-10.988c0-6.059,4.929-10.988,10.988-10.988c6.059,0,10.988,4.929,10.988,10.988
				S38.059,42.988,32,42.988z"/>
		</g>
	</g>
</g>
</svg>
