<?xml version="1.0" encoding="utf-8"?>
<!-- Generator: Adobe Illustrator 17.0.0, SVG Export Plug-In . SVG Version: 6.00 Build 0)  -->
<!DOCTYPE svg PUBLIC "-//W3C//DTD SVG 1.1//EN" "http://www.w3.org/Graphics/SVG/1.1/DTD/svg11.dtd" [
	<!ENTITY ns_extend "http://ns.adobe.com/Extensibility/1.0/">
	<!ENTITY ns_ai "http://ns.adobe.com/AdobeIllustrator/10.0/">
	<!ENTITY ns_graphs "http://ns.adobe.com/Graphs/1.0/">
	<!ENTITY ns_vars "http://ns.adobe.com/Variables/1.0/">
	<!ENTITY ns_imrep "http://ns.adobe.com/ImageReplacement/1.0/">
	<!ENTITY ns_sfw "http://ns.adobe.com/SaveForWeb/1.0/">
	<!ENTITY ns_custom "http://ns.adobe.com/GenericCustomNamespace/1.0/">
	<!ENTITY ns_adobe_xpath "http://ns.adobe.com/XPath/1.0/">
]>
<svg version="1.1" id="Capa_1" xmlns:x="&ns_extend;" xmlns:i="&ns_ai;" xmlns:graph="&ns_graphs;"
	 xmlns="http://www.w3.org/2000/svg" xmlns:xlink="http://www.w3.org/1999/xlink" x="0px" y="0px" width="3685.12px"
	 height="3685.039px" viewBox="0 0 3685.12 3685.039" enable-background="new 0 0 3685.12 3685.039" xml:space="preserve">
<metadata>
	<sfw  xmlns="&ns_sfw;">
		<slices></slices>
		<sliceSourceBounds  width="7110.749" height="5273.569" y="-3610.57" x="-1345" bottomLeftOrigin="true"></sliceSourceBounds>
	</sfw>
</metadata>
<rect x="0.06" y="-0.338" display="none" fill="#00B1BD" width="3685" height="3686"/>
<g opacity="0.1">
	<g>
		<circle fill="#29ABE2" cx="1842.56" cy="1842.52" r="448.672"/>
	</g>
	<g>
		<path fill="#29ABE2" d="M1842.56,2793.52c-128.351,0-252.903-25.154-370.195-74.765
			c-113.253-47.902-214.95-116.463-302.264-203.776c-87.314-87.314-155.875-189.01-203.776-302.264
			c-49.61-117.292-74.765-241.844-74.765-370.195c0-128.351,25.155-252.903,74.765-370.195
			c47.902-113.253,116.462-214.949,203.776-302.264c87.314-87.313,189.01-155.874,302.264-203.776
			c117.292-49.61,241.844-74.765,370.195-74.765c128.352,0,252.903,25.155,370.195,74.765
			c113.254,47.902,214.949,116.462,302.264,203.776c87.313,87.314,155.874,189.01,203.776,302.264
			c49.61,117.292,74.765,241.844,74.765,370.195c0,128.352-25.154,252.903-74.765,370.195
			c-47.902,113.254-116.463,214.949-203.776,302.264c-87.314,87.313-189.01,155.874-302.264,203.776
			C2095.463,2768.365,1970.911,2793.52,1842.56,2793.52z M1842.56,1041.52c-441.673,0-801,359.327-801,801s359.327,801,801,801
			s801-359.327,801-801S2284.233,1041.52,1842.56,1041.52z"/>
	</g>
	<g>
		<path fill="#29ABE2" d="M1842.56,3218.52c-185.737,0-365.944-36.388-535.617-108.153
			c-81.544-34.491-160.19-77.178-233.753-126.876c-72.851-49.217-141.355-105.737-203.609-167.992
			c-62.254-62.254-118.775-130.758-167.992-203.609c-49.698-73.563-92.385-152.208-126.875-233.753
			c-71.766-169.672-108.154-349.879-108.154-535.616c0-185.737,36.388-365.944,108.154-535.617
			c34.49-81.544,77.177-160.19,126.875-233.753c49.217-72.851,105.738-141.355,167.992-203.609s130.759-118.775,203.609-167.992
			c73.563-49.698,152.208-92.385,233.753-126.875c169.673-71.766,349.88-108.154,535.617-108.154
			c185.737,0,365.944,36.388,535.616,108.154c81.545,34.49,160.19,77.177,233.753,126.875
			c72.852,49.217,141.355,105.738,203.609,167.992c62.255,62.254,118.775,130.759,167.992,203.609
			c49.698,73.563,92.385,152.208,126.876,233.753c71.766,169.673,108.153,349.88,108.153,535.617
			c0,185.737-36.388,365.944-108.153,535.616c-34.491,81.545-77.178,160.19-126.876,233.753
			c-49.217,72.852-105.737,141.355-167.992,203.609c-62.254,62.255-130.758,118.775-203.609,167.992
			c-73.563,49.698-152.208,92.385-233.753,126.876C2208.504,3182.132,2028.297,3218.52,1842.56,3218.52z M1842.56,566.52
			c-703.589,0-1276,572.411-1276,1276s572.411,1276,1276,1276s1276-572.411,1276-1276S2546.149,566.52,1842.56,566.52z"/>
	</g>
	<g>
		<path fill="#29ABE2" d="M1853.147,3051.662c-5.482,0-9.95-4.264-9.997-9.758c-0.048-5.522,4.391-9.96,9.913-10.008
			c19.714-0.17,39.659-0.792,59.282-1.928c5.491-0.332,10.242,3.911,10.561,9.426c0.319,5.513-3.893,10.095-9.405,10.415
			c-19.949,1.154-40.225,1.854-60.266,1.854C1853.206,3051.662,1853.176,3051.662,1853.147,3051.662z M1773.464,3050.063
			c-0.191,0-0.383-0.005-0.576-0.016c-20.001-1.137-40.218-2.787-60.088-4.907c-5.492-0.586-9.469-5.513-8.883-11.004
			c0.586-5.492,5.513-9.477,11.004-8.883c19.543,2.085,39.428,3.709,59.101,4.826c5.514,0.313,9.73,5.036,9.417,10.551
			C1783.137,3045.95,1778.727,3050.063,1773.464,3050.063z M1992.293,3042.765c-4.972,0-9.28-3.704-9.91-8.766
			c-0.683-5.48,3.207-10.477,8.688-11.159c19.54-2.433,39.269-5.392,58.638-8.793c5.438-0.948,10.624,2.681,11.579,8.12
			s-2.681,10.624-8.12,11.579c-19.695,3.459-39.757,6.467-59.626,8.941C1993.122,3042.74,1992.705,3042.765,1992.293,3042.765z
			 M1634.932,3034.115c-0.571,0-1.15-0.05-1.731-0.151c-19.716-3.44-39.607-7.428-59.12-11.85
			c-5.386-1.221-8.763-6.577-7.542-11.963c1.22-5.387,6.58-8.758,11.962-7.543c19.19,4.35,38.75,8.27,58.139,11.653
			c5.44,0.95,9.082,6.131,8.132,11.571C1643.923,3030.692,1639.7,3034.115,1634.932,3034.115z M2129.442,3017.497
			c-4.498,0-8.584-3.055-9.704-7.618c-1.316-5.364,1.965-10.779,7.328-12.096c19.108-4.689,38.357-9.93,57.212-15.575
			c5.288-1.582,10.864,1.421,12.448,6.712s-1.421,10.863-6.712,12.448c-19.174,5.74-38.748,11.069-58.181,15.839
			C2131.032,3017.404,2130.23,3017.497,2129.442,3017.497z M1499.179,3002.15c-0.946,0-1.908-0.136-2.862-0.42
			c-19.173-5.719-38.463-12.004-57.335-18.681c-5.207-1.843-7.934-7.557-6.091-12.764c1.842-5.206,7.557-7.935,12.763-6.091
			c18.557,6.565,37.525,12.746,56.379,18.369c5.292,1.579,8.303,7.148,6.725,12.441
			C1507.464,2999.344,1503.487,3002.15,1499.179,3002.15z M2262.711,2976.38c-4.052,0-7.864-2.48-9.367-6.5
			c-1.935-5.173,0.69-10.935,5.863-12.869c18.385-6.876,36.848-14.313,54.875-22.105c5.07-2.194,10.956,0.143,13.146,5.211
			c2.191,5.069-0.142,10.956-5.211,13.147c-18.333,7.924-37.108,15.487-55.805,22.479
			C2265.059,2976.175,2263.875,2976.38,2262.711,2976.38z M1367.986,2954.485c-1.322,0-2.664-0.264-3.955-0.82
			c-18.398-7.934-36.851-16.447-54.847-25.303c-4.955-2.438-6.996-8.433-4.557-13.388c2.438-4.954,8.433-6.994,13.388-4.558
			c17.697,8.709,35.844,17.081,53.936,24.883c5.071,2.188,7.41,8.071,5.223,13.143
			C1375.543,2952.222,1371.858,2954.485,1367.986,2954.485z M2390.059,2920.071c-3.629,0-7.129-1.981-8.902-5.432
			c-2.524-4.912-0.588-10.94,4.324-13.465c17.473-8.979,34.959-18.523,51.975-28.37c4.782-2.768,10.898-1.133,13.664,3.646
			c2.766,4.78,1.134,10.897-3.646,13.664c-17.302,10.013-35.084,19.718-52.852,28.849
			C2393.159,2919.714,2391.598,2920.071,2390.059,2920.071z M1243.207,2891.785c-1.698,0-3.418-0.433-4.995-1.344
			c-17.337-10.02-34.661-20.618-51.492-31.5c-4.638-2.998-5.966-9.189-2.968-13.827c2.999-4.637,9.189-5.966,13.827-2.968
			c16.552,10.702,33.59,21.125,50.64,30.979c4.782,2.764,6.418,8.88,3.654,13.662
			C1250.022,2889.993,1246.661,2891.785,1243.207,2891.785z M2510.069,2849.287c-3.221,0-6.383-1.553-8.313-4.429
			c-3.077-4.586-1.854-10.799,2.731-13.876c16.334-10.96,32.608-22.477,48.371-34.229c4.429-3.302,10.693-2.388,13.994,2.039
			c3.302,4.428,2.389,10.693-2.039,13.994c-16.027,11.95-32.574,23.66-49.182,34.804
			C2513.922,2848.738,2511.985,2849.287,2510.069,2849.287z M1126.629,2815.033c-2.078,0-4.172-0.646-5.967-1.981
			c-16.056-11.962-32.026-24.489-47.468-37.233c-4.26-3.516-4.863-9.818-1.347-14.078c3.516-4.259,9.818-4.862,14.078-1.348
			c15.187,12.535,30.895,24.855,46.686,36.62c4.429,3.3,5.345,9.565,2.045,13.994
			C1132.693,2813.642,1129.68,2815.033,1126.629,2815.033z M2621.131,2765.038c-2.825,0-5.631-1.189-7.609-3.506
			c-3.586-4.199-3.09-10.512,1.11-14.099c14.965-12.78,29.809-26.107,44.118-39.61c4.019-3.792,10.345-3.606,14.137,0.41
			c3.79,4.018,3.606,10.347-0.41,14.137c-14.55,13.729-29.642,27.278-44.856,40.272
			C2625.737,2764.251,2623.428,2765.038,2621.131,2765.038z M1019.764,2725.341c-2.461,0-4.927-0.902-6.859-2.725
			c-14.56-13.731-28.971-28.012-42.83-42.443c-3.825-3.983-3.697-10.314,0.287-14.14c3.982-3.825,10.313-3.698,14.139,0.286
			c13.631,14.195,27.805,28.241,42.126,41.746c4.018,3.789,4.204,10.118,0.415,14.137
			C1025.074,2724.288,1022.422,2725.341,1019.764,2725.341z M2721.764,2668.491c-2.436,0-4.877-0.884-6.802-2.672
			c-4.048-3.758-4.282-10.085-0.524-14.132c13.394-14.426,26.607-29.384,39.273-44.459c3.553-4.229,9.862-4.776,14.089-1.224
			c4.229,3.553,4.776,9.86,1.224,14.089c-12.878,15.327-26.312,30.535-39.93,45.201
			C2727.124,2667.417,2724.448,2668.491,2721.764,2668.491z M924.004,2623.954c-2.851,0-5.682-1.212-7.66-3.565
			c-12.872-15.312-25.532-31.151-37.626-47.077c-3.34-4.398-2.482-10.672,1.916-14.012c4.398-3.341,10.672-2.482,14.012,1.916
			c11.896,15.664,24.347,31.243,37.008,46.303c3.554,4.228,3.008,10.536-1.219,14.09
			C928.559,2623.185,926.275,2623.954,924.004,2623.954z M2810.615,2560.932c-2.052,0-4.121-0.63-5.903-1.936
			c-4.454-3.266-5.418-9.522-2.153-13.978c11.646-15.888,23.047-32.281,33.886-48.726c3.039-4.61,9.243-5.884,13.854-2.846
			c4.61,3.04,5.885,9.242,2.846,13.854c-11.021,16.719-22.613,33.388-34.454,49.542
			C2816.731,2559.515,2813.694,2560.932,2810.615,2560.932z M840.624,2512.238c-3.248,0-6.434-1.58-8.356-4.494
			c-11.011-16.689-21.748-33.878-31.909-51.085c-2.808-4.756-1.229-10.888,3.526-13.695c4.756-2.809,10.887-1.23,13.696,3.525
			c9.994,16.923,20.552,33.826,31.382,50.241c3.042,4.609,1.77,10.813-2.84,13.854
			C844.427,2511.702,842.514,2512.238,840.624,2512.238z M2886.455,2443.761c-1.674,0-3.369-0.42-4.928-1.306
			c-4.803-2.727-6.486-8.83-3.76-13.633c9.729-17.14,19.152-34.755,28.011-52.358c2.482-4.934,8.491-6.92,13.428-4.438
			c4.934,2.482,6.92,8.494,4.438,13.428c-9.007,17.899-18.59,35.813-28.483,53.241
			C2893.32,2441.94,2889.937,2443.761,2886.455,2443.761z M770.778,2391.679c-3.657,0-7.179-2.013-8.938-5.501
			c-8.994-17.844-17.654-36.148-25.739-54.407c-2.236-5.05,0.045-10.956,5.095-13.192c5.048-2.235,10.956,0.045,13.192,5.095
			c7.951,17.955,16.466,35.956,25.311,53.503c2.486,4.932,0.503,10.944-4.429,13.431
			C773.827,2391.334,772.291,2391.679,770.778,2391.679z M2948.181,2318.505c-1.297,0-2.614-0.254-3.884-0.79
			c-5.088-2.146-7.473-8.012-5.326-13.101c7.668-18.171,14.975-36.779,21.718-55.31c1.89-5.189,7.628-7.862,12.817-5.978
			c5.189,1.889,7.866,7.628,5.978,12.817c-6.857,18.843-14.288,37.767-22.085,56.245
			C2955.786,2316.208,2952.08,2318.505,2948.181,2318.505z M715.461,2263.899c-4.082,0-7.914-2.517-9.395-6.573
			c-6.863-18.8-13.34-38.026-19.25-57.146c-1.631-5.276,1.325-10.876,6.601-12.507c5.276-1.636,10.876,1.324,12.507,6.601
			c5.811,18.802,12.18,37.708,18.929,56.193c1.894,5.188-0.776,10.929-5.964,12.823
			C717.758,2263.702,716.6,2263.899,715.461,2263.899z M2994.828,2186.94c-0.922,0-1.858-0.129-2.788-0.398
			c-5.305-1.536-8.358-7.083-6.821-12.388c5.476-18.898,10.544-38.193,15.064-57.349c1.269-5.375,6.654-8.708,12.029-7.436
			c5.375,1.269,8.704,6.654,7.436,12.029c-4.597,19.479-9.751,39.102-15.319,58.321
			C3003.16,2184.095,2999.165,2186.94,2994.828,2186.94z M675.382,2130.318c-4.528,0-8.631-3.097-9.721-7.694
			c-4.617-19.469-8.8-39.319-12.436-59.001c-1.003-5.431,2.586-10.646,8.017-11.65c5.43-1.001,10.647,2.586,11.65,8.018
			c3.575,19.354,7.69,38.874,12.229,58.02c1.274,5.373-2.049,10.763-7.423,12.037
			C676.922,2130.23,676.146,2130.318,675.382,2130.318z M3025.736,2050.948c-0.545,0-1.098-0.045-1.654-0.138
			c-5.447-0.907-9.129-6.059-8.222-11.507c3.229-19.393,6.013-39.146,8.274-58.715c0.635-5.486,5.592-9.426,11.082-8.785
			c5.486,0.634,9.42,5.596,8.785,11.082c-2.3,19.896-5.13,39.983-8.413,59.703
			C3034.774,2047.481,3030.536,2050.948,3025.736,2050.948z M651.184,1992.981c-5.005,0-9.326-3.75-9.92-8.843
			c-2.315-19.853-4.165-40.051-5.495-60.036c-0.367-5.511,3.802-10.275,9.313-10.643c5.503-0.372,10.275,3.802,10.643,9.313
			c1.309,19.656,3.127,39.523,5.405,59.048c0.64,5.485-3.289,10.451-8.774,11.091
			C651.962,1992.958,651.571,1992.981,651.184,1992.981z M3040.605,1912.293c-0.165,0-0.331-0.004-0.498-0.012
			c-5.516-0.271-9.769-4.962-9.498-10.479c0.963-19.619,1.451-39.565,1.451-59.283l-0.003-2.63
			c-0.014-5.523,4.453-10.227,9.976-10.227c0.009,0,0.018,0,0.025,0c5.512,0,9.985,4.665,9.999,10.179l0.003,2.576
			c0,20.043-0.496,40.37-1.475,60.314C3050.323,1908.081,3045.903,1912.293,3040.605,1912.293z M643.06,1853.662
			c-5.518,0-10-4.381-10-9.9v-1.242c0-19.622,0.476-39.481,1.416-59.024c0.265-5.516,4.954-9.765,10.468-9.508
			c5.517,0.265,9.774,4.952,9.508,10.468c-0.924,19.225-1.392,38.761-1.392,58.064l0,1.218c0.007,5.523-4.465,9.924-9.988,9.924
			C643.068,1853.662,643.064,1853.662,643.06,1853.662z M3039.281,1770.385c-5.215,0-9.609-4.045-9.967-9.326
			c-1.329-19.658-3.168-39.522-5.465-59.043c-0.646-5.485,3.278-10.455,8.763-11.1c5.487-0.642,10.454,3.277,11.101,8.763
			c2.335,19.847,4.204,40.044,5.557,60.03c0.372,5.51-3.792,10.279-9.303,10.652
			C3039.738,1770.377,3039.509,1770.385,3039.281,1770.385z M650.925,1714.525c-0.38,0-0.764-0.022-1.151-0.066
			c-5.487-0.628-9.426-5.586-8.797-11.073c2.278-19.893,5.088-39.983,8.352-59.712c0.901-5.448,6.045-9.136,11.498-8.234
			c5.449,0.901,9.135,6.049,8.234,11.498c-3.209,19.403-5.973,39.16-8.214,58.724
			C660.262,1710.762,655.937,1714.525,650.925,1714.525z M3021.827,1632.035c-4.724,0-8.926-3.363-9.82-8.175
			c-3.598-19.361-7.731-38.877-12.288-58.006c-1.28-5.373,2.038-10.766,7.41-12.045c5.378-1.283,10.766,2.039,12.045,7.411
			c4.634,19.453,8.838,39.299,12.497,58.986c1.009,5.43-2.575,10.65-8.005,11.659
			C3023.049,1631.98,3022.434,1632.035,3021.827,1632.035z M674.831,1577.137c-0.757,0-1.526-0.087-2.296-0.268
			c-5.376-1.263-8.711-6.646-7.448-12.022c4.579-19.49,9.713-39.117,15.26-58.337c1.531-5.307,7.075-8.369,12.381-6.835
			c5.307,1.531,8.366,7.075,6.835,12.381c-5.455,18.899-10.503,38.2-15.006,57.365
			C683.474,1574.029,679.367,1577.137,674.831,1577.137z M2988.385,1496.651c-4.267,0-8.218-2.751-9.548-7.04
			c-5.831-18.797-12.22-37.696-18.986-56.174c-1.899-5.186,0.765-10.93,5.95-12.829c5.188-1.899,10.93,0.766,12.829,5.951
			c6.883,18.791,13.379,38.011,19.309,57.126c1.637,5.275-1.313,10.877-6.588,12.514
			C2990.365,1496.506,2989.366,1496.651,2988.385,1496.651z M714.614,1443.472c-1.132,0-2.284-0.193-3.41-0.602
			c-5.191-1.883-7.874-7.619-5.991-12.811c6.838-18.85,14.249-37.781,22.027-56.268c2.142-5.091,8.001-7.481,13.096-5.339
			c5.09,2.142,7.481,8.005,5.339,13.095c-7.649,18.179-14.937,36.795-21.661,55.332
			C722.54,1440.946,718.702,1443.472,714.614,1443.472z M2939.386,1366.205c-3.833,0-7.489-2.215-9.146-5.944
			c-7.969-17.946-16.503-35.938-25.365-53.479c-2.491-4.929-0.515-10.944,4.415-13.435c4.929-2.491,10.944-0.514,13.436,4.416
			c9.012,17.836,17.69,36.132,25.794,54.381c2.241,5.048-0.034,10.957-5.081,13.198
			C2942.119,1365.928,2940.741,1366.205,2939.386,1366.205z M769.849,1315.18c-1.508,0-3.039-0.342-4.478-1.065
			c-4.936-2.478-6.929-8.487-4.452-13.423c8.983-17.897,18.547-35.82,28.428-53.271c2.721-4.807,8.824-6.497,13.629-3.775
			c4.806,2.721,6.497,8.823,3.775,13.629c-9.717,17.162-19.123,34.787-27.957,52.388
			C777.039,1313.16,773.511,1315.18,769.849,1315.18z M2875.538,1242.417c-3.419,0-6.748-1.753-8.615-4.908
			c-10.012-16.914-20.587-33.807-31.434-50.209c-3.046-4.607-1.78-10.811,2.826-13.857c4.607-3.046,10.81-1.782,13.857,2.826
			c11.028,16.678,21.781,33.855,31.961,51.053c2.813,4.752,1.241,10.886-3.512,13.699
			C2879.025,1241.967,2877.27,1242.417,2875.538,1242.417z M839.64,1194.269c-1.886,0-3.792-0.532-5.485-1.646
			c-4.615-3.035-5.895-9.235-2.86-13.85c11-16.726,22.575-33.406,34.403-49.578c3.26-4.457,9.516-5.429,13.975-2.167
			c4.458,3.261,5.428,9.518,2.167,13.975c-11.634,15.905-23.018,32.31-33.836,48.759
			C846.083,1192.684,842.893,1194.269,839.64,1194.269z M2797.706,1126.804c-3.018,0-5.998-1.359-7.966-3.945
			c-11.903-15.644-24.37-31.21-37.054-46.266c-3.559-4.224-3.02-10.533,1.205-14.091c4.221-3.558,10.531-3.02,14.09,1.205
			c12.896,15.308,25.572,31.135,37.675,47.041c3.345,4.396,2.493,10.669-1.902,14.014
			C2801.945,1126.138,2799.817,1126.804,2797.706,1126.804z M922.957,1082.319c-2.267,0-4.546-0.767-6.419-2.337
			c-4.232-3.549-4.787-9.856-1.238-14.088c12.86-15.338,26.279-30.561,39.884-45.243c3.754-4.051,10.081-4.292,14.132-0.538
			c4.051,3.754,4.292,10.081,0.538,14.132c-13.382,14.441-26.58,29.413-39.229,44.499
			C928.648,1081.103,925.812,1082.319,922.957,1082.319z M2706.986,1020.912c-2.624,0-5.243-1.026-7.207-3.066
			c-13.643-14.178-27.83-28.209-42.168-41.703c-4.021-3.785-4.214-10.114-0.429-14.136c3.785-4.022,10.113-4.213,14.136-0.429
			c14.577,13.72,29.002,27.985,42.873,42.4c3.829,3.979,3.707,10.31-0.272,14.139
			C2711.979,1019.984,2709.481,1020.912,2706.986,1020.912z M1018.616,980.785c-2.653,0-5.301-1.049-7.268-3.129
			c-3.794-4.013-3.617-10.342,0.396-14.137c14.539-13.747,29.617-27.312,44.815-40.318c4.197-3.591,10.509-3.1,14.1,1.096
			c3.591,4.196,3.101,10.509-1.096,14.1c-14.949,12.793-29.779,26.135-44.079,39.655
			C1023.552,979.879,1021.081,980.785,1018.616,980.785z M2604.612,926.156c-2.237,0-4.489-0.748-6.352-2.281
			c-15.205-12.522-30.925-24.827-46.725-36.573c-4.432-3.295-5.354-9.559-2.059-13.991c3.295-4.433,9.559-5.354,13.992-2.059
			c16.063,11.943,32.046,24.453,47.506,37.185c4.263,3.511,4.873,9.813,1.362,14.076
			C2610.36,924.913,2607.496,926.156,2604.612,926.156z M1125.308,891.004c-3.047,0-6.055-1.387-8.019-4.015
			c-3.306-4.424-2.399-10.69,2.025-13.996c16.028-11.977,32.564-23.703,49.146-34.854c4.582-3.082,10.797-1.865,13.878,2.718
			c3.082,4.583,1.865,10.796-2.718,13.878c-16.309,10.967-32.571,22.5-48.336,34.278
			C1129.49,890.356,1127.389,891.004,1125.308,891.004z M2491.932,843.833c-1.857,0-3.734-0.516-5.411-1.598
			c-16.562-10.685-33.61-21.09-50.672-30.928c-4.784-2.759-6.427-8.874-3.668-13.658c2.76-4.786,8.872-6.426,13.658-3.668
			c17.349,10.003,34.684,20.583,51.523,31.448c4.641,2.994,5.976,9.183,2.982,13.824
			C2498.433,842.218,2495.215,843.833,2491.932,843.833z M1241.604,814.197c-3.449,0-6.804-1.786-8.66-4.985
			c-2.771-4.777-1.145-10.896,3.633-13.667c17.295-10.031,35.066-19.755,52.821-28.902c4.909-2.529,10.939-0.6,13.47,4.31
			c2.529,4.909,0.6,10.94-4.31,13.469c-17.461,8.996-34.938,18.559-51.946,28.424
			C1245.033,813.762,1243.307,814.197,1241.604,814.197z M2370.414,775.114c-1.479,0-2.98-0.33-4.398-1.025
			c-17.708-8.691-35.863-17.045-53.962-24.828c-5.074-2.182-7.418-8.063-5.236-13.137c2.182-5.075,8.062-7.42,13.137-5.236
			c18.405,7.915,36.867,16.409,54.874,25.247c4.958,2.434,7.004,8.425,4.571,13.383
			C2377.661,773.058,2374.109,775.114,2370.414,775.114z M1365.951,751.445c-3.865,0-7.545-2.253-9.181-6.025
			c-2.196-5.067,0.131-10.956,5.198-13.152c18.33-7.945,37.097-15.528,55.781-22.537c5.17-1.94,10.935,0.679,12.875,5.851
			c1.94,5.171-0.679,10.935-5.85,12.875c-18.373,6.893-36.828,14.349-54.853,22.162
			C1368.627,751.179,1367.278,751.445,1365.951,751.445z M2241.648,721.013c-1.104,0-2.227-0.184-3.326-0.572
			c-18.561-6.546-37.535-12.707-56.398-18.313c-5.294-1.573-8.311-7.14-6.737-12.434c1.573-5.294,7.143-8.309,12.435-6.738
			c19.182,5.7,38.479,11.965,57.354,18.623c5.208,1.837,7.941,7.548,6.104,12.757
			C2249.629,718.445,2245.77,721.013,2241.648,721.013z M1496.797,703.606c-4.3,0-8.272-2.794-9.573-7.125
			c-1.589-5.289,1.41-10.865,6.699-12.455c19.164-5.76,38.734-11.109,58.166-15.898c5.363-1.322,10.781,1.953,12.103,7.315
			s-1.954,10.781-7.316,12.103c-19.108,4.71-38.352,9.97-57.197,15.633C1498.719,703.469,1497.749,703.606,1496.797,703.606z
			 M2107.644,682.41c-0.729,0-1.469-0.08-2.209-0.248c-19.187-4.328-38.751-8.229-58.15-11.593
			c-5.441-0.944-9.088-6.121-8.144-11.562c0.943-5.441,6.118-9.086,11.562-8.144c19.728,3.422,39.623,7.389,59.133,11.79
			c5.388,1.215,8.77,6.568,7.555,11.956C2116.342,679.255,2112.215,682.41,2107.644,682.41z M1632.464,671.357
			c-4.76,0-8.979-3.412-9.835-8.262c-0.961-5.439,2.669-10.626,8.108-11.587c19.693-3.479,39.751-6.507,59.616-9.002
			c5.475-0.687,10.48,3.197,11.168,8.676c0.688,5.48-3.197,10.48-8.676,11.168c-19.537,2.453-39.262,5.431-58.629,8.853
			C1633.628,671.306,1633.042,671.357,1632.464,671.357z M1970.053,659.715c-0.351,0-0.705-0.019-1.063-0.056
			c-19.549-2.065-39.435-3.669-59.104-4.766c-5.515-0.307-9.735-5.027-9.428-10.542c0.307-5.514,5.02-9.744,10.541-9.427
			c19.999,1.115,40.217,2.746,60.093,4.845c5.492,0.58,9.474,5.503,8.894,10.995C1979.444,655.9,1975.105,659.715,1970.053,659.715z
			 M1770.965,655.12c-5.254,0-9.661-4.099-9.974-9.413c-0.324-5.513,3.882-10.453,9.395-10.778
			c19.944-1.174,40.219-1.268,60.262-2.268c0.033,0,0.066,0,0.099,0c5.479,0,9.944,4.621,9.997,10.11
			c0.054,5.523-4.38,10.146-9.902,10.2c-19.718,0.19-39.662,0.924-59.28,2.079C1771.362,655.063,1771.162,655.12,1770.965,655.12z"
			/>
	</g>
	<g>
		<g>
			<path fill="#29ABE2" d="M1808.432,3601.17c-0.065,0-0.13,0-0.195-0.002c-19.92-0.382-40.073-1.105-59.898-2.152
				c-5.515-0.291-9.75-4.999-9.459-10.514c0.292-5.515,4.991-9.718,10.514-9.459c19.603,1.035,39.529,1.752,59.227,2.129
				c5.521,0.105,9.912,4.668,9.806,10.189C1818.323,3596.819,1813.865,3601.17,1808.432,3601.17z M1887.906,3600.919
				c-5.405,0-9.854-4.311-9.992-9.745c-0.141-5.521,4.222-10.111,9.742-10.252c19.688-0.501,39.612-1.344,59.221-2.503
				c5.523-0.335,10.248,3.879,10.573,9.392c0.326,5.514-3.879,10.247-9.392,10.573c-19.831,1.173-39.982,2.025-59.893,2.532
				C1888.078,3600.918,1887.991,3600.919,1887.906,3600.919z M1669.643,3593.056c-0.327,0-0.657-0.017-0.989-0.049
				c-19.805-1.944-39.84-4.255-59.547-6.868c-5.475-0.726-9.325-5.753-8.599-11.228c0.726-5.474,5.748-9.327,11.228-8.599
				c19.483,2.583,39.291,4.867,58.872,6.79c5.497,0.539,9.515,5.433,8.975,10.93
				C1679.076,3589.197,1674.726,3593.056,1669.643,3593.056z M2026.648,3591.923c-5.056,0-9.396-3.821-9.934-8.961
				c-0.575-5.493,3.412-10.411,8.905-10.986c19.575-2.047,39.367-4.458,58.826-7.166c5.464-0.767,10.521,3.057,11.282,8.526
				s-3.056,10.521-8.525,11.282c-19.683,2.739-39.702,5.179-59.503,7.25C2027.346,3591.905,2026.994,3591.923,2026.648,3591.923z
				 M1531.918,3573.992c-0.585,0-1.179-0.052-1.776-0.159c-19.587-3.51-39.376-7.408-58.817-11.586
				c-5.4-1.16-8.836-6.478-7.676-11.877c1.16-5.399,6.478-8.834,11.877-7.677c19.218,4.13,38.781,7.983,58.144,11.453
				c5.437,0.975,9.053,6.172,8.079,11.608C1540.882,3570.594,1536.667,3573.992,1531.918,3573.992z M2164.245,3571.976
				c-4.724,0-8.925-3.362-9.819-8.174c-1.01-5.431,2.573-10.65,8.003-11.66c19.33-3.593,38.866-7.572,58.068-11.827
				c5.386-1.199,10.73,2.206,11.927,7.6c1.194,5.392-2.208,10.731-7.6,11.926c-19.424,4.305-39.187,8.331-58.74,11.965
				C2165.467,3571.92,2164.852,3571.976,2164.245,3571.976z M1396.14,3544.009c-0.843,0-1.699-0.107-2.552-0.332
				c-19.24-5.064-38.654-10.532-57.705-16.254c-5.29-1.588-8.29-7.164-6.701-12.453c1.589-5.29,7.164-8.291,12.454-6.701
				c18.832,5.655,38.023,11.061,57.043,16.066c5.341,1.406,8.531,6.875,7.125,12.216
				C1404.623,3541.039,1400.573,3544.009,1396.14,3544.009z M2299.823,3541.116c-4.407,0-8.443-2.937-9.647-7.395
				c-1.44-5.332,1.714-10.821,7.045-12.262c18.995-5.133,38.152-10.662,56.938-16.436c5.28-1.623,10.873,1.342,12.496,6.621
				c1.623,5.278-1.342,10.874-6.621,12.496c-19.002,5.841-38.381,11.435-57.596,16.626
				C2301.565,3541.003,2300.687,3541.116,2299.823,3541.116z M1262.991,3503.185c-1.1,0-2.217-0.183-3.313-0.567
				c-18.813-6.605-37.78-13.634-56.374-20.891c-5.145-2.008-7.688-7.806-5.681-12.951c2.008-5.145,7.808-7.69,12.951-5.68
				c18.382,7.173,37.131,14.121,55.729,20.65c5.211,1.83,7.952,7.537,6.123,12.748
				C1270.981,3500.61,1267.118,3503.185,1262.991,3503.185z M2432.502,3499.506c-4.104,0-7.951-2.545-9.414-6.63
				c-1.862-5.2,0.843-10.925,6.042-12.787c18.501-6.628,37.154-13.674,55.44-20.941c5.131-2.04,10.946,0.468,12.986,5.6
				s-0.467,10.946-5.6,12.986c-18.498,7.352-37.367,14.479-56.083,21.184C2434.76,3499.317,2433.621,3499.506,2432.502,3499.506z
				 M1133.431,3451.77c-1.356,0-2.734-0.276-4.053-0.862c-18.21-8.086-36.54-16.605-54.481-25.321
				c-4.967-2.414-7.038-8.397-4.625-13.365c2.414-4.967,8.396-7.038,13.365-4.625c17.736,8.616,35.857,17.039,53.859,25.032
				c5.047,2.241,7.322,8.15,5.081,13.198C1140.921,3449.555,1137.264,3451.77,1133.431,3451.77z M2561.256,3447.487
				c-3.811,0-7.451-2.19-9.12-5.89c-2.272-5.034-0.033-10.957,5.001-13.228c17.863-8.063,35.849-16.552,53.455-25.232
				c4.955-2.444,10.95-0.407,13.392,4.547c2.442,4.953,0.407,10.948-4.546,13.391c-17.811,8.782-36.004,17.369-54.074,25.524
				C2564.029,3447.2,2562.631,3447.487,2561.256,3447.487z M1008.478,3390.186c-1.613,0-3.25-0.392-4.767-1.216
				c-17.494-9.51-35.075-19.46-52.254-29.573c-4.759-2.802-6.346-8.931-3.544-13.69c2.802-4.759,8.931-6.348,13.691-3.544
				c16.983,9.997,34.364,19.834,51.659,29.235c4.852,2.638,6.647,8.71,4.01,13.563
				C1015.46,3388.295,1012.025,3390.186,1008.478,3390.186z M2685.358,3385.415c-3.526,0-6.945-1.869-8.768-5.177
				c-2.665-4.837-0.904-10.919,3.934-13.584c17.179-9.465,34.444-19.364,51.317-29.425c4.743-2.829,10.882-1.276,13.71,3.468
				c2.829,4.744,1.276,10.882-3.468,13.71c-17.067,10.177-34.532,20.19-51.908,29.765
				C2688.645,3385.015,2686.99,3385.415,2685.358,3385.415z M888.899,3318.87c-1.872,0-3.765-0.524-5.45-1.623
				c-16.681-10.871-33.406-22.18-49.71-33.615c-4.522-3.171-5.617-9.407-2.446-13.93c3.173-4.521,9.408-5.615,13.929-2.444
				c16.12,11.305,32.655,22.486,49.146,33.233c4.627,3.016,5.934,9.211,2.918,13.838
				C895.369,3317.271,892.166,3318.87,888.899,3318.87z M2804.207,3313.635c-3.249,0-6.436-1.581-8.357-4.495
				c-3.041-4.611-1.769-10.813,2.842-13.854c16.388-10.809,32.825-22.054,48.854-33.423c4.509-3.197,10.749-2.133,13.942,2.371
				c3.195,4.504,2.134,10.746-2.371,13.941c-16.212,11.5-32.838,22.874-49.414,33.806
				C2808.007,3313.1,2806.097,3313.635,2804.207,3313.635z M775.415,3238.318c-2.132,0-4.281-0.679-6.1-2.081
				c-15.753-12.148-31.521-24.742-46.868-37.43c-4.256-3.52-4.854-9.822-1.335-14.079c3.519-4.256,9.824-4.854,14.079-1.335
				c15.172,12.545,30.763,24.995,46.337,37.006c4.374,3.373,5.185,9.652,1.813,14.025
				C781.371,3236.979,778.409,3238.318,775.415,3238.318z M2917.052,3232.621c-2.977,0-5.921-1.322-7.894-3.852
				c-3.396-4.355-2.617-10.639,1.738-14.035c15.501-12.086,31.006-24.602,46.082-37.201c4.24-3.542,10.546-2.978,14.086,1.261
				c3.542,4.237,2.978,10.544-1.261,14.086c-15.249,12.743-30.932,25.403-46.61,37.628
				C2921.367,3231.932,2919.201,3232.621,2917.052,3232.621z M668.709,3149.073c-2.395,0-4.797-0.854-6.711-2.589
				c-14.745-13.358-29.462-27.151-43.743-40.997c-3.965-3.845-4.063-10.176-0.219-14.141c3.846-3.965,10.177-4.061,14.141-0.219
				c14.12,13.689,28.67,27.327,43.249,40.534c4.093,3.708,4.405,10.032,0.697,14.125
				C674.15,3147.965,671.434,3149.073,668.709,3149.073z M3023.189,3142.9c-2.708,0-5.406-1.093-7.379-3.247
				c-3.729-4.074-3.45-10.4,0.623-14.129c14.503-13.276,28.978-26.984,43.023-40.745c3.943-3.865,10.276-3.8,14.141,0.146
				c3.865,3.945,3.801,10.276-0.145,14.142c-14.206,13.917-28.847,27.782-43.514,41.21
				C3028.019,3142.032,3025.6,3142.9,3023.189,3142.9z M569.429,3051.715c-2.659,0-5.313-1.054-7.28-3.142
				c-13.635-14.471-27.211-29.376-40.352-44.304c-3.649-4.146-3.247-10.465,0.899-14.113c4.146-3.65,10.464-3.246,14.114,0.898
				c12.991,14.759,26.414,29.496,39.895,43.802c3.787,4.02,3.599,10.349-0.42,14.137
				C574.354,3050.813,571.889,3051.715,569.429,3051.715z M3121.95,3045.036c-2.442,0-4.89-0.889-6.817-2.687
				c-4.039-3.767-4.26-10.095-0.493-14.134c13.412-14.382,26.766-29.197,39.688-44.034c3.628-4.165,9.945-4.6,14.109-0.972
				c4.164,3.627,4.6,9.943,0.972,14.108c-13.071,15.006-26.577,29.991-40.143,44.538
				C3127.297,3043.968,3124.627,3045.036,3121.95,3045.036z M478.183,2946.867c-2.927,0-5.828-1.278-7.803-3.738
				c-12.441-15.492-24.792-31.416-36.708-47.328c-3.311-4.421-2.411-10.688,2.01-13.998c4.421-3.313,10.688-2.411,13.999,2.01
				c11.782,15.733,23.992,31.477,36.293,46.793c3.458,4.306,2.771,10.601-1.535,14.059
				C482.592,2946.147,480.38,2946.867,478.183,2946.867z M3212.713,2939.635c-2.18,0-4.374-0.709-6.214-2.17
				c-4.324-3.436-5.045-9.727-1.609-14.051c12.249-15.417,24.395-31.249,36.1-47.056c3.286-4.438,9.549-5.37,13.987-2.085
				c4.438,3.286,5.372,9.549,2.085,13.987c-11.839,15.987-24.123,32.001-36.512,47.595
				C3218.575,2938.341,3215.658,2939.635,3212.713,2939.635z M395.543,2835.189c-3.199,0-6.341-1.531-8.276-4.375
				c-11.172-16.42-22.219-33.262-32.83-50.058c-2.95-4.669-1.556-10.846,3.113-13.796c4.67-2.948,10.846-1.556,13.795,3.113
				c10.492,16.605,21.412,33.256,32.458,49.488c3.107,4.566,1.924,10.787-2.642,13.894
				C399.438,2834.627,397.48,2835.189,395.543,2835.189z M3294.887,2827.338c-1.92,0-3.859-0.552-5.572-1.703
				c-4.583-3.082-5.799-9.296-2.717-13.879c10.987-16.336,21.844-33.089,32.27-49.793c2.925-4.686,9.093-6.11,13.778-3.188
				c4.685,2.924,6.112,9.093,3.188,13.778c-10.546,16.896-21.527,33.841-32.641,50.365
				C3301.263,2825.788,3298.104,2827.338,3294.887,2827.338z M322.043,2717.377c-3.476,0-6.853-1.814-8.697-5.05
				c-9.83-17.246-19.499-34.9-28.737-52.473c-2.57-4.889-0.69-10.935,4.198-13.505c4.888-2.571,10.934-0.69,13.504,4.198
				c9.133,17.373,18.691,34.826,28.41,51.875c2.735,4.798,1.063,10.905-3.735,13.64
				C325.423,2716.953,323.721,2717.377,322.043,2717.377z M3367.923,2708.821c-1.661,0-3.344-0.414-4.895-1.286
				c-4.813-2.708-6.521-8.806-3.813-13.619c9.666-17.181,19.16-34.754,28.219-52.229c2.542-4.903,8.578-6.819,13.479-4.276
				c4.903,2.541,6.818,8.576,4.276,13.48c-9.163,17.678-18.766,35.453-28.543,52.832
				C3374.812,2706.985,3371.418,2708.821,3367.923,2708.821z M258.166,2594.174c-3.758,0-7.36-2.129-9.061-5.757
				c-8.423-17.963-16.65-36.317-24.453-54.554c-2.172-5.077,0.183-10.955,5.26-13.127s10.956,0.183,13.127,5.26
				c7.713,18.027,15.846,36.172,24.173,53.931c2.345,5,0.192,10.954-4.809,13.299
				C261.032,2593.869,259.588,2594.174,258.166,2594.174z M3431.317,2584.799c-1.403,0-2.828-0.297-4.186-0.924
				c-5.015-2.314-7.203-8.257-4.888-13.271c8.267-17.905,16.331-36.191,23.969-54.351c2.142-5.091,8.003-7.479,13.095-5.341
				c5.091,2.141,7.482,8.004,5.341,13.095c-7.727,18.37-15.884,36.868-24.246,54.979
				C3438.713,2582.645,3435.096,2584.799,3431.317,2584.799z M204.338,2466.365c-4.049,0-7.86-2.478-9.365-6.493
				c-6.982-18.623-13.736-37.628-20.076-56.487c-1.76-5.235,1.057-10.905,6.292-12.665c5.233-1.761,10.905,1.058,12.665,6.292
				c6.267,18.643,12.944,37.431,19.846,55.84c1.939,5.172-0.682,10.936-5.853,12.874
				C206.69,2466.158,205.504,2466.365,204.338,2466.365z M3484.618,2456.031c-1.146,0-2.312-0.198-3.449-0.617
				c-5.184-1.905-7.842-7.652-5.936-12.836c6.807-18.517,13.384-37.403,19.548-56.137c1.726-5.247,7.378-8.103,12.625-6.374
				c5.245,1.726,8.099,7.378,6.373,12.625c-6.235,18.95-12.889,38.057-19.774,56.786
				C3492.518,2453.524,3488.691,2456.031,3484.618,2456.031z M160.778,2334.316c-4.351,0-8.354-2.862-9.61-7.254
				c-5.467-19.118-10.678-38.603-15.489-57.911c-1.335-5.359,1.927-10.786,7.285-12.121c5.357-1.336,10.786,1.926,12.122,7.285
				c4.756,19.088,9.908,38.35,15.312,57.249c1.519,5.31-1.555,10.846-6.866,12.364
				C162.614,2334.191,161.688,2334.316,160.778,2334.316z M3527.388,2323.531c-0.89,0-1.794-0.12-2.692-0.371
				c-5.32-1.483-8.43-6.999-6.946-12.318c5.286-18.947,10.313-38.242,14.942-57.348c1.3-5.367,6.708-8.67,12.073-7.364
				c5.368,1.301,8.665,6.706,7.364,12.073c-4.684,19.328-9.769,38.846-15.115,58.012
				C3535.781,2320.637,3531.763,2323.531,3527.388,2323.531z M127.93,2199.209c-4.666,0-8.838-3.281-9.793-8.03
				c-3.921-19.497-7.558-39.335-10.811-58.962c-0.903-5.448,2.782-10.598,8.231-11.5c5.455-0.905,10.598,2.782,11.5,8.23
				c3.215,19.402,6.811,39.014,10.687,58.288c1.089,5.415-2.418,10.687-7.833,11.775
				C129.247,2199.145,128.583,2199.209,127.93,2199.209z M3559.364,2188.212c-0.633,0-1.274-0.061-1.919-0.186
				c-5.421-1.054-8.962-6.303-7.908-11.725c3.752-19.298,7.221-38.933,10.312-58.357c0.868-5.454,5.995-9.161,11.447-8.305
				c5.454,0.868,9.172,5.993,8.305,11.447c-3.127,19.65-6.636,39.511-10.431,59.031
				C3568.24,2184.896,3564.054,2188.212,3559.364,2188.212z M105.976,2061.916c-4.994,0-9.311-3.734-9.917-8.816
				c-2.354-19.733-4.403-39.796-6.089-59.63c-0.468-5.502,3.614-10.343,9.118-10.811c5.501-0.464,10.343,3.613,10.811,9.117
				c1.667,19.608,3.693,39.443,6.021,58.954c0.654,5.483-3.261,10.46-8.745,11.114
				C106.771,2061.893,106.371,2061.916,105.976,2061.916z M3580.436,2050.779c-0.375,0-0.753-0.021-1.134-0.064
				c-5.488-0.619-9.436-5.569-8.816-11.058c2.203-19.518,4.102-39.366,5.645-58.993c0.432-5.506,5.255-9.607,10.752-9.187
				c5.506,0.433,9.618,5.247,9.187,10.753c-1.561,19.852-3.48,39.928-5.708,59.669
				C3589.783,2047.005,3585.456,2050.779,3580.436,2050.779z M94.983,1923.312c-5.34,0-9.771-4.219-9.985-9.603
				c-0.79-19.846-1.254-40.043-1.378-59.938c-0.035-5.523,4.414-10.109,9.937-10.109c0.021,0,0.043,0,0.064,0
				c5.494,0,9.964,4.482,9.999,9.984c0.123,19.673,0.582,39.621,1.363,59.245c0.22,5.519-4.076,10.182-9.594,10.402
				C95.252,1923.298,95.117,1923.312,94.983,1923.312z M3590.547,1912.112c-0.114,0-0.228-0.002-0.342-0.006
				c-5.52-0.185-9.845-4.809-9.659-10.329c0.657-19.637,0.99-39.574,0.99-59.257l-0.002-2.679
				c-0.007-5.523,4.466-10.178,9.988-10.178c0.004,0,0.008,0,0.012,0c5.518,0,9.993,4.636,10,10.155l0.002,2.619
				c0,19.906-0.337,40.109-1.002,59.968C3600.354,1907.81,3595.914,1912.112,3590.547,1912.112z M94.896,1784.299
				c-0.129,0-0.259-0.002-0.39-0.007c-5.519-0.212-9.821-4.857-9.609-10.376c0.763-19.889,1.875-40.023,3.306-59.847
				c0.398-5.509,5.191-9.646,10.694-9.254c5.508,0.397,9.651,5.186,9.254,10.694c-1.415,19.6-2.515,39.509-3.269,59.174
				C104.675,1780.071,100.242,1784.299,94.896,1784.299z M3589.641,1770.536c-5.312,0-9.734-4.18-9.981-9.54
				c-0.907-19.669-2.162-39.57-3.729-59.149c-0.441-5.506,3.665-10.326,9.17-10.767c5.493-0.434,10.325,3.665,10.767,9.17
				c1.585,19.803,2.854,39.931,3.771,59.824c0.255,5.517-4.012,10.196-9.528,10.45
				C3589.952,1770.532,3589.796,1770.536,3589.641,1770.536z M105.697,1645.685c-0.391,0-0.785-0.022-1.182-0.069
				c-5.485-0.646-9.408-5.617-8.762-11.102c2.33-19.772,5.031-39.759,8.027-59.403c0.833-5.459,5.931-9.216,11.394-8.378
				c5.459,0.833,9.21,5.934,8.378,11.394c-2.963,19.421-5.633,39.181-7.936,58.728
				C115.016,1641.942,110.697,1645.685,105.697,1645.685z M3577.756,1632.007c-4.967,0-9.273-3.696-9.91-8.752
				c-2.455-19.52-5.281-39.256-8.398-58.663c-0.875-5.453,2.835-10.583,8.288-11.459c5.444-0.879,10.583,2.834,11.46,8.288
				c3.152,19.63,6.01,39.594,8.494,59.338c0.689,5.479-3.194,10.48-8.674,11.17
				C3578.593,1631.981,3578.171,1632.007,3577.756,1632.007z M127.446,1508.358c-0.649,0-1.307-0.063-1.967-0.195
				c-5.416-1.081-8.931-6.348-7.85-11.763c3.893-19.509,8.178-39.217,12.737-58.579c1.266-5.376,6.652-8.706,12.026-7.441
				c5.376,1.265,8.708,6.65,7.442,12.025c-4.507,19.14-8.744,38.623-12.592,57.909
				C136.293,1505.069,132.116,1508.358,127.446,1508.358z M3554.923,1494.859c-4.639,0-8.799-3.247-9.78-7.968
				c-4.001-19.259-8.392-38.708-13.049-57.806c-1.309-5.365,1.979-10.776,7.346-12.084c5.369-1.309,10.775,1.981,12.085,7.346
				c4.711,19.32,9.152,38.994,13.2,58.476c1.123,5.407-2.35,10.702-7.757,11.825
				C3556.282,1494.791,3555.598,1494.859,3554.923,1494.859z M160.083,1373.2c-0.906,0-1.826-0.124-2.74-0.384
				c-5.313-1.51-8.395-7.042-6.884-12.354c5.44-19.133,11.289-38.437,17.384-57.374c1.692-5.257,7.328-8.148,12.583-6.456
				c5.257,1.692,8.147,7.325,6.455,12.583c-6.025,18.721-11.807,37.803-17.185,56.716
				C168.447,1370.331,164.44,1373.2,160.083,1373.2z M3521.216,1359.967c-4.326,0-8.313-2.83-9.592-7.191
				c-5.528-18.872-11.461-37.907-17.634-56.577c-1.734-5.244,1.111-10.9,6.354-12.634c5.245-1.733,10.901,1.112,12.634,6.355
				c6.245,18.887,12.247,38.143,17.839,57.234c1.553,5.3-1.485,10.855-6.786,12.408
				C3523.094,1359.836,3522.147,1359.967,3521.216,1359.967z M203.506,1240.897c-1.162,0-2.344-0.204-3.497-0.634
				c-5.174-1.931-7.803-7.692-5.871-12.866c6.976-18.687,14.374-37.509,21.988-55.943c2.108-5.105,7.956-7.532,13.06-5.425
				c5.104,2.108,7.534,7.956,5.425,13.061c-7.527,18.223-14.841,36.83-21.737,55.302
				C211.374,1238.413,207.559,1240.897,203.506,1240.897z M3476.819,1228.201c-4.025,0-7.82-2.448-9.343-6.433
				c-6.992-18.294-14.405-36.736-22.033-54.812c-2.147-5.088,0.236-10.954,5.325-13.102c5.084-2.145,10.953,0.237,13.101,5.326
				c7.717,18.285,15.216,36.941,22.289,55.448c1.972,5.159-0.612,10.939-5.771,12.911
				C3479.212,1227.989,3478.005,1228.201,3476.819,1228.201z M257.438,1112.396c-1.419,0-2.86-0.303-4.23-0.944
				c-5.002-2.34-7.161-8.292-4.821-13.295c8.444-18.053,17.319-36.21,26.378-53.967c2.51-4.92,8.532-6.873,13.453-4.363
				c4.919,2.51,6.873,8.533,4.363,13.453c-8.957,17.554-17.73,35.503-26.078,53.35
				C264.803,1110.262,261.199,1112.396,257.438,1112.396z M3422.176,1100.738c-3.735,0-7.318-2.102-9.033-5.699
				c-8.44-17.703-17.307-35.509-26.352-52.926c-2.546-4.901-0.636-10.938,4.265-13.483c4.898-2.547,10.938-0.637,13.483,4.265
				c9.15,17.618,18.119,35.63,26.656,53.537c2.377,4.985,0.263,10.954-4.723,13.33
				C3425.084,1100.424,3423.618,1100.738,3422.176,1100.738z M321.441,988.689c-1.676,0-3.375-0.422-4.937-1.31
				c-4.8-2.732-6.477-8.838-3.745-13.638c9.853-17.311,20.142-34.692,30.581-51.661c2.894-4.704,9.054-6.172,13.757-3.277
				c4.704,2.894,6.171,9.053,3.277,13.757c-10.321,16.775-20.493,33.958-30.233,51.073
				C328.298,986.873,324.918,988.689,321.441,988.689z M3357.513,977.944c-3.453,0-6.812-1.79-8.666-4.994
				c-9.835-17-20.096-34.058-30.496-50.701c-2.927-4.683-1.503-10.853,3.181-13.779c4.684-2.925,10.853-1.504,13.78,3.18
				c10.52,16.834,20.898,34.089,30.847,51.284c2.767,4.781,1.133,10.898-3.647,13.664
				C3360.935,977.51,3359.212,977.944,3357.513,977.944z M395.062,870.534c-1.936,0-3.891-0.561-5.613-1.731
				c-4.567-3.104-5.753-9.324-2.649-13.892c11.19-16.463,22.821-32.963,34.57-49.042c3.258-4.46,9.514-5.433,13.974-2.174
				c4.459,3.258,5.433,9.515,2.174,13.974c-11.615,15.896-23.114,32.21-34.177,48.486C401.406,869,398.261,870.534,395.062,870.534z
				 M3283.256,860.601c-3.177,0-6.3-1.51-8.24-4.323c-11.146-16.158-22.732-32.359-34.438-48.154
				c-3.288-4.437-2.357-10.7,2.08-13.988c4.438-3.29,10.7-2.356,13.988,2.079c11.84,15.976,23.56,32.363,34.833,48.707
				c3.136,4.546,1.993,10.773-2.553,13.91C3287.192,860.028,3285.214,860.601,3283.256,860.601z M477.793,758.642
				c-2.196,0-4.407-0.72-6.252-2.202c-4.308-3.457-4.997-9.751-1.54-14.058c12.452-15.516,25.347-31.036,38.325-46.129
				c3.601-4.188,9.915-4.663,14.103-1.063c4.188,3.601,4.663,9.915,1.062,14.103c-12.832,14.922-25.581,30.267-37.892,45.607
				C483.623,757.362,480.72,758.642,477.793,758.642z M3199.899,749.45c-2.905,0-5.786-1.26-7.763-3.689
				c-12.407-15.25-25.246-30.492-38.157-45.305c-3.629-4.164-3.196-10.48,0.967-14.109c4.165-3.628,10.48-3.196,14.109,0.967
				c13.06,14.983,26.045,30.4,38.595,45.824c3.485,4.284,2.839,10.583-1.445,14.068
				C3204.35,748.715,3202.117,749.45,3199.899,749.45z M569.082,653.689c-2.459,0-4.923-0.901-6.854-2.72
				c-4.021-3.787-4.21-10.115-0.424-14.135c13.639-14.483,27.712-28.929,41.83-42.938c3.92-3.891,10.252-3.865,14.143,0.055
				s3.865,10.251-0.055,14.142c-13.958,13.851-27.873,28.134-41.357,42.453C574.396,652.634,571.741,653.689,569.082,653.689z
				 M3107.976,645.184c-2.639,0-5.271-1.037-7.236-3.096c-13.574-14.223-27.582-28.412-41.635-42.172
				c-3.946-3.864-4.013-10.195-0.148-14.142c3.863-3.944,10.194-4.013,14.141-0.148c14.213,13.917,28.382,28.268,42.111,42.653
				c3.813,3.995,3.665,10.325-0.33,14.139C3112.942,644.267,3110.456,645.184,3107.976,645.184z M668.333,556.313
				c-2.725,0-5.438-1.106-7.412-3.284c-3.709-4.092-3.399-10.417,0.693-14.125c14.728-13.35,29.891-26.634,45.069-39.483
				c4.214-3.569,10.524-3.045,14.094,1.171c3.568,4.215,3.044,10.525-1.171,14.094c-15.006,12.704-29.999,25.838-44.559,39.037
				C673.132,555.458,670.728,556.313,668.333,556.313z M3008.065,548.461c-2.373,0-4.754-0.839-6.662-2.546
				c-14.674-13.122-29.766-26.167-44.856-38.77c-4.238-3.54-4.806-9.846-1.265-14.085c3.541-4.239,9.847-4.804,14.085-1.266
				c15.264,12.748,30.527,25.941,45.368,39.212c4.117,3.682,4.47,10.003,0.788,14.12
				C3013.547,547.335,3010.812,548.461,3008.065,548.461z M774.918,467.116c-2.993,0-5.953-1.338-7.923-3.891
				c-3.374-4.372-2.565-10.652,1.807-14.026c15.741-12.148,31.898-24.187,48.024-35.781c4.483-3.225,10.731-2.203,13.957,2.282
				c3.224,4.484,2.203,10.732-2.281,13.957c-15.943,11.463-31.918,23.365-47.48,35.375
				C779.201,466.436,777.051,467.116,774.918,467.116z M2900.782,459.898c-2.111,0-4.238-0.666-6.048-2.043
				c-15.655-11.915-31.738-23.729-47.804-35.115c-4.506-3.193-5.57-9.435-2.377-13.941c3.193-4.505,9.437-5.571,13.941-2.376
				c16.249,11.516,32.517,23.466,48.352,35.517c4.395,3.345,5.245,9.619,1.901,14.014
				C2906.781,458.539,2903.799,459.898,2900.782,459.898z M888.165,386.661c-3.266,0-6.466-1.598-8.384-4.537
				c-3.018-4.625-1.714-10.821,2.911-13.839c16.641-10.857,33.691-21.573,50.678-31.849c4.726-2.859,10.874-1.346,13.732,3.38
				c2.859,4.726,1.346,10.874-3.38,13.732c-16.793,10.159-33.65,20.752-50.102,31.486
				C891.934,386.136,890.039,386.661,888.165,386.661z M2786.78,380.074c-1.851,0-3.723-0.513-5.396-1.588
				c-16.572-10.649-33.551-21.154-50.464-31.225c-4.745-2.826-6.302-8.963-3.476-13.708c2.825-4.745,8.963-6.302,13.708-3.476
				c17.107,10.186,34.281,20.812,51.044,31.584c4.646,2.985,5.992,9.172,3.007,13.818
				C2793.291,378.452,2790.07,380.074,2786.78,380.074z M1007.366,315.472c-3.544,0-6.977-1.888-8.792-5.219
				c-2.641-4.851-0.85-10.924,4-13.565c17.442-9.498,35.278-18.82,53.014-27.707c4.938-2.474,10.947-0.477,13.42,4.46
				c2.474,4.938,0.477,10.946-4.461,13.42c-17.533,8.786-35.166,18.001-52.408,27.39
				C1010.621,315.08,1008.982,315.472,1007.366,315.472z M2666.744,309.529c-1.593,0-3.208-0.381-4.71-1.186
				c-17.381-9.303-35.151-18.427-52.819-27.12c-4.956-2.438-6.997-8.432-4.559-13.387c2.438-4.956,8.433-6.994,13.388-4.558
				c17.871,8.792,35.848,18.022,53.428,27.432c4.869,2.606,6.704,8.667,4.098,13.536
				C2673.768,307.613,2670.314,309.529,2666.744,309.529z M1131.766,254.019c-3.829,0-7.482-2.211-9.14-5.935
				c-2.247-5.045,0.021-10.956,5.066-13.203c18.119-8.068,36.626-15.935,55.01-23.379c5.12-2.073,10.949,0.396,13.022,5.515
				c2.073,5.119-0.396,10.949-5.516,13.022c-18.173,7.36-36.469,15.136-54.38,23.112
				C1134.507,253.741,1133.126,254.019,1131.766,254.019z M2541.402,248.751c-1.336,0-2.692-0.269-3.995-0.837
				c-18.066-7.883-36.521-15.562-54.852-22.821c-5.136-2.034-7.649-7.844-5.615-12.979c2.032-5.135,7.848-7.65,12.979-5.615
				c18.543,7.343,37.212,15.11,55.488,23.086c5.062,2.208,7.374,8.103,5.165,13.165
				C2548.931,246.508,2545.257,248.751,2541.402,248.751z M1260.777,202.638c-4.123,0-7.982-2.568-9.431-6.677
				c-1.837-5.208,0.896-10.92,6.105-12.756c18.763-6.616,37.897-12.996,56.872-18.962c5.267-1.658,10.882,1.271,12.539,6.54
				c1.657,5.268-1.271,10.882-6.54,12.539c-18.757,5.898-37.672,12.205-56.219,18.745
				C1263.003,202.454,1261.881,202.638,1260.777,202.638z M2411.523,198.174c-1.079,0-2.176-0.176-3.253-0.546
				c-18.656-6.415-37.682-12.592-56.548-18.36c-5.281-1.615-8.254-7.206-6.639-12.487c1.613-5.282,7.199-8.257,12.486-6.64
				c19.085,5.835,38.331,12.084,57.204,18.573c5.223,1.796,8.001,7.485,6.205,12.708
				C2419.553,195.568,2415.674,198.174,2411.523,198.174z M1393.649,161.69c-4.427,0-8.474-2.961-9.661-7.443
				c-1.414-5.339,1.769-10.813,7.107-12.227c19.224-5.09,38.807-9.917,58.204-14.348c5.383-1.23,10.746,2.139,11.976,7.522
				c1.229,5.384-2.138,10.746-7.522,11.975c-19.175,4.38-38.534,9.152-57.538,14.184
				C1395.358,161.581,1394.496,161.69,1393.649,161.69z M2278.145,158.218c-0.822,0-1.656-0.102-2.489-0.315
				c-19.052-4.883-38.447-9.502-57.65-13.727c-5.394-1.187-8.804-6.522-7.617-11.916c1.188-5.395,6.518-8.806,11.916-7.617
				c19.425,4.274,39.045,8.946,58.317,13.886c5.35,1.372,8.574,6.82,7.203,12.17
				C2286.667,155.215,2282.602,158.218,2278.145,158.218z M1529.368,131.505c-4.745,0-8.955-3.389-9.829-8.223
				c-0.983-5.435,2.627-10.637,8.061-11.62c19.566-3.537,39.471-6.785,59.162-9.654c5.469-0.797,10.541,2.988,11.337,8.454
				c0.796,5.465-2.989,10.541-8.454,11.337c-19.466,2.836-39.144,6.047-58.487,9.544
				C1530.557,131.453,1529.958,131.505,1529.368,131.505z M2142.189,129.109c-0.564,0-1.137-0.048-1.713-0.147
				c-19.371-3.344-39.074-6.399-58.563-9.082c-5.471-0.753-9.296-5.799-8.542-11.27c0.754-5.471,5.796-9.291,11.27-8.543
				c19.713,2.714,39.644,5.805,59.237,9.188c5.442,0.939,9.093,6.113,8.153,11.555
				C2151.191,125.675,2146.965,129.109,2142.189,129.109z M1667.061,112.238c-5.077,0-9.425-3.851-9.938-9.009
				c-0.548-5.495,3.464-10.395,8.959-10.942c19.779-1.971,39.877-3.63,59.736-4.931c5.518-0.362,10.271,3.813,10.632,9.325
				s-3.814,10.271-9.325,10.633c-19.635,1.286-39.506,2.926-59.061,4.875C1667.728,112.221,1667.393,112.238,1667.061,112.238z
				 M2004.345,110.926c-0.307,0-0.614-0.014-0.926-0.042c-19.559-1.793-39.442-3.279-59.098-4.413
				c-5.514-0.318-9.726-5.045-9.407-10.559c0.317-5.513,5.026-9.742,10.56-9.408c19.879,1.147,39.989,2.648,59.772,4.463
				c5.5,0.505,9.55,5.372,9.045,10.872C2013.816,107.027,2009.455,110.926,2004.345,110.926z M1805.868,103.92
				c-5.427,0-9.881-4.342-9.994-9.794c-0.113-5.522,4.271-10.09,9.792-10.204c12.226-0.251,24.639-0.379,36.894-0.379
				c7.636,0,15.393,0.05,23.056,0.147c5.522,0.071,9.942,4.591,9.871,10.114c-0.07,5.479-4.533,9.858-9.997,9.858
				c-0.043,0-0.086,0-0.13,0c-7.578,0-15.249-0.133-22.8-0.133c-12.118,0-24.393,0.133-36.482,0.382
				C1806.008,103.913,1805.938,103.92,1805.868,103.92z"/>
		</g>
	</g>
</g>
<g>
	<polygon fill="#FFFFFF" points="412.718,2740.273 589.18,3209.814 549.284,3321.829 	"/>
	<polygon fill="#FFFFFF" points="377.426,3350.983 549.284,3321.829 412.718,2740.273 	"/>
	<polygon fill="#CCCCCC" points="411.181,2740.853 589.18,3209.814 718.164,3245.487 	"/>
	<polygon fill="#F2F2F2" points="874.587,3192.935 718.164,3245.487 411.181,2740.853 	"/>
</g>
<g>
	<path fill="#F2F2F2" d="M2477.263,2371.188c3.022,15.849-7.375,31.146-23.224,34.169l-1662.214,336.92
		c-15.849,3.022-31.147-7.375-34.169-23.224L607.075,1983.47c-3.023-15.849,7.375-31.147,23.224-34.169l1662.214-336.92
		c15.849-3.023,31.147,7.375,34.169,23.224L2477.263,2371.188z"/>
	<path fill="#333333" d="M999.953,1879.986c1.575,8.259-3.843,16.232-12.103,17.807l-184.235,37.58
		c-8.259,1.575-16.232-3.844-17.807-12.103l-5.558-27.151l214.128-43.362L999.953,1879.986z"/>
	<path fill="#333333" d="M2137.953,1651.986c1.575,8.259-3.843,16.232-12.103,17.807l-184.235,37.58
		c-8.259,1.575-16.232-3.844-17.807-12.103l-5.558-27.151l214.129-43.362L2137.953,1651.986z"/>
	<g>
		<g>
			<path fill="#202B37" d="M852.537,2123.804c0.871,4.332-1.934,8.549-6.266,9.42l-131.37,26.419
				c-4.332,0.871-8.549-1.934-9.42-6.266l-26.419-131.37c-0.871-4.332,1.934-8.549,6.266-9.42l131.37-26.419
				c4.332-0.871,8.549,1.934,9.42,6.266L852.537,2123.804z"/>
			<path fill="#202B37" d="M1013.485,2091.432c0.871,4.332-1.934,8.549-6.266,9.42l-131.37,26.419
				c-4.332,0.871-8.549-1.934-9.42-6.266l-26.419-131.37c-0.871-4.332,1.934-8.549,6.266-9.42l131.37-26.419
				c4.332-0.871,8.549,1.934,9.42,6.266L1013.485,2091.432z"/>
			<path fill="#202B37" d="M1174.433,2059.059c0.871,4.332-1.934,8.549-6.266,9.42l-131.37,26.419
				c-4.332,0.871-8.549-1.934-9.42-6.266l-26.419-131.37c-0.871-4.332,1.934-8.549,6.266-9.42l131.37-26.419
				c4.332-0.871,8.549,1.934,9.42,6.266L1174.433,2059.059z"/>
			<path fill="#202B37" d="M1335.381,2026.687c0.871,4.332-1.934,8.549-6.266,9.42l-131.37,26.419
				c-4.332,0.871-8.549-1.934-9.42-6.266l-26.419-131.37c-0.871-4.332,1.934-8.549,6.266-9.42l131.37-26.419
				c4.332-0.871,8.549,1.934,9.42,6.266L1335.381,2026.687z"/>
			<path fill="#202B37" d="M1496.329,1994.314c0.871,4.332-1.934,8.549-6.266,9.42l-131.37,26.419
				c-4.332,0.871-8.549-1.934-9.42-6.266l-26.419-131.37c-0.871-4.332,1.934-8.549,6.266-9.42l131.37-26.419
				c4.332-0.871,8.549,1.934,9.42,6.266L1496.329,1994.314z"/>
			<path fill="#202B37" d="M1657.277,1961.942c0.871,4.332-1.934,8.549-6.266,9.42l-131.37,26.419
				c-4.332,0.871-8.549-1.934-9.42-6.266l-26.419-131.37c-0.871-4.332,1.934-8.549,6.266-9.42l131.37-26.419
				c4.332-0.871,8.549,1.934,9.42,6.266L1657.277,1961.942z"/>
			<path fill="#202B37" d="M1818.225,1929.569c0.871,4.332-1.934,8.549-6.266,9.42l-131.37,26.419
				c-4.332,0.871-8.549-1.934-9.42-6.266l-26.419-131.37c-0.871-4.332,1.934-8.549,6.266-9.42l131.37-26.419
				c4.332-0.871,8.549,1.934,9.42,6.266L1818.225,1929.569z"/>
			<path fill="#202B37" d="M1979.173,1897.196c0.871,4.332-1.934,8.549-6.266,9.42l-131.37,26.419
				c-4.332,0.871-8.549-1.934-9.42-6.266l-26.419-131.37c-0.871-4.332,1.934-8.549,6.266-9.42l131.37-26.419
				c4.332-0.871,8.549,1.934,9.42,6.266L1979.173,1897.196z"/>
			<path fill="#202B37" d="M2140.122,1864.824c0.871,4.332-1.934,8.549-6.266,9.42l-131.37,26.419
				c-4.332,0.871-8.549-1.934-9.42-6.266l-26.419-131.37c-0.871-4.332,1.934-8.549,6.266-9.42l131.37-26.419
				c4.332-0.871,8.549,1.934,9.42,6.266L2140.122,1864.824z"/>
			<path fill="#202B37" d="M2301.113,1832.665c0.871,4.332-1.934,8.549-6.266,9.42l-131.37,26.419
				c-4.332,0.871-8.549-1.934-9.42-6.266l-26.419-131.37c-0.871-4.332,1.934-8.549,6.266-9.42l131.37-26.419
				c4.332-0.871,8.549,1.934,9.42,6.266L2301.113,1832.665z"/>
		</g>
		<g>
			<path fill="#202B37" d="M966.138,2272.32c0.871,4.332-1.934,8.549-6.266,9.42l-131.37,26.419
				c-4.332,0.871-8.549-1.934-9.42-6.266l-26.419-131.37c-0.871-4.332,1.934-8.549,6.266-9.42l131.37-26.419
				c4.332-0.871,8.549,1.934,9.42,6.266L966.138,2272.32z"/>
			<path fill="#202B37" d="M1127.086,2239.947c0.871,4.332-1.934,8.549-6.266,9.42l-131.37,26.419
				c-4.332,0.871-8.549-1.934-9.42-6.266l-26.419-131.37c-0.871-4.332,1.934-8.549,6.266-9.42l131.37-26.419
				c4.332-0.871,8.549,1.934,9.42,6.266L1127.086,2239.947z"/>
			<path fill="#202B37" d="M1288.034,2207.574c0.871,4.332-1.934,8.549-6.266,9.42l-131.37,26.419
				c-4.332,0.871-8.549-1.934-9.42-6.266l-26.419-131.37c-0.871-4.332,1.934-8.549,6.266-9.42l131.37-26.419
				c4.332-0.871,8.549,1.934,9.42,6.266L1288.034,2207.574z"/>
			<path fill="#202B37" d="M1448.983,2175.202c0.871,4.332-1.934,8.549-6.266,9.42l-131.37,26.419
				c-4.332,0.871-8.549-1.934-9.42-6.266l-26.419-131.37c-0.871-4.332,1.934-8.549,6.266-9.42l131.37-26.419
				c4.332-0.871,8.549,1.934,9.42,6.266L1448.983,2175.202z"/>
			<path fill="#202B37" d="M1609.931,2142.829c0.871,4.332-1.934,8.549-6.266,9.42l-131.37,26.419
				c-4.332,0.871-8.549-1.934-9.42-6.266l-26.419-131.37c-0.871-4.332,1.934-8.549,6.266-9.42l131.37-26.419
				c4.332-0.871,8.549,1.934,9.42,6.266L1609.931,2142.829z"/>
			<path fill="#202B37" d="M1770.879,2110.457c0.871,4.332-1.934,8.549-6.266,9.42l-131.37,26.419
				c-4.332,0.871-8.549-1.934-9.42-6.266l-26.419-131.37c-0.871-4.332,1.934-8.549,6.266-9.42l131.37-26.419
				c4.332-0.871,8.549,1.934,9.42,6.266L1770.879,2110.457z"/>
			<path fill="#202B37" d="M1931.827,2078.084c0.871,4.332-1.934,8.549-6.266,9.42l-131.37,26.419
				c-4.332,0.871-8.549-1.934-9.42-6.266l-26.419-131.37c-0.871-4.332,1.934-8.549,6.266-9.42l131.37-26.419
				c4.332-0.871,8.549,1.934,9.42,6.266L1931.827,2078.084z"/>
			<path fill="#202B37" d="M2092.775,2045.712c0.871,4.332-1.934,8.549-6.266,9.42l-131.37,26.419
				c-4.332,0.871-8.549-1.934-9.42-6.266l-26.419-131.37c-0.871-4.332,1.934-8.549,6.266-9.42l131.37-26.419
				c4.332-0.871,8.549,1.934,9.42,6.266L2092.775,2045.712z"/>
			<path fill="#202B37" d="M2253.723,2013.339c0.871,4.332-1.934,8.549-6.266,9.42l-131.37,26.419
				c-4.332,0.871-8.549-1.934-9.42-6.266l-26.419-131.37c-0.871-4.332,1.934-8.549,6.266-9.42l131.37-26.419
				c4.332-0.871,8.549,1.934,9.42,6.266L2253.723,2013.339z"/>
		</g>
		<g>
			<path fill="#202B37" d="M918.792,2453.208c0.871,4.332-1.934,8.549-6.266,9.42l-131.37,26.419
				c-4.332,0.871-8.549-1.934-9.42-6.266l-26.419-131.37c-0.871-4.332,1.934-8.549,6.266-9.42l131.37-26.419
				c4.332-0.871,8.549,1.934,9.42,6.266L918.792,2453.208z"/>
			<path fill="#202B37" d="M1079.74,2420.835c0.871,4.332-1.934,8.549-6.266,9.42l-131.37,26.419
				c-4.332,0.871-8.549-1.934-9.42-6.266l-26.419-131.37c-0.871-4.332,1.934-8.549,6.266-9.42l131.37-26.419
				c4.332-0.871,8.549,1.934,9.42,6.266L1079.74,2420.835z"/>
			<path fill="#202B37" d="M1240.688,2388.462c0.871,4.332-1.934,8.549-6.266,9.42l-131.37,26.419
				c-4.332,0.871-8.549-1.934-9.42-6.266l-26.419-131.37c-0.871-4.332,1.934-8.549,6.266-9.42l131.37-26.419
				c4.332-0.871,8.549,1.934,9.42,6.266L1240.688,2388.462z"/>
			<path fill="#202B37" d="M1401.636,2356.09c0.871,4.332-1.934,8.549-6.266,9.42L1264,2391.929
				c-4.332,0.871-8.549-1.934-9.42-6.266l-26.419-131.37c-0.871-4.332,1.934-8.549,6.266-9.42l131.37-26.419
				c4.332-0.871,8.549,1.934,9.42,6.266L1401.636,2356.09z"/>
			<path fill="#202B37" d="M1562.584,2323.717c0.871,4.332-1.934,8.549-6.266,9.42l-131.37,26.419
				c-4.332,0.871-8.549-1.934-9.42-6.266l-26.419-131.37c-0.871-4.332,1.934-8.549,6.266-9.42l131.37-26.419
				c4.332-0.871,8.549,1.934,9.42,6.266L1562.584,2323.717z"/>
			<path fill="#202B37" d="M1723.532,2291.344c0.871,4.332-1.934,8.549-6.266,9.42l-131.37,26.419
				c-4.332,0.871-8.549-1.934-9.42-6.266l-26.419-131.37c-0.871-4.332,1.934-8.549,6.266-9.42l131.37-26.419
				c4.332-0.871,8.549,1.934,9.42,6.266L1723.532,2291.344z"/>
			<path fill="#202B37" d="M1884.48,2258.972c0.871,4.332-1.934,8.549-6.266,9.42l-131.37,26.419
				c-4.332,0.871-8.549-1.934-9.42-6.266l-26.419-131.37c-0.871-4.332,1.934-8.549,6.266-9.42l131.37-26.419
				c4.332-0.871,8.549,1.934,9.42,6.266L1884.48,2258.972z"/>
			<path fill="#202B37" d="M2045.428,2226.599c0.871,4.332-1.934,8.549-6.266,9.42l-131.37,26.419
				c-4.332,0.871-8.549-1.934-9.42-6.266l-26.419-131.37c-0.871-4.332,1.934-8.549,6.266-9.42l131.37-26.419
				c4.332-0.871,8.549,1.934,9.42,6.266L2045.428,2226.599z"/>
			<path fill="#202B37" d="M2206.377,2194.227c0.871,4.332-1.934,8.549-6.266,9.42l-131.37,26.419
				c-4.332,0.871-8.549-1.934-9.42-6.266l-26.419-131.37c-0.871-4.332,1.934-8.549,6.266-9.42l131.37-26.419
				c4.332-0.871,8.549,1.934,9.42,6.266L2206.377,2194.227z"/>
			<path fill="#202B37" d="M2367.368,2162.068c0.871,4.332-1.934,8.549-6.266,9.42l-131.37,26.419
				c-4.332,0.871-8.549-1.934-9.42-6.266l-26.419-131.37c-0.871-4.332,1.934-8.549,6.266-9.42l131.37-26.419
				c4.332-0.871,8.549,1.934,9.42,6.266L2367.368,2162.068z"/>
		</g>
		<g>
			<path fill="#202B37" d="M1936.6,2274.652l-719.079,144.808c-4.332,0.871-7.12,5.175-6.249,9.506l26.428,131.413
				c0.871,4.332,5.093,7.158,9.424,6.287l719.115-144.625c4.332-0.871,7.138-5.083,6.267-9.415l-26.453-131.539
				C1945.183,2276.755,1940.932,2273.781,1936.6,2274.652z"/>
			<g>
				<path fill="#202B37" d="M2000.42,2414.798c0.134-0.02,0.268-0.032,0.403-0.06L2000.42,2414.798z"/>
				<path fill="#202B37" d="M2135.202,2388.067c4.332-0.871,7.137-5.089,6.266-9.42l-26.419-131.37
					c-0.871-4.332-5.089-7.137-9.42-6.266l-131.37,26.419c-4.332,0.871-7.137,5.089-6.266,9.42l26.419,131.37
					c0.844,4.197,4.83,6.95,9.017,6.326L2135.202,2388.067z"/>
			</g>
			<path fill="#202B37" d="M2400.284,2326.589c0.871,4.332-1.934,8.549-6.266,9.42l-222.544,44.758
				c-4.332,0.871-8.549-1.934-9.42-6.266l-26.419-131.37c-0.871-4.332,1.934-8.549,6.266-9.42l222.544-44.758
				c4.332-0.871,8.549,1.934,9.42,6.266L2400.284,2326.589z"/>
			<g>
				<path fill="#202B37" d="M1178.673,2427.831c-0.134,0.02-0.268,0.033-0.403,0.06L1178.673,2427.831z"/>
				<path fill="#202B37" d="M1043.891,2454.562c-4.332,0.871-7.137,5.088-6.266,9.42l26.419,131.37
					c0.871,4.332,5.089,7.137,9.42,6.266l131.37-26.419c4.332-0.871,7.137-5.089,6.266-9.42l-26.419-131.37
					c-0.844-4.197-4.83-6.95-9.017-6.326L1043.891,2454.562z"/>
			</g>
			<path fill="#202B37" d="M778.809,2516.039c-0.871-4.332,1.934-8.549,6.266-9.42l222.544-44.758
				c4.332-0.871,8.549,1.934,9.42,6.266l26.419,131.37c0.871,4.332-1.934,8.549-6.266,9.42l-222.544,44.758
				c-4.332,0.871-8.549-1.934-9.42-6.266L778.809,2516.039z"/>
		</g>
	</g>
	<path fill="#F2F2F2" d="M592.308,1904.973c-9.63,17.072,10.21,25.238,30.639,21.012s1637.633-329.627,1664.336-335.318
		s24.511-27.46,10.944-32.394s-52.968-19.261-52.968-19.261s-20.062-7.075-76.606,4.378S688.176,1843.25,688.176,1843.25
		s-41.072,9.02-51.437,18.006C626.373,1870.243,599.031,1893.055,592.308,1904.973z"/>
	<path opacity="0.4" fill="#202B37" d="M626.738,1918.437c-2.475,4.388,2.624,6.487,7.875,5.401
		c5.251-1.086,1638.936-330.727,1645.799-332.19c6.864-1.463,6.3-7.058,2.813-8.326c-3.487-1.268-13.615-4.951-13.615-4.951
		s-5.157-1.818-19.691,1.125c-14.534,2.944-1598.54,323.076-1598.54,323.076s-10.557,2.318-13.221,4.628
		C635.494,1909.51,628.466,1915.373,626.738,1918.437z"/>
</g>
<g>
	<g>
		<polygon fill="#202B37" points="907.402,3684.662 1260.166,3684.662 1160.012,3197.931 826.638,3257.103 		"/>
		<circle fill="#E6E6E6" cx="874.667" cy="3318.286" r="15.591"/>
	</g>
	<g>
		<path fill="#FFCD7C" d="M868.484,3249.07c0,0-0.467-9.846-6.584-30.198c-8.095-26.936-78.025-68.521-102.736-133.149
			c-24.711-64.628-36.116-178.678-43.719-224.298c-7.603-45.62-41.818-193.885-55.124-233.802c0,0-11.496-45.337,22.445-56.777
			c39.194-13.21,54.306,7.668,64.74,49.026c9.289,36.82,30.721,144.992,38.892,151.278c1.886-11.942-49.577-220.417-52.091-236.76
			s-4.507-45.884,30.116-55.94c34.624-10.057,56.622,21.37,58.508,35.198s48.345,225.858,50.704,233.05
			c2.973,9.065,12.024,7.556,8.379-5.518c-2.026-7.265-50.283-242.118-54.055-264.681c-3.771-22.563,6.914-45.19,38.341-51.476
			s49.026,13.828,54.055,46.512c5.028,32.684,44.159,227.151,48.907,245.035c5.399,20.335,13.696,18.073,10.804-1.789
			c-1.73-11.883-32.684-216.847-35.198-233.189s7.398-46.512,37.326-51.54c29.928-5.028,54.441,8.8,60.098,40.227
			c5.657,31.427,46.512,322.442,47.769,329.356c3.771,4.4,7.985,0.651,7.542-3.771c-1.257-12.571,34.57-121.091,96.818-121.091
			c31.427,0,42.09,29.952,43.347,41.894c9.428,31.427-35.198,62.226-36.455,101.195c-1.36,42.165,26.499,96.444,20.188,150.727
			c-8.1,69.665-55.386,118.288-95.613,154.115c-15.714,15.085-15.714,40.227-15.085,49.655c0.629,9.428,5.038,32.736,5.038,32.736
			L868.484,3249.07z"/>
		<circle fill="#F4E5C8" cx="701.318" cy="2614.776" r="35.433"/>
		<circle fill="#F4E5C8" cx="778.318" cy="2526.776" r="35.433"/>
		<circle fill="#F4E5C8" cx="874.318" cy="2473.776" r="35.433"/>
		<circle fill="#F4E5C8" cx="993.318" cy="2478.776" r="35.433"/>
		<path fill="#F4E5C8" d="M1237.836,2716.913c0,0-18.782-3.612-31.785,13.003c-13.003,16.615-21.672,33.23-17.337,44.788
			c4.334,11.558,13.488,16.478,18.71,18.483c5.18-13.589,31.651-47.157,31.651-64.651
			C1239.075,2716.955,1237.836,2716.913,1237.836,2716.913z"/>
	</g>
</g>
<g>
	<g>
		<polygon fill="#202B37" points="2287.175,2954.153 2628.241,2892.718 2792.364,3684.662 2430.781,3684.662 		"/>
		<circle fill="#E6E6E6" cx="2606.667" cy="2971.286" r="15.591"/>
	</g>
	<g>
		<path fill="#FFCD7C" d="M2589.768,2904.845c0,0-3.288-9.482-5.217-31.034c-2.552-28.524,37.416-91.486,36.29-161.927
			s-33.548-182.549-43.643-228.545c-10.094-45.995-6.737-25.351-16.055-69.154c0,0-7.655-42.965-43.938-39.291
			c-33.376,3.38-37.504,17.694-35.867,51.594c0,0-2.477,8.217-7.447,0.432c-1.455-6.172-1.415-10.18-3.512-21.128
			c-3.167-16.534-13.12-45.072-49.652-41.462c-36.532,3.611-40.31,33.823-37.529,47.758c1.326,6.646,2.924,11.347,4.209,19.495
			c1.514,9.594-11.52,10.412-13.18,1.207c-1.363-7.558-44.189-247.873-49.171-270.625c-4.982-22.752-23.652-40.09-55.734-34.126
			c-32.083,5.964-41.097,31.639-33.469,64.434c7.628,32.794,44.308,231.407,46.594,250.108c2.6,21.264-6.098,22.268-10.889,2.401
			c-2.866-11.886-51.249-217.323-55.063-233.72c-3.814-16.397-24.611-41.156-54.8-34.572c-30.189,6.584-48.119,28.938-41.561,60.783
			c6.558,31.844,78.179,322.358,79.61,329.369c-1.898,5.587-7.3,3.64-8.557-0.707c-3.574-12.357-78.54-101.348-137.37-77.77
			c-29.702,11.904-28.434,44.251-25.098,56.014c2.994,33.273,56.836,45.477,72.786,81.831c17.257,39.335,9.029,99.91,22.437,125.452
			c33.19,63.227,115.558,106.034,167.147,124.657c20.565,8.305,40.02,31.175,42.997,40.323c2.977,9.148,4.941,34.946,4.941,34.946
			L2589.768,2904.845z"/>
		<circle fill="#F4E5C8" cx="2171.318" cy="2226.776" r="35.433"/>
		<circle fill="#F4E5C8" cx="2280.318" cy="2175.776" r="35.433"/>
		<path fill="#F4E5C8" d="M2027.392,2532.609c0,0,17.05-8.667,34.142,3.702c17.092,12.369,30.019,25.937,29.051,38.243
			s-8.403,19.567-12.866,22.938c-8.624-7.976-35.024-24.004-43.577-37.872C2025.293,2545.276,2027.392,2532.609,2027.392,2532.609z"
			/>
	</g>
</g>
<g>
	<g>
		<circle fill="#F5EFE5" cx="3258.015" cy="2620.692" r="355.731"/>
	</g>
	<g>
		<circle fill="#EBE3C0" cx="3290.405" cy="2590.081" r="272.188"/>
	</g>
	<g>
		<g>
			<circle fill="#FFFFFF" cx="3258.015" cy="2617.099" r="213.798"/>
		</g>
		<g>
			<path fill="#FFFFFF" d="M3444.152,2832.162c-3.06,3.188-8.124,3.292-11.312,0.232l-67.817-65.091
				c-3.188-3.06-3.292-8.124-0.232-11.311l32.546-33.908c3.059-3.188,8.124-3.292,11.311-0.232l67.817,65.091
				c3.188,3.06,3.291,8.124,0.232,11.311L3444.152,2832.162z"/>
		</g>
	</g>
	<g>
		<circle fill="#904400" cx="3259.306" cy="2617.171" r="183.183"/>
	</g>
	<g>
		<circle fill="#5E2A00" cx="3254.815" cy="2621.663" r="166.115"/>
		<path fill="#42210B" d="M3254.815,2789.778c-92.699,0-168.115-75.416-168.115-168.115s75.416-168.115,168.115-168.115
			s168.115,75.416,168.115,168.115S3347.514,2789.778,3254.815,2789.778z M3254.815,2457.547
			c-90.493,0-164.115,73.622-164.115,164.115s73.622,164.115,164.115,164.115s164.115-73.622,164.115-164.115
			S3345.308,2457.547,3254.815,2457.547z"/>
	</g>
	<g>
		<path fill="#FFFFFF" d="M3031.29,2572.265c0.742,4.356-2.187,8.488-6.543,9.23l-49.29,8.398c-4.355,0.742-8.488-2.187-9.23-6.543
			l-8.398-49.29c-0.742-4.355,2.187-8.488,6.543-9.23l49.29-8.398c4.355-0.742,8.488,2.187,9.23,6.543L3031.29,2572.265z"/>
	</g>
	<g>
		<path fill="#FFFFFF" d="M2999.34,2672.923c-0.677,4.366-4.765,7.357-9.131,6.68l-49.41-7.66c-4.366-0.677-7.357-4.765-6.68-9.131
			l7.66-49.41c0.677-4.366,4.765-7.357,9.131-6.68l49.41,7.661c4.366,0.677,7.357,4.765,6.68,9.131L2999.34,2672.923z"/>
	</g>
</g>
<g>
	<path fill="#FFA700" d="M716.747,1524.068c-22.601,35.162-45.909,55.017-82.669,31.388l-473.885-304.601
		c-15.142-9.733-19.872-30.286-10.14-45.428l452.862-704.544c9.733-15.142,29.854-18.533,44.996-8.8l446.214,286.814
		c55.181,35.469,47.931,83.491,25.33,118.653L716.747,1524.068z"/>
	
		<rect x="177.88" y="1190.666" transform="matrix(-0.8412 -0.5407 0.5407 -0.8412 -309.7203 2327.3772)" fill="#C0A643" width="18" height="37"/>
	<path fill="#FFC100" d="M760.524,1474.457c-22.933,35.679-61.417,46.718-98.718,22.742l-466.605-299.921
		c-15.365-9.876-19.965-31.029-10.089-46.394l459.523-714.908c9.876-15.365,30.488-19.123,45.853-9.247l452.778,291.033
		c55.993,35.991,48.822,85.282,25.889,120.961L760.524,1474.457z"/>
	<path fill="#F7DC53" d="M693.676,1509.319c0,0-18.9,35.446-56.201,11.47c-37.301-23.976-453.028-291.194-453.028-291.194
		l17.708-27.55c0,0,301.653,193.3,442.277,283.689C654.861,1492.438,677.544,1509.192,693.676,1509.319z"/>
	
		<rect x="554.086" y="791.212" transform="matrix(0.8412 0.5407 -0.5407 0.8412 604.6296 -269.454)" fill="#FFA900" width="414" height="207"/>
	<g>
		
			<rect x="798.417" y="591.876" transform="matrix(0.8412 0.5407 -0.5407 0.8412 696.7584 -272.8415)" fill="#00D5D7" width="29" height="916"/>
		<polygon fill="#00D5D7" points="526.883,1486.555 502.325,1470.769 553.496,1427.58 577.892,1443.261 		"/>
	</g>
	<path fill="#EF9A03" d="M194.45,1197.389c-15.142-9.733-20.054-31.681-10.178-47.046l459.523-714.908
		c9.876-15.365,30.801-18.328,45.943-8.595L194.45,1197.389z"/>
</g>
<image display="none" overflow="visible" width="1500" height="1600" xlink:href="C:\Users\mc marron\Desktop\imagenes\stock-vector-freelance-concept-banner-398063476.jpg"  transform="matrix(0.7544 -2.1761 2.1761 0.7544 2497.4629 4066.1958)">
</image>
<g>
	<circle fill="#EE8C00" cx="2248.428" cy="559.033" r="238.371"/>
	<circle fill="#6B2A00" cx="2248.428" cy="558.662" r="204"/>
	<g>
		<path fill="#7C9800" d="M2394.696,531.851c-8.605-22.354,10.495-43.648-6.861-64.911c-17.355-21.263-48.063-11.259-62.908-19.154
			c-21.981-11.689-28.858-39.597-50.934-41.327s-35.264,22.071-57.618,30.676c-22.354,8.605-43.648-10.495-64.911,6.861
			c-21.263,17.356-11.259,48.063-19.154,62.909c-11.689,21.981-39.597,28.858-41.328,50.934
			c-1.73,22.076,22.071,35.264,30.676,57.618c8.605,22.354-10.495,43.648,6.861,64.911c17.356,21.263,48.063,11.259,62.908,19.154
			c21.981,11.689,28.858,39.597,50.934,41.327c22.076,1.73,35.264-22.071,57.618-30.676c22.354-8.605,43.648,10.495,64.911-6.861
			c21.264-17.356,11.259-48.063,19.154-62.909c11.689-21.981,39.597-28.858,41.327-50.934
			C2427.102,567.393,2403.3,554.205,2394.696,531.851z"/>
		<circle fill="#F5C500" cx="2252.974" cy="606.719" r="33.066"/>
		<circle fill="#F5C500" cx="2281.708" cy="516.714" r="19.638"/>
		<circle fill="#F5C500" cx="2322.594" cy="459.541" r="11.45"/>
		<circle fill="#F5C500" cx="2207.908" cy="472.477" r="12.192"/>
		<circle fill="#F5C500" cx="2155.974" cy="663.754" r="10.713"/>
		<circle fill="#F5C500" cx="2347.431" cy="684.49" r="10.022"/>
		<circle fill="#F5C500" cx="2375.769" cy="607.078" r="10.022"/>
		<path fill="#F5C500" d="M2225.307,701.878c7.898,10.822,7.677,24.429-0.494,30.393c-6.804-5.548-19.531-25.889-32.767-32.446
			c1.046-2.45,2.944-5.797,5.102-7.372C2205.319,686.49,2217.408,691.057,2225.307,701.878z"/>
	</g>
	<g>
		<path fill="#D9E021" d="M2220.168,557.183c-3.516,32.348-103.501,53.272-202.435,41.096
			c-98.935-12.177-152.207-38.052-161.339-73.059s2.375-81.028,95.296-79.358C2044.61,447.531,2227.778,487.168,2220.168,557.183z"
			/>
		<circle fill="#F5C500" cx="1965.005" cy="484.668" r="13.677"/>
		<circle fill="#F5C500" cx="1911.928" cy="514.555" r="9.247"/>
		<circle fill="#F5C500" cx="2005.556" cy="554.139" r="10.654"/>
		<circle fill="#F5C500" cx="2094.597" cy="484.885" r="9.893"/>
		<circle fill="#F5C500" cx="2073.749" cy="564.405" r="20.92"/>
	</g>
	<g>
		<path fill="#91AF00" d="M2383.029,473.469c18.265-13.699-100.69,85.236-81.547,105.023c19.143,19.787,105.314-6.749,149.747-36.86
			s75.448-63.902,56.61-98.604C2478.92,389.755,2383.029,473.469,2383.029,473.469z"/>
		<circle fill="#F5C500" cx="2369.658" cy="547.767" r="11.416"/>
		<circle fill="#F5C500" cx="2384.366" cy="498.486" r="5.708"/>
		<circle fill="#F5C500" cx="2435.243" cy="487.481" r="9.596"/>
		<circle fill="#F5C500" cx="2441.186" cy="523.093" r="13.538"/>
		<circle fill="#F5C500" cx="2462.301" cy="454.551" r="5.734"/>
	</g>
	<g>
		<path fill="#FF4512" d="M2504.795,379.101c0,0,19.787,0,36.53,15.221c16.743,15.221,27.397,19.322,25.875,30.97
			c-1.522,11.648-24.209,7.082-31.13,11.648c-6.921,4.566-34.319,39.574-44.973,24.353c-10.655-15.221,12.177-38.052,15.221-50.228
			C2509.361,398.888,2500.229,391.277,2504.795,379.101z"/>
		<path fill="#FF4512" d="M1872.474,559.024c0,0-1.652,13.787,7.555,26.724c9.207,12.937,11.175,20.703,19.418,20.615
			c8.243-0.088,6.956-16.277,10.716-20.718c3.76-4.441,30.44-20.608,20.724-29.303c-9.716-8.695-27.531,5.307-36.269,6.411
			S1881.34,556.859,1872.474,559.024z"/>
		<path fill="#FF4512" d="M1834.23,405.54c0,0-22.689,7.473-36.139,31.249c-13.45,23.776-24.118,32.502-17.974,45.284
			c6.144,12.781,30.434-1.022,40.095,1.6c9.661,2.622,54.297,32.417,60.766,10.94s-28.333-39.034-36.422-51.846
			C1836.466,429.953,1844.064,417.778,1834.23,405.54z"/>
	</g>
</g>
<g>
	<path fill="#060D11" d="M3204.616,1688.03c5.945,19.411-4.971,39.967-24.382,45.912l-268.569,82.26
		c-19.411,5.945-39.967-4.971-45.912-24.382l-173.204-565.488c-5.946-19.411,4.97-39.967,24.382-45.912l268.569-82.26
		c19.411-5.945,39.967,4.971,45.912,24.382L3204.616,1688.03z"/>
	<path fill="#E1E5E5" d="M3171.633,1647.354c2.409,7.864-2.014,16.192-9.878,18.6l-271.752,83.235
		c-7.864,2.409-16.192-2.014-18.601-9.878l-147.808-482.576c-2.409-7.864,2.014-16.192,9.878-18.601l271.752-83.235
		c7.864-2.409,16.192,2.014,18.601,9.878L3171.633,1647.354z"/>
	
		<rect x="2784.294" y="1287.445" transform="matrix(0.9562 -0.2929 0.2929 0.9562 -275.4984 917.1036)" fill="#FF7956" width="281.674" height="182.396"/>
	
		<rect x="2746.173" y="1227.87" transform="matrix(0.9562 -0.2929 0.2929 0.9562 -237.5611 898.9727)" fill="#66868F" width="274.748" height="30.014"/>
	<g>
		<g>
			
				<rect x="2857.446" y="1523.261" transform="matrix(0.9562 -0.2929 0.2929 0.9562 -321.322 918.7333)" fill="#B0BCD1" width="100.433" height="18.47"/>
			
				<rect x="2866.912" y="1554.167" transform="matrix(0.9562 -0.2929 0.2929 0.9562 -329.9581 922.8607)" fill="#B0BCD1" width="100.433" height="18.47"/>
			
				<rect x="2876.378" y="1585.073" transform="matrix(0.9562 -0.2929 0.2929 0.9562 -338.5943 926.988)" fill="#B0BCD1" width="100.433" height="18.47"/>
			
				<rect x="2885.844" y="1615.979" transform="matrix(0.9562 -0.2929 0.2929 0.9562 -347.2304 931.1154)" fill="#B0BCD1" width="100.433" height="18.47"/>
			
				<rect x="2895.311" y="1646.885" transform="matrix(0.9562 -0.2929 0.2929 0.9562 -355.8665 935.2428)" fill="#B0BCD1" width="100.433" height="18.47"/>
		</g>
		<g>
			
				<rect x="2974.447" y="1487.424" transform="matrix(0.9562 -0.2929 0.2929 0.9562 -305.697 951.4272)" fill="#B0BCD1" width="100.433" height="18.47"/>
			
				<rect x="2983.914" y="1518.33" transform="matrix(0.9562 -0.2929 0.2929 0.9562 -314.3331 955.5546)" fill="#B0BCD1" width="100.433" height="18.47"/>
			
				<rect x="2993.38" y="1549.237" transform="matrix(0.9562 -0.2929 0.2929 0.9562 -322.9692 959.682)" fill="#B0BCD1" width="100.433" height="18.47"/>
			
				<rect x="3002.846" y="1580.143" transform="matrix(0.9562 -0.2929 0.2929 0.9562 -331.6054 963.8094)" fill="#B0BCD1" width="100.433" height="18.47"/>
			
				<rect x="3012.312" y="1611.049" transform="matrix(0.9562 -0.2929 0.2929 0.9562 -340.2415 967.9367)" fill="#B0BCD1" width="100.433" height="18.47"/>
		</g>
	</g>
	<path fill="#FFFFFF" d="M3070.259,1714.503c-1.494-4.877-6.658-7.619-11.535-6.126l-59.605,18.256
		c-4.877,1.494-7.619,6.658-6.125,11.535l1.69,5.519c1.494,4.877,6.658,7.619,11.535,6.126l59.604-18.256
		c4.877-1.494,7.619-6.658,6.126-11.535L3070.259,1714.503z"/>
	<circle fill="#FFFFFF" cx="2860.259" cy="1167.831" r="10.673"/>
</g>
</svg>
