<?xml version="1.0" encoding="utf-8"?>
<!-- Generator: Adobe Illustrator 17.0.0, SVG Export Plug-In . SVG Version: 6.00 Build 0)  -->
<!DOCTYPE svg PUBLIC "-//W3C//DTD SVG 1.1//EN" "http://www.w3.org/Graphics/SVG/1.1/DTD/svg11.dtd">
<svg version="1.1" id="Capa_1" xmlns="http://www.w3.org/2000/svg" xmlns:xlink="http://www.w3.org/1999/xlink" x="0px" y="0px"
	 width="64px" height="64px" viewBox="0 0 64 64" enable-background="new 0 0 64 64" xml:space="preserve">
<g display="none">
</g>
<g>
	<g>
		<g>
			<path fill="#3E3E3D" d="M63.707,4.535c-0.487-0.974-1.46-1.53-2.503-1.53H2.796c-1.043,0-2.016,0.626-2.503,1.53
				c-0.487,0.974-0.348,2.086,0.278,2.92l24.418,30.769v20.022c0,0.83,0.143,1.649,0.862,2.16c0.698,0.496,1.122,0.589,2.15,0.589
				c0.556,0,1.5-0.27,1.987-0.617l7.227-5.014c1.113-0.834,1.805-1.564,1.805-3.476l-0.018-13.911L63.429,7.455
				C64.055,6.621,64.194,5.508,63.707,4.535z M36.45,36.938c-0.139,0.209-0.395,0.692-0.395,1.04l-0.048,13.839
				c0,0.487-0.044,0.975-0.392,1.253l-7.622,5.287l0.006-20.316c0-0.487-0.272-0.932-0.659-1.381L11.698,16.991h24.931
				c0.765,0,1.386-0.726,1.386-1.491s-0.624-1.491-1.389-1.491c0,0-27.207,0-27.277,0L2.989,6.028l58.059-0.027L36.45,36.938z"/>
		</g>
	</g>
</g>
</svg>
