<?xml version="1.0" encoding="utf-8"?>
<!-- Generator: Adobe Illustrator 17.0.0, SVG Export Plug-In . SVG Version: 6.00 Build 0)  -->
<!DOCTYPE svg PUBLIC "-//W3C//DTD SVG 1.1//EN" "http://www.w3.org/Graphics/SVG/1.1/DTD/svg11.dtd" [
	<!ENTITY ns_flows "http://ns.adobe.com/Flows/1.0/">
	<!ENTITY ns_extend "http://ns.adobe.com/Extensibility/1.0/">
	<!ENTITY ns_ai "http://ns.adobe.com/AdobeIllustrator/10.0/">
	<!ENTITY ns_graphs "http://ns.adobe.com/Graphs/1.0/">
	<!ENTITY ns_vars "http://ns.adobe.com/Variables/1.0/">
	<!ENTITY ns_imrep "http://ns.adobe.com/ImageReplacement/1.0/">
	<!ENTITY ns_sfw "http://ns.adobe.com/SaveForWeb/1.0/">
	<!ENTITY ns_custom "http://ns.adobe.com/GenericCustomNamespace/1.0/">
	<!ENTITY ns_adobe_xpath "http://ns.adobe.com/XPath/1.0/">
]>
<svg version="1.1" id="Capa_3" xmlns:x="&ns_extend;" xmlns:i="&ns_ai;" xmlns:graph="&ns_graphs;"
	 xmlns="http://www.w3.org/2000/svg" xmlns:xlink="http://www.w3.org/1999/xlink" xmlns:a="http://ns.adobe.com/AdobeSVGViewerExtensions/3.0/"
	 x="0px" y="0px" width="512px" height="512px" viewBox="0 0 512 512" enable-background="new 0 0 512 512" xml:space="preserve">
<metadata><?xpacket begin="﻿" id="W5M0MpCehiHzreSzNTczkc9d"?>
<x:xmpmeta xmlns:x="adobe:ns:meta/" x:xmptk="Adobe XMP Core 5.5-c014 79.151739, 2013/04/03-12:12:15        ">
   <rdf:RDF xmlns:rdf="http://www.w3.org/1999/02/22-rdf-syntax-ns#">
      <rdf:Description rdf:about=""
            xmlns:dc="http://purl.org/dc/elements/1.1/"
            xmlns:xmp="http://ns.adobe.com/xap/1.0/"
            xmlns:xmpGImg="http://ns.adobe.com/xap/1.0/g/img/"
            xmlns:xmpMM="http://ns.adobe.com/xap/1.0/mm/"
            xmlns:stRef="http://ns.adobe.com/xap/1.0/sType/ResourceRef#"
            xmlns:stEvt="http://ns.adobe.com/xap/1.0/sType/ResourceEvent#"
            xmlns:illustrator="http://ns.adobe.com/illustrator/1.0/"
            xmlns:xmpTPg="http://ns.adobe.com/xap/1.0/t/pg/"
            xmlns:stDim="http://ns.adobe.com/xap/1.0/sType/Dimensions#"
            xmlns:xmpG="http://ns.adobe.com/xap/1.0/g/"
            xmlns:pdf="http://ns.adobe.com/pdf/1.3/">
         <dc:format>image/svg+xml</dc:format>
         <dc:title>
            <rdf:Alt>
               <rdf:li xml:lang="x-default">Web</rdf:li>
            </rdf:Alt>
         </dc:title>
         <xmp:CreatorTool>Adobe Illustrator CC (Windows)</xmp:CreatorTool>
         <xmp:CreateDate>2017-08-09T13:32:39-05:00</xmp:CreateDate>
         <xmp:ModifyDate>2017-08-09T13:32:40-05:00</xmp:ModifyDate>
         <xmp:MetadataDate>2017-08-09T13:32:40-05:00</xmp:MetadataDate>
         <xmp:Thumbnails>
            <rdf:Alt>
               <rdf:li rdf:parseType="Resource">
                  <xmpGImg:width>208</xmpGImg:width>
                  <xmpGImg:height>256</xmpGImg:height>
                  <xmpGImg:format>JPEG</xmpGImg:format>
                  <xmpGImg:image>/9j/4AAQSkZJRgABAgEASABIAAD/7QAsUGhvdG9zaG9wIDMuMAA4QklNA+0AAAAAABAASAAAAAEA&#xA;AQBIAAAAAQAB/+4ADkFkb2JlAGTAAAAAAf/bAIQABgQEBAUEBgUFBgkGBQYJCwgGBggLDAoKCwoK&#xA;DBAMDAwMDAwQDA4PEA8ODBMTFBQTExwbGxscHx8fHx8fHx8fHwEHBwcNDA0YEBAYGhURFRofHx8f&#xA;Hx8fHx8fHx8fHx8fHx8fHx8fHx8fHx8fHx8fHx8fHx8fHx8fHx8fHx8fHx8f/8AAEQgBAADQAwER&#xA;AAIRAQMRAf/EAaIAAAAHAQEBAQEAAAAAAAAAAAQFAwIGAQAHCAkKCwEAAgIDAQEBAQEAAAAAAAAA&#xA;AQACAwQFBgcICQoLEAACAQMDAgQCBgcDBAIGAnMBAgMRBAAFIRIxQVEGE2EicYEUMpGhBxWxQiPB&#xA;UtHhMxZi8CRygvElQzRTkqKyY3PCNUQnk6OzNhdUZHTD0uIIJoMJChgZhJRFRqS0VtNVKBry4/PE&#xA;1OT0ZXWFlaW1xdXl9WZ2hpamtsbW5vY3R1dnd4eXp7fH1+f3OEhYaHiImKi4yNjo+Ck5SVlpeYmZ&#xA;qbnJ2en5KjpKWmp6ipqqusra6voRAAICAQIDBQUEBQYECAMDbQEAAhEDBCESMUEFURNhIgZxgZEy&#xA;obHwFMHR4SNCFVJicvEzJDRDghaSUyWiY7LCB3PSNeJEgxdUkwgJChgZJjZFGidkdFU38qOzwygp&#xA;0+PzhJSktMTU5PRldYWVpbXF1eX1RlZmdoaWprbG1ub2R1dnd4eXp7fH1+f3OEhYaHiImKi4yNjo&#xA;+DlJWWl5iZmpucnZ6fkqOkpaanqKmqq6ytrq+v/aAAwDAQACEQMRAD8AJPPH5g/mV+dH5iXHkryJ&#xA;cSWfl+0eROUcjQRyQxNwkuruVPi9Nm+wnuNi2Ko6P/nB3WTGpk82W6yEfEq2bsAfYmVa/diq7/oR&#xA;zVf+pug/6Qn/AOq2Ksy/KP8A5xZvvIfniz8zzeZvraWaSr9Tgt2h9X1YzHxkYyP8A5cqU6gYqyP8&#xA;9/yFuvzQu9KuYNd/Rf6NjljNvJCZ4m9Qhua0ePi3w0PWop4Yq8q/6Ec1X/qboP8ApCf/AKrYq7/o&#xA;RzVf+pug/wCkJ/8Aqtirv+hHNV/6m6D/AKQn/wCq2Ku/6Ec1X/qboP8ApCf/AKrYq7/oRzVf+pug&#xA;/wCkJ/8Aqtirv+hHNV/6m6D/AKQn/wCq2Ku/6Ec1X/qboP8ApCf/AKrYq7/oRzVf+pug/wCkJ/8A&#xA;qtirv+hHNV/6m6D/AKQn/wCq2Ku/6Ec1X/qboP8ApCf/AKrYq7/oRzVf+pug/wCkJ/8Aqtirv+hH&#xA;NV/6m6D/AKQn/wCq2Ku/6Ec1X/qboP8ApCf/AKrYq8O8q+dPNH5a+cprvQr0rNY3D29zEa+hdRxO&#xA;VZJo67q3H5jqDXfFX3h+VX5seWfzH0BdR0mT0r6EKNT0uQ1mtpG7HpyRqHg42PsagKs1xV2KuxV2&#xA;KuxV2Kvkr/nB1V/S/m1qDkLezAbuAXlqPwxV9a4q7FXYq7FXYq7FXYq7FXYq7FXYq7FXYq7FXYq7&#xA;FXYq+K/+cffK+g+aPzi87aJrtol7pt1p+oCWF69RqVsVZWFGVlO4YGoxVK/O/kP8wPyC88QeYvL1&#xA;xJLoryFbDUiOUckbfE1neotBUhfYNTktGHwqvqn8nvzh8v8A5leXxeWZFrrFqFXVdKZqvC5/bT+a&#xA;Jv2W+g74qz/FXYq7FXYq7FXyX/zg5/x1fN3/ABgsv+JzYq+tMVdirsVdirsVdirsVdirsVdirsVd&#xA;irsVdirsVdirsVfIH/OK3/k/fN3/ADA6j/3UbfFX1hr2g6Rr+kXWj6xape6beoY7m2kFVZT+IIO6&#xA;sNwdxvir4s/Mz8q/On5IebrfzZ5TuZ30NJeVjqYHJoSxoba8AHEhq8akcXHvtir6Y/Jb879A/MvS&#xA;CIwtl5is0B1LS2PyBmgJNXiLfSp2PYlV6VirsVdirsVfJf8Azg5/x1fN3/GCy/4nNir60xV2KuxV&#xA;2KuxV2KuxV2KuxV2KuxV2KuxV2KuxV2KuxV8gf8AOK3/AJP3zd/zA6j/AN1G3xV9f4qhtT0zT9U0&#xA;+407UbeO7sbuNorm2lUMjowoVYHFXxd+bv5Oeafyd8xW/nTyVdTjQ45udteJ8U1jI5oIZ61DxPXi&#xA;GYUb7L705KvoT8jPz30b8x9KW1ujHY+a7RB9e06tBKB1ntgTVkP7S9UOx2oSq9WxV2KuxV8l/wDO&#xA;Dn/HV83f8YLL/ic2KvrTFXYq7FXYq7FXYq7FXYq7FXYq7FXYq7FXYq7FXYq7FXyB/wA4rf8Ak/fN&#xA;3/MDqP8A3UbfFX1/irsVUru0tby1mtLuFLi1uEaKeCVQ6OjjiysrVBBBoQcVfGn51/kTr35Zawvn&#xA;ryJNMmiW8wnUwkmfTZCdqnfnASeIY9vhevVlXt/5Df8AOQOl/mJZjStTCWHm22jrLbA0jukUfFNb&#xA;1792j6r1FR0Vew4q7FXyX/zg5/x1fN3/ABgsv+JzYq+tMVdirsVdirsVdirsVdirsVdirsVdirsV&#xA;dirsVdirsVfIH/OK3/k/fN3/ADA6j/3UbfFX1/irsVdiqyeCC4gkgnjWWCVSksTgMjowoysp2II2&#xA;IOKvkD8+f+cfdV8l6i/nz8v/AFYNKt3+tXNtasyz6e4NTNAV+L0R123T/V6KvU/+cfv+cibDzzaw&#xA;+X/MMqWvnCFaKaBI75EFTJFT4VlAFXj/ANku1Qqr2/FXyX/zg5/x1fN3/GCy/wCJzYq+tMVdirsV&#xA;dirsVdirsVdirsVdirsVdirsVdirsVdirsVfGGqX2pfkP/zkNfazdWbz+XtZa4dDEoBksLyUTOsN&#xA;SF9S3lVRxJFePYMDir6Isf8AnIr8mLy1juF80W0IkAPpTrLFIp8GRkBqMVRH/K/vya/6myx/4Jv+&#xA;acVd/wAr+/Jr/qbLH/gm/wCacVd/yv78mv8AqbLH/gm/5pxVpvz8/JhlKt5rsGVhRlLMQQex+HFX&#xA;yj+eGgflfYavF5q/LDzHaDlMstxo9rK0cttOG5LPaGi0Tl+wDVD9n4dlVe6/847f85FJ52WPyv5m&#xA;ZYvNcSH6tcqOKXyRrVmoNlmVVLMo2I3Wm4CrBP8AnBz/AI6vm7/jBZf8TmxV9aYq7FXYq7FXYq7F&#xA;XYq7FXYq7FXYq7FXYq7FXYq7FXYqkvmzyZ5X83aU2leY9Oi1GxY8lSUEMjUpzjkUq8bU/aUg4q8n&#xA;l/5w5/KF5GdX1SNWJIjW5QqoPYcomb7ziqz/AKE2/KP/AH9qv/STF/1RxV3/AEJt+Uf+/tV/6SYv&#xA;+qOKu/6E2/KP/f2q/wDSTF/1RxV3/Qm35R/7+1X/AKSYv+qOKu/6E2/KP/f2q/8ASTF/1RxV5F5a&#xA;8m6R5L/5y60/y1o7Stp1hOnoG4YPJ++0v1m5MAgPxyGm3TFU+/5wc/46vm7/AIwWX/E5sVfWmKux&#xA;V2KuxV2KuxV2KuxV2KuxV2KuxV2KuxV2KuxV2KuxV2KuxV2KuxV2KuxV8l6n/wCtxp/xnt/+6KmK&#xA;u/5wc/46vm7/AIwWX/E5sVfWmKuxV2KuxV2KuxV2KuxV2KuxV2KuxV2KuxV2KuxV2KuxV2KuxV2K&#xA;uxV2KuxV8l6n/wCtxp/xnt/+6KmKu/5wc/46vm7/AIwWX/E5sVfWmKuxV2KuxV2KuxV2KuxV2Kux&#xA;V2KuxV2KuxV2KuxV2KuxV2KuxV2KuxV2KuxV8l6n/wCtxp/xnt/+6KmKu/5wc/46vm7/AIwWX/E5&#xA;sVfWmKuxVj/m/wA/+TfJ1ol15m1aDTYpaiFZCWkkp19OJA0j078VxVhX/Q0f5E/9TN/046h/2T4q&#xA;7/oaP8if+pm/6cdQ/wCyfFXf9DR/kT/1M3/TjqH/AGT4q7/oaP8AIn/qZv8Apx1D/snxV3/Q0f5E&#xA;/wDUzf8ATjqH/ZPirv8AoaP8if8AqZv+nHUP+yfFXf8AQ0f5E/8AUzf9OOof9k+Ku/6Gj/In/qZv&#xA;+nHUP+yfFXf9DR/kT/1M3/TjqH/ZPirv+ho/yJ/6mb/px1D/ALJ8Vd/0NH+RP/Uzf9OOof8AZPir&#xA;v+ho/wAif+pm/wCnHUP+yfFUw0T/AJyH/JjWr+OwsPM8H1mUhY1uYri0VmPQCS5jiSp7CuKvRcVY&#xA;P5s/O78q/KV+dP17zDBbXyGktrEk11JGetJFtklKH2amKpF/0NH+RP8A1M3/AE46h/2T4q7/AKGj&#xA;/In/AKmb/px1D/snxVsf85R/kSTT/E3/AE46h/2T4q9A8ueaPL3mXTE1TQNQg1Kwc8RPbuGAYAEq&#xA;w6owrurAHFU0xV2KvkvU/wD1uNP+M9v/AN0VMVd/zg5/x1fN3/GCy/4nNir60xV2KviXyH5ZvP8A&#xA;nIH83NZ1jzFeTR6HZgzNFEwDpbmQra2kXIEIKVLNTsf2mrir3of84n/klT/jkTn3+uXP/NeKt/8A&#xA;Qp/5Jf8AVon/AOky5/5rxV3/AEKf+SX/AFaJ/wDpMuf+a8Vd/wBCn/kl/wBWif8A6TLn/mvFXf8A&#xA;Qp/5Jf8AVon/AOky5/5rxV3/AEKf+SX/AFaJ/wDpMuf+a8Vd/wBCn/kl/wBWif8A6TLn/mvFXf8A&#xA;Qp/5Jf8AVon/AOky5/5rxV3/AEKf+SX/AFaJ/wDpMuf+a8Vd/wBCn/kl/wBWif8A6TLn/mvFXf8A&#xA;Qp/5Jf8AVon/AOky5/5rxV3/AEKf+SX/AFaJ/wDpMuf+a8VYP+cP/OK/kDTvIura75XE+naho9rJ&#xA;emKSdpoZooFMkqsJeTBuCniVbr2xVAflt+bnmaz/AOcW/MmpmZpNT8tyDS9Nu2PJ1juWgjhap6tA&#xA;bk8fZVGKpR/zjv8A847eVvO3lh/N/m2ae9F5PLHa2UUpjFI24ySTSL+8Z2etACNtzWuyr17/AKFP&#xA;/JL/AKtE/wD0mXP/ADXirv8AoU/8kv8Aq0T/APSZc/8ANeKrJf8AnEz8lHjZF0u5iZhQSJeXBZfc&#xA;cmZfvGKvFfIsOq/kx/zkdF5QjvGutF1ieCyeu3rQ3u1q7qNhJFK4BNP5qbHFX2ZirsVfJep/+txp&#xA;/wAZ7f8A7oqYq7/nBz/jq+bv+MFl/wATmxV9aYq7FXxpqvkn84PyL89X+t+S7B9U8u3nNYnSB7uE&#xA;25b1Fiuo4iJI2i6c6ivY7kYqmw/5yu/Oqgr5Ktye5FrfgV/4PFXf9DXfnR/1JMH/AEi33/NeKu/6&#xA;Gu/Oj/qSYP8ApFvv+a8Vd/0Nd+dH/Ukwf9It9/zXirv+hrvzo/6kmD/pFvv+a8Vd/wBDXfnR/wBS&#xA;TB/0i33/ADXirv8Aoa786P8AqSYP+kW+/wCa8Vd/0Nd+dH/Ukwf9It9/zXirv+hrvzo/6kmD/pFv&#xA;v+a8Vd/0Nd+dH/Ukwf8ASLff814q7/oa786P+pJg/wCkW+/5rxV3/Q1350f9STB/0i33/NeKpJ5q&#xA;/NT/AJyD/NKwbypZeWZLK0vCqXi2NrcRmRCfsTXE7MkcZpv9mvQkjbFXuPkn8grHS/yTvvIGqTK1&#xA;9raPPql3EOSpdvxMRStOSwGKOnTkQTtXFXhHl3V/z/8AyKu73Qo9DOpaPNMZU52891Zu9APVt54C&#xA;hVnUCqsfmoOKsh/6Gu/Oj/qSYP8ApFvv+a8Vd/0Nd+dH/Ukwf9It9/zXirUn/OVn52shEXku2WQ/&#xA;ZLWd+wr8hItfvxVW/KD8sfzN87/mnD+Zn5g201jb2cq3UEdzGbeSaaJf9HjhgajJDFs3JhvTapJI&#xA;VfWGKuxV8l6n/wCtxp/xnt/+6KmKu/5wc/46vm7/AIwWX/E5sVfWmKuxV2KuxV2KuxV2KuxV2Kux&#xA;V2KuxV2KuxV2KuxV2KuxV2KuxV2KuxV2KuxV8l6n/wCtxp/xnt/+6KmKu/5wc/46vm7/AIwWX/E5&#xA;sVfWmKuxV5h+a3/OQnkf8urpdNvfW1LW2UO2m2nEtEjbq0zuQqchuBu3elDXFXl5/wCc49Krt5Rn&#xA;p2/01P8Aqjirv+h49K/6lGf/AKTU/wCqOKu/6Hj0r/qUZ/8ApNT/AKo4q7/oePSv+pRn/wCk1P8A&#xA;qjirv+h49K/6lGf/AKTU/wCqOKu/6Hj0r/qUZ/8ApNT/AKo4q7/oePSv+pRn/wCk1P8Aqjirv+h4&#xA;9K/6lGf/AKTU/wCqOKu/6Hj0r/qUZ/8ApNT/AKo4q7/oePSv+pRn/wCk1P8Aqjirv+h49K/6lGf/&#xA;AKTU/wCqOKu/6Hj0r/qUZ/8ApNT/AKo4q7/oePSv+pRn/wCk1P8Aqjirv+h49K/6lGf/AKTU/wCq&#xA;OKu/6Hj0r/qUZ/8ApNT/AKo4q7/oePSv+pRn/wCk1P8Aqjirv+h49K/6lGf/AKTU/wCqOKro/wDn&#xA;OLRy4EnlO4VP2mW8RiB7AxL+vFXr/wCVn52eS/zIt5Ro0klvqVsoe60u6AWdFJpzXiWV0rtVTttW&#xA;lcVZ9irsVfJep/8Arcaf8Z7f/uipirv+cHP+Or5u/wCMFl/xObFX1pirsVfF3/OOPlrSPzN/NPzB&#xA;5i84pHqM8AN+NOn+JJJ7iUjkyHZo4R8PE7br8sVfWP8AyrzyB/1LOlf9INt/zRirv+VeeQP+pZ0r&#xA;/pBtv+aMVd/yrzyB/wBSzpX/AEg23/NGKu/5V55A/wCpZ0r/AKQbb/mjFXf8q88gf9SzpX/SDbf8&#xA;0Yq7/lXnkD/qWdK/6Qbb/mjFXf8AKvPIH/Us6V/0g23/ADRirv8AlXnkD/qWdK/6Qbb/AJoxV3/K&#xA;vPIH/Us6V/0g23/NGKu/5V55A/6lnSv+kG2/5oxV3/KvPIH/AFLOlf8ASDbf80Yq7/lXnkD/AKln&#xA;Sv8ApBtv+aMVd/yrzyB/1LOlf9INt/zRirv+VeeQP+pZ0r/pBtv+aMVd/wAq88gf9SzpX/SDbf8A&#xA;NGKu/wCVeeQP+pZ0r/pBtv8AmjFXf8q88gf9SzpX/SDbf80Yq035dfl8ylW8saSysKMpsbYgg9j8&#xA;GKvlG+0jTPIv/OWmk6f5OHpWkl/Zxz2cbVWFb9VW5i7/AArHIXCnp07Yq+z8Vdir5L1P/wBbjT/j&#xA;Pb/90VMVd/zg5/x1fN3/ABgsv+JzYq+tMVdir5c/MD/nGbz5pHnG482flVqQtDdSPKbJJzaTwNKa&#xA;yJFJtG8RP7LEUG1DiqW/4N/5zS/6uk//AEn2f/NWKu/wb/zml/1dJ/8ApPs/+asVd/g3/nNL/q6T&#xA;/wDSfZ/81Yq7/Bv/ADml/wBXSf8A6T7P/mrFXf4N/wCc0v8Aq6T/APSfZ/8ANWKu/wAG/wDOaX/V&#xA;0n/6T7P/AJqxV3+Df+c0v+rpP/0n2f8AzVirv8G/85pf9XSf/pPs/wDmrFXf4N/5zS/6uk//AEn2&#xA;f/NWKu/wb/zml/1dJ/8ApPs/+asVd/g3/nNL/q6T/wDSfZ/81Yq7/Bv/ADml/wBXSf8A6T7P/mrF&#xA;Xf4N/wCc0v8Aq6T/APSfZ/8ANWKu/wAG/wDOaX/V0n/6T7P/AJqxV3+Df+c0v+rpP/0n2f8AzVir&#xA;v8G/85pf9XSf/pPs/wDmrFXf4N/5zS/6uk//AEn2f/NWKubyX/zmiylTqtxQihpf2gO/gQ1cVZp+&#xA;RH/ON+o+Vdfbzl51u0vvMfxtaW6O0yxSSgiSaaVxWSUhjSmwqTUnoq+gcVdir5L1P/1uNP8AjPb/&#xA;APdFTFXf84Of8dXzd/xgsv8Aic2KvrTFXYq7FXYq7FXYq7FXYq7FXYq7FXYq7FXYq7FXYq7FXYq7&#xA;FXYq7FXYq7FXYq+S9T/9bjT/AIz2/wD3RUxV3/ODn/HV83f8YLL/AInNir60xV2Kvnv85f8AnKKb&#xA;y35jk8peSdPi1fXIH9C8uZhJJEk529CKKIo8kin7XxUB2oTWirDh+eP/ADleRUeSJyD0P6E1D/mr&#xA;FW/+V4f85X/9SPP/ANwTUP8AmrFXf8rw/wCcr/8AqR5/+4JqH/NWKu/5Xh/zlf8A9SPP/wBwTUP+&#xA;asVd/wArw/5yv/6kef8A7gmof81Yq7/leH/OV/8A1I8//cE1D/mrFWj+eX/OVygk+SJwBuSdE1Cg&#xA;H/BYqyz8ov8AnKe613zLF5T89aZHpGr3En1e1u4VkijNwTRYZoZS7xs3QNypy2oMVel/nF+cGh/l&#xA;n5fjv72Jr3Ubxmj0zTUYI0rIAXZnIbhGnIcmoeo2xV4Faf8AOR//ADkhriG/0Hygtzp0h/cvaaXf&#xA;XUdBtT1Vdgx8cVV/+V4f85X/APUjz/8AcE1D/mrFXf8AK8P+cr/+pHn/AO4JqH/NWKu/5Xh/zlf/&#xA;ANSPP/3BNQ/5qxV3/K8P+cr/APqR5/8AuCah/wA1Yq7/AJXh/wA5X/8AUjz/APcE1D/mrFXf8rw/&#xA;5yv/AOpHn/7gmof81Yq7/leH/OV//Ujz/wDcE1D/AJqxVZL+e3/OVUMbSzeSpY4kHJ3fRdQVQB4k&#xA;sKYq9O/In/nI2x/MS4fQ9XtI9L8zxRmVI4mJt7lE+2YQ5Lq6dShJ23BO9FXtOKuxV8l6n/63Gn/G&#xA;e3/7oqYq7/nBz/jq+bv+MFl/xObFX1pirsVfGP8Azibd+XoPzR1u480zRweZWiddPa8KofrDyn60&#xA;FL0/fHoKb05e+Kvs4EEVG4PQ4q7FXYq7FXYq7FXEhQSTQDck9AMVfGP/ADlLqOia5+buh2vlGWO4&#xA;8xxxw213c2pDA3Zn/wBGQutQ0kddzvQUHagVTL/nMuGWL8xPKt5qEbyaCbIIUWo5NHcs1yqmo+Ix&#xA;vHir6p8tax5e1bRrW78vXNvc6UYkFq1qymNUCgKlF+xxG3Ht0xVM8VdirsVdirsVdirsVWySRxoZ&#xA;JGCIu7MxAAHuTir4y1q40Wb/AJy80u48kSxTRS6naNevamsJkYAagUKbGsfMuRty5Yq+z8Vdir5L&#xA;1P8A9bjT/jPb/wDdFTFXf84Of8dXzd/xgsv+JzYq+tMVdirw381f+cU/K3nTWJ9d0q/fQNXu2Ml4&#xA;FiE9tNIeshi5RMjuftMGoevGtSVXnv8A0I5qv/U3Qf8ASE//AFWxV3/Qjmq/9TdB/wBIT/8AVbFX&#xA;f9COar/1N0H/AEhP/wBVsVd/0I5qv/U3Qf8ASE//AFWxV3/Qjmq/9TdB/wBIT/8AVbFXf9COar/1&#xA;N0H/AEhP/wBVsVd/0I5qv/U3Qf8ASE//AFWxV6Z+Uf8AzjB5V8hanHrl7ePruuwg/VZpI1ht4CRT&#xA;nHDWQ8+o5Mx9gDir0D8xfy38sfmB5fbRNfhZog3q21zCQs8EoBAkiYhhWhoQQQe4xV88XX/ODl39&#xA;Yf6p5uj+r1/d+rZHmB4HjNQ/PFVL/oRzVf8AqboP+kJ/+q2Ku/6Ec1X/AKm6D/pCf/qtirv+hHNV&#xA;/wCpug/6Qn/6rYq7/oRzVf8AqboP+kJ/+q2Ku/6Ec1X/AKm6D/pCf/qtirv+hHNV/wCpug/6Qn/6&#xA;rYq7/oRzVf8AqboP+kJ/+q2Ku/6Ec1X/AKm6D/pCf/qtir1z8n/+cdPKf5cXTaqLiTWPMDIYl1GZ&#xA;BEkSMKOIIQX4FuhYsxpsCATVV6xirsVfJep/+txp/wAZ7f8A7oqYq7/nBz/jq+bv+MFl/wATmxV9&#xA;aYq7FXYq7FXYq7FXYq7FXYq7FXYq7FXYq7FXYq7FXYq7FXYq7FXYq7FXYq7FXyXqf/rcaf8AGe3/&#xA;AO6KmKu/5wc/46vm7/jBZf8AE5sVfWmKuxV8k+d/zq/Nj8xvP1z5P/KtpbbT7N5EFxalI5Z1hbg9&#xA;zJcPT0ouX2ACK1FakgBVv/lV3/OYH/UzT/8AcVbFXf8AKrv+cwP+pmn/AO4q2KpVP+YP/ORH5N+Y&#xA;bGTztPNq+jXrfFFczLdRTItPUEM+7xSoDsCQO5UjFX1tp/mfRL/yzD5mguVGiz2gvxdNsFtzH6hZ&#xA;x+zxX7Q7Yq+Tbr80/wA9vzi83Xln+Xkk+laJZEmJIJFtuERJCSXVwTyMklPsKaeA2LYqmP8Ayq7/&#xA;AJzA/wCpmn/7irYq7/lV3/OYH/UzT/8AcVbFXf8AKrv+cwP+pmn/AO4q2Ku/5Vd/zmB/1M0//cVb&#xA;FXf8qu/5zA/6maf/ALirYq7/AJVd/wA5gf8AUzT/APcVbFXf8qu/5zA/6maf/uKtirv+VXf85gf9&#xA;TNP/ANxVsVd/yq7/AJzA/wCpmn/7irYq7/lV3/OYH/UzT/8AcVbFXf8AKrv+cwP+pmn/AO4q2Ku/&#xA;5Vd/zmB/1M0//cVbFXN+V/8AzmCFJHmW4YgVCjVWqfYVIGKp3+Rv56+ebfzyfy2/MpXbU3kNvaXk&#xA;6qk8VwqlhDMUHGRZV/u5B7bsGqFX01irsVfJep/+txp/xnt/+6KmKu/5wc/46vm7/jBZf8TmxV9a&#xA;Yq7FXxJ+R3nLTvyZ/M7zBoXnWJ7WKUfUpr9YmcxPBJyjk4qGcwyo3KqV/ZO4xV9I/wDQyP5Jf9TT&#xA;B/yJuf8Aqlirv+hkfyS/6mmD/kTc/wDVLFXjH/OUH53flz5s8mW3l3y5d/pe9a8jumuVikjigWJX&#xA;X7UqoWdudKKDtWvbFXqHlryd5iH/ADi8PLLQMut3Gg3SRWhqH53KySxQkHoxWQKQeh2xV5B/ziz+&#xA;cfkLyTo2r6B5pmOlXdxeG6ivnikdHURLH6L+mrshQxkiop8R74q92/6GR/JL/qaYP+RNz/1SxV3/&#xA;AEMj+SX/AFNMH/Im5/6pYq7/AKGR/JL/AKmmD/kTc/8AVLFXf9DI/kl/1NMH/Im5/wCqWKu/6GR/&#xA;JL/qaYP+RNz/ANUsVd/0Mj+SX/U0wf8AIm5/6pYq7/oZH8kv+ppg/wCRNz/1SxV3/QyP5Jf9TTB/&#xA;yJuf+qWKu/6GR/JL/qaYP+RNz/1SxV3/AEMj+SX/AFNMH/Im5/6pYq7/AKGR/JL/AKmmD/kTc/8A&#xA;VLFXf9DI/kl/1NMH/Im5/wCqWKtN/wA5J/kiqlj5phoBU0guidvACKuKvnrTtXP5tf8AOUem675e&#xA;tpY9KsLq1umuCvFvq2m8WMs1K8fVdOCg9mA64q+0MVdir5L1P/1uNP8AjPb/APdFTFXf84Of8dXz&#xA;d/xgsv8Aic2KvrTFXYqwvz/+T35fefTHL5j0tZr2FeEN/CzQ3CrWvEyIRzXc0V6gdsVYT/0KF+Tf&#xA;/LNff9Jbf0xV3/QoX5N/8s19/wBJbf0xVOvKn/ONn5R+WtTj1O00lru8hIaB76VrhY2G4ZY2/d8h&#xA;2JUkdsVeoYq8285/847/AJU+btTfVNS0kwajKxa4ubKRrcyserSKvwMxO5bjyPc4qx7/AKFC/Jv/&#xA;AJZr7/pLb+mKu/6FC/Jv/lmvv+ktv6Yq7/oUL8m/+Wa+/wCktv6Yq7/oUL8m/wDlmvv+ktv6Yq7/&#xA;AKFC/Jv/AJZr7/pLb+mKu/6FC/Jv/lmvv+ktv6Yq7/oUL8m/+Wa+/wCktv6Yq7/oUL8m/wDlmvv+&#xA;ktv6Yq7/AKFC/Jv/AJZr7/pLb+mKu/6FC/Jv/lmvv+ktv6Yq7/oUL8m/+Wa+/wCktv6Yq7/oUL8m&#xA;/wDlmvv+ktv6Yq7/AKFC/Jv/AJZr7/pLb+mKvRvI/wCXXk3yPp72HlnTY7GKUhriQFnmlZa0Mkrl&#xA;nalTQVoO2KskxV2KvkvU/wD1uNP+M9v/AN0VMVd/zg5/x1fN3/GCy/4nNir60xV2KuxV2KuxV2Ku&#xA;xV2KuxV2KuxV2KuxV2KuxV2KuxV2KuxV2KuxV2KuxV2KvkvU/wD1uNP+M9v/AN0VMVd/zg5/x1fN&#xA;3/GCy/4nNir60xV2KuxV2KuxV2KuxV2KuxV2KuxV2KuxV2KuxV2KuxV2KuxV2KuxV2KuxV2KvkvU&#xA;/wD1uNP+M9v/AN0VMVd/zg5/x1fN3/GCy/4nNir60xV2KuxV2KuxV2KuxV2KuxV2KuxV2KuxV2Ku&#xA;xV2KuxV2KuxV2KuxV2KuxV2KvkvU/wD1uNP+M9v/AN0VMVd/zg5/x1fN3/GCy/4nNir60xV2KuxV&#xA;2KuxV2KuxV2KuxV2KuxV2KuxV2KuxV2KuxV2KuxV2KuxV2KuxV2KvkvU/wD1uNP+M9v/AN0VMVWf&#xA;84PSxrrfmyFmAla2tGVD1KpJKGP0Fhir63xV2KuxV2KuxV2KuxV2KuxV2KuxV2KuxV2KuxV2KuxV&#xA;2KuxV2KuxV2KuxV2Kvki8lSf/nOFWhPMC5iUkeMejqrj/YlTXFVH8yvy1/MT8pfzEn/MH8voHuNE&#xA;uHkmkjhjMy26zHlNbXMK/EYC26sOm24YAlVWi/5zh1tY1WbynbNKBR2W7kRSfZTExH34qv8A+h49&#xA;V/6lGD/pNf8A6o4q7/oePVf+pRg/6TX/AOqOKu/6Hj1X/qUYP+k1/wDqjirv+h49V/6lGD/pNf8A&#xA;6o4q7/oePVf+pRg/6TX/AOqOKu/6Hj1X/qUYP+k1/wDqjirv+h49V/6lGD/pNf8A6o4q7/oePVf+&#xA;pRg/6TX/AOqOKu/6Hj1X/qUYP+k1/wDqjirv+h49V/6lGD/pNf8A6o4q7/oePVf+pRg/6TX/AOqO&#xA;Ku/6Hj1X/qUYP+k1/wDqjirv+h49V/6lGD/pNf8A6o4q7/oePVf+pRg/6TX/AOqOKu/6Hj1X/qUY&#xA;P+k1/wDqjirv+h49V/6lGD/pNf8A6o4q7/oePVf+pRg/6TX/AOqOKu/6Hj1X/qUYP+k1/wDqjirv&#xA;+h49V/6lGD/pNf8A6o4qmXln/nM3UtX8xabpT+UV439zFbE2908koErhKonojkRWtK7+2Ksk/OH/&#xA;AJyivPIHna48sweWvrotooZGvJ7hoBIZkD1iURvVVrx5V+0CO2KsJ/6Hj1X/AKlGD/pNf/qjiqhe&#xA;/wDOa/mq8tZLXSfK9tb6hMOFvM08lzxY7AiIJHyPgK4qyf8A5xn/ACd8123mO8/MrzvFLDq94JjY&#xA;W1yONyZLo1nupkoChYMVVTvu1QNsVf/Z</xmpGImg:image>
               </rdf:li>
            </rdf:Alt>
         </xmp:Thumbnails>
         <xmpMM:RenditionClass>proof:pdf</xmpMM:RenditionClass>
         <xmpMM:OriginalDocumentID>uuid:65E6390686CF11DBA6E2D887CEACB407</xmpMM:OriginalDocumentID>
         <xmpMM:DocumentID>xmp.did:e22bfe80-1eb6-fe44-8b78-79a41ed68a93</xmpMM:DocumentID>
         <xmpMM:InstanceID>xmp.iid:e22bfe80-1eb6-fe44-8b78-79a41ed68a93</xmpMM:InstanceID>
         <xmpMM:DerivedFrom rdf:parseType="Resource">
            <stRef:instanceID>xmp.iid:827f6524-b688-7940-80ab-7e06657f92bc</stRef:instanceID>
            <stRef:documentID>xmp.did:827f6524-b688-7940-80ab-7e06657f92bc</stRef:documentID>
            <stRef:originalDocumentID>uuid:65E6390686CF11DBA6E2D887CEACB407</stRef:originalDocumentID>
            <stRef:renditionClass>proof:pdf</stRef:renditionClass>
         </xmpMM:DerivedFrom>
         <xmpMM:History>
            <rdf:Seq>
               <rdf:li rdf:parseType="Resource">
                  <stEvt:action>saved</stEvt:action>
                  <stEvt:instanceID>xmp.iid:827f6524-b688-7940-80ab-7e06657f92bc</stEvt:instanceID>
                  <stEvt:when>2017-08-09T13:30:46-05:00</stEvt:when>
                  <stEvt:softwareAgent>Adobe Illustrator CC (Windows)</stEvt:softwareAgent>
                  <stEvt:changed>/</stEvt:changed>
               </rdf:li>
               <rdf:li rdf:parseType="Resource">
                  <stEvt:action>saved</stEvt:action>
                  <stEvt:instanceID>xmp.iid:e22bfe80-1eb6-fe44-8b78-79a41ed68a93</stEvt:instanceID>
                  <stEvt:when>2017-08-09T13:32:40-05:00</stEvt:when>
                  <stEvt:softwareAgent>Adobe Illustrator CC (Windows)</stEvt:softwareAgent>
                  <stEvt:changed>/</stEvt:changed>
               </rdf:li>
            </rdf:Seq>
         </xmpMM:History>
         <illustrator:StartupProfile>Web</illustrator:StartupProfile>
         <xmpTPg:NPages>1</xmpTPg:NPages>
         <xmpTPg:HasVisibleTransparency>False</xmpTPg:HasVisibleTransparency>
         <xmpTPg:HasVisibleOverprint>False</xmpTPg:HasVisibleOverprint>
         <xmpTPg:MaxPageSize rdf:parseType="Resource">
            <stDim:w>512.000000</stDim:w>
            <stDim:h>512.000000</stDim:h>
            <stDim:unit>Pixels</stDim:unit>
         </xmpTPg:MaxPageSize>
         <xmpTPg:PlateNames>
            <rdf:Seq>
               <rdf:li>Cyan</rdf:li>
               <rdf:li>Magenta</rdf:li>
               <rdf:li>Yellow</rdf:li>
               <rdf:li>Black</rdf:li>
            </rdf:Seq>
         </xmpTPg:PlateNames>
         <xmpTPg:SwatchGroups>
            <rdf:Seq>
               <rdf:li rdf:parseType="Resource">
                  <xmpG:groupName>Grupo de muestras por defecto</xmpG:groupName>
                  <xmpG:groupType>0</xmpG:groupType>
               </rdf:li>
            </rdf:Seq>
         </xmpTPg:SwatchGroups>
         <pdf:Producer>Adobe PDF library 10.01</pdf:Producer>
      </rdf:Description>
   </rdf:RDF>
</x:xmpmeta>
                                                                                                    
                                                                                                    
                                                                                                    
                                                                                                    
                                                                                                    
                                                                                                    
                                                                                                    
                                                                                                    
                                                                                                    
                                                                                                    
                                                                                                    
                                                                                                    
                                                                                                    
                                                                                                    
                                                                                                    
                                                                                                    
                                                                                                    
                                                                                                    
                                                                                                    
                                                                                                    
                           
<?xpacket end="w"?>
	</metadata>
<g id="FORM">
	<g>
		<g>
			<g>
				<path d="M442.368,512h-32.085c-2.263,0-4.096-1.833-4.096-4.096s1.833-4.096,4.096-4.096h32.085
					c6.399,0,11.605-5.819,11.605-12.971V114.396L342.425,8.192H124.928c-2.262,0-4.096-1.834-4.096-4.096S122.666,0,124.928,0
					h219.136c1.052,0,2.063,0.405,2.824,1.129l114.005,108.544c0.812,0.773,1.272,1.845,1.272,2.967v378.197
					C462.165,502.507,453.284,512,442.368,512z"/>
			</g>
		</g>
		<g>
			<g>
				<path d="M396.629,512H70.997c-11.273,0-21.163-9.889-21.163-21.163V19.797C49.835,8.881,59.328,0,70.997,0h34.816
					c2.262,0,4.096,1.834,4.096,4.096s-1.834,4.096-4.096,4.096H70.997c-7.152,0-12.971,5.206-12.971,11.605v471.04
					c0,6.788,6.182,12.971,12.971,12.971h325.632c2.263,0,4.096,1.833,4.096,4.096S398.892,512,396.629,512z"/>
			</g>
		</g>
		<g>
			<g>
				<g>
					<path d="M398.22,257.186c4.953,0,9.016,4.039,9.041,8.997c0.024,4.974-4.025,9.066-9,9.092H115.197c-0.025,0-0.051,0-0.076,0
						c-4.941,0-8.99-2.555-9.017-7.504v-0.001c-0.027-4.974,4.022-10.558,8.997-10.584h283.07
						C398.187,257.186,398.204,257.186,398.22,257.186 M398.22,248.994c-0.019,0-0.087,0-0.106,0H115.101
						c-10.206,0.054-17.236,9.962-17.188,18.82c0.049,9.07,7.286,15.653,17.209,15.653h0.113h283.027
						c9.545-0.049,17.239-7.821,17.192-17.324C415.406,256.686,407.675,248.994,398.22,248.994L398.22,248.994z"/>
				</g>
			</g>
			<g>
				<g>
					<g>
						<path d="M398.22,378.71c4.953,0,9.016,4.039,9.041,8.997c0.024,4.975-4.025,9.066-9,9.092H192.692c-0.025,0-0.051,0-0.076,0
							c-4.941,0-8.99-2.555-9.017-7.504v-0.001c-0.027-4.974,4.022-10.558,8.997-10.584h205.576
							C398.187,378.71,398.204,378.71,398.22,378.71 M398.22,370.518c-0.016,0-0.082,0-0.098,0H192.595
							c-10.206,0.054-17.236,9.962-17.188,18.82c0.049,9.07,7.286,15.653,17.209,15.653h0.123h205.522
							c9.545-0.049,17.238-7.821,17.192-17.324C415.406,378.211,407.675,370.518,398.22,370.518L398.22,370.518z"/>
					</g>
				</g>
				<g>
					<g>
						<path d="M115.145,378.71c0.016,0,0.033,0,0.049,0h32.891c4.974,0.027,9.023,5.61,8.997,10.584v0.001
							c-0.026,4.949-4.076,7.504-9.017,7.504c-0.025,0-0.051,0-0.076,0h-32.885c-4.975-0.026-9.024-4.118-9-9.092
							C106.129,382.748,110.193,378.71,115.145,378.71 M115.145,370.518c-9.455,0-17.186,7.693-17.233,17.148
							c-0.047,9.504,7.646,17.276,17.149,17.325h32.927h0.076c9.923,0,17.161-6.583,17.209-15.652
							c0.023-4.314-1.595-8.811-4.439-12.336c-3.305-4.096-7.935-6.459-12.705-6.485h-32.935L115.145,370.518L115.145,370.518z"/>
					</g>
				</g>
			</g>
			<g>
				<g>
					<g>
						<path d="M311.094,196.423c4.953,0,9.016,4.038,9.041,8.997c0.024,4.975-4.025,9.066-9,9.092H115.197c-0.025,0-0.051,0-0.076,0
							c-4.941,0-8.991-2.555-9.017-7.504v-0.001c-0.027-4.974,4.022-10.558,8.997-10.584h195.944
							C311.061,196.424,311.078,196.423,311.094,196.423 M311.095,188.231c-0.017,0-0.083,0-0.1,0H115.101
							c-4.814,0.026-9.444,2.389-12.749,6.485c-2.844,3.525-4.462,8.021-4.439,12.335c0.049,9.07,7.286,15.653,17.209,15.653h0.123
							h195.89c9.545-0.049,17.238-7.821,17.192-17.324C328.28,195.924,320.55,188.231,311.095,188.231L311.095,188.231z"/>
					</g>
				</g>
				<g>
					<g>
						<path d="M351.15,196.423c0.016,0,0.033,0,0.049,0h47.065c4.974,0.027,9.023,5.61,8.997,10.584v0.001
							c-0.026,4.949-4.076,7.504-9.017,7.504c-0.025,0-0.051,0-0.076,0h-47.059c-4.975-0.026-9.024-4.118-9-9.092
							C342.134,200.462,346.197,196.423,351.15,196.423 M351.15,188.231c-9.455,0-17.186,7.693-17.233,17.149
							c-0.047,9.504,7.646,17.275,17.149,17.325h47.102h0.076c9.923,0,17.16-6.583,17.209-15.652
							c0.023-4.314-1.595-8.811-4.439-12.336c-3.305-4.096-7.935-6.459-12.705-6.485H351.2L351.15,188.231L351.15,188.231z"/>
					</g>
				</g>
			</g>
			<g>
				<g>
					<g>
						<path d="M224.34,317.948c4.953,0,9.016,4.039,9.041,8.997c0.024,4.975-4.025,9.066-9,9.092H115.197c-0.025,0-0.051,0-0.076,0
							c-4.941,0-8.991-2.555-9.017-7.504v-0.001c-0.027-4.974,4.022-10.558,8.997-10.584h109.19
							C224.307,317.948,224.324,317.948,224.34,317.948 M224.34,309.756c-0.012,0-0.073,0-0.085,0H115.101
							c-4.814,0.026-9.444,2.389-12.749,6.485c-2.844,3.525-4.462,8.021-4.439,12.335c0.049,9.07,7.286,15.653,17.209,15.653h0.122
							h109.137c9.545-0.049,17.238-7.821,17.192-17.324C241.526,317.448,233.795,309.756,224.34,309.756L224.34,309.756z"/>
					</g>
				</g>
				<g>
					<g>
						<path d="M265.484,317.948c0.016,0,0.033,0,0.049,0h132.731c4.974,0.027,9.023,5.61,8.997,10.584v0.001
							c-0.026,4.949-4.076,7.504-9.017,7.504c-0.025,0-0.051,0-0.076,0H265.443c-4.975-0.026-9.024-4.118-9-9.092
							C256.468,321.986,260.531,317.948,265.484,317.948 M265.484,309.756c-9.455,0-17.186,7.693-17.233,17.148
							c-0.047,9.504,7.646,17.276,17.149,17.325h132.767h0.076c9.923,0,17.16-6.583,17.209-15.652
							c0.023-4.314-1.595-8.811-4.439-12.336c-3.305-4.096-7.936-6.459-12.706-6.485H265.532L265.484,309.756L265.484,309.756z"/>
					</g>
				</g>
			</g>
		</g>
		<g>
			<path d="M457.413,117.419c-0.008,0-0.019,0-0.027,0h-96.559c-11.275,0-21.543-9.943-21.543-20.86V5.365
				c0-1.637,0.973-3.116,2.477-3.763c1.505-0.647,3.247-0.335,4.435,0.789l113.735,107.701c0.96,0.75,1.577,1.919,1.577,3.231
				C461.509,115.585,459.676,117.419,457.413,117.419z M347.477,14.885v81.674c0,6.511,6.488,12.668,13.351,12.668h86.276
				L347.477,14.885z"/>
		</g>
	</g>
</g>
</svg>
