<?xml version="1.0" encoding="utf-8"?>
<!-- Generator: Adobe Illustrator 17.0.0, SVG Export Plug-In . SVG Version: 6.00 Build 0)  -->
<!DOCTYPE svg PUBLIC "-//W3C//DTD SVG 1.1//EN" "http://www.w3.org/Graphics/SVG/1.1/DTD/svg11.dtd" [
	<!ENTITY ns_extend "http://ns.adobe.com/Extensibility/1.0/">
	<!ENTITY ns_ai "http://ns.adobe.com/AdobeIllustrator/10.0/">
	<!ENTITY ns_graphs "http://ns.adobe.com/Graphs/1.0/">
	<!ENTITY ns_vars "http://ns.adobe.com/Variables/1.0/">
	<!ENTITY ns_imrep "http://ns.adobe.com/ImageReplacement/1.0/">
	<!ENTITY ns_sfw "http://ns.adobe.com/SaveForWeb/1.0/">
	<!ENTITY ns_custom "http://ns.adobe.com/GenericCustomNamespace/1.0/">
	<!ENTITY ns_adobe_xpath "http://ns.adobe.com/XPath/1.0/">
]>
<svg version="1.1" id="Layer_1" xmlns:x="&ns_extend;" xmlns:i="&ns_ai;" xmlns:graph="&ns_graphs;"
	 xmlns="http://www.w3.org/2000/svg" xmlns:xlink="http://www.w3.org/1999/xlink" x="0px" y="0px" width="512px" height="512px"
	 viewBox="-68.604 24 512 512" enable-background="new -68.604 24 512 512" xml:space="preserve">
<metadata>
	<sfw  xmlns="&ns_sfw;">
		<slices></slices>
		<sliceSourceBounds  height="512" width="342.667" x="308.166" y="24.5" bottomLeftOrigin="true"></sliceSourceBounds>
	</sfw>
</metadata>
<g>
	<g>
		<path fill="#4EFFBB" d="M345.974,198.839h-46.329v-46.43c0-54.244-42.853-98.357-95.534-98.357
			c-52.632,0-95.484,44.112-95.484,98.357v46.43H58.92c-7.057,0-12.806,5.848-12.806,13.157v92.156
			c0,84.291,63.318,153.61,143.578,160.315v45.221h-37.91c-7.057,0-12.754,5.848-12.754,13.157c0,7.259,5.697,13.157,12.754,13.157
			h99.616c7.057,0,12.805-5.897,12.805-13.157c0-7.309-5.746-13.157-12.805-13.157h-36.197v-45.221
			c80.258-6.705,143.527-76.023,143.527-160.315v-92.156C358.729,204.688,353.033,198.839,345.974,198.839z M333.17,304.153
			c0,74.208-58.631,134.603-130.721,134.603S71.676,378.361,71.676,304.153v-78.997h36.953v76.779
			c0,54.194,42.853,98.357,95.484,98.357c52.681,0,95.534-44.163,95.534-98.357v-76.779h33.526
			C333.17,225.154,333.17,304.153,333.17,304.153z"/>
		<g id="XMLID_18_">
			<g>
				<path fill="none" stroke="#302C58" stroke-miterlimit="10" d="M244.033,234.779v37.104c0,39.725-31.357,72.041-69.974,72.041
					c-38.566,0-69.923-32.315-69.923-72.041v-37.104h13.209c7.007,0,12.753-5.897,12.753-13.158c0-7.259-5.746-13.157-12.753-13.157
					h-13.209v-67.705h13.209c7.007,0,12.753-5.897,12.753-13.158s-5.746-13.158-12.753-13.158H104.59
					c3.832-35.996,33.526-64.126,69.47-64.126c35.996,0,65.689,28.131,69.52,64.126h-13.36c-7.057,0-12.754,5.899-12.754,13.158
					s5.697,13.158,12.754,13.158h13.814v67.705H230.22c-7.057,0-12.754,5.897-12.754,13.157s5.697,13.158,12.754,13.158
					C230.22,234.779,244.033,234.779,244.033,234.779z"/>
				<path fill="#222051" d="M29.792,277.686L29.792,277.686c-7.694,0-13.545,6.735-12.713,14.383
					c2.093,19.222,7.497,37.423,15.598,53.997c2.163,4.431,6.64,7.269,11.57,7.269h0.116c9.428,0,15.694-9.881,11.51-18.325
					c-6.961-14.035-11.6-29.488-13.385-45.81C41.774,282.671,36.359,277.686,29.792,277.686z"/>
				<path fill="#222051" d="M315.923,168.788h-46.329v-46.43C269.592,68.112,226.741,24,174.058,24
					c-52.632,0-95.484,44.112-95.484,98.357v46.43H28.867c-7.057,0-12.806,5.848-12.806,13.158v75.132
					c0,7.057,5.723,12.78,12.78,12.78l0,0c7.057,0,12.78-5.723,12.78-12.78v-61.975h36.953v76.779
					c0,54.194,42.853,98.357,95.484,98.357c52.681,0,95.534-44.163,95.534-98.357v-76.779h33.526V274.1
					c0,74.208-58.631,134.603-130.721,134.603c-37.785,0-71.874-16.595-95.76-43.073c-2.511-2.783-6.01-4.467-9.759-4.467l0,0
					c-11.087,0-17.126,13.138-9.759,21.422c25.898,29.128,62.045,48.448,102.527,51.831v45.221h-37.91
					c-7.057,0-12.754,5.848-12.754,13.157c0,7.259,5.697,13.158,12.754,13.158h99.616c7.057,0,12.806-5.897,12.806-13.158
					c0-7.309-5.746-13.157-12.806-13.157h-36.197v-45.221c80.258-6.705,143.527-76.023,143.527-160.315v-92.157
					C328.677,174.635,322.98,168.788,315.923,168.788z M244.033,208.463h-13.814c-7.057,0-12.754,5.897-12.754,13.157
					s5.697,13.158,12.754,13.158h13.814v37.104c0,39.725-31.357,72.041-69.974,72.041c-38.566,0-69.923-32.315-69.923-72.041
					v-37.104h13.209c7.007,0,12.753-5.897,12.753-13.158c0-7.259-5.746-13.157-12.753-13.157h-13.209v-67.705h13.209
					c7.007,0,12.753-5.897,12.753-13.158c0-7.261-5.746-13.158-12.753-13.158H104.59c3.832-35.996,33.526-64.126,69.47-64.126
					c35.996,0,65.689,28.131,69.52,64.126h-13.36c-7.057,0-12.754,5.899-12.754,13.158s5.697,13.158,12.754,13.158h13.814v67.705
					H244.033z"/>
			</g>
		</g>
	</g>
</g>
</svg>
