<?xml version="1.0" encoding="utf-8"?>
<!-- Generator: Adobe Illustrator 17.0.0, SVG Export Plug-In . SVG Version: 6.00 Build 0)  -->
<!DOCTYPE svg PUBLIC "-//W3C//DTD SVG 1.1//EN" "http://www.w3.org/Graphics/SVG/1.1/DTD/svg11.dtd" [
	<!ENTITY ns_extend "http://ns.adobe.com/Extensibility/1.0/">
	<!ENTITY ns_ai "http://ns.adobe.com/AdobeIllustrator/10.0/">
	<!ENTITY ns_graphs "http://ns.adobe.com/Graphs/1.0/">
	<!ENTITY ns_vars "http://ns.adobe.com/Variables/1.0/">
	<!ENTITY ns_imrep "http://ns.adobe.com/ImageReplacement/1.0/">
	<!ENTITY ns_sfw "http://ns.adobe.com/SaveForWeb/1.0/">
	<!ENTITY ns_custom "http://ns.adobe.com/GenericCustomNamespace/1.0/">
	<!ENTITY ns_adobe_xpath "http://ns.adobe.com/XPath/1.0/">
]>
<svg version="1.1" id="Capa_1" xmlns:x="&ns_extend;" xmlns:i="&ns_ai;" xmlns:graph="&ns_graphs;"
	 xmlns="http://www.w3.org/2000/svg" xmlns:xlink="http://www.w3.org/1999/xlink" x="0px" y="0px" width="594px" height="476.079px"
	 viewBox="200 49.96 594 476.079" enable-background="new 200 49.96 594 476.079" xml:space="preserve">
<metadata>
	<sfw  xmlns="&ns_sfw;">
		<slices></slices>
		<sliceSourceBounds  width="594" height="476.079" x="199.5" y="34.46" bottomLeftOrigin="true"></sliceSourceBounds>
	</sfw>
</metadata>
<g>
	<path fill="#4EFFBB" d="M244.721,209.66h76.85c5.921,0,10.721-4.799,10.721-10.721v-76.848c0-5.922-4.8-10.721-10.721-10.721
		h-66.129v-7.853l19.257-19.256c4.187-4.188,4.187-10.975,0-15.162c-4.188-4.185-10.975-4.185-15.162,0l-22.398,22.395
		c-2.01,2.011-3.139,4.739-3.139,7.582v23.015v13.151v63.699C234,204.862,238.8,209.66,244.721,209.66z"/>
	<path fill="#4EFFBB" d="M367.921,209.66h76.851c5.922,0,10.721-4.799,10.721-10.721v-76.848c0-5.922-4.799-10.721-10.721-10.721
		h-66.13v-7.853L397.9,84.261c4.187-4.188,4.187-10.975,0-15.162c-4.188-4.185-10.975-4.185-15.162,0L360.34,91.494
		c-2.01,2.011-3.139,4.737-3.139,7.582v23.015v13.151v63.699C357.201,204.862,361.999,209.66,367.921,209.66z"/>
	<path fill="#4EFFBB" d="M783.279,382.338H706.43c-5.921,0-10.721,4.799-10.721,10.721v76.85c0,5.922,4.8,10.721,10.721,10.721
		h66.129v7.853l-19.257,19.256c-4.187,4.188-4.187,10.975,0,15.162c2.094,2.093,4.839,3.139,7.582,3.139
		c2.743,0,5.488-1.048,7.582-3.139l22.396-22.396c2.01-2.011,3.139-4.737,3.139-7.582v-23.015v-13.148v-63.702
		C794,387.137,789.2,382.338,783.279,382.338z"/>
	<path fill="#4EFFBB" d="M660.079,382.338h-76.849c-5.922,0-10.721,4.799-10.721,10.721v76.85c0,5.922,4.799,10.721,10.721,10.721
		h66.129v7.853L630.1,507.739c-4.187,4.188-4.187,10.975,0,15.162c2.094,2.093,4.839,3.139,7.582,3.139
		c2.743,0,5.488-1.048,7.582-3.139l22.396-22.396c2.01-2.011,3.139-4.737,3.139-7.582v-23.015v-13.148v-63.702
		C670.799,387.137,666.001,382.338,660.079,382.338z"/>
	<path fill="#4EFFBB" d="M499.333,209.66h283.947c5.921,0,10.721-4.799,10.721-10.721c0-5.922-4.8-10.721-10.721-10.721H499.333
		c-5.922,0-10.721,4.799-10.721,10.721C488.612,204.862,493.412,209.66,499.333,209.66z"/>
	<path fill="#4EFFBB" d="M783.279,255.961H244.721c-5.921,0-10.721,4.799-10.721,10.721c0,5.922,4.8,10.721,10.721,10.721h538.558
		c5.921,0,10.721-4.799,10.721-10.721C794,260.76,789.2,255.961,783.279,255.961z"/>
	<path fill="#4EFFBB" d="M783.279,323.704H244.721c-5.921,0-10.721,4.799-10.721,10.721s4.8,10.721,10.721,10.721h538.558
		c5.921,0,10.721-4.799,10.721-10.721C794,328.503,789.2,323.704,783.279,323.704z"/>
	<path fill="#4EFFBB" d="M528.916,459.188H244.721c-5.921,0-10.721,4.799-10.721,10.721s4.8,10.721,10.721,10.721h284.195
		c5.921,0,10.721-4.799,10.721-10.721S534.837,459.188,528.916,459.188z"/>
	<path fill="#4EFFBB" d="M528.916,391.445H244.721c-5.921,0-10.721,4.799-10.721,10.721s4.8,10.721,10.721,10.721h284.195
		c5.921,0,10.721-4.799,10.721-10.721C539.637,396.245,534.837,391.445,528.916,391.445z"/>
</g>
<g>
	<path fill="#222051" d="M210.721,193.66h76.85c5.921,0,10.721-4.799,10.721-10.721v-76.848c0-5.922-4.8-10.721-10.721-10.721
		h-66.129v-7.853l19.257-19.256c4.187-4.188,4.187-10.975,0-15.162c-4.188-4.185-10.975-4.185-15.162,0l-22.398,22.395
		c-2.01,2.011-3.139,4.739-3.139,7.582v23.015v13.151v63.699C200,188.862,204.8,193.66,210.721,193.66z M276.85,116.812v55.408
		h-55.408v-52.978v-2.43H276.85z"/>
	<path fill="#222051" d="M333.921,193.66h76.851c5.922,0,10.721-4.799,10.721-10.721v-76.848c0-5.922-4.799-10.721-10.721-10.721
		h-66.13v-7.853L363.9,68.261c4.187-4.188,4.187-10.975,0-15.162c-4.188-4.185-10.975-4.185-15.162,0L326.34,75.494
		c-2.01,2.011-3.139,4.737-3.139,7.582v23.015v13.151v63.699C323.201,188.862,327.999,193.66,333.921,193.66z M400.05,116.812
		v55.408h-55.409v-52.978v-2.43H400.05z"/>
	<path fill="#222051" d="M749.279,366.338H672.43c-5.921,0-10.721,4.799-10.721,10.721v76.85c0,5.922,4.8,10.721,10.721,10.721
		h66.129v7.853l-19.257,19.256c-4.187,4.188-4.187,10.975,0,15.162c2.094,2.093,4.839,3.139,7.582,3.139
		c2.743,0,5.488-1.048,7.582-3.139l22.396-22.396c2.01-2.011,3.139-4.737,3.139-7.582v-23.015v-13.148v-63.702
		C760,371.137,755.2,366.338,749.279,366.338z M683.151,443.188V387.78h55.408v52.981v2.427H683.151z"/>
	<path fill="#222051" d="M626.079,366.338h-76.849c-5.922,0-10.721,4.799-10.721,10.721v76.85c0,5.922,4.799,10.721,10.721,10.721
		h66.129v7.853L596.1,491.739c-4.187,4.188-4.187,10.975,0,15.162c2.094,2.093,4.839,3.139,7.582,3.139
		c2.743,0,5.488-1.048,7.582-3.139l22.396-22.396c2.01-2.011,3.139-4.737,3.139-7.582v-23.015v-13.148v-63.702
		C636.799,371.137,632.001,366.338,626.079,366.338z M559.951,443.188V387.78h55.408v52.981v2.427H559.951z"/>
	<path fill="#222051" d="M465.333,193.66h283.947c5.921,0,10.721-4.799,10.721-10.721c0-5.922-4.8-10.721-10.721-10.721H465.333
		c-5.922,0-10.721,4.799-10.721,10.721C454.612,188.862,459.412,193.66,465.333,193.66z"/>
	<path fill="#222051" d="M749.279,239.961H210.721c-5.921,0-10.721,4.799-10.721,10.721c0,5.922,4.8,10.721,10.721,10.721h538.558
		c5.921,0,10.721-4.799,10.721-10.721C760,244.76,755.2,239.961,749.279,239.961z"/>
	<path fill="#222051" d="M749.279,307.704H210.721c-5.921,0-10.721,4.799-10.721,10.721s4.8,10.721,10.721,10.721h538.558
		c5.921,0,10.721-4.799,10.721-10.721C760,312.503,755.2,307.704,749.279,307.704z"/>
	<path fill="#222051" d="M494.916,443.188H210.721c-5.921,0-10.721,4.799-10.721,10.721s4.8,10.721,10.721,10.721h284.195
		c5.921,0,10.721-4.799,10.721-10.721S500.837,443.188,494.916,443.188z"/>
	<path fill="#222051" d="M494.916,375.445H210.721c-5.921,0-10.721,4.799-10.721,10.721s4.8,10.721,10.721,10.721h284.195
		c5.921,0,10.721-4.799,10.721-10.721C505.637,380.245,500.837,375.445,494.916,375.445z"/>
</g>
</svg>
